M48
; DRILL file {KiCad 5.1.5+dfsg1-2build2} date Di 16 Nov 2021 19:49:47 CET
; FORMAT={-:-/ absolute / inch / decimal}
; #@! TF.CreationDate,2021-11-16T19:49:47+01:00
; #@! TF.GenerationSoftware,Kicad,Pcbnew,5.1.5+dfsg1-2build2
; #@! TF.FileFunction,Plated,1,2,PTH
FMAT,2
INCH
T1C0.0157
T2C0.0300
T3C0.0315
T4C0.0394
%
G90
G05
T1
X6.1575Y-3.2047
T2
X6.2001Y-3.44
X6.3001Y-3.44
X6.3222Y-2.4772
X6.4001Y-3.44
X6.5001Y-3.44
X6.6001Y-3.44
X5.15Y-4.35
X5.25Y-4.35
X5.35Y-4.35
X5.45Y-4.35
T3
X5.0005Y-2.6
X5.0005Y-2.7
X5.0005Y-2.8
X5.0005Y-2.9
X5.0005Y-3.0
X5.0005Y-3.1
X5.0005Y-3.2
X5.0005Y-3.3
X5.0005Y-3.4
X5.0005Y-3.5
X5.0005Y-3.6
X5.0005Y-3.7
X5.0005Y-3.8
X5.0005Y-3.9
X5.0005Y-4.0
X5.0005Y-4.1
X5.0005Y-4.2
X5.0005Y-4.3
X5.0005Y-4.4
X5.0005Y-4.5
X5.5995Y-2.6
X5.5995Y-2.7
X5.5995Y-2.8
X5.5995Y-2.9
X5.5995Y-3.0
X5.5995Y-3.1
X5.5995Y-3.2
X5.5995Y-3.3
X5.5995Y-3.4
X5.5995Y-3.5
X5.5995Y-3.6
X5.5995Y-3.7
X5.5995Y-3.8
X5.5995Y-3.9
X5.5995Y-4.0
X5.5995Y-4.1
X5.5995Y-4.2
X5.5995Y-4.3
X5.5995Y-4.4
X5.5995Y-4.5
T4
X4.4725Y-3.6
X4.5725Y-3.6
X4.6725Y-3.6
X6.3793Y-4.425
X6.4793Y-4.425
X6.5793Y-4.425
X5.53Y-2.43
X5.63Y-2.43
X4.4725Y-3.9
X4.5725Y-3.9
X4.6725Y-3.9
X5.8Y-2.43
X5.9Y-2.43
X6.3793Y-3.925
X6.4793Y-3.925
X6.5793Y-3.925
X4.4725Y-3.7
X4.5725Y-3.7
X4.6725Y-3.7
X6.3793Y-4.025
X6.4793Y-4.025
X6.5793Y-4.025
X4.4725Y-3.2
X4.5725Y-3.2
X4.6725Y-3.2
X6.3793Y-4.325
X6.4793Y-4.325
X6.5793Y-4.325
X6.3793Y-3.825
X6.4793Y-3.825
X6.5793Y-3.825
X6.3793Y-4.125
X6.4793Y-4.125
X6.5793Y-4.125
X6.3793Y-4.525
X6.4793Y-4.525
X6.5793Y-4.525
X6.3793Y-4.225
X6.4793Y-4.225
X6.5793Y-4.225
X4.4725Y-3.4
X4.5725Y-3.4
X4.6725Y-3.4
X4.4725Y-3.5
X4.5725Y-3.5
X4.6725Y-3.5
X4.4725Y-3.8
X4.5725Y-3.8
X4.6725Y-3.8
X4.8475Y-3.0
X4.8475Y-3.1
X4.8475Y-3.2
X4.4725Y-3.3
X4.5725Y-3.3
X4.6725Y-3.3
T0
M30
