G04 #@! TF.GenerationSoftware,KiCad,Pcbnew,5.1.5+dfsg1-2build2*
G04 #@! TF.CreationDate,2021-11-01T16:22:50+01:00*
G04 #@! TF.ProjectId,brainboard,62726169-6e62-46f6-9172-642e6b696361,rev?*
G04 #@! TF.SameCoordinates,Original*
G04 #@! TF.FileFunction,Copper,L2,Bot*
G04 #@! TF.FilePolarity,Positive*
%FSLAX46Y46*%
G04 Gerber Fmt 4.6, Leading zero omitted, Abs format (unit mm)*
G04 Created by KiCad (PCBNEW 5.1.5+dfsg1-2build2) date 2021-11-01 16:22:50*
%MOMM*%
%LPD*%
G04 APERTURE LIST*
%ADD10C,1.524000*%
%ADD11C,0.100000*%
%ADD12O,1.700000X1.700000*%
%ADD13R,1.700000X1.700000*%
%ADD14C,6.000000*%
%ADD15C,0.800000*%
%ADD16C,0.400000*%
%ADD17C,0.254000*%
G04 APERTURE END LIST*
D10*
X142240000Y-114300000D03*
X142240000Y-111760000D03*
X142240000Y-109220000D03*
X142240000Y-106680000D03*
X142240000Y-104140000D03*
X142240000Y-101600000D03*
X142240000Y-99060000D03*
X142240000Y-96520000D03*
X142240000Y-93980000D03*
X142240000Y-91440000D03*
X142240000Y-88900000D03*
X142240000Y-86360000D03*
X142240000Y-83820000D03*
X142240000Y-81280000D03*
X142240000Y-78740000D03*
X142240000Y-76200000D03*
X142240000Y-73660000D03*
X142240000Y-71120000D03*
G04 #@! TA.AperFunction,ComponentPad*
D11*
G36*
X142658345Y-67819835D02*
G01*
X142695329Y-67825321D01*
X142731598Y-67834406D01*
X142766802Y-67847002D01*
X142800602Y-67862988D01*
X142832672Y-67882210D01*
X142862704Y-67904483D01*
X142890408Y-67929592D01*
X142915517Y-67957296D01*
X142937790Y-67987328D01*
X142957012Y-68019398D01*
X142972998Y-68053198D01*
X142985594Y-68088402D01*
X142994679Y-68124671D01*
X143000165Y-68161655D01*
X143002000Y-68199000D01*
X143002000Y-68961000D01*
X143000165Y-68998345D01*
X142994679Y-69035329D01*
X142985594Y-69071598D01*
X142972998Y-69106802D01*
X142957012Y-69140602D01*
X142937790Y-69172672D01*
X142915517Y-69202704D01*
X142890408Y-69230408D01*
X142862704Y-69255517D01*
X142832672Y-69277790D01*
X142800602Y-69297012D01*
X142766802Y-69312998D01*
X142731598Y-69325594D01*
X142695329Y-69334679D01*
X142658345Y-69340165D01*
X142621000Y-69342000D01*
X141859000Y-69342000D01*
X141821655Y-69340165D01*
X141784671Y-69334679D01*
X141748402Y-69325594D01*
X141713198Y-69312998D01*
X141679398Y-69297012D01*
X141647328Y-69277790D01*
X141617296Y-69255517D01*
X141589592Y-69230408D01*
X141564483Y-69202704D01*
X141542210Y-69172672D01*
X141522988Y-69140602D01*
X141507002Y-69106802D01*
X141494406Y-69071598D01*
X141485321Y-69035329D01*
X141479835Y-68998345D01*
X141478000Y-68961000D01*
X141478000Y-68199000D01*
X141479835Y-68161655D01*
X141485321Y-68124671D01*
X141494406Y-68088402D01*
X141507002Y-68053198D01*
X141522988Y-68019398D01*
X141542210Y-67987328D01*
X141564483Y-67957296D01*
X141589592Y-67929592D01*
X141617296Y-67904483D01*
X141647328Y-67882210D01*
X141679398Y-67862988D01*
X141713198Y-67847002D01*
X141748402Y-67834406D01*
X141784671Y-67825321D01*
X141821655Y-67819835D01*
X141859000Y-67818000D01*
X142621000Y-67818000D01*
X142658345Y-67819835D01*
G37*
G04 #@! TD.AperFunction*
D10*
X142240000Y-66040000D03*
X127000000Y-114300000D03*
G04 #@! TA.AperFunction,ComponentPad*
D11*
G36*
X127418345Y-110999835D02*
G01*
X127455329Y-111005321D01*
X127491598Y-111014406D01*
X127526802Y-111027002D01*
X127560602Y-111042988D01*
X127592672Y-111062210D01*
X127622704Y-111084483D01*
X127650408Y-111109592D01*
X127675517Y-111137296D01*
X127697790Y-111167328D01*
X127717012Y-111199398D01*
X127732998Y-111233198D01*
X127745594Y-111268402D01*
X127754679Y-111304671D01*
X127760165Y-111341655D01*
X127762000Y-111379000D01*
X127762000Y-112141000D01*
X127760165Y-112178345D01*
X127754679Y-112215329D01*
X127745594Y-112251598D01*
X127732998Y-112286802D01*
X127717012Y-112320602D01*
X127697790Y-112352672D01*
X127675517Y-112382704D01*
X127650408Y-112410408D01*
X127622704Y-112435517D01*
X127592672Y-112457790D01*
X127560602Y-112477012D01*
X127526802Y-112492998D01*
X127491598Y-112505594D01*
X127455329Y-112514679D01*
X127418345Y-112520165D01*
X127381000Y-112522000D01*
X126619000Y-112522000D01*
X126581655Y-112520165D01*
X126544671Y-112514679D01*
X126508402Y-112505594D01*
X126473198Y-112492998D01*
X126439398Y-112477012D01*
X126407328Y-112457790D01*
X126377296Y-112435517D01*
X126349592Y-112410408D01*
X126324483Y-112382704D01*
X126302210Y-112352672D01*
X126282988Y-112320602D01*
X126267002Y-112286802D01*
X126254406Y-112251598D01*
X126245321Y-112215329D01*
X126239835Y-112178345D01*
X126238000Y-112141000D01*
X126238000Y-111379000D01*
X126239835Y-111341655D01*
X126245321Y-111304671D01*
X126254406Y-111268402D01*
X126267002Y-111233198D01*
X126282988Y-111199398D01*
X126302210Y-111167328D01*
X126324483Y-111137296D01*
X126349592Y-111109592D01*
X126377296Y-111084483D01*
X126407328Y-111062210D01*
X126439398Y-111042988D01*
X126473198Y-111027002D01*
X126508402Y-111014406D01*
X126544671Y-111005321D01*
X126581655Y-110999835D01*
X126619000Y-110998000D01*
X127381000Y-110998000D01*
X127418345Y-110999835D01*
G37*
G04 #@! TD.AperFunction*
D10*
X127000000Y-109220000D03*
X127000000Y-106680000D03*
X127000000Y-104140000D03*
X127000000Y-101600000D03*
X127000000Y-99060000D03*
X127000000Y-96520000D03*
X127000000Y-93980000D03*
X127000000Y-91440000D03*
X127000000Y-88900000D03*
X127000000Y-86360000D03*
X127000000Y-83820000D03*
X127000000Y-81280000D03*
X127000000Y-78740000D03*
X127000000Y-76200000D03*
X127000000Y-73660000D03*
X127000000Y-71120000D03*
X127000000Y-68580000D03*
X127000000Y-66040000D03*
D12*
X140462000Y-61722000D03*
D13*
X143002000Y-61722000D03*
D12*
X147320000Y-61722000D03*
D13*
X149860000Y-61722000D03*
D10*
X167640000Y-87630000D03*
X165100000Y-87630000D03*
X162560000Y-87630000D03*
G04 #@! TA.AperFunction,ComponentPad*
D11*
G36*
X160438345Y-86869835D02*
G01*
X160475329Y-86875321D01*
X160511598Y-86884406D01*
X160546802Y-86897002D01*
X160580602Y-86912988D01*
X160612672Y-86932210D01*
X160642704Y-86954483D01*
X160670408Y-86979592D01*
X160695517Y-87007296D01*
X160717790Y-87037328D01*
X160737012Y-87069398D01*
X160752998Y-87103198D01*
X160765594Y-87138402D01*
X160774679Y-87174671D01*
X160780165Y-87211655D01*
X160782000Y-87249000D01*
X160782000Y-88011000D01*
X160780165Y-88048345D01*
X160774679Y-88085329D01*
X160765594Y-88121598D01*
X160752998Y-88156802D01*
X160737012Y-88190602D01*
X160717790Y-88222672D01*
X160695517Y-88252704D01*
X160670408Y-88280408D01*
X160642704Y-88305517D01*
X160612672Y-88327790D01*
X160580602Y-88347012D01*
X160546802Y-88362998D01*
X160511598Y-88375594D01*
X160475329Y-88384679D01*
X160438345Y-88390165D01*
X160401000Y-88392000D01*
X159639000Y-88392000D01*
X159601655Y-88390165D01*
X159564671Y-88384679D01*
X159528402Y-88375594D01*
X159493198Y-88362998D01*
X159459398Y-88347012D01*
X159427328Y-88327790D01*
X159397296Y-88305517D01*
X159369592Y-88280408D01*
X159344483Y-88252704D01*
X159322210Y-88222672D01*
X159302988Y-88190602D01*
X159287002Y-88156802D01*
X159274406Y-88121598D01*
X159265321Y-88085329D01*
X159259835Y-88048345D01*
X159258000Y-88011000D01*
X159258000Y-87249000D01*
X159259835Y-87211655D01*
X159265321Y-87174671D01*
X159274406Y-87138402D01*
X159287002Y-87103198D01*
X159302988Y-87069398D01*
X159322210Y-87037328D01*
X159344483Y-87007296D01*
X159369592Y-86979592D01*
X159397296Y-86954483D01*
X159427328Y-86932210D01*
X159459398Y-86912988D01*
X159493198Y-86897002D01*
X159528402Y-86884406D01*
X159564671Y-86875321D01*
X159601655Y-86869835D01*
X159639000Y-86868000D01*
X160401000Y-86868000D01*
X160438345Y-86869835D01*
G37*
G04 #@! TD.AperFunction*
D10*
X157480000Y-87630000D03*
D14*
X150000000Y-110000000D03*
X120000000Y-110000000D03*
X120000000Y-70000000D03*
X150000000Y-70000000D03*
D12*
X162035000Y-97155000D03*
X164575000Y-97155000D03*
D13*
X167115000Y-97155000D03*
D12*
X162035000Y-99695000D03*
X164575000Y-99695000D03*
D13*
X167115000Y-99695000D03*
D12*
X162035000Y-102235000D03*
X164575000Y-102235000D03*
D13*
X167115000Y-102235000D03*
D12*
X162035000Y-104775000D03*
X164575000Y-104775000D03*
D13*
X167115000Y-104775000D03*
D12*
X162035000Y-107315000D03*
X164575000Y-107315000D03*
D13*
X167115000Y-107315000D03*
D12*
X162035000Y-109855000D03*
X164575000Y-109855000D03*
D13*
X167115000Y-109855000D03*
D12*
X162035000Y-112395000D03*
X164575000Y-112395000D03*
D13*
X167115000Y-112395000D03*
D12*
X162035000Y-114935000D03*
X164575000Y-114935000D03*
D13*
X167115000Y-114935000D03*
D12*
X118110000Y-81280000D03*
X115570000Y-81280000D03*
D13*
X113030000Y-81280000D03*
D12*
X118110000Y-83820000D03*
X115570000Y-83820000D03*
D13*
X113030000Y-83820000D03*
D12*
X118110000Y-86360000D03*
X115570000Y-86360000D03*
D13*
X113030000Y-86360000D03*
D12*
X118110000Y-88900000D03*
X115570000Y-88900000D03*
D13*
X113030000Y-88900000D03*
D12*
X118110000Y-91440000D03*
X115570000Y-91440000D03*
D13*
X113030000Y-91440000D03*
D12*
X118110000Y-93980000D03*
X115570000Y-93980000D03*
D13*
X113030000Y-93980000D03*
D12*
X118110000Y-96520000D03*
X115570000Y-96520000D03*
D13*
X113030000Y-96520000D03*
D12*
X118110000Y-99060000D03*
X115570000Y-99060000D03*
D13*
X113030000Y-99060000D03*
D15*
X154940000Y-81280000D03*
D16*
X113030000Y-81280000D02*
X113030000Y-99060000D01*
X113030000Y-69850000D02*
X113030000Y-81280000D01*
X119380000Y-63500000D02*
X113030000Y-69850000D01*
X136398000Y-63500000D02*
X119380000Y-63500000D01*
X141478000Y-68580000D02*
X136398000Y-63500000D01*
X127762000Y-111760000D02*
X134620000Y-104902000D01*
X127000000Y-111760000D02*
X127762000Y-111760000D01*
X141478000Y-68580000D02*
X142240000Y-68580000D01*
X134620000Y-75438000D02*
X141478000Y-68580000D01*
X134620000Y-104902000D02*
X134620000Y-75438000D01*
X167115000Y-114935000D02*
X167115000Y-97155000D01*
X160020000Y-87630000D02*
X160020000Y-90060000D01*
X142240000Y-68580000D02*
X154940000Y-81280000D01*
X113030000Y-110490000D02*
X113030000Y-99060000D01*
X117729000Y-115189000D02*
X113030000Y-110490000D01*
X122301000Y-115189000D02*
X117729000Y-115189000D01*
X125730000Y-111760000D02*
X122301000Y-115189000D01*
X127000000Y-111760000D02*
X125730000Y-111760000D01*
X143002000Y-62972000D02*
X144165000Y-64135000D01*
X143002000Y-61722000D02*
X143002000Y-62972000D01*
X149860000Y-62972000D02*
X149860000Y-61722000D01*
X148697000Y-64135000D02*
X149860000Y-62972000D01*
X143002000Y-68580000D02*
X142240000Y-68580000D01*
X145288000Y-66294000D02*
X143002000Y-68580000D01*
X145288000Y-64135000D02*
X145288000Y-66294000D01*
X144165000Y-64135000D02*
X145288000Y-64135000D01*
X145288000Y-64135000D02*
X148697000Y-64135000D01*
X167115000Y-116185000D02*
X167115000Y-114935000D01*
X166460000Y-116840000D02*
X167115000Y-116185000D01*
X127762000Y-111760000D02*
X132842000Y-116840000D01*
X160020000Y-90060000D02*
X167115000Y-97155000D01*
X132842000Y-116840000D02*
X166460000Y-116840000D01*
X142240000Y-93980000D02*
X152400000Y-83820000D01*
X161290000Y-83820000D02*
X152400000Y-83820000D01*
X165100000Y-87630000D02*
X161290000Y-83820000D01*
X162560000Y-87630000D02*
X160655000Y-85725000D01*
X153035000Y-85725000D02*
X142240000Y-96520000D01*
X160655000Y-85725000D02*
X153035000Y-85725000D01*
D17*
G36*
X139308525Y-60775368D02*
G01*
X139146010Y-61018589D01*
X139034068Y-61288842D01*
X138977000Y-61575740D01*
X138977000Y-61868260D01*
X139034068Y-62155158D01*
X139146010Y-62425411D01*
X139308525Y-62668632D01*
X139515368Y-62875475D01*
X139758589Y-63037990D01*
X140028842Y-63149932D01*
X140315740Y-63207000D01*
X140608260Y-63207000D01*
X140895158Y-63149932D01*
X141165411Y-63037990D01*
X141408632Y-62875475D01*
X141615475Y-62668632D01*
X141777990Y-62425411D01*
X141889932Y-62155158D01*
X141947000Y-61868260D01*
X141947000Y-61575740D01*
X141889932Y-61288842D01*
X141777990Y-61018589D01*
X141615475Y-60775368D01*
X141535107Y-60695000D01*
X146246893Y-60695000D01*
X146166525Y-60775368D01*
X146004010Y-61018589D01*
X145892068Y-61288842D01*
X145835000Y-61575740D01*
X145835000Y-61868260D01*
X145892068Y-62155158D01*
X146004010Y-62425411D01*
X146166525Y-62668632D01*
X146373368Y-62875475D01*
X146616589Y-63037990D01*
X146886842Y-63149932D01*
X147173740Y-63207000D01*
X147466260Y-63207000D01*
X147753158Y-63149932D01*
X148023411Y-63037990D01*
X148266632Y-62875475D01*
X148473475Y-62668632D01*
X148635990Y-62425411D01*
X148747932Y-62155158D01*
X148805000Y-61868260D01*
X148805000Y-61575740D01*
X148747932Y-61288842D01*
X148635990Y-61018589D01*
X148473475Y-60775368D01*
X148393107Y-60695000D01*
X169305000Y-60695000D01*
X169305001Y-119305000D01*
X120021848Y-119305000D01*
X118833946Y-119230264D01*
X117686278Y-119011335D01*
X116575107Y-118650293D01*
X115517944Y-118152829D01*
X114531467Y-117526792D01*
X113631230Y-116782051D01*
X112831433Y-115930355D01*
X112144688Y-114985130D01*
X111581828Y-113961292D01*
X111151725Y-112874977D01*
X110861167Y-111743329D01*
X110713360Y-110573313D01*
X110695000Y-109989083D01*
X110695000Y-109641984D01*
X116365000Y-109641984D01*
X116365000Y-110358016D01*
X116504691Y-111060290D01*
X116778705Y-111721818D01*
X117176511Y-112317177D01*
X117682823Y-112823489D01*
X118278182Y-113221295D01*
X118939710Y-113495309D01*
X119641984Y-113635000D01*
X120358016Y-113635000D01*
X121060290Y-113495309D01*
X121721818Y-113221295D01*
X122317177Y-112823489D01*
X122618666Y-112522000D01*
X125599928Y-112522000D01*
X125612188Y-112646482D01*
X125648498Y-112766180D01*
X125707463Y-112876494D01*
X125786815Y-112973185D01*
X125883506Y-113052537D01*
X125993820Y-113111502D01*
X126113518Y-113147812D01*
X126197465Y-113156080D01*
X126109465Y-113214880D01*
X125914880Y-113409465D01*
X125761995Y-113638273D01*
X125656686Y-113892510D01*
X125603000Y-114162408D01*
X125603000Y-114437592D01*
X125656686Y-114707490D01*
X125761995Y-114961727D01*
X125914880Y-115190535D01*
X126109465Y-115385120D01*
X126338273Y-115538005D01*
X126592510Y-115643314D01*
X126862408Y-115697000D01*
X127137592Y-115697000D01*
X127407490Y-115643314D01*
X127661727Y-115538005D01*
X127890535Y-115385120D01*
X128085120Y-115190535D01*
X128238005Y-114961727D01*
X128343314Y-114707490D01*
X128397000Y-114437592D01*
X128397000Y-114162408D01*
X128343314Y-113892510D01*
X128238005Y-113638273D01*
X128085120Y-113409465D01*
X127890535Y-113214880D01*
X127802535Y-113156080D01*
X127886482Y-113147812D01*
X128006180Y-113111502D01*
X128116494Y-113052537D01*
X128213185Y-112973185D01*
X128292537Y-112876494D01*
X128351502Y-112766180D01*
X128387812Y-112646482D01*
X128400072Y-112522000D01*
X128397000Y-112045750D01*
X128238250Y-111887000D01*
X127127000Y-111887000D01*
X127127000Y-111907000D01*
X126873000Y-111907000D01*
X126873000Y-111887000D01*
X125761750Y-111887000D01*
X125603000Y-112045750D01*
X125599928Y-112522000D01*
X122618666Y-112522000D01*
X122823489Y-112317177D01*
X123221295Y-111721818D01*
X123495309Y-111060290D01*
X123507699Y-110998000D01*
X125599928Y-110998000D01*
X125603000Y-111474250D01*
X125761750Y-111633000D01*
X126873000Y-111633000D01*
X126873000Y-111613000D01*
X127127000Y-111613000D01*
X127127000Y-111633000D01*
X128238250Y-111633000D01*
X128397000Y-111474250D01*
X128400072Y-110998000D01*
X128387812Y-110873518D01*
X128351502Y-110753820D01*
X128292537Y-110643506D01*
X128213185Y-110546815D01*
X128116494Y-110467463D01*
X128006180Y-110408498D01*
X127886482Y-110372188D01*
X127802535Y-110363920D01*
X127890535Y-110305120D01*
X128085120Y-110110535D01*
X128238005Y-109881727D01*
X128343314Y-109627490D01*
X128397000Y-109357592D01*
X128397000Y-109082408D01*
X128343314Y-108812510D01*
X128238005Y-108558273D01*
X128085120Y-108329465D01*
X127890535Y-108134880D01*
X127661727Y-107981995D01*
X127584485Y-107950000D01*
X127661727Y-107918005D01*
X127890535Y-107765120D01*
X128085120Y-107570535D01*
X128238005Y-107341727D01*
X128343314Y-107087490D01*
X128397000Y-106817592D01*
X128397000Y-106542408D01*
X128343314Y-106272510D01*
X128238005Y-106018273D01*
X128085120Y-105789465D01*
X127890535Y-105594880D01*
X127661727Y-105441995D01*
X127584485Y-105410000D01*
X127661727Y-105378005D01*
X127890535Y-105225120D01*
X128085120Y-105030535D01*
X128238005Y-104801727D01*
X128343314Y-104547490D01*
X128397000Y-104277592D01*
X128397000Y-104002408D01*
X128343314Y-103732510D01*
X128238005Y-103478273D01*
X128085120Y-103249465D01*
X127890535Y-103054880D01*
X127661727Y-102901995D01*
X127584485Y-102870000D01*
X127661727Y-102838005D01*
X127890535Y-102685120D01*
X128085120Y-102490535D01*
X128238005Y-102261727D01*
X128343314Y-102007490D01*
X128397000Y-101737592D01*
X128397000Y-101462408D01*
X128343314Y-101192510D01*
X128238005Y-100938273D01*
X128085120Y-100709465D01*
X127890535Y-100514880D01*
X127661727Y-100361995D01*
X127584485Y-100330000D01*
X127661727Y-100298005D01*
X127890535Y-100145120D01*
X128085120Y-99950535D01*
X128238005Y-99721727D01*
X128343314Y-99467490D01*
X128397000Y-99197592D01*
X128397000Y-98922408D01*
X128343314Y-98652510D01*
X128238005Y-98398273D01*
X128085120Y-98169465D01*
X127890535Y-97974880D01*
X127661727Y-97821995D01*
X127584485Y-97790000D01*
X127661727Y-97758005D01*
X127890535Y-97605120D01*
X128085120Y-97410535D01*
X128238005Y-97181727D01*
X128343314Y-96927490D01*
X128397000Y-96657592D01*
X128397000Y-96382408D01*
X128343314Y-96112510D01*
X128238005Y-95858273D01*
X128085120Y-95629465D01*
X127890535Y-95434880D01*
X127661727Y-95281995D01*
X127584485Y-95250000D01*
X127661727Y-95218005D01*
X127890535Y-95065120D01*
X128085120Y-94870535D01*
X128238005Y-94641727D01*
X128343314Y-94387490D01*
X128397000Y-94117592D01*
X128397000Y-93842408D01*
X128343314Y-93572510D01*
X128238005Y-93318273D01*
X128085120Y-93089465D01*
X127890535Y-92894880D01*
X127661727Y-92741995D01*
X127584485Y-92710000D01*
X127661727Y-92678005D01*
X127890535Y-92525120D01*
X128085120Y-92330535D01*
X128238005Y-92101727D01*
X128343314Y-91847490D01*
X128397000Y-91577592D01*
X128397000Y-91302408D01*
X128343314Y-91032510D01*
X128238005Y-90778273D01*
X128085120Y-90549465D01*
X127890535Y-90354880D01*
X127661727Y-90201995D01*
X127584485Y-90170000D01*
X127661727Y-90138005D01*
X127890535Y-89985120D01*
X128085120Y-89790535D01*
X128238005Y-89561727D01*
X128343314Y-89307490D01*
X128397000Y-89037592D01*
X128397000Y-88762408D01*
X128343314Y-88492510D01*
X128238005Y-88238273D01*
X128085120Y-88009465D01*
X127890535Y-87814880D01*
X127661727Y-87661995D01*
X127584485Y-87630000D01*
X127661727Y-87598005D01*
X127890535Y-87445120D01*
X128085120Y-87250535D01*
X128238005Y-87021727D01*
X128343314Y-86767490D01*
X128397000Y-86497592D01*
X128397000Y-86222408D01*
X128343314Y-85952510D01*
X128238005Y-85698273D01*
X128085120Y-85469465D01*
X127890535Y-85274880D01*
X127661727Y-85121995D01*
X127584485Y-85090000D01*
X127661727Y-85058005D01*
X127890535Y-84905120D01*
X128085120Y-84710535D01*
X128238005Y-84481727D01*
X128343314Y-84227490D01*
X128397000Y-83957592D01*
X128397000Y-83682408D01*
X128343314Y-83412510D01*
X128238005Y-83158273D01*
X128085120Y-82929465D01*
X127890535Y-82734880D01*
X127661727Y-82581995D01*
X127584485Y-82550000D01*
X127661727Y-82518005D01*
X127890535Y-82365120D01*
X128085120Y-82170535D01*
X128238005Y-81941727D01*
X128343314Y-81687490D01*
X128397000Y-81417592D01*
X128397000Y-81142408D01*
X128343314Y-80872510D01*
X128238005Y-80618273D01*
X128085120Y-80389465D01*
X127890535Y-80194880D01*
X127661727Y-80041995D01*
X127584485Y-80010000D01*
X127661727Y-79978005D01*
X127890535Y-79825120D01*
X128085120Y-79630535D01*
X128238005Y-79401727D01*
X128343314Y-79147490D01*
X128397000Y-78877592D01*
X128397000Y-78602408D01*
X128343314Y-78332510D01*
X128238005Y-78078273D01*
X128085120Y-77849465D01*
X127890535Y-77654880D01*
X127661727Y-77501995D01*
X127584485Y-77470000D01*
X127661727Y-77438005D01*
X127890535Y-77285120D01*
X128085120Y-77090535D01*
X128238005Y-76861727D01*
X128343314Y-76607490D01*
X128397000Y-76337592D01*
X128397000Y-76062408D01*
X128343314Y-75792510D01*
X128238005Y-75538273D01*
X128085120Y-75309465D01*
X127890535Y-75114880D01*
X127661727Y-74961995D01*
X127584485Y-74930000D01*
X127661727Y-74898005D01*
X127890535Y-74745120D01*
X128085120Y-74550535D01*
X128238005Y-74321727D01*
X128343314Y-74067490D01*
X128397000Y-73797592D01*
X128397000Y-73522408D01*
X128343314Y-73252510D01*
X128238005Y-72998273D01*
X128085120Y-72769465D01*
X127890535Y-72574880D01*
X127661727Y-72421995D01*
X127584485Y-72390000D01*
X127661727Y-72358005D01*
X127890535Y-72205120D01*
X128085120Y-72010535D01*
X128238005Y-71781727D01*
X128343314Y-71527490D01*
X128397000Y-71257592D01*
X128397000Y-70982408D01*
X128343314Y-70712510D01*
X128238005Y-70458273D01*
X128085120Y-70229465D01*
X127890535Y-70034880D01*
X127661727Y-69881995D01*
X127584485Y-69850000D01*
X127661727Y-69818005D01*
X127890535Y-69665120D01*
X128085120Y-69470535D01*
X128171004Y-69342000D01*
X140839928Y-69342000D01*
X140852188Y-69466482D01*
X140888498Y-69586180D01*
X140947463Y-69696494D01*
X141026815Y-69793185D01*
X141123506Y-69872537D01*
X141233820Y-69931502D01*
X141353518Y-69967812D01*
X141437465Y-69976080D01*
X141349465Y-70034880D01*
X141154880Y-70229465D01*
X141001995Y-70458273D01*
X140896686Y-70712510D01*
X140843000Y-70982408D01*
X140843000Y-71257592D01*
X140896686Y-71527490D01*
X141001995Y-71781727D01*
X141154880Y-72010535D01*
X141349465Y-72205120D01*
X141578273Y-72358005D01*
X141655515Y-72390000D01*
X141578273Y-72421995D01*
X141349465Y-72574880D01*
X141154880Y-72769465D01*
X141001995Y-72998273D01*
X140896686Y-73252510D01*
X140843000Y-73522408D01*
X140843000Y-73797592D01*
X140896686Y-74067490D01*
X141001995Y-74321727D01*
X141154880Y-74550535D01*
X141349465Y-74745120D01*
X141578273Y-74898005D01*
X141655515Y-74930000D01*
X141578273Y-74961995D01*
X141349465Y-75114880D01*
X141154880Y-75309465D01*
X141001995Y-75538273D01*
X140896686Y-75792510D01*
X140843000Y-76062408D01*
X140843000Y-76337592D01*
X140896686Y-76607490D01*
X141001995Y-76861727D01*
X141154880Y-77090535D01*
X141349465Y-77285120D01*
X141578273Y-77438005D01*
X141655515Y-77470000D01*
X141578273Y-77501995D01*
X141349465Y-77654880D01*
X141154880Y-77849465D01*
X141001995Y-78078273D01*
X140896686Y-78332510D01*
X140843000Y-78602408D01*
X140843000Y-78877592D01*
X140896686Y-79147490D01*
X141001995Y-79401727D01*
X141154880Y-79630535D01*
X141349465Y-79825120D01*
X141578273Y-79978005D01*
X141655515Y-80010000D01*
X141578273Y-80041995D01*
X141349465Y-80194880D01*
X141154880Y-80389465D01*
X141001995Y-80618273D01*
X140896686Y-80872510D01*
X140843000Y-81142408D01*
X140843000Y-81417592D01*
X140896686Y-81687490D01*
X141001995Y-81941727D01*
X141154880Y-82170535D01*
X141349465Y-82365120D01*
X141578273Y-82518005D01*
X141655515Y-82550000D01*
X141578273Y-82581995D01*
X141349465Y-82734880D01*
X141154880Y-82929465D01*
X141001995Y-83158273D01*
X140896686Y-83412510D01*
X140843000Y-83682408D01*
X140843000Y-83957592D01*
X140896686Y-84227490D01*
X141001995Y-84481727D01*
X141154880Y-84710535D01*
X141349465Y-84905120D01*
X141578273Y-85058005D01*
X141655515Y-85090000D01*
X141578273Y-85121995D01*
X141349465Y-85274880D01*
X141154880Y-85469465D01*
X141001995Y-85698273D01*
X140896686Y-85952510D01*
X140843000Y-86222408D01*
X140843000Y-86497592D01*
X140896686Y-86767490D01*
X141001995Y-87021727D01*
X141154880Y-87250535D01*
X141349465Y-87445120D01*
X141578273Y-87598005D01*
X141655515Y-87630000D01*
X141578273Y-87661995D01*
X141349465Y-87814880D01*
X141154880Y-88009465D01*
X141001995Y-88238273D01*
X140896686Y-88492510D01*
X140843000Y-88762408D01*
X140843000Y-89037592D01*
X140896686Y-89307490D01*
X141001995Y-89561727D01*
X141154880Y-89790535D01*
X141349465Y-89985120D01*
X141578273Y-90138005D01*
X141655515Y-90170000D01*
X141578273Y-90201995D01*
X141349465Y-90354880D01*
X141154880Y-90549465D01*
X141001995Y-90778273D01*
X140896686Y-91032510D01*
X140843000Y-91302408D01*
X140843000Y-91577592D01*
X140896686Y-91847490D01*
X141001995Y-92101727D01*
X141154880Y-92330535D01*
X141349465Y-92525120D01*
X141578273Y-92678005D01*
X141655515Y-92710000D01*
X141578273Y-92741995D01*
X141349465Y-92894880D01*
X141154880Y-93089465D01*
X141001995Y-93318273D01*
X140896686Y-93572510D01*
X140843000Y-93842408D01*
X140843000Y-94117592D01*
X140896686Y-94387490D01*
X141001995Y-94641727D01*
X141154880Y-94870535D01*
X141349465Y-95065120D01*
X141578273Y-95218005D01*
X141655515Y-95250000D01*
X141578273Y-95281995D01*
X141349465Y-95434880D01*
X141154880Y-95629465D01*
X141001995Y-95858273D01*
X140896686Y-96112510D01*
X140843000Y-96382408D01*
X140843000Y-96657592D01*
X140896686Y-96927490D01*
X141001995Y-97181727D01*
X141154880Y-97410535D01*
X141349465Y-97605120D01*
X141578273Y-97758005D01*
X141655515Y-97790000D01*
X141578273Y-97821995D01*
X141349465Y-97974880D01*
X141154880Y-98169465D01*
X141001995Y-98398273D01*
X140896686Y-98652510D01*
X140843000Y-98922408D01*
X140843000Y-99197592D01*
X140896686Y-99467490D01*
X141001995Y-99721727D01*
X141154880Y-99950535D01*
X141349465Y-100145120D01*
X141578273Y-100298005D01*
X141655515Y-100330000D01*
X141578273Y-100361995D01*
X141349465Y-100514880D01*
X141154880Y-100709465D01*
X141001995Y-100938273D01*
X140896686Y-101192510D01*
X140843000Y-101462408D01*
X140843000Y-101737592D01*
X140896686Y-102007490D01*
X141001995Y-102261727D01*
X141154880Y-102490535D01*
X141349465Y-102685120D01*
X141578273Y-102838005D01*
X141655515Y-102870000D01*
X141578273Y-102901995D01*
X141349465Y-103054880D01*
X141154880Y-103249465D01*
X141001995Y-103478273D01*
X140896686Y-103732510D01*
X140843000Y-104002408D01*
X140843000Y-104277592D01*
X140896686Y-104547490D01*
X141001995Y-104801727D01*
X141154880Y-105030535D01*
X141349465Y-105225120D01*
X141578273Y-105378005D01*
X141655515Y-105410000D01*
X141578273Y-105441995D01*
X141349465Y-105594880D01*
X141154880Y-105789465D01*
X141001995Y-106018273D01*
X140896686Y-106272510D01*
X140843000Y-106542408D01*
X140843000Y-106817592D01*
X140896686Y-107087490D01*
X141001995Y-107341727D01*
X141154880Y-107570535D01*
X141349465Y-107765120D01*
X141578273Y-107918005D01*
X141655515Y-107950000D01*
X141578273Y-107981995D01*
X141349465Y-108134880D01*
X141154880Y-108329465D01*
X141001995Y-108558273D01*
X140896686Y-108812510D01*
X140843000Y-109082408D01*
X140843000Y-109357592D01*
X140896686Y-109627490D01*
X141001995Y-109881727D01*
X141154880Y-110110535D01*
X141349465Y-110305120D01*
X141578273Y-110458005D01*
X141655515Y-110490000D01*
X141578273Y-110521995D01*
X141349465Y-110674880D01*
X141154880Y-110869465D01*
X141001995Y-111098273D01*
X140896686Y-111352510D01*
X140843000Y-111622408D01*
X140843000Y-111897592D01*
X140896686Y-112167490D01*
X141001995Y-112421727D01*
X141154880Y-112650535D01*
X141349465Y-112845120D01*
X141578273Y-112998005D01*
X141655515Y-113030000D01*
X141578273Y-113061995D01*
X141349465Y-113214880D01*
X141154880Y-113409465D01*
X141001995Y-113638273D01*
X140896686Y-113892510D01*
X140843000Y-114162408D01*
X140843000Y-114437592D01*
X140896686Y-114707490D01*
X141001995Y-114961727D01*
X141154880Y-115190535D01*
X141349465Y-115385120D01*
X141578273Y-115538005D01*
X141832510Y-115643314D01*
X142102408Y-115697000D01*
X142377592Y-115697000D01*
X142647490Y-115643314D01*
X142901727Y-115538005D01*
X143130535Y-115385120D01*
X143325120Y-115190535D01*
X143478005Y-114961727D01*
X143583314Y-114707490D01*
X143637000Y-114437592D01*
X143637000Y-114162408D01*
X143583314Y-113892510D01*
X143478005Y-113638273D01*
X143325120Y-113409465D01*
X143130535Y-113214880D01*
X142901727Y-113061995D01*
X142824485Y-113030000D01*
X142901727Y-112998005D01*
X143130535Y-112845120D01*
X143325120Y-112650535D01*
X143478005Y-112421727D01*
X143583314Y-112167490D01*
X143637000Y-111897592D01*
X143637000Y-111622408D01*
X143583314Y-111352510D01*
X143478005Y-111098273D01*
X143325120Y-110869465D01*
X143130535Y-110674880D01*
X142901727Y-110521995D01*
X142824485Y-110490000D01*
X142901727Y-110458005D01*
X143130535Y-110305120D01*
X143325120Y-110110535D01*
X143478005Y-109881727D01*
X143577310Y-109641984D01*
X146365000Y-109641984D01*
X146365000Y-110358016D01*
X146504691Y-111060290D01*
X146778705Y-111721818D01*
X147176511Y-112317177D01*
X147682823Y-112823489D01*
X148278182Y-113221295D01*
X148939710Y-113495309D01*
X149641984Y-113635000D01*
X150358016Y-113635000D01*
X151060290Y-113495309D01*
X151721818Y-113221295D01*
X152317177Y-112823489D01*
X152823489Y-112317177D01*
X153221295Y-111721818D01*
X153495309Y-111060290D01*
X153635000Y-110358016D01*
X153635000Y-109641984D01*
X153495309Y-108939710D01*
X153221295Y-108278182D01*
X152823489Y-107682823D01*
X152317177Y-107176511D01*
X151721818Y-106778705D01*
X151060290Y-106504691D01*
X150358016Y-106365000D01*
X149641984Y-106365000D01*
X148939710Y-106504691D01*
X148278182Y-106778705D01*
X147682823Y-107176511D01*
X147176511Y-107682823D01*
X146778705Y-108278182D01*
X146504691Y-108939710D01*
X146365000Y-109641984D01*
X143577310Y-109641984D01*
X143583314Y-109627490D01*
X143637000Y-109357592D01*
X143637000Y-109082408D01*
X143583314Y-108812510D01*
X143478005Y-108558273D01*
X143325120Y-108329465D01*
X143130535Y-108134880D01*
X142901727Y-107981995D01*
X142824485Y-107950000D01*
X142901727Y-107918005D01*
X143130535Y-107765120D01*
X143325120Y-107570535D01*
X143478005Y-107341727D01*
X143583314Y-107087490D01*
X143637000Y-106817592D01*
X143637000Y-106542408D01*
X143583314Y-106272510D01*
X143478005Y-106018273D01*
X143325120Y-105789465D01*
X143130535Y-105594880D01*
X142901727Y-105441995D01*
X142824485Y-105410000D01*
X142901727Y-105378005D01*
X143130535Y-105225120D01*
X143325120Y-105030535D01*
X143478005Y-104801727D01*
X143583314Y-104547490D01*
X143637000Y-104277592D01*
X143637000Y-104002408D01*
X143583314Y-103732510D01*
X143478005Y-103478273D01*
X143325120Y-103249465D01*
X143130535Y-103054880D01*
X142901727Y-102901995D01*
X142824485Y-102870000D01*
X142901727Y-102838005D01*
X143130535Y-102685120D01*
X143325120Y-102490535D01*
X143478005Y-102261727D01*
X143583314Y-102007490D01*
X143637000Y-101737592D01*
X143637000Y-101462408D01*
X143583314Y-101192510D01*
X143478005Y-100938273D01*
X143325120Y-100709465D01*
X143130535Y-100514880D01*
X142901727Y-100361995D01*
X142824485Y-100330000D01*
X142901727Y-100298005D01*
X143130535Y-100145120D01*
X143325120Y-99950535D01*
X143478005Y-99721727D01*
X143583314Y-99467490D01*
X143637000Y-99197592D01*
X143637000Y-98922408D01*
X143583314Y-98652510D01*
X143478005Y-98398273D01*
X143325120Y-98169465D01*
X143130535Y-97974880D01*
X142901727Y-97821995D01*
X142824485Y-97790000D01*
X142901727Y-97758005D01*
X143130535Y-97605120D01*
X143325120Y-97410535D01*
X143478005Y-97181727D01*
X143549658Y-97008740D01*
X160550000Y-97008740D01*
X160550000Y-97301260D01*
X160607068Y-97588158D01*
X160719010Y-97858411D01*
X160881525Y-98101632D01*
X161088368Y-98308475D01*
X161262760Y-98425000D01*
X161088368Y-98541525D01*
X160881525Y-98748368D01*
X160719010Y-98991589D01*
X160607068Y-99261842D01*
X160550000Y-99548740D01*
X160550000Y-99841260D01*
X160607068Y-100128158D01*
X160719010Y-100398411D01*
X160881525Y-100641632D01*
X161088368Y-100848475D01*
X161262760Y-100965000D01*
X161088368Y-101081525D01*
X160881525Y-101288368D01*
X160719010Y-101531589D01*
X160607068Y-101801842D01*
X160550000Y-102088740D01*
X160550000Y-102381260D01*
X160607068Y-102668158D01*
X160719010Y-102938411D01*
X160881525Y-103181632D01*
X161088368Y-103388475D01*
X161262760Y-103505000D01*
X161088368Y-103621525D01*
X160881525Y-103828368D01*
X160719010Y-104071589D01*
X160607068Y-104341842D01*
X160550000Y-104628740D01*
X160550000Y-104921260D01*
X160607068Y-105208158D01*
X160719010Y-105478411D01*
X160881525Y-105721632D01*
X161088368Y-105928475D01*
X161262760Y-106045000D01*
X161088368Y-106161525D01*
X160881525Y-106368368D01*
X160719010Y-106611589D01*
X160607068Y-106881842D01*
X160550000Y-107168740D01*
X160550000Y-107461260D01*
X160607068Y-107748158D01*
X160719010Y-108018411D01*
X160881525Y-108261632D01*
X161088368Y-108468475D01*
X161262760Y-108585000D01*
X161088368Y-108701525D01*
X160881525Y-108908368D01*
X160719010Y-109151589D01*
X160607068Y-109421842D01*
X160550000Y-109708740D01*
X160550000Y-110001260D01*
X160607068Y-110288158D01*
X160719010Y-110558411D01*
X160881525Y-110801632D01*
X161088368Y-111008475D01*
X161262760Y-111125000D01*
X161088368Y-111241525D01*
X160881525Y-111448368D01*
X160719010Y-111691589D01*
X160607068Y-111961842D01*
X160550000Y-112248740D01*
X160550000Y-112541260D01*
X160607068Y-112828158D01*
X160719010Y-113098411D01*
X160881525Y-113341632D01*
X161088368Y-113548475D01*
X161262760Y-113665000D01*
X161088368Y-113781525D01*
X160881525Y-113988368D01*
X160719010Y-114231589D01*
X160607068Y-114501842D01*
X160550000Y-114788740D01*
X160550000Y-115081260D01*
X160607068Y-115368158D01*
X160719010Y-115638411D01*
X160881525Y-115881632D01*
X161088368Y-116088475D01*
X161331589Y-116250990D01*
X161601842Y-116362932D01*
X161888740Y-116420000D01*
X162181260Y-116420000D01*
X162468158Y-116362932D01*
X162738411Y-116250990D01*
X162981632Y-116088475D01*
X163188475Y-115881632D01*
X163305000Y-115707240D01*
X163421525Y-115881632D01*
X163628368Y-116088475D01*
X163871589Y-116250990D01*
X164141842Y-116362932D01*
X164428740Y-116420000D01*
X164721260Y-116420000D01*
X165008158Y-116362932D01*
X165278411Y-116250990D01*
X165521632Y-116088475D01*
X165653487Y-115956620D01*
X165675498Y-116029180D01*
X165734463Y-116139494D01*
X165813815Y-116236185D01*
X165910506Y-116315537D01*
X166020820Y-116374502D01*
X166140518Y-116410812D01*
X166265000Y-116423072D01*
X166829250Y-116420000D01*
X166988000Y-116261250D01*
X166988000Y-115062000D01*
X167242000Y-115062000D01*
X167242000Y-116261250D01*
X167400750Y-116420000D01*
X167965000Y-116423072D01*
X168089482Y-116410812D01*
X168209180Y-116374502D01*
X168319494Y-116315537D01*
X168416185Y-116236185D01*
X168495537Y-116139494D01*
X168554502Y-116029180D01*
X168590812Y-115909482D01*
X168603072Y-115785000D01*
X168600000Y-115220750D01*
X168441250Y-115062000D01*
X167242000Y-115062000D01*
X166988000Y-115062000D01*
X166968000Y-115062000D01*
X166968000Y-114808000D01*
X166988000Y-114808000D01*
X166988000Y-112522000D01*
X167242000Y-112522000D01*
X167242000Y-114808000D01*
X168441250Y-114808000D01*
X168600000Y-114649250D01*
X168603072Y-114085000D01*
X168590812Y-113960518D01*
X168554502Y-113840820D01*
X168495537Y-113730506D01*
X168441778Y-113665000D01*
X168495537Y-113599494D01*
X168554502Y-113489180D01*
X168590812Y-113369482D01*
X168603072Y-113245000D01*
X168600000Y-112680750D01*
X168441250Y-112522000D01*
X167242000Y-112522000D01*
X166988000Y-112522000D01*
X166968000Y-112522000D01*
X166968000Y-112268000D01*
X166988000Y-112268000D01*
X166988000Y-109982000D01*
X167242000Y-109982000D01*
X167242000Y-112268000D01*
X168441250Y-112268000D01*
X168600000Y-112109250D01*
X168603072Y-111545000D01*
X168590812Y-111420518D01*
X168554502Y-111300820D01*
X168495537Y-111190506D01*
X168441778Y-111125000D01*
X168495537Y-111059494D01*
X168554502Y-110949180D01*
X168590812Y-110829482D01*
X168603072Y-110705000D01*
X168600000Y-110140750D01*
X168441250Y-109982000D01*
X167242000Y-109982000D01*
X166988000Y-109982000D01*
X166968000Y-109982000D01*
X166968000Y-109728000D01*
X166988000Y-109728000D01*
X166988000Y-107442000D01*
X167242000Y-107442000D01*
X167242000Y-109728000D01*
X168441250Y-109728000D01*
X168600000Y-109569250D01*
X168603072Y-109005000D01*
X168590812Y-108880518D01*
X168554502Y-108760820D01*
X168495537Y-108650506D01*
X168441778Y-108585000D01*
X168495537Y-108519494D01*
X168554502Y-108409180D01*
X168590812Y-108289482D01*
X168603072Y-108165000D01*
X168600000Y-107600750D01*
X168441250Y-107442000D01*
X167242000Y-107442000D01*
X166988000Y-107442000D01*
X166968000Y-107442000D01*
X166968000Y-107188000D01*
X166988000Y-107188000D01*
X166988000Y-104902000D01*
X167242000Y-104902000D01*
X167242000Y-107188000D01*
X168441250Y-107188000D01*
X168600000Y-107029250D01*
X168603072Y-106465000D01*
X168590812Y-106340518D01*
X168554502Y-106220820D01*
X168495537Y-106110506D01*
X168441778Y-106045000D01*
X168495537Y-105979494D01*
X168554502Y-105869180D01*
X168590812Y-105749482D01*
X168603072Y-105625000D01*
X168600000Y-105060750D01*
X168441250Y-104902000D01*
X167242000Y-104902000D01*
X166988000Y-104902000D01*
X166968000Y-104902000D01*
X166968000Y-104648000D01*
X166988000Y-104648000D01*
X166988000Y-102362000D01*
X167242000Y-102362000D01*
X167242000Y-104648000D01*
X168441250Y-104648000D01*
X168600000Y-104489250D01*
X168603072Y-103925000D01*
X168590812Y-103800518D01*
X168554502Y-103680820D01*
X168495537Y-103570506D01*
X168441778Y-103505000D01*
X168495537Y-103439494D01*
X168554502Y-103329180D01*
X168590812Y-103209482D01*
X168603072Y-103085000D01*
X168600000Y-102520750D01*
X168441250Y-102362000D01*
X167242000Y-102362000D01*
X166988000Y-102362000D01*
X166968000Y-102362000D01*
X166968000Y-102108000D01*
X166988000Y-102108000D01*
X166988000Y-99822000D01*
X167242000Y-99822000D01*
X167242000Y-102108000D01*
X168441250Y-102108000D01*
X168600000Y-101949250D01*
X168603072Y-101385000D01*
X168590812Y-101260518D01*
X168554502Y-101140820D01*
X168495537Y-101030506D01*
X168441778Y-100965000D01*
X168495537Y-100899494D01*
X168554502Y-100789180D01*
X168590812Y-100669482D01*
X168603072Y-100545000D01*
X168600000Y-99980750D01*
X168441250Y-99822000D01*
X167242000Y-99822000D01*
X166988000Y-99822000D01*
X166968000Y-99822000D01*
X166968000Y-99568000D01*
X166988000Y-99568000D01*
X166988000Y-97282000D01*
X167242000Y-97282000D01*
X167242000Y-99568000D01*
X168441250Y-99568000D01*
X168600000Y-99409250D01*
X168603072Y-98845000D01*
X168590812Y-98720518D01*
X168554502Y-98600820D01*
X168495537Y-98490506D01*
X168441778Y-98425000D01*
X168495537Y-98359494D01*
X168554502Y-98249180D01*
X168590812Y-98129482D01*
X168603072Y-98005000D01*
X168600000Y-97440750D01*
X168441250Y-97282000D01*
X167242000Y-97282000D01*
X166988000Y-97282000D01*
X166968000Y-97282000D01*
X166968000Y-97028000D01*
X166988000Y-97028000D01*
X166988000Y-95828750D01*
X167242000Y-95828750D01*
X167242000Y-97028000D01*
X168441250Y-97028000D01*
X168600000Y-96869250D01*
X168603072Y-96305000D01*
X168590812Y-96180518D01*
X168554502Y-96060820D01*
X168495537Y-95950506D01*
X168416185Y-95853815D01*
X168319494Y-95774463D01*
X168209180Y-95715498D01*
X168089482Y-95679188D01*
X167965000Y-95666928D01*
X167400750Y-95670000D01*
X167242000Y-95828750D01*
X166988000Y-95828750D01*
X166829250Y-95670000D01*
X166265000Y-95666928D01*
X166140518Y-95679188D01*
X166020820Y-95715498D01*
X165910506Y-95774463D01*
X165813815Y-95853815D01*
X165734463Y-95950506D01*
X165675498Y-96060820D01*
X165653487Y-96133380D01*
X165521632Y-96001525D01*
X165278411Y-95839010D01*
X165008158Y-95727068D01*
X164721260Y-95670000D01*
X164428740Y-95670000D01*
X164141842Y-95727068D01*
X163871589Y-95839010D01*
X163628368Y-96001525D01*
X163421525Y-96208368D01*
X163305000Y-96382760D01*
X163188475Y-96208368D01*
X162981632Y-96001525D01*
X162738411Y-95839010D01*
X162468158Y-95727068D01*
X162181260Y-95670000D01*
X161888740Y-95670000D01*
X161601842Y-95727068D01*
X161331589Y-95839010D01*
X161088368Y-96001525D01*
X160881525Y-96208368D01*
X160719010Y-96451589D01*
X160607068Y-96721842D01*
X160550000Y-97008740D01*
X143549658Y-97008740D01*
X143583314Y-96927490D01*
X143637000Y-96657592D01*
X143637000Y-96382408D01*
X143623969Y-96316898D01*
X153380868Y-86560000D01*
X156574345Y-86560000D01*
X156394880Y-86739465D01*
X156241995Y-86968273D01*
X156136686Y-87222510D01*
X156083000Y-87492408D01*
X156083000Y-87767592D01*
X156136686Y-88037490D01*
X156241995Y-88291727D01*
X156394880Y-88520535D01*
X156589465Y-88715120D01*
X156818273Y-88868005D01*
X157072510Y-88973314D01*
X157342408Y-89027000D01*
X157617592Y-89027000D01*
X157887490Y-88973314D01*
X158141727Y-88868005D01*
X158370535Y-88715120D01*
X158565120Y-88520535D01*
X158623920Y-88432535D01*
X158632188Y-88516482D01*
X158668498Y-88636180D01*
X158727463Y-88746494D01*
X158806815Y-88843185D01*
X158903506Y-88922537D01*
X159013820Y-88981502D01*
X159133518Y-89017812D01*
X159258000Y-89030072D01*
X159734250Y-89027000D01*
X159893000Y-88868250D01*
X159893000Y-87757000D01*
X159873000Y-87757000D01*
X159873000Y-87503000D01*
X159893000Y-87503000D01*
X159893000Y-87483000D01*
X160147000Y-87483000D01*
X160147000Y-87503000D01*
X160167000Y-87503000D01*
X160167000Y-87757000D01*
X160147000Y-87757000D01*
X160147000Y-88868250D01*
X160305750Y-89027000D01*
X160782000Y-89030072D01*
X160906482Y-89017812D01*
X161026180Y-88981502D01*
X161136494Y-88922537D01*
X161233185Y-88843185D01*
X161312537Y-88746494D01*
X161371502Y-88636180D01*
X161407812Y-88516482D01*
X161416080Y-88432535D01*
X161474880Y-88520535D01*
X161669465Y-88715120D01*
X161898273Y-88868005D01*
X162152510Y-88973314D01*
X162422408Y-89027000D01*
X162697592Y-89027000D01*
X162967490Y-88973314D01*
X163221727Y-88868005D01*
X163450535Y-88715120D01*
X163645120Y-88520535D01*
X163798005Y-88291727D01*
X163830000Y-88214485D01*
X163861995Y-88291727D01*
X164014880Y-88520535D01*
X164209465Y-88715120D01*
X164438273Y-88868005D01*
X164692510Y-88973314D01*
X164962408Y-89027000D01*
X165237592Y-89027000D01*
X165507490Y-88973314D01*
X165761727Y-88868005D01*
X165990535Y-88715120D01*
X166185120Y-88520535D01*
X166338005Y-88291727D01*
X166370000Y-88214485D01*
X166401995Y-88291727D01*
X166554880Y-88520535D01*
X166749465Y-88715120D01*
X166978273Y-88868005D01*
X167232510Y-88973314D01*
X167502408Y-89027000D01*
X167777592Y-89027000D01*
X168047490Y-88973314D01*
X168301727Y-88868005D01*
X168530535Y-88715120D01*
X168725120Y-88520535D01*
X168878005Y-88291727D01*
X168983314Y-88037490D01*
X169037000Y-87767592D01*
X169037000Y-87492408D01*
X168983314Y-87222510D01*
X168878005Y-86968273D01*
X168725120Y-86739465D01*
X168530535Y-86544880D01*
X168301727Y-86391995D01*
X168047490Y-86286686D01*
X167777592Y-86233000D01*
X167502408Y-86233000D01*
X167232510Y-86286686D01*
X166978273Y-86391995D01*
X166749465Y-86544880D01*
X166554880Y-86739465D01*
X166401995Y-86968273D01*
X166370000Y-87045515D01*
X166338005Y-86968273D01*
X166185120Y-86739465D01*
X165990535Y-86544880D01*
X165761727Y-86391995D01*
X165507490Y-86286686D01*
X165237592Y-86233000D01*
X164962408Y-86233000D01*
X164896899Y-86246031D01*
X161909446Y-83258579D01*
X161883291Y-83226709D01*
X161756146Y-83122364D01*
X161611087Y-83044828D01*
X161453689Y-82997082D01*
X161331019Y-82985000D01*
X161331018Y-82985000D01*
X161290000Y-82980960D01*
X161248982Y-82985000D01*
X152441018Y-82985000D01*
X152400000Y-82980960D01*
X152236311Y-82997082D01*
X152078913Y-83044828D01*
X151933854Y-83122364D01*
X151890099Y-83158273D01*
X151806709Y-83226709D01*
X151780563Y-83258568D01*
X143637000Y-91402133D01*
X143637000Y-91302408D01*
X143583314Y-91032510D01*
X143478005Y-90778273D01*
X143325120Y-90549465D01*
X143130535Y-90354880D01*
X142901727Y-90201995D01*
X142824485Y-90170000D01*
X142901727Y-90138005D01*
X143130535Y-89985120D01*
X143325120Y-89790535D01*
X143478005Y-89561727D01*
X143583314Y-89307490D01*
X143637000Y-89037592D01*
X143637000Y-88762408D01*
X143583314Y-88492510D01*
X143478005Y-88238273D01*
X143325120Y-88009465D01*
X143130535Y-87814880D01*
X142901727Y-87661995D01*
X142824485Y-87630000D01*
X142901727Y-87598005D01*
X143130535Y-87445120D01*
X143325120Y-87250535D01*
X143478005Y-87021727D01*
X143583314Y-86767490D01*
X143637000Y-86497592D01*
X143637000Y-86222408D01*
X143583314Y-85952510D01*
X143478005Y-85698273D01*
X143325120Y-85469465D01*
X143130535Y-85274880D01*
X142901727Y-85121995D01*
X142824485Y-85090000D01*
X142901727Y-85058005D01*
X143130535Y-84905120D01*
X143325120Y-84710535D01*
X143478005Y-84481727D01*
X143583314Y-84227490D01*
X143637000Y-83957592D01*
X143637000Y-83682408D01*
X143583314Y-83412510D01*
X143478005Y-83158273D01*
X143325120Y-82929465D01*
X143130535Y-82734880D01*
X142901727Y-82581995D01*
X142824485Y-82550000D01*
X142901727Y-82518005D01*
X143130535Y-82365120D01*
X143325120Y-82170535D01*
X143478005Y-81941727D01*
X143583314Y-81687490D01*
X143637000Y-81417592D01*
X143637000Y-81142408D01*
X143583314Y-80872510D01*
X143478005Y-80618273D01*
X143325120Y-80389465D01*
X143130535Y-80194880D01*
X142901727Y-80041995D01*
X142824485Y-80010000D01*
X142901727Y-79978005D01*
X143130535Y-79825120D01*
X143325120Y-79630535D01*
X143478005Y-79401727D01*
X143583314Y-79147490D01*
X143637000Y-78877592D01*
X143637000Y-78602408D01*
X143583314Y-78332510D01*
X143478005Y-78078273D01*
X143325120Y-77849465D01*
X143130535Y-77654880D01*
X142901727Y-77501995D01*
X142824485Y-77470000D01*
X142901727Y-77438005D01*
X143130535Y-77285120D01*
X143325120Y-77090535D01*
X143478005Y-76861727D01*
X143583314Y-76607490D01*
X143637000Y-76337592D01*
X143637000Y-76062408D01*
X143583314Y-75792510D01*
X143478005Y-75538273D01*
X143325120Y-75309465D01*
X143130535Y-75114880D01*
X142901727Y-74961995D01*
X142824485Y-74930000D01*
X142901727Y-74898005D01*
X143130535Y-74745120D01*
X143325120Y-74550535D01*
X143478005Y-74321727D01*
X143583314Y-74067490D01*
X143637000Y-73797592D01*
X143637000Y-73522408D01*
X143583314Y-73252510D01*
X143478005Y-72998273D01*
X143325120Y-72769465D01*
X143130535Y-72574880D01*
X142901727Y-72421995D01*
X142824485Y-72390000D01*
X142901727Y-72358005D01*
X143130535Y-72205120D01*
X143325120Y-72010535D01*
X143478005Y-71781727D01*
X143583314Y-71527490D01*
X143637000Y-71257592D01*
X143637000Y-70982408D01*
X143583314Y-70712510D01*
X143478005Y-70458273D01*
X143325120Y-70229465D01*
X143130535Y-70034880D01*
X143042535Y-69976080D01*
X143126482Y-69967812D01*
X143246180Y-69931502D01*
X143356494Y-69872537D01*
X143453185Y-69793185D01*
X143532537Y-69696494D01*
X143561673Y-69641984D01*
X146365000Y-69641984D01*
X146365000Y-70358016D01*
X146504691Y-71060290D01*
X146778705Y-71721818D01*
X147176511Y-72317177D01*
X147682823Y-72823489D01*
X148278182Y-73221295D01*
X148939710Y-73495309D01*
X149641984Y-73635000D01*
X150358016Y-73635000D01*
X151060290Y-73495309D01*
X151721818Y-73221295D01*
X152317177Y-72823489D01*
X152823489Y-72317177D01*
X153221295Y-71721818D01*
X153495309Y-71060290D01*
X153635000Y-70358016D01*
X153635000Y-69641984D01*
X153495309Y-68939710D01*
X153221295Y-68278182D01*
X152823489Y-67682823D01*
X152317177Y-67176511D01*
X151721818Y-66778705D01*
X151060290Y-66504691D01*
X150358016Y-66365000D01*
X149641984Y-66365000D01*
X148939710Y-66504691D01*
X148278182Y-66778705D01*
X147682823Y-67176511D01*
X147176511Y-67682823D01*
X146778705Y-68278182D01*
X146504691Y-68939710D01*
X146365000Y-69641984D01*
X143561673Y-69641984D01*
X143591502Y-69586180D01*
X143627812Y-69466482D01*
X143640072Y-69342000D01*
X143637000Y-68865750D01*
X143478250Y-68707000D01*
X142367000Y-68707000D01*
X142367000Y-68727000D01*
X142113000Y-68727000D01*
X142113000Y-68707000D01*
X141001750Y-68707000D01*
X140843000Y-68865750D01*
X140839928Y-69342000D01*
X128171004Y-69342000D01*
X128238005Y-69241727D01*
X128343314Y-68987490D01*
X128397000Y-68717592D01*
X128397000Y-68442408D01*
X128343314Y-68172510D01*
X128238005Y-67918273D01*
X128171005Y-67818000D01*
X140839928Y-67818000D01*
X140843000Y-68294250D01*
X141001750Y-68453000D01*
X142113000Y-68453000D01*
X142113000Y-68433000D01*
X142367000Y-68433000D01*
X142367000Y-68453000D01*
X143478250Y-68453000D01*
X143637000Y-68294250D01*
X143640072Y-67818000D01*
X143627812Y-67693518D01*
X143591502Y-67573820D01*
X143532537Y-67463506D01*
X143453185Y-67366815D01*
X143356494Y-67287463D01*
X143246180Y-67228498D01*
X143126482Y-67192188D01*
X143042535Y-67183920D01*
X143130535Y-67125120D01*
X143325120Y-66930535D01*
X143478005Y-66701727D01*
X143583314Y-66447490D01*
X143637000Y-66177592D01*
X143637000Y-65902408D01*
X143583314Y-65632510D01*
X143478005Y-65378273D01*
X143325120Y-65149465D01*
X143130535Y-64954880D01*
X142901727Y-64801995D01*
X142647490Y-64696686D01*
X142377592Y-64643000D01*
X142102408Y-64643000D01*
X141832510Y-64696686D01*
X141578273Y-64801995D01*
X141349465Y-64954880D01*
X141154880Y-65149465D01*
X141001995Y-65378273D01*
X140896686Y-65632510D01*
X140843000Y-65902408D01*
X140843000Y-66177592D01*
X140896686Y-66447490D01*
X141001995Y-66701727D01*
X141154880Y-66930535D01*
X141349465Y-67125120D01*
X141437465Y-67183920D01*
X141353518Y-67192188D01*
X141233820Y-67228498D01*
X141123506Y-67287463D01*
X141026815Y-67366815D01*
X140947463Y-67463506D01*
X140888498Y-67573820D01*
X140852188Y-67693518D01*
X140839928Y-67818000D01*
X128171005Y-67818000D01*
X128085120Y-67689465D01*
X127890535Y-67494880D01*
X127661727Y-67341995D01*
X127584485Y-67310000D01*
X127661727Y-67278005D01*
X127890535Y-67125120D01*
X128085120Y-66930535D01*
X128238005Y-66701727D01*
X128343314Y-66447490D01*
X128397000Y-66177592D01*
X128397000Y-65902408D01*
X128343314Y-65632510D01*
X128238005Y-65378273D01*
X128085120Y-65149465D01*
X127890535Y-64954880D01*
X127661727Y-64801995D01*
X127407490Y-64696686D01*
X127137592Y-64643000D01*
X126862408Y-64643000D01*
X126592510Y-64696686D01*
X126338273Y-64801995D01*
X126109465Y-64954880D01*
X125914880Y-65149465D01*
X125761995Y-65378273D01*
X125656686Y-65632510D01*
X125603000Y-65902408D01*
X125603000Y-66177592D01*
X125656686Y-66447490D01*
X125761995Y-66701727D01*
X125914880Y-66930535D01*
X126109465Y-67125120D01*
X126338273Y-67278005D01*
X126415515Y-67310000D01*
X126338273Y-67341995D01*
X126109465Y-67494880D01*
X125914880Y-67689465D01*
X125761995Y-67918273D01*
X125656686Y-68172510D01*
X125603000Y-68442408D01*
X125603000Y-68717592D01*
X125656686Y-68987490D01*
X125761995Y-69241727D01*
X125914880Y-69470535D01*
X126109465Y-69665120D01*
X126338273Y-69818005D01*
X126415515Y-69850000D01*
X126338273Y-69881995D01*
X126109465Y-70034880D01*
X125914880Y-70229465D01*
X125761995Y-70458273D01*
X125656686Y-70712510D01*
X125603000Y-70982408D01*
X125603000Y-71257592D01*
X125656686Y-71527490D01*
X125761995Y-71781727D01*
X125914880Y-72010535D01*
X126109465Y-72205120D01*
X126338273Y-72358005D01*
X126415515Y-72390000D01*
X126338273Y-72421995D01*
X126109465Y-72574880D01*
X125914880Y-72769465D01*
X125761995Y-72998273D01*
X125656686Y-73252510D01*
X125603000Y-73522408D01*
X125603000Y-73797592D01*
X125656686Y-74067490D01*
X125761995Y-74321727D01*
X125914880Y-74550535D01*
X126109465Y-74745120D01*
X126338273Y-74898005D01*
X126415515Y-74930000D01*
X126338273Y-74961995D01*
X126109465Y-75114880D01*
X125914880Y-75309465D01*
X125761995Y-75538273D01*
X125656686Y-75792510D01*
X125603000Y-76062408D01*
X125603000Y-76337592D01*
X125656686Y-76607490D01*
X125761995Y-76861727D01*
X125914880Y-77090535D01*
X126109465Y-77285120D01*
X126338273Y-77438005D01*
X126415515Y-77470000D01*
X126338273Y-77501995D01*
X126109465Y-77654880D01*
X125914880Y-77849465D01*
X125761995Y-78078273D01*
X125656686Y-78332510D01*
X125603000Y-78602408D01*
X125603000Y-78877592D01*
X125656686Y-79147490D01*
X125761995Y-79401727D01*
X125914880Y-79630535D01*
X126109465Y-79825120D01*
X126338273Y-79978005D01*
X126415515Y-80010000D01*
X126338273Y-80041995D01*
X126109465Y-80194880D01*
X125914880Y-80389465D01*
X125761995Y-80618273D01*
X125656686Y-80872510D01*
X125603000Y-81142408D01*
X125603000Y-81417592D01*
X125656686Y-81687490D01*
X125761995Y-81941727D01*
X125914880Y-82170535D01*
X126109465Y-82365120D01*
X126338273Y-82518005D01*
X126415515Y-82550000D01*
X126338273Y-82581995D01*
X126109465Y-82734880D01*
X125914880Y-82929465D01*
X125761995Y-83158273D01*
X125656686Y-83412510D01*
X125603000Y-83682408D01*
X125603000Y-83957592D01*
X125656686Y-84227490D01*
X125761995Y-84481727D01*
X125914880Y-84710535D01*
X126109465Y-84905120D01*
X126338273Y-85058005D01*
X126415515Y-85090000D01*
X126338273Y-85121995D01*
X126109465Y-85274880D01*
X125914880Y-85469465D01*
X125761995Y-85698273D01*
X125656686Y-85952510D01*
X125603000Y-86222408D01*
X125603000Y-86497592D01*
X125656686Y-86767490D01*
X125761995Y-87021727D01*
X125914880Y-87250535D01*
X126109465Y-87445120D01*
X126338273Y-87598005D01*
X126415515Y-87630000D01*
X126338273Y-87661995D01*
X126109465Y-87814880D01*
X125914880Y-88009465D01*
X125761995Y-88238273D01*
X125656686Y-88492510D01*
X125603000Y-88762408D01*
X125603000Y-89037592D01*
X125656686Y-89307490D01*
X125761995Y-89561727D01*
X125914880Y-89790535D01*
X126109465Y-89985120D01*
X126338273Y-90138005D01*
X126415515Y-90170000D01*
X126338273Y-90201995D01*
X126109465Y-90354880D01*
X125914880Y-90549465D01*
X125761995Y-90778273D01*
X125656686Y-91032510D01*
X125603000Y-91302408D01*
X125603000Y-91577592D01*
X125656686Y-91847490D01*
X125761995Y-92101727D01*
X125914880Y-92330535D01*
X126109465Y-92525120D01*
X126338273Y-92678005D01*
X126415515Y-92710000D01*
X126338273Y-92741995D01*
X126109465Y-92894880D01*
X125914880Y-93089465D01*
X125761995Y-93318273D01*
X125656686Y-93572510D01*
X125603000Y-93842408D01*
X125603000Y-94117592D01*
X125656686Y-94387490D01*
X125761995Y-94641727D01*
X125914880Y-94870535D01*
X126109465Y-95065120D01*
X126338273Y-95218005D01*
X126415515Y-95250000D01*
X126338273Y-95281995D01*
X126109465Y-95434880D01*
X125914880Y-95629465D01*
X125761995Y-95858273D01*
X125656686Y-96112510D01*
X125603000Y-96382408D01*
X125603000Y-96657592D01*
X125656686Y-96927490D01*
X125761995Y-97181727D01*
X125914880Y-97410535D01*
X126109465Y-97605120D01*
X126338273Y-97758005D01*
X126415515Y-97790000D01*
X126338273Y-97821995D01*
X126109465Y-97974880D01*
X125914880Y-98169465D01*
X125761995Y-98398273D01*
X125656686Y-98652510D01*
X125603000Y-98922408D01*
X125603000Y-99197592D01*
X125656686Y-99467490D01*
X125761995Y-99721727D01*
X125914880Y-99950535D01*
X126109465Y-100145120D01*
X126338273Y-100298005D01*
X126415515Y-100330000D01*
X126338273Y-100361995D01*
X126109465Y-100514880D01*
X125914880Y-100709465D01*
X125761995Y-100938273D01*
X125656686Y-101192510D01*
X125603000Y-101462408D01*
X125603000Y-101737592D01*
X125656686Y-102007490D01*
X125761995Y-102261727D01*
X125914880Y-102490535D01*
X126109465Y-102685120D01*
X126338273Y-102838005D01*
X126415515Y-102870000D01*
X126338273Y-102901995D01*
X126109465Y-103054880D01*
X125914880Y-103249465D01*
X125761995Y-103478273D01*
X125656686Y-103732510D01*
X125603000Y-104002408D01*
X125603000Y-104277592D01*
X125656686Y-104547490D01*
X125761995Y-104801727D01*
X125914880Y-105030535D01*
X126109465Y-105225120D01*
X126338273Y-105378005D01*
X126415515Y-105410000D01*
X126338273Y-105441995D01*
X126109465Y-105594880D01*
X125914880Y-105789465D01*
X125761995Y-106018273D01*
X125656686Y-106272510D01*
X125603000Y-106542408D01*
X125603000Y-106817592D01*
X125656686Y-107087490D01*
X125761995Y-107341727D01*
X125914880Y-107570535D01*
X126109465Y-107765120D01*
X126338273Y-107918005D01*
X126415515Y-107950000D01*
X126338273Y-107981995D01*
X126109465Y-108134880D01*
X125914880Y-108329465D01*
X125761995Y-108558273D01*
X125656686Y-108812510D01*
X125603000Y-109082408D01*
X125603000Y-109357592D01*
X125656686Y-109627490D01*
X125761995Y-109881727D01*
X125914880Y-110110535D01*
X126109465Y-110305120D01*
X126197465Y-110363920D01*
X126113518Y-110372188D01*
X125993820Y-110408498D01*
X125883506Y-110467463D01*
X125786815Y-110546815D01*
X125707463Y-110643506D01*
X125648498Y-110753820D01*
X125612188Y-110873518D01*
X125599928Y-110998000D01*
X123507699Y-110998000D01*
X123635000Y-110358016D01*
X123635000Y-109641984D01*
X123495309Y-108939710D01*
X123221295Y-108278182D01*
X122823489Y-107682823D01*
X122317177Y-107176511D01*
X121721818Y-106778705D01*
X121060290Y-106504691D01*
X120358016Y-106365000D01*
X119641984Y-106365000D01*
X118939710Y-106504691D01*
X118278182Y-106778705D01*
X117682823Y-107176511D01*
X117176511Y-107682823D01*
X116778705Y-108278182D01*
X116504691Y-108939710D01*
X116365000Y-109641984D01*
X110695000Y-109641984D01*
X110695000Y-99910000D01*
X111541928Y-99910000D01*
X111554188Y-100034482D01*
X111590498Y-100154180D01*
X111649463Y-100264494D01*
X111728815Y-100361185D01*
X111825506Y-100440537D01*
X111935820Y-100499502D01*
X112055518Y-100535812D01*
X112180000Y-100548072D01*
X112744250Y-100545000D01*
X112903000Y-100386250D01*
X112903000Y-99187000D01*
X111703750Y-99187000D01*
X111545000Y-99345750D01*
X111541928Y-99910000D01*
X110695000Y-99910000D01*
X110695000Y-97370000D01*
X111541928Y-97370000D01*
X111554188Y-97494482D01*
X111590498Y-97614180D01*
X111649463Y-97724494D01*
X111703222Y-97790000D01*
X111649463Y-97855506D01*
X111590498Y-97965820D01*
X111554188Y-98085518D01*
X111541928Y-98210000D01*
X111545000Y-98774250D01*
X111703750Y-98933000D01*
X112903000Y-98933000D01*
X112903000Y-96647000D01*
X111703750Y-96647000D01*
X111545000Y-96805750D01*
X111541928Y-97370000D01*
X110695000Y-97370000D01*
X110695000Y-94830000D01*
X111541928Y-94830000D01*
X111554188Y-94954482D01*
X111590498Y-95074180D01*
X111649463Y-95184494D01*
X111703222Y-95250000D01*
X111649463Y-95315506D01*
X111590498Y-95425820D01*
X111554188Y-95545518D01*
X111541928Y-95670000D01*
X111545000Y-96234250D01*
X111703750Y-96393000D01*
X112903000Y-96393000D01*
X112903000Y-94107000D01*
X111703750Y-94107000D01*
X111545000Y-94265750D01*
X111541928Y-94830000D01*
X110695000Y-94830000D01*
X110695000Y-92290000D01*
X111541928Y-92290000D01*
X111554188Y-92414482D01*
X111590498Y-92534180D01*
X111649463Y-92644494D01*
X111703222Y-92710000D01*
X111649463Y-92775506D01*
X111590498Y-92885820D01*
X111554188Y-93005518D01*
X111541928Y-93130000D01*
X111545000Y-93694250D01*
X111703750Y-93853000D01*
X112903000Y-93853000D01*
X112903000Y-91567000D01*
X111703750Y-91567000D01*
X111545000Y-91725750D01*
X111541928Y-92290000D01*
X110695000Y-92290000D01*
X110695000Y-89750000D01*
X111541928Y-89750000D01*
X111554188Y-89874482D01*
X111590498Y-89994180D01*
X111649463Y-90104494D01*
X111703222Y-90170000D01*
X111649463Y-90235506D01*
X111590498Y-90345820D01*
X111554188Y-90465518D01*
X111541928Y-90590000D01*
X111545000Y-91154250D01*
X111703750Y-91313000D01*
X112903000Y-91313000D01*
X112903000Y-89027000D01*
X111703750Y-89027000D01*
X111545000Y-89185750D01*
X111541928Y-89750000D01*
X110695000Y-89750000D01*
X110695000Y-87210000D01*
X111541928Y-87210000D01*
X111554188Y-87334482D01*
X111590498Y-87454180D01*
X111649463Y-87564494D01*
X111703222Y-87630000D01*
X111649463Y-87695506D01*
X111590498Y-87805820D01*
X111554188Y-87925518D01*
X111541928Y-88050000D01*
X111545000Y-88614250D01*
X111703750Y-88773000D01*
X112903000Y-88773000D01*
X112903000Y-86487000D01*
X111703750Y-86487000D01*
X111545000Y-86645750D01*
X111541928Y-87210000D01*
X110695000Y-87210000D01*
X110695000Y-84670000D01*
X111541928Y-84670000D01*
X111554188Y-84794482D01*
X111590498Y-84914180D01*
X111649463Y-85024494D01*
X111703222Y-85090000D01*
X111649463Y-85155506D01*
X111590498Y-85265820D01*
X111554188Y-85385518D01*
X111541928Y-85510000D01*
X111545000Y-86074250D01*
X111703750Y-86233000D01*
X112903000Y-86233000D01*
X112903000Y-83947000D01*
X111703750Y-83947000D01*
X111545000Y-84105750D01*
X111541928Y-84670000D01*
X110695000Y-84670000D01*
X110695000Y-82130000D01*
X111541928Y-82130000D01*
X111554188Y-82254482D01*
X111590498Y-82374180D01*
X111649463Y-82484494D01*
X111703222Y-82550000D01*
X111649463Y-82615506D01*
X111590498Y-82725820D01*
X111554188Y-82845518D01*
X111541928Y-82970000D01*
X111545000Y-83534250D01*
X111703750Y-83693000D01*
X112903000Y-83693000D01*
X112903000Y-81407000D01*
X111703750Y-81407000D01*
X111545000Y-81565750D01*
X111541928Y-82130000D01*
X110695000Y-82130000D01*
X110695000Y-80430000D01*
X111541928Y-80430000D01*
X111545000Y-80994250D01*
X111703750Y-81153000D01*
X112903000Y-81153000D01*
X112903000Y-79953750D01*
X113157000Y-79953750D01*
X113157000Y-81153000D01*
X113177000Y-81153000D01*
X113177000Y-81407000D01*
X113157000Y-81407000D01*
X113157000Y-83693000D01*
X113177000Y-83693000D01*
X113177000Y-83947000D01*
X113157000Y-83947000D01*
X113157000Y-86233000D01*
X113177000Y-86233000D01*
X113177000Y-86487000D01*
X113157000Y-86487000D01*
X113157000Y-88773000D01*
X113177000Y-88773000D01*
X113177000Y-89027000D01*
X113157000Y-89027000D01*
X113157000Y-91313000D01*
X113177000Y-91313000D01*
X113177000Y-91567000D01*
X113157000Y-91567000D01*
X113157000Y-93853000D01*
X113177000Y-93853000D01*
X113177000Y-94107000D01*
X113157000Y-94107000D01*
X113157000Y-96393000D01*
X113177000Y-96393000D01*
X113177000Y-96647000D01*
X113157000Y-96647000D01*
X113157000Y-98933000D01*
X113177000Y-98933000D01*
X113177000Y-99187000D01*
X113157000Y-99187000D01*
X113157000Y-100386250D01*
X113315750Y-100545000D01*
X113880000Y-100548072D01*
X114004482Y-100535812D01*
X114124180Y-100499502D01*
X114234494Y-100440537D01*
X114331185Y-100361185D01*
X114410537Y-100264494D01*
X114469502Y-100154180D01*
X114491513Y-100081620D01*
X114623368Y-100213475D01*
X114866589Y-100375990D01*
X115136842Y-100487932D01*
X115423740Y-100545000D01*
X115716260Y-100545000D01*
X116003158Y-100487932D01*
X116273411Y-100375990D01*
X116516632Y-100213475D01*
X116723475Y-100006632D01*
X116840000Y-99832240D01*
X116956525Y-100006632D01*
X117163368Y-100213475D01*
X117406589Y-100375990D01*
X117676842Y-100487932D01*
X117963740Y-100545000D01*
X118256260Y-100545000D01*
X118543158Y-100487932D01*
X118813411Y-100375990D01*
X119056632Y-100213475D01*
X119263475Y-100006632D01*
X119425990Y-99763411D01*
X119537932Y-99493158D01*
X119595000Y-99206260D01*
X119595000Y-98913740D01*
X119537932Y-98626842D01*
X119425990Y-98356589D01*
X119263475Y-98113368D01*
X119056632Y-97906525D01*
X118882240Y-97790000D01*
X119056632Y-97673475D01*
X119263475Y-97466632D01*
X119425990Y-97223411D01*
X119537932Y-96953158D01*
X119595000Y-96666260D01*
X119595000Y-96373740D01*
X119537932Y-96086842D01*
X119425990Y-95816589D01*
X119263475Y-95573368D01*
X119056632Y-95366525D01*
X118882240Y-95250000D01*
X119056632Y-95133475D01*
X119263475Y-94926632D01*
X119425990Y-94683411D01*
X119537932Y-94413158D01*
X119595000Y-94126260D01*
X119595000Y-93833740D01*
X119537932Y-93546842D01*
X119425990Y-93276589D01*
X119263475Y-93033368D01*
X119056632Y-92826525D01*
X118882240Y-92710000D01*
X119056632Y-92593475D01*
X119263475Y-92386632D01*
X119425990Y-92143411D01*
X119537932Y-91873158D01*
X119595000Y-91586260D01*
X119595000Y-91293740D01*
X119537932Y-91006842D01*
X119425990Y-90736589D01*
X119263475Y-90493368D01*
X119056632Y-90286525D01*
X118882240Y-90170000D01*
X119056632Y-90053475D01*
X119263475Y-89846632D01*
X119425990Y-89603411D01*
X119537932Y-89333158D01*
X119595000Y-89046260D01*
X119595000Y-88753740D01*
X119537932Y-88466842D01*
X119425990Y-88196589D01*
X119263475Y-87953368D01*
X119056632Y-87746525D01*
X118882240Y-87630000D01*
X119056632Y-87513475D01*
X119263475Y-87306632D01*
X119425990Y-87063411D01*
X119537932Y-86793158D01*
X119595000Y-86506260D01*
X119595000Y-86213740D01*
X119537932Y-85926842D01*
X119425990Y-85656589D01*
X119263475Y-85413368D01*
X119056632Y-85206525D01*
X118882240Y-85090000D01*
X119056632Y-84973475D01*
X119263475Y-84766632D01*
X119425990Y-84523411D01*
X119537932Y-84253158D01*
X119595000Y-83966260D01*
X119595000Y-83673740D01*
X119537932Y-83386842D01*
X119425990Y-83116589D01*
X119263475Y-82873368D01*
X119056632Y-82666525D01*
X118882240Y-82550000D01*
X119056632Y-82433475D01*
X119263475Y-82226632D01*
X119425990Y-81983411D01*
X119537932Y-81713158D01*
X119595000Y-81426260D01*
X119595000Y-81133740D01*
X119537932Y-80846842D01*
X119425990Y-80576589D01*
X119263475Y-80333368D01*
X119056632Y-80126525D01*
X118813411Y-79964010D01*
X118543158Y-79852068D01*
X118256260Y-79795000D01*
X117963740Y-79795000D01*
X117676842Y-79852068D01*
X117406589Y-79964010D01*
X117163368Y-80126525D01*
X116956525Y-80333368D01*
X116840000Y-80507760D01*
X116723475Y-80333368D01*
X116516632Y-80126525D01*
X116273411Y-79964010D01*
X116003158Y-79852068D01*
X115716260Y-79795000D01*
X115423740Y-79795000D01*
X115136842Y-79852068D01*
X114866589Y-79964010D01*
X114623368Y-80126525D01*
X114491513Y-80258380D01*
X114469502Y-80185820D01*
X114410537Y-80075506D01*
X114331185Y-79978815D01*
X114234494Y-79899463D01*
X114124180Y-79840498D01*
X114004482Y-79804188D01*
X113880000Y-79791928D01*
X113315750Y-79795000D01*
X113157000Y-79953750D01*
X112903000Y-79953750D01*
X112744250Y-79795000D01*
X112180000Y-79791928D01*
X112055518Y-79804188D01*
X111935820Y-79840498D01*
X111825506Y-79899463D01*
X111728815Y-79978815D01*
X111649463Y-80075506D01*
X111590498Y-80185820D01*
X111554188Y-80305518D01*
X111541928Y-80430000D01*
X110695000Y-80430000D01*
X110695000Y-70021848D01*
X110718898Y-69641984D01*
X116365000Y-69641984D01*
X116365000Y-70358016D01*
X116504691Y-71060290D01*
X116778705Y-71721818D01*
X117176511Y-72317177D01*
X117682823Y-72823489D01*
X118278182Y-73221295D01*
X118939710Y-73495309D01*
X119641984Y-73635000D01*
X120358016Y-73635000D01*
X121060290Y-73495309D01*
X121721818Y-73221295D01*
X122317177Y-72823489D01*
X122823489Y-72317177D01*
X123221295Y-71721818D01*
X123495309Y-71060290D01*
X123635000Y-70358016D01*
X123635000Y-69641984D01*
X123495309Y-68939710D01*
X123221295Y-68278182D01*
X122823489Y-67682823D01*
X122317177Y-67176511D01*
X121721818Y-66778705D01*
X121060290Y-66504691D01*
X120358016Y-66365000D01*
X119641984Y-66365000D01*
X118939710Y-66504691D01*
X118278182Y-66778705D01*
X117682823Y-67176511D01*
X117176511Y-67682823D01*
X116778705Y-68278182D01*
X116504691Y-68939710D01*
X116365000Y-69641984D01*
X110718898Y-69641984D01*
X110769736Y-68833946D01*
X110988665Y-67686278D01*
X111349706Y-66575111D01*
X111847171Y-65517943D01*
X112473209Y-64531465D01*
X113217948Y-63631230D01*
X114069642Y-62831437D01*
X115014870Y-62144688D01*
X116038708Y-61581828D01*
X117125023Y-61151725D01*
X118256672Y-60861167D01*
X119426687Y-60713360D01*
X120010917Y-60695000D01*
X139388893Y-60695000D01*
X139308525Y-60775368D01*
G37*
X139308525Y-60775368D02*
X139146010Y-61018589D01*
X139034068Y-61288842D01*
X138977000Y-61575740D01*
X138977000Y-61868260D01*
X139034068Y-62155158D01*
X139146010Y-62425411D01*
X139308525Y-62668632D01*
X139515368Y-62875475D01*
X139758589Y-63037990D01*
X140028842Y-63149932D01*
X140315740Y-63207000D01*
X140608260Y-63207000D01*
X140895158Y-63149932D01*
X141165411Y-63037990D01*
X141408632Y-62875475D01*
X141615475Y-62668632D01*
X141777990Y-62425411D01*
X141889932Y-62155158D01*
X141947000Y-61868260D01*
X141947000Y-61575740D01*
X141889932Y-61288842D01*
X141777990Y-61018589D01*
X141615475Y-60775368D01*
X141535107Y-60695000D01*
X146246893Y-60695000D01*
X146166525Y-60775368D01*
X146004010Y-61018589D01*
X145892068Y-61288842D01*
X145835000Y-61575740D01*
X145835000Y-61868260D01*
X145892068Y-62155158D01*
X146004010Y-62425411D01*
X146166525Y-62668632D01*
X146373368Y-62875475D01*
X146616589Y-63037990D01*
X146886842Y-63149932D01*
X147173740Y-63207000D01*
X147466260Y-63207000D01*
X147753158Y-63149932D01*
X148023411Y-63037990D01*
X148266632Y-62875475D01*
X148473475Y-62668632D01*
X148635990Y-62425411D01*
X148747932Y-62155158D01*
X148805000Y-61868260D01*
X148805000Y-61575740D01*
X148747932Y-61288842D01*
X148635990Y-61018589D01*
X148473475Y-60775368D01*
X148393107Y-60695000D01*
X169305000Y-60695000D01*
X169305001Y-119305000D01*
X120021848Y-119305000D01*
X118833946Y-119230264D01*
X117686278Y-119011335D01*
X116575107Y-118650293D01*
X115517944Y-118152829D01*
X114531467Y-117526792D01*
X113631230Y-116782051D01*
X112831433Y-115930355D01*
X112144688Y-114985130D01*
X111581828Y-113961292D01*
X111151725Y-112874977D01*
X110861167Y-111743329D01*
X110713360Y-110573313D01*
X110695000Y-109989083D01*
X110695000Y-109641984D01*
X116365000Y-109641984D01*
X116365000Y-110358016D01*
X116504691Y-111060290D01*
X116778705Y-111721818D01*
X117176511Y-112317177D01*
X117682823Y-112823489D01*
X118278182Y-113221295D01*
X118939710Y-113495309D01*
X119641984Y-113635000D01*
X120358016Y-113635000D01*
X121060290Y-113495309D01*
X121721818Y-113221295D01*
X122317177Y-112823489D01*
X122618666Y-112522000D01*
X125599928Y-112522000D01*
X125612188Y-112646482D01*
X125648498Y-112766180D01*
X125707463Y-112876494D01*
X125786815Y-112973185D01*
X125883506Y-113052537D01*
X125993820Y-113111502D01*
X126113518Y-113147812D01*
X126197465Y-113156080D01*
X126109465Y-113214880D01*
X125914880Y-113409465D01*
X125761995Y-113638273D01*
X125656686Y-113892510D01*
X125603000Y-114162408D01*
X125603000Y-114437592D01*
X125656686Y-114707490D01*
X125761995Y-114961727D01*
X125914880Y-115190535D01*
X126109465Y-115385120D01*
X126338273Y-115538005D01*
X126592510Y-115643314D01*
X126862408Y-115697000D01*
X127137592Y-115697000D01*
X127407490Y-115643314D01*
X127661727Y-115538005D01*
X127890535Y-115385120D01*
X128085120Y-115190535D01*
X128238005Y-114961727D01*
X128343314Y-114707490D01*
X128397000Y-114437592D01*
X128397000Y-114162408D01*
X128343314Y-113892510D01*
X128238005Y-113638273D01*
X128085120Y-113409465D01*
X127890535Y-113214880D01*
X127802535Y-113156080D01*
X127886482Y-113147812D01*
X128006180Y-113111502D01*
X128116494Y-113052537D01*
X128213185Y-112973185D01*
X128292537Y-112876494D01*
X128351502Y-112766180D01*
X128387812Y-112646482D01*
X128400072Y-112522000D01*
X128397000Y-112045750D01*
X128238250Y-111887000D01*
X127127000Y-111887000D01*
X127127000Y-111907000D01*
X126873000Y-111907000D01*
X126873000Y-111887000D01*
X125761750Y-111887000D01*
X125603000Y-112045750D01*
X125599928Y-112522000D01*
X122618666Y-112522000D01*
X122823489Y-112317177D01*
X123221295Y-111721818D01*
X123495309Y-111060290D01*
X123507699Y-110998000D01*
X125599928Y-110998000D01*
X125603000Y-111474250D01*
X125761750Y-111633000D01*
X126873000Y-111633000D01*
X126873000Y-111613000D01*
X127127000Y-111613000D01*
X127127000Y-111633000D01*
X128238250Y-111633000D01*
X128397000Y-111474250D01*
X128400072Y-110998000D01*
X128387812Y-110873518D01*
X128351502Y-110753820D01*
X128292537Y-110643506D01*
X128213185Y-110546815D01*
X128116494Y-110467463D01*
X128006180Y-110408498D01*
X127886482Y-110372188D01*
X127802535Y-110363920D01*
X127890535Y-110305120D01*
X128085120Y-110110535D01*
X128238005Y-109881727D01*
X128343314Y-109627490D01*
X128397000Y-109357592D01*
X128397000Y-109082408D01*
X128343314Y-108812510D01*
X128238005Y-108558273D01*
X128085120Y-108329465D01*
X127890535Y-108134880D01*
X127661727Y-107981995D01*
X127584485Y-107950000D01*
X127661727Y-107918005D01*
X127890535Y-107765120D01*
X128085120Y-107570535D01*
X128238005Y-107341727D01*
X128343314Y-107087490D01*
X128397000Y-106817592D01*
X128397000Y-106542408D01*
X128343314Y-106272510D01*
X128238005Y-106018273D01*
X128085120Y-105789465D01*
X127890535Y-105594880D01*
X127661727Y-105441995D01*
X127584485Y-105410000D01*
X127661727Y-105378005D01*
X127890535Y-105225120D01*
X128085120Y-105030535D01*
X128238005Y-104801727D01*
X128343314Y-104547490D01*
X128397000Y-104277592D01*
X128397000Y-104002408D01*
X128343314Y-103732510D01*
X128238005Y-103478273D01*
X128085120Y-103249465D01*
X127890535Y-103054880D01*
X127661727Y-102901995D01*
X127584485Y-102870000D01*
X127661727Y-102838005D01*
X127890535Y-102685120D01*
X128085120Y-102490535D01*
X128238005Y-102261727D01*
X128343314Y-102007490D01*
X128397000Y-101737592D01*
X128397000Y-101462408D01*
X128343314Y-101192510D01*
X128238005Y-100938273D01*
X128085120Y-100709465D01*
X127890535Y-100514880D01*
X127661727Y-100361995D01*
X127584485Y-100330000D01*
X127661727Y-100298005D01*
X127890535Y-100145120D01*
X128085120Y-99950535D01*
X128238005Y-99721727D01*
X128343314Y-99467490D01*
X128397000Y-99197592D01*
X128397000Y-98922408D01*
X128343314Y-98652510D01*
X128238005Y-98398273D01*
X128085120Y-98169465D01*
X127890535Y-97974880D01*
X127661727Y-97821995D01*
X127584485Y-97790000D01*
X127661727Y-97758005D01*
X127890535Y-97605120D01*
X128085120Y-97410535D01*
X128238005Y-97181727D01*
X128343314Y-96927490D01*
X128397000Y-96657592D01*
X128397000Y-96382408D01*
X128343314Y-96112510D01*
X128238005Y-95858273D01*
X128085120Y-95629465D01*
X127890535Y-95434880D01*
X127661727Y-95281995D01*
X127584485Y-95250000D01*
X127661727Y-95218005D01*
X127890535Y-95065120D01*
X128085120Y-94870535D01*
X128238005Y-94641727D01*
X128343314Y-94387490D01*
X128397000Y-94117592D01*
X128397000Y-93842408D01*
X128343314Y-93572510D01*
X128238005Y-93318273D01*
X128085120Y-93089465D01*
X127890535Y-92894880D01*
X127661727Y-92741995D01*
X127584485Y-92710000D01*
X127661727Y-92678005D01*
X127890535Y-92525120D01*
X128085120Y-92330535D01*
X128238005Y-92101727D01*
X128343314Y-91847490D01*
X128397000Y-91577592D01*
X128397000Y-91302408D01*
X128343314Y-91032510D01*
X128238005Y-90778273D01*
X128085120Y-90549465D01*
X127890535Y-90354880D01*
X127661727Y-90201995D01*
X127584485Y-90170000D01*
X127661727Y-90138005D01*
X127890535Y-89985120D01*
X128085120Y-89790535D01*
X128238005Y-89561727D01*
X128343314Y-89307490D01*
X128397000Y-89037592D01*
X128397000Y-88762408D01*
X128343314Y-88492510D01*
X128238005Y-88238273D01*
X128085120Y-88009465D01*
X127890535Y-87814880D01*
X127661727Y-87661995D01*
X127584485Y-87630000D01*
X127661727Y-87598005D01*
X127890535Y-87445120D01*
X128085120Y-87250535D01*
X128238005Y-87021727D01*
X128343314Y-86767490D01*
X128397000Y-86497592D01*
X128397000Y-86222408D01*
X128343314Y-85952510D01*
X128238005Y-85698273D01*
X128085120Y-85469465D01*
X127890535Y-85274880D01*
X127661727Y-85121995D01*
X127584485Y-85090000D01*
X127661727Y-85058005D01*
X127890535Y-84905120D01*
X128085120Y-84710535D01*
X128238005Y-84481727D01*
X128343314Y-84227490D01*
X128397000Y-83957592D01*
X128397000Y-83682408D01*
X128343314Y-83412510D01*
X128238005Y-83158273D01*
X128085120Y-82929465D01*
X127890535Y-82734880D01*
X127661727Y-82581995D01*
X127584485Y-82550000D01*
X127661727Y-82518005D01*
X127890535Y-82365120D01*
X128085120Y-82170535D01*
X128238005Y-81941727D01*
X128343314Y-81687490D01*
X128397000Y-81417592D01*
X128397000Y-81142408D01*
X128343314Y-80872510D01*
X128238005Y-80618273D01*
X128085120Y-80389465D01*
X127890535Y-80194880D01*
X127661727Y-80041995D01*
X127584485Y-80010000D01*
X127661727Y-79978005D01*
X127890535Y-79825120D01*
X128085120Y-79630535D01*
X128238005Y-79401727D01*
X128343314Y-79147490D01*
X128397000Y-78877592D01*
X128397000Y-78602408D01*
X128343314Y-78332510D01*
X128238005Y-78078273D01*
X128085120Y-77849465D01*
X127890535Y-77654880D01*
X127661727Y-77501995D01*
X127584485Y-77470000D01*
X127661727Y-77438005D01*
X127890535Y-77285120D01*
X128085120Y-77090535D01*
X128238005Y-76861727D01*
X128343314Y-76607490D01*
X128397000Y-76337592D01*
X128397000Y-76062408D01*
X128343314Y-75792510D01*
X128238005Y-75538273D01*
X128085120Y-75309465D01*
X127890535Y-75114880D01*
X127661727Y-74961995D01*
X127584485Y-74930000D01*
X127661727Y-74898005D01*
X127890535Y-74745120D01*
X128085120Y-74550535D01*
X128238005Y-74321727D01*
X128343314Y-74067490D01*
X128397000Y-73797592D01*
X128397000Y-73522408D01*
X128343314Y-73252510D01*
X128238005Y-72998273D01*
X128085120Y-72769465D01*
X127890535Y-72574880D01*
X127661727Y-72421995D01*
X127584485Y-72390000D01*
X127661727Y-72358005D01*
X127890535Y-72205120D01*
X128085120Y-72010535D01*
X128238005Y-71781727D01*
X128343314Y-71527490D01*
X128397000Y-71257592D01*
X128397000Y-70982408D01*
X128343314Y-70712510D01*
X128238005Y-70458273D01*
X128085120Y-70229465D01*
X127890535Y-70034880D01*
X127661727Y-69881995D01*
X127584485Y-69850000D01*
X127661727Y-69818005D01*
X127890535Y-69665120D01*
X128085120Y-69470535D01*
X128171004Y-69342000D01*
X140839928Y-69342000D01*
X140852188Y-69466482D01*
X140888498Y-69586180D01*
X140947463Y-69696494D01*
X141026815Y-69793185D01*
X141123506Y-69872537D01*
X141233820Y-69931502D01*
X141353518Y-69967812D01*
X141437465Y-69976080D01*
X141349465Y-70034880D01*
X141154880Y-70229465D01*
X141001995Y-70458273D01*
X140896686Y-70712510D01*
X140843000Y-70982408D01*
X140843000Y-71257592D01*
X140896686Y-71527490D01*
X141001995Y-71781727D01*
X141154880Y-72010535D01*
X141349465Y-72205120D01*
X141578273Y-72358005D01*
X141655515Y-72390000D01*
X141578273Y-72421995D01*
X141349465Y-72574880D01*
X141154880Y-72769465D01*
X141001995Y-72998273D01*
X140896686Y-73252510D01*
X140843000Y-73522408D01*
X140843000Y-73797592D01*
X140896686Y-74067490D01*
X141001995Y-74321727D01*
X141154880Y-74550535D01*
X141349465Y-74745120D01*
X141578273Y-74898005D01*
X141655515Y-74930000D01*
X141578273Y-74961995D01*
X141349465Y-75114880D01*
X141154880Y-75309465D01*
X141001995Y-75538273D01*
X140896686Y-75792510D01*
X140843000Y-76062408D01*
X140843000Y-76337592D01*
X140896686Y-76607490D01*
X141001995Y-76861727D01*
X141154880Y-77090535D01*
X141349465Y-77285120D01*
X141578273Y-77438005D01*
X141655515Y-77470000D01*
X141578273Y-77501995D01*
X141349465Y-77654880D01*
X141154880Y-77849465D01*
X141001995Y-78078273D01*
X140896686Y-78332510D01*
X140843000Y-78602408D01*
X140843000Y-78877592D01*
X140896686Y-79147490D01*
X141001995Y-79401727D01*
X141154880Y-79630535D01*
X141349465Y-79825120D01*
X141578273Y-79978005D01*
X141655515Y-80010000D01*
X141578273Y-80041995D01*
X141349465Y-80194880D01*
X141154880Y-80389465D01*
X141001995Y-80618273D01*
X140896686Y-80872510D01*
X140843000Y-81142408D01*
X140843000Y-81417592D01*
X140896686Y-81687490D01*
X141001995Y-81941727D01*
X141154880Y-82170535D01*
X141349465Y-82365120D01*
X141578273Y-82518005D01*
X141655515Y-82550000D01*
X141578273Y-82581995D01*
X141349465Y-82734880D01*
X141154880Y-82929465D01*
X141001995Y-83158273D01*
X140896686Y-83412510D01*
X140843000Y-83682408D01*
X140843000Y-83957592D01*
X140896686Y-84227490D01*
X141001995Y-84481727D01*
X141154880Y-84710535D01*
X141349465Y-84905120D01*
X141578273Y-85058005D01*
X141655515Y-85090000D01*
X141578273Y-85121995D01*
X141349465Y-85274880D01*
X141154880Y-85469465D01*
X141001995Y-85698273D01*
X140896686Y-85952510D01*
X140843000Y-86222408D01*
X140843000Y-86497592D01*
X140896686Y-86767490D01*
X141001995Y-87021727D01*
X141154880Y-87250535D01*
X141349465Y-87445120D01*
X141578273Y-87598005D01*
X141655515Y-87630000D01*
X141578273Y-87661995D01*
X141349465Y-87814880D01*
X141154880Y-88009465D01*
X141001995Y-88238273D01*
X140896686Y-88492510D01*
X140843000Y-88762408D01*
X140843000Y-89037592D01*
X140896686Y-89307490D01*
X141001995Y-89561727D01*
X141154880Y-89790535D01*
X141349465Y-89985120D01*
X141578273Y-90138005D01*
X141655515Y-90170000D01*
X141578273Y-90201995D01*
X141349465Y-90354880D01*
X141154880Y-90549465D01*
X141001995Y-90778273D01*
X140896686Y-91032510D01*
X140843000Y-91302408D01*
X140843000Y-91577592D01*
X140896686Y-91847490D01*
X141001995Y-92101727D01*
X141154880Y-92330535D01*
X141349465Y-92525120D01*
X141578273Y-92678005D01*
X141655515Y-92710000D01*
X141578273Y-92741995D01*
X141349465Y-92894880D01*
X141154880Y-93089465D01*
X141001995Y-93318273D01*
X140896686Y-93572510D01*
X140843000Y-93842408D01*
X140843000Y-94117592D01*
X140896686Y-94387490D01*
X141001995Y-94641727D01*
X141154880Y-94870535D01*
X141349465Y-95065120D01*
X141578273Y-95218005D01*
X141655515Y-95250000D01*
X141578273Y-95281995D01*
X141349465Y-95434880D01*
X141154880Y-95629465D01*
X141001995Y-95858273D01*
X140896686Y-96112510D01*
X140843000Y-96382408D01*
X140843000Y-96657592D01*
X140896686Y-96927490D01*
X141001995Y-97181727D01*
X141154880Y-97410535D01*
X141349465Y-97605120D01*
X141578273Y-97758005D01*
X141655515Y-97790000D01*
X141578273Y-97821995D01*
X141349465Y-97974880D01*
X141154880Y-98169465D01*
X141001995Y-98398273D01*
X140896686Y-98652510D01*
X140843000Y-98922408D01*
X140843000Y-99197592D01*
X140896686Y-99467490D01*
X141001995Y-99721727D01*
X141154880Y-99950535D01*
X141349465Y-100145120D01*
X141578273Y-100298005D01*
X141655515Y-100330000D01*
X141578273Y-100361995D01*
X141349465Y-100514880D01*
X141154880Y-100709465D01*
X141001995Y-100938273D01*
X140896686Y-101192510D01*
X140843000Y-101462408D01*
X140843000Y-101737592D01*
X140896686Y-102007490D01*
X141001995Y-102261727D01*
X141154880Y-102490535D01*
X141349465Y-102685120D01*
X141578273Y-102838005D01*
X141655515Y-102870000D01*
X141578273Y-102901995D01*
X141349465Y-103054880D01*
X141154880Y-103249465D01*
X141001995Y-103478273D01*
X140896686Y-103732510D01*
X140843000Y-104002408D01*
X140843000Y-104277592D01*
X140896686Y-104547490D01*
X141001995Y-104801727D01*
X141154880Y-105030535D01*
X141349465Y-105225120D01*
X141578273Y-105378005D01*
X141655515Y-105410000D01*
X141578273Y-105441995D01*
X141349465Y-105594880D01*
X141154880Y-105789465D01*
X141001995Y-106018273D01*
X140896686Y-106272510D01*
X140843000Y-106542408D01*
X140843000Y-106817592D01*
X140896686Y-107087490D01*
X141001995Y-107341727D01*
X141154880Y-107570535D01*
X141349465Y-107765120D01*
X141578273Y-107918005D01*
X141655515Y-107950000D01*
X141578273Y-107981995D01*
X141349465Y-108134880D01*
X141154880Y-108329465D01*
X141001995Y-108558273D01*
X140896686Y-108812510D01*
X140843000Y-109082408D01*
X140843000Y-109357592D01*
X140896686Y-109627490D01*
X141001995Y-109881727D01*
X141154880Y-110110535D01*
X141349465Y-110305120D01*
X141578273Y-110458005D01*
X141655515Y-110490000D01*
X141578273Y-110521995D01*
X141349465Y-110674880D01*
X141154880Y-110869465D01*
X141001995Y-111098273D01*
X140896686Y-111352510D01*
X140843000Y-111622408D01*
X140843000Y-111897592D01*
X140896686Y-112167490D01*
X141001995Y-112421727D01*
X141154880Y-112650535D01*
X141349465Y-112845120D01*
X141578273Y-112998005D01*
X141655515Y-113030000D01*
X141578273Y-113061995D01*
X141349465Y-113214880D01*
X141154880Y-113409465D01*
X141001995Y-113638273D01*
X140896686Y-113892510D01*
X140843000Y-114162408D01*
X140843000Y-114437592D01*
X140896686Y-114707490D01*
X141001995Y-114961727D01*
X141154880Y-115190535D01*
X141349465Y-115385120D01*
X141578273Y-115538005D01*
X141832510Y-115643314D01*
X142102408Y-115697000D01*
X142377592Y-115697000D01*
X142647490Y-115643314D01*
X142901727Y-115538005D01*
X143130535Y-115385120D01*
X143325120Y-115190535D01*
X143478005Y-114961727D01*
X143583314Y-114707490D01*
X143637000Y-114437592D01*
X143637000Y-114162408D01*
X143583314Y-113892510D01*
X143478005Y-113638273D01*
X143325120Y-113409465D01*
X143130535Y-113214880D01*
X142901727Y-113061995D01*
X142824485Y-113030000D01*
X142901727Y-112998005D01*
X143130535Y-112845120D01*
X143325120Y-112650535D01*
X143478005Y-112421727D01*
X143583314Y-112167490D01*
X143637000Y-111897592D01*
X143637000Y-111622408D01*
X143583314Y-111352510D01*
X143478005Y-111098273D01*
X143325120Y-110869465D01*
X143130535Y-110674880D01*
X142901727Y-110521995D01*
X142824485Y-110490000D01*
X142901727Y-110458005D01*
X143130535Y-110305120D01*
X143325120Y-110110535D01*
X143478005Y-109881727D01*
X143577310Y-109641984D01*
X146365000Y-109641984D01*
X146365000Y-110358016D01*
X146504691Y-111060290D01*
X146778705Y-111721818D01*
X147176511Y-112317177D01*
X147682823Y-112823489D01*
X148278182Y-113221295D01*
X148939710Y-113495309D01*
X149641984Y-113635000D01*
X150358016Y-113635000D01*
X151060290Y-113495309D01*
X151721818Y-113221295D01*
X152317177Y-112823489D01*
X152823489Y-112317177D01*
X153221295Y-111721818D01*
X153495309Y-111060290D01*
X153635000Y-110358016D01*
X153635000Y-109641984D01*
X153495309Y-108939710D01*
X153221295Y-108278182D01*
X152823489Y-107682823D01*
X152317177Y-107176511D01*
X151721818Y-106778705D01*
X151060290Y-106504691D01*
X150358016Y-106365000D01*
X149641984Y-106365000D01*
X148939710Y-106504691D01*
X148278182Y-106778705D01*
X147682823Y-107176511D01*
X147176511Y-107682823D01*
X146778705Y-108278182D01*
X146504691Y-108939710D01*
X146365000Y-109641984D01*
X143577310Y-109641984D01*
X143583314Y-109627490D01*
X143637000Y-109357592D01*
X143637000Y-109082408D01*
X143583314Y-108812510D01*
X143478005Y-108558273D01*
X143325120Y-108329465D01*
X143130535Y-108134880D01*
X142901727Y-107981995D01*
X142824485Y-107950000D01*
X142901727Y-107918005D01*
X143130535Y-107765120D01*
X143325120Y-107570535D01*
X143478005Y-107341727D01*
X143583314Y-107087490D01*
X143637000Y-106817592D01*
X143637000Y-106542408D01*
X143583314Y-106272510D01*
X143478005Y-106018273D01*
X143325120Y-105789465D01*
X143130535Y-105594880D01*
X142901727Y-105441995D01*
X142824485Y-105410000D01*
X142901727Y-105378005D01*
X143130535Y-105225120D01*
X143325120Y-105030535D01*
X143478005Y-104801727D01*
X143583314Y-104547490D01*
X143637000Y-104277592D01*
X143637000Y-104002408D01*
X143583314Y-103732510D01*
X143478005Y-103478273D01*
X143325120Y-103249465D01*
X143130535Y-103054880D01*
X142901727Y-102901995D01*
X142824485Y-102870000D01*
X142901727Y-102838005D01*
X143130535Y-102685120D01*
X143325120Y-102490535D01*
X143478005Y-102261727D01*
X143583314Y-102007490D01*
X143637000Y-101737592D01*
X143637000Y-101462408D01*
X143583314Y-101192510D01*
X143478005Y-100938273D01*
X143325120Y-100709465D01*
X143130535Y-100514880D01*
X142901727Y-100361995D01*
X142824485Y-100330000D01*
X142901727Y-100298005D01*
X143130535Y-100145120D01*
X143325120Y-99950535D01*
X143478005Y-99721727D01*
X143583314Y-99467490D01*
X143637000Y-99197592D01*
X143637000Y-98922408D01*
X143583314Y-98652510D01*
X143478005Y-98398273D01*
X143325120Y-98169465D01*
X143130535Y-97974880D01*
X142901727Y-97821995D01*
X142824485Y-97790000D01*
X142901727Y-97758005D01*
X143130535Y-97605120D01*
X143325120Y-97410535D01*
X143478005Y-97181727D01*
X143549658Y-97008740D01*
X160550000Y-97008740D01*
X160550000Y-97301260D01*
X160607068Y-97588158D01*
X160719010Y-97858411D01*
X160881525Y-98101632D01*
X161088368Y-98308475D01*
X161262760Y-98425000D01*
X161088368Y-98541525D01*
X160881525Y-98748368D01*
X160719010Y-98991589D01*
X160607068Y-99261842D01*
X160550000Y-99548740D01*
X160550000Y-99841260D01*
X160607068Y-100128158D01*
X160719010Y-100398411D01*
X160881525Y-100641632D01*
X161088368Y-100848475D01*
X161262760Y-100965000D01*
X161088368Y-101081525D01*
X160881525Y-101288368D01*
X160719010Y-101531589D01*
X160607068Y-101801842D01*
X160550000Y-102088740D01*
X160550000Y-102381260D01*
X160607068Y-102668158D01*
X160719010Y-102938411D01*
X160881525Y-103181632D01*
X161088368Y-103388475D01*
X161262760Y-103505000D01*
X161088368Y-103621525D01*
X160881525Y-103828368D01*
X160719010Y-104071589D01*
X160607068Y-104341842D01*
X160550000Y-104628740D01*
X160550000Y-104921260D01*
X160607068Y-105208158D01*
X160719010Y-105478411D01*
X160881525Y-105721632D01*
X161088368Y-105928475D01*
X161262760Y-106045000D01*
X161088368Y-106161525D01*
X160881525Y-106368368D01*
X160719010Y-106611589D01*
X160607068Y-106881842D01*
X160550000Y-107168740D01*
X160550000Y-107461260D01*
X160607068Y-107748158D01*
X160719010Y-108018411D01*
X160881525Y-108261632D01*
X161088368Y-108468475D01*
X161262760Y-108585000D01*
X161088368Y-108701525D01*
X160881525Y-108908368D01*
X160719010Y-109151589D01*
X160607068Y-109421842D01*
X160550000Y-109708740D01*
X160550000Y-110001260D01*
X160607068Y-110288158D01*
X160719010Y-110558411D01*
X160881525Y-110801632D01*
X161088368Y-111008475D01*
X161262760Y-111125000D01*
X161088368Y-111241525D01*
X160881525Y-111448368D01*
X160719010Y-111691589D01*
X160607068Y-111961842D01*
X160550000Y-112248740D01*
X160550000Y-112541260D01*
X160607068Y-112828158D01*
X160719010Y-113098411D01*
X160881525Y-113341632D01*
X161088368Y-113548475D01*
X161262760Y-113665000D01*
X161088368Y-113781525D01*
X160881525Y-113988368D01*
X160719010Y-114231589D01*
X160607068Y-114501842D01*
X160550000Y-114788740D01*
X160550000Y-115081260D01*
X160607068Y-115368158D01*
X160719010Y-115638411D01*
X160881525Y-115881632D01*
X161088368Y-116088475D01*
X161331589Y-116250990D01*
X161601842Y-116362932D01*
X161888740Y-116420000D01*
X162181260Y-116420000D01*
X162468158Y-116362932D01*
X162738411Y-116250990D01*
X162981632Y-116088475D01*
X163188475Y-115881632D01*
X163305000Y-115707240D01*
X163421525Y-115881632D01*
X163628368Y-116088475D01*
X163871589Y-116250990D01*
X164141842Y-116362932D01*
X164428740Y-116420000D01*
X164721260Y-116420000D01*
X165008158Y-116362932D01*
X165278411Y-116250990D01*
X165521632Y-116088475D01*
X165653487Y-115956620D01*
X165675498Y-116029180D01*
X165734463Y-116139494D01*
X165813815Y-116236185D01*
X165910506Y-116315537D01*
X166020820Y-116374502D01*
X166140518Y-116410812D01*
X166265000Y-116423072D01*
X166829250Y-116420000D01*
X166988000Y-116261250D01*
X166988000Y-115062000D01*
X167242000Y-115062000D01*
X167242000Y-116261250D01*
X167400750Y-116420000D01*
X167965000Y-116423072D01*
X168089482Y-116410812D01*
X168209180Y-116374502D01*
X168319494Y-116315537D01*
X168416185Y-116236185D01*
X168495537Y-116139494D01*
X168554502Y-116029180D01*
X168590812Y-115909482D01*
X168603072Y-115785000D01*
X168600000Y-115220750D01*
X168441250Y-115062000D01*
X167242000Y-115062000D01*
X166988000Y-115062000D01*
X166968000Y-115062000D01*
X166968000Y-114808000D01*
X166988000Y-114808000D01*
X166988000Y-112522000D01*
X167242000Y-112522000D01*
X167242000Y-114808000D01*
X168441250Y-114808000D01*
X168600000Y-114649250D01*
X168603072Y-114085000D01*
X168590812Y-113960518D01*
X168554502Y-113840820D01*
X168495537Y-113730506D01*
X168441778Y-113665000D01*
X168495537Y-113599494D01*
X168554502Y-113489180D01*
X168590812Y-113369482D01*
X168603072Y-113245000D01*
X168600000Y-112680750D01*
X168441250Y-112522000D01*
X167242000Y-112522000D01*
X166988000Y-112522000D01*
X166968000Y-112522000D01*
X166968000Y-112268000D01*
X166988000Y-112268000D01*
X166988000Y-109982000D01*
X167242000Y-109982000D01*
X167242000Y-112268000D01*
X168441250Y-112268000D01*
X168600000Y-112109250D01*
X168603072Y-111545000D01*
X168590812Y-111420518D01*
X168554502Y-111300820D01*
X168495537Y-111190506D01*
X168441778Y-111125000D01*
X168495537Y-111059494D01*
X168554502Y-110949180D01*
X168590812Y-110829482D01*
X168603072Y-110705000D01*
X168600000Y-110140750D01*
X168441250Y-109982000D01*
X167242000Y-109982000D01*
X166988000Y-109982000D01*
X166968000Y-109982000D01*
X166968000Y-109728000D01*
X166988000Y-109728000D01*
X166988000Y-107442000D01*
X167242000Y-107442000D01*
X167242000Y-109728000D01*
X168441250Y-109728000D01*
X168600000Y-109569250D01*
X168603072Y-109005000D01*
X168590812Y-108880518D01*
X168554502Y-108760820D01*
X168495537Y-108650506D01*
X168441778Y-108585000D01*
X168495537Y-108519494D01*
X168554502Y-108409180D01*
X168590812Y-108289482D01*
X168603072Y-108165000D01*
X168600000Y-107600750D01*
X168441250Y-107442000D01*
X167242000Y-107442000D01*
X166988000Y-107442000D01*
X166968000Y-107442000D01*
X166968000Y-107188000D01*
X166988000Y-107188000D01*
X166988000Y-104902000D01*
X167242000Y-104902000D01*
X167242000Y-107188000D01*
X168441250Y-107188000D01*
X168600000Y-107029250D01*
X168603072Y-106465000D01*
X168590812Y-106340518D01*
X168554502Y-106220820D01*
X168495537Y-106110506D01*
X168441778Y-106045000D01*
X168495537Y-105979494D01*
X168554502Y-105869180D01*
X168590812Y-105749482D01*
X168603072Y-105625000D01*
X168600000Y-105060750D01*
X168441250Y-104902000D01*
X167242000Y-104902000D01*
X166988000Y-104902000D01*
X166968000Y-104902000D01*
X166968000Y-104648000D01*
X166988000Y-104648000D01*
X166988000Y-102362000D01*
X167242000Y-102362000D01*
X167242000Y-104648000D01*
X168441250Y-104648000D01*
X168600000Y-104489250D01*
X168603072Y-103925000D01*
X168590812Y-103800518D01*
X168554502Y-103680820D01*
X168495537Y-103570506D01*
X168441778Y-103505000D01*
X168495537Y-103439494D01*
X168554502Y-103329180D01*
X168590812Y-103209482D01*
X168603072Y-103085000D01*
X168600000Y-102520750D01*
X168441250Y-102362000D01*
X167242000Y-102362000D01*
X166988000Y-102362000D01*
X166968000Y-102362000D01*
X166968000Y-102108000D01*
X166988000Y-102108000D01*
X166988000Y-99822000D01*
X167242000Y-99822000D01*
X167242000Y-102108000D01*
X168441250Y-102108000D01*
X168600000Y-101949250D01*
X168603072Y-101385000D01*
X168590812Y-101260518D01*
X168554502Y-101140820D01*
X168495537Y-101030506D01*
X168441778Y-100965000D01*
X168495537Y-100899494D01*
X168554502Y-100789180D01*
X168590812Y-100669482D01*
X168603072Y-100545000D01*
X168600000Y-99980750D01*
X168441250Y-99822000D01*
X167242000Y-99822000D01*
X166988000Y-99822000D01*
X166968000Y-99822000D01*
X166968000Y-99568000D01*
X166988000Y-99568000D01*
X166988000Y-97282000D01*
X167242000Y-97282000D01*
X167242000Y-99568000D01*
X168441250Y-99568000D01*
X168600000Y-99409250D01*
X168603072Y-98845000D01*
X168590812Y-98720518D01*
X168554502Y-98600820D01*
X168495537Y-98490506D01*
X168441778Y-98425000D01*
X168495537Y-98359494D01*
X168554502Y-98249180D01*
X168590812Y-98129482D01*
X168603072Y-98005000D01*
X168600000Y-97440750D01*
X168441250Y-97282000D01*
X167242000Y-97282000D01*
X166988000Y-97282000D01*
X166968000Y-97282000D01*
X166968000Y-97028000D01*
X166988000Y-97028000D01*
X166988000Y-95828750D01*
X167242000Y-95828750D01*
X167242000Y-97028000D01*
X168441250Y-97028000D01*
X168600000Y-96869250D01*
X168603072Y-96305000D01*
X168590812Y-96180518D01*
X168554502Y-96060820D01*
X168495537Y-95950506D01*
X168416185Y-95853815D01*
X168319494Y-95774463D01*
X168209180Y-95715498D01*
X168089482Y-95679188D01*
X167965000Y-95666928D01*
X167400750Y-95670000D01*
X167242000Y-95828750D01*
X166988000Y-95828750D01*
X166829250Y-95670000D01*
X166265000Y-95666928D01*
X166140518Y-95679188D01*
X166020820Y-95715498D01*
X165910506Y-95774463D01*
X165813815Y-95853815D01*
X165734463Y-95950506D01*
X165675498Y-96060820D01*
X165653487Y-96133380D01*
X165521632Y-96001525D01*
X165278411Y-95839010D01*
X165008158Y-95727068D01*
X164721260Y-95670000D01*
X164428740Y-95670000D01*
X164141842Y-95727068D01*
X163871589Y-95839010D01*
X163628368Y-96001525D01*
X163421525Y-96208368D01*
X163305000Y-96382760D01*
X163188475Y-96208368D01*
X162981632Y-96001525D01*
X162738411Y-95839010D01*
X162468158Y-95727068D01*
X162181260Y-95670000D01*
X161888740Y-95670000D01*
X161601842Y-95727068D01*
X161331589Y-95839010D01*
X161088368Y-96001525D01*
X160881525Y-96208368D01*
X160719010Y-96451589D01*
X160607068Y-96721842D01*
X160550000Y-97008740D01*
X143549658Y-97008740D01*
X143583314Y-96927490D01*
X143637000Y-96657592D01*
X143637000Y-96382408D01*
X143623969Y-96316898D01*
X153380868Y-86560000D01*
X156574345Y-86560000D01*
X156394880Y-86739465D01*
X156241995Y-86968273D01*
X156136686Y-87222510D01*
X156083000Y-87492408D01*
X156083000Y-87767592D01*
X156136686Y-88037490D01*
X156241995Y-88291727D01*
X156394880Y-88520535D01*
X156589465Y-88715120D01*
X156818273Y-88868005D01*
X157072510Y-88973314D01*
X157342408Y-89027000D01*
X157617592Y-89027000D01*
X157887490Y-88973314D01*
X158141727Y-88868005D01*
X158370535Y-88715120D01*
X158565120Y-88520535D01*
X158623920Y-88432535D01*
X158632188Y-88516482D01*
X158668498Y-88636180D01*
X158727463Y-88746494D01*
X158806815Y-88843185D01*
X158903506Y-88922537D01*
X159013820Y-88981502D01*
X159133518Y-89017812D01*
X159258000Y-89030072D01*
X159734250Y-89027000D01*
X159893000Y-88868250D01*
X159893000Y-87757000D01*
X159873000Y-87757000D01*
X159873000Y-87503000D01*
X159893000Y-87503000D01*
X159893000Y-87483000D01*
X160147000Y-87483000D01*
X160147000Y-87503000D01*
X160167000Y-87503000D01*
X160167000Y-87757000D01*
X160147000Y-87757000D01*
X160147000Y-88868250D01*
X160305750Y-89027000D01*
X160782000Y-89030072D01*
X160906482Y-89017812D01*
X161026180Y-88981502D01*
X161136494Y-88922537D01*
X161233185Y-88843185D01*
X161312537Y-88746494D01*
X161371502Y-88636180D01*
X161407812Y-88516482D01*
X161416080Y-88432535D01*
X161474880Y-88520535D01*
X161669465Y-88715120D01*
X161898273Y-88868005D01*
X162152510Y-88973314D01*
X162422408Y-89027000D01*
X162697592Y-89027000D01*
X162967490Y-88973314D01*
X163221727Y-88868005D01*
X163450535Y-88715120D01*
X163645120Y-88520535D01*
X163798005Y-88291727D01*
X163830000Y-88214485D01*
X163861995Y-88291727D01*
X164014880Y-88520535D01*
X164209465Y-88715120D01*
X164438273Y-88868005D01*
X164692510Y-88973314D01*
X164962408Y-89027000D01*
X165237592Y-89027000D01*
X165507490Y-88973314D01*
X165761727Y-88868005D01*
X165990535Y-88715120D01*
X166185120Y-88520535D01*
X166338005Y-88291727D01*
X166370000Y-88214485D01*
X166401995Y-88291727D01*
X166554880Y-88520535D01*
X166749465Y-88715120D01*
X166978273Y-88868005D01*
X167232510Y-88973314D01*
X167502408Y-89027000D01*
X167777592Y-89027000D01*
X168047490Y-88973314D01*
X168301727Y-88868005D01*
X168530535Y-88715120D01*
X168725120Y-88520535D01*
X168878005Y-88291727D01*
X168983314Y-88037490D01*
X169037000Y-87767592D01*
X169037000Y-87492408D01*
X168983314Y-87222510D01*
X168878005Y-86968273D01*
X168725120Y-86739465D01*
X168530535Y-86544880D01*
X168301727Y-86391995D01*
X168047490Y-86286686D01*
X167777592Y-86233000D01*
X167502408Y-86233000D01*
X167232510Y-86286686D01*
X166978273Y-86391995D01*
X166749465Y-86544880D01*
X166554880Y-86739465D01*
X166401995Y-86968273D01*
X166370000Y-87045515D01*
X166338005Y-86968273D01*
X166185120Y-86739465D01*
X165990535Y-86544880D01*
X165761727Y-86391995D01*
X165507490Y-86286686D01*
X165237592Y-86233000D01*
X164962408Y-86233000D01*
X164896899Y-86246031D01*
X161909446Y-83258579D01*
X161883291Y-83226709D01*
X161756146Y-83122364D01*
X161611087Y-83044828D01*
X161453689Y-82997082D01*
X161331019Y-82985000D01*
X161331018Y-82985000D01*
X161290000Y-82980960D01*
X161248982Y-82985000D01*
X152441018Y-82985000D01*
X152400000Y-82980960D01*
X152236311Y-82997082D01*
X152078913Y-83044828D01*
X151933854Y-83122364D01*
X151890099Y-83158273D01*
X151806709Y-83226709D01*
X151780563Y-83258568D01*
X143637000Y-91402133D01*
X143637000Y-91302408D01*
X143583314Y-91032510D01*
X143478005Y-90778273D01*
X143325120Y-90549465D01*
X143130535Y-90354880D01*
X142901727Y-90201995D01*
X142824485Y-90170000D01*
X142901727Y-90138005D01*
X143130535Y-89985120D01*
X143325120Y-89790535D01*
X143478005Y-89561727D01*
X143583314Y-89307490D01*
X143637000Y-89037592D01*
X143637000Y-88762408D01*
X143583314Y-88492510D01*
X143478005Y-88238273D01*
X143325120Y-88009465D01*
X143130535Y-87814880D01*
X142901727Y-87661995D01*
X142824485Y-87630000D01*
X142901727Y-87598005D01*
X143130535Y-87445120D01*
X143325120Y-87250535D01*
X143478005Y-87021727D01*
X143583314Y-86767490D01*
X143637000Y-86497592D01*
X143637000Y-86222408D01*
X143583314Y-85952510D01*
X143478005Y-85698273D01*
X143325120Y-85469465D01*
X143130535Y-85274880D01*
X142901727Y-85121995D01*
X142824485Y-85090000D01*
X142901727Y-85058005D01*
X143130535Y-84905120D01*
X143325120Y-84710535D01*
X143478005Y-84481727D01*
X143583314Y-84227490D01*
X143637000Y-83957592D01*
X143637000Y-83682408D01*
X143583314Y-83412510D01*
X143478005Y-83158273D01*
X143325120Y-82929465D01*
X143130535Y-82734880D01*
X142901727Y-82581995D01*
X142824485Y-82550000D01*
X142901727Y-82518005D01*
X143130535Y-82365120D01*
X143325120Y-82170535D01*
X143478005Y-81941727D01*
X143583314Y-81687490D01*
X143637000Y-81417592D01*
X143637000Y-81142408D01*
X143583314Y-80872510D01*
X143478005Y-80618273D01*
X143325120Y-80389465D01*
X143130535Y-80194880D01*
X142901727Y-80041995D01*
X142824485Y-80010000D01*
X142901727Y-79978005D01*
X143130535Y-79825120D01*
X143325120Y-79630535D01*
X143478005Y-79401727D01*
X143583314Y-79147490D01*
X143637000Y-78877592D01*
X143637000Y-78602408D01*
X143583314Y-78332510D01*
X143478005Y-78078273D01*
X143325120Y-77849465D01*
X143130535Y-77654880D01*
X142901727Y-77501995D01*
X142824485Y-77470000D01*
X142901727Y-77438005D01*
X143130535Y-77285120D01*
X143325120Y-77090535D01*
X143478005Y-76861727D01*
X143583314Y-76607490D01*
X143637000Y-76337592D01*
X143637000Y-76062408D01*
X143583314Y-75792510D01*
X143478005Y-75538273D01*
X143325120Y-75309465D01*
X143130535Y-75114880D01*
X142901727Y-74961995D01*
X142824485Y-74930000D01*
X142901727Y-74898005D01*
X143130535Y-74745120D01*
X143325120Y-74550535D01*
X143478005Y-74321727D01*
X143583314Y-74067490D01*
X143637000Y-73797592D01*
X143637000Y-73522408D01*
X143583314Y-73252510D01*
X143478005Y-72998273D01*
X143325120Y-72769465D01*
X143130535Y-72574880D01*
X142901727Y-72421995D01*
X142824485Y-72390000D01*
X142901727Y-72358005D01*
X143130535Y-72205120D01*
X143325120Y-72010535D01*
X143478005Y-71781727D01*
X143583314Y-71527490D01*
X143637000Y-71257592D01*
X143637000Y-70982408D01*
X143583314Y-70712510D01*
X143478005Y-70458273D01*
X143325120Y-70229465D01*
X143130535Y-70034880D01*
X143042535Y-69976080D01*
X143126482Y-69967812D01*
X143246180Y-69931502D01*
X143356494Y-69872537D01*
X143453185Y-69793185D01*
X143532537Y-69696494D01*
X143561673Y-69641984D01*
X146365000Y-69641984D01*
X146365000Y-70358016D01*
X146504691Y-71060290D01*
X146778705Y-71721818D01*
X147176511Y-72317177D01*
X147682823Y-72823489D01*
X148278182Y-73221295D01*
X148939710Y-73495309D01*
X149641984Y-73635000D01*
X150358016Y-73635000D01*
X151060290Y-73495309D01*
X151721818Y-73221295D01*
X152317177Y-72823489D01*
X152823489Y-72317177D01*
X153221295Y-71721818D01*
X153495309Y-71060290D01*
X153635000Y-70358016D01*
X153635000Y-69641984D01*
X153495309Y-68939710D01*
X153221295Y-68278182D01*
X152823489Y-67682823D01*
X152317177Y-67176511D01*
X151721818Y-66778705D01*
X151060290Y-66504691D01*
X150358016Y-66365000D01*
X149641984Y-66365000D01*
X148939710Y-66504691D01*
X148278182Y-66778705D01*
X147682823Y-67176511D01*
X147176511Y-67682823D01*
X146778705Y-68278182D01*
X146504691Y-68939710D01*
X146365000Y-69641984D01*
X143561673Y-69641984D01*
X143591502Y-69586180D01*
X143627812Y-69466482D01*
X143640072Y-69342000D01*
X143637000Y-68865750D01*
X143478250Y-68707000D01*
X142367000Y-68707000D01*
X142367000Y-68727000D01*
X142113000Y-68727000D01*
X142113000Y-68707000D01*
X141001750Y-68707000D01*
X140843000Y-68865750D01*
X140839928Y-69342000D01*
X128171004Y-69342000D01*
X128238005Y-69241727D01*
X128343314Y-68987490D01*
X128397000Y-68717592D01*
X128397000Y-68442408D01*
X128343314Y-68172510D01*
X128238005Y-67918273D01*
X128171005Y-67818000D01*
X140839928Y-67818000D01*
X140843000Y-68294250D01*
X141001750Y-68453000D01*
X142113000Y-68453000D01*
X142113000Y-68433000D01*
X142367000Y-68433000D01*
X142367000Y-68453000D01*
X143478250Y-68453000D01*
X143637000Y-68294250D01*
X143640072Y-67818000D01*
X143627812Y-67693518D01*
X143591502Y-67573820D01*
X143532537Y-67463506D01*
X143453185Y-67366815D01*
X143356494Y-67287463D01*
X143246180Y-67228498D01*
X143126482Y-67192188D01*
X143042535Y-67183920D01*
X143130535Y-67125120D01*
X143325120Y-66930535D01*
X143478005Y-66701727D01*
X143583314Y-66447490D01*
X143637000Y-66177592D01*
X143637000Y-65902408D01*
X143583314Y-65632510D01*
X143478005Y-65378273D01*
X143325120Y-65149465D01*
X143130535Y-64954880D01*
X142901727Y-64801995D01*
X142647490Y-64696686D01*
X142377592Y-64643000D01*
X142102408Y-64643000D01*
X141832510Y-64696686D01*
X141578273Y-64801995D01*
X141349465Y-64954880D01*
X141154880Y-65149465D01*
X141001995Y-65378273D01*
X140896686Y-65632510D01*
X140843000Y-65902408D01*
X140843000Y-66177592D01*
X140896686Y-66447490D01*
X141001995Y-66701727D01*
X141154880Y-66930535D01*
X141349465Y-67125120D01*
X141437465Y-67183920D01*
X141353518Y-67192188D01*
X141233820Y-67228498D01*
X141123506Y-67287463D01*
X141026815Y-67366815D01*
X140947463Y-67463506D01*
X140888498Y-67573820D01*
X140852188Y-67693518D01*
X140839928Y-67818000D01*
X128171005Y-67818000D01*
X128085120Y-67689465D01*
X127890535Y-67494880D01*
X127661727Y-67341995D01*
X127584485Y-67310000D01*
X127661727Y-67278005D01*
X127890535Y-67125120D01*
X128085120Y-66930535D01*
X128238005Y-66701727D01*
X128343314Y-66447490D01*
X128397000Y-66177592D01*
X128397000Y-65902408D01*
X128343314Y-65632510D01*
X128238005Y-65378273D01*
X128085120Y-65149465D01*
X127890535Y-64954880D01*
X127661727Y-64801995D01*
X127407490Y-64696686D01*
X127137592Y-64643000D01*
X126862408Y-64643000D01*
X126592510Y-64696686D01*
X126338273Y-64801995D01*
X126109465Y-64954880D01*
X125914880Y-65149465D01*
X125761995Y-65378273D01*
X125656686Y-65632510D01*
X125603000Y-65902408D01*
X125603000Y-66177592D01*
X125656686Y-66447490D01*
X125761995Y-66701727D01*
X125914880Y-66930535D01*
X126109465Y-67125120D01*
X126338273Y-67278005D01*
X126415515Y-67310000D01*
X126338273Y-67341995D01*
X126109465Y-67494880D01*
X125914880Y-67689465D01*
X125761995Y-67918273D01*
X125656686Y-68172510D01*
X125603000Y-68442408D01*
X125603000Y-68717592D01*
X125656686Y-68987490D01*
X125761995Y-69241727D01*
X125914880Y-69470535D01*
X126109465Y-69665120D01*
X126338273Y-69818005D01*
X126415515Y-69850000D01*
X126338273Y-69881995D01*
X126109465Y-70034880D01*
X125914880Y-70229465D01*
X125761995Y-70458273D01*
X125656686Y-70712510D01*
X125603000Y-70982408D01*
X125603000Y-71257592D01*
X125656686Y-71527490D01*
X125761995Y-71781727D01*
X125914880Y-72010535D01*
X126109465Y-72205120D01*
X126338273Y-72358005D01*
X126415515Y-72390000D01*
X126338273Y-72421995D01*
X126109465Y-72574880D01*
X125914880Y-72769465D01*
X125761995Y-72998273D01*
X125656686Y-73252510D01*
X125603000Y-73522408D01*
X125603000Y-73797592D01*
X125656686Y-74067490D01*
X125761995Y-74321727D01*
X125914880Y-74550535D01*
X126109465Y-74745120D01*
X126338273Y-74898005D01*
X126415515Y-74930000D01*
X126338273Y-74961995D01*
X126109465Y-75114880D01*
X125914880Y-75309465D01*
X125761995Y-75538273D01*
X125656686Y-75792510D01*
X125603000Y-76062408D01*
X125603000Y-76337592D01*
X125656686Y-76607490D01*
X125761995Y-76861727D01*
X125914880Y-77090535D01*
X126109465Y-77285120D01*
X126338273Y-77438005D01*
X126415515Y-77470000D01*
X126338273Y-77501995D01*
X126109465Y-77654880D01*
X125914880Y-77849465D01*
X125761995Y-78078273D01*
X125656686Y-78332510D01*
X125603000Y-78602408D01*
X125603000Y-78877592D01*
X125656686Y-79147490D01*
X125761995Y-79401727D01*
X125914880Y-79630535D01*
X126109465Y-79825120D01*
X126338273Y-79978005D01*
X126415515Y-80010000D01*
X126338273Y-80041995D01*
X126109465Y-80194880D01*
X125914880Y-80389465D01*
X125761995Y-80618273D01*
X125656686Y-80872510D01*
X125603000Y-81142408D01*
X125603000Y-81417592D01*
X125656686Y-81687490D01*
X125761995Y-81941727D01*
X125914880Y-82170535D01*
X126109465Y-82365120D01*
X126338273Y-82518005D01*
X126415515Y-82550000D01*
X126338273Y-82581995D01*
X126109465Y-82734880D01*
X125914880Y-82929465D01*
X125761995Y-83158273D01*
X125656686Y-83412510D01*
X125603000Y-83682408D01*
X125603000Y-83957592D01*
X125656686Y-84227490D01*
X125761995Y-84481727D01*
X125914880Y-84710535D01*
X126109465Y-84905120D01*
X126338273Y-85058005D01*
X126415515Y-85090000D01*
X126338273Y-85121995D01*
X126109465Y-85274880D01*
X125914880Y-85469465D01*
X125761995Y-85698273D01*
X125656686Y-85952510D01*
X125603000Y-86222408D01*
X125603000Y-86497592D01*
X125656686Y-86767490D01*
X125761995Y-87021727D01*
X125914880Y-87250535D01*
X126109465Y-87445120D01*
X126338273Y-87598005D01*
X126415515Y-87630000D01*
X126338273Y-87661995D01*
X126109465Y-87814880D01*
X125914880Y-88009465D01*
X125761995Y-88238273D01*
X125656686Y-88492510D01*
X125603000Y-88762408D01*
X125603000Y-89037592D01*
X125656686Y-89307490D01*
X125761995Y-89561727D01*
X125914880Y-89790535D01*
X126109465Y-89985120D01*
X126338273Y-90138005D01*
X126415515Y-90170000D01*
X126338273Y-90201995D01*
X126109465Y-90354880D01*
X125914880Y-90549465D01*
X125761995Y-90778273D01*
X125656686Y-91032510D01*
X125603000Y-91302408D01*
X125603000Y-91577592D01*
X125656686Y-91847490D01*
X125761995Y-92101727D01*
X125914880Y-92330535D01*
X126109465Y-92525120D01*
X126338273Y-92678005D01*
X126415515Y-92710000D01*
X126338273Y-92741995D01*
X126109465Y-92894880D01*
X125914880Y-93089465D01*
X125761995Y-93318273D01*
X125656686Y-93572510D01*
X125603000Y-93842408D01*
X125603000Y-94117592D01*
X125656686Y-94387490D01*
X125761995Y-94641727D01*
X125914880Y-94870535D01*
X126109465Y-95065120D01*
X126338273Y-95218005D01*
X126415515Y-95250000D01*
X126338273Y-95281995D01*
X126109465Y-95434880D01*
X125914880Y-95629465D01*
X125761995Y-95858273D01*
X125656686Y-96112510D01*
X125603000Y-96382408D01*
X125603000Y-96657592D01*
X125656686Y-96927490D01*
X125761995Y-97181727D01*
X125914880Y-97410535D01*
X126109465Y-97605120D01*
X126338273Y-97758005D01*
X126415515Y-97790000D01*
X126338273Y-97821995D01*
X126109465Y-97974880D01*
X125914880Y-98169465D01*
X125761995Y-98398273D01*
X125656686Y-98652510D01*
X125603000Y-98922408D01*
X125603000Y-99197592D01*
X125656686Y-99467490D01*
X125761995Y-99721727D01*
X125914880Y-99950535D01*
X126109465Y-100145120D01*
X126338273Y-100298005D01*
X126415515Y-100330000D01*
X126338273Y-100361995D01*
X126109465Y-100514880D01*
X125914880Y-100709465D01*
X125761995Y-100938273D01*
X125656686Y-101192510D01*
X125603000Y-101462408D01*
X125603000Y-101737592D01*
X125656686Y-102007490D01*
X125761995Y-102261727D01*
X125914880Y-102490535D01*
X126109465Y-102685120D01*
X126338273Y-102838005D01*
X126415515Y-102870000D01*
X126338273Y-102901995D01*
X126109465Y-103054880D01*
X125914880Y-103249465D01*
X125761995Y-103478273D01*
X125656686Y-103732510D01*
X125603000Y-104002408D01*
X125603000Y-104277592D01*
X125656686Y-104547490D01*
X125761995Y-104801727D01*
X125914880Y-105030535D01*
X126109465Y-105225120D01*
X126338273Y-105378005D01*
X126415515Y-105410000D01*
X126338273Y-105441995D01*
X126109465Y-105594880D01*
X125914880Y-105789465D01*
X125761995Y-106018273D01*
X125656686Y-106272510D01*
X125603000Y-106542408D01*
X125603000Y-106817592D01*
X125656686Y-107087490D01*
X125761995Y-107341727D01*
X125914880Y-107570535D01*
X126109465Y-107765120D01*
X126338273Y-107918005D01*
X126415515Y-107950000D01*
X126338273Y-107981995D01*
X126109465Y-108134880D01*
X125914880Y-108329465D01*
X125761995Y-108558273D01*
X125656686Y-108812510D01*
X125603000Y-109082408D01*
X125603000Y-109357592D01*
X125656686Y-109627490D01*
X125761995Y-109881727D01*
X125914880Y-110110535D01*
X126109465Y-110305120D01*
X126197465Y-110363920D01*
X126113518Y-110372188D01*
X125993820Y-110408498D01*
X125883506Y-110467463D01*
X125786815Y-110546815D01*
X125707463Y-110643506D01*
X125648498Y-110753820D01*
X125612188Y-110873518D01*
X125599928Y-110998000D01*
X123507699Y-110998000D01*
X123635000Y-110358016D01*
X123635000Y-109641984D01*
X123495309Y-108939710D01*
X123221295Y-108278182D01*
X122823489Y-107682823D01*
X122317177Y-107176511D01*
X121721818Y-106778705D01*
X121060290Y-106504691D01*
X120358016Y-106365000D01*
X119641984Y-106365000D01*
X118939710Y-106504691D01*
X118278182Y-106778705D01*
X117682823Y-107176511D01*
X117176511Y-107682823D01*
X116778705Y-108278182D01*
X116504691Y-108939710D01*
X116365000Y-109641984D01*
X110695000Y-109641984D01*
X110695000Y-99910000D01*
X111541928Y-99910000D01*
X111554188Y-100034482D01*
X111590498Y-100154180D01*
X111649463Y-100264494D01*
X111728815Y-100361185D01*
X111825506Y-100440537D01*
X111935820Y-100499502D01*
X112055518Y-100535812D01*
X112180000Y-100548072D01*
X112744250Y-100545000D01*
X112903000Y-100386250D01*
X112903000Y-99187000D01*
X111703750Y-99187000D01*
X111545000Y-99345750D01*
X111541928Y-99910000D01*
X110695000Y-99910000D01*
X110695000Y-97370000D01*
X111541928Y-97370000D01*
X111554188Y-97494482D01*
X111590498Y-97614180D01*
X111649463Y-97724494D01*
X111703222Y-97790000D01*
X111649463Y-97855506D01*
X111590498Y-97965820D01*
X111554188Y-98085518D01*
X111541928Y-98210000D01*
X111545000Y-98774250D01*
X111703750Y-98933000D01*
X112903000Y-98933000D01*
X112903000Y-96647000D01*
X111703750Y-96647000D01*
X111545000Y-96805750D01*
X111541928Y-97370000D01*
X110695000Y-97370000D01*
X110695000Y-94830000D01*
X111541928Y-94830000D01*
X111554188Y-94954482D01*
X111590498Y-95074180D01*
X111649463Y-95184494D01*
X111703222Y-95250000D01*
X111649463Y-95315506D01*
X111590498Y-95425820D01*
X111554188Y-95545518D01*
X111541928Y-95670000D01*
X111545000Y-96234250D01*
X111703750Y-96393000D01*
X112903000Y-96393000D01*
X112903000Y-94107000D01*
X111703750Y-94107000D01*
X111545000Y-94265750D01*
X111541928Y-94830000D01*
X110695000Y-94830000D01*
X110695000Y-92290000D01*
X111541928Y-92290000D01*
X111554188Y-92414482D01*
X111590498Y-92534180D01*
X111649463Y-92644494D01*
X111703222Y-92710000D01*
X111649463Y-92775506D01*
X111590498Y-92885820D01*
X111554188Y-93005518D01*
X111541928Y-93130000D01*
X111545000Y-93694250D01*
X111703750Y-93853000D01*
X112903000Y-93853000D01*
X112903000Y-91567000D01*
X111703750Y-91567000D01*
X111545000Y-91725750D01*
X111541928Y-92290000D01*
X110695000Y-92290000D01*
X110695000Y-89750000D01*
X111541928Y-89750000D01*
X111554188Y-89874482D01*
X111590498Y-89994180D01*
X111649463Y-90104494D01*
X111703222Y-90170000D01*
X111649463Y-90235506D01*
X111590498Y-90345820D01*
X111554188Y-90465518D01*
X111541928Y-90590000D01*
X111545000Y-91154250D01*
X111703750Y-91313000D01*
X112903000Y-91313000D01*
X112903000Y-89027000D01*
X111703750Y-89027000D01*
X111545000Y-89185750D01*
X111541928Y-89750000D01*
X110695000Y-89750000D01*
X110695000Y-87210000D01*
X111541928Y-87210000D01*
X111554188Y-87334482D01*
X111590498Y-87454180D01*
X111649463Y-87564494D01*
X111703222Y-87630000D01*
X111649463Y-87695506D01*
X111590498Y-87805820D01*
X111554188Y-87925518D01*
X111541928Y-88050000D01*
X111545000Y-88614250D01*
X111703750Y-88773000D01*
X112903000Y-88773000D01*
X112903000Y-86487000D01*
X111703750Y-86487000D01*
X111545000Y-86645750D01*
X111541928Y-87210000D01*
X110695000Y-87210000D01*
X110695000Y-84670000D01*
X111541928Y-84670000D01*
X111554188Y-84794482D01*
X111590498Y-84914180D01*
X111649463Y-85024494D01*
X111703222Y-85090000D01*
X111649463Y-85155506D01*
X111590498Y-85265820D01*
X111554188Y-85385518D01*
X111541928Y-85510000D01*
X111545000Y-86074250D01*
X111703750Y-86233000D01*
X112903000Y-86233000D01*
X112903000Y-83947000D01*
X111703750Y-83947000D01*
X111545000Y-84105750D01*
X111541928Y-84670000D01*
X110695000Y-84670000D01*
X110695000Y-82130000D01*
X111541928Y-82130000D01*
X111554188Y-82254482D01*
X111590498Y-82374180D01*
X111649463Y-82484494D01*
X111703222Y-82550000D01*
X111649463Y-82615506D01*
X111590498Y-82725820D01*
X111554188Y-82845518D01*
X111541928Y-82970000D01*
X111545000Y-83534250D01*
X111703750Y-83693000D01*
X112903000Y-83693000D01*
X112903000Y-81407000D01*
X111703750Y-81407000D01*
X111545000Y-81565750D01*
X111541928Y-82130000D01*
X110695000Y-82130000D01*
X110695000Y-80430000D01*
X111541928Y-80430000D01*
X111545000Y-80994250D01*
X111703750Y-81153000D01*
X112903000Y-81153000D01*
X112903000Y-79953750D01*
X113157000Y-79953750D01*
X113157000Y-81153000D01*
X113177000Y-81153000D01*
X113177000Y-81407000D01*
X113157000Y-81407000D01*
X113157000Y-83693000D01*
X113177000Y-83693000D01*
X113177000Y-83947000D01*
X113157000Y-83947000D01*
X113157000Y-86233000D01*
X113177000Y-86233000D01*
X113177000Y-86487000D01*
X113157000Y-86487000D01*
X113157000Y-88773000D01*
X113177000Y-88773000D01*
X113177000Y-89027000D01*
X113157000Y-89027000D01*
X113157000Y-91313000D01*
X113177000Y-91313000D01*
X113177000Y-91567000D01*
X113157000Y-91567000D01*
X113157000Y-93853000D01*
X113177000Y-93853000D01*
X113177000Y-94107000D01*
X113157000Y-94107000D01*
X113157000Y-96393000D01*
X113177000Y-96393000D01*
X113177000Y-96647000D01*
X113157000Y-96647000D01*
X113157000Y-98933000D01*
X113177000Y-98933000D01*
X113177000Y-99187000D01*
X113157000Y-99187000D01*
X113157000Y-100386250D01*
X113315750Y-100545000D01*
X113880000Y-100548072D01*
X114004482Y-100535812D01*
X114124180Y-100499502D01*
X114234494Y-100440537D01*
X114331185Y-100361185D01*
X114410537Y-100264494D01*
X114469502Y-100154180D01*
X114491513Y-100081620D01*
X114623368Y-100213475D01*
X114866589Y-100375990D01*
X115136842Y-100487932D01*
X115423740Y-100545000D01*
X115716260Y-100545000D01*
X116003158Y-100487932D01*
X116273411Y-100375990D01*
X116516632Y-100213475D01*
X116723475Y-100006632D01*
X116840000Y-99832240D01*
X116956525Y-100006632D01*
X117163368Y-100213475D01*
X117406589Y-100375990D01*
X117676842Y-100487932D01*
X117963740Y-100545000D01*
X118256260Y-100545000D01*
X118543158Y-100487932D01*
X118813411Y-100375990D01*
X119056632Y-100213475D01*
X119263475Y-100006632D01*
X119425990Y-99763411D01*
X119537932Y-99493158D01*
X119595000Y-99206260D01*
X119595000Y-98913740D01*
X119537932Y-98626842D01*
X119425990Y-98356589D01*
X119263475Y-98113368D01*
X119056632Y-97906525D01*
X118882240Y-97790000D01*
X119056632Y-97673475D01*
X119263475Y-97466632D01*
X119425990Y-97223411D01*
X119537932Y-96953158D01*
X119595000Y-96666260D01*
X119595000Y-96373740D01*
X119537932Y-96086842D01*
X119425990Y-95816589D01*
X119263475Y-95573368D01*
X119056632Y-95366525D01*
X118882240Y-95250000D01*
X119056632Y-95133475D01*
X119263475Y-94926632D01*
X119425990Y-94683411D01*
X119537932Y-94413158D01*
X119595000Y-94126260D01*
X119595000Y-93833740D01*
X119537932Y-93546842D01*
X119425990Y-93276589D01*
X119263475Y-93033368D01*
X119056632Y-92826525D01*
X118882240Y-92710000D01*
X119056632Y-92593475D01*
X119263475Y-92386632D01*
X119425990Y-92143411D01*
X119537932Y-91873158D01*
X119595000Y-91586260D01*
X119595000Y-91293740D01*
X119537932Y-91006842D01*
X119425990Y-90736589D01*
X119263475Y-90493368D01*
X119056632Y-90286525D01*
X118882240Y-90170000D01*
X119056632Y-90053475D01*
X119263475Y-89846632D01*
X119425990Y-89603411D01*
X119537932Y-89333158D01*
X119595000Y-89046260D01*
X119595000Y-88753740D01*
X119537932Y-88466842D01*
X119425990Y-88196589D01*
X119263475Y-87953368D01*
X119056632Y-87746525D01*
X118882240Y-87630000D01*
X119056632Y-87513475D01*
X119263475Y-87306632D01*
X119425990Y-87063411D01*
X119537932Y-86793158D01*
X119595000Y-86506260D01*
X119595000Y-86213740D01*
X119537932Y-85926842D01*
X119425990Y-85656589D01*
X119263475Y-85413368D01*
X119056632Y-85206525D01*
X118882240Y-85090000D01*
X119056632Y-84973475D01*
X119263475Y-84766632D01*
X119425990Y-84523411D01*
X119537932Y-84253158D01*
X119595000Y-83966260D01*
X119595000Y-83673740D01*
X119537932Y-83386842D01*
X119425990Y-83116589D01*
X119263475Y-82873368D01*
X119056632Y-82666525D01*
X118882240Y-82550000D01*
X119056632Y-82433475D01*
X119263475Y-82226632D01*
X119425990Y-81983411D01*
X119537932Y-81713158D01*
X119595000Y-81426260D01*
X119595000Y-81133740D01*
X119537932Y-80846842D01*
X119425990Y-80576589D01*
X119263475Y-80333368D01*
X119056632Y-80126525D01*
X118813411Y-79964010D01*
X118543158Y-79852068D01*
X118256260Y-79795000D01*
X117963740Y-79795000D01*
X117676842Y-79852068D01*
X117406589Y-79964010D01*
X117163368Y-80126525D01*
X116956525Y-80333368D01*
X116840000Y-80507760D01*
X116723475Y-80333368D01*
X116516632Y-80126525D01*
X116273411Y-79964010D01*
X116003158Y-79852068D01*
X115716260Y-79795000D01*
X115423740Y-79795000D01*
X115136842Y-79852068D01*
X114866589Y-79964010D01*
X114623368Y-80126525D01*
X114491513Y-80258380D01*
X114469502Y-80185820D01*
X114410537Y-80075506D01*
X114331185Y-79978815D01*
X114234494Y-79899463D01*
X114124180Y-79840498D01*
X114004482Y-79804188D01*
X113880000Y-79791928D01*
X113315750Y-79795000D01*
X113157000Y-79953750D01*
X112903000Y-79953750D01*
X112744250Y-79795000D01*
X112180000Y-79791928D01*
X112055518Y-79804188D01*
X111935820Y-79840498D01*
X111825506Y-79899463D01*
X111728815Y-79978815D01*
X111649463Y-80075506D01*
X111590498Y-80185820D01*
X111554188Y-80305518D01*
X111541928Y-80430000D01*
X110695000Y-80430000D01*
X110695000Y-70021848D01*
X110718898Y-69641984D01*
X116365000Y-69641984D01*
X116365000Y-70358016D01*
X116504691Y-71060290D01*
X116778705Y-71721818D01*
X117176511Y-72317177D01*
X117682823Y-72823489D01*
X118278182Y-73221295D01*
X118939710Y-73495309D01*
X119641984Y-73635000D01*
X120358016Y-73635000D01*
X121060290Y-73495309D01*
X121721818Y-73221295D01*
X122317177Y-72823489D01*
X122823489Y-72317177D01*
X123221295Y-71721818D01*
X123495309Y-71060290D01*
X123635000Y-70358016D01*
X123635000Y-69641984D01*
X123495309Y-68939710D01*
X123221295Y-68278182D01*
X122823489Y-67682823D01*
X122317177Y-67176511D01*
X121721818Y-66778705D01*
X121060290Y-66504691D01*
X120358016Y-66365000D01*
X119641984Y-66365000D01*
X118939710Y-66504691D01*
X118278182Y-66778705D01*
X117682823Y-67176511D01*
X117176511Y-67682823D01*
X116778705Y-68278182D01*
X116504691Y-68939710D01*
X116365000Y-69641984D01*
X110718898Y-69641984D01*
X110769736Y-68833946D01*
X110988665Y-67686278D01*
X111349706Y-66575111D01*
X111847171Y-65517943D01*
X112473209Y-64531465D01*
X113217948Y-63631230D01*
X114069642Y-62831437D01*
X115014870Y-62144688D01*
X116038708Y-61581828D01*
X117125023Y-61151725D01*
X118256672Y-60861167D01*
X119426687Y-60713360D01*
X120010917Y-60695000D01*
X139388893Y-60695000D01*
X139308525Y-60775368D01*
M02*
