M48
; DRILL file {KiCad 5.1.5+dfsg1-2build2} date Mo 01 Nov 2021 16:22:49 CET
; FORMAT={-:-/ absolute / inch / decimal}
; #@! TF.CreationDate,2021-11-01T16:22:49+01:00
; #@! TF.GenerationSoftware,Kicad,Pcbnew,5.1.5+dfsg1-2build2
; #@! TF.FileFunction,Plated,1,2,PTH
FMAT,2
INCH
T1C0.0157
T2C0.0300
T3C0.0394
%
G90
G05
T1
X6.1Y-3.2
T2
X6.2Y-3.45
X6.3Y-3.45
X6.4Y-3.45
X6.5Y-3.45
X6.6Y-3.45
X5.0Y-2.6
X5.0Y-2.7
X5.0Y-2.8
X5.0Y-2.9
X5.0Y-3.0
X5.0Y-3.1
X5.0Y-3.2
X5.0Y-3.3
X5.0Y-3.4
X5.0Y-3.5
X5.0Y-3.6
X5.0Y-3.7
X5.0Y-3.8
X5.0Y-3.9
X5.0Y-4.0
X5.0Y-4.1
X5.0Y-4.2
X5.0Y-4.3
X5.0Y-4.4
X5.0Y-4.5
X5.6Y-2.6
X5.6Y-2.7
X5.6Y-2.8
X5.6Y-2.9
X5.6Y-3.0
X5.6Y-3.1
X5.6Y-3.2
X5.6Y-3.3
X5.6Y-3.4
X5.6Y-3.5
X5.6Y-3.6
X5.6Y-3.7
X5.6Y-3.8
X5.6Y-3.9
X5.6Y-4.0
X5.6Y-4.1
X5.6Y-4.2
X5.6Y-4.3
X5.6Y-4.4
X5.6Y-4.5
T3
X6.3793Y-3.825
X6.4793Y-3.825
X6.5793Y-3.825
X6.3793Y-4.325
X6.4793Y-4.325
X6.5793Y-4.325
X6.3793Y-4.525
X6.4793Y-4.525
X6.5793Y-4.525
X4.45Y-3.3
X4.55Y-3.3
X4.65Y-3.3
X6.3793Y-4.125
X6.4793Y-4.125
X6.5793Y-4.125
X4.45Y-3.6
X4.55Y-3.6
X4.65Y-3.6
X6.3793Y-4.025
X6.4793Y-4.025
X6.5793Y-4.025
X5.8Y-2.43
X5.9Y-2.43
X4.45Y-3.9
X4.55Y-3.9
X4.65Y-3.9
X4.45Y-3.5
X4.55Y-3.5
X4.65Y-3.5
X4.45Y-3.7
X4.55Y-3.7
X4.65Y-3.7
X6.3793Y-3.925
X6.4793Y-3.925
X6.5793Y-3.925
X6.3793Y-4.225
X6.4793Y-4.225
X6.5793Y-4.225
X5.53Y-2.43
X5.63Y-2.43
X4.45Y-3.4
X4.55Y-3.4
X4.65Y-3.4
X4.45Y-3.2
X4.55Y-3.2
X4.65Y-3.2
X4.45Y-3.8
X4.55Y-3.8
X4.65Y-3.8
X6.3793Y-4.425
X6.4793Y-4.425
X6.5793Y-4.425
T0
M30
