G04 #@! TF.GenerationSoftware,KiCad,Pcbnew,5.1.5+dfsg1-2build2*
G04 #@! TF.CreationDate,2021-11-16T19:49:45+01:00*
G04 #@! TF.ProjectId,brainboard,62726169-6e62-46f6-9172-642e6b696361,rev?*
G04 #@! TF.SameCoordinates,Original*
G04 #@! TF.FileFunction,Soldermask,Top*
G04 #@! TF.FilePolarity,Negative*
%FSLAX46Y46*%
G04 Gerber Fmt 4.6, Leading zero omitted, Abs format (unit mm)*
G04 Created by KiCad (PCBNEW 5.1.5+dfsg1-2build2) date 2021-11-16 19:49:45*
%MOMM*%
%LPD*%
G04 APERTURE LIST*
%ADD10C,0.100000*%
%ADD11C,0.200000*%
G04 APERTURE END LIST*
D10*
X120190476Y-61952380D02*
X119857142Y-61476190D01*
X119619047Y-61952380D02*
X119619047Y-60952380D01*
X119999999Y-60952380D01*
X120095238Y-61000000D01*
X120142857Y-61047619D01*
X120190476Y-61142857D01*
X120190476Y-61285714D01*
X120142857Y-61380952D01*
X120095238Y-61428571D01*
X119999999Y-61476190D01*
X119619047Y-61476190D01*
X121047619Y-61952380D02*
X121047619Y-61428571D01*
X120999999Y-61333333D01*
X120904761Y-61285714D01*
X120714285Y-61285714D01*
X120619047Y-61333333D01*
X121047619Y-61904761D02*
X120952380Y-61952380D01*
X120714285Y-61952380D01*
X120619047Y-61904761D01*
X120571428Y-61809523D01*
X120571428Y-61714285D01*
X120619047Y-61619047D01*
X120714285Y-61571428D01*
X120952380Y-61571428D01*
X121047619Y-61523809D01*
X121380952Y-61285714D02*
X121761904Y-61285714D01*
X121523809Y-61952380D02*
X121523809Y-61095238D01*
X121571428Y-61000000D01*
X121666666Y-60952380D01*
X121761904Y-60952380D01*
X122523809Y-61952380D02*
X122523809Y-61428571D01*
X122476190Y-61333333D01*
X122380952Y-61285714D01*
X122190476Y-61285714D01*
X122095238Y-61333333D01*
X122523809Y-61904761D02*
X122428571Y-61952380D01*
X122190476Y-61952380D01*
X122095238Y-61904761D01*
X122047619Y-61809523D01*
X122047619Y-61714285D01*
X122095238Y-61619047D01*
X122190476Y-61571428D01*
X122428571Y-61571428D01*
X122523809Y-61523809D01*
X123380952Y-61904761D02*
X123285714Y-61952380D01*
X123095238Y-61952380D01*
X122999999Y-61904761D01*
X122952380Y-61809523D01*
X122952380Y-61428571D01*
X122999999Y-61333333D01*
X123095238Y-61285714D01*
X123285714Y-61285714D01*
X123380952Y-61333333D01*
X123428571Y-61428571D01*
X123428571Y-61523809D01*
X122952380Y-61619047D01*
X123999999Y-61952380D02*
X123904761Y-61904761D01*
X123857142Y-61809523D01*
X123857142Y-60952380D01*
X125476190Y-61428571D02*
X125619047Y-61476190D01*
X125666666Y-61523809D01*
X125714285Y-61619047D01*
X125714285Y-61761904D01*
X125666666Y-61857142D01*
X125619047Y-61904761D01*
X125523809Y-61952380D01*
X125142857Y-61952380D01*
X125142857Y-60952380D01*
X125476190Y-60952380D01*
X125571428Y-61000000D01*
X125619047Y-61047619D01*
X125666666Y-61142857D01*
X125666666Y-61238095D01*
X125619047Y-61333333D01*
X125571428Y-61380952D01*
X125476190Y-61428571D01*
X125142857Y-61428571D01*
X126571428Y-61952380D02*
X126571428Y-61428571D01*
X126523809Y-61333333D01*
X126428571Y-61285714D01*
X126238095Y-61285714D01*
X126142857Y-61333333D01*
X126571428Y-61904761D02*
X126476190Y-61952380D01*
X126238095Y-61952380D01*
X126142857Y-61904761D01*
X126095238Y-61809523D01*
X126095238Y-61714285D01*
X126142857Y-61619047D01*
X126238095Y-61571428D01*
X126476190Y-61571428D01*
X126571428Y-61523809D01*
X127476190Y-61904761D02*
X127380952Y-61952380D01*
X127190476Y-61952380D01*
X127095238Y-61904761D01*
X127047619Y-61857142D01*
X126999999Y-61761904D01*
X126999999Y-61476190D01*
X127047619Y-61380952D01*
X127095238Y-61333333D01*
X127190476Y-61285714D01*
X127380952Y-61285714D01*
X127476190Y-61333333D01*
X127904761Y-61952380D02*
X127904761Y-60952380D01*
X128333333Y-61952380D02*
X128333333Y-61428571D01*
X128285714Y-61333333D01*
X128190476Y-61285714D01*
X128047619Y-61285714D01*
X127952380Y-61333333D01*
X127904761Y-61380952D01*
X128809523Y-61952380D02*
X128809523Y-61285714D01*
X128809523Y-61380952D02*
X128857142Y-61333333D01*
X128952380Y-61285714D01*
X129095238Y-61285714D01*
X129190476Y-61333333D01*
X129238095Y-61428571D01*
X129238095Y-61952380D01*
X129238095Y-61428571D02*
X129285714Y-61333333D01*
X129380952Y-61285714D01*
X129523809Y-61285714D01*
X129619047Y-61333333D01*
X129666666Y-61428571D01*
X129666666Y-61952380D01*
X130571428Y-61952380D02*
X130571428Y-61428571D01*
X130523809Y-61333333D01*
X130428571Y-61285714D01*
X130238095Y-61285714D01*
X130142857Y-61333333D01*
X130571428Y-61904761D02*
X130476190Y-61952380D01*
X130238095Y-61952380D01*
X130142857Y-61904761D01*
X130095238Y-61809523D01*
X130095238Y-61714285D01*
X130142857Y-61619047D01*
X130238095Y-61571428D01*
X130476190Y-61571428D01*
X130571428Y-61523809D01*
X131047619Y-61285714D02*
X131047619Y-61952380D01*
X131047619Y-61380952D02*
X131095238Y-61333333D01*
X131190476Y-61285714D01*
X131333333Y-61285714D01*
X131428571Y-61333333D01*
X131476190Y-61428571D01*
X131476190Y-61952380D01*
X131952380Y-61285714D02*
X131952380Y-61952380D01*
X131952380Y-61380952D02*
X132000000Y-61333333D01*
X132095238Y-61285714D01*
X132238095Y-61285714D01*
X132333333Y-61333333D01*
X132380952Y-61428571D01*
X132380952Y-61952380D01*
X122357142Y-63552380D02*
X122357142Y-62552380D01*
X122928571Y-63552380D01*
X122928571Y-62552380D01*
X123547619Y-63552380D02*
X123452380Y-63504761D01*
X123404761Y-63457142D01*
X123357142Y-63361904D01*
X123357142Y-63076190D01*
X123404761Y-62980952D01*
X123452380Y-62933333D01*
X123547619Y-62885714D01*
X123690476Y-62885714D01*
X123785714Y-62933333D01*
X123833333Y-62980952D01*
X123880952Y-63076190D01*
X123880952Y-63361904D01*
X123833333Y-63457142D01*
X123785714Y-63504761D01*
X123690476Y-63552380D01*
X123547619Y-63552380D01*
X124214285Y-62885714D02*
X124452380Y-63552380D01*
X124690476Y-62885714D01*
X125071428Y-63457142D02*
X125119047Y-63504761D01*
X125071428Y-63552380D01*
X125023809Y-63504761D01*
X125071428Y-63457142D01*
X125071428Y-63552380D01*
X126261904Y-62647619D02*
X126309523Y-62600000D01*
X126404761Y-62552380D01*
X126642857Y-62552380D01*
X126738095Y-62600000D01*
X126785714Y-62647619D01*
X126833333Y-62742857D01*
X126833333Y-62838095D01*
X126785714Y-62980952D01*
X126214285Y-63552380D01*
X126833333Y-63552380D01*
X127452380Y-62552380D02*
X127547619Y-62552380D01*
X127642857Y-62600000D01*
X127690476Y-62647619D01*
X127738095Y-62742857D01*
X127785714Y-62933333D01*
X127785714Y-63171428D01*
X127738095Y-63361904D01*
X127690476Y-63457142D01*
X127642857Y-63504761D01*
X127547619Y-63552380D01*
X127452380Y-63552380D01*
X127357142Y-63504761D01*
X127309523Y-63457142D01*
X127261904Y-63361904D01*
X127214285Y-63171428D01*
X127214285Y-62933333D01*
X127261904Y-62742857D01*
X127309523Y-62647619D01*
X127357142Y-62600000D01*
X127452380Y-62552380D01*
X128166666Y-62647619D02*
X128214285Y-62600000D01*
X128309523Y-62552380D01*
X128547619Y-62552380D01*
X128642857Y-62600000D01*
X128690476Y-62647619D01*
X128738095Y-62742857D01*
X128738095Y-62838095D01*
X128690476Y-62980952D01*
X128119047Y-63552380D01*
X128738095Y-63552380D01*
X129690476Y-63552380D02*
X129119047Y-63552380D01*
X129404761Y-63552380D02*
X129404761Y-62552380D01*
X129309523Y-62695238D01*
X129214285Y-62790476D01*
X129119047Y-62838095D01*
D11*
X129272285Y-118194857D02*
X129486571Y-118266285D01*
X129558000Y-118337714D01*
X129629428Y-118480571D01*
X129629428Y-118694857D01*
X129558000Y-118837714D01*
X129486571Y-118909142D01*
X129343714Y-118980571D01*
X128772285Y-118980571D01*
X128772285Y-117480571D01*
X129272285Y-117480571D01*
X129415142Y-117552000D01*
X129486571Y-117623428D01*
X129558000Y-117766285D01*
X129558000Y-117909142D01*
X129486571Y-118052000D01*
X129415142Y-118123428D01*
X129272285Y-118194857D01*
X128772285Y-118194857D01*
X130272285Y-118980571D02*
X130272285Y-117980571D01*
X130272285Y-118266285D02*
X130343714Y-118123428D01*
X130415142Y-118052000D01*
X130558000Y-117980571D01*
X130700857Y-117980571D01*
X131200857Y-118980571D02*
X131200857Y-117980571D01*
X131200857Y-117480571D02*
X131129428Y-117552000D01*
X131200857Y-117623428D01*
X131272285Y-117552000D01*
X131200857Y-117480571D01*
X131200857Y-117623428D01*
X132558000Y-118909142D02*
X132415142Y-118980571D01*
X132129428Y-118980571D01*
X131986571Y-118909142D01*
X131915142Y-118837714D01*
X131843714Y-118694857D01*
X131843714Y-118266285D01*
X131915142Y-118123428D01*
X131986571Y-118052000D01*
X132129428Y-117980571D01*
X132415142Y-117980571D01*
X132558000Y-118052000D01*
X133200857Y-118980571D02*
X133200857Y-117480571D01*
X133343714Y-118409142D02*
X133772285Y-118980571D01*
X133772285Y-117980571D02*
X133200857Y-118552000D01*
X134915142Y-118194857D02*
X135129428Y-118266285D01*
X135200857Y-118337714D01*
X135272285Y-118480571D01*
X135272285Y-118694857D01*
X135200857Y-118837714D01*
X135129428Y-118909142D01*
X134986571Y-118980571D01*
X134415142Y-118980571D01*
X134415142Y-117480571D01*
X134915142Y-117480571D01*
X135058000Y-117552000D01*
X135129428Y-117623428D01*
X135200857Y-117766285D01*
X135200857Y-117909142D01*
X135129428Y-118052000D01*
X135058000Y-118123428D01*
X134915142Y-118194857D01*
X134415142Y-118194857D01*
X135915142Y-118980571D02*
X135915142Y-117980571D01*
X135915142Y-118266285D02*
X135986571Y-118123428D01*
X136058000Y-118052000D01*
X136200857Y-117980571D01*
X136343714Y-117980571D01*
X137486571Y-118980571D02*
X137486571Y-118194857D01*
X137415142Y-118052000D01*
X137272285Y-117980571D01*
X136986571Y-117980571D01*
X136843714Y-118052000D01*
X137486571Y-118909142D02*
X137343714Y-118980571D01*
X136986571Y-118980571D01*
X136843714Y-118909142D01*
X136772285Y-118766285D01*
X136772285Y-118623428D01*
X136843714Y-118480571D01*
X136986571Y-118409142D01*
X137343714Y-118409142D01*
X137486571Y-118337714D01*
X138200857Y-118980571D02*
X138200857Y-117980571D01*
X138200857Y-117480571D02*
X138129428Y-117552000D01*
X138200857Y-117623428D01*
X138272285Y-117552000D01*
X138200857Y-117480571D01*
X138200857Y-117623428D01*
X138915142Y-117980571D02*
X138915142Y-118980571D01*
X138915142Y-118123428D02*
X138986571Y-118052000D01*
X139129428Y-117980571D01*
X139343714Y-117980571D01*
X139486571Y-118052000D01*
X139558000Y-118194857D01*
X139558000Y-118980571D01*
X140772285Y-118194857D02*
X140986571Y-118266285D01*
X141058000Y-118337714D01*
X141129428Y-118480571D01*
X141129428Y-118694857D01*
X141058000Y-118837714D01*
X140986571Y-118909142D01*
X140843714Y-118980571D01*
X140272285Y-118980571D01*
X140272285Y-117480571D01*
X140772285Y-117480571D01*
X140915142Y-117552000D01*
X140986571Y-117623428D01*
X141058000Y-117766285D01*
X141058000Y-117909142D01*
X140986571Y-118052000D01*
X140915142Y-118123428D01*
X140772285Y-118194857D01*
X140272285Y-118194857D01*
X141986571Y-118980571D02*
X141843714Y-118909142D01*
X141772285Y-118837714D01*
X141700857Y-118694857D01*
X141700857Y-118266285D01*
X141772285Y-118123428D01*
X141843714Y-118052000D01*
X141986571Y-117980571D01*
X142200857Y-117980571D01*
X142343714Y-118052000D01*
X142415142Y-118123428D01*
X142486571Y-118266285D01*
X142486571Y-118694857D01*
X142415142Y-118837714D01*
X142343714Y-118909142D01*
X142200857Y-118980571D01*
X141986571Y-118980571D01*
X143772285Y-118980571D02*
X143772285Y-118194857D01*
X143700857Y-118052000D01*
X143558000Y-117980571D01*
X143272285Y-117980571D01*
X143129428Y-118052000D01*
X143772285Y-118909142D02*
X143629428Y-118980571D01*
X143272285Y-118980571D01*
X143129428Y-118909142D01*
X143058000Y-118766285D01*
X143058000Y-118623428D01*
X143129428Y-118480571D01*
X143272285Y-118409142D01*
X143629428Y-118409142D01*
X143772285Y-118337714D01*
X144486571Y-118980571D02*
X144486571Y-117980571D01*
X144486571Y-118266285D02*
X144558000Y-118123428D01*
X144629428Y-118052000D01*
X144772285Y-117980571D01*
X144915142Y-117980571D01*
X146058000Y-118980571D02*
X146058000Y-117480571D01*
X146058000Y-118909142D02*
X145915142Y-118980571D01*
X145629428Y-118980571D01*
X145486571Y-118909142D01*
X145415142Y-118837714D01*
X145343714Y-118694857D01*
X145343714Y-118266285D01*
X145415142Y-118123428D01*
X145486571Y-118052000D01*
X145629428Y-117980571D01*
X145915142Y-117980571D01*
X146058000Y-118052000D01*
X148772285Y-118980571D02*
X148272285Y-118266285D01*
X147915142Y-118980571D02*
X147915142Y-117480571D01*
X148486571Y-117480571D01*
X148629428Y-117552000D01*
X148700857Y-117623428D01*
X148772285Y-117766285D01*
X148772285Y-117980571D01*
X148700857Y-118123428D01*
X148629428Y-118194857D01*
X148486571Y-118266285D01*
X147915142Y-118266285D01*
X149986571Y-118909142D02*
X149843714Y-118980571D01*
X149558000Y-118980571D01*
X149415142Y-118909142D01*
X149343714Y-118766285D01*
X149343714Y-118194857D01*
X149415142Y-118052000D01*
X149558000Y-117980571D01*
X149843714Y-117980571D01*
X149986571Y-118052000D01*
X150058000Y-118194857D01*
X150058000Y-118337714D01*
X149343714Y-118480571D01*
X150558000Y-117980571D02*
X150915142Y-118980571D01*
X151272285Y-117980571D01*
X152915142Y-117623428D02*
X152986571Y-117552000D01*
X153129428Y-117480571D01*
X153486571Y-117480571D01*
X153629428Y-117552000D01*
X153700857Y-117623428D01*
X153772285Y-117766285D01*
X153772285Y-117909142D01*
X153700857Y-118123428D01*
X152843714Y-118980571D01*
X153772285Y-118980571D01*
X154415142Y-118837714D02*
X154486571Y-118909142D01*
X154415142Y-118980571D01*
X154343714Y-118909142D01*
X154415142Y-118837714D01*
X154415142Y-118980571D01*
X155415142Y-117480571D02*
X155558000Y-117480571D01*
X155700857Y-117552000D01*
X155772285Y-117623428D01*
X155843714Y-117766285D01*
X155915142Y-118052000D01*
X155915142Y-118409142D01*
X155843714Y-118694857D01*
X155772285Y-118837714D01*
X155700857Y-118909142D01*
X155558000Y-118980571D01*
X155415142Y-118980571D01*
X155272285Y-118909142D01*
X155200857Y-118837714D01*
X155129428Y-118694857D01*
X155058000Y-118409142D01*
X155058000Y-118052000D01*
X155129428Y-117766285D01*
X155200857Y-117623428D01*
X155272285Y-117552000D01*
X155415142Y-117480571D01*
D10*
G36*
X162148512Y-114038927D02*
G01*
X162297812Y-114068624D01*
X162461784Y-114136544D01*
X162609354Y-114235147D01*
X162734853Y-114360646D01*
X162833456Y-114508216D01*
X162901376Y-114672188D01*
X162936000Y-114846259D01*
X162936000Y-115023741D01*
X162901376Y-115197812D01*
X162833456Y-115361784D01*
X162734853Y-115509354D01*
X162609354Y-115634853D01*
X162461784Y-115733456D01*
X162297812Y-115801376D01*
X162148512Y-115831073D01*
X162123742Y-115836000D01*
X161946258Y-115836000D01*
X161921488Y-115831073D01*
X161772188Y-115801376D01*
X161608216Y-115733456D01*
X161460646Y-115634853D01*
X161335147Y-115509354D01*
X161236544Y-115361784D01*
X161168624Y-115197812D01*
X161134000Y-115023741D01*
X161134000Y-114846259D01*
X161168624Y-114672188D01*
X161236544Y-114508216D01*
X161335147Y-114360646D01*
X161460646Y-114235147D01*
X161608216Y-114136544D01*
X161772188Y-114068624D01*
X161921488Y-114038927D01*
X161946258Y-114034000D01*
X162123742Y-114034000D01*
X162148512Y-114038927D01*
G37*
G36*
X164688512Y-114038927D02*
G01*
X164837812Y-114068624D01*
X165001784Y-114136544D01*
X165149354Y-114235147D01*
X165274853Y-114360646D01*
X165373456Y-114508216D01*
X165441376Y-114672188D01*
X165476000Y-114846259D01*
X165476000Y-115023741D01*
X165441376Y-115197812D01*
X165373456Y-115361784D01*
X165274853Y-115509354D01*
X165149354Y-115634853D01*
X165001784Y-115733456D01*
X164837812Y-115801376D01*
X164688512Y-115831073D01*
X164663742Y-115836000D01*
X164486258Y-115836000D01*
X164461488Y-115831073D01*
X164312188Y-115801376D01*
X164148216Y-115733456D01*
X164000646Y-115634853D01*
X163875147Y-115509354D01*
X163776544Y-115361784D01*
X163708624Y-115197812D01*
X163674000Y-115023741D01*
X163674000Y-114846259D01*
X163708624Y-114672188D01*
X163776544Y-114508216D01*
X163875147Y-114360646D01*
X164000646Y-114235147D01*
X164148216Y-114136544D01*
X164312188Y-114068624D01*
X164461488Y-114038927D01*
X164486258Y-114034000D01*
X164663742Y-114034000D01*
X164688512Y-114038927D01*
G37*
G36*
X168016000Y-115836000D02*
G01*
X166214000Y-115836000D01*
X166214000Y-114034000D01*
X168016000Y-114034000D01*
X168016000Y-115836000D01*
G37*
G36*
X142691355Y-113652140D02*
G01*
X142755118Y-113658420D01*
X142845904Y-113685960D01*
X142877836Y-113695646D01*
X142990925Y-113756094D01*
X143090054Y-113837446D01*
X143171406Y-113936575D01*
X143231854Y-114049664D01*
X143231855Y-114049668D01*
X143269080Y-114172382D01*
X143281649Y-114300000D01*
X143269080Y-114427618D01*
X143244631Y-114508216D01*
X143231854Y-114550336D01*
X143171406Y-114663425D01*
X143090054Y-114762554D01*
X142990925Y-114843906D01*
X142877836Y-114904354D01*
X142845904Y-114914040D01*
X142755118Y-114941580D01*
X142691355Y-114947860D01*
X142659474Y-114951000D01*
X141795526Y-114951000D01*
X141763645Y-114947860D01*
X141699882Y-114941580D01*
X141609096Y-114914040D01*
X141577164Y-114904354D01*
X141464075Y-114843906D01*
X141364946Y-114762554D01*
X141283594Y-114663425D01*
X141223146Y-114550336D01*
X141210369Y-114508216D01*
X141185920Y-114427618D01*
X141173351Y-114300000D01*
X141185920Y-114172382D01*
X141223145Y-114049668D01*
X141223146Y-114049664D01*
X141283594Y-113936575D01*
X141364946Y-113837446D01*
X141464075Y-113756094D01*
X141577164Y-113695646D01*
X141609096Y-113685960D01*
X141699882Y-113658420D01*
X141763645Y-113652140D01*
X141795526Y-113649000D01*
X142659474Y-113649000D01*
X142691355Y-113652140D01*
G37*
G36*
X127476355Y-113652140D02*
G01*
X127540118Y-113658420D01*
X127630904Y-113685960D01*
X127662836Y-113695646D01*
X127775925Y-113756094D01*
X127875054Y-113837446D01*
X127956406Y-113936575D01*
X128016854Y-114049664D01*
X128016855Y-114049668D01*
X128054080Y-114172382D01*
X128066649Y-114300000D01*
X128054080Y-114427618D01*
X128029631Y-114508216D01*
X128016854Y-114550336D01*
X127956406Y-114663425D01*
X127875054Y-114762554D01*
X127775925Y-114843906D01*
X127662836Y-114904354D01*
X127630904Y-114914040D01*
X127540118Y-114941580D01*
X127476355Y-114947860D01*
X127444474Y-114951000D01*
X126580526Y-114951000D01*
X126548645Y-114947860D01*
X126484882Y-114941580D01*
X126394096Y-114914040D01*
X126362164Y-114904354D01*
X126249075Y-114843906D01*
X126149946Y-114762554D01*
X126068594Y-114663425D01*
X126008146Y-114550336D01*
X125995369Y-114508216D01*
X125970920Y-114427618D01*
X125958351Y-114300000D01*
X125970920Y-114172382D01*
X126008145Y-114049668D01*
X126008146Y-114049664D01*
X126068594Y-113936575D01*
X126149946Y-113837446D01*
X126249075Y-113756094D01*
X126362164Y-113695646D01*
X126394096Y-113685960D01*
X126484882Y-113658420D01*
X126548645Y-113652140D01*
X126580526Y-113649000D01*
X127444474Y-113649000D01*
X127476355Y-113652140D01*
G37*
G36*
X162148512Y-111498927D02*
G01*
X162297812Y-111528624D01*
X162461784Y-111596544D01*
X162609354Y-111695147D01*
X162734853Y-111820646D01*
X162833456Y-111968216D01*
X162901376Y-112132188D01*
X162936000Y-112306259D01*
X162936000Y-112483741D01*
X162901376Y-112657812D01*
X162833456Y-112821784D01*
X162734853Y-112969354D01*
X162609354Y-113094853D01*
X162461784Y-113193456D01*
X162297812Y-113261376D01*
X162148512Y-113291073D01*
X162123742Y-113296000D01*
X161946258Y-113296000D01*
X161921488Y-113291073D01*
X161772188Y-113261376D01*
X161608216Y-113193456D01*
X161460646Y-113094853D01*
X161335147Y-112969354D01*
X161236544Y-112821784D01*
X161168624Y-112657812D01*
X161134000Y-112483741D01*
X161134000Y-112306259D01*
X161168624Y-112132188D01*
X161236544Y-111968216D01*
X161335147Y-111820646D01*
X161460646Y-111695147D01*
X161608216Y-111596544D01*
X161772188Y-111528624D01*
X161921488Y-111498927D01*
X161946258Y-111494000D01*
X162123742Y-111494000D01*
X162148512Y-111498927D01*
G37*
G36*
X164688512Y-111498927D02*
G01*
X164837812Y-111528624D01*
X165001784Y-111596544D01*
X165149354Y-111695147D01*
X165274853Y-111820646D01*
X165373456Y-111968216D01*
X165441376Y-112132188D01*
X165476000Y-112306259D01*
X165476000Y-112483741D01*
X165441376Y-112657812D01*
X165373456Y-112821784D01*
X165274853Y-112969354D01*
X165149354Y-113094853D01*
X165001784Y-113193456D01*
X164837812Y-113261376D01*
X164688512Y-113291073D01*
X164663742Y-113296000D01*
X164486258Y-113296000D01*
X164461488Y-113291073D01*
X164312188Y-113261376D01*
X164148216Y-113193456D01*
X164000646Y-113094853D01*
X163875147Y-112969354D01*
X163776544Y-112821784D01*
X163708624Y-112657812D01*
X163674000Y-112483741D01*
X163674000Y-112306259D01*
X163708624Y-112132188D01*
X163776544Y-111968216D01*
X163875147Y-111820646D01*
X164000646Y-111695147D01*
X164148216Y-111596544D01*
X164312188Y-111528624D01*
X164461488Y-111498927D01*
X164486258Y-111494000D01*
X164663742Y-111494000D01*
X164688512Y-111498927D01*
G37*
G36*
X168016000Y-113296000D02*
G01*
X166214000Y-113296000D01*
X166214000Y-111494000D01*
X168016000Y-111494000D01*
X168016000Y-113296000D01*
G37*
G36*
X120889943Y-107066248D02*
G01*
X121445189Y-107296238D01*
X121606078Y-107403741D01*
X121944899Y-107630134D01*
X122369866Y-108055101D01*
X122454240Y-108181376D01*
X122703762Y-108554811D01*
X122933752Y-109110057D01*
X123051000Y-109699501D01*
X123051000Y-110300499D01*
X122933752Y-110889943D01*
X122703762Y-111445189D01*
X122578683Y-111632382D01*
X122369866Y-111944899D01*
X121944899Y-112369866D01*
X121693347Y-112537948D01*
X121445189Y-112703762D01*
X120889943Y-112933752D01*
X120300499Y-113051000D01*
X119699501Y-113051000D01*
X119110057Y-112933752D01*
X118554811Y-112703762D01*
X118306653Y-112537948D01*
X118055101Y-112369866D01*
X117630134Y-111944899D01*
X117421317Y-111632382D01*
X117296238Y-111445189D01*
X117066248Y-110889943D01*
X116949000Y-110300499D01*
X116949000Y-109699501D01*
X117066248Y-109110057D01*
X117296238Y-108554811D01*
X117545760Y-108181376D01*
X117630134Y-108055101D01*
X118055101Y-107630134D01*
X118393922Y-107403741D01*
X118554811Y-107296238D01*
X119110057Y-107066248D01*
X119699501Y-106949000D01*
X120300499Y-106949000D01*
X120889943Y-107066248D01*
G37*
G36*
X152889943Y-107066248D02*
G01*
X153445189Y-107296238D01*
X153606078Y-107403741D01*
X153944899Y-107630134D01*
X154369866Y-108055101D01*
X154454240Y-108181376D01*
X154703762Y-108554811D01*
X154933752Y-109110057D01*
X155051000Y-109699501D01*
X155051000Y-110300499D01*
X154933752Y-110889943D01*
X154703762Y-111445189D01*
X154578683Y-111632382D01*
X154369866Y-111944899D01*
X153944899Y-112369866D01*
X153693347Y-112537948D01*
X153445189Y-112703762D01*
X152889943Y-112933752D01*
X152300499Y-113051000D01*
X151699501Y-113051000D01*
X151110057Y-112933752D01*
X150554811Y-112703762D01*
X150306653Y-112537948D01*
X150055101Y-112369866D01*
X149630134Y-111944899D01*
X149421317Y-111632382D01*
X149296238Y-111445189D01*
X149066248Y-110889943D01*
X148949000Y-110300499D01*
X148949000Y-109699501D01*
X149066248Y-109110057D01*
X149296238Y-108554811D01*
X149545760Y-108181376D01*
X149630134Y-108055101D01*
X150055101Y-107630134D01*
X150393922Y-107403741D01*
X150554811Y-107296238D01*
X151110057Y-107066248D01*
X151699501Y-106949000D01*
X152300499Y-106949000D01*
X152889943Y-107066248D01*
G37*
G36*
X127476355Y-111112140D02*
G01*
X127540118Y-111118420D01*
X127630904Y-111145960D01*
X127662836Y-111155646D01*
X127775925Y-111216094D01*
X127875054Y-111297446D01*
X127956406Y-111396575D01*
X128016854Y-111509664D01*
X128016855Y-111509668D01*
X128054080Y-111632382D01*
X128066649Y-111760000D01*
X128054080Y-111887618D01*
X128036704Y-111944899D01*
X128016854Y-112010336D01*
X127956406Y-112123425D01*
X127875054Y-112222554D01*
X127775925Y-112303906D01*
X127662836Y-112364354D01*
X127630904Y-112374040D01*
X127540118Y-112401580D01*
X127476355Y-112407860D01*
X127444474Y-112411000D01*
X126580526Y-112411000D01*
X126548645Y-112407860D01*
X126484882Y-112401580D01*
X126394096Y-112374040D01*
X126362164Y-112364354D01*
X126249075Y-112303906D01*
X126149946Y-112222554D01*
X126068594Y-112123425D01*
X126008146Y-112010336D01*
X125988296Y-111944899D01*
X125970920Y-111887618D01*
X125958351Y-111760000D01*
X125970920Y-111632382D01*
X126008145Y-111509668D01*
X126008146Y-111509664D01*
X126068594Y-111396575D01*
X126149946Y-111297446D01*
X126249075Y-111216094D01*
X126362164Y-111155646D01*
X126394096Y-111145960D01*
X126484882Y-111118420D01*
X126548645Y-111112140D01*
X126580526Y-111109000D01*
X127444474Y-111109000D01*
X127476355Y-111112140D01*
G37*
G36*
X142691355Y-111112140D02*
G01*
X142755118Y-111118420D01*
X142845904Y-111145960D01*
X142877836Y-111155646D01*
X142990925Y-111216094D01*
X143090054Y-111297446D01*
X143171406Y-111396575D01*
X143231854Y-111509664D01*
X143231855Y-111509668D01*
X143269080Y-111632382D01*
X143281649Y-111760000D01*
X143269080Y-111887618D01*
X143251704Y-111944899D01*
X143231854Y-112010336D01*
X143171406Y-112123425D01*
X143090054Y-112222554D01*
X142990925Y-112303906D01*
X142877836Y-112364354D01*
X142845904Y-112374040D01*
X142755118Y-112401580D01*
X142691355Y-112407860D01*
X142659474Y-112411000D01*
X141795526Y-112411000D01*
X141763645Y-112407860D01*
X141699882Y-112401580D01*
X141609096Y-112374040D01*
X141577164Y-112364354D01*
X141464075Y-112303906D01*
X141364946Y-112222554D01*
X141283594Y-112123425D01*
X141223146Y-112010336D01*
X141203296Y-111944899D01*
X141185920Y-111887618D01*
X141173351Y-111760000D01*
X141185920Y-111632382D01*
X141223145Y-111509668D01*
X141223146Y-111509664D01*
X141283594Y-111396575D01*
X141364946Y-111297446D01*
X141464075Y-111216094D01*
X141577164Y-111155646D01*
X141609096Y-111145960D01*
X141699882Y-111118420D01*
X141763645Y-111112140D01*
X141795526Y-111109000D01*
X142659474Y-111109000D01*
X142691355Y-111112140D01*
G37*
G36*
X131047142Y-109708242D02*
G01*
X131195101Y-109769529D01*
X131328255Y-109858499D01*
X131441501Y-109971745D01*
X131530471Y-110104899D01*
X131591758Y-110252858D01*
X131623000Y-110409925D01*
X131623000Y-110570075D01*
X131591758Y-110727142D01*
X131530471Y-110875101D01*
X131441501Y-111008255D01*
X131328255Y-111121501D01*
X131195101Y-111210471D01*
X131047142Y-111271758D01*
X130890075Y-111303000D01*
X130729925Y-111303000D01*
X130572858Y-111271758D01*
X130424899Y-111210471D01*
X130291745Y-111121501D01*
X130178499Y-111008255D01*
X130089529Y-110875101D01*
X130028242Y-110727142D01*
X129997000Y-110570075D01*
X129997000Y-110409925D01*
X130028242Y-110252858D01*
X130089529Y-110104899D01*
X130178499Y-109971745D01*
X130291745Y-109858499D01*
X130424899Y-109769529D01*
X130572858Y-109708242D01*
X130729925Y-109677000D01*
X130890075Y-109677000D01*
X131047142Y-109708242D01*
G37*
G36*
X133587142Y-109708242D02*
G01*
X133735101Y-109769529D01*
X133868255Y-109858499D01*
X133981501Y-109971745D01*
X134070471Y-110104899D01*
X134131758Y-110252858D01*
X134163000Y-110409925D01*
X134163000Y-110570075D01*
X134131758Y-110727142D01*
X134070471Y-110875101D01*
X133981501Y-111008255D01*
X133868255Y-111121501D01*
X133735101Y-111210471D01*
X133587142Y-111271758D01*
X133430075Y-111303000D01*
X133269925Y-111303000D01*
X133112858Y-111271758D01*
X132964899Y-111210471D01*
X132831745Y-111121501D01*
X132718499Y-111008255D01*
X132629529Y-110875101D01*
X132568242Y-110727142D01*
X132537000Y-110570075D01*
X132537000Y-110409925D01*
X132568242Y-110252858D01*
X132629529Y-110104899D01*
X132718499Y-109971745D01*
X132831745Y-109858499D01*
X132964899Y-109769529D01*
X133112858Y-109708242D01*
X133269925Y-109677000D01*
X133430075Y-109677000D01*
X133587142Y-109708242D01*
G37*
G36*
X136127142Y-109708242D02*
G01*
X136275101Y-109769529D01*
X136408255Y-109858499D01*
X136521501Y-109971745D01*
X136610471Y-110104899D01*
X136671758Y-110252858D01*
X136703000Y-110409925D01*
X136703000Y-110570075D01*
X136671758Y-110727142D01*
X136610471Y-110875101D01*
X136521501Y-111008255D01*
X136408255Y-111121501D01*
X136275101Y-111210471D01*
X136127142Y-111271758D01*
X135970075Y-111303000D01*
X135809925Y-111303000D01*
X135652858Y-111271758D01*
X135504899Y-111210471D01*
X135371745Y-111121501D01*
X135258499Y-111008255D01*
X135169529Y-110875101D01*
X135108242Y-110727142D01*
X135077000Y-110570075D01*
X135077000Y-110409925D01*
X135108242Y-110252858D01*
X135169529Y-110104899D01*
X135258499Y-109971745D01*
X135371745Y-109858499D01*
X135504899Y-109769529D01*
X135652858Y-109708242D01*
X135809925Y-109677000D01*
X135970075Y-109677000D01*
X136127142Y-109708242D01*
G37*
G36*
X138667142Y-109708242D02*
G01*
X138815101Y-109769529D01*
X138948255Y-109858499D01*
X139061501Y-109971745D01*
X139150471Y-110104899D01*
X139211758Y-110252858D01*
X139243000Y-110409925D01*
X139243000Y-110570075D01*
X139211758Y-110727142D01*
X139150471Y-110875101D01*
X139061501Y-111008255D01*
X138948255Y-111121501D01*
X138815101Y-111210471D01*
X138667142Y-111271758D01*
X138510075Y-111303000D01*
X138349925Y-111303000D01*
X138192858Y-111271758D01*
X138044899Y-111210471D01*
X137911745Y-111121501D01*
X137798499Y-111008255D01*
X137709529Y-110875101D01*
X137648242Y-110727142D01*
X137617000Y-110570075D01*
X137617000Y-110409925D01*
X137648242Y-110252858D01*
X137709529Y-110104899D01*
X137798499Y-109971745D01*
X137911745Y-109858499D01*
X138044899Y-109769529D01*
X138192858Y-109708242D01*
X138349925Y-109677000D01*
X138510075Y-109677000D01*
X138667142Y-109708242D01*
G37*
G36*
X168016000Y-110756000D02*
G01*
X166214000Y-110756000D01*
X166214000Y-108954000D01*
X168016000Y-108954000D01*
X168016000Y-110756000D01*
G37*
G36*
X164688512Y-108958927D02*
G01*
X164837812Y-108988624D01*
X165001784Y-109056544D01*
X165149354Y-109155147D01*
X165274853Y-109280646D01*
X165373456Y-109428216D01*
X165441376Y-109592188D01*
X165476000Y-109766259D01*
X165476000Y-109943741D01*
X165441376Y-110117812D01*
X165373456Y-110281784D01*
X165274853Y-110429354D01*
X165149354Y-110554853D01*
X165001784Y-110653456D01*
X164837812Y-110721376D01*
X164688512Y-110751073D01*
X164663742Y-110756000D01*
X164486258Y-110756000D01*
X164461488Y-110751073D01*
X164312188Y-110721376D01*
X164148216Y-110653456D01*
X164000646Y-110554853D01*
X163875147Y-110429354D01*
X163776544Y-110281784D01*
X163708624Y-110117812D01*
X163674000Y-109943741D01*
X163674000Y-109766259D01*
X163708624Y-109592188D01*
X163776544Y-109428216D01*
X163875147Y-109280646D01*
X164000646Y-109155147D01*
X164148216Y-109056544D01*
X164312188Y-108988624D01*
X164461488Y-108958927D01*
X164486258Y-108954000D01*
X164663742Y-108954000D01*
X164688512Y-108958927D01*
G37*
G36*
X162148512Y-108958927D02*
G01*
X162297812Y-108988624D01*
X162461784Y-109056544D01*
X162609354Y-109155147D01*
X162734853Y-109280646D01*
X162833456Y-109428216D01*
X162901376Y-109592188D01*
X162936000Y-109766259D01*
X162936000Y-109943741D01*
X162901376Y-110117812D01*
X162833456Y-110281784D01*
X162734853Y-110429354D01*
X162609354Y-110554853D01*
X162461784Y-110653456D01*
X162297812Y-110721376D01*
X162148512Y-110751073D01*
X162123742Y-110756000D01*
X161946258Y-110756000D01*
X161921488Y-110751073D01*
X161772188Y-110721376D01*
X161608216Y-110653456D01*
X161460646Y-110554853D01*
X161335147Y-110429354D01*
X161236544Y-110281784D01*
X161168624Y-110117812D01*
X161134000Y-109943741D01*
X161134000Y-109766259D01*
X161168624Y-109592188D01*
X161236544Y-109428216D01*
X161335147Y-109280646D01*
X161460646Y-109155147D01*
X161608216Y-109056544D01*
X161772188Y-108988624D01*
X161921488Y-108958927D01*
X161946258Y-108954000D01*
X162123742Y-108954000D01*
X162148512Y-108958927D01*
G37*
G36*
X142691355Y-108572140D02*
G01*
X142755118Y-108578420D01*
X142845904Y-108605960D01*
X142877836Y-108615646D01*
X142990925Y-108676094D01*
X143090054Y-108757446D01*
X143171406Y-108856575D01*
X143231854Y-108969664D01*
X143231855Y-108969668D01*
X143269080Y-109092382D01*
X143281649Y-109220000D01*
X143269080Y-109347618D01*
X143244631Y-109428216D01*
X143231854Y-109470336D01*
X143171406Y-109583425D01*
X143090054Y-109682554D01*
X142990925Y-109763906D01*
X142877836Y-109824354D01*
X142845904Y-109834040D01*
X142755118Y-109861580D01*
X142691355Y-109867860D01*
X142659474Y-109871000D01*
X141795526Y-109871000D01*
X141763645Y-109867860D01*
X141699882Y-109861580D01*
X141609096Y-109834040D01*
X141577164Y-109824354D01*
X141464075Y-109763906D01*
X141364946Y-109682554D01*
X141283594Y-109583425D01*
X141223146Y-109470336D01*
X141210369Y-109428216D01*
X141185920Y-109347618D01*
X141173351Y-109220000D01*
X141185920Y-109092382D01*
X141223145Y-108969668D01*
X141223146Y-108969664D01*
X141283594Y-108856575D01*
X141364946Y-108757446D01*
X141464075Y-108676094D01*
X141577164Y-108615646D01*
X141609096Y-108605960D01*
X141699882Y-108578420D01*
X141763645Y-108572140D01*
X141795526Y-108569000D01*
X142659474Y-108569000D01*
X142691355Y-108572140D01*
G37*
G36*
X127476355Y-108572140D02*
G01*
X127540118Y-108578420D01*
X127630904Y-108605960D01*
X127662836Y-108615646D01*
X127775925Y-108676094D01*
X127875054Y-108757446D01*
X127956406Y-108856575D01*
X128016854Y-108969664D01*
X128016855Y-108969668D01*
X128054080Y-109092382D01*
X128066649Y-109220000D01*
X128054080Y-109347618D01*
X128029631Y-109428216D01*
X128016854Y-109470336D01*
X127956406Y-109583425D01*
X127875054Y-109682554D01*
X127775925Y-109763906D01*
X127662836Y-109824354D01*
X127630904Y-109834040D01*
X127540118Y-109861580D01*
X127476355Y-109867860D01*
X127444474Y-109871000D01*
X126580526Y-109871000D01*
X126548645Y-109867860D01*
X126484882Y-109861580D01*
X126394096Y-109834040D01*
X126362164Y-109824354D01*
X126249075Y-109763906D01*
X126149946Y-109682554D01*
X126068594Y-109583425D01*
X126008146Y-109470336D01*
X125995369Y-109428216D01*
X125970920Y-109347618D01*
X125958351Y-109220000D01*
X125970920Y-109092382D01*
X126008145Y-108969668D01*
X126008146Y-108969664D01*
X126068594Y-108856575D01*
X126149946Y-108757446D01*
X126249075Y-108676094D01*
X126362164Y-108615646D01*
X126394096Y-108605960D01*
X126484882Y-108578420D01*
X126548645Y-108572140D01*
X126580526Y-108569000D01*
X127444474Y-108569000D01*
X127476355Y-108572140D01*
G37*
G36*
X162148512Y-106418927D02*
G01*
X162297812Y-106448624D01*
X162461784Y-106516544D01*
X162609354Y-106615147D01*
X162734853Y-106740646D01*
X162833456Y-106888216D01*
X162901376Y-107052188D01*
X162936000Y-107226259D01*
X162936000Y-107403741D01*
X162901376Y-107577812D01*
X162833456Y-107741784D01*
X162734853Y-107889354D01*
X162609354Y-108014853D01*
X162461784Y-108113456D01*
X162297812Y-108181376D01*
X162148512Y-108211073D01*
X162123742Y-108216000D01*
X161946258Y-108216000D01*
X161921488Y-108211073D01*
X161772188Y-108181376D01*
X161608216Y-108113456D01*
X161460646Y-108014853D01*
X161335147Y-107889354D01*
X161236544Y-107741784D01*
X161168624Y-107577812D01*
X161134000Y-107403741D01*
X161134000Y-107226259D01*
X161168624Y-107052188D01*
X161236544Y-106888216D01*
X161335147Y-106740646D01*
X161460646Y-106615147D01*
X161608216Y-106516544D01*
X161772188Y-106448624D01*
X161921488Y-106418927D01*
X161946258Y-106414000D01*
X162123742Y-106414000D01*
X162148512Y-106418927D01*
G37*
G36*
X164688512Y-106418927D02*
G01*
X164837812Y-106448624D01*
X165001784Y-106516544D01*
X165149354Y-106615147D01*
X165274853Y-106740646D01*
X165373456Y-106888216D01*
X165441376Y-107052188D01*
X165476000Y-107226259D01*
X165476000Y-107403741D01*
X165441376Y-107577812D01*
X165373456Y-107741784D01*
X165274853Y-107889354D01*
X165149354Y-108014853D01*
X165001784Y-108113456D01*
X164837812Y-108181376D01*
X164688512Y-108211073D01*
X164663742Y-108216000D01*
X164486258Y-108216000D01*
X164461488Y-108211073D01*
X164312188Y-108181376D01*
X164148216Y-108113456D01*
X164000646Y-108014853D01*
X163875147Y-107889354D01*
X163776544Y-107741784D01*
X163708624Y-107577812D01*
X163674000Y-107403741D01*
X163674000Y-107226259D01*
X163708624Y-107052188D01*
X163776544Y-106888216D01*
X163875147Y-106740646D01*
X164000646Y-106615147D01*
X164148216Y-106516544D01*
X164312188Y-106448624D01*
X164461488Y-106418927D01*
X164486258Y-106414000D01*
X164663742Y-106414000D01*
X164688512Y-106418927D01*
G37*
G36*
X168016000Y-108216000D02*
G01*
X166214000Y-108216000D01*
X166214000Y-106414000D01*
X168016000Y-106414000D01*
X168016000Y-108216000D01*
G37*
G36*
X142691355Y-106032140D02*
G01*
X142755118Y-106038420D01*
X142845904Y-106065960D01*
X142877836Y-106075646D01*
X142990925Y-106136094D01*
X143090054Y-106217446D01*
X143171406Y-106316575D01*
X143231854Y-106429664D01*
X143231855Y-106429668D01*
X143269080Y-106552382D01*
X143281649Y-106680000D01*
X143269080Y-106807618D01*
X143244631Y-106888216D01*
X143231854Y-106930336D01*
X143171406Y-107043425D01*
X143090054Y-107142554D01*
X142990925Y-107223906D01*
X142877836Y-107284354D01*
X142845904Y-107294040D01*
X142755118Y-107321580D01*
X142691355Y-107327860D01*
X142659474Y-107331000D01*
X141795526Y-107331000D01*
X141763645Y-107327860D01*
X141699882Y-107321580D01*
X141609096Y-107294040D01*
X141577164Y-107284354D01*
X141464075Y-107223906D01*
X141364946Y-107142554D01*
X141283594Y-107043425D01*
X141223146Y-106930336D01*
X141210369Y-106888216D01*
X141185920Y-106807618D01*
X141173351Y-106680000D01*
X141185920Y-106552382D01*
X141223145Y-106429668D01*
X141223146Y-106429664D01*
X141283594Y-106316575D01*
X141364946Y-106217446D01*
X141464075Y-106136094D01*
X141577164Y-106075646D01*
X141609096Y-106065960D01*
X141699882Y-106038420D01*
X141763645Y-106032140D01*
X141795526Y-106029000D01*
X142659474Y-106029000D01*
X142691355Y-106032140D01*
G37*
G36*
X127476355Y-106032140D02*
G01*
X127540118Y-106038420D01*
X127630904Y-106065960D01*
X127662836Y-106075646D01*
X127775925Y-106136094D01*
X127875054Y-106217446D01*
X127956406Y-106316575D01*
X128016854Y-106429664D01*
X128016855Y-106429668D01*
X128054080Y-106552382D01*
X128066649Y-106680000D01*
X128054080Y-106807618D01*
X128029631Y-106888216D01*
X128016854Y-106930336D01*
X127956406Y-107043425D01*
X127875054Y-107142554D01*
X127775925Y-107223906D01*
X127662836Y-107284354D01*
X127630904Y-107294040D01*
X127540118Y-107321580D01*
X127476355Y-107327860D01*
X127444474Y-107331000D01*
X126580526Y-107331000D01*
X126548645Y-107327860D01*
X126484882Y-107321580D01*
X126394096Y-107294040D01*
X126362164Y-107284354D01*
X126249075Y-107223906D01*
X126149946Y-107142554D01*
X126068594Y-107043425D01*
X126008146Y-106930336D01*
X125995369Y-106888216D01*
X125970920Y-106807618D01*
X125958351Y-106680000D01*
X125970920Y-106552382D01*
X126008145Y-106429668D01*
X126008146Y-106429664D01*
X126068594Y-106316575D01*
X126149946Y-106217446D01*
X126249075Y-106136094D01*
X126362164Y-106075646D01*
X126394096Y-106065960D01*
X126484882Y-106038420D01*
X126548645Y-106032140D01*
X126580526Y-106029000D01*
X127444474Y-106029000D01*
X127476355Y-106032140D01*
G37*
G36*
X162148512Y-103878927D02*
G01*
X162297812Y-103908624D01*
X162461784Y-103976544D01*
X162609354Y-104075147D01*
X162734853Y-104200646D01*
X162833456Y-104348216D01*
X162901376Y-104512188D01*
X162936000Y-104686259D01*
X162936000Y-104863741D01*
X162901376Y-105037812D01*
X162833456Y-105201784D01*
X162734853Y-105349354D01*
X162609354Y-105474853D01*
X162461784Y-105573456D01*
X162297812Y-105641376D01*
X162148512Y-105671073D01*
X162123742Y-105676000D01*
X161946258Y-105676000D01*
X161921488Y-105671073D01*
X161772188Y-105641376D01*
X161608216Y-105573456D01*
X161460646Y-105474853D01*
X161335147Y-105349354D01*
X161236544Y-105201784D01*
X161168624Y-105037812D01*
X161134000Y-104863741D01*
X161134000Y-104686259D01*
X161168624Y-104512188D01*
X161236544Y-104348216D01*
X161335147Y-104200646D01*
X161460646Y-104075147D01*
X161608216Y-103976544D01*
X161772188Y-103908624D01*
X161921488Y-103878927D01*
X161946258Y-103874000D01*
X162123742Y-103874000D01*
X162148512Y-103878927D01*
G37*
G36*
X164688512Y-103878927D02*
G01*
X164837812Y-103908624D01*
X165001784Y-103976544D01*
X165149354Y-104075147D01*
X165274853Y-104200646D01*
X165373456Y-104348216D01*
X165441376Y-104512188D01*
X165476000Y-104686259D01*
X165476000Y-104863741D01*
X165441376Y-105037812D01*
X165373456Y-105201784D01*
X165274853Y-105349354D01*
X165149354Y-105474853D01*
X165001784Y-105573456D01*
X164837812Y-105641376D01*
X164688512Y-105671073D01*
X164663742Y-105676000D01*
X164486258Y-105676000D01*
X164461488Y-105671073D01*
X164312188Y-105641376D01*
X164148216Y-105573456D01*
X164000646Y-105474853D01*
X163875147Y-105349354D01*
X163776544Y-105201784D01*
X163708624Y-105037812D01*
X163674000Y-104863741D01*
X163674000Y-104686259D01*
X163708624Y-104512188D01*
X163776544Y-104348216D01*
X163875147Y-104200646D01*
X164000646Y-104075147D01*
X164148216Y-103976544D01*
X164312188Y-103908624D01*
X164461488Y-103878927D01*
X164486258Y-103874000D01*
X164663742Y-103874000D01*
X164688512Y-103878927D01*
G37*
G36*
X168016000Y-105676000D02*
G01*
X166214000Y-105676000D01*
X166214000Y-103874000D01*
X168016000Y-103874000D01*
X168016000Y-105676000D01*
G37*
G36*
X142691355Y-103492140D02*
G01*
X142755118Y-103498420D01*
X142845904Y-103525960D01*
X142877836Y-103535646D01*
X142990925Y-103596094D01*
X143090054Y-103677446D01*
X143171406Y-103776575D01*
X143231854Y-103889664D01*
X143231855Y-103889668D01*
X143269080Y-104012382D01*
X143281649Y-104140000D01*
X143269080Y-104267618D01*
X143244631Y-104348216D01*
X143231854Y-104390336D01*
X143171406Y-104503425D01*
X143090054Y-104602554D01*
X142990925Y-104683906D01*
X142877836Y-104744354D01*
X142845904Y-104754040D01*
X142755118Y-104781580D01*
X142691355Y-104787860D01*
X142659474Y-104791000D01*
X141795526Y-104791000D01*
X141763645Y-104787860D01*
X141699882Y-104781580D01*
X141609096Y-104754040D01*
X141577164Y-104744354D01*
X141464075Y-104683906D01*
X141364946Y-104602554D01*
X141283594Y-104503425D01*
X141223146Y-104390336D01*
X141210369Y-104348216D01*
X141185920Y-104267618D01*
X141173351Y-104140000D01*
X141185920Y-104012382D01*
X141223145Y-103889668D01*
X141223146Y-103889664D01*
X141283594Y-103776575D01*
X141364946Y-103677446D01*
X141464075Y-103596094D01*
X141577164Y-103535646D01*
X141609096Y-103525960D01*
X141699882Y-103498420D01*
X141763645Y-103492140D01*
X141795526Y-103489000D01*
X142659474Y-103489000D01*
X142691355Y-103492140D01*
G37*
G36*
X127476355Y-103492140D02*
G01*
X127540118Y-103498420D01*
X127630904Y-103525960D01*
X127662836Y-103535646D01*
X127775925Y-103596094D01*
X127875054Y-103677446D01*
X127956406Y-103776575D01*
X128016854Y-103889664D01*
X128016855Y-103889668D01*
X128054080Y-104012382D01*
X128066649Y-104140000D01*
X128054080Y-104267618D01*
X128029631Y-104348216D01*
X128016854Y-104390336D01*
X127956406Y-104503425D01*
X127875054Y-104602554D01*
X127775925Y-104683906D01*
X127662836Y-104744354D01*
X127630904Y-104754040D01*
X127540118Y-104781580D01*
X127476355Y-104787860D01*
X127444474Y-104791000D01*
X126580526Y-104791000D01*
X126548645Y-104787860D01*
X126484882Y-104781580D01*
X126394096Y-104754040D01*
X126362164Y-104744354D01*
X126249075Y-104683906D01*
X126149946Y-104602554D01*
X126068594Y-104503425D01*
X126008146Y-104390336D01*
X125995369Y-104348216D01*
X125970920Y-104267618D01*
X125958351Y-104140000D01*
X125970920Y-104012382D01*
X126008145Y-103889668D01*
X126008146Y-103889664D01*
X126068594Y-103776575D01*
X126149946Y-103677446D01*
X126249075Y-103596094D01*
X126362164Y-103535646D01*
X126394096Y-103525960D01*
X126484882Y-103498420D01*
X126548645Y-103492140D01*
X126580526Y-103489000D01*
X127444474Y-103489000D01*
X127476355Y-103492140D01*
G37*
G36*
X164688512Y-101338927D02*
G01*
X164837812Y-101368624D01*
X165001784Y-101436544D01*
X165149354Y-101535147D01*
X165274853Y-101660646D01*
X165373456Y-101808216D01*
X165441376Y-101972188D01*
X165476000Y-102146259D01*
X165476000Y-102323741D01*
X165441376Y-102497812D01*
X165373456Y-102661784D01*
X165274853Y-102809354D01*
X165149354Y-102934853D01*
X165001784Y-103033456D01*
X164837812Y-103101376D01*
X164688512Y-103131073D01*
X164663742Y-103136000D01*
X164486258Y-103136000D01*
X164461488Y-103131073D01*
X164312188Y-103101376D01*
X164148216Y-103033456D01*
X164000646Y-102934853D01*
X163875147Y-102809354D01*
X163776544Y-102661784D01*
X163708624Y-102497812D01*
X163674000Y-102323741D01*
X163674000Y-102146259D01*
X163708624Y-101972188D01*
X163776544Y-101808216D01*
X163875147Y-101660646D01*
X164000646Y-101535147D01*
X164148216Y-101436544D01*
X164312188Y-101368624D01*
X164461488Y-101338927D01*
X164486258Y-101334000D01*
X164663742Y-101334000D01*
X164688512Y-101338927D01*
G37*
G36*
X168016000Y-103136000D02*
G01*
X166214000Y-103136000D01*
X166214000Y-101334000D01*
X168016000Y-101334000D01*
X168016000Y-103136000D01*
G37*
G36*
X162148512Y-101338927D02*
G01*
X162297812Y-101368624D01*
X162461784Y-101436544D01*
X162609354Y-101535147D01*
X162734853Y-101660646D01*
X162833456Y-101808216D01*
X162901376Y-101972188D01*
X162936000Y-102146259D01*
X162936000Y-102323741D01*
X162901376Y-102497812D01*
X162833456Y-102661784D01*
X162734853Y-102809354D01*
X162609354Y-102934853D01*
X162461784Y-103033456D01*
X162297812Y-103101376D01*
X162148512Y-103131073D01*
X162123742Y-103136000D01*
X161946258Y-103136000D01*
X161921488Y-103131073D01*
X161772188Y-103101376D01*
X161608216Y-103033456D01*
X161460646Y-102934853D01*
X161335147Y-102809354D01*
X161236544Y-102661784D01*
X161168624Y-102497812D01*
X161134000Y-102323741D01*
X161134000Y-102146259D01*
X161168624Y-101972188D01*
X161236544Y-101808216D01*
X161335147Y-101660646D01*
X161460646Y-101535147D01*
X161608216Y-101436544D01*
X161772188Y-101368624D01*
X161921488Y-101338927D01*
X161946258Y-101334000D01*
X162123742Y-101334000D01*
X162148512Y-101338927D01*
G37*
G36*
X142691355Y-100952140D02*
G01*
X142755118Y-100958420D01*
X142845904Y-100985960D01*
X142877836Y-100995646D01*
X142990925Y-101056094D01*
X143090054Y-101137446D01*
X143171406Y-101236575D01*
X143231854Y-101349664D01*
X143231855Y-101349668D01*
X143269080Y-101472382D01*
X143281649Y-101600000D01*
X143269080Y-101727618D01*
X143244631Y-101808216D01*
X143231854Y-101850336D01*
X143171406Y-101963425D01*
X143090054Y-102062554D01*
X142990925Y-102143906D01*
X142877836Y-102204354D01*
X142845904Y-102214040D01*
X142755118Y-102241580D01*
X142691355Y-102247860D01*
X142659474Y-102251000D01*
X141795526Y-102251000D01*
X141763645Y-102247860D01*
X141699882Y-102241580D01*
X141609096Y-102214040D01*
X141577164Y-102204354D01*
X141464075Y-102143906D01*
X141364946Y-102062554D01*
X141283594Y-101963425D01*
X141223146Y-101850336D01*
X141210369Y-101808216D01*
X141185920Y-101727618D01*
X141173351Y-101600000D01*
X141185920Y-101472382D01*
X141223145Y-101349668D01*
X141223146Y-101349664D01*
X141283594Y-101236575D01*
X141364946Y-101137446D01*
X141464075Y-101056094D01*
X141577164Y-100995646D01*
X141609096Y-100985960D01*
X141699882Y-100958420D01*
X141763645Y-100952140D01*
X141795526Y-100949000D01*
X142659474Y-100949000D01*
X142691355Y-100952140D01*
G37*
G36*
X127476355Y-100952140D02*
G01*
X127540118Y-100958420D01*
X127630904Y-100985960D01*
X127662836Y-100995646D01*
X127775925Y-101056094D01*
X127875054Y-101137446D01*
X127956406Y-101236575D01*
X128016854Y-101349664D01*
X128016855Y-101349668D01*
X128054080Y-101472382D01*
X128066649Y-101600000D01*
X128054080Y-101727618D01*
X128029631Y-101808216D01*
X128016854Y-101850336D01*
X127956406Y-101963425D01*
X127875054Y-102062554D01*
X127775925Y-102143906D01*
X127662836Y-102204354D01*
X127630904Y-102214040D01*
X127540118Y-102241580D01*
X127476355Y-102247860D01*
X127444474Y-102251000D01*
X126580526Y-102251000D01*
X126548645Y-102247860D01*
X126484882Y-102241580D01*
X126394096Y-102214040D01*
X126362164Y-102204354D01*
X126249075Y-102143906D01*
X126149946Y-102062554D01*
X126068594Y-101963425D01*
X126008146Y-101850336D01*
X125995369Y-101808216D01*
X125970920Y-101727618D01*
X125958351Y-101600000D01*
X125970920Y-101472382D01*
X126008145Y-101349668D01*
X126008146Y-101349664D01*
X126068594Y-101236575D01*
X126149946Y-101137446D01*
X126249075Y-101056094D01*
X126362164Y-100995646D01*
X126394096Y-100985960D01*
X126484882Y-100958420D01*
X126548645Y-100952140D01*
X126580526Y-100949000D01*
X127444474Y-100949000D01*
X127476355Y-100952140D01*
G37*
G36*
X168016000Y-100596000D02*
G01*
X166214000Y-100596000D01*
X166214000Y-98794000D01*
X168016000Y-98794000D01*
X168016000Y-100596000D01*
G37*
G36*
X164679769Y-98797188D02*
G01*
X164837812Y-98828624D01*
X165001784Y-98896544D01*
X165149354Y-98995147D01*
X165274853Y-99120646D01*
X165373456Y-99268216D01*
X165441376Y-99432188D01*
X165476000Y-99606259D01*
X165476000Y-99783741D01*
X165441376Y-99957812D01*
X165373456Y-100121784D01*
X165274853Y-100269354D01*
X165149354Y-100394853D01*
X165001784Y-100493456D01*
X164837812Y-100561376D01*
X164688512Y-100591073D01*
X164663742Y-100596000D01*
X164486258Y-100596000D01*
X164461488Y-100591073D01*
X164312188Y-100561376D01*
X164148216Y-100493456D01*
X164000646Y-100394853D01*
X163875147Y-100269354D01*
X163776544Y-100121784D01*
X163708624Y-99957812D01*
X163674000Y-99783741D01*
X163674000Y-99606259D01*
X163708624Y-99432188D01*
X163776544Y-99268216D01*
X163875147Y-99120646D01*
X164000646Y-98995147D01*
X164148216Y-98896544D01*
X164312188Y-98828624D01*
X164470231Y-98797188D01*
X164486258Y-98794000D01*
X164663742Y-98794000D01*
X164679769Y-98797188D01*
G37*
G36*
X162139769Y-98797188D02*
G01*
X162297812Y-98828624D01*
X162461784Y-98896544D01*
X162609354Y-98995147D01*
X162734853Y-99120646D01*
X162833456Y-99268216D01*
X162901376Y-99432188D01*
X162936000Y-99606259D01*
X162936000Y-99783741D01*
X162901376Y-99957812D01*
X162833456Y-100121784D01*
X162734853Y-100269354D01*
X162609354Y-100394853D01*
X162461784Y-100493456D01*
X162297812Y-100561376D01*
X162148512Y-100591073D01*
X162123742Y-100596000D01*
X161946258Y-100596000D01*
X161921488Y-100591073D01*
X161772188Y-100561376D01*
X161608216Y-100493456D01*
X161460646Y-100394853D01*
X161335147Y-100269354D01*
X161236544Y-100121784D01*
X161168624Y-99957812D01*
X161134000Y-99783741D01*
X161134000Y-99606259D01*
X161168624Y-99432188D01*
X161236544Y-99268216D01*
X161335147Y-99120646D01*
X161460646Y-98995147D01*
X161608216Y-98896544D01*
X161772188Y-98828624D01*
X161930231Y-98797188D01*
X161946258Y-98794000D01*
X162123742Y-98794000D01*
X162139769Y-98797188D01*
G37*
G36*
X118795012Y-98163927D02*
G01*
X118944312Y-98193624D01*
X119108284Y-98261544D01*
X119255854Y-98360147D01*
X119381353Y-98485646D01*
X119479956Y-98633216D01*
X119547876Y-98797188D01*
X119582500Y-98971259D01*
X119582500Y-99148741D01*
X119547876Y-99322812D01*
X119479956Y-99486784D01*
X119381353Y-99634354D01*
X119255854Y-99759853D01*
X119108284Y-99858456D01*
X118944312Y-99926376D01*
X118795012Y-99956073D01*
X118770242Y-99961000D01*
X118592758Y-99961000D01*
X118567988Y-99956073D01*
X118418688Y-99926376D01*
X118254716Y-99858456D01*
X118107146Y-99759853D01*
X117981647Y-99634354D01*
X117883044Y-99486784D01*
X117815124Y-99322812D01*
X117780500Y-99148741D01*
X117780500Y-98971259D01*
X117815124Y-98797188D01*
X117883044Y-98633216D01*
X117981647Y-98485646D01*
X118107146Y-98360147D01*
X118254716Y-98261544D01*
X118418688Y-98193624D01*
X118567988Y-98163927D01*
X118592758Y-98159000D01*
X118770242Y-98159000D01*
X118795012Y-98163927D01*
G37*
G36*
X116255012Y-98163927D02*
G01*
X116404312Y-98193624D01*
X116568284Y-98261544D01*
X116715854Y-98360147D01*
X116841353Y-98485646D01*
X116939956Y-98633216D01*
X117007876Y-98797188D01*
X117042500Y-98971259D01*
X117042500Y-99148741D01*
X117007876Y-99322812D01*
X116939956Y-99486784D01*
X116841353Y-99634354D01*
X116715854Y-99759853D01*
X116568284Y-99858456D01*
X116404312Y-99926376D01*
X116255012Y-99956073D01*
X116230242Y-99961000D01*
X116052758Y-99961000D01*
X116027988Y-99956073D01*
X115878688Y-99926376D01*
X115714716Y-99858456D01*
X115567146Y-99759853D01*
X115441647Y-99634354D01*
X115343044Y-99486784D01*
X115275124Y-99322812D01*
X115240500Y-99148741D01*
X115240500Y-98971259D01*
X115275124Y-98797188D01*
X115343044Y-98633216D01*
X115441647Y-98485646D01*
X115567146Y-98360147D01*
X115714716Y-98261544D01*
X115878688Y-98193624D01*
X116027988Y-98163927D01*
X116052758Y-98159000D01*
X116230242Y-98159000D01*
X116255012Y-98163927D01*
G37*
G36*
X114502500Y-99961000D02*
G01*
X112700500Y-99961000D01*
X112700500Y-98159000D01*
X114502500Y-98159000D01*
X114502500Y-99961000D01*
G37*
G36*
X127476355Y-98412140D02*
G01*
X127540118Y-98418420D01*
X127630904Y-98445960D01*
X127662836Y-98455646D01*
X127775925Y-98516094D01*
X127875054Y-98597446D01*
X127956406Y-98696575D01*
X128016854Y-98809664D01*
X128016855Y-98809668D01*
X128054080Y-98932382D01*
X128066649Y-99060000D01*
X128054080Y-99187618D01*
X128029631Y-99268216D01*
X128016854Y-99310336D01*
X127956406Y-99423425D01*
X127875054Y-99522554D01*
X127775925Y-99603906D01*
X127662836Y-99664354D01*
X127630904Y-99674040D01*
X127540118Y-99701580D01*
X127476355Y-99707860D01*
X127444474Y-99711000D01*
X126580526Y-99711000D01*
X126548645Y-99707860D01*
X126484882Y-99701580D01*
X126394096Y-99674040D01*
X126362164Y-99664354D01*
X126249075Y-99603906D01*
X126149946Y-99522554D01*
X126068594Y-99423425D01*
X126008146Y-99310336D01*
X125995369Y-99268216D01*
X125970920Y-99187618D01*
X125958351Y-99060000D01*
X125970920Y-98932382D01*
X126008145Y-98809668D01*
X126008146Y-98809664D01*
X126068594Y-98696575D01*
X126149946Y-98597446D01*
X126249075Y-98516094D01*
X126362164Y-98455646D01*
X126394096Y-98445960D01*
X126484882Y-98418420D01*
X126548645Y-98412140D01*
X126580526Y-98409000D01*
X127444474Y-98409000D01*
X127476355Y-98412140D01*
G37*
G36*
X142691355Y-98412140D02*
G01*
X142755118Y-98418420D01*
X142845904Y-98445960D01*
X142877836Y-98455646D01*
X142990925Y-98516094D01*
X143090054Y-98597446D01*
X143171406Y-98696575D01*
X143231854Y-98809664D01*
X143231855Y-98809668D01*
X143269080Y-98932382D01*
X143281649Y-99060000D01*
X143269080Y-99187618D01*
X143244631Y-99268216D01*
X143231854Y-99310336D01*
X143171406Y-99423425D01*
X143090054Y-99522554D01*
X142990925Y-99603906D01*
X142877836Y-99664354D01*
X142845904Y-99674040D01*
X142755118Y-99701580D01*
X142691355Y-99707860D01*
X142659474Y-99711000D01*
X141795526Y-99711000D01*
X141763645Y-99707860D01*
X141699882Y-99701580D01*
X141609096Y-99674040D01*
X141577164Y-99664354D01*
X141464075Y-99603906D01*
X141364946Y-99522554D01*
X141283594Y-99423425D01*
X141223146Y-99310336D01*
X141210369Y-99268216D01*
X141185920Y-99187618D01*
X141173351Y-99060000D01*
X141185920Y-98932382D01*
X141223145Y-98809668D01*
X141223146Y-98809664D01*
X141283594Y-98696575D01*
X141364946Y-98597446D01*
X141464075Y-98516094D01*
X141577164Y-98455646D01*
X141609096Y-98445960D01*
X141699882Y-98418420D01*
X141763645Y-98412140D01*
X141795526Y-98409000D01*
X142659474Y-98409000D01*
X142691355Y-98412140D01*
G37*
G36*
X168016000Y-98056000D02*
G01*
X166214000Y-98056000D01*
X166214000Y-96254000D01*
X168016000Y-96254000D01*
X168016000Y-98056000D01*
G37*
G36*
X164679769Y-96257188D02*
G01*
X164837812Y-96288624D01*
X165001784Y-96356544D01*
X165149354Y-96455147D01*
X165274853Y-96580646D01*
X165373456Y-96728216D01*
X165441376Y-96892188D01*
X165476000Y-97066259D01*
X165476000Y-97243741D01*
X165441376Y-97417812D01*
X165373456Y-97581784D01*
X165274853Y-97729354D01*
X165149354Y-97854853D01*
X165001784Y-97953456D01*
X164837812Y-98021376D01*
X164688512Y-98051073D01*
X164663742Y-98056000D01*
X164486258Y-98056000D01*
X164461488Y-98051073D01*
X164312188Y-98021376D01*
X164148216Y-97953456D01*
X164000646Y-97854853D01*
X163875147Y-97729354D01*
X163776544Y-97581784D01*
X163708624Y-97417812D01*
X163674000Y-97243741D01*
X163674000Y-97066259D01*
X163708624Y-96892188D01*
X163776544Y-96728216D01*
X163875147Y-96580646D01*
X164000646Y-96455147D01*
X164148216Y-96356544D01*
X164312188Y-96288624D01*
X164470231Y-96257188D01*
X164486258Y-96254000D01*
X164663742Y-96254000D01*
X164679769Y-96257188D01*
G37*
G36*
X162139769Y-96257188D02*
G01*
X162297812Y-96288624D01*
X162461784Y-96356544D01*
X162609354Y-96455147D01*
X162734853Y-96580646D01*
X162833456Y-96728216D01*
X162901376Y-96892188D01*
X162936000Y-97066259D01*
X162936000Y-97243741D01*
X162901376Y-97417812D01*
X162833456Y-97581784D01*
X162734853Y-97729354D01*
X162609354Y-97854853D01*
X162461784Y-97953456D01*
X162297812Y-98021376D01*
X162148512Y-98051073D01*
X162123742Y-98056000D01*
X161946258Y-98056000D01*
X161921488Y-98051073D01*
X161772188Y-98021376D01*
X161608216Y-97953456D01*
X161460646Y-97854853D01*
X161335147Y-97729354D01*
X161236544Y-97581784D01*
X161168624Y-97417812D01*
X161134000Y-97243741D01*
X161134000Y-97066259D01*
X161168624Y-96892188D01*
X161236544Y-96728216D01*
X161335147Y-96580646D01*
X161460646Y-96455147D01*
X161608216Y-96356544D01*
X161772188Y-96288624D01*
X161930231Y-96257188D01*
X161946258Y-96254000D01*
X162123742Y-96254000D01*
X162139769Y-96257188D01*
G37*
G36*
X114502500Y-97421000D02*
G01*
X112700500Y-97421000D01*
X112700500Y-95619000D01*
X114502500Y-95619000D01*
X114502500Y-97421000D01*
G37*
G36*
X116255012Y-95623927D02*
G01*
X116404312Y-95653624D01*
X116568284Y-95721544D01*
X116715854Y-95820147D01*
X116841353Y-95945646D01*
X116939956Y-96093216D01*
X117007876Y-96257188D01*
X117042500Y-96431259D01*
X117042500Y-96608741D01*
X117007876Y-96782812D01*
X116939956Y-96946784D01*
X116841353Y-97094354D01*
X116715854Y-97219853D01*
X116568284Y-97318456D01*
X116404312Y-97386376D01*
X116255012Y-97416073D01*
X116230242Y-97421000D01*
X116052758Y-97421000D01*
X116027988Y-97416073D01*
X115878688Y-97386376D01*
X115714716Y-97318456D01*
X115567146Y-97219853D01*
X115441647Y-97094354D01*
X115343044Y-96946784D01*
X115275124Y-96782812D01*
X115240500Y-96608741D01*
X115240500Y-96431259D01*
X115275124Y-96257188D01*
X115343044Y-96093216D01*
X115441647Y-95945646D01*
X115567146Y-95820147D01*
X115714716Y-95721544D01*
X115878688Y-95653624D01*
X116027988Y-95623927D01*
X116052758Y-95619000D01*
X116230242Y-95619000D01*
X116255012Y-95623927D01*
G37*
G36*
X118795012Y-95623927D02*
G01*
X118944312Y-95653624D01*
X119108284Y-95721544D01*
X119255854Y-95820147D01*
X119381353Y-95945646D01*
X119479956Y-96093216D01*
X119547876Y-96257188D01*
X119582500Y-96431259D01*
X119582500Y-96608741D01*
X119547876Y-96782812D01*
X119479956Y-96946784D01*
X119381353Y-97094354D01*
X119255854Y-97219853D01*
X119108284Y-97318456D01*
X118944312Y-97386376D01*
X118795012Y-97416073D01*
X118770242Y-97421000D01*
X118592758Y-97421000D01*
X118567988Y-97416073D01*
X118418688Y-97386376D01*
X118254716Y-97318456D01*
X118107146Y-97219853D01*
X117981647Y-97094354D01*
X117883044Y-96946784D01*
X117815124Y-96782812D01*
X117780500Y-96608741D01*
X117780500Y-96431259D01*
X117815124Y-96257188D01*
X117883044Y-96093216D01*
X117981647Y-95945646D01*
X118107146Y-95820147D01*
X118254716Y-95721544D01*
X118418688Y-95653624D01*
X118567988Y-95623927D01*
X118592758Y-95619000D01*
X118770242Y-95619000D01*
X118795012Y-95623927D01*
G37*
G36*
X127476355Y-95872140D02*
G01*
X127540118Y-95878420D01*
X127630904Y-95905960D01*
X127662836Y-95915646D01*
X127775925Y-95976094D01*
X127875054Y-96057446D01*
X127956406Y-96156575D01*
X128016854Y-96269664D01*
X128016855Y-96269668D01*
X128054080Y-96392382D01*
X128066649Y-96520000D01*
X128054080Y-96647618D01*
X128029631Y-96728216D01*
X128016854Y-96770336D01*
X127956406Y-96883425D01*
X127875054Y-96982554D01*
X127775925Y-97063906D01*
X127662836Y-97124354D01*
X127630904Y-97134040D01*
X127540118Y-97161580D01*
X127476355Y-97167860D01*
X127444474Y-97171000D01*
X126580526Y-97171000D01*
X126548645Y-97167860D01*
X126484882Y-97161580D01*
X126394096Y-97134040D01*
X126362164Y-97124354D01*
X126249075Y-97063906D01*
X126149946Y-96982554D01*
X126068594Y-96883425D01*
X126008146Y-96770336D01*
X125995369Y-96728216D01*
X125970920Y-96647618D01*
X125958351Y-96520000D01*
X125970920Y-96392382D01*
X126008145Y-96269668D01*
X126008146Y-96269664D01*
X126068594Y-96156575D01*
X126149946Y-96057446D01*
X126249075Y-95976094D01*
X126362164Y-95915646D01*
X126394096Y-95905960D01*
X126484882Y-95878420D01*
X126548645Y-95872140D01*
X126580526Y-95869000D01*
X127444474Y-95869000D01*
X127476355Y-95872140D01*
G37*
G36*
X142691355Y-95872140D02*
G01*
X142755118Y-95878420D01*
X142845904Y-95905960D01*
X142877836Y-95915646D01*
X142990925Y-95976094D01*
X143090054Y-96057446D01*
X143171406Y-96156575D01*
X143231854Y-96269664D01*
X143231855Y-96269668D01*
X143269080Y-96392382D01*
X143281649Y-96520000D01*
X143269080Y-96647618D01*
X143244631Y-96728216D01*
X143231854Y-96770336D01*
X143171406Y-96883425D01*
X143090054Y-96982554D01*
X142990925Y-97063906D01*
X142877836Y-97124354D01*
X142845904Y-97134040D01*
X142755118Y-97161580D01*
X142691355Y-97167860D01*
X142659474Y-97171000D01*
X141795526Y-97171000D01*
X141763645Y-97167860D01*
X141699882Y-97161580D01*
X141609096Y-97134040D01*
X141577164Y-97124354D01*
X141464075Y-97063906D01*
X141364946Y-96982554D01*
X141283594Y-96883425D01*
X141223146Y-96770336D01*
X141210369Y-96728216D01*
X141185920Y-96647618D01*
X141173351Y-96520000D01*
X141185920Y-96392382D01*
X141223145Y-96269668D01*
X141223146Y-96269664D01*
X141283594Y-96156575D01*
X141364946Y-96057446D01*
X141464075Y-95976094D01*
X141577164Y-95915646D01*
X141609096Y-95905960D01*
X141699882Y-95878420D01*
X141763645Y-95872140D01*
X141795526Y-95869000D01*
X142659474Y-95869000D01*
X142691355Y-95872140D01*
G37*
G36*
X116255012Y-93083927D02*
G01*
X116404312Y-93113624D01*
X116568284Y-93181544D01*
X116715854Y-93280147D01*
X116841353Y-93405646D01*
X116939956Y-93553216D01*
X117007876Y-93717188D01*
X117042500Y-93891259D01*
X117042500Y-94068741D01*
X117007876Y-94242812D01*
X116939956Y-94406784D01*
X116841353Y-94554354D01*
X116715854Y-94679853D01*
X116568284Y-94778456D01*
X116404312Y-94846376D01*
X116255012Y-94876073D01*
X116230242Y-94881000D01*
X116052758Y-94881000D01*
X116027988Y-94876073D01*
X115878688Y-94846376D01*
X115714716Y-94778456D01*
X115567146Y-94679853D01*
X115441647Y-94554354D01*
X115343044Y-94406784D01*
X115275124Y-94242812D01*
X115240500Y-94068741D01*
X115240500Y-93891259D01*
X115275124Y-93717188D01*
X115343044Y-93553216D01*
X115441647Y-93405646D01*
X115567146Y-93280147D01*
X115714716Y-93181544D01*
X115878688Y-93113624D01*
X116027988Y-93083927D01*
X116052758Y-93079000D01*
X116230242Y-93079000D01*
X116255012Y-93083927D01*
G37*
G36*
X118795012Y-93083927D02*
G01*
X118944312Y-93113624D01*
X119108284Y-93181544D01*
X119255854Y-93280147D01*
X119381353Y-93405646D01*
X119479956Y-93553216D01*
X119547876Y-93717188D01*
X119582500Y-93891259D01*
X119582500Y-94068741D01*
X119547876Y-94242812D01*
X119479956Y-94406784D01*
X119381353Y-94554354D01*
X119255854Y-94679853D01*
X119108284Y-94778456D01*
X118944312Y-94846376D01*
X118795012Y-94876073D01*
X118770242Y-94881000D01*
X118592758Y-94881000D01*
X118567988Y-94876073D01*
X118418688Y-94846376D01*
X118254716Y-94778456D01*
X118107146Y-94679853D01*
X117981647Y-94554354D01*
X117883044Y-94406784D01*
X117815124Y-94242812D01*
X117780500Y-94068741D01*
X117780500Y-93891259D01*
X117815124Y-93717188D01*
X117883044Y-93553216D01*
X117981647Y-93405646D01*
X118107146Y-93280147D01*
X118254716Y-93181544D01*
X118418688Y-93113624D01*
X118567988Y-93083927D01*
X118592758Y-93079000D01*
X118770242Y-93079000D01*
X118795012Y-93083927D01*
G37*
G36*
X114502500Y-94881000D02*
G01*
X112700500Y-94881000D01*
X112700500Y-93079000D01*
X114502500Y-93079000D01*
X114502500Y-94881000D01*
G37*
G36*
X127476355Y-93332140D02*
G01*
X127540118Y-93338420D01*
X127630904Y-93365960D01*
X127662836Y-93375646D01*
X127775925Y-93436094D01*
X127875054Y-93517446D01*
X127956406Y-93616575D01*
X128016854Y-93729664D01*
X128016855Y-93729668D01*
X128054080Y-93852382D01*
X128066649Y-93980000D01*
X128054080Y-94107618D01*
X128026540Y-94198404D01*
X128016854Y-94230336D01*
X127956406Y-94343425D01*
X127875054Y-94442554D01*
X127775925Y-94523906D01*
X127662836Y-94584354D01*
X127630904Y-94594040D01*
X127540118Y-94621580D01*
X127476355Y-94627860D01*
X127444474Y-94631000D01*
X126580526Y-94631000D01*
X126548645Y-94627860D01*
X126484882Y-94621580D01*
X126394096Y-94594040D01*
X126362164Y-94584354D01*
X126249075Y-94523906D01*
X126149946Y-94442554D01*
X126068594Y-94343425D01*
X126008146Y-94230336D01*
X125998460Y-94198404D01*
X125970920Y-94107618D01*
X125958351Y-93980000D01*
X125970920Y-93852382D01*
X126008145Y-93729668D01*
X126008146Y-93729664D01*
X126068594Y-93616575D01*
X126149946Y-93517446D01*
X126249075Y-93436094D01*
X126362164Y-93375646D01*
X126394096Y-93365960D01*
X126484882Y-93338420D01*
X126548645Y-93332140D01*
X126580526Y-93329000D01*
X127444474Y-93329000D01*
X127476355Y-93332140D01*
G37*
G36*
X142691355Y-93332140D02*
G01*
X142755118Y-93338420D01*
X142845904Y-93365960D01*
X142877836Y-93375646D01*
X142990925Y-93436094D01*
X143090054Y-93517446D01*
X143171406Y-93616575D01*
X143231854Y-93729664D01*
X143231855Y-93729668D01*
X143269080Y-93852382D01*
X143281649Y-93980000D01*
X143269080Y-94107618D01*
X143241540Y-94198404D01*
X143231854Y-94230336D01*
X143171406Y-94343425D01*
X143090054Y-94442554D01*
X142990925Y-94523906D01*
X142877836Y-94584354D01*
X142845904Y-94594040D01*
X142755118Y-94621580D01*
X142691355Y-94627860D01*
X142659474Y-94631000D01*
X141795526Y-94631000D01*
X141763645Y-94627860D01*
X141699882Y-94621580D01*
X141609096Y-94594040D01*
X141577164Y-94584354D01*
X141464075Y-94523906D01*
X141364946Y-94442554D01*
X141283594Y-94343425D01*
X141223146Y-94230336D01*
X141213460Y-94198404D01*
X141185920Y-94107618D01*
X141173351Y-93980000D01*
X141185920Y-93852382D01*
X141223145Y-93729668D01*
X141223146Y-93729664D01*
X141283594Y-93616575D01*
X141364946Y-93517446D01*
X141464075Y-93436094D01*
X141577164Y-93375646D01*
X141609096Y-93365960D01*
X141699882Y-93338420D01*
X141763645Y-93332140D01*
X141795526Y-93329000D01*
X142659474Y-93329000D01*
X142691355Y-93332140D01*
G37*
G36*
X118795012Y-90543927D02*
G01*
X118944312Y-90573624D01*
X119108284Y-90641544D01*
X119255854Y-90740147D01*
X119381353Y-90865646D01*
X119479956Y-91013216D01*
X119547876Y-91177188D01*
X119582500Y-91351259D01*
X119582500Y-91528741D01*
X119547876Y-91702812D01*
X119479956Y-91866784D01*
X119381353Y-92014354D01*
X119255854Y-92139853D01*
X119108284Y-92238456D01*
X118944312Y-92306376D01*
X118795012Y-92336073D01*
X118770242Y-92341000D01*
X118592758Y-92341000D01*
X118567988Y-92336073D01*
X118418688Y-92306376D01*
X118254716Y-92238456D01*
X118107146Y-92139853D01*
X117981647Y-92014354D01*
X117883044Y-91866784D01*
X117815124Y-91702812D01*
X117780500Y-91528741D01*
X117780500Y-91351259D01*
X117815124Y-91177188D01*
X117883044Y-91013216D01*
X117981647Y-90865646D01*
X118107146Y-90740147D01*
X118254716Y-90641544D01*
X118418688Y-90573624D01*
X118567988Y-90543927D01*
X118592758Y-90539000D01*
X118770242Y-90539000D01*
X118795012Y-90543927D01*
G37*
G36*
X114502500Y-92341000D02*
G01*
X112700500Y-92341000D01*
X112700500Y-90539000D01*
X114502500Y-90539000D01*
X114502500Y-92341000D01*
G37*
G36*
X116255012Y-90543927D02*
G01*
X116404312Y-90573624D01*
X116568284Y-90641544D01*
X116715854Y-90740147D01*
X116841353Y-90865646D01*
X116939956Y-91013216D01*
X117007876Y-91177188D01*
X117042500Y-91351259D01*
X117042500Y-91528741D01*
X117007876Y-91702812D01*
X116939956Y-91866784D01*
X116841353Y-92014354D01*
X116715854Y-92139853D01*
X116568284Y-92238456D01*
X116404312Y-92306376D01*
X116255012Y-92336073D01*
X116230242Y-92341000D01*
X116052758Y-92341000D01*
X116027988Y-92336073D01*
X115878688Y-92306376D01*
X115714716Y-92238456D01*
X115567146Y-92139853D01*
X115441647Y-92014354D01*
X115343044Y-91866784D01*
X115275124Y-91702812D01*
X115240500Y-91528741D01*
X115240500Y-91351259D01*
X115275124Y-91177188D01*
X115343044Y-91013216D01*
X115441647Y-90865646D01*
X115567146Y-90740147D01*
X115714716Y-90641544D01*
X115878688Y-90573624D01*
X116027988Y-90543927D01*
X116052758Y-90539000D01*
X116230242Y-90539000D01*
X116255012Y-90543927D01*
G37*
G36*
X142691355Y-90792140D02*
G01*
X142755118Y-90798420D01*
X142845904Y-90825960D01*
X142877836Y-90835646D01*
X142990925Y-90896094D01*
X143090054Y-90977446D01*
X143171406Y-91076575D01*
X143231854Y-91189664D01*
X143231855Y-91189668D01*
X143269080Y-91312382D01*
X143281649Y-91440000D01*
X143269080Y-91567618D01*
X143241540Y-91658404D01*
X143231854Y-91690336D01*
X143171406Y-91803425D01*
X143090054Y-91902554D01*
X142990925Y-91983906D01*
X142877836Y-92044354D01*
X142845904Y-92054040D01*
X142755118Y-92081580D01*
X142691355Y-92087860D01*
X142659474Y-92091000D01*
X141795526Y-92091000D01*
X141763645Y-92087860D01*
X141699882Y-92081580D01*
X141609096Y-92054040D01*
X141577164Y-92044354D01*
X141464075Y-91983906D01*
X141364946Y-91902554D01*
X141283594Y-91803425D01*
X141223146Y-91690336D01*
X141213460Y-91658404D01*
X141185920Y-91567618D01*
X141173351Y-91440000D01*
X141185920Y-91312382D01*
X141223145Y-91189668D01*
X141223146Y-91189664D01*
X141283594Y-91076575D01*
X141364946Y-90977446D01*
X141464075Y-90896094D01*
X141577164Y-90835646D01*
X141609096Y-90825960D01*
X141699882Y-90798420D01*
X141763645Y-90792140D01*
X141795526Y-90789000D01*
X142659474Y-90789000D01*
X142691355Y-90792140D01*
G37*
G36*
X127476355Y-90792140D02*
G01*
X127540118Y-90798420D01*
X127630904Y-90825960D01*
X127662836Y-90835646D01*
X127775925Y-90896094D01*
X127875054Y-90977446D01*
X127956406Y-91076575D01*
X128016854Y-91189664D01*
X128016855Y-91189668D01*
X128054080Y-91312382D01*
X128066649Y-91440000D01*
X128054080Y-91567618D01*
X128026540Y-91658404D01*
X128016854Y-91690336D01*
X127956406Y-91803425D01*
X127875054Y-91902554D01*
X127775925Y-91983906D01*
X127662836Y-92044354D01*
X127630904Y-92054040D01*
X127540118Y-92081580D01*
X127476355Y-92087860D01*
X127444474Y-92091000D01*
X126580526Y-92091000D01*
X126548645Y-92087860D01*
X126484882Y-92081580D01*
X126394096Y-92054040D01*
X126362164Y-92044354D01*
X126249075Y-91983906D01*
X126149946Y-91902554D01*
X126068594Y-91803425D01*
X126008146Y-91690336D01*
X125998460Y-91658404D01*
X125970920Y-91567618D01*
X125958351Y-91440000D01*
X125970920Y-91312382D01*
X126008145Y-91189668D01*
X126008146Y-91189664D01*
X126068594Y-91076575D01*
X126149946Y-90977446D01*
X126249075Y-90896094D01*
X126362164Y-90835646D01*
X126394096Y-90825960D01*
X126484882Y-90798420D01*
X126548645Y-90792140D01*
X126580526Y-90789000D01*
X127444474Y-90789000D01*
X127476355Y-90792140D01*
G37*
G36*
X118795012Y-88003927D02*
G01*
X118944312Y-88033624D01*
X119108284Y-88101544D01*
X119255854Y-88200147D01*
X119381353Y-88325646D01*
X119479956Y-88473216D01*
X119547876Y-88637188D01*
X119582500Y-88811259D01*
X119582500Y-88988741D01*
X119547876Y-89162812D01*
X119479956Y-89326784D01*
X119381353Y-89474354D01*
X119255854Y-89599853D01*
X119108284Y-89698456D01*
X118944312Y-89766376D01*
X118795012Y-89796073D01*
X118770242Y-89801000D01*
X118592758Y-89801000D01*
X118567988Y-89796073D01*
X118418688Y-89766376D01*
X118254716Y-89698456D01*
X118107146Y-89599853D01*
X117981647Y-89474354D01*
X117883044Y-89326784D01*
X117815124Y-89162812D01*
X117780500Y-88988741D01*
X117780500Y-88811259D01*
X117815124Y-88637188D01*
X117883044Y-88473216D01*
X117981647Y-88325646D01*
X118107146Y-88200147D01*
X118254716Y-88101544D01*
X118418688Y-88033624D01*
X118567988Y-88003927D01*
X118592758Y-87999000D01*
X118770242Y-87999000D01*
X118795012Y-88003927D01*
G37*
G36*
X116255012Y-88003927D02*
G01*
X116404312Y-88033624D01*
X116568284Y-88101544D01*
X116715854Y-88200147D01*
X116841353Y-88325646D01*
X116939956Y-88473216D01*
X117007876Y-88637188D01*
X117042500Y-88811259D01*
X117042500Y-88988741D01*
X117007876Y-89162812D01*
X116939956Y-89326784D01*
X116841353Y-89474354D01*
X116715854Y-89599853D01*
X116568284Y-89698456D01*
X116404312Y-89766376D01*
X116255012Y-89796073D01*
X116230242Y-89801000D01*
X116052758Y-89801000D01*
X116027988Y-89796073D01*
X115878688Y-89766376D01*
X115714716Y-89698456D01*
X115567146Y-89599853D01*
X115441647Y-89474354D01*
X115343044Y-89326784D01*
X115275124Y-89162812D01*
X115240500Y-88988741D01*
X115240500Y-88811259D01*
X115275124Y-88637188D01*
X115343044Y-88473216D01*
X115441647Y-88325646D01*
X115567146Y-88200147D01*
X115714716Y-88101544D01*
X115878688Y-88033624D01*
X116027988Y-88003927D01*
X116052758Y-87999000D01*
X116230242Y-87999000D01*
X116255012Y-88003927D01*
G37*
G36*
X114502500Y-89801000D02*
G01*
X112700500Y-89801000D01*
X112700500Y-87999000D01*
X114502500Y-87999000D01*
X114502500Y-89801000D01*
G37*
G36*
X127476355Y-88252140D02*
G01*
X127540118Y-88258420D01*
X127630904Y-88285960D01*
X127662836Y-88295646D01*
X127775925Y-88356094D01*
X127875054Y-88437446D01*
X127956406Y-88536575D01*
X128016854Y-88649664D01*
X128016855Y-88649668D01*
X128054080Y-88772382D01*
X128066649Y-88900000D01*
X128054080Y-89027618D01*
X128053023Y-89031101D01*
X128016854Y-89150336D01*
X127956406Y-89263425D01*
X127875054Y-89362554D01*
X127775925Y-89443906D01*
X127662836Y-89504354D01*
X127630904Y-89514040D01*
X127540118Y-89541580D01*
X127476355Y-89547860D01*
X127444474Y-89551000D01*
X126580526Y-89551000D01*
X126548645Y-89547860D01*
X126484882Y-89541580D01*
X126394096Y-89514040D01*
X126362164Y-89504354D01*
X126249075Y-89443906D01*
X126149946Y-89362554D01*
X126068594Y-89263425D01*
X126008146Y-89150336D01*
X125971977Y-89031101D01*
X125970920Y-89027618D01*
X125958351Y-88900000D01*
X125970920Y-88772382D01*
X126008145Y-88649668D01*
X126008146Y-88649664D01*
X126068594Y-88536575D01*
X126149946Y-88437446D01*
X126249075Y-88356094D01*
X126362164Y-88295646D01*
X126394096Y-88285960D01*
X126484882Y-88258420D01*
X126548645Y-88252140D01*
X126580526Y-88249000D01*
X127444474Y-88249000D01*
X127476355Y-88252140D01*
G37*
G36*
X142691355Y-88252140D02*
G01*
X142755118Y-88258420D01*
X142845904Y-88285960D01*
X142877836Y-88295646D01*
X142990925Y-88356094D01*
X143090054Y-88437446D01*
X143171406Y-88536575D01*
X143231854Y-88649664D01*
X143231855Y-88649668D01*
X143269080Y-88772382D01*
X143281649Y-88900000D01*
X143269080Y-89027618D01*
X143268023Y-89031101D01*
X143231854Y-89150336D01*
X143171406Y-89263425D01*
X143090054Y-89362554D01*
X142990925Y-89443906D01*
X142877836Y-89504354D01*
X142845904Y-89514040D01*
X142755118Y-89541580D01*
X142691355Y-89547860D01*
X142659474Y-89551000D01*
X141795526Y-89551000D01*
X141763645Y-89547860D01*
X141699882Y-89541580D01*
X141609096Y-89514040D01*
X141577164Y-89504354D01*
X141464075Y-89443906D01*
X141364946Y-89362554D01*
X141283594Y-89263425D01*
X141223146Y-89150336D01*
X141186977Y-89031101D01*
X141185920Y-89027618D01*
X141173351Y-88900000D01*
X141185920Y-88772382D01*
X141223145Y-88649668D01*
X141223146Y-88649664D01*
X141283594Y-88536575D01*
X141364946Y-88437446D01*
X141464075Y-88356094D01*
X141577164Y-88295646D01*
X141609096Y-88285960D01*
X141699882Y-88258420D01*
X141763645Y-88252140D01*
X141795526Y-88249000D01*
X142659474Y-88249000D01*
X142691355Y-88252140D01*
G37*
G36*
X157720142Y-86594242D02*
G01*
X157868101Y-86655529D01*
X158001255Y-86744499D01*
X158114501Y-86857745D01*
X158203471Y-86990899D01*
X158264758Y-87138858D01*
X158296000Y-87295925D01*
X158296000Y-87456075D01*
X158264758Y-87613142D01*
X158203471Y-87761101D01*
X158114501Y-87894255D01*
X158086144Y-87922612D01*
X158070599Y-87941554D01*
X158059048Y-87963165D01*
X158051935Y-87986614D01*
X158049533Y-88011000D01*
X158051935Y-88035386D01*
X158059048Y-88058835D01*
X158070599Y-88080446D01*
X158086144Y-88099388D01*
X158114501Y-88127745D01*
X158203471Y-88260899D01*
X158264758Y-88408858D01*
X158296000Y-88565925D01*
X158296000Y-88726075D01*
X158264758Y-88883142D01*
X158203471Y-89031101D01*
X158114501Y-89164255D01*
X158001255Y-89277501D01*
X157868101Y-89366471D01*
X157720142Y-89427758D01*
X157563075Y-89459000D01*
X157402925Y-89459000D01*
X157245858Y-89427758D01*
X157097899Y-89366471D01*
X156964745Y-89277501D01*
X156851499Y-89164255D01*
X156762529Y-89031101D01*
X156701242Y-88883142D01*
X156670000Y-88726075D01*
X156670000Y-88565925D01*
X156701242Y-88408858D01*
X156762529Y-88260899D01*
X156851499Y-88127745D01*
X156879856Y-88099388D01*
X156895401Y-88080446D01*
X156906952Y-88058835D01*
X156914065Y-88035386D01*
X156916467Y-88011000D01*
X156914065Y-87986614D01*
X156906952Y-87963165D01*
X156895401Y-87941554D01*
X156879856Y-87922612D01*
X156851499Y-87894255D01*
X156762529Y-87761101D01*
X156701242Y-87613142D01*
X156670000Y-87456075D01*
X156670000Y-87295925D01*
X156701242Y-87138858D01*
X156762529Y-86990899D01*
X156851499Y-86857745D01*
X156964745Y-86744499D01*
X157097899Y-86655529D01*
X157245858Y-86594242D01*
X157402925Y-86563000D01*
X157563075Y-86563000D01*
X157720142Y-86594242D01*
G37*
G36*
X160558993Y-86570203D02*
G01*
X160623411Y-86589744D01*
X160682781Y-86621478D01*
X160734817Y-86664183D01*
X160777522Y-86716219D01*
X160809256Y-86775589D01*
X160828797Y-86840007D01*
X160836000Y-86913140D01*
X160836000Y-87838860D01*
X160828797Y-87911991D01*
X160809770Y-87974715D01*
X160804990Y-87998748D01*
X160804990Y-88023252D01*
X160809770Y-88047285D01*
X160828797Y-88110009D01*
X160836000Y-88183140D01*
X160836000Y-89108860D01*
X160828797Y-89181993D01*
X160809256Y-89246411D01*
X160777522Y-89305781D01*
X160734817Y-89357817D01*
X160682781Y-89400522D01*
X160623411Y-89432256D01*
X160558993Y-89451797D01*
X160485860Y-89459000D01*
X159560140Y-89459000D01*
X159487007Y-89451797D01*
X159422589Y-89432256D01*
X159363219Y-89400522D01*
X159311183Y-89357817D01*
X159268478Y-89305781D01*
X159236744Y-89246411D01*
X159217203Y-89181993D01*
X159210000Y-89108860D01*
X159210000Y-88183140D01*
X159217203Y-88110009D01*
X159236230Y-88047285D01*
X159241010Y-88023252D01*
X159241010Y-87998748D01*
X159236230Y-87974715D01*
X159217203Y-87911991D01*
X159210000Y-87838860D01*
X159210000Y-86913140D01*
X159217203Y-86840007D01*
X159236744Y-86775589D01*
X159268478Y-86716219D01*
X159311183Y-86664183D01*
X159363219Y-86621478D01*
X159422589Y-86589744D01*
X159487007Y-86570203D01*
X159560140Y-86563000D01*
X160485860Y-86563000D01*
X160558993Y-86570203D01*
G37*
G36*
X162800142Y-86594242D02*
G01*
X162948101Y-86655529D01*
X163081255Y-86744499D01*
X163194501Y-86857745D01*
X163283471Y-86990899D01*
X163344758Y-87138858D01*
X163376000Y-87295925D01*
X163376000Y-87456075D01*
X163344758Y-87613142D01*
X163283471Y-87761101D01*
X163194501Y-87894255D01*
X163166144Y-87922612D01*
X163150599Y-87941554D01*
X163139048Y-87963165D01*
X163131935Y-87986614D01*
X163129533Y-88011000D01*
X163131935Y-88035386D01*
X163139048Y-88058835D01*
X163150599Y-88080446D01*
X163166144Y-88099388D01*
X163194501Y-88127745D01*
X163283471Y-88260899D01*
X163344758Y-88408858D01*
X163376000Y-88565925D01*
X163376000Y-88726075D01*
X163344758Y-88883142D01*
X163283471Y-89031101D01*
X163194501Y-89164255D01*
X163081255Y-89277501D01*
X162948101Y-89366471D01*
X162800142Y-89427758D01*
X162643075Y-89459000D01*
X162482925Y-89459000D01*
X162325858Y-89427758D01*
X162177899Y-89366471D01*
X162044745Y-89277501D01*
X161931499Y-89164255D01*
X161842529Y-89031101D01*
X161781242Y-88883142D01*
X161750000Y-88726075D01*
X161750000Y-88565925D01*
X161781242Y-88408858D01*
X161842529Y-88260899D01*
X161931499Y-88127745D01*
X161959856Y-88099388D01*
X161975401Y-88080446D01*
X161986952Y-88058835D01*
X161994065Y-88035386D01*
X161996467Y-88011000D01*
X161994065Y-87986614D01*
X161986952Y-87963165D01*
X161975401Y-87941554D01*
X161959856Y-87922612D01*
X161931499Y-87894255D01*
X161842529Y-87761101D01*
X161781242Y-87613142D01*
X161750000Y-87456075D01*
X161750000Y-87295925D01*
X161781242Y-87138858D01*
X161842529Y-86990899D01*
X161931499Y-86857745D01*
X162044745Y-86744499D01*
X162177899Y-86655529D01*
X162325858Y-86594242D01*
X162482925Y-86563000D01*
X162643075Y-86563000D01*
X162800142Y-86594242D01*
G37*
G36*
X167880142Y-86594242D02*
G01*
X168028101Y-86655529D01*
X168161255Y-86744499D01*
X168274501Y-86857745D01*
X168363471Y-86990899D01*
X168424758Y-87138858D01*
X168456000Y-87295925D01*
X168456000Y-87456075D01*
X168424758Y-87613142D01*
X168363471Y-87761101D01*
X168274501Y-87894255D01*
X168246144Y-87922612D01*
X168230599Y-87941554D01*
X168219048Y-87963165D01*
X168211935Y-87986614D01*
X168209533Y-88011000D01*
X168211935Y-88035386D01*
X168219048Y-88058835D01*
X168230599Y-88080446D01*
X168246144Y-88099388D01*
X168274501Y-88127745D01*
X168363471Y-88260899D01*
X168424758Y-88408858D01*
X168456000Y-88565925D01*
X168456000Y-88726075D01*
X168424758Y-88883142D01*
X168363471Y-89031101D01*
X168274501Y-89164255D01*
X168161255Y-89277501D01*
X168028101Y-89366471D01*
X167880142Y-89427758D01*
X167723075Y-89459000D01*
X167562925Y-89459000D01*
X167405858Y-89427758D01*
X167257899Y-89366471D01*
X167124745Y-89277501D01*
X167011499Y-89164255D01*
X166922529Y-89031101D01*
X166861242Y-88883142D01*
X166830000Y-88726075D01*
X166830000Y-88565925D01*
X166861242Y-88408858D01*
X166922529Y-88260899D01*
X167011499Y-88127745D01*
X167039856Y-88099388D01*
X167055401Y-88080446D01*
X167066952Y-88058835D01*
X167074065Y-88035386D01*
X167076467Y-88011000D01*
X167074065Y-87986614D01*
X167066952Y-87963165D01*
X167055401Y-87941554D01*
X167039856Y-87922612D01*
X167011499Y-87894255D01*
X166922529Y-87761101D01*
X166861242Y-87613142D01*
X166830000Y-87456075D01*
X166830000Y-87295925D01*
X166861242Y-87138858D01*
X166922529Y-86990899D01*
X167011499Y-86857745D01*
X167124745Y-86744499D01*
X167257899Y-86655529D01*
X167405858Y-86594242D01*
X167562925Y-86563000D01*
X167723075Y-86563000D01*
X167880142Y-86594242D01*
G37*
G36*
X165340142Y-86594242D02*
G01*
X165488101Y-86655529D01*
X165621255Y-86744499D01*
X165734501Y-86857745D01*
X165823471Y-86990899D01*
X165884758Y-87138858D01*
X165916000Y-87295925D01*
X165916000Y-87456075D01*
X165884758Y-87613142D01*
X165823471Y-87761101D01*
X165734501Y-87894255D01*
X165706144Y-87922612D01*
X165690599Y-87941554D01*
X165679048Y-87963165D01*
X165671935Y-87986614D01*
X165669533Y-88011000D01*
X165671935Y-88035386D01*
X165679048Y-88058835D01*
X165690599Y-88080446D01*
X165706144Y-88099388D01*
X165734501Y-88127745D01*
X165823471Y-88260899D01*
X165884758Y-88408858D01*
X165916000Y-88565925D01*
X165916000Y-88726075D01*
X165884758Y-88883142D01*
X165823471Y-89031101D01*
X165734501Y-89164255D01*
X165621255Y-89277501D01*
X165488101Y-89366471D01*
X165340142Y-89427758D01*
X165183075Y-89459000D01*
X165022925Y-89459000D01*
X164865858Y-89427758D01*
X164717899Y-89366471D01*
X164584745Y-89277501D01*
X164471499Y-89164255D01*
X164382529Y-89031101D01*
X164321242Y-88883142D01*
X164290000Y-88726075D01*
X164290000Y-88565925D01*
X164321242Y-88408858D01*
X164382529Y-88260899D01*
X164471499Y-88127745D01*
X164499856Y-88099388D01*
X164515401Y-88080446D01*
X164526952Y-88058835D01*
X164534065Y-88035386D01*
X164536467Y-88011000D01*
X164534065Y-87986614D01*
X164526952Y-87963165D01*
X164515401Y-87941554D01*
X164499856Y-87922612D01*
X164471499Y-87894255D01*
X164382529Y-87761101D01*
X164321242Y-87613142D01*
X164290000Y-87456075D01*
X164290000Y-87295925D01*
X164321242Y-87138858D01*
X164382529Y-86990899D01*
X164471499Y-86857745D01*
X164584745Y-86744499D01*
X164717899Y-86655529D01*
X164865858Y-86594242D01*
X165022925Y-86563000D01*
X165183075Y-86563000D01*
X165340142Y-86594242D01*
G37*
G36*
X114502500Y-87261000D02*
G01*
X112700500Y-87261000D01*
X112700500Y-85459000D01*
X114502500Y-85459000D01*
X114502500Y-87261000D01*
G37*
G36*
X116255012Y-85463927D02*
G01*
X116404312Y-85493624D01*
X116568284Y-85561544D01*
X116715854Y-85660147D01*
X116841353Y-85785646D01*
X116939956Y-85933216D01*
X117007876Y-86097188D01*
X117042500Y-86271259D01*
X117042500Y-86448741D01*
X117007876Y-86622812D01*
X116939956Y-86786784D01*
X116841353Y-86934354D01*
X116715854Y-87059853D01*
X116568284Y-87158456D01*
X116404312Y-87226376D01*
X116255012Y-87256073D01*
X116230242Y-87261000D01*
X116052758Y-87261000D01*
X116027988Y-87256073D01*
X115878688Y-87226376D01*
X115714716Y-87158456D01*
X115567146Y-87059853D01*
X115441647Y-86934354D01*
X115343044Y-86786784D01*
X115275124Y-86622812D01*
X115240500Y-86448741D01*
X115240500Y-86271259D01*
X115275124Y-86097188D01*
X115343044Y-85933216D01*
X115441647Y-85785646D01*
X115567146Y-85660147D01*
X115714716Y-85561544D01*
X115878688Y-85493624D01*
X116027988Y-85463927D01*
X116052758Y-85459000D01*
X116230242Y-85459000D01*
X116255012Y-85463927D01*
G37*
G36*
X118795012Y-85463927D02*
G01*
X118944312Y-85493624D01*
X119108284Y-85561544D01*
X119255854Y-85660147D01*
X119381353Y-85785646D01*
X119479956Y-85933216D01*
X119547876Y-86097188D01*
X119582500Y-86271259D01*
X119582500Y-86448741D01*
X119547876Y-86622812D01*
X119479956Y-86786784D01*
X119381353Y-86934354D01*
X119255854Y-87059853D01*
X119108284Y-87158456D01*
X118944312Y-87226376D01*
X118795012Y-87256073D01*
X118770242Y-87261000D01*
X118592758Y-87261000D01*
X118567988Y-87256073D01*
X118418688Y-87226376D01*
X118254716Y-87158456D01*
X118107146Y-87059853D01*
X117981647Y-86934354D01*
X117883044Y-86786784D01*
X117815124Y-86622812D01*
X117780500Y-86448741D01*
X117780500Y-86271259D01*
X117815124Y-86097188D01*
X117883044Y-85933216D01*
X117981647Y-85785646D01*
X118107146Y-85660147D01*
X118254716Y-85561544D01*
X118418688Y-85493624D01*
X118567988Y-85463927D01*
X118592758Y-85459000D01*
X118770242Y-85459000D01*
X118795012Y-85463927D01*
G37*
G36*
X142691355Y-85712140D02*
G01*
X142755118Y-85718420D01*
X142845904Y-85745960D01*
X142877836Y-85755646D01*
X142990925Y-85816094D01*
X143090054Y-85897446D01*
X143171406Y-85996575D01*
X143231854Y-86109664D01*
X143231855Y-86109668D01*
X143269080Y-86232382D01*
X143281649Y-86360000D01*
X143269080Y-86487618D01*
X143246213Y-86563000D01*
X143231854Y-86610336D01*
X143171406Y-86723425D01*
X143090054Y-86822554D01*
X142990925Y-86903906D01*
X142877836Y-86964354D01*
X142845904Y-86974040D01*
X142755118Y-87001580D01*
X142691355Y-87007860D01*
X142659474Y-87011000D01*
X141795526Y-87011000D01*
X141763645Y-87007860D01*
X141699882Y-87001580D01*
X141609096Y-86974040D01*
X141577164Y-86964354D01*
X141464075Y-86903906D01*
X141364946Y-86822554D01*
X141283594Y-86723425D01*
X141223146Y-86610336D01*
X141208787Y-86563000D01*
X141185920Y-86487618D01*
X141173351Y-86360000D01*
X141185920Y-86232382D01*
X141223145Y-86109668D01*
X141223146Y-86109664D01*
X141283594Y-85996575D01*
X141364946Y-85897446D01*
X141464075Y-85816094D01*
X141577164Y-85755646D01*
X141609096Y-85745960D01*
X141699882Y-85718420D01*
X141763645Y-85712140D01*
X141795526Y-85709000D01*
X142659474Y-85709000D01*
X142691355Y-85712140D01*
G37*
G36*
X127476355Y-85712140D02*
G01*
X127540118Y-85718420D01*
X127630904Y-85745960D01*
X127662836Y-85755646D01*
X127775925Y-85816094D01*
X127875054Y-85897446D01*
X127956406Y-85996575D01*
X128016854Y-86109664D01*
X128016855Y-86109668D01*
X128054080Y-86232382D01*
X128066649Y-86360000D01*
X128054080Y-86487618D01*
X128031213Y-86563000D01*
X128016854Y-86610336D01*
X127956406Y-86723425D01*
X127875054Y-86822554D01*
X127775925Y-86903906D01*
X127662836Y-86964354D01*
X127630904Y-86974040D01*
X127540118Y-87001580D01*
X127476355Y-87007860D01*
X127444474Y-87011000D01*
X126580526Y-87011000D01*
X126548645Y-87007860D01*
X126484882Y-87001580D01*
X126394096Y-86974040D01*
X126362164Y-86964354D01*
X126249075Y-86903906D01*
X126149946Y-86822554D01*
X126068594Y-86723425D01*
X126008146Y-86610336D01*
X125993787Y-86563000D01*
X125970920Y-86487618D01*
X125958351Y-86360000D01*
X125970920Y-86232382D01*
X126008145Y-86109668D01*
X126008146Y-86109664D01*
X126068594Y-85996575D01*
X126149946Y-85897446D01*
X126249075Y-85816094D01*
X126362164Y-85755646D01*
X126394096Y-85745960D01*
X126484882Y-85718420D01*
X126548645Y-85712140D01*
X126580526Y-85709000D01*
X127444474Y-85709000D01*
X127476355Y-85712140D01*
G37*
G36*
X118795012Y-82923927D02*
G01*
X118944312Y-82953624D01*
X119108284Y-83021544D01*
X119255854Y-83120147D01*
X119381353Y-83245646D01*
X119479956Y-83393216D01*
X119547876Y-83557188D01*
X119582500Y-83731259D01*
X119582500Y-83908741D01*
X119547876Y-84082812D01*
X119479956Y-84246784D01*
X119381353Y-84394354D01*
X119255854Y-84519853D01*
X119108284Y-84618456D01*
X118944312Y-84686376D01*
X118795012Y-84716073D01*
X118770242Y-84721000D01*
X118592758Y-84721000D01*
X118567988Y-84716073D01*
X118418688Y-84686376D01*
X118254716Y-84618456D01*
X118107146Y-84519853D01*
X117981647Y-84394354D01*
X117883044Y-84246784D01*
X117815124Y-84082812D01*
X117780500Y-83908741D01*
X117780500Y-83731259D01*
X117815124Y-83557188D01*
X117883044Y-83393216D01*
X117981647Y-83245646D01*
X118107146Y-83120147D01*
X118254716Y-83021544D01*
X118418688Y-82953624D01*
X118567988Y-82923927D01*
X118592758Y-82919000D01*
X118770242Y-82919000D01*
X118795012Y-82923927D01*
G37*
G36*
X114502500Y-84721000D02*
G01*
X112700500Y-84721000D01*
X112700500Y-82919000D01*
X114502500Y-82919000D01*
X114502500Y-84721000D01*
G37*
G36*
X116255012Y-82923927D02*
G01*
X116404312Y-82953624D01*
X116568284Y-83021544D01*
X116715854Y-83120147D01*
X116841353Y-83245646D01*
X116939956Y-83393216D01*
X117007876Y-83557188D01*
X117042500Y-83731259D01*
X117042500Y-83908741D01*
X117007876Y-84082812D01*
X116939956Y-84246784D01*
X116841353Y-84394354D01*
X116715854Y-84519853D01*
X116568284Y-84618456D01*
X116404312Y-84686376D01*
X116255012Y-84716073D01*
X116230242Y-84721000D01*
X116052758Y-84721000D01*
X116027988Y-84716073D01*
X115878688Y-84686376D01*
X115714716Y-84618456D01*
X115567146Y-84519853D01*
X115441647Y-84394354D01*
X115343044Y-84246784D01*
X115275124Y-84082812D01*
X115240500Y-83908741D01*
X115240500Y-83731259D01*
X115275124Y-83557188D01*
X115343044Y-83393216D01*
X115441647Y-83245646D01*
X115567146Y-83120147D01*
X115714716Y-83021544D01*
X115878688Y-82953624D01*
X116027988Y-82923927D01*
X116052758Y-82919000D01*
X116230242Y-82919000D01*
X116255012Y-82923927D01*
G37*
G36*
X127476355Y-83172140D02*
G01*
X127540118Y-83178420D01*
X127630904Y-83205960D01*
X127662836Y-83215646D01*
X127775925Y-83276094D01*
X127875054Y-83357446D01*
X127956406Y-83456575D01*
X128016854Y-83569664D01*
X128016855Y-83569668D01*
X128054080Y-83692382D01*
X128066649Y-83820000D01*
X128054080Y-83947618D01*
X128026540Y-84038404D01*
X128016854Y-84070336D01*
X127956406Y-84183425D01*
X127875054Y-84282554D01*
X127775925Y-84363906D01*
X127662836Y-84424354D01*
X127630904Y-84434040D01*
X127540118Y-84461580D01*
X127476355Y-84467860D01*
X127444474Y-84471000D01*
X126580526Y-84471000D01*
X126548645Y-84467860D01*
X126484882Y-84461580D01*
X126394096Y-84434040D01*
X126362164Y-84424354D01*
X126249075Y-84363906D01*
X126149946Y-84282554D01*
X126068594Y-84183425D01*
X126008146Y-84070336D01*
X125998460Y-84038404D01*
X125970920Y-83947618D01*
X125958351Y-83820000D01*
X125970920Y-83692382D01*
X126008145Y-83569668D01*
X126008146Y-83569664D01*
X126068594Y-83456575D01*
X126149946Y-83357446D01*
X126249075Y-83276094D01*
X126362164Y-83215646D01*
X126394096Y-83205960D01*
X126484882Y-83178420D01*
X126548645Y-83172140D01*
X126580526Y-83169000D01*
X127444474Y-83169000D01*
X127476355Y-83172140D01*
G37*
G36*
X142691355Y-83172140D02*
G01*
X142755118Y-83178420D01*
X142845904Y-83205960D01*
X142877836Y-83215646D01*
X142990925Y-83276094D01*
X143090054Y-83357446D01*
X143171406Y-83456575D01*
X143231854Y-83569664D01*
X143231855Y-83569668D01*
X143269080Y-83692382D01*
X143281649Y-83820000D01*
X143269080Y-83947618D01*
X143241540Y-84038404D01*
X143231854Y-84070336D01*
X143171406Y-84183425D01*
X143090054Y-84282554D01*
X142990925Y-84363906D01*
X142877836Y-84424354D01*
X142845904Y-84434040D01*
X142755118Y-84461580D01*
X142691355Y-84467860D01*
X142659474Y-84471000D01*
X141795526Y-84471000D01*
X141763645Y-84467860D01*
X141699882Y-84461580D01*
X141609096Y-84434040D01*
X141577164Y-84424354D01*
X141464075Y-84363906D01*
X141364946Y-84282554D01*
X141283594Y-84183425D01*
X141223146Y-84070336D01*
X141213460Y-84038404D01*
X141185920Y-83947618D01*
X141173351Y-83820000D01*
X141185920Y-83692382D01*
X141223145Y-83569668D01*
X141223146Y-83569664D01*
X141283594Y-83456575D01*
X141364946Y-83357446D01*
X141464075Y-83276094D01*
X141577164Y-83215646D01*
X141609096Y-83205960D01*
X141699882Y-83178420D01*
X141763645Y-83172140D01*
X141795526Y-83169000D01*
X142659474Y-83169000D01*
X142691355Y-83172140D01*
G37*
G36*
X118795012Y-80383927D02*
G01*
X118944312Y-80413624D01*
X119108284Y-80481544D01*
X119255854Y-80580147D01*
X119381353Y-80705646D01*
X119479956Y-80853216D01*
X119547876Y-81017188D01*
X119582500Y-81191259D01*
X119582500Y-81368741D01*
X119547876Y-81542812D01*
X119479956Y-81706784D01*
X119381353Y-81854354D01*
X119255854Y-81979853D01*
X119108284Y-82078456D01*
X118944312Y-82146376D01*
X118795012Y-82176073D01*
X118770242Y-82181000D01*
X118592758Y-82181000D01*
X118567988Y-82176073D01*
X118418688Y-82146376D01*
X118254716Y-82078456D01*
X118107146Y-81979853D01*
X117981647Y-81854354D01*
X117883044Y-81706784D01*
X117815124Y-81542812D01*
X117780500Y-81368741D01*
X117780500Y-81191259D01*
X117815124Y-81017188D01*
X117883044Y-80853216D01*
X117981647Y-80705646D01*
X118107146Y-80580147D01*
X118254716Y-80481544D01*
X118418688Y-80413624D01*
X118567988Y-80383927D01*
X118592758Y-80379000D01*
X118770242Y-80379000D01*
X118795012Y-80383927D01*
G37*
G36*
X123240012Y-80383927D02*
G01*
X123389312Y-80413624D01*
X123553284Y-80481544D01*
X123700854Y-80580147D01*
X123826353Y-80705646D01*
X123924956Y-80853216D01*
X123992876Y-81017188D01*
X124027500Y-81191259D01*
X124027500Y-81368741D01*
X123992876Y-81542812D01*
X123924956Y-81706784D01*
X123826353Y-81854354D01*
X123700854Y-81979853D01*
X123553284Y-82078456D01*
X123389312Y-82146376D01*
X123240012Y-82176073D01*
X123215242Y-82181000D01*
X123037758Y-82181000D01*
X123012988Y-82176073D01*
X122863688Y-82146376D01*
X122699716Y-82078456D01*
X122552146Y-81979853D01*
X122426647Y-81854354D01*
X122328044Y-81706784D01*
X122260124Y-81542812D01*
X122225500Y-81368741D01*
X122225500Y-81191259D01*
X122260124Y-81017188D01*
X122328044Y-80853216D01*
X122426647Y-80705646D01*
X122552146Y-80580147D01*
X122699716Y-80481544D01*
X122863688Y-80413624D01*
X123012988Y-80383927D01*
X123037758Y-80379000D01*
X123215242Y-80379000D01*
X123240012Y-80383927D01*
G37*
G36*
X114502500Y-82181000D02*
G01*
X112700500Y-82181000D01*
X112700500Y-80379000D01*
X114502500Y-80379000D01*
X114502500Y-82181000D01*
G37*
G36*
X116255012Y-80383927D02*
G01*
X116404312Y-80413624D01*
X116568284Y-80481544D01*
X116715854Y-80580147D01*
X116841353Y-80705646D01*
X116939956Y-80853216D01*
X117007876Y-81017188D01*
X117042500Y-81191259D01*
X117042500Y-81368741D01*
X117007876Y-81542812D01*
X116939956Y-81706784D01*
X116841353Y-81854354D01*
X116715854Y-81979853D01*
X116568284Y-82078456D01*
X116404312Y-82146376D01*
X116255012Y-82176073D01*
X116230242Y-82181000D01*
X116052758Y-82181000D01*
X116027988Y-82176073D01*
X115878688Y-82146376D01*
X115714716Y-82078456D01*
X115567146Y-81979853D01*
X115441647Y-81854354D01*
X115343044Y-81706784D01*
X115275124Y-81542812D01*
X115240500Y-81368741D01*
X115240500Y-81191259D01*
X115275124Y-81017188D01*
X115343044Y-80853216D01*
X115441647Y-80705646D01*
X115567146Y-80580147D01*
X115714716Y-80481544D01*
X115878688Y-80413624D01*
X116027988Y-80383927D01*
X116052758Y-80379000D01*
X116230242Y-80379000D01*
X116255012Y-80383927D01*
G37*
G36*
X142691355Y-80632140D02*
G01*
X142755118Y-80638420D01*
X142845904Y-80665960D01*
X142877836Y-80675646D01*
X142990925Y-80736094D01*
X143090054Y-80817446D01*
X143171406Y-80916575D01*
X143231854Y-81029664D01*
X143231855Y-81029668D01*
X143269080Y-81152382D01*
X143281649Y-81280000D01*
X143269080Y-81407618D01*
X143241540Y-81498404D01*
X143231854Y-81530336D01*
X143171406Y-81643425D01*
X143090054Y-81742554D01*
X142990925Y-81823906D01*
X142877836Y-81884354D01*
X142845904Y-81894040D01*
X142755118Y-81921580D01*
X142691355Y-81927860D01*
X142659474Y-81931000D01*
X141795526Y-81931000D01*
X141763645Y-81927860D01*
X141699882Y-81921580D01*
X141609096Y-81894040D01*
X141577164Y-81884354D01*
X141464075Y-81823906D01*
X141364946Y-81742554D01*
X141283594Y-81643425D01*
X141223146Y-81530336D01*
X141213460Y-81498404D01*
X141185920Y-81407618D01*
X141173351Y-81280000D01*
X141185920Y-81152382D01*
X141223145Y-81029668D01*
X141223146Y-81029664D01*
X141283594Y-80916575D01*
X141364946Y-80817446D01*
X141464075Y-80736094D01*
X141577164Y-80675646D01*
X141609096Y-80665960D01*
X141699882Y-80638420D01*
X141763645Y-80632140D01*
X141795526Y-80629000D01*
X142659474Y-80629000D01*
X142691355Y-80632140D01*
G37*
G36*
X127476355Y-80632140D02*
G01*
X127540118Y-80638420D01*
X127630904Y-80665960D01*
X127662836Y-80675646D01*
X127775925Y-80736094D01*
X127875054Y-80817446D01*
X127956406Y-80916575D01*
X128016854Y-81029664D01*
X128016855Y-81029668D01*
X128054080Y-81152382D01*
X128066649Y-81280000D01*
X128054080Y-81407618D01*
X128026540Y-81498404D01*
X128016854Y-81530336D01*
X127956406Y-81643425D01*
X127875054Y-81742554D01*
X127775925Y-81823906D01*
X127662836Y-81884354D01*
X127630904Y-81894040D01*
X127540118Y-81921580D01*
X127476355Y-81927860D01*
X127444474Y-81931000D01*
X126580526Y-81931000D01*
X126548645Y-81927860D01*
X126484882Y-81921580D01*
X126394096Y-81894040D01*
X126362164Y-81884354D01*
X126249075Y-81823906D01*
X126149946Y-81742554D01*
X126068594Y-81643425D01*
X126008146Y-81530336D01*
X125998460Y-81498404D01*
X125970920Y-81407618D01*
X125958351Y-81280000D01*
X125970920Y-81152382D01*
X126008145Y-81029668D01*
X126008146Y-81029664D01*
X126068594Y-80916575D01*
X126149946Y-80817446D01*
X126249075Y-80736094D01*
X126362164Y-80675646D01*
X126394096Y-80665960D01*
X126484882Y-80638420D01*
X126548645Y-80632140D01*
X126580526Y-80629000D01*
X127444474Y-80629000D01*
X127476355Y-80632140D01*
G37*
G36*
X123240012Y-77843927D02*
G01*
X123389312Y-77873624D01*
X123553284Y-77941544D01*
X123700854Y-78040147D01*
X123826353Y-78165646D01*
X123924956Y-78313216D01*
X123992876Y-78477188D01*
X124027500Y-78651259D01*
X124027500Y-78828741D01*
X123992876Y-79002812D01*
X123924956Y-79166784D01*
X123826353Y-79314354D01*
X123700854Y-79439853D01*
X123553284Y-79538456D01*
X123389312Y-79606376D01*
X123240012Y-79636073D01*
X123215242Y-79641000D01*
X123037758Y-79641000D01*
X123012988Y-79636073D01*
X122863688Y-79606376D01*
X122699716Y-79538456D01*
X122552146Y-79439853D01*
X122426647Y-79314354D01*
X122328044Y-79166784D01*
X122260124Y-79002812D01*
X122225500Y-78828741D01*
X122225500Y-78651259D01*
X122260124Y-78477188D01*
X122328044Y-78313216D01*
X122426647Y-78165646D01*
X122552146Y-78040147D01*
X122699716Y-77941544D01*
X122863688Y-77873624D01*
X123012988Y-77843927D01*
X123037758Y-77839000D01*
X123215242Y-77839000D01*
X123240012Y-77843927D01*
G37*
G36*
X142691355Y-78092140D02*
G01*
X142755118Y-78098420D01*
X142845904Y-78125960D01*
X142877836Y-78135646D01*
X142990925Y-78196094D01*
X143090054Y-78277446D01*
X143171406Y-78376575D01*
X143231854Y-78489664D01*
X143231855Y-78489668D01*
X143269080Y-78612382D01*
X143281649Y-78740000D01*
X143269080Y-78867618D01*
X143241540Y-78958404D01*
X143231854Y-78990336D01*
X143171406Y-79103425D01*
X143090054Y-79202554D01*
X142990925Y-79283906D01*
X142877836Y-79344354D01*
X142845904Y-79354040D01*
X142755118Y-79381580D01*
X142691355Y-79387860D01*
X142659474Y-79391000D01*
X141795526Y-79391000D01*
X141763645Y-79387860D01*
X141699882Y-79381580D01*
X141609096Y-79354040D01*
X141577164Y-79344354D01*
X141464075Y-79283906D01*
X141364946Y-79202554D01*
X141283594Y-79103425D01*
X141223146Y-78990336D01*
X141213460Y-78958404D01*
X141185920Y-78867618D01*
X141173351Y-78740000D01*
X141185920Y-78612382D01*
X141223145Y-78489668D01*
X141223146Y-78489664D01*
X141283594Y-78376575D01*
X141364946Y-78277446D01*
X141464075Y-78196094D01*
X141577164Y-78135646D01*
X141609096Y-78125960D01*
X141699882Y-78098420D01*
X141763645Y-78092140D01*
X141795526Y-78089000D01*
X142659474Y-78089000D01*
X142691355Y-78092140D01*
G37*
G36*
X127476355Y-78092140D02*
G01*
X127540118Y-78098420D01*
X127630904Y-78125960D01*
X127662836Y-78135646D01*
X127775925Y-78196094D01*
X127875054Y-78277446D01*
X127956406Y-78376575D01*
X128016854Y-78489664D01*
X128016855Y-78489668D01*
X128054080Y-78612382D01*
X128066649Y-78740000D01*
X128054080Y-78867618D01*
X128026540Y-78958404D01*
X128016854Y-78990336D01*
X127956406Y-79103425D01*
X127875054Y-79202554D01*
X127775925Y-79283906D01*
X127662836Y-79344354D01*
X127630904Y-79354040D01*
X127540118Y-79381580D01*
X127476355Y-79387860D01*
X127444474Y-79391000D01*
X126580526Y-79391000D01*
X126548645Y-79387860D01*
X126484882Y-79381580D01*
X126394096Y-79354040D01*
X126362164Y-79344354D01*
X126249075Y-79283906D01*
X126149946Y-79202554D01*
X126068594Y-79103425D01*
X126008146Y-78990336D01*
X125998460Y-78958404D01*
X125970920Y-78867618D01*
X125958351Y-78740000D01*
X125970920Y-78612382D01*
X126008145Y-78489668D01*
X126008146Y-78489664D01*
X126068594Y-78376575D01*
X126149946Y-78277446D01*
X126249075Y-78196094D01*
X126362164Y-78135646D01*
X126394096Y-78125960D01*
X126484882Y-78098420D01*
X126548645Y-78092140D01*
X126580526Y-78089000D01*
X127444474Y-78089000D01*
X127476355Y-78092140D01*
G37*
G36*
X123715078Y-75307048D02*
G01*
X123787749Y-75329093D01*
X123854725Y-75364892D01*
X123913430Y-75413070D01*
X123961608Y-75471775D01*
X123997407Y-75538751D01*
X124019452Y-75611422D01*
X124027500Y-75693140D01*
X124027500Y-76706860D01*
X124019452Y-76788578D01*
X123997407Y-76861249D01*
X123961608Y-76928225D01*
X123913430Y-76986930D01*
X123854725Y-77035108D01*
X123787749Y-77070907D01*
X123715078Y-77092952D01*
X123633360Y-77101000D01*
X122619640Y-77101000D01*
X122537922Y-77092952D01*
X122465251Y-77070907D01*
X122398275Y-77035108D01*
X122339570Y-76986930D01*
X122291392Y-76928225D01*
X122255593Y-76861249D01*
X122233548Y-76788578D01*
X122225500Y-76706860D01*
X122225500Y-75693140D01*
X122233548Y-75611422D01*
X122255593Y-75538751D01*
X122291392Y-75471775D01*
X122339570Y-75413070D01*
X122398275Y-75364892D01*
X122465251Y-75329093D01*
X122537922Y-75307048D01*
X122619640Y-75299000D01*
X123633360Y-75299000D01*
X123715078Y-75307048D01*
G37*
G36*
X142691355Y-75552140D02*
G01*
X142755118Y-75558420D01*
X142845904Y-75585960D01*
X142877836Y-75595646D01*
X142990925Y-75656094D01*
X143090054Y-75737446D01*
X143171406Y-75836575D01*
X143231854Y-75949664D01*
X143231855Y-75949668D01*
X143269080Y-76072382D01*
X143281649Y-76200000D01*
X143269080Y-76327618D01*
X143241540Y-76418404D01*
X143231854Y-76450336D01*
X143171406Y-76563425D01*
X143090054Y-76662554D01*
X142990925Y-76743906D01*
X142877836Y-76804354D01*
X142845904Y-76814040D01*
X142755118Y-76841580D01*
X142691355Y-76847860D01*
X142659474Y-76851000D01*
X141795526Y-76851000D01*
X141763645Y-76847860D01*
X141699882Y-76841580D01*
X141609096Y-76814040D01*
X141577164Y-76804354D01*
X141464075Y-76743906D01*
X141364946Y-76662554D01*
X141283594Y-76563425D01*
X141223146Y-76450336D01*
X141213460Y-76418404D01*
X141185920Y-76327618D01*
X141173351Y-76200000D01*
X141185920Y-76072382D01*
X141223145Y-75949668D01*
X141223146Y-75949664D01*
X141283594Y-75836575D01*
X141364946Y-75737446D01*
X141464075Y-75656094D01*
X141577164Y-75595646D01*
X141609096Y-75585960D01*
X141699882Y-75558420D01*
X141763645Y-75552140D01*
X141795526Y-75549000D01*
X142659474Y-75549000D01*
X142691355Y-75552140D01*
G37*
G36*
X127476355Y-75552140D02*
G01*
X127540118Y-75558420D01*
X127630904Y-75585960D01*
X127662836Y-75595646D01*
X127775925Y-75656094D01*
X127875054Y-75737446D01*
X127956406Y-75836575D01*
X128016854Y-75949664D01*
X128016855Y-75949668D01*
X128054080Y-76072382D01*
X128066649Y-76200000D01*
X128054080Y-76327618D01*
X128026540Y-76418404D01*
X128016854Y-76450336D01*
X127956406Y-76563425D01*
X127875054Y-76662554D01*
X127775925Y-76743906D01*
X127662836Y-76804354D01*
X127630904Y-76814040D01*
X127540118Y-76841580D01*
X127476355Y-76847860D01*
X127444474Y-76851000D01*
X126580526Y-76851000D01*
X126548645Y-76847860D01*
X126484882Y-76841580D01*
X126394096Y-76814040D01*
X126362164Y-76804354D01*
X126249075Y-76743906D01*
X126149946Y-76662554D01*
X126068594Y-76563425D01*
X126008146Y-76450336D01*
X125998460Y-76418404D01*
X125970920Y-76327618D01*
X125958351Y-76200000D01*
X125970920Y-76072382D01*
X126008145Y-75949668D01*
X126008146Y-75949664D01*
X126068594Y-75836575D01*
X126149946Y-75737446D01*
X126249075Y-75656094D01*
X126362164Y-75595646D01*
X126394096Y-75585960D01*
X126484882Y-75558420D01*
X126548645Y-75552140D01*
X126580526Y-75549000D01*
X127444474Y-75549000D01*
X127476355Y-75552140D01*
G37*
G36*
X142691355Y-73012140D02*
G01*
X142755118Y-73018420D01*
X142845904Y-73045960D01*
X142877836Y-73055646D01*
X142990925Y-73116094D01*
X143090054Y-73197446D01*
X143171406Y-73296575D01*
X143231854Y-73409664D01*
X143231855Y-73409668D01*
X143269080Y-73532382D01*
X143281649Y-73660000D01*
X143269080Y-73787618D01*
X143241540Y-73878404D01*
X143231854Y-73910336D01*
X143171406Y-74023425D01*
X143090054Y-74122554D01*
X142990925Y-74203906D01*
X142877836Y-74264354D01*
X142845904Y-74274040D01*
X142755118Y-74301580D01*
X142691355Y-74307860D01*
X142659474Y-74311000D01*
X141795526Y-74311000D01*
X141763645Y-74307860D01*
X141699882Y-74301580D01*
X141609096Y-74274040D01*
X141577164Y-74264354D01*
X141464075Y-74203906D01*
X141364946Y-74122554D01*
X141283594Y-74023425D01*
X141223146Y-73910336D01*
X141213460Y-73878404D01*
X141185920Y-73787618D01*
X141173351Y-73660000D01*
X141185920Y-73532382D01*
X141223145Y-73409668D01*
X141223146Y-73409664D01*
X141283594Y-73296575D01*
X141364946Y-73197446D01*
X141464075Y-73116094D01*
X141577164Y-73055646D01*
X141609096Y-73045960D01*
X141699882Y-73018420D01*
X141763645Y-73012140D01*
X141795526Y-73009000D01*
X142659474Y-73009000D01*
X142691355Y-73012140D01*
G37*
G36*
X127476355Y-73012140D02*
G01*
X127540118Y-73018420D01*
X127630904Y-73045960D01*
X127662836Y-73055646D01*
X127775925Y-73116094D01*
X127875054Y-73197446D01*
X127956406Y-73296575D01*
X128016854Y-73409664D01*
X128016855Y-73409668D01*
X128054080Y-73532382D01*
X128066649Y-73660000D01*
X128054080Y-73787618D01*
X128026540Y-73878404D01*
X128016854Y-73910336D01*
X127956406Y-74023425D01*
X127875054Y-74122554D01*
X127775925Y-74203906D01*
X127662836Y-74264354D01*
X127630904Y-74274040D01*
X127540118Y-74301580D01*
X127476355Y-74307860D01*
X127444474Y-74311000D01*
X126580526Y-74311000D01*
X126548645Y-74307860D01*
X126484882Y-74301580D01*
X126394096Y-74274040D01*
X126362164Y-74264354D01*
X126249075Y-74203906D01*
X126149946Y-74122554D01*
X126068594Y-74023425D01*
X126008146Y-73910336D01*
X125998460Y-73878404D01*
X125970920Y-73787618D01*
X125958351Y-73660000D01*
X125970920Y-73532382D01*
X126008145Y-73409668D01*
X126008146Y-73409664D01*
X126068594Y-73296575D01*
X126149946Y-73197446D01*
X126249075Y-73116094D01*
X126362164Y-73055646D01*
X126394096Y-73045960D01*
X126484882Y-73018420D01*
X126548645Y-73012140D01*
X126580526Y-73009000D01*
X127444474Y-73009000D01*
X127476355Y-73012140D01*
G37*
G36*
X152889943Y-67066248D02*
G01*
X153445189Y-67296238D01*
X153445190Y-67296239D01*
X153944899Y-67630134D01*
X154369866Y-68055101D01*
X154537948Y-68306653D01*
X154703762Y-68554811D01*
X154933752Y-69110057D01*
X155051000Y-69699501D01*
X155051000Y-70300499D01*
X154933752Y-70889943D01*
X154703762Y-71445189D01*
X154703761Y-71445190D01*
X154369866Y-71944899D01*
X153944899Y-72369866D01*
X153693347Y-72537948D01*
X153445189Y-72703762D01*
X152889943Y-72933752D01*
X152300499Y-73051000D01*
X151699501Y-73051000D01*
X151110057Y-72933752D01*
X150554811Y-72703762D01*
X150306653Y-72537948D01*
X150055101Y-72369866D01*
X149630134Y-71944899D01*
X149296239Y-71445190D01*
X149296238Y-71445189D01*
X149066248Y-70889943D01*
X148949000Y-70300499D01*
X148949000Y-69699501D01*
X149066248Y-69110057D01*
X149296238Y-68554811D01*
X149462052Y-68306653D01*
X149630134Y-68055101D01*
X150055101Y-67630134D01*
X150554810Y-67296239D01*
X150554811Y-67296238D01*
X151110057Y-67066248D01*
X151699501Y-66949000D01*
X152300499Y-66949000D01*
X152889943Y-67066248D01*
G37*
G36*
X120889943Y-67066248D02*
G01*
X121445189Y-67296238D01*
X121445190Y-67296239D01*
X121944899Y-67630134D01*
X122369866Y-68055101D01*
X122537948Y-68306653D01*
X122703762Y-68554811D01*
X122933752Y-69110057D01*
X123051000Y-69699501D01*
X123051000Y-70300499D01*
X122933752Y-70889943D01*
X122703762Y-71445189D01*
X122703761Y-71445190D01*
X122369866Y-71944899D01*
X121944899Y-72369866D01*
X121693347Y-72537948D01*
X121445189Y-72703762D01*
X120889943Y-72933752D01*
X120300499Y-73051000D01*
X119699501Y-73051000D01*
X119110057Y-72933752D01*
X118554811Y-72703762D01*
X118306653Y-72537948D01*
X118055101Y-72369866D01*
X117630134Y-71944899D01*
X117296239Y-71445190D01*
X117296238Y-71445189D01*
X117066248Y-70889943D01*
X116949000Y-70300499D01*
X116949000Y-69699501D01*
X117066248Y-69110057D01*
X117296238Y-68554811D01*
X117462052Y-68306653D01*
X117630134Y-68055101D01*
X118055101Y-67630134D01*
X118554810Y-67296239D01*
X118554811Y-67296238D01*
X119110057Y-67066248D01*
X119699501Y-66949000D01*
X120300499Y-66949000D01*
X120889943Y-67066248D01*
G37*
G36*
X163011903Y-67339213D02*
G01*
X163234177Y-67383426D01*
X163652932Y-67556880D01*
X164029802Y-67808696D01*
X164350304Y-68129198D01*
X164602120Y-68506068D01*
X164775574Y-68924823D01*
X164864000Y-69369371D01*
X164864000Y-69822629D01*
X164775574Y-70267177D01*
X164602120Y-70685932D01*
X164350304Y-71062802D01*
X164029802Y-71383304D01*
X163652932Y-71635120D01*
X163234177Y-71808574D01*
X163011903Y-71852787D01*
X162789630Y-71897000D01*
X162336370Y-71897000D01*
X162114097Y-71852787D01*
X161891823Y-71808574D01*
X161473068Y-71635120D01*
X161096198Y-71383304D01*
X160775696Y-71062802D01*
X160523880Y-70685932D01*
X160350426Y-70267177D01*
X160262000Y-69822629D01*
X160262000Y-69369371D01*
X160350426Y-68924823D01*
X160523880Y-68506068D01*
X160775696Y-68129198D01*
X161096198Y-67808696D01*
X161473068Y-67556880D01*
X161891823Y-67383426D01*
X162114097Y-67339213D01*
X162336370Y-67295000D01*
X162789630Y-67295000D01*
X163011903Y-67339213D01*
G37*
G36*
X142691355Y-70472140D02*
G01*
X142755118Y-70478420D01*
X142845904Y-70505960D01*
X142877836Y-70515646D01*
X142990925Y-70576094D01*
X143090054Y-70657446D01*
X143171406Y-70756575D01*
X143231854Y-70869664D01*
X143231855Y-70869668D01*
X143269080Y-70992382D01*
X143281649Y-71120000D01*
X143269080Y-71247618D01*
X143241540Y-71338404D01*
X143231854Y-71370336D01*
X143171406Y-71483425D01*
X143090054Y-71582554D01*
X142990925Y-71663906D01*
X142877836Y-71724354D01*
X142845904Y-71734040D01*
X142755118Y-71761580D01*
X142691355Y-71767860D01*
X142659474Y-71771000D01*
X141795526Y-71771000D01*
X141763645Y-71767860D01*
X141699882Y-71761580D01*
X141609096Y-71734040D01*
X141577164Y-71724354D01*
X141464075Y-71663906D01*
X141364946Y-71582554D01*
X141283594Y-71483425D01*
X141223146Y-71370336D01*
X141213460Y-71338404D01*
X141185920Y-71247618D01*
X141173351Y-71120000D01*
X141185920Y-70992382D01*
X141223145Y-70869668D01*
X141223146Y-70869664D01*
X141283594Y-70756575D01*
X141364946Y-70657446D01*
X141464075Y-70576094D01*
X141577164Y-70515646D01*
X141609096Y-70505960D01*
X141699882Y-70478420D01*
X141763645Y-70472140D01*
X141795526Y-70469000D01*
X142659474Y-70469000D01*
X142691355Y-70472140D01*
G37*
G36*
X127476355Y-70472140D02*
G01*
X127540118Y-70478420D01*
X127630904Y-70505960D01*
X127662836Y-70515646D01*
X127775925Y-70576094D01*
X127875054Y-70657446D01*
X127956406Y-70756575D01*
X128016854Y-70869664D01*
X128016855Y-70869668D01*
X128054080Y-70992382D01*
X128066649Y-71120000D01*
X128054080Y-71247618D01*
X128026540Y-71338404D01*
X128016854Y-71370336D01*
X127956406Y-71483425D01*
X127875054Y-71582554D01*
X127775925Y-71663906D01*
X127662836Y-71724354D01*
X127630904Y-71734040D01*
X127540118Y-71761580D01*
X127476355Y-71767860D01*
X127444474Y-71771000D01*
X126580526Y-71771000D01*
X126548645Y-71767860D01*
X126484882Y-71761580D01*
X126394096Y-71734040D01*
X126362164Y-71724354D01*
X126249075Y-71663906D01*
X126149946Y-71582554D01*
X126068594Y-71483425D01*
X126008146Y-71370336D01*
X125998460Y-71338404D01*
X125970920Y-71247618D01*
X125958351Y-71120000D01*
X125970920Y-70992382D01*
X126008145Y-70869668D01*
X126008146Y-70869664D01*
X126068594Y-70756575D01*
X126149946Y-70657446D01*
X126249075Y-70576094D01*
X126362164Y-70515646D01*
X126394096Y-70505960D01*
X126484882Y-70478420D01*
X126548645Y-70472140D01*
X126580526Y-70469000D01*
X127444474Y-70469000D01*
X127476355Y-70472140D01*
G37*
G36*
X142691355Y-67932140D02*
G01*
X142755118Y-67938420D01*
X142845904Y-67965960D01*
X142877836Y-67975646D01*
X142990925Y-68036094D01*
X143090054Y-68117446D01*
X143171406Y-68216575D01*
X143231854Y-68329664D01*
X143231855Y-68329668D01*
X143269080Y-68452382D01*
X143281649Y-68580000D01*
X143269080Y-68707618D01*
X143241540Y-68798404D01*
X143231854Y-68830336D01*
X143171406Y-68943425D01*
X143090054Y-69042554D01*
X142990925Y-69123906D01*
X142877836Y-69184354D01*
X142845904Y-69194040D01*
X142755118Y-69221580D01*
X142691355Y-69227860D01*
X142659474Y-69231000D01*
X141795526Y-69231000D01*
X141763645Y-69227860D01*
X141699882Y-69221580D01*
X141609096Y-69194040D01*
X141577164Y-69184354D01*
X141464075Y-69123906D01*
X141364946Y-69042554D01*
X141283594Y-68943425D01*
X141223146Y-68830336D01*
X141213460Y-68798404D01*
X141185920Y-68707618D01*
X141173351Y-68580000D01*
X141185920Y-68452382D01*
X141223145Y-68329668D01*
X141223146Y-68329664D01*
X141283594Y-68216575D01*
X141364946Y-68117446D01*
X141464075Y-68036094D01*
X141577164Y-67975646D01*
X141609096Y-67965960D01*
X141699882Y-67938420D01*
X141763645Y-67932140D01*
X141795526Y-67929000D01*
X142659474Y-67929000D01*
X142691355Y-67932140D01*
G37*
G36*
X127476355Y-67932140D02*
G01*
X127540118Y-67938420D01*
X127630904Y-67965960D01*
X127662836Y-67975646D01*
X127775925Y-68036094D01*
X127875054Y-68117446D01*
X127956406Y-68216575D01*
X128016854Y-68329664D01*
X128016855Y-68329668D01*
X128054080Y-68452382D01*
X128066649Y-68580000D01*
X128054080Y-68707618D01*
X128026540Y-68798404D01*
X128016854Y-68830336D01*
X127956406Y-68943425D01*
X127875054Y-69042554D01*
X127775925Y-69123906D01*
X127662836Y-69184354D01*
X127630904Y-69194040D01*
X127540118Y-69221580D01*
X127476355Y-69227860D01*
X127444474Y-69231000D01*
X126580526Y-69231000D01*
X126548645Y-69227860D01*
X126484882Y-69221580D01*
X126394096Y-69194040D01*
X126362164Y-69184354D01*
X126249075Y-69123906D01*
X126149946Y-69042554D01*
X126068594Y-68943425D01*
X126008146Y-68830336D01*
X125998460Y-68798404D01*
X125970920Y-68707618D01*
X125958351Y-68580000D01*
X125970920Y-68452382D01*
X126008145Y-68329668D01*
X126008146Y-68329664D01*
X126068594Y-68216575D01*
X126149946Y-68117446D01*
X126249075Y-68036094D01*
X126362164Y-67975646D01*
X126394096Y-67965960D01*
X126484882Y-67938420D01*
X126548645Y-67932140D01*
X126580526Y-67929000D01*
X127444474Y-67929000D01*
X127476355Y-67932140D01*
G37*
G36*
X142691355Y-65392140D02*
G01*
X142755118Y-65398420D01*
X142845904Y-65425960D01*
X142877836Y-65435646D01*
X142990925Y-65496094D01*
X143090054Y-65577446D01*
X143171406Y-65676575D01*
X143231854Y-65789664D01*
X143231855Y-65789668D01*
X143269080Y-65912382D01*
X143281649Y-66040000D01*
X143269080Y-66167618D01*
X143241540Y-66258404D01*
X143231854Y-66290336D01*
X143171406Y-66403425D01*
X143090054Y-66502554D01*
X142990925Y-66583906D01*
X142877836Y-66644354D01*
X142845904Y-66654040D01*
X142755118Y-66681580D01*
X142691355Y-66687860D01*
X142659474Y-66691000D01*
X141795526Y-66691000D01*
X141763645Y-66687860D01*
X141699882Y-66681580D01*
X141609096Y-66654040D01*
X141577164Y-66644354D01*
X141464075Y-66583906D01*
X141364946Y-66502554D01*
X141283594Y-66403425D01*
X141223146Y-66290336D01*
X141213460Y-66258404D01*
X141185920Y-66167618D01*
X141173351Y-66040000D01*
X141185920Y-65912382D01*
X141223145Y-65789668D01*
X141223146Y-65789664D01*
X141283594Y-65676575D01*
X141364946Y-65577446D01*
X141464075Y-65496094D01*
X141577164Y-65435646D01*
X141609096Y-65425960D01*
X141699882Y-65398420D01*
X141763645Y-65392140D01*
X141795526Y-65389000D01*
X142659474Y-65389000D01*
X142691355Y-65392140D01*
G37*
G36*
X127476355Y-65392140D02*
G01*
X127540118Y-65398420D01*
X127630904Y-65425960D01*
X127662836Y-65435646D01*
X127775925Y-65496094D01*
X127875054Y-65577446D01*
X127956406Y-65676575D01*
X128016854Y-65789664D01*
X128016855Y-65789668D01*
X128054080Y-65912382D01*
X128066649Y-66040000D01*
X128054080Y-66167618D01*
X128026540Y-66258404D01*
X128016854Y-66290336D01*
X127956406Y-66403425D01*
X127875054Y-66502554D01*
X127775925Y-66583906D01*
X127662836Y-66644354D01*
X127630904Y-66654040D01*
X127540118Y-66681580D01*
X127476355Y-66687860D01*
X127444474Y-66691000D01*
X126580526Y-66691000D01*
X126548645Y-66687860D01*
X126484882Y-66681580D01*
X126394096Y-66654040D01*
X126362164Y-66644354D01*
X126249075Y-66583906D01*
X126149946Y-66502554D01*
X126068594Y-66403425D01*
X126008146Y-66290336D01*
X125998460Y-66258404D01*
X125970920Y-66167618D01*
X125958351Y-66040000D01*
X125970920Y-65912382D01*
X126008145Y-65789668D01*
X126008146Y-65789664D01*
X126068594Y-65676575D01*
X126149946Y-65577446D01*
X126249075Y-65496094D01*
X126362164Y-65435646D01*
X126394096Y-65425960D01*
X126484882Y-65398420D01*
X126548645Y-65392140D01*
X126580526Y-65389000D01*
X127444474Y-65389000D01*
X127476355Y-65392140D01*
G37*
G36*
X160820142Y-60869242D02*
G01*
X160968101Y-60930529D01*
X161101255Y-61019499D01*
X161214501Y-61132745D01*
X161303471Y-61265899D01*
X161364758Y-61413858D01*
X161396000Y-61570925D01*
X161396000Y-61731075D01*
X161364758Y-61888142D01*
X161303471Y-62036101D01*
X161214501Y-62169255D01*
X161186144Y-62197612D01*
X161170599Y-62216554D01*
X161159048Y-62238165D01*
X161151935Y-62261614D01*
X161149533Y-62286000D01*
X161151935Y-62310386D01*
X161159048Y-62333835D01*
X161170599Y-62355446D01*
X161186144Y-62374388D01*
X161214501Y-62402745D01*
X161303471Y-62535899D01*
X161364758Y-62683858D01*
X161396000Y-62840925D01*
X161396000Y-63001075D01*
X161364758Y-63158142D01*
X161303471Y-63306101D01*
X161214501Y-63439255D01*
X161101255Y-63552501D01*
X160968101Y-63641471D01*
X160820142Y-63702758D01*
X160663075Y-63734000D01*
X160502925Y-63734000D01*
X160345858Y-63702758D01*
X160197899Y-63641471D01*
X160064745Y-63552501D01*
X159951499Y-63439255D01*
X159862529Y-63306101D01*
X159801242Y-63158142D01*
X159770000Y-63001075D01*
X159770000Y-62840925D01*
X159801242Y-62683858D01*
X159862529Y-62535899D01*
X159951499Y-62402745D01*
X159979856Y-62374388D01*
X159995401Y-62355446D01*
X160006952Y-62333835D01*
X160014065Y-62310386D01*
X160016467Y-62286000D01*
X160014065Y-62261614D01*
X160006952Y-62238165D01*
X159995401Y-62216554D01*
X159979856Y-62197612D01*
X159951499Y-62169255D01*
X159862529Y-62036101D01*
X159801242Y-61888142D01*
X159770000Y-61731075D01*
X159770000Y-61570925D01*
X159801242Y-61413858D01*
X159862529Y-61265899D01*
X159951499Y-61132745D01*
X160064745Y-61019499D01*
X160197899Y-60930529D01*
X160345858Y-60869242D01*
X160502925Y-60838000D01*
X160663075Y-60838000D01*
X160820142Y-60869242D01*
G37*
G36*
X147433512Y-60825927D02*
G01*
X147582812Y-60855624D01*
X147746784Y-60923544D01*
X147894354Y-61022147D01*
X148019853Y-61147646D01*
X148118456Y-61295216D01*
X148186376Y-61459188D01*
X148221000Y-61633259D01*
X148221000Y-61810741D01*
X148186376Y-61984812D01*
X148118456Y-62148784D01*
X148019853Y-62296354D01*
X147894354Y-62421853D01*
X147746784Y-62520456D01*
X147582812Y-62588376D01*
X147433512Y-62618073D01*
X147408742Y-62623000D01*
X147231258Y-62623000D01*
X147206488Y-62618073D01*
X147057188Y-62588376D01*
X146893216Y-62520456D01*
X146745646Y-62421853D01*
X146620147Y-62296354D01*
X146521544Y-62148784D01*
X146453624Y-61984812D01*
X146419000Y-61810741D01*
X146419000Y-61633259D01*
X146453624Y-61459188D01*
X146521544Y-61295216D01*
X146620147Y-61147646D01*
X146745646Y-61022147D01*
X146893216Y-60923544D01*
X147057188Y-60855624D01*
X147206488Y-60825927D01*
X147231258Y-60821000D01*
X147408742Y-60821000D01*
X147433512Y-60825927D01*
G37*
G36*
X150448578Y-60829048D02*
G01*
X150521249Y-60851093D01*
X150588225Y-60886892D01*
X150646930Y-60935070D01*
X150695108Y-60993775D01*
X150730907Y-61060751D01*
X150752952Y-61133422D01*
X150761000Y-61215140D01*
X150761000Y-62228860D01*
X150752952Y-62310578D01*
X150730907Y-62383249D01*
X150695108Y-62450225D01*
X150646930Y-62508930D01*
X150588225Y-62557108D01*
X150521249Y-62592907D01*
X150448578Y-62614952D01*
X150366860Y-62623000D01*
X149353140Y-62623000D01*
X149271422Y-62614952D01*
X149198751Y-62592907D01*
X149131775Y-62557108D01*
X149073070Y-62508930D01*
X149024892Y-62450225D01*
X148989093Y-62383249D01*
X148967048Y-62310578D01*
X148959000Y-62228860D01*
X148959000Y-61215140D01*
X148967048Y-61133422D01*
X148989093Y-61060751D01*
X149024892Y-60993775D01*
X149073070Y-60935070D01*
X149131775Y-60886892D01*
X149198751Y-60851093D01*
X149271422Y-60829048D01*
X149353140Y-60821000D01*
X150366860Y-60821000D01*
X150448578Y-60829048D01*
G37*
G36*
X143590578Y-60829048D02*
G01*
X143663249Y-60851093D01*
X143730225Y-60886892D01*
X143788930Y-60935070D01*
X143837108Y-60993775D01*
X143872907Y-61060751D01*
X143894952Y-61133422D01*
X143903000Y-61215140D01*
X143903000Y-62228860D01*
X143894952Y-62310578D01*
X143872907Y-62383249D01*
X143837108Y-62450225D01*
X143788930Y-62508930D01*
X143730225Y-62557108D01*
X143663249Y-62592907D01*
X143590578Y-62614952D01*
X143508860Y-62623000D01*
X142495140Y-62623000D01*
X142413422Y-62614952D01*
X142340751Y-62592907D01*
X142273775Y-62557108D01*
X142215070Y-62508930D01*
X142166892Y-62450225D01*
X142131093Y-62383249D01*
X142109048Y-62310578D01*
X142101000Y-62228860D01*
X142101000Y-61215140D01*
X142109048Y-61133422D01*
X142131093Y-61060751D01*
X142166892Y-60993775D01*
X142215070Y-60935070D01*
X142273775Y-60886892D01*
X142340751Y-60851093D01*
X142413422Y-60829048D01*
X142495140Y-60821000D01*
X143508860Y-60821000D01*
X143590578Y-60829048D01*
G37*
G36*
X140575512Y-60825927D02*
G01*
X140724812Y-60855624D01*
X140888784Y-60923544D01*
X141036354Y-61022147D01*
X141161853Y-61147646D01*
X141260456Y-61295216D01*
X141328376Y-61459188D01*
X141363000Y-61633259D01*
X141363000Y-61810741D01*
X141328376Y-61984812D01*
X141260456Y-62148784D01*
X141161853Y-62296354D01*
X141036354Y-62421853D01*
X140888784Y-62520456D01*
X140724812Y-62588376D01*
X140575512Y-62618073D01*
X140550742Y-62623000D01*
X140373258Y-62623000D01*
X140348488Y-62618073D01*
X140199188Y-62588376D01*
X140035216Y-62520456D01*
X139887646Y-62421853D01*
X139762147Y-62296354D01*
X139663544Y-62148784D01*
X139595624Y-61984812D01*
X139561000Y-61810741D01*
X139561000Y-61633259D01*
X139595624Y-61459188D01*
X139663544Y-61295216D01*
X139762147Y-61147646D01*
X139887646Y-61022147D01*
X140035216Y-60923544D01*
X140199188Y-60855624D01*
X140348488Y-60825927D01*
X140373258Y-60821000D01*
X140550742Y-60821000D01*
X140575512Y-60825927D01*
G37*
G36*
X158320142Y-60869242D02*
G01*
X158468101Y-60930529D01*
X158601255Y-61019499D01*
X158714501Y-61132745D01*
X158803471Y-61265899D01*
X158864758Y-61413858D01*
X158896000Y-61570925D01*
X158896000Y-61731075D01*
X158864758Y-61888142D01*
X158803471Y-62036101D01*
X158714501Y-62169255D01*
X158601255Y-62282501D01*
X158468101Y-62371471D01*
X158320142Y-62432758D01*
X158163075Y-62464000D01*
X158002925Y-62464000D01*
X157845858Y-62432758D01*
X157697899Y-62371471D01*
X157564745Y-62282501D01*
X157451499Y-62169255D01*
X157362529Y-62036101D01*
X157301242Y-61888142D01*
X157270000Y-61731075D01*
X157270000Y-61570925D01*
X157301242Y-61413858D01*
X157362529Y-61265899D01*
X157451499Y-61132745D01*
X157564745Y-61019499D01*
X157697899Y-60930529D01*
X157845858Y-60869242D01*
X158002925Y-60838000D01*
X158163075Y-60838000D01*
X158320142Y-60869242D01*
G37*
G36*
X163320142Y-60869242D02*
G01*
X163468101Y-60930529D01*
X163601255Y-61019499D01*
X163714501Y-61132745D01*
X163803471Y-61265899D01*
X163864758Y-61413858D01*
X163896000Y-61570925D01*
X163896000Y-61731075D01*
X163864758Y-61888142D01*
X163803471Y-62036101D01*
X163714501Y-62169255D01*
X163601255Y-62282501D01*
X163468101Y-62371471D01*
X163320142Y-62432758D01*
X163163075Y-62464000D01*
X163002925Y-62464000D01*
X162845858Y-62432758D01*
X162697899Y-62371471D01*
X162564745Y-62282501D01*
X162451499Y-62169255D01*
X162362529Y-62036101D01*
X162301242Y-61888142D01*
X162270000Y-61731075D01*
X162270000Y-61570925D01*
X162301242Y-61413858D01*
X162362529Y-61265899D01*
X162451499Y-61132745D01*
X162564745Y-61019499D01*
X162697899Y-60930529D01*
X162845858Y-60869242D01*
X163002925Y-60838000D01*
X163163075Y-60838000D01*
X163320142Y-60869242D01*
G37*
M02*
