G04 #@! TF.GenerationSoftware,KiCad,Pcbnew,5.1.5+dfsg1-2build2*
G04 #@! TF.CreationDate,2021-11-16T19:49:45+01:00*
G04 #@! TF.ProjectId,brainboard,62726169-6e62-46f6-9172-642e6b696361,rev?*
G04 #@! TF.SameCoordinates,Original*
G04 #@! TF.FileFunction,Paste,Top*
G04 #@! TF.FilePolarity,Positive*
%FSLAX46Y46*%
G04 Gerber Fmt 4.6, Leading zero omitted, Abs format (unit mm)*
G04 Created by KiCad (PCBNEW 5.1.5+dfsg1-2build2) date 2021-11-16 19:49:45*
%MOMM*%
%LPD*%
G04 APERTURE LIST*
%ADD10C,1.524000*%
%ADD11C,0.100000*%
G04 APERTURE END LIST*
D10*
X167643000Y-88646000D03*
X165103000Y-88646000D03*
X162563000Y-88646000D03*
D11*
G36*
X160441345Y-87885835D02*
G01*
X160478329Y-87891321D01*
X160514598Y-87900406D01*
X160549802Y-87913002D01*
X160583602Y-87928988D01*
X160615672Y-87948210D01*
X160645704Y-87970483D01*
X160673408Y-87995592D01*
X160698517Y-88023296D01*
X160720790Y-88053328D01*
X160740012Y-88085398D01*
X160755998Y-88119198D01*
X160768594Y-88154402D01*
X160777679Y-88190671D01*
X160783165Y-88227655D01*
X160785000Y-88265000D01*
X160785000Y-89027000D01*
X160783165Y-89064345D01*
X160777679Y-89101329D01*
X160768594Y-89137598D01*
X160755998Y-89172802D01*
X160740012Y-89206602D01*
X160720790Y-89238672D01*
X160698517Y-89268704D01*
X160673408Y-89296408D01*
X160645704Y-89321517D01*
X160615672Y-89343790D01*
X160583602Y-89363012D01*
X160549802Y-89378998D01*
X160514598Y-89391594D01*
X160478329Y-89400679D01*
X160441345Y-89406165D01*
X160404000Y-89408000D01*
X159642000Y-89408000D01*
X159604655Y-89406165D01*
X159567671Y-89400679D01*
X159531402Y-89391594D01*
X159496198Y-89378998D01*
X159462398Y-89363012D01*
X159430328Y-89343790D01*
X159400296Y-89321517D01*
X159372592Y-89296408D01*
X159347483Y-89268704D01*
X159325210Y-89238672D01*
X159305988Y-89206602D01*
X159290002Y-89172802D01*
X159277406Y-89137598D01*
X159268321Y-89101329D01*
X159262835Y-89064345D01*
X159261000Y-89027000D01*
X159261000Y-88265000D01*
X159262835Y-88227655D01*
X159268321Y-88190671D01*
X159277406Y-88154402D01*
X159290002Y-88119198D01*
X159305988Y-88085398D01*
X159325210Y-88053328D01*
X159347483Y-88023296D01*
X159372592Y-87995592D01*
X159400296Y-87970483D01*
X159430328Y-87948210D01*
X159462398Y-87928988D01*
X159496198Y-87913002D01*
X159531402Y-87900406D01*
X159567671Y-87891321D01*
X159604655Y-87885835D01*
X159642000Y-87884000D01*
X160404000Y-87884000D01*
X160441345Y-87885835D01*
G37*
D10*
X157483000Y-88646000D03*
X158083000Y-61651000D03*
X160583000Y-61651000D03*
X163083000Y-61651000D03*
M02*
