G04 #@! TF.GenerationSoftware,KiCad,Pcbnew,5.1.5+dfsg1-2build2*
G04 #@! TF.CreationDate,2021-11-01T16:22:50+01:00*
G04 #@! TF.ProjectId,brainboard,62726169-6e62-46f6-9172-642e6b696361,rev?*
G04 #@! TF.SameCoordinates,Original*
G04 #@! TF.FileFunction,Copper,L1,Top*
G04 #@! TF.FilePolarity,Positive*
%FSLAX46Y46*%
G04 Gerber Fmt 4.6, Leading zero omitted, Abs format (unit mm)*
G04 Created by KiCad (PCBNEW 5.1.5+dfsg1-2build2) date 2021-11-01 16:22:50*
%MOMM*%
%LPD*%
G04 APERTURE LIST*
%ADD10C,1.524000*%
%ADD11C,0.100000*%
%ADD12O,1.700000X1.700000*%
%ADD13R,1.700000X1.700000*%
%ADD14C,6.000000*%
%ADD15C,0.800000*%
%ADD16C,0.400000*%
%ADD17C,0.254000*%
G04 APERTURE END LIST*
D10*
X142240000Y-114300000D03*
X142240000Y-111760000D03*
X142240000Y-109220000D03*
X142240000Y-106680000D03*
X142240000Y-104140000D03*
X142240000Y-101600000D03*
X142240000Y-99060000D03*
X142240000Y-96520000D03*
X142240000Y-93980000D03*
X142240000Y-91440000D03*
X142240000Y-88900000D03*
X142240000Y-86360000D03*
X142240000Y-83820000D03*
X142240000Y-81280000D03*
X142240000Y-78740000D03*
X142240000Y-76200000D03*
X142240000Y-73660000D03*
X142240000Y-71120000D03*
G04 #@! TA.AperFunction,ComponentPad*
D11*
G36*
X142658345Y-67819835D02*
G01*
X142695329Y-67825321D01*
X142731598Y-67834406D01*
X142766802Y-67847002D01*
X142800602Y-67862988D01*
X142832672Y-67882210D01*
X142862704Y-67904483D01*
X142890408Y-67929592D01*
X142915517Y-67957296D01*
X142937790Y-67987328D01*
X142957012Y-68019398D01*
X142972998Y-68053198D01*
X142985594Y-68088402D01*
X142994679Y-68124671D01*
X143000165Y-68161655D01*
X143002000Y-68199000D01*
X143002000Y-68961000D01*
X143000165Y-68998345D01*
X142994679Y-69035329D01*
X142985594Y-69071598D01*
X142972998Y-69106802D01*
X142957012Y-69140602D01*
X142937790Y-69172672D01*
X142915517Y-69202704D01*
X142890408Y-69230408D01*
X142862704Y-69255517D01*
X142832672Y-69277790D01*
X142800602Y-69297012D01*
X142766802Y-69312998D01*
X142731598Y-69325594D01*
X142695329Y-69334679D01*
X142658345Y-69340165D01*
X142621000Y-69342000D01*
X141859000Y-69342000D01*
X141821655Y-69340165D01*
X141784671Y-69334679D01*
X141748402Y-69325594D01*
X141713198Y-69312998D01*
X141679398Y-69297012D01*
X141647328Y-69277790D01*
X141617296Y-69255517D01*
X141589592Y-69230408D01*
X141564483Y-69202704D01*
X141542210Y-69172672D01*
X141522988Y-69140602D01*
X141507002Y-69106802D01*
X141494406Y-69071598D01*
X141485321Y-69035329D01*
X141479835Y-68998345D01*
X141478000Y-68961000D01*
X141478000Y-68199000D01*
X141479835Y-68161655D01*
X141485321Y-68124671D01*
X141494406Y-68088402D01*
X141507002Y-68053198D01*
X141522988Y-68019398D01*
X141542210Y-67987328D01*
X141564483Y-67957296D01*
X141589592Y-67929592D01*
X141617296Y-67904483D01*
X141647328Y-67882210D01*
X141679398Y-67862988D01*
X141713198Y-67847002D01*
X141748402Y-67834406D01*
X141784671Y-67825321D01*
X141821655Y-67819835D01*
X141859000Y-67818000D01*
X142621000Y-67818000D01*
X142658345Y-67819835D01*
G37*
G04 #@! TD.AperFunction*
D10*
X142240000Y-66040000D03*
X127000000Y-114300000D03*
G04 #@! TA.AperFunction,ComponentPad*
D11*
G36*
X127418345Y-110999835D02*
G01*
X127455329Y-111005321D01*
X127491598Y-111014406D01*
X127526802Y-111027002D01*
X127560602Y-111042988D01*
X127592672Y-111062210D01*
X127622704Y-111084483D01*
X127650408Y-111109592D01*
X127675517Y-111137296D01*
X127697790Y-111167328D01*
X127717012Y-111199398D01*
X127732998Y-111233198D01*
X127745594Y-111268402D01*
X127754679Y-111304671D01*
X127760165Y-111341655D01*
X127762000Y-111379000D01*
X127762000Y-112141000D01*
X127760165Y-112178345D01*
X127754679Y-112215329D01*
X127745594Y-112251598D01*
X127732998Y-112286802D01*
X127717012Y-112320602D01*
X127697790Y-112352672D01*
X127675517Y-112382704D01*
X127650408Y-112410408D01*
X127622704Y-112435517D01*
X127592672Y-112457790D01*
X127560602Y-112477012D01*
X127526802Y-112492998D01*
X127491598Y-112505594D01*
X127455329Y-112514679D01*
X127418345Y-112520165D01*
X127381000Y-112522000D01*
X126619000Y-112522000D01*
X126581655Y-112520165D01*
X126544671Y-112514679D01*
X126508402Y-112505594D01*
X126473198Y-112492998D01*
X126439398Y-112477012D01*
X126407328Y-112457790D01*
X126377296Y-112435517D01*
X126349592Y-112410408D01*
X126324483Y-112382704D01*
X126302210Y-112352672D01*
X126282988Y-112320602D01*
X126267002Y-112286802D01*
X126254406Y-112251598D01*
X126245321Y-112215329D01*
X126239835Y-112178345D01*
X126238000Y-112141000D01*
X126238000Y-111379000D01*
X126239835Y-111341655D01*
X126245321Y-111304671D01*
X126254406Y-111268402D01*
X126267002Y-111233198D01*
X126282988Y-111199398D01*
X126302210Y-111167328D01*
X126324483Y-111137296D01*
X126349592Y-111109592D01*
X126377296Y-111084483D01*
X126407328Y-111062210D01*
X126439398Y-111042988D01*
X126473198Y-111027002D01*
X126508402Y-111014406D01*
X126544671Y-111005321D01*
X126581655Y-110999835D01*
X126619000Y-110998000D01*
X127381000Y-110998000D01*
X127418345Y-110999835D01*
G37*
G04 #@! TD.AperFunction*
D10*
X127000000Y-109220000D03*
X127000000Y-106680000D03*
X127000000Y-104140000D03*
X127000000Y-101600000D03*
X127000000Y-99060000D03*
X127000000Y-96520000D03*
X127000000Y-93980000D03*
X127000000Y-91440000D03*
X127000000Y-88900000D03*
X127000000Y-86360000D03*
X127000000Y-83820000D03*
X127000000Y-81280000D03*
X127000000Y-78740000D03*
X127000000Y-76200000D03*
X127000000Y-73660000D03*
X127000000Y-71120000D03*
X127000000Y-68580000D03*
X127000000Y-66040000D03*
D12*
X140462000Y-61722000D03*
D13*
X143002000Y-61722000D03*
D12*
X147320000Y-61722000D03*
D13*
X149860000Y-61722000D03*
D10*
X167640000Y-88900000D03*
X165100000Y-88900000D03*
X162560000Y-88900000D03*
G04 #@! TA.AperFunction,SMDPad,CuDef*
D11*
G36*
X160438345Y-88139835D02*
G01*
X160475329Y-88145321D01*
X160511598Y-88154406D01*
X160546802Y-88167002D01*
X160580602Y-88182988D01*
X160612672Y-88202210D01*
X160642704Y-88224483D01*
X160670408Y-88249592D01*
X160695517Y-88277296D01*
X160717790Y-88307328D01*
X160737012Y-88339398D01*
X160752998Y-88373198D01*
X160765594Y-88408402D01*
X160774679Y-88444671D01*
X160780165Y-88481655D01*
X160782000Y-88519000D01*
X160782000Y-89281000D01*
X160780165Y-89318345D01*
X160774679Y-89355329D01*
X160765594Y-89391598D01*
X160752998Y-89426802D01*
X160737012Y-89460602D01*
X160717790Y-89492672D01*
X160695517Y-89522704D01*
X160670408Y-89550408D01*
X160642704Y-89575517D01*
X160612672Y-89597790D01*
X160580602Y-89617012D01*
X160546802Y-89632998D01*
X160511598Y-89645594D01*
X160475329Y-89654679D01*
X160438345Y-89660165D01*
X160401000Y-89662000D01*
X159639000Y-89662000D01*
X159601655Y-89660165D01*
X159564671Y-89654679D01*
X159528402Y-89645594D01*
X159493198Y-89632998D01*
X159459398Y-89617012D01*
X159427328Y-89597790D01*
X159397296Y-89575517D01*
X159369592Y-89550408D01*
X159344483Y-89522704D01*
X159322210Y-89492672D01*
X159302988Y-89460602D01*
X159287002Y-89426802D01*
X159274406Y-89391598D01*
X159265321Y-89355329D01*
X159259835Y-89318345D01*
X159258000Y-89281000D01*
X159258000Y-88519000D01*
X159259835Y-88481655D01*
X159265321Y-88444671D01*
X159274406Y-88408402D01*
X159287002Y-88373198D01*
X159302988Y-88339398D01*
X159322210Y-88307328D01*
X159344483Y-88277296D01*
X159369592Y-88249592D01*
X159397296Y-88224483D01*
X159427328Y-88202210D01*
X159459398Y-88182988D01*
X159493198Y-88167002D01*
X159528402Y-88154406D01*
X159564671Y-88145321D01*
X159601655Y-88139835D01*
X159639000Y-88138000D01*
X160401000Y-88138000D01*
X160438345Y-88139835D01*
G37*
G04 #@! TD.AperFunction*
D10*
X157480000Y-88900000D03*
X167640000Y-87630000D03*
X165100000Y-87630000D03*
X162560000Y-87630000D03*
G04 #@! TA.AperFunction,ComponentPad*
D11*
G36*
X160438345Y-86869835D02*
G01*
X160475329Y-86875321D01*
X160511598Y-86884406D01*
X160546802Y-86897002D01*
X160580602Y-86912988D01*
X160612672Y-86932210D01*
X160642704Y-86954483D01*
X160670408Y-86979592D01*
X160695517Y-87007296D01*
X160717790Y-87037328D01*
X160737012Y-87069398D01*
X160752998Y-87103198D01*
X160765594Y-87138402D01*
X160774679Y-87174671D01*
X160780165Y-87211655D01*
X160782000Y-87249000D01*
X160782000Y-88011000D01*
X160780165Y-88048345D01*
X160774679Y-88085329D01*
X160765594Y-88121598D01*
X160752998Y-88156802D01*
X160737012Y-88190602D01*
X160717790Y-88222672D01*
X160695517Y-88252704D01*
X160670408Y-88280408D01*
X160642704Y-88305517D01*
X160612672Y-88327790D01*
X160580602Y-88347012D01*
X160546802Y-88362998D01*
X160511598Y-88375594D01*
X160475329Y-88384679D01*
X160438345Y-88390165D01*
X160401000Y-88392000D01*
X159639000Y-88392000D01*
X159601655Y-88390165D01*
X159564671Y-88384679D01*
X159528402Y-88375594D01*
X159493198Y-88362998D01*
X159459398Y-88347012D01*
X159427328Y-88327790D01*
X159397296Y-88305517D01*
X159369592Y-88280408D01*
X159344483Y-88252704D01*
X159322210Y-88222672D01*
X159302988Y-88190602D01*
X159287002Y-88156802D01*
X159274406Y-88121598D01*
X159265321Y-88085329D01*
X159259835Y-88048345D01*
X159258000Y-88011000D01*
X159258000Y-87249000D01*
X159259835Y-87211655D01*
X159265321Y-87174671D01*
X159274406Y-87138402D01*
X159287002Y-87103198D01*
X159302988Y-87069398D01*
X159322210Y-87037328D01*
X159344483Y-87007296D01*
X159369592Y-86979592D01*
X159397296Y-86954483D01*
X159427328Y-86932210D01*
X159459398Y-86912988D01*
X159493198Y-86897002D01*
X159528402Y-86884406D01*
X159564671Y-86875321D01*
X159601655Y-86869835D01*
X159639000Y-86868000D01*
X160401000Y-86868000D01*
X160438345Y-86869835D01*
G37*
G04 #@! TD.AperFunction*
D10*
X157480000Y-87630000D03*
D14*
X150000000Y-110000000D03*
X120000000Y-110000000D03*
X120000000Y-70000000D03*
X150000000Y-70000000D03*
D12*
X162035000Y-97155000D03*
X164575000Y-97155000D03*
D13*
X167115000Y-97155000D03*
D12*
X162035000Y-99695000D03*
X164575000Y-99695000D03*
D13*
X167115000Y-99695000D03*
D12*
X162035000Y-102235000D03*
X164575000Y-102235000D03*
D13*
X167115000Y-102235000D03*
D12*
X162035000Y-104775000D03*
X164575000Y-104775000D03*
D13*
X167115000Y-104775000D03*
D12*
X162035000Y-107315000D03*
X164575000Y-107315000D03*
D13*
X167115000Y-107315000D03*
D12*
X162035000Y-109855000D03*
X164575000Y-109855000D03*
D13*
X167115000Y-109855000D03*
D12*
X162035000Y-112395000D03*
X164575000Y-112395000D03*
D13*
X167115000Y-112395000D03*
D12*
X162035000Y-114935000D03*
X164575000Y-114935000D03*
D13*
X167115000Y-114935000D03*
D12*
X118110000Y-81280000D03*
X115570000Y-81280000D03*
D13*
X113030000Y-81280000D03*
D12*
X118110000Y-83820000D03*
X115570000Y-83820000D03*
D13*
X113030000Y-83820000D03*
D12*
X118110000Y-86360000D03*
X115570000Y-86360000D03*
D13*
X113030000Y-86360000D03*
D12*
X118110000Y-88900000D03*
X115570000Y-88900000D03*
D13*
X113030000Y-88900000D03*
D12*
X118110000Y-91440000D03*
X115570000Y-91440000D03*
D13*
X113030000Y-91440000D03*
D12*
X118110000Y-93980000D03*
X115570000Y-93980000D03*
D13*
X113030000Y-93980000D03*
D12*
X118110000Y-96520000D03*
X115570000Y-96520000D03*
D13*
X113030000Y-96520000D03*
D12*
X118110000Y-99060000D03*
X115570000Y-99060000D03*
D13*
X113030000Y-99060000D03*
D15*
X154940000Y-81280000D03*
D16*
X148700000Y-101600000D02*
X142240000Y-101600000D01*
X148700000Y-101600000D02*
X162035000Y-114935000D01*
X142240000Y-99060000D02*
X148700000Y-99060000D01*
X148700000Y-99060000D02*
X162035000Y-112395000D01*
X142240000Y-91440000D02*
X143620000Y-91440000D01*
X143620000Y-91440000D02*
X162035000Y-109855000D01*
X142240000Y-88900000D02*
X143620000Y-88900000D01*
X143620000Y-88900000D02*
X162035000Y-107315000D01*
X142240000Y-86360000D02*
X143620000Y-86360000D01*
X143620000Y-86360000D02*
X162035000Y-104775000D01*
X142240000Y-83820000D02*
X143620000Y-83820000D01*
X143620000Y-83820000D02*
X162035000Y-102235000D01*
X142240000Y-81280000D02*
X143620000Y-81280000D01*
X143620000Y-81280000D02*
X162035000Y-99695000D01*
X142240000Y-78740000D02*
X143620000Y-78740000D01*
X143620000Y-78740000D02*
X162035000Y-97155000D01*
X164575000Y-114935000D02*
X164575000Y-97155000D01*
X157480000Y-90060000D02*
X157480000Y-87630000D01*
X134620000Y-78740000D02*
X142240000Y-71120000D01*
X134620000Y-106680000D02*
X134620000Y-78740000D01*
X127000000Y-114300000D02*
X134620000Y-106680000D01*
X147320000Y-66040000D02*
X147320000Y-61722000D01*
X142240000Y-71120000D02*
X147320000Y-66040000D01*
X162670000Y-116840000D02*
X164575000Y-114935000D01*
X129540000Y-116840000D02*
X162670000Y-116840000D01*
X127000000Y-114300000D02*
X129540000Y-116840000D01*
X157480000Y-90060000D02*
X164575000Y-97155000D01*
X160020000Y-87630000D02*
X160020000Y-88900000D01*
X160020000Y-86360000D02*
X160020000Y-87630000D01*
X154940000Y-81280000D02*
X160020000Y-86360000D01*
X125730000Y-109220000D02*
X127000000Y-109220000D01*
X115570000Y-99060000D02*
X125730000Y-109220000D01*
X115570000Y-99060000D02*
X115570000Y-81280000D01*
X119380000Y-63500000D02*
X139700000Y-63500000D01*
X139700000Y-63500000D02*
X142240000Y-66040000D01*
X115570000Y-67310000D02*
X119380000Y-63500000D01*
X115570000Y-81280000D02*
X115570000Y-67310000D01*
X140462000Y-64262000D02*
X142240000Y-66040000D01*
X140462000Y-61722000D02*
X140462000Y-64262000D01*
X119380000Y-99060000D02*
X127000000Y-106680000D01*
X118110000Y-99060000D02*
X119380000Y-99060000D01*
X119380000Y-96520000D02*
X127000000Y-104140000D01*
X118110000Y-96520000D02*
X119380000Y-96520000D01*
X119380000Y-93980000D02*
X127000000Y-101600000D01*
X118110000Y-93980000D02*
X119380000Y-93980000D01*
X119380000Y-91440000D02*
X127000000Y-99060000D01*
X118110000Y-91440000D02*
X119380000Y-91440000D01*
X119380000Y-88900000D02*
X127000000Y-96520000D01*
X118110000Y-88900000D02*
X119380000Y-88900000D01*
X119380000Y-86360000D02*
X127000000Y-93980000D01*
X118110000Y-86360000D02*
X119380000Y-86360000D01*
X119380000Y-83820000D02*
X127000000Y-91440000D01*
X118110000Y-83820000D02*
X119380000Y-83820000D01*
X119380000Y-81280000D02*
X127000000Y-88900000D01*
X118110000Y-81280000D02*
X119380000Y-81280000D01*
X142240000Y-73660000D02*
X147955000Y-79375000D01*
X159385000Y-79375000D02*
X167640000Y-87630000D01*
X147955000Y-79375000D02*
X159385000Y-79375000D01*
X167640000Y-87630000D02*
X167640000Y-88900000D01*
X165100000Y-87630000D02*
X165100000Y-88900000D01*
X162560000Y-87630000D02*
X162560000Y-88900000D01*
D17*
G36*
X148384188Y-60747518D02*
G01*
X148371928Y-60872000D01*
X148371928Y-62572000D01*
X148384188Y-62696482D01*
X148420498Y-62816180D01*
X148479463Y-62926494D01*
X148558815Y-63023185D01*
X148655506Y-63102537D01*
X148765820Y-63161502D01*
X148885518Y-63197812D01*
X149010000Y-63210072D01*
X150710000Y-63210072D01*
X150834482Y-63197812D01*
X150954180Y-63161502D01*
X151064494Y-63102537D01*
X151161185Y-63023185D01*
X151240537Y-62926494D01*
X151299502Y-62816180D01*
X151335812Y-62696482D01*
X151348072Y-62572000D01*
X151348072Y-60872000D01*
X151335812Y-60747518D01*
X151319881Y-60695000D01*
X169305000Y-60695000D01*
X169305001Y-96393000D01*
X168603072Y-96393000D01*
X168603072Y-96305000D01*
X168590812Y-96180518D01*
X168554502Y-96060820D01*
X168495537Y-95950506D01*
X168416185Y-95853815D01*
X168319494Y-95774463D01*
X168209180Y-95715498D01*
X168089482Y-95679188D01*
X167965000Y-95666928D01*
X166265000Y-95666928D01*
X166140518Y-95679188D01*
X166020820Y-95715498D01*
X165910506Y-95774463D01*
X165813815Y-95853815D01*
X165734463Y-95950506D01*
X165675498Y-96060820D01*
X165651034Y-96141466D01*
X165575269Y-96057412D01*
X165341920Y-95883359D01*
X165079099Y-95758175D01*
X164931890Y-95713524D01*
X164702000Y-95834845D01*
X164702000Y-97028000D01*
X164722000Y-97028000D01*
X164722000Y-97282000D01*
X164702000Y-97282000D01*
X164702000Y-99568000D01*
X164722000Y-99568000D01*
X164722000Y-99822000D01*
X164702000Y-99822000D01*
X164702000Y-102108000D01*
X164722000Y-102108000D01*
X164722000Y-102362000D01*
X164702000Y-102362000D01*
X164702000Y-104648000D01*
X164722000Y-104648000D01*
X164722000Y-104902000D01*
X164702000Y-104902000D01*
X164702000Y-107188000D01*
X164722000Y-107188000D01*
X164722000Y-107442000D01*
X164702000Y-107442000D01*
X164702000Y-109728000D01*
X164722000Y-109728000D01*
X164722000Y-109982000D01*
X164702000Y-109982000D01*
X164702000Y-112268000D01*
X164722000Y-112268000D01*
X164722000Y-112522000D01*
X164702000Y-112522000D01*
X164702000Y-114808000D01*
X164722000Y-114808000D01*
X164722000Y-115062000D01*
X164702000Y-115062000D01*
X164702000Y-116255155D01*
X164931890Y-116376476D01*
X165079099Y-116331825D01*
X165341920Y-116206641D01*
X165575269Y-116032588D01*
X165651034Y-115948534D01*
X165675498Y-116029180D01*
X165734463Y-116139494D01*
X165813815Y-116236185D01*
X165910506Y-116315537D01*
X166020820Y-116374502D01*
X166140518Y-116410812D01*
X166265000Y-116423072D01*
X167965000Y-116423072D01*
X168089482Y-116410812D01*
X168209180Y-116374502D01*
X168319494Y-116315537D01*
X168416185Y-116236185D01*
X168495537Y-116139494D01*
X168554502Y-116029180D01*
X168590812Y-115909482D01*
X168603072Y-115785000D01*
X168603072Y-115760500D01*
X169305001Y-115760500D01*
X169305001Y-119305000D01*
X120021848Y-119305000D01*
X118833946Y-119230264D01*
X117686278Y-119011335D01*
X116575107Y-118650293D01*
X115517944Y-118152829D01*
X114531467Y-117526792D01*
X113631230Y-116782051D01*
X112831433Y-115930355D01*
X112348436Y-115265565D01*
X126214040Y-115265565D01*
X126281020Y-115505656D01*
X126530048Y-115622756D01*
X126797135Y-115689023D01*
X127072017Y-115701910D01*
X127344133Y-115660922D01*
X127603023Y-115567636D01*
X127718980Y-115505656D01*
X127785960Y-115265565D01*
X127000000Y-114479605D01*
X126214040Y-115265565D01*
X112348436Y-115265565D01*
X112144688Y-114985130D01*
X111807627Y-114372017D01*
X125598090Y-114372017D01*
X125639078Y-114644133D01*
X125732364Y-114903023D01*
X125794344Y-115018980D01*
X126034435Y-115085960D01*
X126820395Y-114300000D01*
X127179605Y-114300000D01*
X127965565Y-115085960D01*
X128205656Y-115018980D01*
X128322756Y-114769952D01*
X128389023Y-114502865D01*
X128401910Y-114227983D01*
X128360922Y-113955867D01*
X128267636Y-113696977D01*
X128205656Y-113581020D01*
X127965565Y-113514040D01*
X127179605Y-114300000D01*
X126820395Y-114300000D01*
X126034435Y-113514040D01*
X125794344Y-113581020D01*
X125677244Y-113830048D01*
X125610977Y-114097135D01*
X125598090Y-114372017D01*
X111807627Y-114372017D01*
X111581828Y-113961292D01*
X111151725Y-112874977D01*
X110861167Y-111743329D01*
X110713360Y-110573313D01*
X110695000Y-109989083D01*
X110695000Y-109641984D01*
X116365000Y-109641984D01*
X116365000Y-110358016D01*
X116504691Y-111060290D01*
X116778705Y-111721818D01*
X117176511Y-112317177D01*
X117682823Y-112823489D01*
X118278182Y-113221295D01*
X118939710Y-113495309D01*
X119641984Y-113635000D01*
X120358016Y-113635000D01*
X121060290Y-113495309D01*
X121721818Y-113221295D01*
X122317177Y-112823489D01*
X122823489Y-112317177D01*
X123221295Y-111721818D01*
X123495309Y-111060290D01*
X123635000Y-110358016D01*
X123635000Y-109641984D01*
X123495309Y-108939710D01*
X123221295Y-108278182D01*
X122823489Y-107682823D01*
X122317177Y-107176511D01*
X121721818Y-106778705D01*
X121060290Y-106504691D01*
X120358016Y-106365000D01*
X119641984Y-106365000D01*
X118939710Y-106504691D01*
X118278182Y-106778705D01*
X117682823Y-107176511D01*
X117176511Y-107682823D01*
X116778705Y-108278182D01*
X116504691Y-108939710D01*
X116365000Y-109641984D01*
X110695000Y-109641984D01*
X110695000Y-99187000D01*
X111541928Y-99187000D01*
X111541928Y-99910000D01*
X111554188Y-100034482D01*
X111590498Y-100154180D01*
X111649463Y-100264494D01*
X111728815Y-100361185D01*
X111825506Y-100440537D01*
X111935820Y-100499502D01*
X112055518Y-100535812D01*
X112180000Y-100548072D01*
X113880000Y-100548072D01*
X114004482Y-100535812D01*
X114124180Y-100499502D01*
X114234494Y-100440537D01*
X114331185Y-100361185D01*
X114410537Y-100264494D01*
X114469502Y-100154180D01*
X114491513Y-100081620D01*
X114623368Y-100213475D01*
X114866589Y-100375990D01*
X115136842Y-100487932D01*
X115423740Y-100545000D01*
X115716260Y-100545000D01*
X115847940Y-100518807D01*
X125110563Y-109781432D01*
X125136709Y-109813291D01*
X125168568Y-109839437D01*
X125168570Y-109839439D01*
X125263854Y-109917636D01*
X125408913Y-109995172D01*
X125566311Y-110042918D01*
X125730000Y-110059040D01*
X125771018Y-110055000D01*
X125877773Y-110055000D01*
X125914880Y-110110535D01*
X126109465Y-110305120D01*
X126283054Y-110421108D01*
X126229018Y-110437500D01*
X126052834Y-110531673D01*
X125898407Y-110658407D01*
X125771673Y-110812834D01*
X125677500Y-110989018D01*
X125619509Y-111180189D01*
X125599928Y-111379000D01*
X125599928Y-112141000D01*
X125619509Y-112339811D01*
X125677500Y-112530982D01*
X125771673Y-112707166D01*
X125898407Y-112861593D01*
X126052834Y-112988327D01*
X126229018Y-113082500D01*
X126280009Y-113097968D01*
X126214040Y-113334435D01*
X127000000Y-114120395D01*
X127785960Y-113334435D01*
X127719991Y-113097968D01*
X127770982Y-113082500D01*
X127947166Y-112988327D01*
X128101593Y-112861593D01*
X128228327Y-112707166D01*
X128322500Y-112530982D01*
X128380491Y-112339811D01*
X128400072Y-112141000D01*
X128400072Y-111379000D01*
X128380491Y-111180189D01*
X128322500Y-110989018D01*
X128228327Y-110812834D01*
X128101593Y-110658407D01*
X127947166Y-110531673D01*
X127770982Y-110437500D01*
X127716946Y-110421108D01*
X127890535Y-110305120D01*
X128085120Y-110110535D01*
X128238005Y-109881727D01*
X128343314Y-109627490D01*
X128397000Y-109357592D01*
X128397000Y-109082408D01*
X128343314Y-108812510D01*
X128238005Y-108558273D01*
X128085120Y-108329465D01*
X127890535Y-108134880D01*
X127661727Y-107981995D01*
X127584485Y-107950000D01*
X127661727Y-107918005D01*
X127890535Y-107765120D01*
X128085120Y-107570535D01*
X128238005Y-107341727D01*
X128343314Y-107087490D01*
X128397000Y-106817592D01*
X128397000Y-106542408D01*
X128343314Y-106272510D01*
X128238005Y-106018273D01*
X128085120Y-105789465D01*
X127890535Y-105594880D01*
X127661727Y-105441995D01*
X127584485Y-105410000D01*
X127661727Y-105378005D01*
X127890535Y-105225120D01*
X128085120Y-105030535D01*
X128238005Y-104801727D01*
X128343314Y-104547490D01*
X128397000Y-104277592D01*
X128397000Y-104002408D01*
X128343314Y-103732510D01*
X128238005Y-103478273D01*
X128085120Y-103249465D01*
X127890535Y-103054880D01*
X127661727Y-102901995D01*
X127584485Y-102870000D01*
X127661727Y-102838005D01*
X127890535Y-102685120D01*
X128085120Y-102490535D01*
X128238005Y-102261727D01*
X128343314Y-102007490D01*
X128397000Y-101737592D01*
X128397000Y-101462408D01*
X128343314Y-101192510D01*
X128238005Y-100938273D01*
X128085120Y-100709465D01*
X127890535Y-100514880D01*
X127661727Y-100361995D01*
X127584485Y-100330000D01*
X127661727Y-100298005D01*
X127890535Y-100145120D01*
X128085120Y-99950535D01*
X128238005Y-99721727D01*
X128343314Y-99467490D01*
X128397000Y-99197592D01*
X128397000Y-98922408D01*
X128343314Y-98652510D01*
X128238005Y-98398273D01*
X128085120Y-98169465D01*
X127890535Y-97974880D01*
X127661727Y-97821995D01*
X127584485Y-97790000D01*
X127661727Y-97758005D01*
X127890535Y-97605120D01*
X128085120Y-97410535D01*
X128238005Y-97181727D01*
X128343314Y-96927490D01*
X128397000Y-96657592D01*
X128397000Y-96382408D01*
X128343314Y-96112510D01*
X128238005Y-95858273D01*
X128085120Y-95629465D01*
X127890535Y-95434880D01*
X127661727Y-95281995D01*
X127584485Y-95250000D01*
X127661727Y-95218005D01*
X127890535Y-95065120D01*
X128085120Y-94870535D01*
X128238005Y-94641727D01*
X128343314Y-94387490D01*
X128397000Y-94117592D01*
X128397000Y-93842408D01*
X128343314Y-93572510D01*
X128238005Y-93318273D01*
X128085120Y-93089465D01*
X127890535Y-92894880D01*
X127661727Y-92741995D01*
X127584485Y-92710000D01*
X127661727Y-92678005D01*
X127890535Y-92525120D01*
X128085120Y-92330535D01*
X128238005Y-92101727D01*
X128343314Y-91847490D01*
X128397000Y-91577592D01*
X128397000Y-91302408D01*
X128343314Y-91032510D01*
X128238005Y-90778273D01*
X128085120Y-90549465D01*
X127890535Y-90354880D01*
X127661727Y-90201995D01*
X127584485Y-90170000D01*
X127661727Y-90138005D01*
X127890535Y-89985120D01*
X128085120Y-89790535D01*
X128238005Y-89561727D01*
X128343314Y-89307490D01*
X128397000Y-89037592D01*
X128397000Y-88762408D01*
X128343314Y-88492510D01*
X128238005Y-88238273D01*
X128085120Y-88009465D01*
X127890535Y-87814880D01*
X127661727Y-87661995D01*
X127584485Y-87630000D01*
X127661727Y-87598005D01*
X127890535Y-87445120D01*
X128085120Y-87250535D01*
X128238005Y-87021727D01*
X128343314Y-86767490D01*
X128397000Y-86497592D01*
X128397000Y-86222408D01*
X128343314Y-85952510D01*
X128238005Y-85698273D01*
X128085120Y-85469465D01*
X127890535Y-85274880D01*
X127661727Y-85121995D01*
X127584485Y-85090000D01*
X127661727Y-85058005D01*
X127890535Y-84905120D01*
X128085120Y-84710535D01*
X128238005Y-84481727D01*
X128343314Y-84227490D01*
X128397000Y-83957592D01*
X128397000Y-83682408D01*
X128343314Y-83412510D01*
X128238005Y-83158273D01*
X128085120Y-82929465D01*
X127890535Y-82734880D01*
X127661727Y-82581995D01*
X127584485Y-82550000D01*
X127661727Y-82518005D01*
X127890535Y-82365120D01*
X128085120Y-82170535D01*
X128238005Y-81941727D01*
X128301681Y-81788000D01*
X130429000Y-81788000D01*
X130453776Y-81785560D01*
X130477601Y-81778333D01*
X130499557Y-81766597D01*
X130517964Y-81751634D01*
X138901642Y-73522408D01*
X140843000Y-73522408D01*
X140843000Y-73797592D01*
X140896686Y-74067490D01*
X141001995Y-74321727D01*
X141154880Y-74550535D01*
X141349465Y-74745120D01*
X141578273Y-74898005D01*
X141655515Y-74930000D01*
X141578273Y-74961995D01*
X141349465Y-75114880D01*
X141154880Y-75309465D01*
X141001995Y-75538273D01*
X140896686Y-75792510D01*
X140843000Y-76062408D01*
X140843000Y-76337592D01*
X140896686Y-76607490D01*
X141001995Y-76861727D01*
X141154880Y-77090535D01*
X141349465Y-77285120D01*
X141578273Y-77438005D01*
X141655515Y-77470000D01*
X141578273Y-77501995D01*
X141349465Y-77654880D01*
X141154880Y-77849465D01*
X141001995Y-78078273D01*
X140896686Y-78332510D01*
X140843000Y-78602408D01*
X140843000Y-78877592D01*
X140896686Y-79147490D01*
X141001995Y-79401727D01*
X141154880Y-79630535D01*
X141349465Y-79825120D01*
X141578273Y-79978005D01*
X141655515Y-80010000D01*
X141578273Y-80041995D01*
X141349465Y-80194880D01*
X141154880Y-80389465D01*
X141001995Y-80618273D01*
X140896686Y-80872510D01*
X140843000Y-81142408D01*
X140843000Y-81417592D01*
X140896686Y-81687490D01*
X141001995Y-81941727D01*
X141154880Y-82170535D01*
X141349465Y-82365120D01*
X141578273Y-82518005D01*
X141655515Y-82550000D01*
X141578273Y-82581995D01*
X141349465Y-82734880D01*
X141154880Y-82929465D01*
X141001995Y-83158273D01*
X140896686Y-83412510D01*
X140843000Y-83682408D01*
X140843000Y-83957592D01*
X140896686Y-84227490D01*
X141001995Y-84481727D01*
X141154880Y-84710535D01*
X141349465Y-84905120D01*
X141578273Y-85058005D01*
X141655515Y-85090000D01*
X141578273Y-85121995D01*
X141349465Y-85274880D01*
X141154880Y-85469465D01*
X141001995Y-85698273D01*
X140896686Y-85952510D01*
X140843000Y-86222408D01*
X140843000Y-86497592D01*
X140896686Y-86767490D01*
X141001995Y-87021727D01*
X141154880Y-87250535D01*
X141349465Y-87445120D01*
X141578273Y-87598005D01*
X141655515Y-87630000D01*
X141578273Y-87661995D01*
X141349465Y-87814880D01*
X141154880Y-88009465D01*
X141001995Y-88238273D01*
X140896686Y-88492510D01*
X140843000Y-88762408D01*
X140843000Y-89037592D01*
X140896686Y-89307490D01*
X141001995Y-89561727D01*
X141154880Y-89790535D01*
X141349465Y-89985120D01*
X141578273Y-90138005D01*
X141655515Y-90170000D01*
X141578273Y-90201995D01*
X141349465Y-90354880D01*
X141154880Y-90549465D01*
X141001995Y-90778273D01*
X140896686Y-91032510D01*
X140843000Y-91302408D01*
X140843000Y-91577592D01*
X140896686Y-91847490D01*
X141001995Y-92101727D01*
X141154880Y-92330535D01*
X141349465Y-92525120D01*
X141578273Y-92678005D01*
X141655515Y-92710000D01*
X141578273Y-92741995D01*
X141349465Y-92894880D01*
X141154880Y-93089465D01*
X141001995Y-93318273D01*
X140896686Y-93572510D01*
X140843000Y-93842408D01*
X140843000Y-94117592D01*
X140896686Y-94387490D01*
X141001995Y-94641727D01*
X141154880Y-94870535D01*
X141349465Y-95065120D01*
X141578273Y-95218005D01*
X141655515Y-95250000D01*
X141578273Y-95281995D01*
X141349465Y-95434880D01*
X141154880Y-95629465D01*
X141001995Y-95858273D01*
X140896686Y-96112510D01*
X140843000Y-96382408D01*
X140843000Y-96657592D01*
X140896686Y-96927490D01*
X141001995Y-97181727D01*
X141154880Y-97410535D01*
X141349465Y-97605120D01*
X141578273Y-97758005D01*
X141655515Y-97790000D01*
X141578273Y-97821995D01*
X141349465Y-97974880D01*
X141154880Y-98169465D01*
X141001995Y-98398273D01*
X140896686Y-98652510D01*
X140843000Y-98922408D01*
X140843000Y-99197592D01*
X140896686Y-99467490D01*
X141001995Y-99721727D01*
X141154880Y-99950535D01*
X141349465Y-100145120D01*
X141578273Y-100298005D01*
X141655515Y-100330000D01*
X141578273Y-100361995D01*
X141349465Y-100514880D01*
X141154880Y-100709465D01*
X141001995Y-100938273D01*
X140896686Y-101192510D01*
X140843000Y-101462408D01*
X140843000Y-101737592D01*
X140896686Y-102007490D01*
X141001995Y-102261727D01*
X141154880Y-102490535D01*
X141349465Y-102685120D01*
X141578273Y-102838005D01*
X141655515Y-102870000D01*
X141578273Y-102901995D01*
X141349465Y-103054880D01*
X141154880Y-103249465D01*
X141001995Y-103478273D01*
X140896686Y-103732510D01*
X140843000Y-104002408D01*
X140843000Y-104277592D01*
X140896686Y-104547490D01*
X141001995Y-104801727D01*
X141154880Y-105030535D01*
X141349465Y-105225120D01*
X141578273Y-105378005D01*
X141655515Y-105410000D01*
X141578273Y-105441995D01*
X141349465Y-105594880D01*
X141154880Y-105789465D01*
X141001995Y-106018273D01*
X140896686Y-106272510D01*
X140843000Y-106542408D01*
X140843000Y-106817592D01*
X140896686Y-107087490D01*
X141001995Y-107341727D01*
X141154880Y-107570535D01*
X141349465Y-107765120D01*
X141578273Y-107918005D01*
X141655515Y-107950000D01*
X141578273Y-107981995D01*
X141349465Y-108134880D01*
X141154880Y-108329465D01*
X141001995Y-108558273D01*
X140896686Y-108812510D01*
X140843000Y-109082408D01*
X140843000Y-109357592D01*
X140896686Y-109627490D01*
X141001995Y-109881727D01*
X141154880Y-110110535D01*
X141349465Y-110305120D01*
X141578273Y-110458005D01*
X141655515Y-110490000D01*
X141578273Y-110521995D01*
X141349465Y-110674880D01*
X141154880Y-110869465D01*
X141001995Y-111098273D01*
X140896686Y-111352510D01*
X140843000Y-111622408D01*
X140843000Y-111897592D01*
X140896686Y-112167490D01*
X141001995Y-112421727D01*
X141154880Y-112650535D01*
X141349465Y-112845120D01*
X141578273Y-112998005D01*
X141655515Y-113030000D01*
X141578273Y-113061995D01*
X141349465Y-113214880D01*
X141154880Y-113409465D01*
X141001995Y-113638273D01*
X140896686Y-113892510D01*
X140843000Y-114162408D01*
X140843000Y-114437592D01*
X140896686Y-114707490D01*
X141001995Y-114961727D01*
X141154880Y-115190535D01*
X141349465Y-115385120D01*
X141578273Y-115538005D01*
X141832510Y-115643314D01*
X142102408Y-115697000D01*
X142377592Y-115697000D01*
X142647490Y-115643314D01*
X142901727Y-115538005D01*
X143130535Y-115385120D01*
X143325120Y-115190535D01*
X143478005Y-114961727D01*
X143583314Y-114707490D01*
X143637000Y-114437592D01*
X143637000Y-114162408D01*
X143583314Y-113892510D01*
X143478005Y-113638273D01*
X143325120Y-113409465D01*
X143130535Y-113214880D01*
X142901727Y-113061995D01*
X142824485Y-113030000D01*
X142901727Y-112998005D01*
X143130535Y-112845120D01*
X143325120Y-112650535D01*
X143478005Y-112421727D01*
X143583314Y-112167490D01*
X143637000Y-111897592D01*
X143637000Y-111622408D01*
X143583314Y-111352510D01*
X143478005Y-111098273D01*
X143325120Y-110869465D01*
X143130535Y-110674880D01*
X142901727Y-110521995D01*
X142824485Y-110490000D01*
X142901727Y-110458005D01*
X143130535Y-110305120D01*
X143325120Y-110110535D01*
X143478005Y-109881727D01*
X143577310Y-109641984D01*
X146365000Y-109641984D01*
X146365000Y-110358016D01*
X146504691Y-111060290D01*
X146778705Y-111721818D01*
X147176511Y-112317177D01*
X147682823Y-112823489D01*
X148278182Y-113221295D01*
X148939710Y-113495309D01*
X149641984Y-113635000D01*
X150358016Y-113635000D01*
X151060290Y-113495309D01*
X151721818Y-113221295D01*
X152317177Y-112823489D01*
X152823489Y-112317177D01*
X153221295Y-111721818D01*
X153495309Y-111060290D01*
X153635000Y-110358016D01*
X153635000Y-109641984D01*
X153495309Y-108939710D01*
X153221295Y-108278182D01*
X152823489Y-107682823D01*
X152317177Y-107176511D01*
X151721818Y-106778705D01*
X151060290Y-106504691D01*
X150358016Y-106365000D01*
X149641984Y-106365000D01*
X148939710Y-106504691D01*
X148278182Y-106778705D01*
X147682823Y-107176511D01*
X147176511Y-107682823D01*
X146778705Y-108278182D01*
X146504691Y-108939710D01*
X146365000Y-109641984D01*
X143577310Y-109641984D01*
X143583314Y-109627490D01*
X143637000Y-109357592D01*
X143637000Y-109082408D01*
X143583314Y-108812510D01*
X143478005Y-108558273D01*
X143325120Y-108329465D01*
X143130535Y-108134880D01*
X142901727Y-107981995D01*
X142824485Y-107950000D01*
X142901727Y-107918005D01*
X143130535Y-107765120D01*
X143325120Y-107570535D01*
X143478005Y-107341727D01*
X143583314Y-107087490D01*
X143637000Y-106817592D01*
X143637000Y-106542408D01*
X143583314Y-106272510D01*
X143478005Y-106018273D01*
X143325120Y-105789465D01*
X143130535Y-105594880D01*
X142901727Y-105441995D01*
X142824485Y-105410000D01*
X142901727Y-105378005D01*
X143130535Y-105225120D01*
X143325120Y-105030535D01*
X143478005Y-104801727D01*
X143583314Y-104547490D01*
X143637000Y-104277592D01*
X143637000Y-104002408D01*
X143583314Y-103732510D01*
X143478005Y-103478273D01*
X143325120Y-103249465D01*
X143130535Y-103054880D01*
X142901727Y-102901995D01*
X142824485Y-102870000D01*
X142901727Y-102838005D01*
X143130535Y-102685120D01*
X143325120Y-102490535D01*
X143362227Y-102435000D01*
X148354133Y-102435000D01*
X160576193Y-114657062D01*
X160550000Y-114788740D01*
X160550000Y-115081260D01*
X160607068Y-115368158D01*
X160719010Y-115638411D01*
X160881525Y-115881632D01*
X161088368Y-116088475D01*
X161331589Y-116250990D01*
X161601842Y-116362932D01*
X161888740Y-116420000D01*
X162181260Y-116420000D01*
X162468158Y-116362932D01*
X162738411Y-116250990D01*
X162981632Y-116088475D01*
X163188475Y-115881632D01*
X163310195Y-115699466D01*
X163379822Y-115816355D01*
X163574731Y-116032588D01*
X163808080Y-116206641D01*
X164070901Y-116331825D01*
X164218110Y-116376476D01*
X164448000Y-116255155D01*
X164448000Y-115062000D01*
X164428000Y-115062000D01*
X164428000Y-114808000D01*
X164448000Y-114808000D01*
X164448000Y-112522000D01*
X164428000Y-112522000D01*
X164428000Y-112268000D01*
X164448000Y-112268000D01*
X164448000Y-109982000D01*
X164428000Y-109982000D01*
X164428000Y-109728000D01*
X164448000Y-109728000D01*
X164448000Y-107442000D01*
X164428000Y-107442000D01*
X164428000Y-107188000D01*
X164448000Y-107188000D01*
X164448000Y-104902000D01*
X164428000Y-104902000D01*
X164428000Y-104648000D01*
X164448000Y-104648000D01*
X164448000Y-102362000D01*
X164428000Y-102362000D01*
X164428000Y-102108000D01*
X164448000Y-102108000D01*
X164448000Y-99822000D01*
X164428000Y-99822000D01*
X164428000Y-99568000D01*
X164448000Y-99568000D01*
X164448000Y-97282000D01*
X164428000Y-97282000D01*
X164428000Y-97028000D01*
X164448000Y-97028000D01*
X164448000Y-95834845D01*
X164218110Y-95713524D01*
X164070901Y-95758175D01*
X163808080Y-95883359D01*
X163574731Y-96057412D01*
X163379822Y-96273645D01*
X163310195Y-96390534D01*
X163188475Y-96208368D01*
X162981632Y-96001525D01*
X162738411Y-95839010D01*
X162468158Y-95727068D01*
X162181260Y-95670000D01*
X161888740Y-95670000D01*
X161757062Y-95696193D01*
X155926434Y-89865565D01*
X156694040Y-89865565D01*
X156761020Y-90105656D01*
X157010048Y-90222756D01*
X157277135Y-90289023D01*
X157552017Y-90301910D01*
X157824133Y-90260922D01*
X158083023Y-90167636D01*
X158198980Y-90105656D01*
X158265960Y-89865565D01*
X157480000Y-89079605D01*
X156694040Y-89865565D01*
X155926434Y-89865565D01*
X152725304Y-86664435D01*
X156694040Y-86664435D01*
X157480000Y-87450395D01*
X158265960Y-86664435D01*
X158198980Y-86424344D01*
X157949952Y-86307244D01*
X157682865Y-86240977D01*
X157407983Y-86228090D01*
X157135867Y-86269078D01*
X156876977Y-86362364D01*
X156761020Y-86424344D01*
X156694040Y-86664435D01*
X152725304Y-86664435D01*
X144239446Y-78178579D01*
X144213291Y-78146709D01*
X144086146Y-78042364D01*
X143941087Y-77964828D01*
X143783689Y-77917082D01*
X143661019Y-77905000D01*
X143661018Y-77905000D01*
X143620000Y-77900960D01*
X143578982Y-77905000D01*
X143362227Y-77905000D01*
X143325120Y-77849465D01*
X143130535Y-77654880D01*
X142901727Y-77501995D01*
X142824485Y-77470000D01*
X142901727Y-77438005D01*
X143130535Y-77285120D01*
X143325120Y-77090535D01*
X143478005Y-76861727D01*
X143583314Y-76607490D01*
X143637000Y-76337592D01*
X143637000Y-76237868D01*
X147335563Y-79936432D01*
X147361709Y-79968291D01*
X147488854Y-80072636D01*
X147633913Y-80150172D01*
X147791311Y-80197918D01*
X147913981Y-80210000D01*
X147913982Y-80210000D01*
X147955000Y-80214040D01*
X147996018Y-80210000D01*
X159039133Y-80210000D01*
X165062131Y-86233000D01*
X164962408Y-86233000D01*
X164692510Y-86286686D01*
X164438273Y-86391995D01*
X164209465Y-86544880D01*
X164014880Y-86739465D01*
X163861995Y-86968273D01*
X163830000Y-87045515D01*
X163798005Y-86968273D01*
X163645120Y-86739465D01*
X163450535Y-86544880D01*
X163221727Y-86391995D01*
X162967490Y-86286686D01*
X162697592Y-86233000D01*
X162422408Y-86233000D01*
X162152510Y-86286686D01*
X161898273Y-86391995D01*
X161669465Y-86544880D01*
X161474880Y-86739465D01*
X161358892Y-86913054D01*
X161342500Y-86859018D01*
X161248327Y-86682834D01*
X161121593Y-86528407D01*
X160967166Y-86401673D01*
X160857364Y-86342982D01*
X160842918Y-86196311D01*
X160795172Y-86038913D01*
X160717636Y-85893854D01*
X160639439Y-85798570D01*
X160639437Y-85798568D01*
X160613291Y-85766709D01*
X160581433Y-85740564D01*
X155964093Y-81123225D01*
X155935226Y-80978102D01*
X155857205Y-80789744D01*
X155743937Y-80620226D01*
X155599774Y-80476063D01*
X155430256Y-80362795D01*
X155241898Y-80284774D01*
X155041939Y-80245000D01*
X154838061Y-80245000D01*
X154638102Y-80284774D01*
X154449744Y-80362795D01*
X154280226Y-80476063D01*
X154136063Y-80620226D01*
X154022795Y-80789744D01*
X153944774Y-80978102D01*
X153905000Y-81178061D01*
X153905000Y-81381939D01*
X153944774Y-81581898D01*
X154022795Y-81770256D01*
X154136063Y-81939774D01*
X154280226Y-82083937D01*
X154449744Y-82197205D01*
X154638102Y-82275226D01*
X154783225Y-82304093D01*
X158967362Y-86488231D01*
X158918407Y-86528407D01*
X158791673Y-86682834D01*
X158697500Y-86859018D01*
X158682032Y-86910009D01*
X158445565Y-86844040D01*
X157759591Y-87530014D01*
X157682865Y-87510977D01*
X157407983Y-87498090D01*
X157199837Y-87529442D01*
X156514435Y-86844040D01*
X156274344Y-86911020D01*
X156157244Y-87160048D01*
X156090977Y-87427135D01*
X156078090Y-87702017D01*
X156119078Y-87974133D01*
X156212364Y-88233023D01*
X156232328Y-88270373D01*
X156157244Y-88430048D01*
X156090977Y-88697135D01*
X156078090Y-88972017D01*
X156119078Y-89244133D01*
X156212364Y-89503023D01*
X156274344Y-89618980D01*
X156514435Y-89685960D01*
X157200409Y-88999986D01*
X157277135Y-89019023D01*
X157552017Y-89031910D01*
X157760163Y-89000558D01*
X158445565Y-89685960D01*
X158682032Y-89619991D01*
X158697500Y-89670982D01*
X158791673Y-89847166D01*
X158918407Y-90001593D01*
X159072834Y-90128327D01*
X159249018Y-90222500D01*
X159440189Y-90280491D01*
X159639000Y-90300072D01*
X160401000Y-90300072D01*
X160599811Y-90280491D01*
X160790982Y-90222500D01*
X160967166Y-90128327D01*
X161121593Y-90001593D01*
X161248327Y-89847166D01*
X161342500Y-89670982D01*
X161358892Y-89616946D01*
X161474880Y-89790535D01*
X161669465Y-89985120D01*
X161898273Y-90138005D01*
X162152510Y-90243314D01*
X162422408Y-90297000D01*
X162697592Y-90297000D01*
X162967490Y-90243314D01*
X163221727Y-90138005D01*
X163450535Y-89985120D01*
X163645120Y-89790535D01*
X163798005Y-89561727D01*
X163830000Y-89484485D01*
X163861995Y-89561727D01*
X164014880Y-89790535D01*
X164209465Y-89985120D01*
X164438273Y-90138005D01*
X164692510Y-90243314D01*
X164962408Y-90297000D01*
X165237592Y-90297000D01*
X165507490Y-90243314D01*
X165761727Y-90138005D01*
X165990535Y-89985120D01*
X166185120Y-89790535D01*
X166338005Y-89561727D01*
X166370000Y-89484485D01*
X166401995Y-89561727D01*
X166554880Y-89790535D01*
X166749465Y-89985120D01*
X166978273Y-90138005D01*
X167232510Y-90243314D01*
X167502408Y-90297000D01*
X167777592Y-90297000D01*
X168047490Y-90243314D01*
X168301727Y-90138005D01*
X168530535Y-89985120D01*
X168725120Y-89790535D01*
X168878005Y-89561727D01*
X168983314Y-89307490D01*
X169037000Y-89037592D01*
X169037000Y-88762408D01*
X168983314Y-88492510D01*
X168889076Y-88265000D01*
X168983314Y-88037490D01*
X169037000Y-87767592D01*
X169037000Y-87492408D01*
X168983314Y-87222510D01*
X168878005Y-86968273D01*
X168725120Y-86739465D01*
X168530535Y-86544880D01*
X168301727Y-86391995D01*
X168047490Y-86286686D01*
X167777592Y-86233000D01*
X167502408Y-86233000D01*
X167436899Y-86246030D01*
X160004446Y-78813579D01*
X159978291Y-78781709D01*
X159851146Y-78677364D01*
X159706087Y-78599828D01*
X159548689Y-78552082D01*
X159426019Y-78540000D01*
X159426018Y-78540000D01*
X159385000Y-78535960D01*
X159343982Y-78540000D01*
X148300869Y-78540000D01*
X143623969Y-73863102D01*
X143637000Y-73797592D01*
X143637000Y-73522408D01*
X143583314Y-73252510D01*
X143478005Y-72998273D01*
X143325120Y-72769465D01*
X143130535Y-72574880D01*
X142901727Y-72421995D01*
X142830057Y-72392308D01*
X142843023Y-72387636D01*
X142958980Y-72325656D01*
X143025960Y-72085565D01*
X142240000Y-71299605D01*
X141454040Y-72085565D01*
X141521020Y-72325656D01*
X141656760Y-72389485D01*
X141578273Y-72421995D01*
X141349465Y-72574880D01*
X141154880Y-72769465D01*
X141001995Y-72998273D01*
X140896686Y-73252510D01*
X140843000Y-73522408D01*
X138901642Y-73522408D01*
X140910293Y-71550763D01*
X140972364Y-71723023D01*
X141034344Y-71838980D01*
X141274435Y-71905960D01*
X142060395Y-71120000D01*
X142419605Y-71120000D01*
X143205565Y-71905960D01*
X143445656Y-71838980D01*
X143562756Y-71589952D01*
X143629023Y-71322865D01*
X143641910Y-71047983D01*
X143600922Y-70775867D01*
X143507636Y-70516977D01*
X143445656Y-70401020D01*
X143205565Y-70334040D01*
X142419605Y-71120000D01*
X142060395Y-71120000D01*
X142046253Y-71105858D01*
X142225858Y-70926253D01*
X142240000Y-70940395D01*
X143025960Y-70154435D01*
X142959991Y-69917968D01*
X143010982Y-69902500D01*
X143187166Y-69808327D01*
X143341593Y-69681593D01*
X143374099Y-69641984D01*
X146365000Y-69641984D01*
X146365000Y-70358016D01*
X146504691Y-71060290D01*
X146778705Y-71721818D01*
X147176511Y-72317177D01*
X147682823Y-72823489D01*
X148278182Y-73221295D01*
X148939710Y-73495309D01*
X149641984Y-73635000D01*
X150358016Y-73635000D01*
X151060290Y-73495309D01*
X151721818Y-73221295D01*
X152317177Y-72823489D01*
X152823489Y-72317177D01*
X153221295Y-71721818D01*
X153495309Y-71060290D01*
X153635000Y-70358016D01*
X153635000Y-69641984D01*
X153495309Y-68939710D01*
X153221295Y-68278182D01*
X152823489Y-67682823D01*
X152317177Y-67176511D01*
X151721818Y-66778705D01*
X151060290Y-66504691D01*
X150358016Y-66365000D01*
X149641984Y-66365000D01*
X148939710Y-66504691D01*
X148278182Y-66778705D01*
X147682823Y-67176511D01*
X147176511Y-67682823D01*
X146778705Y-68278182D01*
X146504691Y-68939710D01*
X146365000Y-69641984D01*
X143374099Y-69641984D01*
X143468327Y-69527166D01*
X143562500Y-69350982D01*
X143620491Y-69159811D01*
X143640072Y-68961000D01*
X143640072Y-68199000D01*
X143620491Y-68000189D01*
X143562500Y-67809018D01*
X143468327Y-67632834D01*
X143341593Y-67478407D01*
X143187166Y-67351673D01*
X143010982Y-67257500D01*
X142956946Y-67241108D01*
X143130535Y-67125120D01*
X143325120Y-66930535D01*
X143478005Y-66701727D01*
X143583314Y-66447490D01*
X143637000Y-66177592D01*
X143637000Y-65902408D01*
X143583314Y-65632510D01*
X143478005Y-65378273D01*
X143325120Y-65149465D01*
X143130535Y-64954880D01*
X142901727Y-64801995D01*
X142647490Y-64696686D01*
X142617859Y-64690792D01*
X142626234Y-63210072D01*
X143852000Y-63210072D01*
X143976482Y-63197812D01*
X144096180Y-63161502D01*
X144206494Y-63102537D01*
X144303185Y-63023185D01*
X144382537Y-62926494D01*
X144441502Y-62816180D01*
X144477812Y-62696482D01*
X144490072Y-62572000D01*
X144490072Y-60872000D01*
X144477812Y-60747518D01*
X144461881Y-60695000D01*
X148400119Y-60695000D01*
X148384188Y-60747518D01*
G37*
X148384188Y-60747518D02*
X148371928Y-60872000D01*
X148371928Y-62572000D01*
X148384188Y-62696482D01*
X148420498Y-62816180D01*
X148479463Y-62926494D01*
X148558815Y-63023185D01*
X148655506Y-63102537D01*
X148765820Y-63161502D01*
X148885518Y-63197812D01*
X149010000Y-63210072D01*
X150710000Y-63210072D01*
X150834482Y-63197812D01*
X150954180Y-63161502D01*
X151064494Y-63102537D01*
X151161185Y-63023185D01*
X151240537Y-62926494D01*
X151299502Y-62816180D01*
X151335812Y-62696482D01*
X151348072Y-62572000D01*
X151348072Y-60872000D01*
X151335812Y-60747518D01*
X151319881Y-60695000D01*
X169305000Y-60695000D01*
X169305001Y-96393000D01*
X168603072Y-96393000D01*
X168603072Y-96305000D01*
X168590812Y-96180518D01*
X168554502Y-96060820D01*
X168495537Y-95950506D01*
X168416185Y-95853815D01*
X168319494Y-95774463D01*
X168209180Y-95715498D01*
X168089482Y-95679188D01*
X167965000Y-95666928D01*
X166265000Y-95666928D01*
X166140518Y-95679188D01*
X166020820Y-95715498D01*
X165910506Y-95774463D01*
X165813815Y-95853815D01*
X165734463Y-95950506D01*
X165675498Y-96060820D01*
X165651034Y-96141466D01*
X165575269Y-96057412D01*
X165341920Y-95883359D01*
X165079099Y-95758175D01*
X164931890Y-95713524D01*
X164702000Y-95834845D01*
X164702000Y-97028000D01*
X164722000Y-97028000D01*
X164722000Y-97282000D01*
X164702000Y-97282000D01*
X164702000Y-99568000D01*
X164722000Y-99568000D01*
X164722000Y-99822000D01*
X164702000Y-99822000D01*
X164702000Y-102108000D01*
X164722000Y-102108000D01*
X164722000Y-102362000D01*
X164702000Y-102362000D01*
X164702000Y-104648000D01*
X164722000Y-104648000D01*
X164722000Y-104902000D01*
X164702000Y-104902000D01*
X164702000Y-107188000D01*
X164722000Y-107188000D01*
X164722000Y-107442000D01*
X164702000Y-107442000D01*
X164702000Y-109728000D01*
X164722000Y-109728000D01*
X164722000Y-109982000D01*
X164702000Y-109982000D01*
X164702000Y-112268000D01*
X164722000Y-112268000D01*
X164722000Y-112522000D01*
X164702000Y-112522000D01*
X164702000Y-114808000D01*
X164722000Y-114808000D01*
X164722000Y-115062000D01*
X164702000Y-115062000D01*
X164702000Y-116255155D01*
X164931890Y-116376476D01*
X165079099Y-116331825D01*
X165341920Y-116206641D01*
X165575269Y-116032588D01*
X165651034Y-115948534D01*
X165675498Y-116029180D01*
X165734463Y-116139494D01*
X165813815Y-116236185D01*
X165910506Y-116315537D01*
X166020820Y-116374502D01*
X166140518Y-116410812D01*
X166265000Y-116423072D01*
X167965000Y-116423072D01*
X168089482Y-116410812D01*
X168209180Y-116374502D01*
X168319494Y-116315537D01*
X168416185Y-116236185D01*
X168495537Y-116139494D01*
X168554502Y-116029180D01*
X168590812Y-115909482D01*
X168603072Y-115785000D01*
X168603072Y-115760500D01*
X169305001Y-115760500D01*
X169305001Y-119305000D01*
X120021848Y-119305000D01*
X118833946Y-119230264D01*
X117686278Y-119011335D01*
X116575107Y-118650293D01*
X115517944Y-118152829D01*
X114531467Y-117526792D01*
X113631230Y-116782051D01*
X112831433Y-115930355D01*
X112348436Y-115265565D01*
X126214040Y-115265565D01*
X126281020Y-115505656D01*
X126530048Y-115622756D01*
X126797135Y-115689023D01*
X127072017Y-115701910D01*
X127344133Y-115660922D01*
X127603023Y-115567636D01*
X127718980Y-115505656D01*
X127785960Y-115265565D01*
X127000000Y-114479605D01*
X126214040Y-115265565D01*
X112348436Y-115265565D01*
X112144688Y-114985130D01*
X111807627Y-114372017D01*
X125598090Y-114372017D01*
X125639078Y-114644133D01*
X125732364Y-114903023D01*
X125794344Y-115018980D01*
X126034435Y-115085960D01*
X126820395Y-114300000D01*
X127179605Y-114300000D01*
X127965565Y-115085960D01*
X128205656Y-115018980D01*
X128322756Y-114769952D01*
X128389023Y-114502865D01*
X128401910Y-114227983D01*
X128360922Y-113955867D01*
X128267636Y-113696977D01*
X128205656Y-113581020D01*
X127965565Y-113514040D01*
X127179605Y-114300000D01*
X126820395Y-114300000D01*
X126034435Y-113514040D01*
X125794344Y-113581020D01*
X125677244Y-113830048D01*
X125610977Y-114097135D01*
X125598090Y-114372017D01*
X111807627Y-114372017D01*
X111581828Y-113961292D01*
X111151725Y-112874977D01*
X110861167Y-111743329D01*
X110713360Y-110573313D01*
X110695000Y-109989083D01*
X110695000Y-109641984D01*
X116365000Y-109641984D01*
X116365000Y-110358016D01*
X116504691Y-111060290D01*
X116778705Y-111721818D01*
X117176511Y-112317177D01*
X117682823Y-112823489D01*
X118278182Y-113221295D01*
X118939710Y-113495309D01*
X119641984Y-113635000D01*
X120358016Y-113635000D01*
X121060290Y-113495309D01*
X121721818Y-113221295D01*
X122317177Y-112823489D01*
X122823489Y-112317177D01*
X123221295Y-111721818D01*
X123495309Y-111060290D01*
X123635000Y-110358016D01*
X123635000Y-109641984D01*
X123495309Y-108939710D01*
X123221295Y-108278182D01*
X122823489Y-107682823D01*
X122317177Y-107176511D01*
X121721818Y-106778705D01*
X121060290Y-106504691D01*
X120358016Y-106365000D01*
X119641984Y-106365000D01*
X118939710Y-106504691D01*
X118278182Y-106778705D01*
X117682823Y-107176511D01*
X117176511Y-107682823D01*
X116778705Y-108278182D01*
X116504691Y-108939710D01*
X116365000Y-109641984D01*
X110695000Y-109641984D01*
X110695000Y-99187000D01*
X111541928Y-99187000D01*
X111541928Y-99910000D01*
X111554188Y-100034482D01*
X111590498Y-100154180D01*
X111649463Y-100264494D01*
X111728815Y-100361185D01*
X111825506Y-100440537D01*
X111935820Y-100499502D01*
X112055518Y-100535812D01*
X112180000Y-100548072D01*
X113880000Y-100548072D01*
X114004482Y-100535812D01*
X114124180Y-100499502D01*
X114234494Y-100440537D01*
X114331185Y-100361185D01*
X114410537Y-100264494D01*
X114469502Y-100154180D01*
X114491513Y-100081620D01*
X114623368Y-100213475D01*
X114866589Y-100375990D01*
X115136842Y-100487932D01*
X115423740Y-100545000D01*
X115716260Y-100545000D01*
X115847940Y-100518807D01*
X125110563Y-109781432D01*
X125136709Y-109813291D01*
X125168568Y-109839437D01*
X125168570Y-109839439D01*
X125263854Y-109917636D01*
X125408913Y-109995172D01*
X125566311Y-110042918D01*
X125730000Y-110059040D01*
X125771018Y-110055000D01*
X125877773Y-110055000D01*
X125914880Y-110110535D01*
X126109465Y-110305120D01*
X126283054Y-110421108D01*
X126229018Y-110437500D01*
X126052834Y-110531673D01*
X125898407Y-110658407D01*
X125771673Y-110812834D01*
X125677500Y-110989018D01*
X125619509Y-111180189D01*
X125599928Y-111379000D01*
X125599928Y-112141000D01*
X125619509Y-112339811D01*
X125677500Y-112530982D01*
X125771673Y-112707166D01*
X125898407Y-112861593D01*
X126052834Y-112988327D01*
X126229018Y-113082500D01*
X126280009Y-113097968D01*
X126214040Y-113334435D01*
X127000000Y-114120395D01*
X127785960Y-113334435D01*
X127719991Y-113097968D01*
X127770982Y-113082500D01*
X127947166Y-112988327D01*
X128101593Y-112861593D01*
X128228327Y-112707166D01*
X128322500Y-112530982D01*
X128380491Y-112339811D01*
X128400072Y-112141000D01*
X128400072Y-111379000D01*
X128380491Y-111180189D01*
X128322500Y-110989018D01*
X128228327Y-110812834D01*
X128101593Y-110658407D01*
X127947166Y-110531673D01*
X127770982Y-110437500D01*
X127716946Y-110421108D01*
X127890535Y-110305120D01*
X128085120Y-110110535D01*
X128238005Y-109881727D01*
X128343314Y-109627490D01*
X128397000Y-109357592D01*
X128397000Y-109082408D01*
X128343314Y-108812510D01*
X128238005Y-108558273D01*
X128085120Y-108329465D01*
X127890535Y-108134880D01*
X127661727Y-107981995D01*
X127584485Y-107950000D01*
X127661727Y-107918005D01*
X127890535Y-107765120D01*
X128085120Y-107570535D01*
X128238005Y-107341727D01*
X128343314Y-107087490D01*
X128397000Y-106817592D01*
X128397000Y-106542408D01*
X128343314Y-106272510D01*
X128238005Y-106018273D01*
X128085120Y-105789465D01*
X127890535Y-105594880D01*
X127661727Y-105441995D01*
X127584485Y-105410000D01*
X127661727Y-105378005D01*
X127890535Y-105225120D01*
X128085120Y-105030535D01*
X128238005Y-104801727D01*
X128343314Y-104547490D01*
X128397000Y-104277592D01*
X128397000Y-104002408D01*
X128343314Y-103732510D01*
X128238005Y-103478273D01*
X128085120Y-103249465D01*
X127890535Y-103054880D01*
X127661727Y-102901995D01*
X127584485Y-102870000D01*
X127661727Y-102838005D01*
X127890535Y-102685120D01*
X128085120Y-102490535D01*
X128238005Y-102261727D01*
X128343314Y-102007490D01*
X128397000Y-101737592D01*
X128397000Y-101462408D01*
X128343314Y-101192510D01*
X128238005Y-100938273D01*
X128085120Y-100709465D01*
X127890535Y-100514880D01*
X127661727Y-100361995D01*
X127584485Y-100330000D01*
X127661727Y-100298005D01*
X127890535Y-100145120D01*
X128085120Y-99950535D01*
X128238005Y-99721727D01*
X128343314Y-99467490D01*
X128397000Y-99197592D01*
X128397000Y-98922408D01*
X128343314Y-98652510D01*
X128238005Y-98398273D01*
X128085120Y-98169465D01*
X127890535Y-97974880D01*
X127661727Y-97821995D01*
X127584485Y-97790000D01*
X127661727Y-97758005D01*
X127890535Y-97605120D01*
X128085120Y-97410535D01*
X128238005Y-97181727D01*
X128343314Y-96927490D01*
X128397000Y-96657592D01*
X128397000Y-96382408D01*
X128343314Y-96112510D01*
X128238005Y-95858273D01*
X128085120Y-95629465D01*
X127890535Y-95434880D01*
X127661727Y-95281995D01*
X127584485Y-95250000D01*
X127661727Y-95218005D01*
X127890535Y-95065120D01*
X128085120Y-94870535D01*
X128238005Y-94641727D01*
X128343314Y-94387490D01*
X128397000Y-94117592D01*
X128397000Y-93842408D01*
X128343314Y-93572510D01*
X128238005Y-93318273D01*
X128085120Y-93089465D01*
X127890535Y-92894880D01*
X127661727Y-92741995D01*
X127584485Y-92710000D01*
X127661727Y-92678005D01*
X127890535Y-92525120D01*
X128085120Y-92330535D01*
X128238005Y-92101727D01*
X128343314Y-91847490D01*
X128397000Y-91577592D01*
X128397000Y-91302408D01*
X128343314Y-91032510D01*
X128238005Y-90778273D01*
X128085120Y-90549465D01*
X127890535Y-90354880D01*
X127661727Y-90201995D01*
X127584485Y-90170000D01*
X127661727Y-90138005D01*
X127890535Y-89985120D01*
X128085120Y-89790535D01*
X128238005Y-89561727D01*
X128343314Y-89307490D01*
X128397000Y-89037592D01*
X128397000Y-88762408D01*
X128343314Y-88492510D01*
X128238005Y-88238273D01*
X128085120Y-88009465D01*
X127890535Y-87814880D01*
X127661727Y-87661995D01*
X127584485Y-87630000D01*
X127661727Y-87598005D01*
X127890535Y-87445120D01*
X128085120Y-87250535D01*
X128238005Y-87021727D01*
X128343314Y-86767490D01*
X128397000Y-86497592D01*
X128397000Y-86222408D01*
X128343314Y-85952510D01*
X128238005Y-85698273D01*
X128085120Y-85469465D01*
X127890535Y-85274880D01*
X127661727Y-85121995D01*
X127584485Y-85090000D01*
X127661727Y-85058005D01*
X127890535Y-84905120D01*
X128085120Y-84710535D01*
X128238005Y-84481727D01*
X128343314Y-84227490D01*
X128397000Y-83957592D01*
X128397000Y-83682408D01*
X128343314Y-83412510D01*
X128238005Y-83158273D01*
X128085120Y-82929465D01*
X127890535Y-82734880D01*
X127661727Y-82581995D01*
X127584485Y-82550000D01*
X127661727Y-82518005D01*
X127890535Y-82365120D01*
X128085120Y-82170535D01*
X128238005Y-81941727D01*
X128301681Y-81788000D01*
X130429000Y-81788000D01*
X130453776Y-81785560D01*
X130477601Y-81778333D01*
X130499557Y-81766597D01*
X130517964Y-81751634D01*
X138901642Y-73522408D01*
X140843000Y-73522408D01*
X140843000Y-73797592D01*
X140896686Y-74067490D01*
X141001995Y-74321727D01*
X141154880Y-74550535D01*
X141349465Y-74745120D01*
X141578273Y-74898005D01*
X141655515Y-74930000D01*
X141578273Y-74961995D01*
X141349465Y-75114880D01*
X141154880Y-75309465D01*
X141001995Y-75538273D01*
X140896686Y-75792510D01*
X140843000Y-76062408D01*
X140843000Y-76337592D01*
X140896686Y-76607490D01*
X141001995Y-76861727D01*
X141154880Y-77090535D01*
X141349465Y-77285120D01*
X141578273Y-77438005D01*
X141655515Y-77470000D01*
X141578273Y-77501995D01*
X141349465Y-77654880D01*
X141154880Y-77849465D01*
X141001995Y-78078273D01*
X140896686Y-78332510D01*
X140843000Y-78602408D01*
X140843000Y-78877592D01*
X140896686Y-79147490D01*
X141001995Y-79401727D01*
X141154880Y-79630535D01*
X141349465Y-79825120D01*
X141578273Y-79978005D01*
X141655515Y-80010000D01*
X141578273Y-80041995D01*
X141349465Y-80194880D01*
X141154880Y-80389465D01*
X141001995Y-80618273D01*
X140896686Y-80872510D01*
X140843000Y-81142408D01*
X140843000Y-81417592D01*
X140896686Y-81687490D01*
X141001995Y-81941727D01*
X141154880Y-82170535D01*
X141349465Y-82365120D01*
X141578273Y-82518005D01*
X141655515Y-82550000D01*
X141578273Y-82581995D01*
X141349465Y-82734880D01*
X141154880Y-82929465D01*
X141001995Y-83158273D01*
X140896686Y-83412510D01*
X140843000Y-83682408D01*
X140843000Y-83957592D01*
X140896686Y-84227490D01*
X141001995Y-84481727D01*
X141154880Y-84710535D01*
X141349465Y-84905120D01*
X141578273Y-85058005D01*
X141655515Y-85090000D01*
X141578273Y-85121995D01*
X141349465Y-85274880D01*
X141154880Y-85469465D01*
X141001995Y-85698273D01*
X140896686Y-85952510D01*
X140843000Y-86222408D01*
X140843000Y-86497592D01*
X140896686Y-86767490D01*
X141001995Y-87021727D01*
X141154880Y-87250535D01*
X141349465Y-87445120D01*
X141578273Y-87598005D01*
X141655515Y-87630000D01*
X141578273Y-87661995D01*
X141349465Y-87814880D01*
X141154880Y-88009465D01*
X141001995Y-88238273D01*
X140896686Y-88492510D01*
X140843000Y-88762408D01*
X140843000Y-89037592D01*
X140896686Y-89307490D01*
X141001995Y-89561727D01*
X141154880Y-89790535D01*
X141349465Y-89985120D01*
X141578273Y-90138005D01*
X141655515Y-90170000D01*
X141578273Y-90201995D01*
X141349465Y-90354880D01*
X141154880Y-90549465D01*
X141001995Y-90778273D01*
X140896686Y-91032510D01*
X140843000Y-91302408D01*
X140843000Y-91577592D01*
X140896686Y-91847490D01*
X141001995Y-92101727D01*
X141154880Y-92330535D01*
X141349465Y-92525120D01*
X141578273Y-92678005D01*
X141655515Y-92710000D01*
X141578273Y-92741995D01*
X141349465Y-92894880D01*
X141154880Y-93089465D01*
X141001995Y-93318273D01*
X140896686Y-93572510D01*
X140843000Y-93842408D01*
X140843000Y-94117592D01*
X140896686Y-94387490D01*
X141001995Y-94641727D01*
X141154880Y-94870535D01*
X141349465Y-95065120D01*
X141578273Y-95218005D01*
X141655515Y-95250000D01*
X141578273Y-95281995D01*
X141349465Y-95434880D01*
X141154880Y-95629465D01*
X141001995Y-95858273D01*
X140896686Y-96112510D01*
X140843000Y-96382408D01*
X140843000Y-96657592D01*
X140896686Y-96927490D01*
X141001995Y-97181727D01*
X141154880Y-97410535D01*
X141349465Y-97605120D01*
X141578273Y-97758005D01*
X141655515Y-97790000D01*
X141578273Y-97821995D01*
X141349465Y-97974880D01*
X141154880Y-98169465D01*
X141001995Y-98398273D01*
X140896686Y-98652510D01*
X140843000Y-98922408D01*
X140843000Y-99197592D01*
X140896686Y-99467490D01*
X141001995Y-99721727D01*
X141154880Y-99950535D01*
X141349465Y-100145120D01*
X141578273Y-100298005D01*
X141655515Y-100330000D01*
X141578273Y-100361995D01*
X141349465Y-100514880D01*
X141154880Y-100709465D01*
X141001995Y-100938273D01*
X140896686Y-101192510D01*
X140843000Y-101462408D01*
X140843000Y-101737592D01*
X140896686Y-102007490D01*
X141001995Y-102261727D01*
X141154880Y-102490535D01*
X141349465Y-102685120D01*
X141578273Y-102838005D01*
X141655515Y-102870000D01*
X141578273Y-102901995D01*
X141349465Y-103054880D01*
X141154880Y-103249465D01*
X141001995Y-103478273D01*
X140896686Y-103732510D01*
X140843000Y-104002408D01*
X140843000Y-104277592D01*
X140896686Y-104547490D01*
X141001995Y-104801727D01*
X141154880Y-105030535D01*
X141349465Y-105225120D01*
X141578273Y-105378005D01*
X141655515Y-105410000D01*
X141578273Y-105441995D01*
X141349465Y-105594880D01*
X141154880Y-105789465D01*
X141001995Y-106018273D01*
X140896686Y-106272510D01*
X140843000Y-106542408D01*
X140843000Y-106817592D01*
X140896686Y-107087490D01*
X141001995Y-107341727D01*
X141154880Y-107570535D01*
X141349465Y-107765120D01*
X141578273Y-107918005D01*
X141655515Y-107950000D01*
X141578273Y-107981995D01*
X141349465Y-108134880D01*
X141154880Y-108329465D01*
X141001995Y-108558273D01*
X140896686Y-108812510D01*
X140843000Y-109082408D01*
X140843000Y-109357592D01*
X140896686Y-109627490D01*
X141001995Y-109881727D01*
X141154880Y-110110535D01*
X141349465Y-110305120D01*
X141578273Y-110458005D01*
X141655515Y-110490000D01*
X141578273Y-110521995D01*
X141349465Y-110674880D01*
X141154880Y-110869465D01*
X141001995Y-111098273D01*
X140896686Y-111352510D01*
X140843000Y-111622408D01*
X140843000Y-111897592D01*
X140896686Y-112167490D01*
X141001995Y-112421727D01*
X141154880Y-112650535D01*
X141349465Y-112845120D01*
X141578273Y-112998005D01*
X141655515Y-113030000D01*
X141578273Y-113061995D01*
X141349465Y-113214880D01*
X141154880Y-113409465D01*
X141001995Y-113638273D01*
X140896686Y-113892510D01*
X140843000Y-114162408D01*
X140843000Y-114437592D01*
X140896686Y-114707490D01*
X141001995Y-114961727D01*
X141154880Y-115190535D01*
X141349465Y-115385120D01*
X141578273Y-115538005D01*
X141832510Y-115643314D01*
X142102408Y-115697000D01*
X142377592Y-115697000D01*
X142647490Y-115643314D01*
X142901727Y-115538005D01*
X143130535Y-115385120D01*
X143325120Y-115190535D01*
X143478005Y-114961727D01*
X143583314Y-114707490D01*
X143637000Y-114437592D01*
X143637000Y-114162408D01*
X143583314Y-113892510D01*
X143478005Y-113638273D01*
X143325120Y-113409465D01*
X143130535Y-113214880D01*
X142901727Y-113061995D01*
X142824485Y-113030000D01*
X142901727Y-112998005D01*
X143130535Y-112845120D01*
X143325120Y-112650535D01*
X143478005Y-112421727D01*
X143583314Y-112167490D01*
X143637000Y-111897592D01*
X143637000Y-111622408D01*
X143583314Y-111352510D01*
X143478005Y-111098273D01*
X143325120Y-110869465D01*
X143130535Y-110674880D01*
X142901727Y-110521995D01*
X142824485Y-110490000D01*
X142901727Y-110458005D01*
X143130535Y-110305120D01*
X143325120Y-110110535D01*
X143478005Y-109881727D01*
X143577310Y-109641984D01*
X146365000Y-109641984D01*
X146365000Y-110358016D01*
X146504691Y-111060290D01*
X146778705Y-111721818D01*
X147176511Y-112317177D01*
X147682823Y-112823489D01*
X148278182Y-113221295D01*
X148939710Y-113495309D01*
X149641984Y-113635000D01*
X150358016Y-113635000D01*
X151060290Y-113495309D01*
X151721818Y-113221295D01*
X152317177Y-112823489D01*
X152823489Y-112317177D01*
X153221295Y-111721818D01*
X153495309Y-111060290D01*
X153635000Y-110358016D01*
X153635000Y-109641984D01*
X153495309Y-108939710D01*
X153221295Y-108278182D01*
X152823489Y-107682823D01*
X152317177Y-107176511D01*
X151721818Y-106778705D01*
X151060290Y-106504691D01*
X150358016Y-106365000D01*
X149641984Y-106365000D01*
X148939710Y-106504691D01*
X148278182Y-106778705D01*
X147682823Y-107176511D01*
X147176511Y-107682823D01*
X146778705Y-108278182D01*
X146504691Y-108939710D01*
X146365000Y-109641984D01*
X143577310Y-109641984D01*
X143583314Y-109627490D01*
X143637000Y-109357592D01*
X143637000Y-109082408D01*
X143583314Y-108812510D01*
X143478005Y-108558273D01*
X143325120Y-108329465D01*
X143130535Y-108134880D01*
X142901727Y-107981995D01*
X142824485Y-107950000D01*
X142901727Y-107918005D01*
X143130535Y-107765120D01*
X143325120Y-107570535D01*
X143478005Y-107341727D01*
X143583314Y-107087490D01*
X143637000Y-106817592D01*
X143637000Y-106542408D01*
X143583314Y-106272510D01*
X143478005Y-106018273D01*
X143325120Y-105789465D01*
X143130535Y-105594880D01*
X142901727Y-105441995D01*
X142824485Y-105410000D01*
X142901727Y-105378005D01*
X143130535Y-105225120D01*
X143325120Y-105030535D01*
X143478005Y-104801727D01*
X143583314Y-104547490D01*
X143637000Y-104277592D01*
X143637000Y-104002408D01*
X143583314Y-103732510D01*
X143478005Y-103478273D01*
X143325120Y-103249465D01*
X143130535Y-103054880D01*
X142901727Y-102901995D01*
X142824485Y-102870000D01*
X142901727Y-102838005D01*
X143130535Y-102685120D01*
X143325120Y-102490535D01*
X143362227Y-102435000D01*
X148354133Y-102435000D01*
X160576193Y-114657062D01*
X160550000Y-114788740D01*
X160550000Y-115081260D01*
X160607068Y-115368158D01*
X160719010Y-115638411D01*
X160881525Y-115881632D01*
X161088368Y-116088475D01*
X161331589Y-116250990D01*
X161601842Y-116362932D01*
X161888740Y-116420000D01*
X162181260Y-116420000D01*
X162468158Y-116362932D01*
X162738411Y-116250990D01*
X162981632Y-116088475D01*
X163188475Y-115881632D01*
X163310195Y-115699466D01*
X163379822Y-115816355D01*
X163574731Y-116032588D01*
X163808080Y-116206641D01*
X164070901Y-116331825D01*
X164218110Y-116376476D01*
X164448000Y-116255155D01*
X164448000Y-115062000D01*
X164428000Y-115062000D01*
X164428000Y-114808000D01*
X164448000Y-114808000D01*
X164448000Y-112522000D01*
X164428000Y-112522000D01*
X164428000Y-112268000D01*
X164448000Y-112268000D01*
X164448000Y-109982000D01*
X164428000Y-109982000D01*
X164428000Y-109728000D01*
X164448000Y-109728000D01*
X164448000Y-107442000D01*
X164428000Y-107442000D01*
X164428000Y-107188000D01*
X164448000Y-107188000D01*
X164448000Y-104902000D01*
X164428000Y-104902000D01*
X164428000Y-104648000D01*
X164448000Y-104648000D01*
X164448000Y-102362000D01*
X164428000Y-102362000D01*
X164428000Y-102108000D01*
X164448000Y-102108000D01*
X164448000Y-99822000D01*
X164428000Y-99822000D01*
X164428000Y-99568000D01*
X164448000Y-99568000D01*
X164448000Y-97282000D01*
X164428000Y-97282000D01*
X164428000Y-97028000D01*
X164448000Y-97028000D01*
X164448000Y-95834845D01*
X164218110Y-95713524D01*
X164070901Y-95758175D01*
X163808080Y-95883359D01*
X163574731Y-96057412D01*
X163379822Y-96273645D01*
X163310195Y-96390534D01*
X163188475Y-96208368D01*
X162981632Y-96001525D01*
X162738411Y-95839010D01*
X162468158Y-95727068D01*
X162181260Y-95670000D01*
X161888740Y-95670000D01*
X161757062Y-95696193D01*
X155926434Y-89865565D01*
X156694040Y-89865565D01*
X156761020Y-90105656D01*
X157010048Y-90222756D01*
X157277135Y-90289023D01*
X157552017Y-90301910D01*
X157824133Y-90260922D01*
X158083023Y-90167636D01*
X158198980Y-90105656D01*
X158265960Y-89865565D01*
X157480000Y-89079605D01*
X156694040Y-89865565D01*
X155926434Y-89865565D01*
X152725304Y-86664435D01*
X156694040Y-86664435D01*
X157480000Y-87450395D01*
X158265960Y-86664435D01*
X158198980Y-86424344D01*
X157949952Y-86307244D01*
X157682865Y-86240977D01*
X157407983Y-86228090D01*
X157135867Y-86269078D01*
X156876977Y-86362364D01*
X156761020Y-86424344D01*
X156694040Y-86664435D01*
X152725304Y-86664435D01*
X144239446Y-78178579D01*
X144213291Y-78146709D01*
X144086146Y-78042364D01*
X143941087Y-77964828D01*
X143783689Y-77917082D01*
X143661019Y-77905000D01*
X143661018Y-77905000D01*
X143620000Y-77900960D01*
X143578982Y-77905000D01*
X143362227Y-77905000D01*
X143325120Y-77849465D01*
X143130535Y-77654880D01*
X142901727Y-77501995D01*
X142824485Y-77470000D01*
X142901727Y-77438005D01*
X143130535Y-77285120D01*
X143325120Y-77090535D01*
X143478005Y-76861727D01*
X143583314Y-76607490D01*
X143637000Y-76337592D01*
X143637000Y-76237868D01*
X147335563Y-79936432D01*
X147361709Y-79968291D01*
X147488854Y-80072636D01*
X147633913Y-80150172D01*
X147791311Y-80197918D01*
X147913981Y-80210000D01*
X147913982Y-80210000D01*
X147955000Y-80214040D01*
X147996018Y-80210000D01*
X159039133Y-80210000D01*
X165062131Y-86233000D01*
X164962408Y-86233000D01*
X164692510Y-86286686D01*
X164438273Y-86391995D01*
X164209465Y-86544880D01*
X164014880Y-86739465D01*
X163861995Y-86968273D01*
X163830000Y-87045515D01*
X163798005Y-86968273D01*
X163645120Y-86739465D01*
X163450535Y-86544880D01*
X163221727Y-86391995D01*
X162967490Y-86286686D01*
X162697592Y-86233000D01*
X162422408Y-86233000D01*
X162152510Y-86286686D01*
X161898273Y-86391995D01*
X161669465Y-86544880D01*
X161474880Y-86739465D01*
X161358892Y-86913054D01*
X161342500Y-86859018D01*
X161248327Y-86682834D01*
X161121593Y-86528407D01*
X160967166Y-86401673D01*
X160857364Y-86342982D01*
X160842918Y-86196311D01*
X160795172Y-86038913D01*
X160717636Y-85893854D01*
X160639439Y-85798570D01*
X160639437Y-85798568D01*
X160613291Y-85766709D01*
X160581433Y-85740564D01*
X155964093Y-81123225D01*
X155935226Y-80978102D01*
X155857205Y-80789744D01*
X155743937Y-80620226D01*
X155599774Y-80476063D01*
X155430256Y-80362795D01*
X155241898Y-80284774D01*
X155041939Y-80245000D01*
X154838061Y-80245000D01*
X154638102Y-80284774D01*
X154449744Y-80362795D01*
X154280226Y-80476063D01*
X154136063Y-80620226D01*
X154022795Y-80789744D01*
X153944774Y-80978102D01*
X153905000Y-81178061D01*
X153905000Y-81381939D01*
X153944774Y-81581898D01*
X154022795Y-81770256D01*
X154136063Y-81939774D01*
X154280226Y-82083937D01*
X154449744Y-82197205D01*
X154638102Y-82275226D01*
X154783225Y-82304093D01*
X158967362Y-86488231D01*
X158918407Y-86528407D01*
X158791673Y-86682834D01*
X158697500Y-86859018D01*
X158682032Y-86910009D01*
X158445565Y-86844040D01*
X157759591Y-87530014D01*
X157682865Y-87510977D01*
X157407983Y-87498090D01*
X157199837Y-87529442D01*
X156514435Y-86844040D01*
X156274344Y-86911020D01*
X156157244Y-87160048D01*
X156090977Y-87427135D01*
X156078090Y-87702017D01*
X156119078Y-87974133D01*
X156212364Y-88233023D01*
X156232328Y-88270373D01*
X156157244Y-88430048D01*
X156090977Y-88697135D01*
X156078090Y-88972017D01*
X156119078Y-89244133D01*
X156212364Y-89503023D01*
X156274344Y-89618980D01*
X156514435Y-89685960D01*
X157200409Y-88999986D01*
X157277135Y-89019023D01*
X157552017Y-89031910D01*
X157760163Y-89000558D01*
X158445565Y-89685960D01*
X158682032Y-89619991D01*
X158697500Y-89670982D01*
X158791673Y-89847166D01*
X158918407Y-90001593D01*
X159072834Y-90128327D01*
X159249018Y-90222500D01*
X159440189Y-90280491D01*
X159639000Y-90300072D01*
X160401000Y-90300072D01*
X160599811Y-90280491D01*
X160790982Y-90222500D01*
X160967166Y-90128327D01*
X161121593Y-90001593D01*
X161248327Y-89847166D01*
X161342500Y-89670982D01*
X161358892Y-89616946D01*
X161474880Y-89790535D01*
X161669465Y-89985120D01*
X161898273Y-90138005D01*
X162152510Y-90243314D01*
X162422408Y-90297000D01*
X162697592Y-90297000D01*
X162967490Y-90243314D01*
X163221727Y-90138005D01*
X163450535Y-89985120D01*
X163645120Y-89790535D01*
X163798005Y-89561727D01*
X163830000Y-89484485D01*
X163861995Y-89561727D01*
X164014880Y-89790535D01*
X164209465Y-89985120D01*
X164438273Y-90138005D01*
X164692510Y-90243314D01*
X164962408Y-90297000D01*
X165237592Y-90297000D01*
X165507490Y-90243314D01*
X165761727Y-90138005D01*
X165990535Y-89985120D01*
X166185120Y-89790535D01*
X166338005Y-89561727D01*
X166370000Y-89484485D01*
X166401995Y-89561727D01*
X166554880Y-89790535D01*
X166749465Y-89985120D01*
X166978273Y-90138005D01*
X167232510Y-90243314D01*
X167502408Y-90297000D01*
X167777592Y-90297000D01*
X168047490Y-90243314D01*
X168301727Y-90138005D01*
X168530535Y-89985120D01*
X168725120Y-89790535D01*
X168878005Y-89561727D01*
X168983314Y-89307490D01*
X169037000Y-89037592D01*
X169037000Y-88762408D01*
X168983314Y-88492510D01*
X168889076Y-88265000D01*
X168983314Y-88037490D01*
X169037000Y-87767592D01*
X169037000Y-87492408D01*
X168983314Y-87222510D01*
X168878005Y-86968273D01*
X168725120Y-86739465D01*
X168530535Y-86544880D01*
X168301727Y-86391995D01*
X168047490Y-86286686D01*
X167777592Y-86233000D01*
X167502408Y-86233000D01*
X167436899Y-86246030D01*
X160004446Y-78813579D01*
X159978291Y-78781709D01*
X159851146Y-78677364D01*
X159706087Y-78599828D01*
X159548689Y-78552082D01*
X159426019Y-78540000D01*
X159426018Y-78540000D01*
X159385000Y-78535960D01*
X159343982Y-78540000D01*
X148300869Y-78540000D01*
X143623969Y-73863102D01*
X143637000Y-73797592D01*
X143637000Y-73522408D01*
X143583314Y-73252510D01*
X143478005Y-72998273D01*
X143325120Y-72769465D01*
X143130535Y-72574880D01*
X142901727Y-72421995D01*
X142830057Y-72392308D01*
X142843023Y-72387636D01*
X142958980Y-72325656D01*
X143025960Y-72085565D01*
X142240000Y-71299605D01*
X141454040Y-72085565D01*
X141521020Y-72325656D01*
X141656760Y-72389485D01*
X141578273Y-72421995D01*
X141349465Y-72574880D01*
X141154880Y-72769465D01*
X141001995Y-72998273D01*
X140896686Y-73252510D01*
X140843000Y-73522408D01*
X138901642Y-73522408D01*
X140910293Y-71550763D01*
X140972364Y-71723023D01*
X141034344Y-71838980D01*
X141274435Y-71905960D01*
X142060395Y-71120000D01*
X142419605Y-71120000D01*
X143205565Y-71905960D01*
X143445656Y-71838980D01*
X143562756Y-71589952D01*
X143629023Y-71322865D01*
X143641910Y-71047983D01*
X143600922Y-70775867D01*
X143507636Y-70516977D01*
X143445656Y-70401020D01*
X143205565Y-70334040D01*
X142419605Y-71120000D01*
X142060395Y-71120000D01*
X142046253Y-71105858D01*
X142225858Y-70926253D01*
X142240000Y-70940395D01*
X143025960Y-70154435D01*
X142959991Y-69917968D01*
X143010982Y-69902500D01*
X143187166Y-69808327D01*
X143341593Y-69681593D01*
X143374099Y-69641984D01*
X146365000Y-69641984D01*
X146365000Y-70358016D01*
X146504691Y-71060290D01*
X146778705Y-71721818D01*
X147176511Y-72317177D01*
X147682823Y-72823489D01*
X148278182Y-73221295D01*
X148939710Y-73495309D01*
X149641984Y-73635000D01*
X150358016Y-73635000D01*
X151060290Y-73495309D01*
X151721818Y-73221295D01*
X152317177Y-72823489D01*
X152823489Y-72317177D01*
X153221295Y-71721818D01*
X153495309Y-71060290D01*
X153635000Y-70358016D01*
X153635000Y-69641984D01*
X153495309Y-68939710D01*
X153221295Y-68278182D01*
X152823489Y-67682823D01*
X152317177Y-67176511D01*
X151721818Y-66778705D01*
X151060290Y-66504691D01*
X150358016Y-66365000D01*
X149641984Y-66365000D01*
X148939710Y-66504691D01*
X148278182Y-66778705D01*
X147682823Y-67176511D01*
X147176511Y-67682823D01*
X146778705Y-68278182D01*
X146504691Y-68939710D01*
X146365000Y-69641984D01*
X143374099Y-69641984D01*
X143468327Y-69527166D01*
X143562500Y-69350982D01*
X143620491Y-69159811D01*
X143640072Y-68961000D01*
X143640072Y-68199000D01*
X143620491Y-68000189D01*
X143562500Y-67809018D01*
X143468327Y-67632834D01*
X143341593Y-67478407D01*
X143187166Y-67351673D01*
X143010982Y-67257500D01*
X142956946Y-67241108D01*
X143130535Y-67125120D01*
X143325120Y-66930535D01*
X143478005Y-66701727D01*
X143583314Y-66447490D01*
X143637000Y-66177592D01*
X143637000Y-65902408D01*
X143583314Y-65632510D01*
X143478005Y-65378273D01*
X143325120Y-65149465D01*
X143130535Y-64954880D01*
X142901727Y-64801995D01*
X142647490Y-64696686D01*
X142617859Y-64690792D01*
X142626234Y-63210072D01*
X143852000Y-63210072D01*
X143976482Y-63197812D01*
X144096180Y-63161502D01*
X144206494Y-63102537D01*
X144303185Y-63023185D01*
X144382537Y-62926494D01*
X144441502Y-62816180D01*
X144477812Y-62696482D01*
X144490072Y-62572000D01*
X144490072Y-60872000D01*
X144477812Y-60747518D01*
X144461881Y-60695000D01*
X148400119Y-60695000D01*
X148384188Y-60747518D01*
G36*
X141526188Y-60747518D02*
G01*
X141513928Y-60872000D01*
X141513928Y-62572000D01*
X141526188Y-62696482D01*
X141562498Y-62816180D01*
X141621463Y-62926494D01*
X141700815Y-63023185D01*
X141701472Y-63023724D01*
X141676960Y-64757957D01*
X141636977Y-64772364D01*
X141521020Y-64834344D01*
X141454040Y-65074435D01*
X141669442Y-65289837D01*
X141664436Y-65644041D01*
X141274435Y-65254040D01*
X141034344Y-65321020D01*
X140917244Y-65570048D01*
X140850977Y-65837135D01*
X140838090Y-66112017D01*
X140879078Y-66384133D01*
X140972364Y-66643023D01*
X141034344Y-66758980D01*
X141274435Y-66825960D01*
X141653082Y-66447313D01*
X141647932Y-66811673D01*
X141454040Y-67005565D01*
X141520009Y-67242032D01*
X141469018Y-67257500D01*
X141292834Y-67351673D01*
X141138407Y-67478407D01*
X141011673Y-67632834D01*
X140917500Y-67809018D01*
X140859509Y-68000189D01*
X140839928Y-68199000D01*
X140839928Y-68961000D01*
X140859509Y-69159811D01*
X140917500Y-69350982D01*
X141011673Y-69527166D01*
X141138407Y-69681593D01*
X141292834Y-69808327D01*
X141469018Y-69902500D01*
X141490106Y-69908897D01*
X141386715Y-70009990D01*
X141349465Y-70034880D01*
X141154880Y-70229465D01*
X141140986Y-70250259D01*
X130250229Y-80899000D01*
X128348583Y-80899000D01*
X128343314Y-80872510D01*
X128238005Y-80618273D01*
X128085120Y-80389465D01*
X127890535Y-80194880D01*
X127661727Y-80041995D01*
X127584485Y-80010000D01*
X127661727Y-79978005D01*
X127890535Y-79825120D01*
X128085120Y-79630535D01*
X128238005Y-79401727D01*
X128343314Y-79147490D01*
X128397000Y-78877592D01*
X128397000Y-78602408D01*
X128343314Y-78332510D01*
X128238005Y-78078273D01*
X128085120Y-77849465D01*
X127890535Y-77654880D01*
X127661727Y-77501995D01*
X127584485Y-77470000D01*
X127661727Y-77438005D01*
X127890535Y-77285120D01*
X128085120Y-77090535D01*
X128238005Y-76861727D01*
X128343314Y-76607490D01*
X128397000Y-76337592D01*
X128397000Y-76062408D01*
X128343314Y-75792510D01*
X128238005Y-75538273D01*
X128085120Y-75309465D01*
X127890535Y-75114880D01*
X127661727Y-74961995D01*
X127584485Y-74930000D01*
X127661727Y-74898005D01*
X127890535Y-74745120D01*
X128085120Y-74550535D01*
X128238005Y-74321727D01*
X128343314Y-74067490D01*
X128397000Y-73797592D01*
X128397000Y-73522408D01*
X128343314Y-73252510D01*
X128238005Y-72998273D01*
X128085120Y-72769465D01*
X127890535Y-72574880D01*
X127661727Y-72421995D01*
X127584485Y-72390000D01*
X127661727Y-72358005D01*
X127890535Y-72205120D01*
X128085120Y-72010535D01*
X128238005Y-71781727D01*
X128343314Y-71527490D01*
X128397000Y-71257592D01*
X128397000Y-70982408D01*
X128343314Y-70712510D01*
X128238005Y-70458273D01*
X128085120Y-70229465D01*
X127890535Y-70034880D01*
X127661727Y-69881995D01*
X127584485Y-69850000D01*
X127661727Y-69818005D01*
X127890535Y-69665120D01*
X128085120Y-69470535D01*
X128238005Y-69241727D01*
X128343314Y-68987490D01*
X128397000Y-68717592D01*
X128397000Y-68442408D01*
X128343314Y-68172510D01*
X128238005Y-67918273D01*
X128085120Y-67689465D01*
X127890535Y-67494880D01*
X127661727Y-67341995D01*
X127584485Y-67310000D01*
X127661727Y-67278005D01*
X127890535Y-67125120D01*
X128085120Y-66930535D01*
X128238005Y-66701727D01*
X128343314Y-66447490D01*
X128397000Y-66177592D01*
X128397000Y-65902408D01*
X128343314Y-65632510D01*
X128238005Y-65378273D01*
X128085120Y-65149465D01*
X127890535Y-64954880D01*
X127661727Y-64801995D01*
X127407490Y-64696686D01*
X127137592Y-64643000D01*
X126862408Y-64643000D01*
X126592510Y-64696686D01*
X126338273Y-64801995D01*
X126109465Y-64954880D01*
X125914880Y-65149465D01*
X125761995Y-65378273D01*
X125656686Y-65632510D01*
X125603000Y-65902408D01*
X125603000Y-66177592D01*
X125656686Y-66447490D01*
X125761995Y-66701727D01*
X125914880Y-66930535D01*
X126109465Y-67125120D01*
X126338273Y-67278005D01*
X126415515Y-67310000D01*
X126338273Y-67341995D01*
X126109465Y-67494880D01*
X125914880Y-67689465D01*
X125761995Y-67918273D01*
X125656686Y-68172510D01*
X125603000Y-68442408D01*
X125603000Y-68717592D01*
X125656686Y-68987490D01*
X125761995Y-69241727D01*
X125914880Y-69470535D01*
X126109465Y-69665120D01*
X126338273Y-69818005D01*
X126415515Y-69850000D01*
X126338273Y-69881995D01*
X126109465Y-70034880D01*
X125914880Y-70229465D01*
X125761995Y-70458273D01*
X125656686Y-70712510D01*
X125603000Y-70982408D01*
X125603000Y-71257592D01*
X125656686Y-71527490D01*
X125761995Y-71781727D01*
X125914880Y-72010535D01*
X126109465Y-72205120D01*
X126338273Y-72358005D01*
X126415515Y-72390000D01*
X126338273Y-72421995D01*
X126109465Y-72574880D01*
X125914880Y-72769465D01*
X125761995Y-72998273D01*
X125656686Y-73252510D01*
X125603000Y-73522408D01*
X125603000Y-73797592D01*
X125656686Y-74067490D01*
X125761995Y-74321727D01*
X125914880Y-74550535D01*
X126109465Y-74745120D01*
X126338273Y-74898005D01*
X126415515Y-74930000D01*
X126338273Y-74961995D01*
X126109465Y-75114880D01*
X125914880Y-75309465D01*
X125761995Y-75538273D01*
X125656686Y-75792510D01*
X125603000Y-76062408D01*
X125603000Y-76337592D01*
X125656686Y-76607490D01*
X125761995Y-76861727D01*
X125914880Y-77090535D01*
X126109465Y-77285120D01*
X126338273Y-77438005D01*
X126415515Y-77470000D01*
X126338273Y-77501995D01*
X126109465Y-77654880D01*
X125914880Y-77849465D01*
X125761995Y-78078273D01*
X125656686Y-78332510D01*
X125603000Y-78602408D01*
X125603000Y-78877592D01*
X125656686Y-79147490D01*
X125761995Y-79401727D01*
X125914880Y-79630535D01*
X126109465Y-79825120D01*
X126338273Y-79978005D01*
X126415515Y-80010000D01*
X126338273Y-80041995D01*
X126109465Y-80194880D01*
X125914880Y-80389465D01*
X125761995Y-80618273D01*
X125656686Y-80872510D01*
X125651417Y-80899000D01*
X120179867Y-80899000D01*
X119999446Y-80718579D01*
X119973291Y-80686709D01*
X119846146Y-80582364D01*
X119701087Y-80504828D01*
X119543689Y-80457082D01*
X119421019Y-80445000D01*
X119421018Y-80445000D01*
X119380000Y-80440960D01*
X119338982Y-80445000D01*
X119338065Y-80445000D01*
X119263475Y-80333368D01*
X119056632Y-80126525D01*
X118813411Y-79964010D01*
X118543158Y-79852068D01*
X118256260Y-79795000D01*
X117963740Y-79795000D01*
X117676842Y-79852068D01*
X117406589Y-79964010D01*
X117163368Y-80126525D01*
X116956525Y-80333368D01*
X116834805Y-80515534D01*
X116765178Y-80398645D01*
X116570269Y-80182412D01*
X116336920Y-80008359D01*
X116074099Y-79883175D01*
X115926890Y-79838524D01*
X115697000Y-79959845D01*
X115697000Y-80899000D01*
X115443000Y-80899000D01*
X115443000Y-79959845D01*
X115213110Y-79838524D01*
X115065901Y-79883175D01*
X114803080Y-80008359D01*
X114569731Y-80182412D01*
X114493966Y-80266466D01*
X114469502Y-80185820D01*
X114410537Y-80075506D01*
X114331185Y-79978815D01*
X114234494Y-79899463D01*
X114124180Y-79840498D01*
X114004482Y-79804188D01*
X113880000Y-79791928D01*
X112180000Y-79791928D01*
X112055518Y-79804188D01*
X111935820Y-79840498D01*
X111825506Y-79899463D01*
X111728815Y-79978815D01*
X111649463Y-80075506D01*
X111590498Y-80185820D01*
X111554188Y-80305518D01*
X111541928Y-80430000D01*
X111541928Y-80899000D01*
X110695000Y-80899000D01*
X110695000Y-70021848D01*
X110718898Y-69641984D01*
X116365000Y-69641984D01*
X116365000Y-70358016D01*
X116504691Y-71060290D01*
X116778705Y-71721818D01*
X117176511Y-72317177D01*
X117682823Y-72823489D01*
X118278182Y-73221295D01*
X118939710Y-73495309D01*
X119641984Y-73635000D01*
X120358016Y-73635000D01*
X121060290Y-73495309D01*
X121721818Y-73221295D01*
X122317177Y-72823489D01*
X122823489Y-72317177D01*
X123221295Y-71721818D01*
X123495309Y-71060290D01*
X123635000Y-70358016D01*
X123635000Y-69641984D01*
X123495309Y-68939710D01*
X123221295Y-68278182D01*
X122823489Y-67682823D01*
X122317177Y-67176511D01*
X121721818Y-66778705D01*
X121060290Y-66504691D01*
X120358016Y-66365000D01*
X119641984Y-66365000D01*
X118939710Y-66504691D01*
X118278182Y-66778705D01*
X117682823Y-67176511D01*
X117176511Y-67682823D01*
X116778705Y-68278182D01*
X116504691Y-68939710D01*
X116365000Y-69641984D01*
X110718898Y-69641984D01*
X110769736Y-68833946D01*
X110988665Y-67686278D01*
X111349706Y-66575111D01*
X111847171Y-65517943D01*
X112473209Y-64531465D01*
X113217948Y-63631230D01*
X114069642Y-62831437D01*
X115014870Y-62144688D01*
X116038708Y-61581828D01*
X117125023Y-61151725D01*
X118256672Y-60861167D01*
X119426687Y-60713360D01*
X120010917Y-60695000D01*
X141542119Y-60695000D01*
X141526188Y-60747518D01*
G37*
X141526188Y-60747518D02*
X141513928Y-60872000D01*
X141513928Y-62572000D01*
X141526188Y-62696482D01*
X141562498Y-62816180D01*
X141621463Y-62926494D01*
X141700815Y-63023185D01*
X141701472Y-63023724D01*
X141676960Y-64757957D01*
X141636977Y-64772364D01*
X141521020Y-64834344D01*
X141454040Y-65074435D01*
X141669442Y-65289837D01*
X141664436Y-65644041D01*
X141274435Y-65254040D01*
X141034344Y-65321020D01*
X140917244Y-65570048D01*
X140850977Y-65837135D01*
X140838090Y-66112017D01*
X140879078Y-66384133D01*
X140972364Y-66643023D01*
X141034344Y-66758980D01*
X141274435Y-66825960D01*
X141653082Y-66447313D01*
X141647932Y-66811673D01*
X141454040Y-67005565D01*
X141520009Y-67242032D01*
X141469018Y-67257500D01*
X141292834Y-67351673D01*
X141138407Y-67478407D01*
X141011673Y-67632834D01*
X140917500Y-67809018D01*
X140859509Y-68000189D01*
X140839928Y-68199000D01*
X140839928Y-68961000D01*
X140859509Y-69159811D01*
X140917500Y-69350982D01*
X141011673Y-69527166D01*
X141138407Y-69681593D01*
X141292834Y-69808327D01*
X141469018Y-69902500D01*
X141490106Y-69908897D01*
X141386715Y-70009990D01*
X141349465Y-70034880D01*
X141154880Y-70229465D01*
X141140986Y-70250259D01*
X130250229Y-80899000D01*
X128348583Y-80899000D01*
X128343314Y-80872510D01*
X128238005Y-80618273D01*
X128085120Y-80389465D01*
X127890535Y-80194880D01*
X127661727Y-80041995D01*
X127584485Y-80010000D01*
X127661727Y-79978005D01*
X127890535Y-79825120D01*
X128085120Y-79630535D01*
X128238005Y-79401727D01*
X128343314Y-79147490D01*
X128397000Y-78877592D01*
X128397000Y-78602408D01*
X128343314Y-78332510D01*
X128238005Y-78078273D01*
X128085120Y-77849465D01*
X127890535Y-77654880D01*
X127661727Y-77501995D01*
X127584485Y-77470000D01*
X127661727Y-77438005D01*
X127890535Y-77285120D01*
X128085120Y-77090535D01*
X128238005Y-76861727D01*
X128343314Y-76607490D01*
X128397000Y-76337592D01*
X128397000Y-76062408D01*
X128343314Y-75792510D01*
X128238005Y-75538273D01*
X128085120Y-75309465D01*
X127890535Y-75114880D01*
X127661727Y-74961995D01*
X127584485Y-74930000D01*
X127661727Y-74898005D01*
X127890535Y-74745120D01*
X128085120Y-74550535D01*
X128238005Y-74321727D01*
X128343314Y-74067490D01*
X128397000Y-73797592D01*
X128397000Y-73522408D01*
X128343314Y-73252510D01*
X128238005Y-72998273D01*
X128085120Y-72769465D01*
X127890535Y-72574880D01*
X127661727Y-72421995D01*
X127584485Y-72390000D01*
X127661727Y-72358005D01*
X127890535Y-72205120D01*
X128085120Y-72010535D01*
X128238005Y-71781727D01*
X128343314Y-71527490D01*
X128397000Y-71257592D01*
X128397000Y-70982408D01*
X128343314Y-70712510D01*
X128238005Y-70458273D01*
X128085120Y-70229465D01*
X127890535Y-70034880D01*
X127661727Y-69881995D01*
X127584485Y-69850000D01*
X127661727Y-69818005D01*
X127890535Y-69665120D01*
X128085120Y-69470535D01*
X128238005Y-69241727D01*
X128343314Y-68987490D01*
X128397000Y-68717592D01*
X128397000Y-68442408D01*
X128343314Y-68172510D01*
X128238005Y-67918273D01*
X128085120Y-67689465D01*
X127890535Y-67494880D01*
X127661727Y-67341995D01*
X127584485Y-67310000D01*
X127661727Y-67278005D01*
X127890535Y-67125120D01*
X128085120Y-66930535D01*
X128238005Y-66701727D01*
X128343314Y-66447490D01*
X128397000Y-66177592D01*
X128397000Y-65902408D01*
X128343314Y-65632510D01*
X128238005Y-65378273D01*
X128085120Y-65149465D01*
X127890535Y-64954880D01*
X127661727Y-64801995D01*
X127407490Y-64696686D01*
X127137592Y-64643000D01*
X126862408Y-64643000D01*
X126592510Y-64696686D01*
X126338273Y-64801995D01*
X126109465Y-64954880D01*
X125914880Y-65149465D01*
X125761995Y-65378273D01*
X125656686Y-65632510D01*
X125603000Y-65902408D01*
X125603000Y-66177592D01*
X125656686Y-66447490D01*
X125761995Y-66701727D01*
X125914880Y-66930535D01*
X126109465Y-67125120D01*
X126338273Y-67278005D01*
X126415515Y-67310000D01*
X126338273Y-67341995D01*
X126109465Y-67494880D01*
X125914880Y-67689465D01*
X125761995Y-67918273D01*
X125656686Y-68172510D01*
X125603000Y-68442408D01*
X125603000Y-68717592D01*
X125656686Y-68987490D01*
X125761995Y-69241727D01*
X125914880Y-69470535D01*
X126109465Y-69665120D01*
X126338273Y-69818005D01*
X126415515Y-69850000D01*
X126338273Y-69881995D01*
X126109465Y-70034880D01*
X125914880Y-70229465D01*
X125761995Y-70458273D01*
X125656686Y-70712510D01*
X125603000Y-70982408D01*
X125603000Y-71257592D01*
X125656686Y-71527490D01*
X125761995Y-71781727D01*
X125914880Y-72010535D01*
X126109465Y-72205120D01*
X126338273Y-72358005D01*
X126415515Y-72390000D01*
X126338273Y-72421995D01*
X126109465Y-72574880D01*
X125914880Y-72769465D01*
X125761995Y-72998273D01*
X125656686Y-73252510D01*
X125603000Y-73522408D01*
X125603000Y-73797592D01*
X125656686Y-74067490D01*
X125761995Y-74321727D01*
X125914880Y-74550535D01*
X126109465Y-74745120D01*
X126338273Y-74898005D01*
X126415515Y-74930000D01*
X126338273Y-74961995D01*
X126109465Y-75114880D01*
X125914880Y-75309465D01*
X125761995Y-75538273D01*
X125656686Y-75792510D01*
X125603000Y-76062408D01*
X125603000Y-76337592D01*
X125656686Y-76607490D01*
X125761995Y-76861727D01*
X125914880Y-77090535D01*
X126109465Y-77285120D01*
X126338273Y-77438005D01*
X126415515Y-77470000D01*
X126338273Y-77501995D01*
X126109465Y-77654880D01*
X125914880Y-77849465D01*
X125761995Y-78078273D01*
X125656686Y-78332510D01*
X125603000Y-78602408D01*
X125603000Y-78877592D01*
X125656686Y-79147490D01*
X125761995Y-79401727D01*
X125914880Y-79630535D01*
X126109465Y-79825120D01*
X126338273Y-79978005D01*
X126415515Y-80010000D01*
X126338273Y-80041995D01*
X126109465Y-80194880D01*
X125914880Y-80389465D01*
X125761995Y-80618273D01*
X125656686Y-80872510D01*
X125651417Y-80899000D01*
X120179867Y-80899000D01*
X119999446Y-80718579D01*
X119973291Y-80686709D01*
X119846146Y-80582364D01*
X119701087Y-80504828D01*
X119543689Y-80457082D01*
X119421019Y-80445000D01*
X119421018Y-80445000D01*
X119380000Y-80440960D01*
X119338982Y-80445000D01*
X119338065Y-80445000D01*
X119263475Y-80333368D01*
X119056632Y-80126525D01*
X118813411Y-79964010D01*
X118543158Y-79852068D01*
X118256260Y-79795000D01*
X117963740Y-79795000D01*
X117676842Y-79852068D01*
X117406589Y-79964010D01*
X117163368Y-80126525D01*
X116956525Y-80333368D01*
X116834805Y-80515534D01*
X116765178Y-80398645D01*
X116570269Y-80182412D01*
X116336920Y-80008359D01*
X116074099Y-79883175D01*
X115926890Y-79838524D01*
X115697000Y-79959845D01*
X115697000Y-80899000D01*
X115443000Y-80899000D01*
X115443000Y-79959845D01*
X115213110Y-79838524D01*
X115065901Y-79883175D01*
X114803080Y-80008359D01*
X114569731Y-80182412D01*
X114493966Y-80266466D01*
X114469502Y-80185820D01*
X114410537Y-80075506D01*
X114331185Y-79978815D01*
X114234494Y-79899463D01*
X114124180Y-79840498D01*
X114004482Y-79804188D01*
X113880000Y-79791928D01*
X112180000Y-79791928D01*
X112055518Y-79804188D01*
X111935820Y-79840498D01*
X111825506Y-79899463D01*
X111728815Y-79978815D01*
X111649463Y-80075506D01*
X111590498Y-80185820D01*
X111554188Y-80305518D01*
X111541928Y-80430000D01*
X111541928Y-80899000D01*
X110695000Y-80899000D01*
X110695000Y-70021848D01*
X110718898Y-69641984D01*
X116365000Y-69641984D01*
X116365000Y-70358016D01*
X116504691Y-71060290D01*
X116778705Y-71721818D01*
X117176511Y-72317177D01*
X117682823Y-72823489D01*
X118278182Y-73221295D01*
X118939710Y-73495309D01*
X119641984Y-73635000D01*
X120358016Y-73635000D01*
X121060290Y-73495309D01*
X121721818Y-73221295D01*
X122317177Y-72823489D01*
X122823489Y-72317177D01*
X123221295Y-71721818D01*
X123495309Y-71060290D01*
X123635000Y-70358016D01*
X123635000Y-69641984D01*
X123495309Y-68939710D01*
X123221295Y-68278182D01*
X122823489Y-67682823D01*
X122317177Y-67176511D01*
X121721818Y-66778705D01*
X121060290Y-66504691D01*
X120358016Y-66365000D01*
X119641984Y-66365000D01*
X118939710Y-66504691D01*
X118278182Y-66778705D01*
X117682823Y-67176511D01*
X117176511Y-67682823D01*
X116778705Y-68278182D01*
X116504691Y-68939710D01*
X116365000Y-69641984D01*
X110718898Y-69641984D01*
X110769736Y-68833946D01*
X110988665Y-67686278D01*
X111349706Y-66575111D01*
X111847171Y-65517943D01*
X112473209Y-64531465D01*
X113217948Y-63631230D01*
X114069642Y-62831437D01*
X115014870Y-62144688D01*
X116038708Y-61581828D01*
X117125023Y-61151725D01*
X118256672Y-60861167D01*
X119426687Y-60713360D01*
X120010917Y-60695000D01*
X141542119Y-60695000D01*
X141526188Y-60747518D01*
M02*
