G04 #@! TF.GenerationSoftware,KiCad,Pcbnew,5.1.5+dfsg1-2build2*
G04 #@! TF.CreationDate,2021-11-16T19:49:45+01:00*
G04 #@! TF.ProjectId,brainboard,62726169-6e62-46f6-9172-642e6b696361,rev?*
G04 #@! TF.SameCoordinates,Original*
G04 #@! TF.FileFunction,Copper,L1,Top*
G04 #@! TF.FilePolarity,Positive*
%FSLAX46Y46*%
G04 Gerber Fmt 4.6, Leading zero omitted, Abs format (unit mm)*
G04 Created by KiCad (PCBNEW 5.1.5+dfsg1-2build2) date 2021-11-16 19:49:45*
%MOMM*%
%LPD*%
G04 APERTURE LIST*
%ADD10C,0.100000*%
%ADD11C,0.200000*%
%ADD12O,1.700000X1.700000*%
%ADD13C,1.524000*%
%ADD14C,4.500000*%
%ADD15C,6.000000*%
%ADD16R,1.700000X1.700000*%
%ADD17O,2.000000X1.200000*%
%ADD18C,0.800000*%
%ADD19C,0.400000*%
%ADD20C,0.254000*%
G04 APERTURE END LIST*
D10*
X120190476Y-61952380D02*
X119857142Y-61476190D01*
X119619047Y-61952380D02*
X119619047Y-60952380D01*
X119999999Y-60952380D01*
X120095238Y-61000000D01*
X120142857Y-61047619D01*
X120190476Y-61142857D01*
X120190476Y-61285714D01*
X120142857Y-61380952D01*
X120095238Y-61428571D01*
X119999999Y-61476190D01*
X119619047Y-61476190D01*
X121047619Y-61952380D02*
X121047619Y-61428571D01*
X120999999Y-61333333D01*
X120904761Y-61285714D01*
X120714285Y-61285714D01*
X120619047Y-61333333D01*
X121047619Y-61904761D02*
X120952380Y-61952380D01*
X120714285Y-61952380D01*
X120619047Y-61904761D01*
X120571428Y-61809523D01*
X120571428Y-61714285D01*
X120619047Y-61619047D01*
X120714285Y-61571428D01*
X120952380Y-61571428D01*
X121047619Y-61523809D01*
X121380952Y-61285714D02*
X121761904Y-61285714D01*
X121523809Y-61952380D02*
X121523809Y-61095238D01*
X121571428Y-61000000D01*
X121666666Y-60952380D01*
X121761904Y-60952380D01*
X122523809Y-61952380D02*
X122523809Y-61428571D01*
X122476190Y-61333333D01*
X122380952Y-61285714D01*
X122190476Y-61285714D01*
X122095238Y-61333333D01*
X122523809Y-61904761D02*
X122428571Y-61952380D01*
X122190476Y-61952380D01*
X122095238Y-61904761D01*
X122047619Y-61809523D01*
X122047619Y-61714285D01*
X122095238Y-61619047D01*
X122190476Y-61571428D01*
X122428571Y-61571428D01*
X122523809Y-61523809D01*
X123380952Y-61904761D02*
X123285714Y-61952380D01*
X123095238Y-61952380D01*
X122999999Y-61904761D01*
X122952380Y-61809523D01*
X122952380Y-61428571D01*
X122999999Y-61333333D01*
X123095238Y-61285714D01*
X123285714Y-61285714D01*
X123380952Y-61333333D01*
X123428571Y-61428571D01*
X123428571Y-61523809D01*
X122952380Y-61619047D01*
X123999999Y-61952380D02*
X123904761Y-61904761D01*
X123857142Y-61809523D01*
X123857142Y-60952380D01*
X125476190Y-61428571D02*
X125619047Y-61476190D01*
X125666666Y-61523809D01*
X125714285Y-61619047D01*
X125714285Y-61761904D01*
X125666666Y-61857142D01*
X125619047Y-61904761D01*
X125523809Y-61952380D01*
X125142857Y-61952380D01*
X125142857Y-60952380D01*
X125476190Y-60952380D01*
X125571428Y-61000000D01*
X125619047Y-61047619D01*
X125666666Y-61142857D01*
X125666666Y-61238095D01*
X125619047Y-61333333D01*
X125571428Y-61380952D01*
X125476190Y-61428571D01*
X125142857Y-61428571D01*
X126571428Y-61952380D02*
X126571428Y-61428571D01*
X126523809Y-61333333D01*
X126428571Y-61285714D01*
X126238095Y-61285714D01*
X126142857Y-61333333D01*
X126571428Y-61904761D02*
X126476190Y-61952380D01*
X126238095Y-61952380D01*
X126142857Y-61904761D01*
X126095238Y-61809523D01*
X126095238Y-61714285D01*
X126142857Y-61619047D01*
X126238095Y-61571428D01*
X126476190Y-61571428D01*
X126571428Y-61523809D01*
X127476190Y-61904761D02*
X127380952Y-61952380D01*
X127190476Y-61952380D01*
X127095238Y-61904761D01*
X127047619Y-61857142D01*
X126999999Y-61761904D01*
X126999999Y-61476190D01*
X127047619Y-61380952D01*
X127095238Y-61333333D01*
X127190476Y-61285714D01*
X127380952Y-61285714D01*
X127476190Y-61333333D01*
X127904761Y-61952380D02*
X127904761Y-60952380D01*
X128333333Y-61952380D02*
X128333333Y-61428571D01*
X128285714Y-61333333D01*
X128190476Y-61285714D01*
X128047619Y-61285714D01*
X127952380Y-61333333D01*
X127904761Y-61380952D01*
X128809523Y-61952380D02*
X128809523Y-61285714D01*
X128809523Y-61380952D02*
X128857142Y-61333333D01*
X128952380Y-61285714D01*
X129095238Y-61285714D01*
X129190476Y-61333333D01*
X129238095Y-61428571D01*
X129238095Y-61952380D01*
X129238095Y-61428571D02*
X129285714Y-61333333D01*
X129380952Y-61285714D01*
X129523809Y-61285714D01*
X129619047Y-61333333D01*
X129666666Y-61428571D01*
X129666666Y-61952380D01*
X130571428Y-61952380D02*
X130571428Y-61428571D01*
X130523809Y-61333333D01*
X130428571Y-61285714D01*
X130238095Y-61285714D01*
X130142857Y-61333333D01*
X130571428Y-61904761D02*
X130476190Y-61952380D01*
X130238095Y-61952380D01*
X130142857Y-61904761D01*
X130095238Y-61809523D01*
X130095238Y-61714285D01*
X130142857Y-61619047D01*
X130238095Y-61571428D01*
X130476190Y-61571428D01*
X130571428Y-61523809D01*
X131047619Y-61285714D02*
X131047619Y-61952380D01*
X131047619Y-61380952D02*
X131095238Y-61333333D01*
X131190476Y-61285714D01*
X131333333Y-61285714D01*
X131428571Y-61333333D01*
X131476190Y-61428571D01*
X131476190Y-61952380D01*
X131952380Y-61285714D02*
X131952380Y-61952380D01*
X131952380Y-61380952D02*
X132000000Y-61333333D01*
X132095238Y-61285714D01*
X132238095Y-61285714D01*
X132333333Y-61333333D01*
X132380952Y-61428571D01*
X132380952Y-61952380D01*
X122357142Y-63552380D02*
X122357142Y-62552380D01*
X122928571Y-63552380D01*
X122928571Y-62552380D01*
X123547619Y-63552380D02*
X123452380Y-63504761D01*
X123404761Y-63457142D01*
X123357142Y-63361904D01*
X123357142Y-63076190D01*
X123404761Y-62980952D01*
X123452380Y-62933333D01*
X123547619Y-62885714D01*
X123690476Y-62885714D01*
X123785714Y-62933333D01*
X123833333Y-62980952D01*
X123880952Y-63076190D01*
X123880952Y-63361904D01*
X123833333Y-63457142D01*
X123785714Y-63504761D01*
X123690476Y-63552380D01*
X123547619Y-63552380D01*
X124214285Y-62885714D02*
X124452380Y-63552380D01*
X124690476Y-62885714D01*
X125071428Y-63457142D02*
X125119047Y-63504761D01*
X125071428Y-63552380D01*
X125023809Y-63504761D01*
X125071428Y-63457142D01*
X125071428Y-63552380D01*
X126261904Y-62647619D02*
X126309523Y-62600000D01*
X126404761Y-62552380D01*
X126642857Y-62552380D01*
X126738095Y-62600000D01*
X126785714Y-62647619D01*
X126833333Y-62742857D01*
X126833333Y-62838095D01*
X126785714Y-62980952D01*
X126214285Y-63552380D01*
X126833333Y-63552380D01*
X127452380Y-62552380D02*
X127547619Y-62552380D01*
X127642857Y-62600000D01*
X127690476Y-62647619D01*
X127738095Y-62742857D01*
X127785714Y-62933333D01*
X127785714Y-63171428D01*
X127738095Y-63361904D01*
X127690476Y-63457142D01*
X127642857Y-63504761D01*
X127547619Y-63552380D01*
X127452380Y-63552380D01*
X127357142Y-63504761D01*
X127309523Y-63457142D01*
X127261904Y-63361904D01*
X127214285Y-63171428D01*
X127214285Y-62933333D01*
X127261904Y-62742857D01*
X127309523Y-62647619D01*
X127357142Y-62600000D01*
X127452380Y-62552380D01*
X128166666Y-62647619D02*
X128214285Y-62600000D01*
X128309523Y-62552380D01*
X128547619Y-62552380D01*
X128642857Y-62600000D01*
X128690476Y-62647619D01*
X128738095Y-62742857D01*
X128738095Y-62838095D01*
X128690476Y-62980952D01*
X128119047Y-63552380D01*
X128738095Y-63552380D01*
X129690476Y-63552380D02*
X129119047Y-63552380D01*
X129404761Y-63552380D02*
X129404761Y-62552380D01*
X129309523Y-62695238D01*
X129214285Y-62790476D01*
X129119047Y-62838095D01*
D11*
X129272285Y-118194857D02*
X129486571Y-118266285D01*
X129558000Y-118337714D01*
X129629428Y-118480571D01*
X129629428Y-118694857D01*
X129558000Y-118837714D01*
X129486571Y-118909142D01*
X129343714Y-118980571D01*
X128772285Y-118980571D01*
X128772285Y-117480571D01*
X129272285Y-117480571D01*
X129415142Y-117552000D01*
X129486571Y-117623428D01*
X129558000Y-117766285D01*
X129558000Y-117909142D01*
X129486571Y-118052000D01*
X129415142Y-118123428D01*
X129272285Y-118194857D01*
X128772285Y-118194857D01*
X130272285Y-118980571D02*
X130272285Y-117980571D01*
X130272285Y-118266285D02*
X130343714Y-118123428D01*
X130415142Y-118052000D01*
X130558000Y-117980571D01*
X130700857Y-117980571D01*
X131200857Y-118980571D02*
X131200857Y-117980571D01*
X131200857Y-117480571D02*
X131129428Y-117552000D01*
X131200857Y-117623428D01*
X131272285Y-117552000D01*
X131200857Y-117480571D01*
X131200857Y-117623428D01*
X132558000Y-118909142D02*
X132415142Y-118980571D01*
X132129428Y-118980571D01*
X131986571Y-118909142D01*
X131915142Y-118837714D01*
X131843714Y-118694857D01*
X131843714Y-118266285D01*
X131915142Y-118123428D01*
X131986571Y-118052000D01*
X132129428Y-117980571D01*
X132415142Y-117980571D01*
X132558000Y-118052000D01*
X133200857Y-118980571D02*
X133200857Y-117480571D01*
X133343714Y-118409142D02*
X133772285Y-118980571D01*
X133772285Y-117980571D02*
X133200857Y-118552000D01*
X134915142Y-118194857D02*
X135129428Y-118266285D01*
X135200857Y-118337714D01*
X135272285Y-118480571D01*
X135272285Y-118694857D01*
X135200857Y-118837714D01*
X135129428Y-118909142D01*
X134986571Y-118980571D01*
X134415142Y-118980571D01*
X134415142Y-117480571D01*
X134915142Y-117480571D01*
X135058000Y-117552000D01*
X135129428Y-117623428D01*
X135200857Y-117766285D01*
X135200857Y-117909142D01*
X135129428Y-118052000D01*
X135058000Y-118123428D01*
X134915142Y-118194857D01*
X134415142Y-118194857D01*
X135915142Y-118980571D02*
X135915142Y-117980571D01*
X135915142Y-118266285D02*
X135986571Y-118123428D01*
X136058000Y-118052000D01*
X136200857Y-117980571D01*
X136343714Y-117980571D01*
X137486571Y-118980571D02*
X137486571Y-118194857D01*
X137415142Y-118052000D01*
X137272285Y-117980571D01*
X136986571Y-117980571D01*
X136843714Y-118052000D01*
X137486571Y-118909142D02*
X137343714Y-118980571D01*
X136986571Y-118980571D01*
X136843714Y-118909142D01*
X136772285Y-118766285D01*
X136772285Y-118623428D01*
X136843714Y-118480571D01*
X136986571Y-118409142D01*
X137343714Y-118409142D01*
X137486571Y-118337714D01*
X138200857Y-118980571D02*
X138200857Y-117980571D01*
X138200857Y-117480571D02*
X138129428Y-117552000D01*
X138200857Y-117623428D01*
X138272285Y-117552000D01*
X138200857Y-117480571D01*
X138200857Y-117623428D01*
X138915142Y-117980571D02*
X138915142Y-118980571D01*
X138915142Y-118123428D02*
X138986571Y-118052000D01*
X139129428Y-117980571D01*
X139343714Y-117980571D01*
X139486571Y-118052000D01*
X139558000Y-118194857D01*
X139558000Y-118980571D01*
X140772285Y-118194857D02*
X140986571Y-118266285D01*
X141058000Y-118337714D01*
X141129428Y-118480571D01*
X141129428Y-118694857D01*
X141058000Y-118837714D01*
X140986571Y-118909142D01*
X140843714Y-118980571D01*
X140272285Y-118980571D01*
X140272285Y-117480571D01*
X140772285Y-117480571D01*
X140915142Y-117552000D01*
X140986571Y-117623428D01*
X141058000Y-117766285D01*
X141058000Y-117909142D01*
X140986571Y-118052000D01*
X140915142Y-118123428D01*
X140772285Y-118194857D01*
X140272285Y-118194857D01*
X141986571Y-118980571D02*
X141843714Y-118909142D01*
X141772285Y-118837714D01*
X141700857Y-118694857D01*
X141700857Y-118266285D01*
X141772285Y-118123428D01*
X141843714Y-118052000D01*
X141986571Y-117980571D01*
X142200857Y-117980571D01*
X142343714Y-118052000D01*
X142415142Y-118123428D01*
X142486571Y-118266285D01*
X142486571Y-118694857D01*
X142415142Y-118837714D01*
X142343714Y-118909142D01*
X142200857Y-118980571D01*
X141986571Y-118980571D01*
X143772285Y-118980571D02*
X143772285Y-118194857D01*
X143700857Y-118052000D01*
X143558000Y-117980571D01*
X143272285Y-117980571D01*
X143129428Y-118052000D01*
X143772285Y-118909142D02*
X143629428Y-118980571D01*
X143272285Y-118980571D01*
X143129428Y-118909142D01*
X143058000Y-118766285D01*
X143058000Y-118623428D01*
X143129428Y-118480571D01*
X143272285Y-118409142D01*
X143629428Y-118409142D01*
X143772285Y-118337714D01*
X144486571Y-118980571D02*
X144486571Y-117980571D01*
X144486571Y-118266285D02*
X144558000Y-118123428D01*
X144629428Y-118052000D01*
X144772285Y-117980571D01*
X144915142Y-117980571D01*
X146058000Y-118980571D02*
X146058000Y-117480571D01*
X146058000Y-118909142D02*
X145915142Y-118980571D01*
X145629428Y-118980571D01*
X145486571Y-118909142D01*
X145415142Y-118837714D01*
X145343714Y-118694857D01*
X145343714Y-118266285D01*
X145415142Y-118123428D01*
X145486571Y-118052000D01*
X145629428Y-117980571D01*
X145915142Y-117980571D01*
X146058000Y-118052000D01*
X148772285Y-118980571D02*
X148272285Y-118266285D01*
X147915142Y-118980571D02*
X147915142Y-117480571D01*
X148486571Y-117480571D01*
X148629428Y-117552000D01*
X148700857Y-117623428D01*
X148772285Y-117766285D01*
X148772285Y-117980571D01*
X148700857Y-118123428D01*
X148629428Y-118194857D01*
X148486571Y-118266285D01*
X147915142Y-118266285D01*
X149986571Y-118909142D02*
X149843714Y-118980571D01*
X149558000Y-118980571D01*
X149415142Y-118909142D01*
X149343714Y-118766285D01*
X149343714Y-118194857D01*
X149415142Y-118052000D01*
X149558000Y-117980571D01*
X149843714Y-117980571D01*
X149986571Y-118052000D01*
X150058000Y-118194857D01*
X150058000Y-118337714D01*
X149343714Y-118480571D01*
X150558000Y-117980571D02*
X150915142Y-118980571D01*
X151272285Y-117980571D01*
X152915142Y-117623428D02*
X152986571Y-117552000D01*
X153129428Y-117480571D01*
X153486571Y-117480571D01*
X153629428Y-117552000D01*
X153700857Y-117623428D01*
X153772285Y-117766285D01*
X153772285Y-117909142D01*
X153700857Y-118123428D01*
X152843714Y-118980571D01*
X153772285Y-118980571D01*
X154415142Y-118837714D02*
X154486571Y-118909142D01*
X154415142Y-118980571D01*
X154343714Y-118909142D01*
X154415142Y-118837714D01*
X154415142Y-118980571D01*
X155415142Y-117480571D02*
X155558000Y-117480571D01*
X155700857Y-117552000D01*
X155772285Y-117623428D01*
X155843714Y-117766285D01*
X155915142Y-118052000D01*
X155915142Y-118409142D01*
X155843714Y-118694857D01*
X155772285Y-118837714D01*
X155700857Y-118909142D01*
X155558000Y-118980571D01*
X155415142Y-118980571D01*
X155272285Y-118909142D01*
X155200857Y-118837714D01*
X155129428Y-118694857D01*
X155058000Y-118409142D01*
X155058000Y-118052000D01*
X155129428Y-117766285D01*
X155200857Y-117623428D01*
X155272285Y-117552000D01*
X155415142Y-117480571D01*
D12*
X123126500Y-81280000D03*
X123126500Y-78740000D03*
G04 #@! TA.AperFunction,ComponentPad*
D10*
G36*
X123593157Y-75352046D02*
G01*
X123634413Y-75358166D01*
X123674871Y-75368300D01*
X123714140Y-75382351D01*
X123751844Y-75400183D01*
X123787617Y-75421625D01*
X123821117Y-75446471D01*
X123852020Y-75474480D01*
X123880029Y-75505383D01*
X123904875Y-75538883D01*
X123926317Y-75574656D01*
X123944149Y-75612360D01*
X123958200Y-75651629D01*
X123968334Y-75692087D01*
X123974454Y-75733343D01*
X123976500Y-75775000D01*
X123976500Y-76625000D01*
X123974454Y-76666657D01*
X123968334Y-76707913D01*
X123958200Y-76748371D01*
X123944149Y-76787640D01*
X123926317Y-76825344D01*
X123904875Y-76861117D01*
X123880029Y-76894617D01*
X123852020Y-76925520D01*
X123821117Y-76953529D01*
X123787617Y-76978375D01*
X123751844Y-76999817D01*
X123714140Y-77017649D01*
X123674871Y-77031700D01*
X123634413Y-77041834D01*
X123593157Y-77047954D01*
X123551500Y-77050000D01*
X122701500Y-77050000D01*
X122659843Y-77047954D01*
X122618587Y-77041834D01*
X122578129Y-77031700D01*
X122538860Y-77017649D01*
X122501156Y-76999817D01*
X122465383Y-76978375D01*
X122431883Y-76953529D01*
X122400980Y-76925520D01*
X122372971Y-76894617D01*
X122348125Y-76861117D01*
X122326683Y-76825344D01*
X122308851Y-76787640D01*
X122294800Y-76748371D01*
X122284666Y-76707913D01*
X122278546Y-76666657D01*
X122276500Y-76625000D01*
X122276500Y-75775000D01*
X122278546Y-75733343D01*
X122284666Y-75692087D01*
X122294800Y-75651629D01*
X122308851Y-75612360D01*
X122326683Y-75574656D01*
X122348125Y-75538883D01*
X122372971Y-75505383D01*
X122400980Y-75474480D01*
X122431883Y-75446471D01*
X122465383Y-75421625D01*
X122501156Y-75400183D01*
X122538860Y-75382351D01*
X122578129Y-75368300D01*
X122618587Y-75358166D01*
X122659843Y-75352046D01*
X122701500Y-75350000D01*
X123551500Y-75350000D01*
X123593157Y-75352046D01*
G37*
G04 #@! TD.AperFunction*
D13*
X167643000Y-88646000D03*
X165103000Y-88646000D03*
X162563000Y-88646000D03*
G04 #@! TA.AperFunction,SMDPad,CuDef*
D10*
G36*
X160441345Y-87885835D02*
G01*
X160478329Y-87891321D01*
X160514598Y-87900406D01*
X160549802Y-87913002D01*
X160583602Y-87928988D01*
X160615672Y-87948210D01*
X160645704Y-87970483D01*
X160673408Y-87995592D01*
X160698517Y-88023296D01*
X160720790Y-88053328D01*
X160740012Y-88085398D01*
X160755998Y-88119198D01*
X160768594Y-88154402D01*
X160777679Y-88190671D01*
X160783165Y-88227655D01*
X160785000Y-88265000D01*
X160785000Y-89027000D01*
X160783165Y-89064345D01*
X160777679Y-89101329D01*
X160768594Y-89137598D01*
X160755998Y-89172802D01*
X160740012Y-89206602D01*
X160720790Y-89238672D01*
X160698517Y-89268704D01*
X160673408Y-89296408D01*
X160645704Y-89321517D01*
X160615672Y-89343790D01*
X160583602Y-89363012D01*
X160549802Y-89378998D01*
X160514598Y-89391594D01*
X160478329Y-89400679D01*
X160441345Y-89406165D01*
X160404000Y-89408000D01*
X159642000Y-89408000D01*
X159604655Y-89406165D01*
X159567671Y-89400679D01*
X159531402Y-89391594D01*
X159496198Y-89378998D01*
X159462398Y-89363012D01*
X159430328Y-89343790D01*
X159400296Y-89321517D01*
X159372592Y-89296408D01*
X159347483Y-89268704D01*
X159325210Y-89238672D01*
X159305988Y-89206602D01*
X159290002Y-89172802D01*
X159277406Y-89137598D01*
X159268321Y-89101329D01*
X159262835Y-89064345D01*
X159261000Y-89027000D01*
X159261000Y-88265000D01*
X159262835Y-88227655D01*
X159268321Y-88190671D01*
X159277406Y-88154402D01*
X159290002Y-88119198D01*
X159305988Y-88085398D01*
X159325210Y-88053328D01*
X159347483Y-88023296D01*
X159372592Y-87995592D01*
X159400296Y-87970483D01*
X159430328Y-87948210D01*
X159462398Y-87928988D01*
X159496198Y-87913002D01*
X159531402Y-87900406D01*
X159567671Y-87891321D01*
X159604655Y-87885835D01*
X159642000Y-87884000D01*
X160404000Y-87884000D01*
X160441345Y-87885835D01*
G37*
G04 #@! TD.AperFunction*
D13*
X157483000Y-88646000D03*
X167643000Y-87376000D03*
X165103000Y-87376000D03*
X162563000Y-87376000D03*
G04 #@! TA.AperFunction,ComponentPad*
D10*
G36*
X160441345Y-86615835D02*
G01*
X160478329Y-86621321D01*
X160514598Y-86630406D01*
X160549802Y-86643002D01*
X160583602Y-86658988D01*
X160615672Y-86678210D01*
X160645704Y-86700483D01*
X160673408Y-86725592D01*
X160698517Y-86753296D01*
X160720790Y-86783328D01*
X160740012Y-86815398D01*
X160755998Y-86849198D01*
X160768594Y-86884402D01*
X160777679Y-86920671D01*
X160783165Y-86957655D01*
X160785000Y-86995000D01*
X160785000Y-87757000D01*
X160783165Y-87794345D01*
X160777679Y-87831329D01*
X160768594Y-87867598D01*
X160755998Y-87902802D01*
X160740012Y-87936602D01*
X160720790Y-87968672D01*
X160698517Y-87998704D01*
X160673408Y-88026408D01*
X160645704Y-88051517D01*
X160615672Y-88073790D01*
X160583602Y-88093012D01*
X160549802Y-88108998D01*
X160514598Y-88121594D01*
X160478329Y-88130679D01*
X160441345Y-88136165D01*
X160404000Y-88138000D01*
X159642000Y-88138000D01*
X159604655Y-88136165D01*
X159567671Y-88130679D01*
X159531402Y-88121594D01*
X159496198Y-88108998D01*
X159462398Y-88093012D01*
X159430328Y-88073790D01*
X159400296Y-88051517D01*
X159372592Y-88026408D01*
X159347483Y-87998704D01*
X159325210Y-87968672D01*
X159305988Y-87936602D01*
X159290002Y-87902802D01*
X159277406Y-87867598D01*
X159268321Y-87831329D01*
X159262835Y-87794345D01*
X159261000Y-87757000D01*
X159261000Y-86995000D01*
X159262835Y-86957655D01*
X159268321Y-86920671D01*
X159277406Y-86884402D01*
X159290002Y-86849198D01*
X159305988Y-86815398D01*
X159325210Y-86783328D01*
X159347483Y-86753296D01*
X159372592Y-86725592D01*
X159400296Y-86700483D01*
X159430328Y-86678210D01*
X159462398Y-86658988D01*
X159496198Y-86643002D01*
X159531402Y-86630406D01*
X159567671Y-86621321D01*
X159604655Y-86615835D01*
X159642000Y-86614000D01*
X160404000Y-86614000D01*
X160441345Y-86615835D01*
G37*
G04 #@! TD.AperFunction*
D13*
X157483000Y-87376000D03*
D14*
X162563000Y-69596000D03*
D13*
X158083000Y-61651000D03*
X160583000Y-62921000D03*
X160583000Y-61651000D03*
X163083000Y-61651000D03*
D12*
X140462000Y-61722000D03*
G04 #@! TA.AperFunction,ComponentPad*
D10*
G36*
X143468657Y-60874046D02*
G01*
X143509913Y-60880166D01*
X143550371Y-60890300D01*
X143589640Y-60904351D01*
X143627344Y-60922183D01*
X143663117Y-60943625D01*
X143696617Y-60968471D01*
X143727520Y-60996480D01*
X143755529Y-61027383D01*
X143780375Y-61060883D01*
X143801817Y-61096656D01*
X143819649Y-61134360D01*
X143833700Y-61173629D01*
X143843834Y-61214087D01*
X143849954Y-61255343D01*
X143852000Y-61297000D01*
X143852000Y-62147000D01*
X143849954Y-62188657D01*
X143843834Y-62229913D01*
X143833700Y-62270371D01*
X143819649Y-62309640D01*
X143801817Y-62347344D01*
X143780375Y-62383117D01*
X143755529Y-62416617D01*
X143727520Y-62447520D01*
X143696617Y-62475529D01*
X143663117Y-62500375D01*
X143627344Y-62521817D01*
X143589640Y-62539649D01*
X143550371Y-62553700D01*
X143509913Y-62563834D01*
X143468657Y-62569954D01*
X143427000Y-62572000D01*
X142577000Y-62572000D01*
X142535343Y-62569954D01*
X142494087Y-62563834D01*
X142453629Y-62553700D01*
X142414360Y-62539649D01*
X142376656Y-62521817D01*
X142340883Y-62500375D01*
X142307383Y-62475529D01*
X142276480Y-62447520D01*
X142248471Y-62416617D01*
X142223625Y-62383117D01*
X142202183Y-62347344D01*
X142184351Y-62309640D01*
X142170300Y-62270371D01*
X142160166Y-62229913D01*
X142154046Y-62188657D01*
X142152000Y-62147000D01*
X142152000Y-61297000D01*
X142154046Y-61255343D01*
X142160166Y-61214087D01*
X142170300Y-61173629D01*
X142184351Y-61134360D01*
X142202183Y-61096656D01*
X142223625Y-61060883D01*
X142248471Y-61027383D01*
X142276480Y-60996480D01*
X142307383Y-60968471D01*
X142340883Y-60943625D01*
X142376656Y-60922183D01*
X142414360Y-60904351D01*
X142453629Y-60890300D01*
X142494087Y-60880166D01*
X142535343Y-60874046D01*
X142577000Y-60872000D01*
X143427000Y-60872000D01*
X143468657Y-60874046D01*
G37*
G04 #@! TD.AperFunction*
D12*
X147320000Y-61722000D03*
G04 #@! TA.AperFunction,ComponentPad*
D10*
G36*
X150326657Y-60874046D02*
G01*
X150367913Y-60880166D01*
X150408371Y-60890300D01*
X150447640Y-60904351D01*
X150485344Y-60922183D01*
X150521117Y-60943625D01*
X150554617Y-60968471D01*
X150585520Y-60996480D01*
X150613529Y-61027383D01*
X150638375Y-61060883D01*
X150659817Y-61096656D01*
X150677649Y-61134360D01*
X150691700Y-61173629D01*
X150701834Y-61214087D01*
X150707954Y-61255343D01*
X150710000Y-61297000D01*
X150710000Y-62147000D01*
X150707954Y-62188657D01*
X150701834Y-62229913D01*
X150691700Y-62270371D01*
X150677649Y-62309640D01*
X150659817Y-62347344D01*
X150638375Y-62383117D01*
X150613529Y-62416617D01*
X150585520Y-62447520D01*
X150554617Y-62475529D01*
X150521117Y-62500375D01*
X150485344Y-62521817D01*
X150447640Y-62539649D01*
X150408371Y-62553700D01*
X150367913Y-62563834D01*
X150326657Y-62569954D01*
X150285000Y-62572000D01*
X149435000Y-62572000D01*
X149393343Y-62569954D01*
X149352087Y-62563834D01*
X149311629Y-62553700D01*
X149272360Y-62539649D01*
X149234656Y-62521817D01*
X149198883Y-62500375D01*
X149165383Y-62475529D01*
X149134480Y-62447520D01*
X149106471Y-62416617D01*
X149081625Y-62383117D01*
X149060183Y-62347344D01*
X149042351Y-62309640D01*
X149028300Y-62270371D01*
X149018166Y-62229913D01*
X149012046Y-62188657D01*
X149010000Y-62147000D01*
X149010000Y-61297000D01*
X149012046Y-61255343D01*
X149018166Y-61214087D01*
X149028300Y-61173629D01*
X149042351Y-61134360D01*
X149060183Y-61096656D01*
X149081625Y-61060883D01*
X149106471Y-61027383D01*
X149134480Y-60996480D01*
X149165383Y-60968471D01*
X149198883Y-60943625D01*
X149234656Y-60922183D01*
X149272360Y-60904351D01*
X149311629Y-60890300D01*
X149352087Y-60880166D01*
X149393343Y-60874046D01*
X149435000Y-60872000D01*
X150285000Y-60872000D01*
X150326657Y-60874046D01*
G37*
G04 #@! TD.AperFunction*
D15*
X152000000Y-110000000D03*
X120000000Y-110000000D03*
X120000000Y-70000000D03*
X152000000Y-70000000D03*
D12*
X162035000Y-97155000D03*
X164575000Y-97155000D03*
D16*
X167115000Y-97155000D03*
D12*
X162035000Y-99695000D03*
X164575000Y-99695000D03*
D16*
X167115000Y-99695000D03*
D12*
X162035000Y-102235000D03*
X164575000Y-102235000D03*
D16*
X167115000Y-102235000D03*
D12*
X162035000Y-104775000D03*
X164575000Y-104775000D03*
D16*
X167115000Y-104775000D03*
D12*
X162035000Y-107315000D03*
X164575000Y-107315000D03*
D16*
X167115000Y-107315000D03*
D12*
X162035000Y-109855000D03*
X164575000Y-109855000D03*
D16*
X167115000Y-109855000D03*
D12*
X162035000Y-112395000D03*
X164575000Y-112395000D03*
D16*
X167115000Y-112395000D03*
D12*
X162035000Y-114935000D03*
X164575000Y-114935000D03*
D16*
X167115000Y-114935000D03*
D12*
X118681500Y-81280000D03*
X116141500Y-81280000D03*
D16*
X113601500Y-81280000D03*
D12*
X118681500Y-83820000D03*
X116141500Y-83820000D03*
D16*
X113601500Y-83820000D03*
D12*
X118681500Y-86360000D03*
X116141500Y-86360000D03*
D16*
X113601500Y-86360000D03*
D12*
X118681500Y-88900000D03*
X116141500Y-88900000D03*
D16*
X113601500Y-88900000D03*
D12*
X118681500Y-91440000D03*
X116141500Y-91440000D03*
D16*
X113601500Y-91440000D03*
D12*
X118681500Y-93980000D03*
X116141500Y-93980000D03*
D16*
X113601500Y-93980000D03*
D12*
X118681500Y-96520000D03*
X116141500Y-96520000D03*
D16*
X113601500Y-96520000D03*
D12*
X118681500Y-99060000D03*
X116141500Y-99060000D03*
D16*
X113601500Y-99060000D03*
D17*
X142227500Y-66040000D03*
X127012500Y-66040000D03*
X142227500Y-68580000D03*
X127012500Y-68580000D03*
X142227500Y-71120000D03*
X127012500Y-71120000D03*
X142227500Y-73660000D03*
X127012500Y-73660000D03*
X142227500Y-76200000D03*
X127012500Y-76200000D03*
X142227500Y-78740000D03*
X127012500Y-78740000D03*
X142227500Y-81280000D03*
X127012500Y-81280000D03*
X142227500Y-83820000D03*
X127012500Y-83820000D03*
X142227500Y-86360000D03*
X127012500Y-86360000D03*
X142227500Y-88900000D03*
X127012500Y-88900000D03*
X142227500Y-91440000D03*
X127012500Y-91440000D03*
X142227500Y-93980000D03*
X127012500Y-93980000D03*
X142227500Y-96520000D03*
X127012500Y-96520000D03*
X142227500Y-99060000D03*
X127012500Y-99060000D03*
X142227500Y-101600000D03*
X127012500Y-101600000D03*
X142227500Y-104140000D03*
X127012500Y-104140000D03*
X142227500Y-106680000D03*
X127012500Y-106680000D03*
X142227500Y-109220000D03*
X127012500Y-109220000D03*
X142227500Y-111760000D03*
X127012500Y-111760000D03*
X142227500Y-114300000D03*
X127012500Y-114300000D03*
D13*
X130810000Y-110490000D03*
X133350000Y-110490000D03*
X135890000Y-110490000D03*
X138430000Y-110490000D03*
D18*
X156400000Y-81400000D03*
D19*
X148700000Y-101600000D02*
X142240000Y-101600000D01*
X148700000Y-101600000D02*
X162035000Y-114935000D01*
X142240000Y-99060000D02*
X148700000Y-99060000D01*
X148700000Y-99060000D02*
X162035000Y-112395000D01*
X142240000Y-91440000D02*
X143620000Y-91440000D01*
X143620000Y-91440000D02*
X162035000Y-109855000D01*
X142240000Y-88900000D02*
X143620000Y-88900000D01*
X143620000Y-88900000D02*
X162035000Y-107315000D01*
X142240000Y-86360000D02*
X143620000Y-86360000D01*
X143620000Y-86360000D02*
X162035000Y-104775000D01*
X142240000Y-83820000D02*
X143620000Y-83820000D01*
X143620000Y-83820000D02*
X162035000Y-102235000D01*
X142240000Y-81280000D02*
X143620000Y-81280000D01*
X143620000Y-81280000D02*
X162035000Y-99695000D01*
X142240000Y-78740000D02*
X143620000Y-78740000D01*
X143620000Y-78740000D02*
X162035000Y-97155000D01*
X164575000Y-114935000D02*
X164575000Y-97155000D01*
X147320000Y-66040000D02*
X147320000Y-61722000D01*
X128412500Y-114300000D02*
X129032000Y-113680500D01*
X127012500Y-114300000D02*
X128412500Y-114300000D01*
X147320000Y-67427500D02*
X147320000Y-66040000D01*
X143627500Y-71120000D02*
X147320000Y-67427500D01*
X142227500Y-71120000D02*
X143627500Y-71120000D01*
X142227500Y-71120000D02*
X140827500Y-71120000D01*
X132207000Y-105791000D02*
X129032000Y-108966000D01*
X132207000Y-79740500D02*
X132207000Y-105791000D01*
X129032000Y-113680500D02*
X129032000Y-108966000D01*
X157483000Y-90063000D02*
X157483000Y-87376000D01*
X164575000Y-97155000D02*
X157483000Y-90063000D01*
X128412500Y-114300000D02*
X130571500Y-116459000D01*
X163051000Y-116459000D02*
X164575000Y-114935000D01*
X130571500Y-116459000D02*
X163051000Y-116459000D01*
X147320000Y-61722000D02*
X150798000Y-65200000D01*
X150798000Y-65200000D02*
X164900000Y-65200000D01*
X164900000Y-65200000D02*
X169200000Y-69500000D01*
X169200000Y-69500000D02*
X169200000Y-89700000D01*
X164575000Y-94325000D02*
X164575000Y-97155000D01*
X169200000Y-89700000D02*
X164575000Y-94325000D01*
X138048750Y-73898750D02*
X139075000Y-74925000D01*
X140827500Y-71120000D02*
X138048750Y-73898750D01*
X138048750Y-73898750D02*
X132207000Y-79740500D01*
X139075000Y-74925000D02*
X143450000Y-74925000D01*
X155901000Y-87376000D02*
X157483000Y-87376000D01*
X143450000Y-74925000D02*
X155901000Y-87376000D01*
X160023000Y-87376000D02*
X160023000Y-88646000D01*
X160023000Y-85023000D02*
X156400000Y-81400000D01*
X160023000Y-87376000D02*
X160023000Y-85023000D01*
X140462000Y-64262000D02*
X142240000Y-66040000D01*
X140462000Y-61722000D02*
X140462000Y-64262000D01*
X137784000Y-64400000D02*
X140462000Y-61722000D01*
X116141500Y-99060000D02*
X116141500Y-81280000D01*
X126301500Y-109220000D02*
X127012500Y-109220000D01*
X116141500Y-99060000D02*
X126301500Y-109220000D01*
X116141500Y-81280000D02*
X116141500Y-66759010D01*
X137583990Y-64600010D02*
X137784000Y-64400000D01*
X118300500Y-64600010D02*
X137583990Y-64600010D01*
X116141500Y-66759010D02*
X118300500Y-64600010D01*
X123126500Y-81280000D02*
X127012500Y-81280000D01*
X123126500Y-78740000D02*
X127012500Y-78740000D01*
X126301500Y-106680000D02*
X127012500Y-106680000D01*
X118681500Y-99060000D02*
X126301500Y-106680000D01*
X126301500Y-104140000D02*
X127012500Y-104140000D01*
X118681500Y-96520000D02*
X126301500Y-104140000D01*
X126301500Y-101600000D02*
X127012500Y-101600000D01*
X118681500Y-93980000D02*
X126301500Y-101600000D01*
X126301500Y-99060000D02*
X127012500Y-99060000D01*
X118681500Y-91440000D02*
X126301500Y-99060000D01*
X126301500Y-96520000D02*
X127012500Y-96520000D01*
X118681500Y-88900000D02*
X126301500Y-96520000D01*
X126301500Y-93980000D02*
X127012500Y-93980000D01*
X118681500Y-86360000D02*
X126301500Y-93980000D01*
X126301500Y-91440000D02*
X127012500Y-91440000D01*
X118681500Y-83820000D02*
X126301500Y-91440000D01*
X126301500Y-88900000D02*
X127012500Y-88900000D01*
X118681500Y-81280000D02*
X126301500Y-88900000D01*
X167643000Y-87376000D02*
X167643000Y-88646000D01*
X159642000Y-79375000D02*
X167643000Y-87376000D01*
X149342500Y-79375000D02*
X159642000Y-79375000D01*
X143627500Y-73660000D02*
X149342500Y-79375000D01*
X142227500Y-73660000D02*
X143627500Y-73660000D01*
X165103000Y-87376000D02*
X165103000Y-88646000D01*
X162563000Y-87376000D02*
X162563000Y-88646000D01*
X160583000Y-61651000D02*
X160583000Y-62921000D01*
D20*
G36*
X148551088Y-60706389D02*
G01*
X148452850Y-60890180D01*
X148392355Y-61089605D01*
X148371928Y-61297000D01*
X148371928Y-62147000D01*
X148392355Y-62354395D01*
X148452850Y-62553820D01*
X148551088Y-62737611D01*
X148683295Y-62898705D01*
X148844389Y-63030912D01*
X149028180Y-63129150D01*
X149227605Y-63189645D01*
X149435000Y-63210072D01*
X150285000Y-63210072D01*
X150492395Y-63189645D01*
X150691820Y-63129150D01*
X150875611Y-63030912D01*
X151036705Y-62898705D01*
X151168912Y-62737611D01*
X151267150Y-62553820D01*
X151327645Y-62354395D01*
X151348072Y-62147000D01*
X151348072Y-61297000D01*
X151327645Y-61089605D01*
X151267150Y-60890180D01*
X151168912Y-60706389D01*
X151159565Y-60695000D01*
X157063345Y-60695000D01*
X156997880Y-60760465D01*
X156844995Y-60989273D01*
X156739686Y-61243510D01*
X156686000Y-61513408D01*
X156686000Y-61788592D01*
X156739686Y-62058490D01*
X156844995Y-62312727D01*
X156997880Y-62541535D01*
X157192465Y-62736120D01*
X157421273Y-62889005D01*
X157675510Y-62994314D01*
X157945408Y-63048000D01*
X158220592Y-63048000D01*
X158490490Y-62994314D01*
X158744727Y-62889005D01*
X158973535Y-62736120D01*
X159168120Y-62541535D01*
X159321005Y-62312727D01*
X159333000Y-62283769D01*
X159333924Y-62286000D01*
X159239686Y-62513510D01*
X159186000Y-62783408D01*
X159186000Y-63058592D01*
X159239686Y-63328490D01*
X159344995Y-63582727D01*
X159497880Y-63811535D01*
X159692465Y-64006120D01*
X159921273Y-64159005D01*
X160175510Y-64264314D01*
X160445408Y-64318000D01*
X160720592Y-64318000D01*
X160990490Y-64264314D01*
X161244727Y-64159005D01*
X161473535Y-64006120D01*
X161668120Y-63811535D01*
X161821005Y-63582727D01*
X161926314Y-63328490D01*
X161980000Y-63058592D01*
X161980000Y-62783408D01*
X161926314Y-62513510D01*
X161832076Y-62286000D01*
X161833000Y-62283769D01*
X161844995Y-62312727D01*
X161997880Y-62541535D01*
X162192465Y-62736120D01*
X162421273Y-62889005D01*
X162675510Y-62994314D01*
X162945408Y-63048000D01*
X163220592Y-63048000D01*
X163490490Y-62994314D01*
X163744727Y-62889005D01*
X163973535Y-62736120D01*
X164168120Y-62541535D01*
X164321005Y-62312727D01*
X164426314Y-62058490D01*
X164480000Y-61788592D01*
X164480000Y-61513408D01*
X164426314Y-61243510D01*
X164321005Y-60989273D01*
X164168120Y-60760465D01*
X164102655Y-60695000D01*
X169305000Y-60695000D01*
X169305001Y-96393000D01*
X168603072Y-96393000D01*
X168603072Y-96305000D01*
X168590812Y-96180518D01*
X168554502Y-96060820D01*
X168495537Y-95950506D01*
X168416185Y-95853815D01*
X168319494Y-95774463D01*
X168209180Y-95715498D01*
X168089482Y-95679188D01*
X167965000Y-95666928D01*
X166265000Y-95666928D01*
X166140518Y-95679188D01*
X166020820Y-95715498D01*
X165910506Y-95774463D01*
X165813815Y-95853815D01*
X165734463Y-95950506D01*
X165675498Y-96060820D01*
X165651034Y-96141466D01*
X165575269Y-96057412D01*
X165341920Y-95883359D01*
X165079099Y-95758175D01*
X164931890Y-95713524D01*
X164702000Y-95834845D01*
X164702000Y-97028000D01*
X164722000Y-97028000D01*
X164722000Y-97282000D01*
X164702000Y-97282000D01*
X164702000Y-99568000D01*
X164722000Y-99568000D01*
X164722000Y-99822000D01*
X164702000Y-99822000D01*
X164702000Y-102108000D01*
X164722000Y-102108000D01*
X164722000Y-102362000D01*
X164702000Y-102362000D01*
X164702000Y-104648000D01*
X164722000Y-104648000D01*
X164722000Y-104902000D01*
X164702000Y-104902000D01*
X164702000Y-107188000D01*
X164722000Y-107188000D01*
X164722000Y-107442000D01*
X164702000Y-107442000D01*
X164702000Y-109728000D01*
X164722000Y-109728000D01*
X164722000Y-109982000D01*
X164702000Y-109982000D01*
X164702000Y-112268000D01*
X164722000Y-112268000D01*
X164722000Y-112522000D01*
X164702000Y-112522000D01*
X164702000Y-114808000D01*
X164722000Y-114808000D01*
X164722000Y-115062000D01*
X164702000Y-115062000D01*
X164702000Y-116255155D01*
X164931890Y-116376476D01*
X165079099Y-116331825D01*
X165341920Y-116206641D01*
X165575269Y-116032588D01*
X165651034Y-115948534D01*
X165675498Y-116029180D01*
X165734463Y-116139494D01*
X165813815Y-116236185D01*
X165910506Y-116315537D01*
X166020820Y-116374502D01*
X166140518Y-116410812D01*
X166265000Y-116423072D01*
X167965000Y-116423072D01*
X168089482Y-116410812D01*
X168209180Y-116374502D01*
X168319494Y-116315537D01*
X168416185Y-116236185D01*
X168495537Y-116139494D01*
X168554502Y-116029180D01*
X168590812Y-115909482D01*
X168603072Y-115785000D01*
X168603072Y-115760500D01*
X169305001Y-115760500D01*
X169305001Y-116535500D01*
X113399703Y-116535500D01*
X112831433Y-115930355D01*
X112144688Y-114985130D01*
X111942642Y-114617609D01*
X125419038Y-114617609D01*
X125422909Y-114655282D01*
X125515079Y-114880533D01*
X125649422Y-115083474D01*
X125820775Y-115256307D01*
X126022554Y-115392390D01*
X126247004Y-115486493D01*
X126485500Y-115535000D01*
X126885500Y-115535000D01*
X126885500Y-114427000D01*
X127139500Y-114427000D01*
X127139500Y-115535000D01*
X127539500Y-115535000D01*
X127777996Y-115486493D01*
X128002446Y-115392390D01*
X128204225Y-115256307D01*
X128375578Y-115083474D01*
X128509921Y-114880533D01*
X128602091Y-114655282D01*
X128605962Y-114617609D01*
X128481231Y-114427000D01*
X127139500Y-114427000D01*
X126885500Y-114427000D01*
X125543769Y-114427000D01*
X125419038Y-114617609D01*
X111942642Y-114617609D01*
X111768035Y-114300000D01*
X140586525Y-114300000D01*
X140610370Y-114542102D01*
X140680989Y-114774901D01*
X140795667Y-114989449D01*
X140949998Y-115177502D01*
X141138051Y-115331833D01*
X141352599Y-115446511D01*
X141585398Y-115517130D01*
X141766835Y-115535000D01*
X142688165Y-115535000D01*
X142869602Y-115517130D01*
X143102401Y-115446511D01*
X143316949Y-115331833D01*
X143505002Y-115177502D01*
X143659333Y-114989449D01*
X143774011Y-114774901D01*
X143844630Y-114542102D01*
X143868475Y-114300000D01*
X143844630Y-114057898D01*
X143774011Y-113825099D01*
X143659333Y-113610551D01*
X143505002Y-113422498D01*
X143316949Y-113268167D01*
X143102401Y-113153489D01*
X142869602Y-113082870D01*
X142688165Y-113065000D01*
X141766835Y-113065000D01*
X141585398Y-113082870D01*
X141352599Y-113153489D01*
X141138051Y-113268167D01*
X140949998Y-113422498D01*
X140795667Y-113610551D01*
X140680989Y-113825099D01*
X140610370Y-114057898D01*
X140586525Y-114300000D01*
X111768035Y-114300000D01*
X111593428Y-113982391D01*
X125419038Y-113982391D01*
X125543769Y-114173000D01*
X126885500Y-114173000D01*
X126885500Y-113065000D01*
X127139500Y-113065000D01*
X127139500Y-114173000D01*
X128481231Y-114173000D01*
X128605962Y-113982391D01*
X128602091Y-113944718D01*
X128509921Y-113719467D01*
X128375578Y-113516526D01*
X128204225Y-113343693D01*
X128002446Y-113207610D01*
X127777996Y-113113507D01*
X127539500Y-113065000D01*
X127139500Y-113065000D01*
X126885500Y-113065000D01*
X126485500Y-113065000D01*
X126247004Y-113113507D01*
X126022554Y-113207610D01*
X125820775Y-113343693D01*
X125649422Y-113516526D01*
X125515079Y-113719467D01*
X125422909Y-113944718D01*
X125419038Y-113982391D01*
X111593428Y-113982391D01*
X111581828Y-113961292D01*
X111151725Y-112874977D01*
X110861167Y-111743329D01*
X110713360Y-110573313D01*
X110695000Y-109989083D01*
X110695000Y-109641984D01*
X116365000Y-109641984D01*
X116365000Y-110358016D01*
X116504691Y-111060290D01*
X116778705Y-111721818D01*
X117176511Y-112317177D01*
X117682823Y-112823489D01*
X118278182Y-113221295D01*
X118939710Y-113495309D01*
X119641984Y-113635000D01*
X120358016Y-113635000D01*
X121060290Y-113495309D01*
X121721818Y-113221295D01*
X122317177Y-112823489D01*
X122823489Y-112317177D01*
X123195782Y-111760000D01*
X125371525Y-111760000D01*
X125395370Y-112002102D01*
X125465989Y-112234901D01*
X125580667Y-112449449D01*
X125734998Y-112637502D01*
X125923051Y-112791833D01*
X126137599Y-112906511D01*
X126370398Y-112977130D01*
X126551835Y-112995000D01*
X127473165Y-112995000D01*
X127654602Y-112977130D01*
X127887401Y-112906511D01*
X128101949Y-112791833D01*
X128290002Y-112637502D01*
X128444333Y-112449449D01*
X128559011Y-112234901D01*
X128629630Y-112002102D01*
X128653475Y-111760000D01*
X128629630Y-111517898D01*
X128559011Y-111285099D01*
X128444333Y-111070551D01*
X128290002Y-110882498D01*
X128101949Y-110728167D01*
X127887401Y-110613489D01*
X127654602Y-110542870D01*
X127473165Y-110525000D01*
X126551835Y-110525000D01*
X126370398Y-110542870D01*
X126137599Y-110613489D01*
X125923051Y-110728167D01*
X125734998Y-110882498D01*
X125580667Y-111070551D01*
X125465989Y-111285099D01*
X125395370Y-111517898D01*
X125371525Y-111760000D01*
X123195782Y-111760000D01*
X123221295Y-111721818D01*
X123495309Y-111060290D01*
X123635000Y-110358016D01*
X123635000Y-109641984D01*
X123495309Y-108939710D01*
X123221295Y-108278182D01*
X122823489Y-107682823D01*
X122317177Y-107176511D01*
X121721818Y-106778705D01*
X121060290Y-106504691D01*
X120358016Y-106365000D01*
X119641984Y-106365000D01*
X118939710Y-106504691D01*
X118278182Y-106778705D01*
X117682823Y-107176511D01*
X117176511Y-107682823D01*
X116778705Y-108278182D01*
X116504691Y-108939710D01*
X116365000Y-109641984D01*
X110695000Y-109641984D01*
X110695000Y-99187000D01*
X112113428Y-99187000D01*
X112113428Y-99910000D01*
X112125688Y-100034482D01*
X112161998Y-100154180D01*
X112220963Y-100264494D01*
X112300315Y-100361185D01*
X112397006Y-100440537D01*
X112507320Y-100499502D01*
X112627018Y-100535812D01*
X112751500Y-100548072D01*
X114451500Y-100548072D01*
X114575982Y-100535812D01*
X114695680Y-100499502D01*
X114805994Y-100440537D01*
X114902685Y-100361185D01*
X114982037Y-100264494D01*
X115041002Y-100154180D01*
X115063013Y-100081620D01*
X115194868Y-100213475D01*
X115438089Y-100375990D01*
X115708342Y-100487932D01*
X115995240Y-100545000D01*
X116287760Y-100545000D01*
X116419440Y-100518807D01*
X125409581Y-109508950D01*
X125465989Y-109694901D01*
X125580667Y-109909449D01*
X125734998Y-110097502D01*
X125923051Y-110251833D01*
X126137599Y-110366511D01*
X126370398Y-110437130D01*
X126551835Y-110455000D01*
X127473165Y-110455000D01*
X127654602Y-110437130D01*
X127887401Y-110366511D01*
X127913785Y-110352408D01*
X129413000Y-110352408D01*
X129413000Y-110627592D01*
X129466686Y-110897490D01*
X129571995Y-111151727D01*
X129724880Y-111380535D01*
X129919465Y-111575120D01*
X130148273Y-111728005D01*
X130402510Y-111833314D01*
X130672408Y-111887000D01*
X130947592Y-111887000D01*
X131217490Y-111833314D01*
X131471727Y-111728005D01*
X131700535Y-111575120D01*
X131895120Y-111380535D01*
X132048005Y-111151727D01*
X132080000Y-111074485D01*
X132111995Y-111151727D01*
X132264880Y-111380535D01*
X132459465Y-111575120D01*
X132688273Y-111728005D01*
X132942510Y-111833314D01*
X133212408Y-111887000D01*
X133487592Y-111887000D01*
X133757490Y-111833314D01*
X134011727Y-111728005D01*
X134240535Y-111575120D01*
X134435120Y-111380535D01*
X134588005Y-111151727D01*
X134620000Y-111074485D01*
X134651995Y-111151727D01*
X134804880Y-111380535D01*
X134999465Y-111575120D01*
X135228273Y-111728005D01*
X135482510Y-111833314D01*
X135752408Y-111887000D01*
X136027592Y-111887000D01*
X136297490Y-111833314D01*
X136551727Y-111728005D01*
X136780535Y-111575120D01*
X136975120Y-111380535D01*
X137128005Y-111151727D01*
X137160000Y-111074485D01*
X137191995Y-111151727D01*
X137344880Y-111380535D01*
X137539465Y-111575120D01*
X137768273Y-111728005D01*
X138022510Y-111833314D01*
X138292408Y-111887000D01*
X138567592Y-111887000D01*
X138837490Y-111833314D01*
X139014484Y-111760000D01*
X140586525Y-111760000D01*
X140610370Y-112002102D01*
X140680989Y-112234901D01*
X140795667Y-112449449D01*
X140949998Y-112637502D01*
X141138051Y-112791833D01*
X141352599Y-112906511D01*
X141585398Y-112977130D01*
X141766835Y-112995000D01*
X142688165Y-112995000D01*
X142869602Y-112977130D01*
X143102401Y-112906511D01*
X143316949Y-112791833D01*
X143505002Y-112637502D01*
X143659333Y-112449449D01*
X143774011Y-112234901D01*
X143844630Y-112002102D01*
X143868475Y-111760000D01*
X143844630Y-111517898D01*
X143774011Y-111285099D01*
X143659333Y-111070551D01*
X143505002Y-110882498D01*
X143316949Y-110728167D01*
X143102401Y-110613489D01*
X142869602Y-110542870D01*
X142688165Y-110525000D01*
X141766835Y-110525000D01*
X141585398Y-110542870D01*
X141352599Y-110613489D01*
X141138051Y-110728167D01*
X140949998Y-110882498D01*
X140795667Y-111070551D01*
X140680989Y-111285099D01*
X140610370Y-111517898D01*
X140586525Y-111760000D01*
X139014484Y-111760000D01*
X139091727Y-111728005D01*
X139320535Y-111575120D01*
X139515120Y-111380535D01*
X139668005Y-111151727D01*
X139773314Y-110897490D01*
X139827000Y-110627592D01*
X139827000Y-110352408D01*
X139773314Y-110082510D01*
X139668005Y-109828273D01*
X139515120Y-109599465D01*
X139320535Y-109404880D01*
X139091727Y-109251995D01*
X139014485Y-109220000D01*
X140586525Y-109220000D01*
X140610370Y-109462102D01*
X140680989Y-109694901D01*
X140795667Y-109909449D01*
X140949998Y-110097502D01*
X141138051Y-110251833D01*
X141352599Y-110366511D01*
X141585398Y-110437130D01*
X141766835Y-110455000D01*
X142688165Y-110455000D01*
X142869602Y-110437130D01*
X143102401Y-110366511D01*
X143316949Y-110251833D01*
X143505002Y-110097502D01*
X143659333Y-109909449D01*
X143774011Y-109694901D01*
X143844630Y-109462102D01*
X143868475Y-109220000D01*
X143844630Y-108977898D01*
X143774011Y-108745099D01*
X143659333Y-108530551D01*
X143505002Y-108342498D01*
X143316949Y-108188167D01*
X143102401Y-108073489D01*
X142869602Y-108002870D01*
X142688165Y-107985000D01*
X141766835Y-107985000D01*
X141585398Y-108002870D01*
X141352599Y-108073489D01*
X141138051Y-108188167D01*
X140949998Y-108342498D01*
X140795667Y-108530551D01*
X140680989Y-108745099D01*
X140610370Y-108977898D01*
X140586525Y-109220000D01*
X139014485Y-109220000D01*
X138837490Y-109146686D01*
X138567592Y-109093000D01*
X138292408Y-109093000D01*
X138022510Y-109146686D01*
X137768273Y-109251995D01*
X137539465Y-109404880D01*
X137344880Y-109599465D01*
X137191995Y-109828273D01*
X137160000Y-109905515D01*
X137128005Y-109828273D01*
X136975120Y-109599465D01*
X136780535Y-109404880D01*
X136551727Y-109251995D01*
X136297490Y-109146686D01*
X136027592Y-109093000D01*
X135752408Y-109093000D01*
X135482510Y-109146686D01*
X135228273Y-109251995D01*
X134999465Y-109404880D01*
X134804880Y-109599465D01*
X134651995Y-109828273D01*
X134620000Y-109905515D01*
X134588005Y-109828273D01*
X134435120Y-109599465D01*
X134240535Y-109404880D01*
X134011727Y-109251995D01*
X133757490Y-109146686D01*
X133487592Y-109093000D01*
X133212408Y-109093000D01*
X132942510Y-109146686D01*
X132688273Y-109251995D01*
X132459465Y-109404880D01*
X132264880Y-109599465D01*
X132111995Y-109828273D01*
X132080000Y-109905515D01*
X132048005Y-109828273D01*
X131895120Y-109599465D01*
X131700535Y-109404880D01*
X131471727Y-109251995D01*
X131217490Y-109146686D01*
X130947592Y-109093000D01*
X130672408Y-109093000D01*
X130402510Y-109146686D01*
X130148273Y-109251995D01*
X129919465Y-109404880D01*
X129724880Y-109599465D01*
X129571995Y-109828273D01*
X129466686Y-110082510D01*
X129413000Y-110352408D01*
X127913785Y-110352408D01*
X128101949Y-110251833D01*
X128290002Y-110097502D01*
X128444333Y-109909449D01*
X128559011Y-109694901D01*
X128629630Y-109462102D01*
X128653475Y-109220000D01*
X128629630Y-108977898D01*
X128559011Y-108745099D01*
X128444333Y-108530551D01*
X128290002Y-108342498D01*
X128101949Y-108188167D01*
X127887401Y-108073489D01*
X127654602Y-108002870D01*
X127473165Y-107985000D01*
X126551835Y-107985000D01*
X126370398Y-108002870D01*
X126289714Y-108027345D01*
X126032937Y-107770568D01*
X126137599Y-107826511D01*
X126370398Y-107897130D01*
X126551835Y-107915000D01*
X127473165Y-107915000D01*
X127654602Y-107897130D01*
X127887401Y-107826511D01*
X128101949Y-107711833D01*
X128290002Y-107557502D01*
X128444333Y-107369449D01*
X128559011Y-107154901D01*
X128629630Y-106922102D01*
X128653475Y-106680000D01*
X140586525Y-106680000D01*
X140610370Y-106922102D01*
X140680989Y-107154901D01*
X140795667Y-107369449D01*
X140949998Y-107557502D01*
X141138051Y-107711833D01*
X141352599Y-107826511D01*
X141585398Y-107897130D01*
X141766835Y-107915000D01*
X142688165Y-107915000D01*
X142869602Y-107897130D01*
X143102401Y-107826511D01*
X143316949Y-107711833D01*
X143505002Y-107557502D01*
X143659333Y-107369449D01*
X143774011Y-107154901D01*
X143844630Y-106922102D01*
X143868475Y-106680000D01*
X143844630Y-106437898D01*
X143774011Y-106205099D01*
X143659333Y-105990551D01*
X143505002Y-105802498D01*
X143316949Y-105648167D01*
X143102401Y-105533489D01*
X142869602Y-105462870D01*
X142688165Y-105445000D01*
X141766835Y-105445000D01*
X141585398Y-105462870D01*
X141352599Y-105533489D01*
X141138051Y-105648167D01*
X140949998Y-105802498D01*
X140795667Y-105990551D01*
X140680989Y-106205099D01*
X140610370Y-106437898D01*
X140586525Y-106680000D01*
X128653475Y-106680000D01*
X128629630Y-106437898D01*
X128559011Y-106205099D01*
X128444333Y-105990551D01*
X128290002Y-105802498D01*
X128101949Y-105648167D01*
X127887401Y-105533489D01*
X127654602Y-105462870D01*
X127473165Y-105445000D01*
X126551835Y-105445000D01*
X126370398Y-105462870D01*
X126289713Y-105487345D01*
X126032935Y-105230567D01*
X126137599Y-105286511D01*
X126370398Y-105357130D01*
X126551835Y-105375000D01*
X127473165Y-105375000D01*
X127654602Y-105357130D01*
X127887401Y-105286511D01*
X128101949Y-105171833D01*
X128290002Y-105017502D01*
X128444333Y-104829449D01*
X128559011Y-104614901D01*
X128629630Y-104382102D01*
X128653475Y-104140000D01*
X140586525Y-104140000D01*
X140610370Y-104382102D01*
X140680989Y-104614901D01*
X140795667Y-104829449D01*
X140949998Y-105017502D01*
X141138051Y-105171833D01*
X141352599Y-105286511D01*
X141585398Y-105357130D01*
X141766835Y-105375000D01*
X142688165Y-105375000D01*
X142869602Y-105357130D01*
X143102401Y-105286511D01*
X143316949Y-105171833D01*
X143505002Y-105017502D01*
X143659333Y-104829449D01*
X143774011Y-104614901D01*
X143844630Y-104382102D01*
X143868475Y-104140000D01*
X143844630Y-103897898D01*
X143774011Y-103665099D01*
X143659333Y-103450551D01*
X143505002Y-103262498D01*
X143316949Y-103108167D01*
X143102401Y-102993489D01*
X142869602Y-102922870D01*
X142688165Y-102905000D01*
X141766835Y-102905000D01*
X141585398Y-102922870D01*
X141352599Y-102993489D01*
X141138051Y-103108167D01*
X140949998Y-103262498D01*
X140795667Y-103450551D01*
X140680989Y-103665099D01*
X140610370Y-103897898D01*
X140586525Y-104140000D01*
X128653475Y-104140000D01*
X128629630Y-103897898D01*
X128559011Y-103665099D01*
X128444333Y-103450551D01*
X128290002Y-103262498D01*
X128101949Y-103108167D01*
X127887401Y-102993489D01*
X127654602Y-102922870D01*
X127473165Y-102905000D01*
X126551835Y-102905000D01*
X126370398Y-102922870D01*
X126289713Y-102947345D01*
X126032935Y-102690567D01*
X126137599Y-102746511D01*
X126370398Y-102817130D01*
X126551835Y-102835000D01*
X127473165Y-102835000D01*
X127654602Y-102817130D01*
X127887401Y-102746511D01*
X128101949Y-102631833D01*
X128290002Y-102477502D01*
X128444333Y-102289449D01*
X128559011Y-102074901D01*
X128629630Y-101842102D01*
X128653475Y-101600000D01*
X128629630Y-101357898D01*
X128559011Y-101125099D01*
X128444333Y-100910551D01*
X128290002Y-100722498D01*
X128101949Y-100568167D01*
X127887401Y-100453489D01*
X127654602Y-100382870D01*
X127473165Y-100365000D01*
X126551835Y-100365000D01*
X126370398Y-100382870D01*
X126289713Y-100407345D01*
X126032935Y-100150567D01*
X126137599Y-100206511D01*
X126370398Y-100277130D01*
X126551835Y-100295000D01*
X127473165Y-100295000D01*
X127654602Y-100277130D01*
X127887401Y-100206511D01*
X128101949Y-100091833D01*
X128290002Y-99937502D01*
X128444333Y-99749449D01*
X128559011Y-99534901D01*
X128629630Y-99302102D01*
X128653475Y-99060000D01*
X128629630Y-98817898D01*
X128559011Y-98585099D01*
X128444333Y-98370551D01*
X128290002Y-98182498D01*
X128101949Y-98028167D01*
X127887401Y-97913489D01*
X127654602Y-97842870D01*
X127473165Y-97825000D01*
X126551835Y-97825000D01*
X126370398Y-97842870D01*
X126289713Y-97867345D01*
X126032935Y-97610567D01*
X126137599Y-97666511D01*
X126370398Y-97737130D01*
X126551835Y-97755000D01*
X127473165Y-97755000D01*
X127654602Y-97737130D01*
X127887401Y-97666511D01*
X128101949Y-97551833D01*
X128290002Y-97397502D01*
X128444333Y-97209449D01*
X128559011Y-96994901D01*
X128629630Y-96762102D01*
X128653475Y-96520000D01*
X140586525Y-96520000D01*
X140610370Y-96762102D01*
X140680989Y-96994901D01*
X140795667Y-97209449D01*
X140949998Y-97397502D01*
X141138051Y-97551833D01*
X141352599Y-97666511D01*
X141585398Y-97737130D01*
X141766835Y-97755000D01*
X142688165Y-97755000D01*
X142869602Y-97737130D01*
X143102401Y-97666511D01*
X143316949Y-97551833D01*
X143505002Y-97397502D01*
X143659333Y-97209449D01*
X143774011Y-96994901D01*
X143844630Y-96762102D01*
X143868475Y-96520000D01*
X143844630Y-96277898D01*
X143774011Y-96045099D01*
X143659333Y-95830551D01*
X143505002Y-95642498D01*
X143316949Y-95488167D01*
X143102401Y-95373489D01*
X142869602Y-95302870D01*
X142688165Y-95285000D01*
X141766835Y-95285000D01*
X141585398Y-95302870D01*
X141352599Y-95373489D01*
X141138051Y-95488167D01*
X140949998Y-95642498D01*
X140795667Y-95830551D01*
X140680989Y-96045099D01*
X140610370Y-96277898D01*
X140586525Y-96520000D01*
X128653475Y-96520000D01*
X128629630Y-96277898D01*
X128559011Y-96045099D01*
X128444333Y-95830551D01*
X128290002Y-95642498D01*
X128101949Y-95488167D01*
X127887401Y-95373489D01*
X127654602Y-95302870D01*
X127473165Y-95285000D01*
X126551835Y-95285000D01*
X126370398Y-95302870D01*
X126289713Y-95327345D01*
X126032935Y-95070567D01*
X126137599Y-95126511D01*
X126370398Y-95197130D01*
X126551835Y-95215000D01*
X127473165Y-95215000D01*
X127654602Y-95197130D01*
X127887401Y-95126511D01*
X128101949Y-95011833D01*
X128290002Y-94857502D01*
X128444333Y-94669449D01*
X128559011Y-94454901D01*
X128629630Y-94222102D01*
X128653475Y-93980000D01*
X140586525Y-93980000D01*
X140610370Y-94222102D01*
X140680989Y-94454901D01*
X140795667Y-94669449D01*
X140949998Y-94857502D01*
X141138051Y-95011833D01*
X141352599Y-95126511D01*
X141585398Y-95197130D01*
X141766835Y-95215000D01*
X142688165Y-95215000D01*
X142869602Y-95197130D01*
X143102401Y-95126511D01*
X143316949Y-95011833D01*
X143505002Y-94857502D01*
X143659333Y-94669449D01*
X143774011Y-94454901D01*
X143844630Y-94222102D01*
X143868475Y-93980000D01*
X143844630Y-93737898D01*
X143774011Y-93505099D01*
X143659333Y-93290551D01*
X143505002Y-93102498D01*
X143316949Y-92948167D01*
X143102401Y-92833489D01*
X142869602Y-92762870D01*
X142688165Y-92745000D01*
X141766835Y-92745000D01*
X141585398Y-92762870D01*
X141352599Y-92833489D01*
X141138051Y-92948167D01*
X140949998Y-93102498D01*
X140795667Y-93290551D01*
X140680989Y-93505099D01*
X140610370Y-93737898D01*
X140586525Y-93980000D01*
X128653475Y-93980000D01*
X128629630Y-93737898D01*
X128559011Y-93505099D01*
X128444333Y-93290551D01*
X128290002Y-93102498D01*
X128101949Y-92948167D01*
X127887401Y-92833489D01*
X127654602Y-92762870D01*
X127473165Y-92745000D01*
X126551835Y-92745000D01*
X126370398Y-92762870D01*
X126289713Y-92787345D01*
X126032935Y-92530567D01*
X126137599Y-92586511D01*
X126370398Y-92657130D01*
X126551835Y-92675000D01*
X127473165Y-92675000D01*
X127654602Y-92657130D01*
X127887401Y-92586511D01*
X128101949Y-92471833D01*
X128290002Y-92317502D01*
X128444333Y-92129449D01*
X128559011Y-91914901D01*
X128629630Y-91682102D01*
X128653475Y-91440000D01*
X128629630Y-91197898D01*
X128559011Y-90965099D01*
X128444333Y-90750551D01*
X128290002Y-90562498D01*
X128101949Y-90408167D01*
X127887401Y-90293489D01*
X127654602Y-90222870D01*
X127473165Y-90205000D01*
X126551835Y-90205000D01*
X126370398Y-90222870D01*
X126289713Y-90247345D01*
X126032935Y-89990567D01*
X126137599Y-90046511D01*
X126370398Y-90117130D01*
X126551835Y-90135000D01*
X127473165Y-90135000D01*
X127654602Y-90117130D01*
X127887401Y-90046511D01*
X128101949Y-89931833D01*
X128290002Y-89777502D01*
X128444333Y-89589449D01*
X128559011Y-89374901D01*
X128629630Y-89142102D01*
X128653475Y-88900000D01*
X128629630Y-88657898D01*
X128559011Y-88425099D01*
X128444333Y-88210551D01*
X128290002Y-88022498D01*
X128101949Y-87868167D01*
X127887401Y-87753489D01*
X127654602Y-87682870D01*
X127473165Y-87665000D01*
X126551835Y-87665000D01*
X126370398Y-87682870D01*
X126289713Y-87707345D01*
X126032935Y-87450567D01*
X126137599Y-87506511D01*
X126370398Y-87577130D01*
X126551835Y-87595000D01*
X127473165Y-87595000D01*
X127654602Y-87577130D01*
X127887401Y-87506511D01*
X128101949Y-87391833D01*
X128290002Y-87237502D01*
X128444333Y-87049449D01*
X128559011Y-86834901D01*
X128629630Y-86602102D01*
X128653475Y-86360000D01*
X128629630Y-86117898D01*
X128559011Y-85885099D01*
X128444333Y-85670551D01*
X128290002Y-85482498D01*
X128101949Y-85328167D01*
X127887401Y-85213489D01*
X127654602Y-85142870D01*
X127473165Y-85125000D01*
X126551835Y-85125000D01*
X126370398Y-85142870D01*
X126137599Y-85213489D01*
X125923051Y-85328167D01*
X125734998Y-85482498D01*
X125580667Y-85670551D01*
X125465989Y-85885099D01*
X125395370Y-86117898D01*
X125371525Y-86360000D01*
X125395370Y-86602102D01*
X125465989Y-86834901D01*
X125521933Y-86939565D01*
X122402368Y-83820000D01*
X125371525Y-83820000D01*
X125395370Y-84062102D01*
X125465989Y-84294901D01*
X125580667Y-84509449D01*
X125734998Y-84697502D01*
X125923051Y-84851833D01*
X126137599Y-84966511D01*
X126370398Y-85037130D01*
X126551835Y-85055000D01*
X127473165Y-85055000D01*
X127654602Y-85037130D01*
X127887401Y-84966511D01*
X128101949Y-84851833D01*
X128290002Y-84697502D01*
X128444333Y-84509449D01*
X128559011Y-84294901D01*
X128629630Y-84062102D01*
X128653475Y-83820000D01*
X128629630Y-83577898D01*
X128559011Y-83345099D01*
X128444333Y-83130551D01*
X128290002Y-82942498D01*
X128101949Y-82788167D01*
X127887401Y-82673489D01*
X127654602Y-82602870D01*
X127473165Y-82585000D01*
X126551835Y-82585000D01*
X126370398Y-82602870D01*
X126137599Y-82673489D01*
X125923051Y-82788167D01*
X125734998Y-82942498D01*
X125580667Y-83130551D01*
X125465989Y-83345099D01*
X125395370Y-83577898D01*
X125371525Y-83820000D01*
X122402368Y-83820000D01*
X120140307Y-81557940D01*
X120166500Y-81426260D01*
X120166500Y-81407000D01*
X121641500Y-81407000D01*
X121641500Y-81426260D01*
X121698568Y-81713158D01*
X121810510Y-81983411D01*
X121973025Y-82226632D01*
X122179868Y-82433475D01*
X122423089Y-82595990D01*
X122693342Y-82707932D01*
X122980240Y-82765000D01*
X123272760Y-82765000D01*
X123559658Y-82707932D01*
X123829911Y-82595990D01*
X124073132Y-82433475D01*
X124279975Y-82226632D01*
X124354565Y-82115000D01*
X125700118Y-82115000D01*
X125734998Y-82157502D01*
X125923051Y-82311833D01*
X126137599Y-82426511D01*
X126370398Y-82497130D01*
X126551835Y-82515000D01*
X127473165Y-82515000D01*
X127654602Y-82497130D01*
X127887401Y-82426511D01*
X128101949Y-82311833D01*
X128290002Y-82157502D01*
X128444333Y-81969449D01*
X128559011Y-81754901D01*
X128629630Y-81522102D01*
X128640967Y-81407000D01*
X130429000Y-81407000D01*
X130453776Y-81404560D01*
X130477601Y-81397333D01*
X130499557Y-81385597D01*
X130518923Y-81369682D01*
X133141559Y-78740000D01*
X140586525Y-78740000D01*
X140610370Y-78982102D01*
X140680989Y-79214901D01*
X140795667Y-79429449D01*
X140949998Y-79617502D01*
X141138051Y-79771833D01*
X141352599Y-79886511D01*
X141585398Y-79957130D01*
X141766835Y-79975000D01*
X142688165Y-79975000D01*
X142869602Y-79957130D01*
X143102401Y-79886511D01*
X143316949Y-79771833D01*
X143401542Y-79702409D01*
X160576193Y-96877062D01*
X160550000Y-97008740D01*
X160550000Y-97029131D01*
X144239446Y-80718579D01*
X144213291Y-80686709D01*
X144086146Y-80582364D01*
X143941087Y-80504828D01*
X143783689Y-80457082D01*
X143661019Y-80445000D01*
X143661018Y-80445000D01*
X143620000Y-80440960D01*
X143578982Y-80445000D01*
X143539882Y-80445000D01*
X143505002Y-80402498D01*
X143316949Y-80248167D01*
X143102401Y-80133489D01*
X142869602Y-80062870D01*
X142688165Y-80045000D01*
X141766835Y-80045000D01*
X141585398Y-80062870D01*
X141352599Y-80133489D01*
X141138051Y-80248167D01*
X140949998Y-80402498D01*
X140795667Y-80590551D01*
X140680989Y-80805099D01*
X140610370Y-81037898D01*
X140586525Y-81280000D01*
X140610370Y-81522102D01*
X140680989Y-81754901D01*
X140795667Y-81969449D01*
X140949998Y-82157502D01*
X141138051Y-82311833D01*
X141352599Y-82426511D01*
X141585398Y-82497130D01*
X141766835Y-82515000D01*
X142688165Y-82515000D01*
X142869602Y-82497130D01*
X143102401Y-82426511D01*
X143316949Y-82311833D01*
X143401542Y-82242409D01*
X160576193Y-99417062D01*
X160550000Y-99548740D01*
X160550000Y-99569131D01*
X144239446Y-83258579D01*
X144213291Y-83226709D01*
X144086146Y-83122364D01*
X143941087Y-83044828D01*
X143783689Y-82997082D01*
X143661019Y-82985000D01*
X143661018Y-82985000D01*
X143620000Y-82980960D01*
X143578982Y-82985000D01*
X143539882Y-82985000D01*
X143505002Y-82942498D01*
X143316949Y-82788167D01*
X143102401Y-82673489D01*
X142869602Y-82602870D01*
X142688165Y-82585000D01*
X141766835Y-82585000D01*
X141585398Y-82602870D01*
X141352599Y-82673489D01*
X141138051Y-82788167D01*
X140949998Y-82942498D01*
X140795667Y-83130551D01*
X140680989Y-83345099D01*
X140610370Y-83577898D01*
X140586525Y-83820000D01*
X140610370Y-84062102D01*
X140680989Y-84294901D01*
X140795667Y-84509449D01*
X140949998Y-84697502D01*
X141138051Y-84851833D01*
X141352599Y-84966511D01*
X141585398Y-85037130D01*
X141766835Y-85055000D01*
X142688165Y-85055000D01*
X142869602Y-85037130D01*
X143102401Y-84966511D01*
X143316949Y-84851833D01*
X143401542Y-84782409D01*
X160576193Y-101957062D01*
X160550000Y-102088740D01*
X160550000Y-102109131D01*
X144239446Y-85798579D01*
X144213291Y-85766709D01*
X144086146Y-85662364D01*
X143941087Y-85584828D01*
X143783689Y-85537082D01*
X143661019Y-85525000D01*
X143661018Y-85525000D01*
X143620000Y-85520960D01*
X143578982Y-85525000D01*
X143539882Y-85525000D01*
X143505002Y-85482498D01*
X143316949Y-85328167D01*
X143102401Y-85213489D01*
X142869602Y-85142870D01*
X142688165Y-85125000D01*
X141766835Y-85125000D01*
X141585398Y-85142870D01*
X141352599Y-85213489D01*
X141138051Y-85328167D01*
X140949998Y-85482498D01*
X140795667Y-85670551D01*
X140680989Y-85885099D01*
X140610370Y-86117898D01*
X140586525Y-86360000D01*
X140610370Y-86602102D01*
X140680989Y-86834901D01*
X140795667Y-87049449D01*
X140949998Y-87237502D01*
X141138051Y-87391833D01*
X141352599Y-87506511D01*
X141585398Y-87577130D01*
X141766835Y-87595000D01*
X142688165Y-87595000D01*
X142869602Y-87577130D01*
X143102401Y-87506511D01*
X143316949Y-87391833D01*
X143401542Y-87322409D01*
X160576193Y-104497062D01*
X160550000Y-104628740D01*
X160550000Y-104649131D01*
X144239446Y-88338579D01*
X144213291Y-88306709D01*
X144086146Y-88202364D01*
X143941087Y-88124828D01*
X143783689Y-88077082D01*
X143661019Y-88065000D01*
X143661018Y-88065000D01*
X143620000Y-88060960D01*
X143578982Y-88065000D01*
X143539882Y-88065000D01*
X143505002Y-88022498D01*
X143316949Y-87868167D01*
X143102401Y-87753489D01*
X142869602Y-87682870D01*
X142688165Y-87665000D01*
X141766835Y-87665000D01*
X141585398Y-87682870D01*
X141352599Y-87753489D01*
X141138051Y-87868167D01*
X140949998Y-88022498D01*
X140795667Y-88210551D01*
X140680989Y-88425099D01*
X140610370Y-88657898D01*
X140586525Y-88900000D01*
X140610370Y-89142102D01*
X140680989Y-89374901D01*
X140795667Y-89589449D01*
X140949998Y-89777502D01*
X141138051Y-89931833D01*
X141352599Y-90046511D01*
X141585398Y-90117130D01*
X141766835Y-90135000D01*
X142688165Y-90135000D01*
X142869602Y-90117130D01*
X143102401Y-90046511D01*
X143316949Y-89931833D01*
X143401542Y-89862409D01*
X160576193Y-107037062D01*
X160550000Y-107168740D01*
X160550000Y-107189131D01*
X144239446Y-90878579D01*
X144213291Y-90846709D01*
X144086146Y-90742364D01*
X143941087Y-90664828D01*
X143783689Y-90617082D01*
X143661019Y-90605000D01*
X143661018Y-90605000D01*
X143620000Y-90600960D01*
X143578982Y-90605000D01*
X143539882Y-90605000D01*
X143505002Y-90562498D01*
X143316949Y-90408167D01*
X143102401Y-90293489D01*
X142869602Y-90222870D01*
X142688165Y-90205000D01*
X141766835Y-90205000D01*
X141585398Y-90222870D01*
X141352599Y-90293489D01*
X141138051Y-90408167D01*
X140949998Y-90562498D01*
X140795667Y-90750551D01*
X140680989Y-90965099D01*
X140610370Y-91197898D01*
X140586525Y-91440000D01*
X140610370Y-91682102D01*
X140680989Y-91914901D01*
X140795667Y-92129449D01*
X140949998Y-92317502D01*
X141138051Y-92471833D01*
X141352599Y-92586511D01*
X141585398Y-92657130D01*
X141766835Y-92675000D01*
X142688165Y-92675000D01*
X142869602Y-92657130D01*
X143102401Y-92586511D01*
X143316949Y-92471833D01*
X143401542Y-92402409D01*
X160576193Y-109577062D01*
X160550000Y-109708740D01*
X160550000Y-109729131D01*
X149319446Y-98498579D01*
X149293291Y-98466709D01*
X149166146Y-98362364D01*
X149021087Y-98284828D01*
X148863689Y-98237082D01*
X148741019Y-98225000D01*
X148741018Y-98225000D01*
X148700000Y-98220960D01*
X148658982Y-98225000D01*
X143539882Y-98225000D01*
X143505002Y-98182498D01*
X143316949Y-98028167D01*
X143102401Y-97913489D01*
X142869602Y-97842870D01*
X142688165Y-97825000D01*
X141766835Y-97825000D01*
X141585398Y-97842870D01*
X141352599Y-97913489D01*
X141138051Y-98028167D01*
X140949998Y-98182498D01*
X140795667Y-98370551D01*
X140680989Y-98585099D01*
X140610370Y-98817898D01*
X140586525Y-99060000D01*
X140610370Y-99302102D01*
X140680989Y-99534901D01*
X140795667Y-99749449D01*
X140949998Y-99937502D01*
X141138051Y-100091833D01*
X141352599Y-100206511D01*
X141585398Y-100277130D01*
X141766835Y-100295000D01*
X142688165Y-100295000D01*
X142869602Y-100277130D01*
X143102401Y-100206511D01*
X143316949Y-100091833D01*
X143505002Y-99937502D01*
X143539882Y-99895000D01*
X148354133Y-99895000D01*
X160576193Y-112117062D01*
X160550000Y-112248740D01*
X160550000Y-112269131D01*
X149319446Y-101038579D01*
X149293291Y-101006709D01*
X149166146Y-100902364D01*
X149021087Y-100824828D01*
X148863689Y-100777082D01*
X148741019Y-100765000D01*
X148741018Y-100765000D01*
X148700000Y-100760960D01*
X148658982Y-100765000D01*
X143539882Y-100765000D01*
X143505002Y-100722498D01*
X143316949Y-100568167D01*
X143102401Y-100453489D01*
X142869602Y-100382870D01*
X142688165Y-100365000D01*
X141766835Y-100365000D01*
X141585398Y-100382870D01*
X141352599Y-100453489D01*
X141138051Y-100568167D01*
X140949998Y-100722498D01*
X140795667Y-100910551D01*
X140680989Y-101125099D01*
X140610370Y-101357898D01*
X140586525Y-101600000D01*
X140610370Y-101842102D01*
X140680989Y-102074901D01*
X140795667Y-102289449D01*
X140949998Y-102477502D01*
X141138051Y-102631833D01*
X141352599Y-102746511D01*
X141585398Y-102817130D01*
X141766835Y-102835000D01*
X142688165Y-102835000D01*
X142869602Y-102817130D01*
X143102401Y-102746511D01*
X143316949Y-102631833D01*
X143505002Y-102477502D01*
X143539882Y-102435000D01*
X148354133Y-102435000D01*
X152284132Y-106365000D01*
X151641984Y-106365000D01*
X150939710Y-106504691D01*
X150278182Y-106778705D01*
X149682823Y-107176511D01*
X149176511Y-107682823D01*
X148778705Y-108278182D01*
X148504691Y-108939710D01*
X148365000Y-109641984D01*
X148365000Y-110358016D01*
X148504691Y-111060290D01*
X148778705Y-111721818D01*
X149176511Y-112317177D01*
X149682823Y-112823489D01*
X150278182Y-113221295D01*
X150939710Y-113495309D01*
X151641984Y-113635000D01*
X152358016Y-113635000D01*
X153060290Y-113495309D01*
X153721818Y-113221295D01*
X154317177Y-112823489D01*
X154823489Y-112317177D01*
X155221295Y-111721818D01*
X155495309Y-111060290D01*
X155635000Y-110358016D01*
X155635000Y-109715868D01*
X160576193Y-114657062D01*
X160550000Y-114788740D01*
X160550000Y-115081260D01*
X160607068Y-115368158D01*
X160719010Y-115638411D01*
X160881525Y-115881632D01*
X161088368Y-116088475D01*
X161331589Y-116250990D01*
X161601842Y-116362932D01*
X161888740Y-116420000D01*
X162181260Y-116420000D01*
X162468158Y-116362932D01*
X162738411Y-116250990D01*
X162981632Y-116088475D01*
X163188475Y-115881632D01*
X163310195Y-115699466D01*
X163379822Y-115816355D01*
X163574731Y-116032588D01*
X163808080Y-116206641D01*
X164070901Y-116331825D01*
X164218110Y-116376476D01*
X164448000Y-116255155D01*
X164448000Y-115062000D01*
X164428000Y-115062000D01*
X164428000Y-114808000D01*
X164448000Y-114808000D01*
X164448000Y-112522000D01*
X164428000Y-112522000D01*
X164428000Y-112268000D01*
X164448000Y-112268000D01*
X164448000Y-109982000D01*
X164428000Y-109982000D01*
X164428000Y-109728000D01*
X164448000Y-109728000D01*
X164448000Y-107442000D01*
X164428000Y-107442000D01*
X164428000Y-107188000D01*
X164448000Y-107188000D01*
X164448000Y-104902000D01*
X164428000Y-104902000D01*
X164428000Y-104648000D01*
X164448000Y-104648000D01*
X164448000Y-102362000D01*
X164428000Y-102362000D01*
X164428000Y-102108000D01*
X164448000Y-102108000D01*
X164448000Y-99822000D01*
X164428000Y-99822000D01*
X164428000Y-99568000D01*
X164448000Y-99568000D01*
X164448000Y-97282000D01*
X164428000Y-97282000D01*
X164428000Y-97028000D01*
X164448000Y-97028000D01*
X164448000Y-95834845D01*
X164218110Y-95713524D01*
X164070901Y-95758175D01*
X163808080Y-95883359D01*
X163574731Y-96057412D01*
X163379822Y-96273645D01*
X163310195Y-96390534D01*
X163188475Y-96208368D01*
X162981632Y-96001525D01*
X162738411Y-95839010D01*
X162468158Y-95727068D01*
X162181260Y-95670000D01*
X161888740Y-95670000D01*
X161757062Y-95696193D01*
X155672434Y-89611565D01*
X156697040Y-89611565D01*
X156764020Y-89851656D01*
X157013048Y-89968756D01*
X157280135Y-90035023D01*
X157555017Y-90047910D01*
X157827133Y-90006922D01*
X158086023Y-89913636D01*
X158201980Y-89851656D01*
X158268960Y-89611565D01*
X157483000Y-88825605D01*
X156697040Y-89611565D01*
X155672434Y-89611565D01*
X152471304Y-86410435D01*
X156697040Y-86410435D01*
X157483000Y-87196395D01*
X158268960Y-86410435D01*
X158201980Y-86170344D01*
X157952952Y-86053244D01*
X157685865Y-85986977D01*
X157410983Y-85974090D01*
X157138867Y-86015078D01*
X156879977Y-86108364D01*
X156764020Y-86170344D01*
X156697040Y-86410435D01*
X152471304Y-86410435D01*
X144239446Y-78178579D01*
X144213291Y-78146709D01*
X144086146Y-78042364D01*
X143941087Y-77964828D01*
X143783689Y-77917082D01*
X143661019Y-77905000D01*
X143661018Y-77905000D01*
X143620000Y-77900960D01*
X143578982Y-77905000D01*
X143539882Y-77905000D01*
X143505002Y-77862498D01*
X143316949Y-77708167D01*
X143102401Y-77593489D01*
X142869602Y-77522870D01*
X142688165Y-77505000D01*
X141766835Y-77505000D01*
X141585398Y-77522870D01*
X141352599Y-77593489D01*
X141138051Y-77708167D01*
X140949998Y-77862498D01*
X140795667Y-78050551D01*
X140680989Y-78265099D01*
X140610370Y-78497898D01*
X140586525Y-78740000D01*
X133141559Y-78740000D01*
X135674754Y-76200000D01*
X140586525Y-76200000D01*
X140610370Y-76442102D01*
X140680989Y-76674901D01*
X140795667Y-76889449D01*
X140949998Y-77077502D01*
X141138051Y-77231833D01*
X141352599Y-77346511D01*
X141585398Y-77417130D01*
X141766835Y-77435000D01*
X142688165Y-77435000D01*
X142869602Y-77417130D01*
X143102401Y-77346511D01*
X143316949Y-77231833D01*
X143505002Y-77077502D01*
X143659333Y-76889449D01*
X143774011Y-76674901D01*
X143844630Y-76442102D01*
X143868475Y-76200000D01*
X143844630Y-75957898D01*
X143774011Y-75725099D01*
X143659333Y-75510551D01*
X143505002Y-75322498D01*
X143316949Y-75168167D01*
X143102401Y-75053489D01*
X142869602Y-74982870D01*
X142688165Y-74965000D01*
X141766835Y-74965000D01*
X141585398Y-74982870D01*
X141352599Y-75053489D01*
X141138051Y-75168167D01*
X140949998Y-75322498D01*
X140795667Y-75510551D01*
X140680989Y-75725099D01*
X140610370Y-75957898D01*
X140586525Y-76200000D01*
X135674754Y-76200000D01*
X138207950Y-73660000D01*
X140586525Y-73660000D01*
X140610370Y-73902102D01*
X140680989Y-74134901D01*
X140795667Y-74349449D01*
X140949998Y-74537502D01*
X141138051Y-74691833D01*
X141352599Y-74806511D01*
X141585398Y-74877130D01*
X141766835Y-74895000D01*
X142688165Y-74895000D01*
X142869602Y-74877130D01*
X143102401Y-74806511D01*
X143316949Y-74691833D01*
X143405661Y-74619029D01*
X148723063Y-79936432D01*
X148749209Y-79968291D01*
X148876354Y-80072636D01*
X149021413Y-80150172D01*
X149178811Y-80197918D01*
X149301481Y-80210000D01*
X149301482Y-80210000D01*
X149342500Y-80214040D01*
X149383518Y-80210000D01*
X159296133Y-80210000D01*
X165065132Y-85979000D01*
X164965408Y-85979000D01*
X164695510Y-86032686D01*
X164441273Y-86137995D01*
X164212465Y-86290880D01*
X164017880Y-86485465D01*
X163864995Y-86714273D01*
X163833000Y-86791515D01*
X163801005Y-86714273D01*
X163648120Y-86485465D01*
X163453535Y-86290880D01*
X163224727Y-86137995D01*
X162970490Y-86032686D01*
X162700592Y-85979000D01*
X162425408Y-85979000D01*
X162155510Y-86032686D01*
X161901273Y-86137995D01*
X161672465Y-86290880D01*
X161477880Y-86485465D01*
X161361892Y-86659054D01*
X161345500Y-86605018D01*
X161251327Y-86428834D01*
X161124593Y-86274407D01*
X160970166Y-86147673D01*
X160858000Y-86087719D01*
X160858000Y-85064018D01*
X160862040Y-85023000D01*
X160845918Y-84859312D01*
X160843650Y-84851833D01*
X160798172Y-84701913D01*
X160720636Y-84556854D01*
X160616291Y-84429709D01*
X160584432Y-84403563D01*
X157424093Y-81243225D01*
X157395226Y-81098102D01*
X157317205Y-80909744D01*
X157203937Y-80740226D01*
X157059774Y-80596063D01*
X156890256Y-80482795D01*
X156701898Y-80404774D01*
X156501939Y-80365000D01*
X156298061Y-80365000D01*
X156098102Y-80404774D01*
X155909744Y-80482795D01*
X155740226Y-80596063D01*
X155596063Y-80740226D01*
X155482795Y-80909744D01*
X155404774Y-81098102D01*
X155365000Y-81298061D01*
X155365000Y-81501939D01*
X155404774Y-81701898D01*
X155482795Y-81890256D01*
X155596063Y-82059774D01*
X155740226Y-82203937D01*
X155909744Y-82317205D01*
X156098102Y-82395226D01*
X156243225Y-82424093D01*
X159188001Y-85368870D01*
X159188001Y-86087718D01*
X159075834Y-86147673D01*
X158921407Y-86274407D01*
X158794673Y-86428834D01*
X158700500Y-86605018D01*
X158685032Y-86656009D01*
X158448565Y-86590040D01*
X157762591Y-87276014D01*
X157685865Y-87256977D01*
X157410983Y-87244090D01*
X157202837Y-87275442D01*
X156517435Y-86590040D01*
X156277344Y-86657020D01*
X156160244Y-86906048D01*
X156093977Y-87173135D01*
X156081090Y-87448017D01*
X156122078Y-87720133D01*
X156215364Y-87979023D01*
X156235328Y-88016373D01*
X156160244Y-88176048D01*
X156093977Y-88443135D01*
X156081090Y-88718017D01*
X156122078Y-88990133D01*
X156215364Y-89249023D01*
X156277344Y-89364980D01*
X156517435Y-89431960D01*
X157203409Y-88745986D01*
X157280135Y-88765023D01*
X157555017Y-88777910D01*
X157763163Y-88746558D01*
X158448565Y-89431960D01*
X158685032Y-89365991D01*
X158700500Y-89416982D01*
X158794673Y-89593166D01*
X158921407Y-89747593D01*
X159075834Y-89874327D01*
X159252018Y-89968500D01*
X159443189Y-90026491D01*
X159642000Y-90046072D01*
X160404000Y-90046072D01*
X160602811Y-90026491D01*
X160793982Y-89968500D01*
X160970166Y-89874327D01*
X161124593Y-89747593D01*
X161251327Y-89593166D01*
X161345500Y-89416982D01*
X161361892Y-89362946D01*
X161477880Y-89536535D01*
X161672465Y-89731120D01*
X161901273Y-89884005D01*
X162155510Y-89989314D01*
X162425408Y-90043000D01*
X162700592Y-90043000D01*
X162970490Y-89989314D01*
X163224727Y-89884005D01*
X163453535Y-89731120D01*
X163648120Y-89536535D01*
X163801005Y-89307727D01*
X163833000Y-89230485D01*
X163864995Y-89307727D01*
X164017880Y-89536535D01*
X164212465Y-89731120D01*
X164441273Y-89884005D01*
X164695510Y-89989314D01*
X164965408Y-90043000D01*
X165240592Y-90043000D01*
X165510490Y-89989314D01*
X165764727Y-89884005D01*
X165993535Y-89731120D01*
X166188120Y-89536535D01*
X166341005Y-89307727D01*
X166373000Y-89230485D01*
X166404995Y-89307727D01*
X166557880Y-89536535D01*
X166752465Y-89731120D01*
X166981273Y-89884005D01*
X167235510Y-89989314D01*
X167505408Y-90043000D01*
X167780592Y-90043000D01*
X168050490Y-89989314D01*
X168304727Y-89884005D01*
X168533535Y-89731120D01*
X168728120Y-89536535D01*
X168881005Y-89307727D01*
X168986314Y-89053490D01*
X169040000Y-88783592D01*
X169040000Y-88508408D01*
X168986314Y-88238510D01*
X168892076Y-88011000D01*
X168986314Y-87783490D01*
X169040000Y-87513592D01*
X169040000Y-87238408D01*
X168986314Y-86968510D01*
X168881005Y-86714273D01*
X168728120Y-86485465D01*
X168533535Y-86290880D01*
X168304727Y-86137995D01*
X168050490Y-86032686D01*
X167780592Y-85979000D01*
X167505408Y-85979000D01*
X167439899Y-85992030D01*
X160261446Y-78813579D01*
X160235291Y-78781709D01*
X160108146Y-78677364D01*
X159963087Y-78599828D01*
X159805689Y-78552082D01*
X159683019Y-78540000D01*
X159683018Y-78540000D01*
X159642000Y-78535960D01*
X159600982Y-78540000D01*
X149688369Y-78540000D01*
X144246946Y-73098579D01*
X144220791Y-73066709D01*
X144093646Y-72962364D01*
X143948587Y-72884828D01*
X143791189Y-72837082D01*
X143668519Y-72825000D01*
X143668518Y-72825000D01*
X143627500Y-72820960D01*
X143586482Y-72825000D01*
X143539882Y-72825000D01*
X143505002Y-72782498D01*
X143316949Y-72628167D01*
X143102401Y-72513489D01*
X142869602Y-72442870D01*
X142688165Y-72425000D01*
X141766835Y-72425000D01*
X141585398Y-72442870D01*
X141352599Y-72513489D01*
X141138051Y-72628167D01*
X140949998Y-72782498D01*
X140795667Y-72970551D01*
X140680989Y-73185099D01*
X140610370Y-73417898D01*
X140586525Y-73660000D01*
X138207950Y-73660000D01*
X140614484Y-71247002D01*
X140758768Y-71247002D01*
X140634038Y-71437609D01*
X140637909Y-71475282D01*
X140730079Y-71700533D01*
X140864422Y-71903474D01*
X141035775Y-72076307D01*
X141237554Y-72212390D01*
X141462004Y-72306493D01*
X141700500Y-72355000D01*
X142100500Y-72355000D01*
X142100500Y-71247000D01*
X142354500Y-71247000D01*
X142354500Y-72355000D01*
X142754500Y-72355000D01*
X142992996Y-72306493D01*
X143217446Y-72212390D01*
X143419225Y-72076307D01*
X143590578Y-71903474D01*
X143724921Y-71700533D01*
X143817091Y-71475282D01*
X143820962Y-71437609D01*
X143696231Y-71247000D01*
X142354500Y-71247000D01*
X142100500Y-71247000D01*
X142080500Y-71247000D01*
X142080500Y-70993000D01*
X142100500Y-70993000D01*
X142100500Y-69885000D01*
X142354500Y-69885000D01*
X142354500Y-70993000D01*
X143696231Y-70993000D01*
X143820962Y-70802391D01*
X143817091Y-70764718D01*
X143724921Y-70539467D01*
X143590578Y-70336526D01*
X143419225Y-70163693D01*
X143217446Y-70027610D01*
X142992996Y-69933507D01*
X142754500Y-69885000D01*
X142354500Y-69885000D01*
X142100500Y-69885000D01*
X141972838Y-69885000D01*
X142042650Y-69815000D01*
X142688165Y-69815000D01*
X142869602Y-69797130D01*
X143102401Y-69726511D01*
X143260540Y-69641984D01*
X148365000Y-69641984D01*
X148365000Y-70358016D01*
X148504691Y-71060290D01*
X148778705Y-71721818D01*
X149176511Y-72317177D01*
X149682823Y-72823489D01*
X150278182Y-73221295D01*
X150939710Y-73495309D01*
X151641984Y-73635000D01*
X152358016Y-73635000D01*
X153060290Y-73495309D01*
X153721818Y-73221295D01*
X154317177Y-72823489D01*
X154823489Y-72317177D01*
X155221295Y-71721818D01*
X155495309Y-71060290D01*
X155635000Y-70358016D01*
X155635000Y-69641984D01*
X155569333Y-69311852D01*
X159678000Y-69311852D01*
X159678000Y-69880148D01*
X159788869Y-70437523D01*
X160006346Y-70962560D01*
X160322074Y-71435080D01*
X160723920Y-71836926D01*
X161196440Y-72152654D01*
X161721477Y-72370131D01*
X162278852Y-72481000D01*
X162847148Y-72481000D01*
X163404523Y-72370131D01*
X163929560Y-72152654D01*
X164402080Y-71836926D01*
X164803926Y-71435080D01*
X165119654Y-70962560D01*
X165337131Y-70437523D01*
X165448000Y-69880148D01*
X165448000Y-69311852D01*
X165337131Y-68754477D01*
X165119654Y-68229440D01*
X164803926Y-67756920D01*
X164402080Y-67355074D01*
X163929560Y-67039346D01*
X163404523Y-66821869D01*
X162847148Y-66711000D01*
X162278852Y-66711000D01*
X161721477Y-66821869D01*
X161196440Y-67039346D01*
X160723920Y-67355074D01*
X160322074Y-67756920D01*
X160006346Y-68229440D01*
X159788869Y-68754477D01*
X159678000Y-69311852D01*
X155569333Y-69311852D01*
X155495309Y-68939710D01*
X155221295Y-68278182D01*
X154823489Y-67682823D01*
X154317177Y-67176511D01*
X153721818Y-66778705D01*
X153060290Y-66504691D01*
X152358016Y-66365000D01*
X151641984Y-66365000D01*
X150939710Y-66504691D01*
X150278182Y-66778705D01*
X149682823Y-67176511D01*
X149176511Y-67682823D01*
X148778705Y-68278182D01*
X148504691Y-68939710D01*
X148365000Y-69641984D01*
X143260540Y-69641984D01*
X143316949Y-69611833D01*
X143505002Y-69457502D01*
X143659333Y-69269449D01*
X143774011Y-69054901D01*
X143844630Y-68822102D01*
X143868475Y-68580000D01*
X143844630Y-68337898D01*
X143774011Y-68105099D01*
X143659333Y-67890551D01*
X143505002Y-67702498D01*
X143316949Y-67548167D01*
X143102401Y-67433489D01*
X142869602Y-67362870D01*
X142688165Y-67345000D01*
X142599879Y-67345000D01*
X142600298Y-67275000D01*
X142688165Y-67275000D01*
X142869602Y-67257130D01*
X143102401Y-67186511D01*
X143316949Y-67071833D01*
X143505002Y-66917502D01*
X143659333Y-66729449D01*
X143774011Y-66514901D01*
X143844630Y-66282102D01*
X143868475Y-66040000D01*
X143844630Y-65797898D01*
X143774011Y-65565099D01*
X143659333Y-65350551D01*
X143505002Y-65162498D01*
X143316949Y-65008167D01*
X143102401Y-64893489D01*
X142869602Y-64822870D01*
X142688165Y-64805000D01*
X142615089Y-64805000D01*
X142624641Y-63210072D01*
X143427000Y-63210072D01*
X143634395Y-63189645D01*
X143833820Y-63129150D01*
X144017611Y-63030912D01*
X144178705Y-62898705D01*
X144310912Y-62737611D01*
X144409150Y-62553820D01*
X144469645Y-62354395D01*
X144490072Y-62147000D01*
X144490072Y-61297000D01*
X144469645Y-61089605D01*
X144409150Y-60890180D01*
X144310912Y-60706389D01*
X144301565Y-60695000D01*
X148560435Y-60695000D01*
X148551088Y-60706389D01*
G37*
X148551088Y-60706389D02*
X148452850Y-60890180D01*
X148392355Y-61089605D01*
X148371928Y-61297000D01*
X148371928Y-62147000D01*
X148392355Y-62354395D01*
X148452850Y-62553820D01*
X148551088Y-62737611D01*
X148683295Y-62898705D01*
X148844389Y-63030912D01*
X149028180Y-63129150D01*
X149227605Y-63189645D01*
X149435000Y-63210072D01*
X150285000Y-63210072D01*
X150492395Y-63189645D01*
X150691820Y-63129150D01*
X150875611Y-63030912D01*
X151036705Y-62898705D01*
X151168912Y-62737611D01*
X151267150Y-62553820D01*
X151327645Y-62354395D01*
X151348072Y-62147000D01*
X151348072Y-61297000D01*
X151327645Y-61089605D01*
X151267150Y-60890180D01*
X151168912Y-60706389D01*
X151159565Y-60695000D01*
X157063345Y-60695000D01*
X156997880Y-60760465D01*
X156844995Y-60989273D01*
X156739686Y-61243510D01*
X156686000Y-61513408D01*
X156686000Y-61788592D01*
X156739686Y-62058490D01*
X156844995Y-62312727D01*
X156997880Y-62541535D01*
X157192465Y-62736120D01*
X157421273Y-62889005D01*
X157675510Y-62994314D01*
X157945408Y-63048000D01*
X158220592Y-63048000D01*
X158490490Y-62994314D01*
X158744727Y-62889005D01*
X158973535Y-62736120D01*
X159168120Y-62541535D01*
X159321005Y-62312727D01*
X159333000Y-62283769D01*
X159333924Y-62286000D01*
X159239686Y-62513510D01*
X159186000Y-62783408D01*
X159186000Y-63058592D01*
X159239686Y-63328490D01*
X159344995Y-63582727D01*
X159497880Y-63811535D01*
X159692465Y-64006120D01*
X159921273Y-64159005D01*
X160175510Y-64264314D01*
X160445408Y-64318000D01*
X160720592Y-64318000D01*
X160990490Y-64264314D01*
X161244727Y-64159005D01*
X161473535Y-64006120D01*
X161668120Y-63811535D01*
X161821005Y-63582727D01*
X161926314Y-63328490D01*
X161980000Y-63058592D01*
X161980000Y-62783408D01*
X161926314Y-62513510D01*
X161832076Y-62286000D01*
X161833000Y-62283769D01*
X161844995Y-62312727D01*
X161997880Y-62541535D01*
X162192465Y-62736120D01*
X162421273Y-62889005D01*
X162675510Y-62994314D01*
X162945408Y-63048000D01*
X163220592Y-63048000D01*
X163490490Y-62994314D01*
X163744727Y-62889005D01*
X163973535Y-62736120D01*
X164168120Y-62541535D01*
X164321005Y-62312727D01*
X164426314Y-62058490D01*
X164480000Y-61788592D01*
X164480000Y-61513408D01*
X164426314Y-61243510D01*
X164321005Y-60989273D01*
X164168120Y-60760465D01*
X164102655Y-60695000D01*
X169305000Y-60695000D01*
X169305001Y-96393000D01*
X168603072Y-96393000D01*
X168603072Y-96305000D01*
X168590812Y-96180518D01*
X168554502Y-96060820D01*
X168495537Y-95950506D01*
X168416185Y-95853815D01*
X168319494Y-95774463D01*
X168209180Y-95715498D01*
X168089482Y-95679188D01*
X167965000Y-95666928D01*
X166265000Y-95666928D01*
X166140518Y-95679188D01*
X166020820Y-95715498D01*
X165910506Y-95774463D01*
X165813815Y-95853815D01*
X165734463Y-95950506D01*
X165675498Y-96060820D01*
X165651034Y-96141466D01*
X165575269Y-96057412D01*
X165341920Y-95883359D01*
X165079099Y-95758175D01*
X164931890Y-95713524D01*
X164702000Y-95834845D01*
X164702000Y-97028000D01*
X164722000Y-97028000D01*
X164722000Y-97282000D01*
X164702000Y-97282000D01*
X164702000Y-99568000D01*
X164722000Y-99568000D01*
X164722000Y-99822000D01*
X164702000Y-99822000D01*
X164702000Y-102108000D01*
X164722000Y-102108000D01*
X164722000Y-102362000D01*
X164702000Y-102362000D01*
X164702000Y-104648000D01*
X164722000Y-104648000D01*
X164722000Y-104902000D01*
X164702000Y-104902000D01*
X164702000Y-107188000D01*
X164722000Y-107188000D01*
X164722000Y-107442000D01*
X164702000Y-107442000D01*
X164702000Y-109728000D01*
X164722000Y-109728000D01*
X164722000Y-109982000D01*
X164702000Y-109982000D01*
X164702000Y-112268000D01*
X164722000Y-112268000D01*
X164722000Y-112522000D01*
X164702000Y-112522000D01*
X164702000Y-114808000D01*
X164722000Y-114808000D01*
X164722000Y-115062000D01*
X164702000Y-115062000D01*
X164702000Y-116255155D01*
X164931890Y-116376476D01*
X165079099Y-116331825D01*
X165341920Y-116206641D01*
X165575269Y-116032588D01*
X165651034Y-115948534D01*
X165675498Y-116029180D01*
X165734463Y-116139494D01*
X165813815Y-116236185D01*
X165910506Y-116315537D01*
X166020820Y-116374502D01*
X166140518Y-116410812D01*
X166265000Y-116423072D01*
X167965000Y-116423072D01*
X168089482Y-116410812D01*
X168209180Y-116374502D01*
X168319494Y-116315537D01*
X168416185Y-116236185D01*
X168495537Y-116139494D01*
X168554502Y-116029180D01*
X168590812Y-115909482D01*
X168603072Y-115785000D01*
X168603072Y-115760500D01*
X169305001Y-115760500D01*
X169305001Y-116535500D01*
X113399703Y-116535500D01*
X112831433Y-115930355D01*
X112144688Y-114985130D01*
X111942642Y-114617609D01*
X125419038Y-114617609D01*
X125422909Y-114655282D01*
X125515079Y-114880533D01*
X125649422Y-115083474D01*
X125820775Y-115256307D01*
X126022554Y-115392390D01*
X126247004Y-115486493D01*
X126485500Y-115535000D01*
X126885500Y-115535000D01*
X126885500Y-114427000D01*
X127139500Y-114427000D01*
X127139500Y-115535000D01*
X127539500Y-115535000D01*
X127777996Y-115486493D01*
X128002446Y-115392390D01*
X128204225Y-115256307D01*
X128375578Y-115083474D01*
X128509921Y-114880533D01*
X128602091Y-114655282D01*
X128605962Y-114617609D01*
X128481231Y-114427000D01*
X127139500Y-114427000D01*
X126885500Y-114427000D01*
X125543769Y-114427000D01*
X125419038Y-114617609D01*
X111942642Y-114617609D01*
X111768035Y-114300000D01*
X140586525Y-114300000D01*
X140610370Y-114542102D01*
X140680989Y-114774901D01*
X140795667Y-114989449D01*
X140949998Y-115177502D01*
X141138051Y-115331833D01*
X141352599Y-115446511D01*
X141585398Y-115517130D01*
X141766835Y-115535000D01*
X142688165Y-115535000D01*
X142869602Y-115517130D01*
X143102401Y-115446511D01*
X143316949Y-115331833D01*
X143505002Y-115177502D01*
X143659333Y-114989449D01*
X143774011Y-114774901D01*
X143844630Y-114542102D01*
X143868475Y-114300000D01*
X143844630Y-114057898D01*
X143774011Y-113825099D01*
X143659333Y-113610551D01*
X143505002Y-113422498D01*
X143316949Y-113268167D01*
X143102401Y-113153489D01*
X142869602Y-113082870D01*
X142688165Y-113065000D01*
X141766835Y-113065000D01*
X141585398Y-113082870D01*
X141352599Y-113153489D01*
X141138051Y-113268167D01*
X140949998Y-113422498D01*
X140795667Y-113610551D01*
X140680989Y-113825099D01*
X140610370Y-114057898D01*
X140586525Y-114300000D01*
X111768035Y-114300000D01*
X111593428Y-113982391D01*
X125419038Y-113982391D01*
X125543769Y-114173000D01*
X126885500Y-114173000D01*
X126885500Y-113065000D01*
X127139500Y-113065000D01*
X127139500Y-114173000D01*
X128481231Y-114173000D01*
X128605962Y-113982391D01*
X128602091Y-113944718D01*
X128509921Y-113719467D01*
X128375578Y-113516526D01*
X128204225Y-113343693D01*
X128002446Y-113207610D01*
X127777996Y-113113507D01*
X127539500Y-113065000D01*
X127139500Y-113065000D01*
X126885500Y-113065000D01*
X126485500Y-113065000D01*
X126247004Y-113113507D01*
X126022554Y-113207610D01*
X125820775Y-113343693D01*
X125649422Y-113516526D01*
X125515079Y-113719467D01*
X125422909Y-113944718D01*
X125419038Y-113982391D01*
X111593428Y-113982391D01*
X111581828Y-113961292D01*
X111151725Y-112874977D01*
X110861167Y-111743329D01*
X110713360Y-110573313D01*
X110695000Y-109989083D01*
X110695000Y-109641984D01*
X116365000Y-109641984D01*
X116365000Y-110358016D01*
X116504691Y-111060290D01*
X116778705Y-111721818D01*
X117176511Y-112317177D01*
X117682823Y-112823489D01*
X118278182Y-113221295D01*
X118939710Y-113495309D01*
X119641984Y-113635000D01*
X120358016Y-113635000D01*
X121060290Y-113495309D01*
X121721818Y-113221295D01*
X122317177Y-112823489D01*
X122823489Y-112317177D01*
X123195782Y-111760000D01*
X125371525Y-111760000D01*
X125395370Y-112002102D01*
X125465989Y-112234901D01*
X125580667Y-112449449D01*
X125734998Y-112637502D01*
X125923051Y-112791833D01*
X126137599Y-112906511D01*
X126370398Y-112977130D01*
X126551835Y-112995000D01*
X127473165Y-112995000D01*
X127654602Y-112977130D01*
X127887401Y-112906511D01*
X128101949Y-112791833D01*
X128290002Y-112637502D01*
X128444333Y-112449449D01*
X128559011Y-112234901D01*
X128629630Y-112002102D01*
X128653475Y-111760000D01*
X128629630Y-111517898D01*
X128559011Y-111285099D01*
X128444333Y-111070551D01*
X128290002Y-110882498D01*
X128101949Y-110728167D01*
X127887401Y-110613489D01*
X127654602Y-110542870D01*
X127473165Y-110525000D01*
X126551835Y-110525000D01*
X126370398Y-110542870D01*
X126137599Y-110613489D01*
X125923051Y-110728167D01*
X125734998Y-110882498D01*
X125580667Y-111070551D01*
X125465989Y-111285099D01*
X125395370Y-111517898D01*
X125371525Y-111760000D01*
X123195782Y-111760000D01*
X123221295Y-111721818D01*
X123495309Y-111060290D01*
X123635000Y-110358016D01*
X123635000Y-109641984D01*
X123495309Y-108939710D01*
X123221295Y-108278182D01*
X122823489Y-107682823D01*
X122317177Y-107176511D01*
X121721818Y-106778705D01*
X121060290Y-106504691D01*
X120358016Y-106365000D01*
X119641984Y-106365000D01*
X118939710Y-106504691D01*
X118278182Y-106778705D01*
X117682823Y-107176511D01*
X117176511Y-107682823D01*
X116778705Y-108278182D01*
X116504691Y-108939710D01*
X116365000Y-109641984D01*
X110695000Y-109641984D01*
X110695000Y-99187000D01*
X112113428Y-99187000D01*
X112113428Y-99910000D01*
X112125688Y-100034482D01*
X112161998Y-100154180D01*
X112220963Y-100264494D01*
X112300315Y-100361185D01*
X112397006Y-100440537D01*
X112507320Y-100499502D01*
X112627018Y-100535812D01*
X112751500Y-100548072D01*
X114451500Y-100548072D01*
X114575982Y-100535812D01*
X114695680Y-100499502D01*
X114805994Y-100440537D01*
X114902685Y-100361185D01*
X114982037Y-100264494D01*
X115041002Y-100154180D01*
X115063013Y-100081620D01*
X115194868Y-100213475D01*
X115438089Y-100375990D01*
X115708342Y-100487932D01*
X115995240Y-100545000D01*
X116287760Y-100545000D01*
X116419440Y-100518807D01*
X125409581Y-109508950D01*
X125465989Y-109694901D01*
X125580667Y-109909449D01*
X125734998Y-110097502D01*
X125923051Y-110251833D01*
X126137599Y-110366511D01*
X126370398Y-110437130D01*
X126551835Y-110455000D01*
X127473165Y-110455000D01*
X127654602Y-110437130D01*
X127887401Y-110366511D01*
X127913785Y-110352408D01*
X129413000Y-110352408D01*
X129413000Y-110627592D01*
X129466686Y-110897490D01*
X129571995Y-111151727D01*
X129724880Y-111380535D01*
X129919465Y-111575120D01*
X130148273Y-111728005D01*
X130402510Y-111833314D01*
X130672408Y-111887000D01*
X130947592Y-111887000D01*
X131217490Y-111833314D01*
X131471727Y-111728005D01*
X131700535Y-111575120D01*
X131895120Y-111380535D01*
X132048005Y-111151727D01*
X132080000Y-111074485D01*
X132111995Y-111151727D01*
X132264880Y-111380535D01*
X132459465Y-111575120D01*
X132688273Y-111728005D01*
X132942510Y-111833314D01*
X133212408Y-111887000D01*
X133487592Y-111887000D01*
X133757490Y-111833314D01*
X134011727Y-111728005D01*
X134240535Y-111575120D01*
X134435120Y-111380535D01*
X134588005Y-111151727D01*
X134620000Y-111074485D01*
X134651995Y-111151727D01*
X134804880Y-111380535D01*
X134999465Y-111575120D01*
X135228273Y-111728005D01*
X135482510Y-111833314D01*
X135752408Y-111887000D01*
X136027592Y-111887000D01*
X136297490Y-111833314D01*
X136551727Y-111728005D01*
X136780535Y-111575120D01*
X136975120Y-111380535D01*
X137128005Y-111151727D01*
X137160000Y-111074485D01*
X137191995Y-111151727D01*
X137344880Y-111380535D01*
X137539465Y-111575120D01*
X137768273Y-111728005D01*
X138022510Y-111833314D01*
X138292408Y-111887000D01*
X138567592Y-111887000D01*
X138837490Y-111833314D01*
X139014484Y-111760000D01*
X140586525Y-111760000D01*
X140610370Y-112002102D01*
X140680989Y-112234901D01*
X140795667Y-112449449D01*
X140949998Y-112637502D01*
X141138051Y-112791833D01*
X141352599Y-112906511D01*
X141585398Y-112977130D01*
X141766835Y-112995000D01*
X142688165Y-112995000D01*
X142869602Y-112977130D01*
X143102401Y-112906511D01*
X143316949Y-112791833D01*
X143505002Y-112637502D01*
X143659333Y-112449449D01*
X143774011Y-112234901D01*
X143844630Y-112002102D01*
X143868475Y-111760000D01*
X143844630Y-111517898D01*
X143774011Y-111285099D01*
X143659333Y-111070551D01*
X143505002Y-110882498D01*
X143316949Y-110728167D01*
X143102401Y-110613489D01*
X142869602Y-110542870D01*
X142688165Y-110525000D01*
X141766835Y-110525000D01*
X141585398Y-110542870D01*
X141352599Y-110613489D01*
X141138051Y-110728167D01*
X140949998Y-110882498D01*
X140795667Y-111070551D01*
X140680989Y-111285099D01*
X140610370Y-111517898D01*
X140586525Y-111760000D01*
X139014484Y-111760000D01*
X139091727Y-111728005D01*
X139320535Y-111575120D01*
X139515120Y-111380535D01*
X139668005Y-111151727D01*
X139773314Y-110897490D01*
X139827000Y-110627592D01*
X139827000Y-110352408D01*
X139773314Y-110082510D01*
X139668005Y-109828273D01*
X139515120Y-109599465D01*
X139320535Y-109404880D01*
X139091727Y-109251995D01*
X139014485Y-109220000D01*
X140586525Y-109220000D01*
X140610370Y-109462102D01*
X140680989Y-109694901D01*
X140795667Y-109909449D01*
X140949998Y-110097502D01*
X141138051Y-110251833D01*
X141352599Y-110366511D01*
X141585398Y-110437130D01*
X141766835Y-110455000D01*
X142688165Y-110455000D01*
X142869602Y-110437130D01*
X143102401Y-110366511D01*
X143316949Y-110251833D01*
X143505002Y-110097502D01*
X143659333Y-109909449D01*
X143774011Y-109694901D01*
X143844630Y-109462102D01*
X143868475Y-109220000D01*
X143844630Y-108977898D01*
X143774011Y-108745099D01*
X143659333Y-108530551D01*
X143505002Y-108342498D01*
X143316949Y-108188167D01*
X143102401Y-108073489D01*
X142869602Y-108002870D01*
X142688165Y-107985000D01*
X141766835Y-107985000D01*
X141585398Y-108002870D01*
X141352599Y-108073489D01*
X141138051Y-108188167D01*
X140949998Y-108342498D01*
X140795667Y-108530551D01*
X140680989Y-108745099D01*
X140610370Y-108977898D01*
X140586525Y-109220000D01*
X139014485Y-109220000D01*
X138837490Y-109146686D01*
X138567592Y-109093000D01*
X138292408Y-109093000D01*
X138022510Y-109146686D01*
X137768273Y-109251995D01*
X137539465Y-109404880D01*
X137344880Y-109599465D01*
X137191995Y-109828273D01*
X137160000Y-109905515D01*
X137128005Y-109828273D01*
X136975120Y-109599465D01*
X136780535Y-109404880D01*
X136551727Y-109251995D01*
X136297490Y-109146686D01*
X136027592Y-109093000D01*
X135752408Y-109093000D01*
X135482510Y-109146686D01*
X135228273Y-109251995D01*
X134999465Y-109404880D01*
X134804880Y-109599465D01*
X134651995Y-109828273D01*
X134620000Y-109905515D01*
X134588005Y-109828273D01*
X134435120Y-109599465D01*
X134240535Y-109404880D01*
X134011727Y-109251995D01*
X133757490Y-109146686D01*
X133487592Y-109093000D01*
X133212408Y-109093000D01*
X132942510Y-109146686D01*
X132688273Y-109251995D01*
X132459465Y-109404880D01*
X132264880Y-109599465D01*
X132111995Y-109828273D01*
X132080000Y-109905515D01*
X132048005Y-109828273D01*
X131895120Y-109599465D01*
X131700535Y-109404880D01*
X131471727Y-109251995D01*
X131217490Y-109146686D01*
X130947592Y-109093000D01*
X130672408Y-109093000D01*
X130402510Y-109146686D01*
X130148273Y-109251995D01*
X129919465Y-109404880D01*
X129724880Y-109599465D01*
X129571995Y-109828273D01*
X129466686Y-110082510D01*
X129413000Y-110352408D01*
X127913785Y-110352408D01*
X128101949Y-110251833D01*
X128290002Y-110097502D01*
X128444333Y-109909449D01*
X128559011Y-109694901D01*
X128629630Y-109462102D01*
X128653475Y-109220000D01*
X128629630Y-108977898D01*
X128559011Y-108745099D01*
X128444333Y-108530551D01*
X128290002Y-108342498D01*
X128101949Y-108188167D01*
X127887401Y-108073489D01*
X127654602Y-108002870D01*
X127473165Y-107985000D01*
X126551835Y-107985000D01*
X126370398Y-108002870D01*
X126289714Y-108027345D01*
X126032937Y-107770568D01*
X126137599Y-107826511D01*
X126370398Y-107897130D01*
X126551835Y-107915000D01*
X127473165Y-107915000D01*
X127654602Y-107897130D01*
X127887401Y-107826511D01*
X128101949Y-107711833D01*
X128290002Y-107557502D01*
X128444333Y-107369449D01*
X128559011Y-107154901D01*
X128629630Y-106922102D01*
X128653475Y-106680000D01*
X140586525Y-106680000D01*
X140610370Y-106922102D01*
X140680989Y-107154901D01*
X140795667Y-107369449D01*
X140949998Y-107557502D01*
X141138051Y-107711833D01*
X141352599Y-107826511D01*
X141585398Y-107897130D01*
X141766835Y-107915000D01*
X142688165Y-107915000D01*
X142869602Y-107897130D01*
X143102401Y-107826511D01*
X143316949Y-107711833D01*
X143505002Y-107557502D01*
X143659333Y-107369449D01*
X143774011Y-107154901D01*
X143844630Y-106922102D01*
X143868475Y-106680000D01*
X143844630Y-106437898D01*
X143774011Y-106205099D01*
X143659333Y-105990551D01*
X143505002Y-105802498D01*
X143316949Y-105648167D01*
X143102401Y-105533489D01*
X142869602Y-105462870D01*
X142688165Y-105445000D01*
X141766835Y-105445000D01*
X141585398Y-105462870D01*
X141352599Y-105533489D01*
X141138051Y-105648167D01*
X140949998Y-105802498D01*
X140795667Y-105990551D01*
X140680989Y-106205099D01*
X140610370Y-106437898D01*
X140586525Y-106680000D01*
X128653475Y-106680000D01*
X128629630Y-106437898D01*
X128559011Y-106205099D01*
X128444333Y-105990551D01*
X128290002Y-105802498D01*
X128101949Y-105648167D01*
X127887401Y-105533489D01*
X127654602Y-105462870D01*
X127473165Y-105445000D01*
X126551835Y-105445000D01*
X126370398Y-105462870D01*
X126289713Y-105487345D01*
X126032935Y-105230567D01*
X126137599Y-105286511D01*
X126370398Y-105357130D01*
X126551835Y-105375000D01*
X127473165Y-105375000D01*
X127654602Y-105357130D01*
X127887401Y-105286511D01*
X128101949Y-105171833D01*
X128290002Y-105017502D01*
X128444333Y-104829449D01*
X128559011Y-104614901D01*
X128629630Y-104382102D01*
X128653475Y-104140000D01*
X140586525Y-104140000D01*
X140610370Y-104382102D01*
X140680989Y-104614901D01*
X140795667Y-104829449D01*
X140949998Y-105017502D01*
X141138051Y-105171833D01*
X141352599Y-105286511D01*
X141585398Y-105357130D01*
X141766835Y-105375000D01*
X142688165Y-105375000D01*
X142869602Y-105357130D01*
X143102401Y-105286511D01*
X143316949Y-105171833D01*
X143505002Y-105017502D01*
X143659333Y-104829449D01*
X143774011Y-104614901D01*
X143844630Y-104382102D01*
X143868475Y-104140000D01*
X143844630Y-103897898D01*
X143774011Y-103665099D01*
X143659333Y-103450551D01*
X143505002Y-103262498D01*
X143316949Y-103108167D01*
X143102401Y-102993489D01*
X142869602Y-102922870D01*
X142688165Y-102905000D01*
X141766835Y-102905000D01*
X141585398Y-102922870D01*
X141352599Y-102993489D01*
X141138051Y-103108167D01*
X140949998Y-103262498D01*
X140795667Y-103450551D01*
X140680989Y-103665099D01*
X140610370Y-103897898D01*
X140586525Y-104140000D01*
X128653475Y-104140000D01*
X128629630Y-103897898D01*
X128559011Y-103665099D01*
X128444333Y-103450551D01*
X128290002Y-103262498D01*
X128101949Y-103108167D01*
X127887401Y-102993489D01*
X127654602Y-102922870D01*
X127473165Y-102905000D01*
X126551835Y-102905000D01*
X126370398Y-102922870D01*
X126289713Y-102947345D01*
X126032935Y-102690567D01*
X126137599Y-102746511D01*
X126370398Y-102817130D01*
X126551835Y-102835000D01*
X127473165Y-102835000D01*
X127654602Y-102817130D01*
X127887401Y-102746511D01*
X128101949Y-102631833D01*
X128290002Y-102477502D01*
X128444333Y-102289449D01*
X128559011Y-102074901D01*
X128629630Y-101842102D01*
X128653475Y-101600000D01*
X128629630Y-101357898D01*
X128559011Y-101125099D01*
X128444333Y-100910551D01*
X128290002Y-100722498D01*
X128101949Y-100568167D01*
X127887401Y-100453489D01*
X127654602Y-100382870D01*
X127473165Y-100365000D01*
X126551835Y-100365000D01*
X126370398Y-100382870D01*
X126289713Y-100407345D01*
X126032935Y-100150567D01*
X126137599Y-100206511D01*
X126370398Y-100277130D01*
X126551835Y-100295000D01*
X127473165Y-100295000D01*
X127654602Y-100277130D01*
X127887401Y-100206511D01*
X128101949Y-100091833D01*
X128290002Y-99937502D01*
X128444333Y-99749449D01*
X128559011Y-99534901D01*
X128629630Y-99302102D01*
X128653475Y-99060000D01*
X128629630Y-98817898D01*
X128559011Y-98585099D01*
X128444333Y-98370551D01*
X128290002Y-98182498D01*
X128101949Y-98028167D01*
X127887401Y-97913489D01*
X127654602Y-97842870D01*
X127473165Y-97825000D01*
X126551835Y-97825000D01*
X126370398Y-97842870D01*
X126289713Y-97867345D01*
X126032935Y-97610567D01*
X126137599Y-97666511D01*
X126370398Y-97737130D01*
X126551835Y-97755000D01*
X127473165Y-97755000D01*
X127654602Y-97737130D01*
X127887401Y-97666511D01*
X128101949Y-97551833D01*
X128290002Y-97397502D01*
X128444333Y-97209449D01*
X128559011Y-96994901D01*
X128629630Y-96762102D01*
X128653475Y-96520000D01*
X140586525Y-96520000D01*
X140610370Y-96762102D01*
X140680989Y-96994901D01*
X140795667Y-97209449D01*
X140949998Y-97397502D01*
X141138051Y-97551833D01*
X141352599Y-97666511D01*
X141585398Y-97737130D01*
X141766835Y-97755000D01*
X142688165Y-97755000D01*
X142869602Y-97737130D01*
X143102401Y-97666511D01*
X143316949Y-97551833D01*
X143505002Y-97397502D01*
X143659333Y-97209449D01*
X143774011Y-96994901D01*
X143844630Y-96762102D01*
X143868475Y-96520000D01*
X143844630Y-96277898D01*
X143774011Y-96045099D01*
X143659333Y-95830551D01*
X143505002Y-95642498D01*
X143316949Y-95488167D01*
X143102401Y-95373489D01*
X142869602Y-95302870D01*
X142688165Y-95285000D01*
X141766835Y-95285000D01*
X141585398Y-95302870D01*
X141352599Y-95373489D01*
X141138051Y-95488167D01*
X140949998Y-95642498D01*
X140795667Y-95830551D01*
X140680989Y-96045099D01*
X140610370Y-96277898D01*
X140586525Y-96520000D01*
X128653475Y-96520000D01*
X128629630Y-96277898D01*
X128559011Y-96045099D01*
X128444333Y-95830551D01*
X128290002Y-95642498D01*
X128101949Y-95488167D01*
X127887401Y-95373489D01*
X127654602Y-95302870D01*
X127473165Y-95285000D01*
X126551835Y-95285000D01*
X126370398Y-95302870D01*
X126289713Y-95327345D01*
X126032935Y-95070567D01*
X126137599Y-95126511D01*
X126370398Y-95197130D01*
X126551835Y-95215000D01*
X127473165Y-95215000D01*
X127654602Y-95197130D01*
X127887401Y-95126511D01*
X128101949Y-95011833D01*
X128290002Y-94857502D01*
X128444333Y-94669449D01*
X128559011Y-94454901D01*
X128629630Y-94222102D01*
X128653475Y-93980000D01*
X140586525Y-93980000D01*
X140610370Y-94222102D01*
X140680989Y-94454901D01*
X140795667Y-94669449D01*
X140949998Y-94857502D01*
X141138051Y-95011833D01*
X141352599Y-95126511D01*
X141585398Y-95197130D01*
X141766835Y-95215000D01*
X142688165Y-95215000D01*
X142869602Y-95197130D01*
X143102401Y-95126511D01*
X143316949Y-95011833D01*
X143505002Y-94857502D01*
X143659333Y-94669449D01*
X143774011Y-94454901D01*
X143844630Y-94222102D01*
X143868475Y-93980000D01*
X143844630Y-93737898D01*
X143774011Y-93505099D01*
X143659333Y-93290551D01*
X143505002Y-93102498D01*
X143316949Y-92948167D01*
X143102401Y-92833489D01*
X142869602Y-92762870D01*
X142688165Y-92745000D01*
X141766835Y-92745000D01*
X141585398Y-92762870D01*
X141352599Y-92833489D01*
X141138051Y-92948167D01*
X140949998Y-93102498D01*
X140795667Y-93290551D01*
X140680989Y-93505099D01*
X140610370Y-93737898D01*
X140586525Y-93980000D01*
X128653475Y-93980000D01*
X128629630Y-93737898D01*
X128559011Y-93505099D01*
X128444333Y-93290551D01*
X128290002Y-93102498D01*
X128101949Y-92948167D01*
X127887401Y-92833489D01*
X127654602Y-92762870D01*
X127473165Y-92745000D01*
X126551835Y-92745000D01*
X126370398Y-92762870D01*
X126289713Y-92787345D01*
X126032935Y-92530567D01*
X126137599Y-92586511D01*
X126370398Y-92657130D01*
X126551835Y-92675000D01*
X127473165Y-92675000D01*
X127654602Y-92657130D01*
X127887401Y-92586511D01*
X128101949Y-92471833D01*
X128290002Y-92317502D01*
X128444333Y-92129449D01*
X128559011Y-91914901D01*
X128629630Y-91682102D01*
X128653475Y-91440000D01*
X128629630Y-91197898D01*
X128559011Y-90965099D01*
X128444333Y-90750551D01*
X128290002Y-90562498D01*
X128101949Y-90408167D01*
X127887401Y-90293489D01*
X127654602Y-90222870D01*
X127473165Y-90205000D01*
X126551835Y-90205000D01*
X126370398Y-90222870D01*
X126289713Y-90247345D01*
X126032935Y-89990567D01*
X126137599Y-90046511D01*
X126370398Y-90117130D01*
X126551835Y-90135000D01*
X127473165Y-90135000D01*
X127654602Y-90117130D01*
X127887401Y-90046511D01*
X128101949Y-89931833D01*
X128290002Y-89777502D01*
X128444333Y-89589449D01*
X128559011Y-89374901D01*
X128629630Y-89142102D01*
X128653475Y-88900000D01*
X128629630Y-88657898D01*
X128559011Y-88425099D01*
X128444333Y-88210551D01*
X128290002Y-88022498D01*
X128101949Y-87868167D01*
X127887401Y-87753489D01*
X127654602Y-87682870D01*
X127473165Y-87665000D01*
X126551835Y-87665000D01*
X126370398Y-87682870D01*
X126289713Y-87707345D01*
X126032935Y-87450567D01*
X126137599Y-87506511D01*
X126370398Y-87577130D01*
X126551835Y-87595000D01*
X127473165Y-87595000D01*
X127654602Y-87577130D01*
X127887401Y-87506511D01*
X128101949Y-87391833D01*
X128290002Y-87237502D01*
X128444333Y-87049449D01*
X128559011Y-86834901D01*
X128629630Y-86602102D01*
X128653475Y-86360000D01*
X128629630Y-86117898D01*
X128559011Y-85885099D01*
X128444333Y-85670551D01*
X128290002Y-85482498D01*
X128101949Y-85328167D01*
X127887401Y-85213489D01*
X127654602Y-85142870D01*
X127473165Y-85125000D01*
X126551835Y-85125000D01*
X126370398Y-85142870D01*
X126137599Y-85213489D01*
X125923051Y-85328167D01*
X125734998Y-85482498D01*
X125580667Y-85670551D01*
X125465989Y-85885099D01*
X125395370Y-86117898D01*
X125371525Y-86360000D01*
X125395370Y-86602102D01*
X125465989Y-86834901D01*
X125521933Y-86939565D01*
X122402368Y-83820000D01*
X125371525Y-83820000D01*
X125395370Y-84062102D01*
X125465989Y-84294901D01*
X125580667Y-84509449D01*
X125734998Y-84697502D01*
X125923051Y-84851833D01*
X126137599Y-84966511D01*
X126370398Y-85037130D01*
X126551835Y-85055000D01*
X127473165Y-85055000D01*
X127654602Y-85037130D01*
X127887401Y-84966511D01*
X128101949Y-84851833D01*
X128290002Y-84697502D01*
X128444333Y-84509449D01*
X128559011Y-84294901D01*
X128629630Y-84062102D01*
X128653475Y-83820000D01*
X128629630Y-83577898D01*
X128559011Y-83345099D01*
X128444333Y-83130551D01*
X128290002Y-82942498D01*
X128101949Y-82788167D01*
X127887401Y-82673489D01*
X127654602Y-82602870D01*
X127473165Y-82585000D01*
X126551835Y-82585000D01*
X126370398Y-82602870D01*
X126137599Y-82673489D01*
X125923051Y-82788167D01*
X125734998Y-82942498D01*
X125580667Y-83130551D01*
X125465989Y-83345099D01*
X125395370Y-83577898D01*
X125371525Y-83820000D01*
X122402368Y-83820000D01*
X120140307Y-81557940D01*
X120166500Y-81426260D01*
X120166500Y-81407000D01*
X121641500Y-81407000D01*
X121641500Y-81426260D01*
X121698568Y-81713158D01*
X121810510Y-81983411D01*
X121973025Y-82226632D01*
X122179868Y-82433475D01*
X122423089Y-82595990D01*
X122693342Y-82707932D01*
X122980240Y-82765000D01*
X123272760Y-82765000D01*
X123559658Y-82707932D01*
X123829911Y-82595990D01*
X124073132Y-82433475D01*
X124279975Y-82226632D01*
X124354565Y-82115000D01*
X125700118Y-82115000D01*
X125734998Y-82157502D01*
X125923051Y-82311833D01*
X126137599Y-82426511D01*
X126370398Y-82497130D01*
X126551835Y-82515000D01*
X127473165Y-82515000D01*
X127654602Y-82497130D01*
X127887401Y-82426511D01*
X128101949Y-82311833D01*
X128290002Y-82157502D01*
X128444333Y-81969449D01*
X128559011Y-81754901D01*
X128629630Y-81522102D01*
X128640967Y-81407000D01*
X130429000Y-81407000D01*
X130453776Y-81404560D01*
X130477601Y-81397333D01*
X130499557Y-81385597D01*
X130518923Y-81369682D01*
X133141559Y-78740000D01*
X140586525Y-78740000D01*
X140610370Y-78982102D01*
X140680989Y-79214901D01*
X140795667Y-79429449D01*
X140949998Y-79617502D01*
X141138051Y-79771833D01*
X141352599Y-79886511D01*
X141585398Y-79957130D01*
X141766835Y-79975000D01*
X142688165Y-79975000D01*
X142869602Y-79957130D01*
X143102401Y-79886511D01*
X143316949Y-79771833D01*
X143401542Y-79702409D01*
X160576193Y-96877062D01*
X160550000Y-97008740D01*
X160550000Y-97029131D01*
X144239446Y-80718579D01*
X144213291Y-80686709D01*
X144086146Y-80582364D01*
X143941087Y-80504828D01*
X143783689Y-80457082D01*
X143661019Y-80445000D01*
X143661018Y-80445000D01*
X143620000Y-80440960D01*
X143578982Y-80445000D01*
X143539882Y-80445000D01*
X143505002Y-80402498D01*
X143316949Y-80248167D01*
X143102401Y-80133489D01*
X142869602Y-80062870D01*
X142688165Y-80045000D01*
X141766835Y-80045000D01*
X141585398Y-80062870D01*
X141352599Y-80133489D01*
X141138051Y-80248167D01*
X140949998Y-80402498D01*
X140795667Y-80590551D01*
X140680989Y-80805099D01*
X140610370Y-81037898D01*
X140586525Y-81280000D01*
X140610370Y-81522102D01*
X140680989Y-81754901D01*
X140795667Y-81969449D01*
X140949998Y-82157502D01*
X141138051Y-82311833D01*
X141352599Y-82426511D01*
X141585398Y-82497130D01*
X141766835Y-82515000D01*
X142688165Y-82515000D01*
X142869602Y-82497130D01*
X143102401Y-82426511D01*
X143316949Y-82311833D01*
X143401542Y-82242409D01*
X160576193Y-99417062D01*
X160550000Y-99548740D01*
X160550000Y-99569131D01*
X144239446Y-83258579D01*
X144213291Y-83226709D01*
X144086146Y-83122364D01*
X143941087Y-83044828D01*
X143783689Y-82997082D01*
X143661019Y-82985000D01*
X143661018Y-82985000D01*
X143620000Y-82980960D01*
X143578982Y-82985000D01*
X143539882Y-82985000D01*
X143505002Y-82942498D01*
X143316949Y-82788167D01*
X143102401Y-82673489D01*
X142869602Y-82602870D01*
X142688165Y-82585000D01*
X141766835Y-82585000D01*
X141585398Y-82602870D01*
X141352599Y-82673489D01*
X141138051Y-82788167D01*
X140949998Y-82942498D01*
X140795667Y-83130551D01*
X140680989Y-83345099D01*
X140610370Y-83577898D01*
X140586525Y-83820000D01*
X140610370Y-84062102D01*
X140680989Y-84294901D01*
X140795667Y-84509449D01*
X140949998Y-84697502D01*
X141138051Y-84851833D01*
X141352599Y-84966511D01*
X141585398Y-85037130D01*
X141766835Y-85055000D01*
X142688165Y-85055000D01*
X142869602Y-85037130D01*
X143102401Y-84966511D01*
X143316949Y-84851833D01*
X143401542Y-84782409D01*
X160576193Y-101957062D01*
X160550000Y-102088740D01*
X160550000Y-102109131D01*
X144239446Y-85798579D01*
X144213291Y-85766709D01*
X144086146Y-85662364D01*
X143941087Y-85584828D01*
X143783689Y-85537082D01*
X143661019Y-85525000D01*
X143661018Y-85525000D01*
X143620000Y-85520960D01*
X143578982Y-85525000D01*
X143539882Y-85525000D01*
X143505002Y-85482498D01*
X143316949Y-85328167D01*
X143102401Y-85213489D01*
X142869602Y-85142870D01*
X142688165Y-85125000D01*
X141766835Y-85125000D01*
X141585398Y-85142870D01*
X141352599Y-85213489D01*
X141138051Y-85328167D01*
X140949998Y-85482498D01*
X140795667Y-85670551D01*
X140680989Y-85885099D01*
X140610370Y-86117898D01*
X140586525Y-86360000D01*
X140610370Y-86602102D01*
X140680989Y-86834901D01*
X140795667Y-87049449D01*
X140949998Y-87237502D01*
X141138051Y-87391833D01*
X141352599Y-87506511D01*
X141585398Y-87577130D01*
X141766835Y-87595000D01*
X142688165Y-87595000D01*
X142869602Y-87577130D01*
X143102401Y-87506511D01*
X143316949Y-87391833D01*
X143401542Y-87322409D01*
X160576193Y-104497062D01*
X160550000Y-104628740D01*
X160550000Y-104649131D01*
X144239446Y-88338579D01*
X144213291Y-88306709D01*
X144086146Y-88202364D01*
X143941087Y-88124828D01*
X143783689Y-88077082D01*
X143661019Y-88065000D01*
X143661018Y-88065000D01*
X143620000Y-88060960D01*
X143578982Y-88065000D01*
X143539882Y-88065000D01*
X143505002Y-88022498D01*
X143316949Y-87868167D01*
X143102401Y-87753489D01*
X142869602Y-87682870D01*
X142688165Y-87665000D01*
X141766835Y-87665000D01*
X141585398Y-87682870D01*
X141352599Y-87753489D01*
X141138051Y-87868167D01*
X140949998Y-88022498D01*
X140795667Y-88210551D01*
X140680989Y-88425099D01*
X140610370Y-88657898D01*
X140586525Y-88900000D01*
X140610370Y-89142102D01*
X140680989Y-89374901D01*
X140795667Y-89589449D01*
X140949998Y-89777502D01*
X141138051Y-89931833D01*
X141352599Y-90046511D01*
X141585398Y-90117130D01*
X141766835Y-90135000D01*
X142688165Y-90135000D01*
X142869602Y-90117130D01*
X143102401Y-90046511D01*
X143316949Y-89931833D01*
X143401542Y-89862409D01*
X160576193Y-107037062D01*
X160550000Y-107168740D01*
X160550000Y-107189131D01*
X144239446Y-90878579D01*
X144213291Y-90846709D01*
X144086146Y-90742364D01*
X143941087Y-90664828D01*
X143783689Y-90617082D01*
X143661019Y-90605000D01*
X143661018Y-90605000D01*
X143620000Y-90600960D01*
X143578982Y-90605000D01*
X143539882Y-90605000D01*
X143505002Y-90562498D01*
X143316949Y-90408167D01*
X143102401Y-90293489D01*
X142869602Y-90222870D01*
X142688165Y-90205000D01*
X141766835Y-90205000D01*
X141585398Y-90222870D01*
X141352599Y-90293489D01*
X141138051Y-90408167D01*
X140949998Y-90562498D01*
X140795667Y-90750551D01*
X140680989Y-90965099D01*
X140610370Y-91197898D01*
X140586525Y-91440000D01*
X140610370Y-91682102D01*
X140680989Y-91914901D01*
X140795667Y-92129449D01*
X140949998Y-92317502D01*
X141138051Y-92471833D01*
X141352599Y-92586511D01*
X141585398Y-92657130D01*
X141766835Y-92675000D01*
X142688165Y-92675000D01*
X142869602Y-92657130D01*
X143102401Y-92586511D01*
X143316949Y-92471833D01*
X143401542Y-92402409D01*
X160576193Y-109577062D01*
X160550000Y-109708740D01*
X160550000Y-109729131D01*
X149319446Y-98498579D01*
X149293291Y-98466709D01*
X149166146Y-98362364D01*
X149021087Y-98284828D01*
X148863689Y-98237082D01*
X148741019Y-98225000D01*
X148741018Y-98225000D01*
X148700000Y-98220960D01*
X148658982Y-98225000D01*
X143539882Y-98225000D01*
X143505002Y-98182498D01*
X143316949Y-98028167D01*
X143102401Y-97913489D01*
X142869602Y-97842870D01*
X142688165Y-97825000D01*
X141766835Y-97825000D01*
X141585398Y-97842870D01*
X141352599Y-97913489D01*
X141138051Y-98028167D01*
X140949998Y-98182498D01*
X140795667Y-98370551D01*
X140680989Y-98585099D01*
X140610370Y-98817898D01*
X140586525Y-99060000D01*
X140610370Y-99302102D01*
X140680989Y-99534901D01*
X140795667Y-99749449D01*
X140949998Y-99937502D01*
X141138051Y-100091833D01*
X141352599Y-100206511D01*
X141585398Y-100277130D01*
X141766835Y-100295000D01*
X142688165Y-100295000D01*
X142869602Y-100277130D01*
X143102401Y-100206511D01*
X143316949Y-100091833D01*
X143505002Y-99937502D01*
X143539882Y-99895000D01*
X148354133Y-99895000D01*
X160576193Y-112117062D01*
X160550000Y-112248740D01*
X160550000Y-112269131D01*
X149319446Y-101038579D01*
X149293291Y-101006709D01*
X149166146Y-100902364D01*
X149021087Y-100824828D01*
X148863689Y-100777082D01*
X148741019Y-100765000D01*
X148741018Y-100765000D01*
X148700000Y-100760960D01*
X148658982Y-100765000D01*
X143539882Y-100765000D01*
X143505002Y-100722498D01*
X143316949Y-100568167D01*
X143102401Y-100453489D01*
X142869602Y-100382870D01*
X142688165Y-100365000D01*
X141766835Y-100365000D01*
X141585398Y-100382870D01*
X141352599Y-100453489D01*
X141138051Y-100568167D01*
X140949998Y-100722498D01*
X140795667Y-100910551D01*
X140680989Y-101125099D01*
X140610370Y-101357898D01*
X140586525Y-101600000D01*
X140610370Y-101842102D01*
X140680989Y-102074901D01*
X140795667Y-102289449D01*
X140949998Y-102477502D01*
X141138051Y-102631833D01*
X141352599Y-102746511D01*
X141585398Y-102817130D01*
X141766835Y-102835000D01*
X142688165Y-102835000D01*
X142869602Y-102817130D01*
X143102401Y-102746511D01*
X143316949Y-102631833D01*
X143505002Y-102477502D01*
X143539882Y-102435000D01*
X148354133Y-102435000D01*
X152284132Y-106365000D01*
X151641984Y-106365000D01*
X150939710Y-106504691D01*
X150278182Y-106778705D01*
X149682823Y-107176511D01*
X149176511Y-107682823D01*
X148778705Y-108278182D01*
X148504691Y-108939710D01*
X148365000Y-109641984D01*
X148365000Y-110358016D01*
X148504691Y-111060290D01*
X148778705Y-111721818D01*
X149176511Y-112317177D01*
X149682823Y-112823489D01*
X150278182Y-113221295D01*
X150939710Y-113495309D01*
X151641984Y-113635000D01*
X152358016Y-113635000D01*
X153060290Y-113495309D01*
X153721818Y-113221295D01*
X154317177Y-112823489D01*
X154823489Y-112317177D01*
X155221295Y-111721818D01*
X155495309Y-111060290D01*
X155635000Y-110358016D01*
X155635000Y-109715868D01*
X160576193Y-114657062D01*
X160550000Y-114788740D01*
X160550000Y-115081260D01*
X160607068Y-115368158D01*
X160719010Y-115638411D01*
X160881525Y-115881632D01*
X161088368Y-116088475D01*
X161331589Y-116250990D01*
X161601842Y-116362932D01*
X161888740Y-116420000D01*
X162181260Y-116420000D01*
X162468158Y-116362932D01*
X162738411Y-116250990D01*
X162981632Y-116088475D01*
X163188475Y-115881632D01*
X163310195Y-115699466D01*
X163379822Y-115816355D01*
X163574731Y-116032588D01*
X163808080Y-116206641D01*
X164070901Y-116331825D01*
X164218110Y-116376476D01*
X164448000Y-116255155D01*
X164448000Y-115062000D01*
X164428000Y-115062000D01*
X164428000Y-114808000D01*
X164448000Y-114808000D01*
X164448000Y-112522000D01*
X164428000Y-112522000D01*
X164428000Y-112268000D01*
X164448000Y-112268000D01*
X164448000Y-109982000D01*
X164428000Y-109982000D01*
X164428000Y-109728000D01*
X164448000Y-109728000D01*
X164448000Y-107442000D01*
X164428000Y-107442000D01*
X164428000Y-107188000D01*
X164448000Y-107188000D01*
X164448000Y-104902000D01*
X164428000Y-104902000D01*
X164428000Y-104648000D01*
X164448000Y-104648000D01*
X164448000Y-102362000D01*
X164428000Y-102362000D01*
X164428000Y-102108000D01*
X164448000Y-102108000D01*
X164448000Y-99822000D01*
X164428000Y-99822000D01*
X164428000Y-99568000D01*
X164448000Y-99568000D01*
X164448000Y-97282000D01*
X164428000Y-97282000D01*
X164428000Y-97028000D01*
X164448000Y-97028000D01*
X164448000Y-95834845D01*
X164218110Y-95713524D01*
X164070901Y-95758175D01*
X163808080Y-95883359D01*
X163574731Y-96057412D01*
X163379822Y-96273645D01*
X163310195Y-96390534D01*
X163188475Y-96208368D01*
X162981632Y-96001525D01*
X162738411Y-95839010D01*
X162468158Y-95727068D01*
X162181260Y-95670000D01*
X161888740Y-95670000D01*
X161757062Y-95696193D01*
X155672434Y-89611565D01*
X156697040Y-89611565D01*
X156764020Y-89851656D01*
X157013048Y-89968756D01*
X157280135Y-90035023D01*
X157555017Y-90047910D01*
X157827133Y-90006922D01*
X158086023Y-89913636D01*
X158201980Y-89851656D01*
X158268960Y-89611565D01*
X157483000Y-88825605D01*
X156697040Y-89611565D01*
X155672434Y-89611565D01*
X152471304Y-86410435D01*
X156697040Y-86410435D01*
X157483000Y-87196395D01*
X158268960Y-86410435D01*
X158201980Y-86170344D01*
X157952952Y-86053244D01*
X157685865Y-85986977D01*
X157410983Y-85974090D01*
X157138867Y-86015078D01*
X156879977Y-86108364D01*
X156764020Y-86170344D01*
X156697040Y-86410435D01*
X152471304Y-86410435D01*
X144239446Y-78178579D01*
X144213291Y-78146709D01*
X144086146Y-78042364D01*
X143941087Y-77964828D01*
X143783689Y-77917082D01*
X143661019Y-77905000D01*
X143661018Y-77905000D01*
X143620000Y-77900960D01*
X143578982Y-77905000D01*
X143539882Y-77905000D01*
X143505002Y-77862498D01*
X143316949Y-77708167D01*
X143102401Y-77593489D01*
X142869602Y-77522870D01*
X142688165Y-77505000D01*
X141766835Y-77505000D01*
X141585398Y-77522870D01*
X141352599Y-77593489D01*
X141138051Y-77708167D01*
X140949998Y-77862498D01*
X140795667Y-78050551D01*
X140680989Y-78265099D01*
X140610370Y-78497898D01*
X140586525Y-78740000D01*
X133141559Y-78740000D01*
X135674754Y-76200000D01*
X140586525Y-76200000D01*
X140610370Y-76442102D01*
X140680989Y-76674901D01*
X140795667Y-76889449D01*
X140949998Y-77077502D01*
X141138051Y-77231833D01*
X141352599Y-77346511D01*
X141585398Y-77417130D01*
X141766835Y-77435000D01*
X142688165Y-77435000D01*
X142869602Y-77417130D01*
X143102401Y-77346511D01*
X143316949Y-77231833D01*
X143505002Y-77077502D01*
X143659333Y-76889449D01*
X143774011Y-76674901D01*
X143844630Y-76442102D01*
X143868475Y-76200000D01*
X143844630Y-75957898D01*
X143774011Y-75725099D01*
X143659333Y-75510551D01*
X143505002Y-75322498D01*
X143316949Y-75168167D01*
X143102401Y-75053489D01*
X142869602Y-74982870D01*
X142688165Y-74965000D01*
X141766835Y-74965000D01*
X141585398Y-74982870D01*
X141352599Y-75053489D01*
X141138051Y-75168167D01*
X140949998Y-75322498D01*
X140795667Y-75510551D01*
X140680989Y-75725099D01*
X140610370Y-75957898D01*
X140586525Y-76200000D01*
X135674754Y-76200000D01*
X138207950Y-73660000D01*
X140586525Y-73660000D01*
X140610370Y-73902102D01*
X140680989Y-74134901D01*
X140795667Y-74349449D01*
X140949998Y-74537502D01*
X141138051Y-74691833D01*
X141352599Y-74806511D01*
X141585398Y-74877130D01*
X141766835Y-74895000D01*
X142688165Y-74895000D01*
X142869602Y-74877130D01*
X143102401Y-74806511D01*
X143316949Y-74691833D01*
X143405661Y-74619029D01*
X148723063Y-79936432D01*
X148749209Y-79968291D01*
X148876354Y-80072636D01*
X149021413Y-80150172D01*
X149178811Y-80197918D01*
X149301481Y-80210000D01*
X149301482Y-80210000D01*
X149342500Y-80214040D01*
X149383518Y-80210000D01*
X159296133Y-80210000D01*
X165065132Y-85979000D01*
X164965408Y-85979000D01*
X164695510Y-86032686D01*
X164441273Y-86137995D01*
X164212465Y-86290880D01*
X164017880Y-86485465D01*
X163864995Y-86714273D01*
X163833000Y-86791515D01*
X163801005Y-86714273D01*
X163648120Y-86485465D01*
X163453535Y-86290880D01*
X163224727Y-86137995D01*
X162970490Y-86032686D01*
X162700592Y-85979000D01*
X162425408Y-85979000D01*
X162155510Y-86032686D01*
X161901273Y-86137995D01*
X161672465Y-86290880D01*
X161477880Y-86485465D01*
X161361892Y-86659054D01*
X161345500Y-86605018D01*
X161251327Y-86428834D01*
X161124593Y-86274407D01*
X160970166Y-86147673D01*
X160858000Y-86087719D01*
X160858000Y-85064018D01*
X160862040Y-85023000D01*
X160845918Y-84859312D01*
X160843650Y-84851833D01*
X160798172Y-84701913D01*
X160720636Y-84556854D01*
X160616291Y-84429709D01*
X160584432Y-84403563D01*
X157424093Y-81243225D01*
X157395226Y-81098102D01*
X157317205Y-80909744D01*
X157203937Y-80740226D01*
X157059774Y-80596063D01*
X156890256Y-80482795D01*
X156701898Y-80404774D01*
X156501939Y-80365000D01*
X156298061Y-80365000D01*
X156098102Y-80404774D01*
X155909744Y-80482795D01*
X155740226Y-80596063D01*
X155596063Y-80740226D01*
X155482795Y-80909744D01*
X155404774Y-81098102D01*
X155365000Y-81298061D01*
X155365000Y-81501939D01*
X155404774Y-81701898D01*
X155482795Y-81890256D01*
X155596063Y-82059774D01*
X155740226Y-82203937D01*
X155909744Y-82317205D01*
X156098102Y-82395226D01*
X156243225Y-82424093D01*
X159188001Y-85368870D01*
X159188001Y-86087718D01*
X159075834Y-86147673D01*
X158921407Y-86274407D01*
X158794673Y-86428834D01*
X158700500Y-86605018D01*
X158685032Y-86656009D01*
X158448565Y-86590040D01*
X157762591Y-87276014D01*
X157685865Y-87256977D01*
X157410983Y-87244090D01*
X157202837Y-87275442D01*
X156517435Y-86590040D01*
X156277344Y-86657020D01*
X156160244Y-86906048D01*
X156093977Y-87173135D01*
X156081090Y-87448017D01*
X156122078Y-87720133D01*
X156215364Y-87979023D01*
X156235328Y-88016373D01*
X156160244Y-88176048D01*
X156093977Y-88443135D01*
X156081090Y-88718017D01*
X156122078Y-88990133D01*
X156215364Y-89249023D01*
X156277344Y-89364980D01*
X156517435Y-89431960D01*
X157203409Y-88745986D01*
X157280135Y-88765023D01*
X157555017Y-88777910D01*
X157763163Y-88746558D01*
X158448565Y-89431960D01*
X158685032Y-89365991D01*
X158700500Y-89416982D01*
X158794673Y-89593166D01*
X158921407Y-89747593D01*
X159075834Y-89874327D01*
X159252018Y-89968500D01*
X159443189Y-90026491D01*
X159642000Y-90046072D01*
X160404000Y-90046072D01*
X160602811Y-90026491D01*
X160793982Y-89968500D01*
X160970166Y-89874327D01*
X161124593Y-89747593D01*
X161251327Y-89593166D01*
X161345500Y-89416982D01*
X161361892Y-89362946D01*
X161477880Y-89536535D01*
X161672465Y-89731120D01*
X161901273Y-89884005D01*
X162155510Y-89989314D01*
X162425408Y-90043000D01*
X162700592Y-90043000D01*
X162970490Y-89989314D01*
X163224727Y-89884005D01*
X163453535Y-89731120D01*
X163648120Y-89536535D01*
X163801005Y-89307727D01*
X163833000Y-89230485D01*
X163864995Y-89307727D01*
X164017880Y-89536535D01*
X164212465Y-89731120D01*
X164441273Y-89884005D01*
X164695510Y-89989314D01*
X164965408Y-90043000D01*
X165240592Y-90043000D01*
X165510490Y-89989314D01*
X165764727Y-89884005D01*
X165993535Y-89731120D01*
X166188120Y-89536535D01*
X166341005Y-89307727D01*
X166373000Y-89230485D01*
X166404995Y-89307727D01*
X166557880Y-89536535D01*
X166752465Y-89731120D01*
X166981273Y-89884005D01*
X167235510Y-89989314D01*
X167505408Y-90043000D01*
X167780592Y-90043000D01*
X168050490Y-89989314D01*
X168304727Y-89884005D01*
X168533535Y-89731120D01*
X168728120Y-89536535D01*
X168881005Y-89307727D01*
X168986314Y-89053490D01*
X169040000Y-88783592D01*
X169040000Y-88508408D01*
X168986314Y-88238510D01*
X168892076Y-88011000D01*
X168986314Y-87783490D01*
X169040000Y-87513592D01*
X169040000Y-87238408D01*
X168986314Y-86968510D01*
X168881005Y-86714273D01*
X168728120Y-86485465D01*
X168533535Y-86290880D01*
X168304727Y-86137995D01*
X168050490Y-86032686D01*
X167780592Y-85979000D01*
X167505408Y-85979000D01*
X167439899Y-85992030D01*
X160261446Y-78813579D01*
X160235291Y-78781709D01*
X160108146Y-78677364D01*
X159963087Y-78599828D01*
X159805689Y-78552082D01*
X159683019Y-78540000D01*
X159683018Y-78540000D01*
X159642000Y-78535960D01*
X159600982Y-78540000D01*
X149688369Y-78540000D01*
X144246946Y-73098579D01*
X144220791Y-73066709D01*
X144093646Y-72962364D01*
X143948587Y-72884828D01*
X143791189Y-72837082D01*
X143668519Y-72825000D01*
X143668518Y-72825000D01*
X143627500Y-72820960D01*
X143586482Y-72825000D01*
X143539882Y-72825000D01*
X143505002Y-72782498D01*
X143316949Y-72628167D01*
X143102401Y-72513489D01*
X142869602Y-72442870D01*
X142688165Y-72425000D01*
X141766835Y-72425000D01*
X141585398Y-72442870D01*
X141352599Y-72513489D01*
X141138051Y-72628167D01*
X140949998Y-72782498D01*
X140795667Y-72970551D01*
X140680989Y-73185099D01*
X140610370Y-73417898D01*
X140586525Y-73660000D01*
X138207950Y-73660000D01*
X140614484Y-71247002D01*
X140758768Y-71247002D01*
X140634038Y-71437609D01*
X140637909Y-71475282D01*
X140730079Y-71700533D01*
X140864422Y-71903474D01*
X141035775Y-72076307D01*
X141237554Y-72212390D01*
X141462004Y-72306493D01*
X141700500Y-72355000D01*
X142100500Y-72355000D01*
X142100500Y-71247000D01*
X142354500Y-71247000D01*
X142354500Y-72355000D01*
X142754500Y-72355000D01*
X142992996Y-72306493D01*
X143217446Y-72212390D01*
X143419225Y-72076307D01*
X143590578Y-71903474D01*
X143724921Y-71700533D01*
X143817091Y-71475282D01*
X143820962Y-71437609D01*
X143696231Y-71247000D01*
X142354500Y-71247000D01*
X142100500Y-71247000D01*
X142080500Y-71247000D01*
X142080500Y-70993000D01*
X142100500Y-70993000D01*
X142100500Y-69885000D01*
X142354500Y-69885000D01*
X142354500Y-70993000D01*
X143696231Y-70993000D01*
X143820962Y-70802391D01*
X143817091Y-70764718D01*
X143724921Y-70539467D01*
X143590578Y-70336526D01*
X143419225Y-70163693D01*
X143217446Y-70027610D01*
X142992996Y-69933507D01*
X142754500Y-69885000D01*
X142354500Y-69885000D01*
X142100500Y-69885000D01*
X141972838Y-69885000D01*
X142042650Y-69815000D01*
X142688165Y-69815000D01*
X142869602Y-69797130D01*
X143102401Y-69726511D01*
X143260540Y-69641984D01*
X148365000Y-69641984D01*
X148365000Y-70358016D01*
X148504691Y-71060290D01*
X148778705Y-71721818D01*
X149176511Y-72317177D01*
X149682823Y-72823489D01*
X150278182Y-73221295D01*
X150939710Y-73495309D01*
X151641984Y-73635000D01*
X152358016Y-73635000D01*
X153060290Y-73495309D01*
X153721818Y-73221295D01*
X154317177Y-72823489D01*
X154823489Y-72317177D01*
X155221295Y-71721818D01*
X155495309Y-71060290D01*
X155635000Y-70358016D01*
X155635000Y-69641984D01*
X155569333Y-69311852D01*
X159678000Y-69311852D01*
X159678000Y-69880148D01*
X159788869Y-70437523D01*
X160006346Y-70962560D01*
X160322074Y-71435080D01*
X160723920Y-71836926D01*
X161196440Y-72152654D01*
X161721477Y-72370131D01*
X162278852Y-72481000D01*
X162847148Y-72481000D01*
X163404523Y-72370131D01*
X163929560Y-72152654D01*
X164402080Y-71836926D01*
X164803926Y-71435080D01*
X165119654Y-70962560D01*
X165337131Y-70437523D01*
X165448000Y-69880148D01*
X165448000Y-69311852D01*
X165337131Y-68754477D01*
X165119654Y-68229440D01*
X164803926Y-67756920D01*
X164402080Y-67355074D01*
X163929560Y-67039346D01*
X163404523Y-66821869D01*
X162847148Y-66711000D01*
X162278852Y-66711000D01*
X161721477Y-66821869D01*
X161196440Y-67039346D01*
X160723920Y-67355074D01*
X160322074Y-67756920D01*
X160006346Y-68229440D01*
X159788869Y-68754477D01*
X159678000Y-69311852D01*
X155569333Y-69311852D01*
X155495309Y-68939710D01*
X155221295Y-68278182D01*
X154823489Y-67682823D01*
X154317177Y-67176511D01*
X153721818Y-66778705D01*
X153060290Y-66504691D01*
X152358016Y-66365000D01*
X151641984Y-66365000D01*
X150939710Y-66504691D01*
X150278182Y-66778705D01*
X149682823Y-67176511D01*
X149176511Y-67682823D01*
X148778705Y-68278182D01*
X148504691Y-68939710D01*
X148365000Y-69641984D01*
X143260540Y-69641984D01*
X143316949Y-69611833D01*
X143505002Y-69457502D01*
X143659333Y-69269449D01*
X143774011Y-69054901D01*
X143844630Y-68822102D01*
X143868475Y-68580000D01*
X143844630Y-68337898D01*
X143774011Y-68105099D01*
X143659333Y-67890551D01*
X143505002Y-67702498D01*
X143316949Y-67548167D01*
X143102401Y-67433489D01*
X142869602Y-67362870D01*
X142688165Y-67345000D01*
X142599879Y-67345000D01*
X142600298Y-67275000D01*
X142688165Y-67275000D01*
X142869602Y-67257130D01*
X143102401Y-67186511D01*
X143316949Y-67071833D01*
X143505002Y-66917502D01*
X143659333Y-66729449D01*
X143774011Y-66514901D01*
X143844630Y-66282102D01*
X143868475Y-66040000D01*
X143844630Y-65797898D01*
X143774011Y-65565099D01*
X143659333Y-65350551D01*
X143505002Y-65162498D01*
X143316949Y-65008167D01*
X143102401Y-64893489D01*
X142869602Y-64822870D01*
X142688165Y-64805000D01*
X142615089Y-64805000D01*
X142624641Y-63210072D01*
X143427000Y-63210072D01*
X143634395Y-63189645D01*
X143833820Y-63129150D01*
X144017611Y-63030912D01*
X144178705Y-62898705D01*
X144310912Y-62737611D01*
X144409150Y-62553820D01*
X144469645Y-62354395D01*
X144490072Y-62147000D01*
X144490072Y-61297000D01*
X144469645Y-61089605D01*
X144409150Y-60890180D01*
X144310912Y-60706389D01*
X144301565Y-60695000D01*
X148560435Y-60695000D01*
X148551088Y-60706389D01*
G36*
X141605000Y-60871191D02*
G01*
X141594850Y-60890180D01*
X141534355Y-61089605D01*
X141513928Y-61297000D01*
X141513928Y-62147000D01*
X141534355Y-62354395D01*
X141594850Y-62553820D01*
X141605000Y-62572809D01*
X141605000Y-64824423D01*
X141462004Y-64853507D01*
X141237554Y-64947610D01*
X141035775Y-65083693D01*
X140864422Y-65256526D01*
X140730079Y-65459467D01*
X140637909Y-65684718D01*
X140634038Y-65722391D01*
X140758769Y-65913000D01*
X141605000Y-65913000D01*
X141605000Y-66167000D01*
X140758769Y-66167000D01*
X140634038Y-66357609D01*
X140637909Y-66395282D01*
X140730079Y-66620533D01*
X140864422Y-66823474D01*
X141035775Y-66996307D01*
X141237554Y-67132390D01*
X141462004Y-67226493D01*
X141605000Y-67255577D01*
X141605000Y-67360939D01*
X141585398Y-67362870D01*
X141352599Y-67433489D01*
X141138051Y-67548167D01*
X140949998Y-67702498D01*
X140795667Y-67890551D01*
X140680989Y-68105099D01*
X140610370Y-68337898D01*
X140586525Y-68580000D01*
X140610370Y-68822102D01*
X140680989Y-69054901D01*
X140795667Y-69269449D01*
X140949998Y-69457502D01*
X141138051Y-69611833D01*
X141149462Y-69617932D01*
X140270323Y-70497071D01*
X140234209Y-70526709D01*
X140208063Y-70558568D01*
X137487325Y-73279308D01*
X137487320Y-73279312D01*
X137487315Y-73279317D01*
X137455460Y-73305460D01*
X137429317Y-73337315D01*
X131645579Y-79121054D01*
X131613709Y-79147209D01*
X131584073Y-79183321D01*
X130249394Y-80518000D01*
X128384792Y-80518000D01*
X128290002Y-80402498D01*
X128101949Y-80248167D01*
X127887401Y-80133489D01*
X127654602Y-80062870D01*
X127473165Y-80045000D01*
X126551835Y-80045000D01*
X126370398Y-80062870D01*
X126137599Y-80133489D01*
X125923051Y-80248167D01*
X125734998Y-80402498D01*
X125700118Y-80445000D01*
X124354565Y-80445000D01*
X124279975Y-80333368D01*
X124073132Y-80126525D01*
X123898740Y-80010000D01*
X124073132Y-79893475D01*
X124279975Y-79686632D01*
X124354565Y-79575000D01*
X125700118Y-79575000D01*
X125734998Y-79617502D01*
X125923051Y-79771833D01*
X126137599Y-79886511D01*
X126370398Y-79957130D01*
X126551835Y-79975000D01*
X127473165Y-79975000D01*
X127654602Y-79957130D01*
X127887401Y-79886511D01*
X128101949Y-79771833D01*
X128290002Y-79617502D01*
X128444333Y-79429449D01*
X128559011Y-79214901D01*
X128629630Y-78982102D01*
X128653475Y-78740000D01*
X128629630Y-78497898D01*
X128559011Y-78265099D01*
X128444333Y-78050551D01*
X128290002Y-77862498D01*
X128101949Y-77708167D01*
X127887401Y-77593489D01*
X127654602Y-77522870D01*
X127473165Y-77505000D01*
X126551835Y-77505000D01*
X126370398Y-77522870D01*
X126137599Y-77593489D01*
X125923051Y-77708167D01*
X125734998Y-77862498D01*
X125700118Y-77905000D01*
X124354565Y-77905000D01*
X124279975Y-77793368D01*
X124073132Y-77586525D01*
X124039255Y-77563889D01*
X124142111Y-77508912D01*
X124303205Y-77376705D01*
X124435412Y-77215611D01*
X124533650Y-77031820D01*
X124594145Y-76832395D01*
X124614572Y-76625000D01*
X124614572Y-76200000D01*
X125371525Y-76200000D01*
X125395370Y-76442102D01*
X125465989Y-76674901D01*
X125580667Y-76889449D01*
X125734998Y-77077502D01*
X125923051Y-77231833D01*
X126137599Y-77346511D01*
X126370398Y-77417130D01*
X126551835Y-77435000D01*
X127473165Y-77435000D01*
X127654602Y-77417130D01*
X127887401Y-77346511D01*
X128101949Y-77231833D01*
X128290002Y-77077502D01*
X128444333Y-76889449D01*
X128559011Y-76674901D01*
X128629630Y-76442102D01*
X128653475Y-76200000D01*
X128629630Y-75957898D01*
X128559011Y-75725099D01*
X128444333Y-75510551D01*
X128290002Y-75322498D01*
X128101949Y-75168167D01*
X127887401Y-75053489D01*
X127654602Y-74982870D01*
X127473165Y-74965000D01*
X126551835Y-74965000D01*
X126370398Y-74982870D01*
X126137599Y-75053489D01*
X125923051Y-75168167D01*
X125734998Y-75322498D01*
X125580667Y-75510551D01*
X125465989Y-75725099D01*
X125395370Y-75957898D01*
X125371525Y-76200000D01*
X124614572Y-76200000D01*
X124614572Y-75775000D01*
X124594145Y-75567605D01*
X124533650Y-75368180D01*
X124435412Y-75184389D01*
X124303205Y-75023295D01*
X124142111Y-74891088D01*
X123958320Y-74792850D01*
X123758895Y-74732355D01*
X123551500Y-74711928D01*
X122701500Y-74711928D01*
X122494105Y-74732355D01*
X122294680Y-74792850D01*
X122110889Y-74891088D01*
X121949795Y-75023295D01*
X121817588Y-75184389D01*
X121719350Y-75368180D01*
X121658855Y-75567605D01*
X121638428Y-75775000D01*
X121638428Y-76625000D01*
X121658855Y-76832395D01*
X121719350Y-77031820D01*
X121817588Y-77215611D01*
X121949795Y-77376705D01*
X122110889Y-77508912D01*
X122213745Y-77563889D01*
X122179868Y-77586525D01*
X121973025Y-77793368D01*
X121810510Y-78036589D01*
X121698568Y-78306842D01*
X121641500Y-78593740D01*
X121641500Y-78886260D01*
X121698568Y-79173158D01*
X121810510Y-79443411D01*
X121973025Y-79686632D01*
X122179868Y-79893475D01*
X122354260Y-80010000D01*
X122179868Y-80126525D01*
X121973025Y-80333368D01*
X121849658Y-80518000D01*
X119958342Y-80518000D01*
X119834975Y-80333368D01*
X119628132Y-80126525D01*
X119384911Y-79964010D01*
X119114658Y-79852068D01*
X118827760Y-79795000D01*
X118535240Y-79795000D01*
X118248342Y-79852068D01*
X117978089Y-79964010D01*
X117734868Y-80126525D01*
X117528025Y-80333368D01*
X117406305Y-80515534D01*
X117336678Y-80398645D01*
X117141769Y-80182412D01*
X116908420Y-80008359D01*
X116645599Y-79883175D01*
X116498390Y-79838524D01*
X116268500Y-79959845D01*
X116268500Y-80518000D01*
X116014500Y-80518000D01*
X116014500Y-79959845D01*
X115784610Y-79838524D01*
X115637401Y-79883175D01*
X115374580Y-80008359D01*
X115141231Y-80182412D01*
X115065466Y-80266466D01*
X115041002Y-80185820D01*
X114982037Y-80075506D01*
X114902685Y-79978815D01*
X114805994Y-79899463D01*
X114695680Y-79840498D01*
X114575982Y-79804188D01*
X114451500Y-79791928D01*
X112751500Y-79791928D01*
X112627018Y-79804188D01*
X112507320Y-79840498D01*
X112397006Y-79899463D01*
X112300315Y-79978815D01*
X112220963Y-80075506D01*
X112161998Y-80185820D01*
X112125688Y-80305518D01*
X112113428Y-80430000D01*
X112113428Y-80518000D01*
X110695000Y-80518000D01*
X110695000Y-73660000D01*
X125371525Y-73660000D01*
X125395370Y-73902102D01*
X125465989Y-74134901D01*
X125580667Y-74349449D01*
X125734998Y-74537502D01*
X125923051Y-74691833D01*
X126137599Y-74806511D01*
X126370398Y-74877130D01*
X126551835Y-74895000D01*
X127473165Y-74895000D01*
X127654602Y-74877130D01*
X127887401Y-74806511D01*
X128101949Y-74691833D01*
X128290002Y-74537502D01*
X128444333Y-74349449D01*
X128559011Y-74134901D01*
X128629630Y-73902102D01*
X128653475Y-73660000D01*
X128629630Y-73417898D01*
X128559011Y-73185099D01*
X128444333Y-72970551D01*
X128290002Y-72782498D01*
X128101949Y-72628167D01*
X127887401Y-72513489D01*
X127654602Y-72442870D01*
X127473165Y-72425000D01*
X126551835Y-72425000D01*
X126370398Y-72442870D01*
X126137599Y-72513489D01*
X125923051Y-72628167D01*
X125734998Y-72782498D01*
X125580667Y-72970551D01*
X125465989Y-73185099D01*
X125395370Y-73417898D01*
X125371525Y-73660000D01*
X110695000Y-73660000D01*
X110695000Y-70021848D01*
X110718898Y-69641984D01*
X116365000Y-69641984D01*
X116365000Y-70358016D01*
X116504691Y-71060290D01*
X116778705Y-71721818D01*
X117176511Y-72317177D01*
X117682823Y-72823489D01*
X118278182Y-73221295D01*
X118939710Y-73495309D01*
X119641984Y-73635000D01*
X120358016Y-73635000D01*
X121060290Y-73495309D01*
X121721818Y-73221295D01*
X122317177Y-72823489D01*
X122823489Y-72317177D01*
X123221295Y-71721818D01*
X123470576Y-71120000D01*
X125371525Y-71120000D01*
X125395370Y-71362102D01*
X125465989Y-71594901D01*
X125580667Y-71809449D01*
X125734998Y-71997502D01*
X125923051Y-72151833D01*
X126137599Y-72266511D01*
X126370398Y-72337130D01*
X126551835Y-72355000D01*
X127473165Y-72355000D01*
X127654602Y-72337130D01*
X127887401Y-72266511D01*
X128101949Y-72151833D01*
X128290002Y-71997502D01*
X128444333Y-71809449D01*
X128559011Y-71594901D01*
X128629630Y-71362102D01*
X128653475Y-71120000D01*
X128629630Y-70877898D01*
X128559011Y-70645099D01*
X128444333Y-70430551D01*
X128290002Y-70242498D01*
X128101949Y-70088167D01*
X127887401Y-69973489D01*
X127654602Y-69902870D01*
X127473165Y-69885000D01*
X126551835Y-69885000D01*
X126370398Y-69902870D01*
X126137599Y-69973489D01*
X125923051Y-70088167D01*
X125734998Y-70242498D01*
X125580667Y-70430551D01*
X125465989Y-70645099D01*
X125395370Y-70877898D01*
X125371525Y-71120000D01*
X123470576Y-71120000D01*
X123495309Y-71060290D01*
X123635000Y-70358016D01*
X123635000Y-69641984D01*
X123495309Y-68939710D01*
X123346313Y-68580000D01*
X125371525Y-68580000D01*
X125395370Y-68822102D01*
X125465989Y-69054901D01*
X125580667Y-69269449D01*
X125734998Y-69457502D01*
X125923051Y-69611833D01*
X126137599Y-69726511D01*
X126370398Y-69797130D01*
X126551835Y-69815000D01*
X127473165Y-69815000D01*
X127654602Y-69797130D01*
X127887401Y-69726511D01*
X128101949Y-69611833D01*
X128290002Y-69457502D01*
X128444333Y-69269449D01*
X128559011Y-69054901D01*
X128629630Y-68822102D01*
X128653475Y-68580000D01*
X128629630Y-68337898D01*
X128559011Y-68105099D01*
X128444333Y-67890551D01*
X128290002Y-67702498D01*
X128101949Y-67548167D01*
X127887401Y-67433489D01*
X127654602Y-67362870D01*
X127473165Y-67345000D01*
X126551835Y-67345000D01*
X126370398Y-67362870D01*
X126137599Y-67433489D01*
X125923051Y-67548167D01*
X125734998Y-67702498D01*
X125580667Y-67890551D01*
X125465989Y-68105099D01*
X125395370Y-68337898D01*
X125371525Y-68580000D01*
X123346313Y-68580000D01*
X123221295Y-68278182D01*
X122823489Y-67682823D01*
X122317177Y-67176511D01*
X121721818Y-66778705D01*
X121060290Y-66504691D01*
X120358016Y-66365000D01*
X119641984Y-66365000D01*
X118939710Y-66504691D01*
X118278182Y-66778705D01*
X117682823Y-67176511D01*
X117176511Y-67682823D01*
X116778705Y-68278182D01*
X116504691Y-68939710D01*
X116365000Y-69641984D01*
X110718898Y-69641984D01*
X110769736Y-68833946D01*
X110988665Y-67686278D01*
X111349706Y-66575111D01*
X111601509Y-66040000D01*
X125371525Y-66040000D01*
X125395370Y-66282102D01*
X125465989Y-66514901D01*
X125580667Y-66729449D01*
X125734998Y-66917502D01*
X125923051Y-67071833D01*
X126137599Y-67186511D01*
X126370398Y-67257130D01*
X126551835Y-67275000D01*
X127473165Y-67275000D01*
X127654602Y-67257130D01*
X127887401Y-67186511D01*
X128101949Y-67071833D01*
X128290002Y-66917502D01*
X128444333Y-66729449D01*
X128559011Y-66514901D01*
X128629630Y-66282102D01*
X128653475Y-66040000D01*
X128629630Y-65797898D01*
X128559011Y-65565099D01*
X128444333Y-65350551D01*
X128290002Y-65162498D01*
X128101949Y-65008167D01*
X127887401Y-64893489D01*
X127654602Y-64822870D01*
X127473165Y-64805000D01*
X126551835Y-64805000D01*
X126370398Y-64822870D01*
X126137599Y-64893489D01*
X125923051Y-65008167D01*
X125734998Y-65162498D01*
X125580667Y-65350551D01*
X125465989Y-65565099D01*
X125395370Y-65797898D01*
X125371525Y-66040000D01*
X111601509Y-66040000D01*
X111847171Y-65517943D01*
X112473209Y-64531465D01*
X112486002Y-64516000D01*
X118695953Y-64516000D01*
X118695953Y-64590000D01*
X133304048Y-64590000D01*
X133304048Y-60695000D01*
X141605000Y-60695000D01*
X141605000Y-60871191D01*
G37*
X141605000Y-60871191D02*
X141594850Y-60890180D01*
X141534355Y-61089605D01*
X141513928Y-61297000D01*
X141513928Y-62147000D01*
X141534355Y-62354395D01*
X141594850Y-62553820D01*
X141605000Y-62572809D01*
X141605000Y-64824423D01*
X141462004Y-64853507D01*
X141237554Y-64947610D01*
X141035775Y-65083693D01*
X140864422Y-65256526D01*
X140730079Y-65459467D01*
X140637909Y-65684718D01*
X140634038Y-65722391D01*
X140758769Y-65913000D01*
X141605000Y-65913000D01*
X141605000Y-66167000D01*
X140758769Y-66167000D01*
X140634038Y-66357609D01*
X140637909Y-66395282D01*
X140730079Y-66620533D01*
X140864422Y-66823474D01*
X141035775Y-66996307D01*
X141237554Y-67132390D01*
X141462004Y-67226493D01*
X141605000Y-67255577D01*
X141605000Y-67360939D01*
X141585398Y-67362870D01*
X141352599Y-67433489D01*
X141138051Y-67548167D01*
X140949998Y-67702498D01*
X140795667Y-67890551D01*
X140680989Y-68105099D01*
X140610370Y-68337898D01*
X140586525Y-68580000D01*
X140610370Y-68822102D01*
X140680989Y-69054901D01*
X140795667Y-69269449D01*
X140949998Y-69457502D01*
X141138051Y-69611833D01*
X141149462Y-69617932D01*
X140270323Y-70497071D01*
X140234209Y-70526709D01*
X140208063Y-70558568D01*
X137487325Y-73279308D01*
X137487320Y-73279312D01*
X137487315Y-73279317D01*
X137455460Y-73305460D01*
X137429317Y-73337315D01*
X131645579Y-79121054D01*
X131613709Y-79147209D01*
X131584073Y-79183321D01*
X130249394Y-80518000D01*
X128384792Y-80518000D01*
X128290002Y-80402498D01*
X128101949Y-80248167D01*
X127887401Y-80133489D01*
X127654602Y-80062870D01*
X127473165Y-80045000D01*
X126551835Y-80045000D01*
X126370398Y-80062870D01*
X126137599Y-80133489D01*
X125923051Y-80248167D01*
X125734998Y-80402498D01*
X125700118Y-80445000D01*
X124354565Y-80445000D01*
X124279975Y-80333368D01*
X124073132Y-80126525D01*
X123898740Y-80010000D01*
X124073132Y-79893475D01*
X124279975Y-79686632D01*
X124354565Y-79575000D01*
X125700118Y-79575000D01*
X125734998Y-79617502D01*
X125923051Y-79771833D01*
X126137599Y-79886511D01*
X126370398Y-79957130D01*
X126551835Y-79975000D01*
X127473165Y-79975000D01*
X127654602Y-79957130D01*
X127887401Y-79886511D01*
X128101949Y-79771833D01*
X128290002Y-79617502D01*
X128444333Y-79429449D01*
X128559011Y-79214901D01*
X128629630Y-78982102D01*
X128653475Y-78740000D01*
X128629630Y-78497898D01*
X128559011Y-78265099D01*
X128444333Y-78050551D01*
X128290002Y-77862498D01*
X128101949Y-77708167D01*
X127887401Y-77593489D01*
X127654602Y-77522870D01*
X127473165Y-77505000D01*
X126551835Y-77505000D01*
X126370398Y-77522870D01*
X126137599Y-77593489D01*
X125923051Y-77708167D01*
X125734998Y-77862498D01*
X125700118Y-77905000D01*
X124354565Y-77905000D01*
X124279975Y-77793368D01*
X124073132Y-77586525D01*
X124039255Y-77563889D01*
X124142111Y-77508912D01*
X124303205Y-77376705D01*
X124435412Y-77215611D01*
X124533650Y-77031820D01*
X124594145Y-76832395D01*
X124614572Y-76625000D01*
X124614572Y-76200000D01*
X125371525Y-76200000D01*
X125395370Y-76442102D01*
X125465989Y-76674901D01*
X125580667Y-76889449D01*
X125734998Y-77077502D01*
X125923051Y-77231833D01*
X126137599Y-77346511D01*
X126370398Y-77417130D01*
X126551835Y-77435000D01*
X127473165Y-77435000D01*
X127654602Y-77417130D01*
X127887401Y-77346511D01*
X128101949Y-77231833D01*
X128290002Y-77077502D01*
X128444333Y-76889449D01*
X128559011Y-76674901D01*
X128629630Y-76442102D01*
X128653475Y-76200000D01*
X128629630Y-75957898D01*
X128559011Y-75725099D01*
X128444333Y-75510551D01*
X128290002Y-75322498D01*
X128101949Y-75168167D01*
X127887401Y-75053489D01*
X127654602Y-74982870D01*
X127473165Y-74965000D01*
X126551835Y-74965000D01*
X126370398Y-74982870D01*
X126137599Y-75053489D01*
X125923051Y-75168167D01*
X125734998Y-75322498D01*
X125580667Y-75510551D01*
X125465989Y-75725099D01*
X125395370Y-75957898D01*
X125371525Y-76200000D01*
X124614572Y-76200000D01*
X124614572Y-75775000D01*
X124594145Y-75567605D01*
X124533650Y-75368180D01*
X124435412Y-75184389D01*
X124303205Y-75023295D01*
X124142111Y-74891088D01*
X123958320Y-74792850D01*
X123758895Y-74732355D01*
X123551500Y-74711928D01*
X122701500Y-74711928D01*
X122494105Y-74732355D01*
X122294680Y-74792850D01*
X122110889Y-74891088D01*
X121949795Y-75023295D01*
X121817588Y-75184389D01*
X121719350Y-75368180D01*
X121658855Y-75567605D01*
X121638428Y-75775000D01*
X121638428Y-76625000D01*
X121658855Y-76832395D01*
X121719350Y-77031820D01*
X121817588Y-77215611D01*
X121949795Y-77376705D01*
X122110889Y-77508912D01*
X122213745Y-77563889D01*
X122179868Y-77586525D01*
X121973025Y-77793368D01*
X121810510Y-78036589D01*
X121698568Y-78306842D01*
X121641500Y-78593740D01*
X121641500Y-78886260D01*
X121698568Y-79173158D01*
X121810510Y-79443411D01*
X121973025Y-79686632D01*
X122179868Y-79893475D01*
X122354260Y-80010000D01*
X122179868Y-80126525D01*
X121973025Y-80333368D01*
X121849658Y-80518000D01*
X119958342Y-80518000D01*
X119834975Y-80333368D01*
X119628132Y-80126525D01*
X119384911Y-79964010D01*
X119114658Y-79852068D01*
X118827760Y-79795000D01*
X118535240Y-79795000D01*
X118248342Y-79852068D01*
X117978089Y-79964010D01*
X117734868Y-80126525D01*
X117528025Y-80333368D01*
X117406305Y-80515534D01*
X117336678Y-80398645D01*
X117141769Y-80182412D01*
X116908420Y-80008359D01*
X116645599Y-79883175D01*
X116498390Y-79838524D01*
X116268500Y-79959845D01*
X116268500Y-80518000D01*
X116014500Y-80518000D01*
X116014500Y-79959845D01*
X115784610Y-79838524D01*
X115637401Y-79883175D01*
X115374580Y-80008359D01*
X115141231Y-80182412D01*
X115065466Y-80266466D01*
X115041002Y-80185820D01*
X114982037Y-80075506D01*
X114902685Y-79978815D01*
X114805994Y-79899463D01*
X114695680Y-79840498D01*
X114575982Y-79804188D01*
X114451500Y-79791928D01*
X112751500Y-79791928D01*
X112627018Y-79804188D01*
X112507320Y-79840498D01*
X112397006Y-79899463D01*
X112300315Y-79978815D01*
X112220963Y-80075506D01*
X112161998Y-80185820D01*
X112125688Y-80305518D01*
X112113428Y-80430000D01*
X112113428Y-80518000D01*
X110695000Y-80518000D01*
X110695000Y-73660000D01*
X125371525Y-73660000D01*
X125395370Y-73902102D01*
X125465989Y-74134901D01*
X125580667Y-74349449D01*
X125734998Y-74537502D01*
X125923051Y-74691833D01*
X126137599Y-74806511D01*
X126370398Y-74877130D01*
X126551835Y-74895000D01*
X127473165Y-74895000D01*
X127654602Y-74877130D01*
X127887401Y-74806511D01*
X128101949Y-74691833D01*
X128290002Y-74537502D01*
X128444333Y-74349449D01*
X128559011Y-74134901D01*
X128629630Y-73902102D01*
X128653475Y-73660000D01*
X128629630Y-73417898D01*
X128559011Y-73185099D01*
X128444333Y-72970551D01*
X128290002Y-72782498D01*
X128101949Y-72628167D01*
X127887401Y-72513489D01*
X127654602Y-72442870D01*
X127473165Y-72425000D01*
X126551835Y-72425000D01*
X126370398Y-72442870D01*
X126137599Y-72513489D01*
X125923051Y-72628167D01*
X125734998Y-72782498D01*
X125580667Y-72970551D01*
X125465989Y-73185099D01*
X125395370Y-73417898D01*
X125371525Y-73660000D01*
X110695000Y-73660000D01*
X110695000Y-70021848D01*
X110718898Y-69641984D01*
X116365000Y-69641984D01*
X116365000Y-70358016D01*
X116504691Y-71060290D01*
X116778705Y-71721818D01*
X117176511Y-72317177D01*
X117682823Y-72823489D01*
X118278182Y-73221295D01*
X118939710Y-73495309D01*
X119641984Y-73635000D01*
X120358016Y-73635000D01*
X121060290Y-73495309D01*
X121721818Y-73221295D01*
X122317177Y-72823489D01*
X122823489Y-72317177D01*
X123221295Y-71721818D01*
X123470576Y-71120000D01*
X125371525Y-71120000D01*
X125395370Y-71362102D01*
X125465989Y-71594901D01*
X125580667Y-71809449D01*
X125734998Y-71997502D01*
X125923051Y-72151833D01*
X126137599Y-72266511D01*
X126370398Y-72337130D01*
X126551835Y-72355000D01*
X127473165Y-72355000D01*
X127654602Y-72337130D01*
X127887401Y-72266511D01*
X128101949Y-72151833D01*
X128290002Y-71997502D01*
X128444333Y-71809449D01*
X128559011Y-71594901D01*
X128629630Y-71362102D01*
X128653475Y-71120000D01*
X128629630Y-70877898D01*
X128559011Y-70645099D01*
X128444333Y-70430551D01*
X128290002Y-70242498D01*
X128101949Y-70088167D01*
X127887401Y-69973489D01*
X127654602Y-69902870D01*
X127473165Y-69885000D01*
X126551835Y-69885000D01*
X126370398Y-69902870D01*
X126137599Y-69973489D01*
X125923051Y-70088167D01*
X125734998Y-70242498D01*
X125580667Y-70430551D01*
X125465989Y-70645099D01*
X125395370Y-70877898D01*
X125371525Y-71120000D01*
X123470576Y-71120000D01*
X123495309Y-71060290D01*
X123635000Y-70358016D01*
X123635000Y-69641984D01*
X123495309Y-68939710D01*
X123346313Y-68580000D01*
X125371525Y-68580000D01*
X125395370Y-68822102D01*
X125465989Y-69054901D01*
X125580667Y-69269449D01*
X125734998Y-69457502D01*
X125923051Y-69611833D01*
X126137599Y-69726511D01*
X126370398Y-69797130D01*
X126551835Y-69815000D01*
X127473165Y-69815000D01*
X127654602Y-69797130D01*
X127887401Y-69726511D01*
X128101949Y-69611833D01*
X128290002Y-69457502D01*
X128444333Y-69269449D01*
X128559011Y-69054901D01*
X128629630Y-68822102D01*
X128653475Y-68580000D01*
X128629630Y-68337898D01*
X128559011Y-68105099D01*
X128444333Y-67890551D01*
X128290002Y-67702498D01*
X128101949Y-67548167D01*
X127887401Y-67433489D01*
X127654602Y-67362870D01*
X127473165Y-67345000D01*
X126551835Y-67345000D01*
X126370398Y-67362870D01*
X126137599Y-67433489D01*
X125923051Y-67548167D01*
X125734998Y-67702498D01*
X125580667Y-67890551D01*
X125465989Y-68105099D01*
X125395370Y-68337898D01*
X125371525Y-68580000D01*
X123346313Y-68580000D01*
X123221295Y-68278182D01*
X122823489Y-67682823D01*
X122317177Y-67176511D01*
X121721818Y-66778705D01*
X121060290Y-66504691D01*
X120358016Y-66365000D01*
X119641984Y-66365000D01*
X118939710Y-66504691D01*
X118278182Y-66778705D01*
X117682823Y-67176511D01*
X117176511Y-67682823D01*
X116778705Y-68278182D01*
X116504691Y-68939710D01*
X116365000Y-69641984D01*
X110718898Y-69641984D01*
X110769736Y-68833946D01*
X110988665Y-67686278D01*
X111349706Y-66575111D01*
X111601509Y-66040000D01*
X125371525Y-66040000D01*
X125395370Y-66282102D01*
X125465989Y-66514901D01*
X125580667Y-66729449D01*
X125734998Y-66917502D01*
X125923051Y-67071833D01*
X126137599Y-67186511D01*
X126370398Y-67257130D01*
X126551835Y-67275000D01*
X127473165Y-67275000D01*
X127654602Y-67257130D01*
X127887401Y-67186511D01*
X128101949Y-67071833D01*
X128290002Y-66917502D01*
X128444333Y-66729449D01*
X128559011Y-66514901D01*
X128629630Y-66282102D01*
X128653475Y-66040000D01*
X128629630Y-65797898D01*
X128559011Y-65565099D01*
X128444333Y-65350551D01*
X128290002Y-65162498D01*
X128101949Y-65008167D01*
X127887401Y-64893489D01*
X127654602Y-64822870D01*
X127473165Y-64805000D01*
X126551835Y-64805000D01*
X126370398Y-64822870D01*
X126137599Y-64893489D01*
X125923051Y-65008167D01*
X125734998Y-65162498D01*
X125580667Y-65350551D01*
X125465989Y-65565099D01*
X125395370Y-65797898D01*
X125371525Y-66040000D01*
X111601509Y-66040000D01*
X111847171Y-65517943D01*
X112473209Y-64531465D01*
X112486002Y-64516000D01*
X118695953Y-64516000D01*
X118695953Y-64590000D01*
X133304048Y-64590000D01*
X133304048Y-60695000D01*
X141605000Y-60695000D01*
X141605000Y-60871191D01*
M02*
