G04 #@! TF.GenerationSoftware,KiCad,Pcbnew,5.1.5+dfsg1-2build2*
G04 #@! TF.CreationDate,2021-11-16T19:49:45+01:00*
G04 #@! TF.ProjectId,brainboard,62726169-6e62-46f6-9172-642e6b696361,rev?*
G04 #@! TF.SameCoordinates,Original*
G04 #@! TF.FileFunction,Copper,L2,Bot*
G04 #@! TF.FilePolarity,Positive*
%FSLAX46Y46*%
G04 Gerber Fmt 4.6, Leading zero omitted, Abs format (unit mm)*
G04 Created by KiCad (PCBNEW 5.1.5+dfsg1-2build2) date 2021-11-16 19:49:45*
%MOMM*%
%LPD*%
G04 APERTURE LIST*
%ADD10O,1.700000X1.700000*%
%ADD11C,0.100000*%
%ADD12C,1.524000*%
%ADD13C,4.500000*%
%ADD14C,6.000000*%
%ADD15R,1.700000X1.700000*%
%ADD16O,2.000000X1.200000*%
%ADD17C,0.800000*%
%ADD18C,0.400000*%
%ADD19C,0.254000*%
G04 APERTURE END LIST*
D10*
X123126500Y-81280000D03*
X123126500Y-78740000D03*
G04 #@! TA.AperFunction,ComponentPad*
D11*
G36*
X123593157Y-75352046D02*
G01*
X123634413Y-75358166D01*
X123674871Y-75368300D01*
X123714140Y-75382351D01*
X123751844Y-75400183D01*
X123787617Y-75421625D01*
X123821117Y-75446471D01*
X123852020Y-75474480D01*
X123880029Y-75505383D01*
X123904875Y-75538883D01*
X123926317Y-75574656D01*
X123944149Y-75612360D01*
X123958200Y-75651629D01*
X123968334Y-75692087D01*
X123974454Y-75733343D01*
X123976500Y-75775000D01*
X123976500Y-76625000D01*
X123974454Y-76666657D01*
X123968334Y-76707913D01*
X123958200Y-76748371D01*
X123944149Y-76787640D01*
X123926317Y-76825344D01*
X123904875Y-76861117D01*
X123880029Y-76894617D01*
X123852020Y-76925520D01*
X123821117Y-76953529D01*
X123787617Y-76978375D01*
X123751844Y-76999817D01*
X123714140Y-77017649D01*
X123674871Y-77031700D01*
X123634413Y-77041834D01*
X123593157Y-77047954D01*
X123551500Y-77050000D01*
X122701500Y-77050000D01*
X122659843Y-77047954D01*
X122618587Y-77041834D01*
X122578129Y-77031700D01*
X122538860Y-77017649D01*
X122501156Y-76999817D01*
X122465383Y-76978375D01*
X122431883Y-76953529D01*
X122400980Y-76925520D01*
X122372971Y-76894617D01*
X122348125Y-76861117D01*
X122326683Y-76825344D01*
X122308851Y-76787640D01*
X122294800Y-76748371D01*
X122284666Y-76707913D01*
X122278546Y-76666657D01*
X122276500Y-76625000D01*
X122276500Y-75775000D01*
X122278546Y-75733343D01*
X122284666Y-75692087D01*
X122294800Y-75651629D01*
X122308851Y-75612360D01*
X122326683Y-75574656D01*
X122348125Y-75538883D01*
X122372971Y-75505383D01*
X122400980Y-75474480D01*
X122431883Y-75446471D01*
X122465383Y-75421625D01*
X122501156Y-75400183D01*
X122538860Y-75382351D01*
X122578129Y-75368300D01*
X122618587Y-75358166D01*
X122659843Y-75352046D01*
X122701500Y-75350000D01*
X123551500Y-75350000D01*
X123593157Y-75352046D01*
G37*
G04 #@! TD.AperFunction*
D12*
X167643000Y-87376000D03*
X165103000Y-87376000D03*
X162563000Y-87376000D03*
G04 #@! TA.AperFunction,ComponentPad*
D11*
G36*
X160441345Y-86615835D02*
G01*
X160478329Y-86621321D01*
X160514598Y-86630406D01*
X160549802Y-86643002D01*
X160583602Y-86658988D01*
X160615672Y-86678210D01*
X160645704Y-86700483D01*
X160673408Y-86725592D01*
X160698517Y-86753296D01*
X160720790Y-86783328D01*
X160740012Y-86815398D01*
X160755998Y-86849198D01*
X160768594Y-86884402D01*
X160777679Y-86920671D01*
X160783165Y-86957655D01*
X160785000Y-86995000D01*
X160785000Y-87757000D01*
X160783165Y-87794345D01*
X160777679Y-87831329D01*
X160768594Y-87867598D01*
X160755998Y-87902802D01*
X160740012Y-87936602D01*
X160720790Y-87968672D01*
X160698517Y-87998704D01*
X160673408Y-88026408D01*
X160645704Y-88051517D01*
X160615672Y-88073790D01*
X160583602Y-88093012D01*
X160549802Y-88108998D01*
X160514598Y-88121594D01*
X160478329Y-88130679D01*
X160441345Y-88136165D01*
X160404000Y-88138000D01*
X159642000Y-88138000D01*
X159604655Y-88136165D01*
X159567671Y-88130679D01*
X159531402Y-88121594D01*
X159496198Y-88108998D01*
X159462398Y-88093012D01*
X159430328Y-88073790D01*
X159400296Y-88051517D01*
X159372592Y-88026408D01*
X159347483Y-87998704D01*
X159325210Y-87968672D01*
X159305988Y-87936602D01*
X159290002Y-87902802D01*
X159277406Y-87867598D01*
X159268321Y-87831329D01*
X159262835Y-87794345D01*
X159261000Y-87757000D01*
X159261000Y-86995000D01*
X159262835Y-86957655D01*
X159268321Y-86920671D01*
X159277406Y-86884402D01*
X159290002Y-86849198D01*
X159305988Y-86815398D01*
X159325210Y-86783328D01*
X159347483Y-86753296D01*
X159372592Y-86725592D01*
X159400296Y-86700483D01*
X159430328Y-86678210D01*
X159462398Y-86658988D01*
X159496198Y-86643002D01*
X159531402Y-86630406D01*
X159567671Y-86621321D01*
X159604655Y-86615835D01*
X159642000Y-86614000D01*
X160404000Y-86614000D01*
X160441345Y-86615835D01*
G37*
G04 #@! TD.AperFunction*
D12*
X157483000Y-87376000D03*
D13*
X162563000Y-69596000D03*
D12*
X160583000Y-62921000D03*
D10*
X140462000Y-61722000D03*
G04 #@! TA.AperFunction,ComponentPad*
D11*
G36*
X143468657Y-60874046D02*
G01*
X143509913Y-60880166D01*
X143550371Y-60890300D01*
X143589640Y-60904351D01*
X143627344Y-60922183D01*
X143663117Y-60943625D01*
X143696617Y-60968471D01*
X143727520Y-60996480D01*
X143755529Y-61027383D01*
X143780375Y-61060883D01*
X143801817Y-61096656D01*
X143819649Y-61134360D01*
X143833700Y-61173629D01*
X143843834Y-61214087D01*
X143849954Y-61255343D01*
X143852000Y-61297000D01*
X143852000Y-62147000D01*
X143849954Y-62188657D01*
X143843834Y-62229913D01*
X143833700Y-62270371D01*
X143819649Y-62309640D01*
X143801817Y-62347344D01*
X143780375Y-62383117D01*
X143755529Y-62416617D01*
X143727520Y-62447520D01*
X143696617Y-62475529D01*
X143663117Y-62500375D01*
X143627344Y-62521817D01*
X143589640Y-62539649D01*
X143550371Y-62553700D01*
X143509913Y-62563834D01*
X143468657Y-62569954D01*
X143427000Y-62572000D01*
X142577000Y-62572000D01*
X142535343Y-62569954D01*
X142494087Y-62563834D01*
X142453629Y-62553700D01*
X142414360Y-62539649D01*
X142376656Y-62521817D01*
X142340883Y-62500375D01*
X142307383Y-62475529D01*
X142276480Y-62447520D01*
X142248471Y-62416617D01*
X142223625Y-62383117D01*
X142202183Y-62347344D01*
X142184351Y-62309640D01*
X142170300Y-62270371D01*
X142160166Y-62229913D01*
X142154046Y-62188657D01*
X142152000Y-62147000D01*
X142152000Y-61297000D01*
X142154046Y-61255343D01*
X142160166Y-61214087D01*
X142170300Y-61173629D01*
X142184351Y-61134360D01*
X142202183Y-61096656D01*
X142223625Y-61060883D01*
X142248471Y-61027383D01*
X142276480Y-60996480D01*
X142307383Y-60968471D01*
X142340883Y-60943625D01*
X142376656Y-60922183D01*
X142414360Y-60904351D01*
X142453629Y-60890300D01*
X142494087Y-60880166D01*
X142535343Y-60874046D01*
X142577000Y-60872000D01*
X143427000Y-60872000D01*
X143468657Y-60874046D01*
G37*
G04 #@! TD.AperFunction*
D10*
X147320000Y-61722000D03*
G04 #@! TA.AperFunction,ComponentPad*
D11*
G36*
X150326657Y-60874046D02*
G01*
X150367913Y-60880166D01*
X150408371Y-60890300D01*
X150447640Y-60904351D01*
X150485344Y-60922183D01*
X150521117Y-60943625D01*
X150554617Y-60968471D01*
X150585520Y-60996480D01*
X150613529Y-61027383D01*
X150638375Y-61060883D01*
X150659817Y-61096656D01*
X150677649Y-61134360D01*
X150691700Y-61173629D01*
X150701834Y-61214087D01*
X150707954Y-61255343D01*
X150710000Y-61297000D01*
X150710000Y-62147000D01*
X150707954Y-62188657D01*
X150701834Y-62229913D01*
X150691700Y-62270371D01*
X150677649Y-62309640D01*
X150659817Y-62347344D01*
X150638375Y-62383117D01*
X150613529Y-62416617D01*
X150585520Y-62447520D01*
X150554617Y-62475529D01*
X150521117Y-62500375D01*
X150485344Y-62521817D01*
X150447640Y-62539649D01*
X150408371Y-62553700D01*
X150367913Y-62563834D01*
X150326657Y-62569954D01*
X150285000Y-62572000D01*
X149435000Y-62572000D01*
X149393343Y-62569954D01*
X149352087Y-62563834D01*
X149311629Y-62553700D01*
X149272360Y-62539649D01*
X149234656Y-62521817D01*
X149198883Y-62500375D01*
X149165383Y-62475529D01*
X149134480Y-62447520D01*
X149106471Y-62416617D01*
X149081625Y-62383117D01*
X149060183Y-62347344D01*
X149042351Y-62309640D01*
X149028300Y-62270371D01*
X149018166Y-62229913D01*
X149012046Y-62188657D01*
X149010000Y-62147000D01*
X149010000Y-61297000D01*
X149012046Y-61255343D01*
X149018166Y-61214087D01*
X149028300Y-61173629D01*
X149042351Y-61134360D01*
X149060183Y-61096656D01*
X149081625Y-61060883D01*
X149106471Y-61027383D01*
X149134480Y-60996480D01*
X149165383Y-60968471D01*
X149198883Y-60943625D01*
X149234656Y-60922183D01*
X149272360Y-60904351D01*
X149311629Y-60890300D01*
X149352087Y-60880166D01*
X149393343Y-60874046D01*
X149435000Y-60872000D01*
X150285000Y-60872000D01*
X150326657Y-60874046D01*
G37*
G04 #@! TD.AperFunction*
D14*
X152000000Y-110000000D03*
X120000000Y-110000000D03*
X120000000Y-70000000D03*
X152000000Y-70000000D03*
D10*
X162035000Y-97155000D03*
X164575000Y-97155000D03*
D15*
X167115000Y-97155000D03*
D10*
X162035000Y-99695000D03*
X164575000Y-99695000D03*
D15*
X167115000Y-99695000D03*
D10*
X162035000Y-102235000D03*
X164575000Y-102235000D03*
D15*
X167115000Y-102235000D03*
D10*
X162035000Y-104775000D03*
X164575000Y-104775000D03*
D15*
X167115000Y-104775000D03*
D10*
X162035000Y-107315000D03*
X164575000Y-107315000D03*
D15*
X167115000Y-107315000D03*
D10*
X162035000Y-109855000D03*
X164575000Y-109855000D03*
D15*
X167115000Y-109855000D03*
D10*
X162035000Y-112395000D03*
X164575000Y-112395000D03*
D15*
X167115000Y-112395000D03*
D10*
X162035000Y-114935000D03*
X164575000Y-114935000D03*
D15*
X167115000Y-114935000D03*
D10*
X118681500Y-81280000D03*
X116141500Y-81280000D03*
D15*
X113601500Y-81280000D03*
D10*
X118681500Y-83820000D03*
X116141500Y-83820000D03*
D15*
X113601500Y-83820000D03*
D10*
X118681500Y-86360000D03*
X116141500Y-86360000D03*
D15*
X113601500Y-86360000D03*
D10*
X118681500Y-88900000D03*
X116141500Y-88900000D03*
D15*
X113601500Y-88900000D03*
D10*
X118681500Y-91440000D03*
X116141500Y-91440000D03*
D15*
X113601500Y-91440000D03*
D10*
X118681500Y-93980000D03*
X116141500Y-93980000D03*
D15*
X113601500Y-93980000D03*
D10*
X118681500Y-96520000D03*
X116141500Y-96520000D03*
D15*
X113601500Y-96520000D03*
D10*
X118681500Y-99060000D03*
X116141500Y-99060000D03*
D15*
X113601500Y-99060000D03*
D16*
X142227500Y-66040000D03*
X127012500Y-66040000D03*
X142227500Y-68580000D03*
X127012500Y-68580000D03*
X142227500Y-71120000D03*
X127012500Y-71120000D03*
X142227500Y-73660000D03*
X127012500Y-73660000D03*
X142227500Y-76200000D03*
X127012500Y-76200000D03*
X142227500Y-78740000D03*
X127012500Y-78740000D03*
X142227500Y-81280000D03*
X127012500Y-81280000D03*
X142227500Y-83820000D03*
X127012500Y-83820000D03*
X142227500Y-86360000D03*
X127012500Y-86360000D03*
X142227500Y-88900000D03*
X127012500Y-88900000D03*
X142227500Y-91440000D03*
X127012500Y-91440000D03*
X142227500Y-93980000D03*
X127012500Y-93980000D03*
X142227500Y-96520000D03*
X127012500Y-96520000D03*
X142227500Y-99060000D03*
X127012500Y-99060000D03*
X142227500Y-101600000D03*
X127012500Y-101600000D03*
X142227500Y-104140000D03*
X127012500Y-104140000D03*
X142227500Y-106680000D03*
X127012500Y-106680000D03*
X142227500Y-109220000D03*
X127012500Y-109220000D03*
X142227500Y-111760000D03*
X127012500Y-111760000D03*
X142227500Y-114300000D03*
X127012500Y-114300000D03*
D12*
X130810000Y-110490000D03*
X133350000Y-110490000D03*
X135890000Y-110490000D03*
X138430000Y-110490000D03*
D17*
X156400000Y-81400000D03*
D18*
X127000000Y-111760000D02*
X127762000Y-111760000D01*
X141478000Y-68580000D02*
X142240000Y-68580000D01*
X167115000Y-114935000D02*
X167115000Y-97155000D01*
X122301000Y-115189000D02*
X117729000Y-115189000D01*
X125730000Y-111760000D02*
X122301000Y-115189000D01*
X127000000Y-111760000D02*
X125730000Y-111760000D01*
X143002000Y-62972000D02*
X144165000Y-64135000D01*
X143002000Y-61722000D02*
X143002000Y-62972000D01*
X149860000Y-62972000D02*
X149860000Y-61722000D01*
X148697000Y-64135000D02*
X149860000Y-62972000D01*
X143002000Y-68580000D02*
X142240000Y-68580000D01*
X145288000Y-66294000D02*
X143002000Y-68580000D01*
X145288000Y-64135000D02*
X145288000Y-66294000D01*
X144165000Y-64135000D02*
X145288000Y-64135000D01*
X145288000Y-64135000D02*
X148697000Y-64135000D01*
X127412500Y-111760000D02*
X127012500Y-111760000D01*
X134270500Y-104902000D02*
X127412500Y-111760000D01*
X134270500Y-104902000D02*
X134270500Y-75787500D01*
X160023000Y-90063000D02*
X160023000Y-87376000D01*
X167115000Y-97155000D02*
X160023000Y-90063000D01*
X167115000Y-116185000D02*
X166841000Y-116459000D01*
X167115000Y-114935000D02*
X167115000Y-116185000D01*
X128412500Y-111760000D02*
X127012500Y-111760000D01*
X133111500Y-116459000D02*
X128412500Y-111760000D01*
X166841000Y-116459000D02*
X133111500Y-116459000D01*
X138430000Y-109061500D02*
X138430000Y-110490000D01*
X134270500Y-104902000D02*
X138430000Y-109061500D01*
X143002000Y-62572000D02*
X143002000Y-61722000D01*
X141174000Y-64400000D02*
X143002000Y-62572000D01*
X140480000Y-68580000D02*
X142227500Y-68580000D01*
X136300000Y-64400000D02*
X140480000Y-68580000D01*
X118480000Y-64400000D02*
X136300000Y-64400000D01*
X136300000Y-64400000D02*
X141174000Y-64400000D01*
X134270500Y-75137000D02*
X134270500Y-75787500D01*
X140827500Y-68580000D02*
X134270500Y-75137000D01*
X142227500Y-68580000D02*
X140827500Y-68580000D01*
X156400000Y-81352500D02*
X156400000Y-81400000D01*
X143627500Y-68580000D02*
X156400000Y-81352500D01*
X142227500Y-68580000D02*
X143627500Y-68580000D01*
X121876500Y-76200000D02*
X123126500Y-76200000D01*
X117431500Y-76200000D02*
X121876500Y-76200000D01*
X113601500Y-80030000D02*
X117431500Y-76200000D01*
X113601500Y-81280000D02*
X113601500Y-80030000D01*
X113601500Y-81280000D02*
X113601500Y-99060000D01*
X113601500Y-69278500D02*
X113601500Y-80030000D01*
X118480000Y-64400000D02*
X113601500Y-69278500D01*
X113601500Y-111061500D02*
X117729000Y-115189000D01*
X113601500Y-99060000D02*
X113601500Y-111061500D01*
X142240000Y-93980000D02*
X152400000Y-83820000D01*
X161547000Y-83820000D02*
X165103000Y-87376000D01*
X152400000Y-83820000D02*
X161547000Y-83820000D01*
X153035000Y-85725000D02*
X142240000Y-96520000D01*
X160912000Y-85725000D02*
X162563000Y-87376000D01*
X153035000Y-85725000D02*
X160912000Y-85725000D01*
D19*
G36*
X139308525Y-60775368D02*
G01*
X139146010Y-61018589D01*
X139034068Y-61288842D01*
X138977000Y-61575740D01*
X138977000Y-61868260D01*
X139034068Y-62155158D01*
X139146010Y-62425411D01*
X139308525Y-62668632D01*
X139515368Y-62875475D01*
X139758589Y-63037990D01*
X140028842Y-63149932D01*
X140315740Y-63207000D01*
X140608260Y-63207000D01*
X140895158Y-63149932D01*
X141165411Y-63037990D01*
X141408632Y-62875475D01*
X141615475Y-62668632D01*
X141777990Y-62425411D01*
X141889932Y-62155158D01*
X141947000Y-61868260D01*
X141947000Y-61575740D01*
X141889932Y-61288842D01*
X141777990Y-61018589D01*
X141615475Y-60775368D01*
X141535107Y-60695000D01*
X146246893Y-60695000D01*
X146166525Y-60775368D01*
X146004010Y-61018589D01*
X145892068Y-61288842D01*
X145835000Y-61575740D01*
X145835000Y-61868260D01*
X145892068Y-62155158D01*
X146004010Y-62425411D01*
X146166525Y-62668632D01*
X146373368Y-62875475D01*
X146616589Y-63037990D01*
X146886842Y-63149932D01*
X147173740Y-63207000D01*
X147466260Y-63207000D01*
X147753158Y-63149932D01*
X148023411Y-63037990D01*
X148266632Y-62875475D01*
X148358699Y-62783408D01*
X159186000Y-62783408D01*
X159186000Y-63058592D01*
X159239686Y-63328490D01*
X159344995Y-63582727D01*
X159497880Y-63811535D01*
X159692465Y-64006120D01*
X159921273Y-64159005D01*
X160175510Y-64264314D01*
X160445408Y-64318000D01*
X160720592Y-64318000D01*
X160990490Y-64264314D01*
X161244727Y-64159005D01*
X161473535Y-64006120D01*
X161668120Y-63811535D01*
X161821005Y-63582727D01*
X161926314Y-63328490D01*
X161980000Y-63058592D01*
X161980000Y-62783408D01*
X161926314Y-62513510D01*
X161821005Y-62259273D01*
X161668120Y-62030465D01*
X161473535Y-61835880D01*
X161244727Y-61682995D01*
X160990490Y-61577686D01*
X160720592Y-61524000D01*
X160445408Y-61524000D01*
X160175510Y-61577686D01*
X159921273Y-61682995D01*
X159692465Y-61835880D01*
X159497880Y-62030465D01*
X159344995Y-62259273D01*
X159239686Y-62513510D01*
X159186000Y-62783408D01*
X148358699Y-62783408D01*
X148473475Y-62668632D01*
X148635990Y-62425411D01*
X148747932Y-62155158D01*
X148805000Y-61868260D01*
X148805000Y-61575740D01*
X148747932Y-61288842D01*
X148635990Y-61018589D01*
X148473475Y-60775368D01*
X148393107Y-60695000D01*
X169305000Y-60695000D01*
X169305001Y-119305000D01*
X120021848Y-119305000D01*
X118833946Y-119230264D01*
X117686278Y-119011335D01*
X116575107Y-118650293D01*
X115517944Y-118152829D01*
X114531467Y-117526792D01*
X113631230Y-116782051D01*
X112831433Y-115930355D01*
X112144688Y-114985130D01*
X111768035Y-114300000D01*
X125371525Y-114300000D01*
X125395370Y-114542102D01*
X125465989Y-114774901D01*
X125580667Y-114989449D01*
X125734998Y-115177502D01*
X125923051Y-115331833D01*
X126137599Y-115446511D01*
X126370398Y-115517130D01*
X126551835Y-115535000D01*
X127473165Y-115535000D01*
X127654602Y-115517130D01*
X127887401Y-115446511D01*
X128101949Y-115331833D01*
X128290002Y-115177502D01*
X128444333Y-114989449D01*
X128559011Y-114774901D01*
X128629630Y-114542102D01*
X128653475Y-114300000D01*
X140586525Y-114300000D01*
X140610370Y-114542102D01*
X140680989Y-114774901D01*
X140795667Y-114989449D01*
X140949998Y-115177502D01*
X141138051Y-115331833D01*
X141352599Y-115446511D01*
X141585398Y-115517130D01*
X141766835Y-115535000D01*
X142688165Y-115535000D01*
X142869602Y-115517130D01*
X143102401Y-115446511D01*
X143316949Y-115331833D01*
X143505002Y-115177502D01*
X143659333Y-114989449D01*
X143774011Y-114774901D01*
X143844630Y-114542102D01*
X143868475Y-114300000D01*
X143844630Y-114057898D01*
X143774011Y-113825099D01*
X143659333Y-113610551D01*
X143505002Y-113422498D01*
X143316949Y-113268167D01*
X143102401Y-113153489D01*
X142869602Y-113082870D01*
X142688165Y-113065000D01*
X141766835Y-113065000D01*
X141585398Y-113082870D01*
X141352599Y-113153489D01*
X141138051Y-113268167D01*
X140949998Y-113422498D01*
X140795667Y-113610551D01*
X140680989Y-113825099D01*
X140610370Y-114057898D01*
X140586525Y-114300000D01*
X128653475Y-114300000D01*
X128629630Y-114057898D01*
X128559011Y-113825099D01*
X128444333Y-113610551D01*
X128290002Y-113422498D01*
X128101949Y-113268167D01*
X127887401Y-113153489D01*
X127654602Y-113082870D01*
X127473165Y-113065000D01*
X126551835Y-113065000D01*
X126370398Y-113082870D01*
X126137599Y-113153489D01*
X125923051Y-113268167D01*
X125734998Y-113422498D01*
X125580667Y-113610551D01*
X125465989Y-113825099D01*
X125395370Y-114057898D01*
X125371525Y-114300000D01*
X111768035Y-114300000D01*
X111581828Y-113961292D01*
X111151725Y-112874977D01*
X110861167Y-111743329D01*
X110713360Y-110573313D01*
X110695000Y-109989083D01*
X110695000Y-109641984D01*
X116365000Y-109641984D01*
X116365000Y-110358016D01*
X116504691Y-111060290D01*
X116778705Y-111721818D01*
X117176511Y-112317177D01*
X117682823Y-112823489D01*
X118278182Y-113221295D01*
X118939710Y-113495309D01*
X119641984Y-113635000D01*
X120358016Y-113635000D01*
X121060290Y-113495309D01*
X121721818Y-113221295D01*
X122317177Y-112823489D01*
X122823489Y-112317177D01*
X122983563Y-112077609D01*
X125419038Y-112077609D01*
X125422909Y-112115282D01*
X125515079Y-112340533D01*
X125649422Y-112543474D01*
X125820775Y-112716307D01*
X126022554Y-112852390D01*
X126247004Y-112946493D01*
X126485500Y-112995000D01*
X126885500Y-112995000D01*
X126885500Y-111887000D01*
X127139500Y-111887000D01*
X127139500Y-112995000D01*
X127539500Y-112995000D01*
X127777996Y-112946493D01*
X128002446Y-112852390D01*
X128204225Y-112716307D01*
X128375578Y-112543474D01*
X128509921Y-112340533D01*
X128602091Y-112115282D01*
X128605962Y-112077609D01*
X128481231Y-111887000D01*
X127139500Y-111887000D01*
X126885500Y-111887000D01*
X125543769Y-111887000D01*
X125419038Y-112077609D01*
X122983563Y-112077609D01*
X123221295Y-111721818D01*
X123337037Y-111442391D01*
X125419038Y-111442391D01*
X125543769Y-111633000D01*
X126885500Y-111633000D01*
X126885500Y-110525000D01*
X127139500Y-110525000D01*
X127139500Y-111633000D01*
X128481231Y-111633000D01*
X128605962Y-111442391D01*
X128602091Y-111404718D01*
X128509921Y-111179467D01*
X128375578Y-110976526D01*
X128204225Y-110803693D01*
X128002446Y-110667610D01*
X127777996Y-110573507D01*
X127539500Y-110525000D01*
X127139500Y-110525000D01*
X126885500Y-110525000D01*
X126485500Y-110525000D01*
X126247004Y-110573507D01*
X126022554Y-110667610D01*
X125820775Y-110803693D01*
X125649422Y-110976526D01*
X125515079Y-111179467D01*
X125422909Y-111404718D01*
X125419038Y-111442391D01*
X123337037Y-111442391D01*
X123495309Y-111060290D01*
X123635000Y-110358016D01*
X123635000Y-109641984D01*
X123551063Y-109220000D01*
X125371525Y-109220000D01*
X125395370Y-109462102D01*
X125465989Y-109694901D01*
X125580667Y-109909449D01*
X125734998Y-110097502D01*
X125923051Y-110251833D01*
X126137599Y-110366511D01*
X126370398Y-110437130D01*
X126551835Y-110455000D01*
X127473165Y-110455000D01*
X127654602Y-110437130D01*
X127887401Y-110366511D01*
X127913785Y-110352408D01*
X129413000Y-110352408D01*
X129413000Y-110627592D01*
X129466686Y-110897490D01*
X129571995Y-111151727D01*
X129724880Y-111380535D01*
X129919465Y-111575120D01*
X130148273Y-111728005D01*
X130402510Y-111833314D01*
X130672408Y-111887000D01*
X130947592Y-111887000D01*
X131217490Y-111833314D01*
X131471727Y-111728005D01*
X131700535Y-111575120D01*
X131895120Y-111380535D01*
X132048005Y-111151727D01*
X132080000Y-111074485D01*
X132111995Y-111151727D01*
X132264880Y-111380535D01*
X132459465Y-111575120D01*
X132688273Y-111728005D01*
X132942510Y-111833314D01*
X133212408Y-111887000D01*
X133487592Y-111887000D01*
X133757490Y-111833314D01*
X134011727Y-111728005D01*
X134240535Y-111575120D01*
X134435120Y-111380535D01*
X134588005Y-111151727D01*
X134620000Y-111074485D01*
X134651995Y-111151727D01*
X134804880Y-111380535D01*
X134999465Y-111575120D01*
X135228273Y-111728005D01*
X135482510Y-111833314D01*
X135752408Y-111887000D01*
X136027592Y-111887000D01*
X136297490Y-111833314D01*
X136551727Y-111728005D01*
X136780535Y-111575120D01*
X136900090Y-111455565D01*
X137644040Y-111455565D01*
X137711020Y-111695656D01*
X137960048Y-111812756D01*
X138227135Y-111879023D01*
X138502017Y-111891910D01*
X138774133Y-111850922D01*
X139026462Y-111760000D01*
X140586525Y-111760000D01*
X140610370Y-112002102D01*
X140680989Y-112234901D01*
X140795667Y-112449449D01*
X140949998Y-112637502D01*
X141138051Y-112791833D01*
X141352599Y-112906511D01*
X141585398Y-112977130D01*
X141766835Y-112995000D01*
X142688165Y-112995000D01*
X142869602Y-112977130D01*
X143102401Y-112906511D01*
X143316949Y-112791833D01*
X143505002Y-112637502D01*
X143659333Y-112449449D01*
X143774011Y-112234901D01*
X143844630Y-112002102D01*
X143868475Y-111760000D01*
X143844630Y-111517898D01*
X143774011Y-111285099D01*
X143659333Y-111070551D01*
X143505002Y-110882498D01*
X143316949Y-110728167D01*
X143102401Y-110613489D01*
X142869602Y-110542870D01*
X142688165Y-110525000D01*
X141766835Y-110525000D01*
X141585398Y-110542870D01*
X141352599Y-110613489D01*
X141138051Y-110728167D01*
X140949998Y-110882498D01*
X140795667Y-111070551D01*
X140680989Y-111285099D01*
X140610370Y-111517898D01*
X140586525Y-111760000D01*
X139026462Y-111760000D01*
X139033023Y-111757636D01*
X139148980Y-111695656D01*
X139215960Y-111455565D01*
X138430000Y-110669605D01*
X137644040Y-111455565D01*
X136900090Y-111455565D01*
X136975120Y-111380535D01*
X137128005Y-111151727D01*
X137157692Y-111080057D01*
X137162364Y-111093023D01*
X137224344Y-111208980D01*
X137464435Y-111275960D01*
X138250395Y-110490000D01*
X138609605Y-110490000D01*
X139395565Y-111275960D01*
X139635656Y-111208980D01*
X139752756Y-110959952D01*
X139819023Y-110692865D01*
X139831910Y-110417983D01*
X139790922Y-110145867D01*
X139697636Y-109886977D01*
X139635656Y-109771020D01*
X139395565Y-109704040D01*
X138609605Y-110490000D01*
X138250395Y-110490000D01*
X137464435Y-109704040D01*
X137224344Y-109771020D01*
X137160515Y-109906760D01*
X137128005Y-109828273D01*
X136975120Y-109599465D01*
X136900090Y-109524435D01*
X137644040Y-109524435D01*
X138430000Y-110310395D01*
X139215960Y-109524435D01*
X139148980Y-109284344D01*
X139012145Y-109220000D01*
X140586525Y-109220000D01*
X140610370Y-109462102D01*
X140680989Y-109694901D01*
X140795667Y-109909449D01*
X140949998Y-110097502D01*
X141138051Y-110251833D01*
X141352599Y-110366511D01*
X141585398Y-110437130D01*
X141766835Y-110455000D01*
X142688165Y-110455000D01*
X142869602Y-110437130D01*
X143102401Y-110366511D01*
X143316949Y-110251833D01*
X143505002Y-110097502D01*
X143659333Y-109909449D01*
X143774011Y-109694901D01*
X143790063Y-109641984D01*
X148365000Y-109641984D01*
X148365000Y-110358016D01*
X148504691Y-111060290D01*
X148778705Y-111721818D01*
X149176511Y-112317177D01*
X149682823Y-112823489D01*
X150278182Y-113221295D01*
X150939710Y-113495309D01*
X151641984Y-113635000D01*
X152358016Y-113635000D01*
X153060290Y-113495309D01*
X153721818Y-113221295D01*
X154317177Y-112823489D01*
X154823489Y-112317177D01*
X155221295Y-111721818D01*
X155495309Y-111060290D01*
X155635000Y-110358016D01*
X155635000Y-109641984D01*
X155495309Y-108939710D01*
X155221295Y-108278182D01*
X154823489Y-107682823D01*
X154317177Y-107176511D01*
X153721818Y-106778705D01*
X153060290Y-106504691D01*
X152358016Y-106365000D01*
X151641984Y-106365000D01*
X150939710Y-106504691D01*
X150278182Y-106778705D01*
X149682823Y-107176511D01*
X149176511Y-107682823D01*
X148778705Y-108278182D01*
X148504691Y-108939710D01*
X148365000Y-109641984D01*
X143790063Y-109641984D01*
X143844630Y-109462102D01*
X143868475Y-109220000D01*
X143844630Y-108977898D01*
X143774011Y-108745099D01*
X143659333Y-108530551D01*
X143505002Y-108342498D01*
X143316949Y-108188167D01*
X143102401Y-108073489D01*
X142869602Y-108002870D01*
X142688165Y-107985000D01*
X141766835Y-107985000D01*
X141585398Y-108002870D01*
X141352599Y-108073489D01*
X141138051Y-108188167D01*
X140949998Y-108342498D01*
X140795667Y-108530551D01*
X140680989Y-108745099D01*
X140610370Y-108977898D01*
X140586525Y-109220000D01*
X139012145Y-109220000D01*
X138899952Y-109167244D01*
X138632865Y-109100977D01*
X138357983Y-109088090D01*
X138085867Y-109129078D01*
X137826977Y-109222364D01*
X137711020Y-109284344D01*
X137644040Y-109524435D01*
X136900090Y-109524435D01*
X136780535Y-109404880D01*
X136551727Y-109251995D01*
X136297490Y-109146686D01*
X136027592Y-109093000D01*
X135752408Y-109093000D01*
X135482510Y-109146686D01*
X135228273Y-109251995D01*
X134999465Y-109404880D01*
X134804880Y-109599465D01*
X134651995Y-109828273D01*
X134620000Y-109905515D01*
X134588005Y-109828273D01*
X134435120Y-109599465D01*
X134240535Y-109404880D01*
X134011727Y-109251995D01*
X133757490Y-109146686D01*
X133487592Y-109093000D01*
X133212408Y-109093000D01*
X132942510Y-109146686D01*
X132688273Y-109251995D01*
X132459465Y-109404880D01*
X132264880Y-109599465D01*
X132111995Y-109828273D01*
X132080000Y-109905515D01*
X132048005Y-109828273D01*
X131895120Y-109599465D01*
X131700535Y-109404880D01*
X131471727Y-109251995D01*
X131217490Y-109146686D01*
X130947592Y-109093000D01*
X130672408Y-109093000D01*
X130402510Y-109146686D01*
X130148273Y-109251995D01*
X129919465Y-109404880D01*
X129724880Y-109599465D01*
X129571995Y-109828273D01*
X129466686Y-110082510D01*
X129413000Y-110352408D01*
X127913785Y-110352408D01*
X128101949Y-110251833D01*
X128290002Y-110097502D01*
X128444333Y-109909449D01*
X128559011Y-109694901D01*
X128629630Y-109462102D01*
X128653475Y-109220000D01*
X128629630Y-108977898D01*
X128559011Y-108745099D01*
X128444333Y-108530551D01*
X128290002Y-108342498D01*
X128101949Y-108188167D01*
X127887401Y-108073489D01*
X127654602Y-108002870D01*
X127473165Y-107985000D01*
X126551835Y-107985000D01*
X126370398Y-108002870D01*
X126137599Y-108073489D01*
X125923051Y-108188167D01*
X125734998Y-108342498D01*
X125580667Y-108530551D01*
X125465989Y-108745099D01*
X125395370Y-108977898D01*
X125371525Y-109220000D01*
X123551063Y-109220000D01*
X123495309Y-108939710D01*
X123221295Y-108278182D01*
X122823489Y-107682823D01*
X122317177Y-107176511D01*
X121721818Y-106778705D01*
X121483524Y-106680000D01*
X125371525Y-106680000D01*
X125395370Y-106922102D01*
X125465989Y-107154901D01*
X125580667Y-107369449D01*
X125734998Y-107557502D01*
X125923051Y-107711833D01*
X126137599Y-107826511D01*
X126370398Y-107897130D01*
X126551835Y-107915000D01*
X127473165Y-107915000D01*
X127654602Y-107897130D01*
X127887401Y-107826511D01*
X128101949Y-107711833D01*
X128290002Y-107557502D01*
X128444333Y-107369449D01*
X128559011Y-107154901D01*
X128629630Y-106922102D01*
X128653475Y-106680000D01*
X140586525Y-106680000D01*
X140610370Y-106922102D01*
X140680989Y-107154901D01*
X140795667Y-107369449D01*
X140949998Y-107557502D01*
X141138051Y-107711833D01*
X141352599Y-107826511D01*
X141585398Y-107897130D01*
X141766835Y-107915000D01*
X142688165Y-107915000D01*
X142869602Y-107897130D01*
X143102401Y-107826511D01*
X143316949Y-107711833D01*
X143505002Y-107557502D01*
X143659333Y-107369449D01*
X143774011Y-107154901D01*
X143844630Y-106922102D01*
X143868475Y-106680000D01*
X143844630Y-106437898D01*
X143774011Y-106205099D01*
X143659333Y-105990551D01*
X143505002Y-105802498D01*
X143316949Y-105648167D01*
X143102401Y-105533489D01*
X142869602Y-105462870D01*
X142688165Y-105445000D01*
X141766835Y-105445000D01*
X141585398Y-105462870D01*
X141352599Y-105533489D01*
X141138051Y-105648167D01*
X140949998Y-105802498D01*
X140795667Y-105990551D01*
X140680989Y-106205099D01*
X140610370Y-106437898D01*
X140586525Y-106680000D01*
X128653475Y-106680000D01*
X128629630Y-106437898D01*
X128559011Y-106205099D01*
X128444333Y-105990551D01*
X128290002Y-105802498D01*
X128101949Y-105648167D01*
X127887401Y-105533489D01*
X127654602Y-105462870D01*
X127473165Y-105445000D01*
X126551835Y-105445000D01*
X126370398Y-105462870D01*
X126137599Y-105533489D01*
X125923051Y-105648167D01*
X125734998Y-105802498D01*
X125580667Y-105990551D01*
X125465989Y-106205099D01*
X125395370Y-106437898D01*
X125371525Y-106680000D01*
X121483524Y-106680000D01*
X121060290Y-106504691D01*
X120358016Y-106365000D01*
X119641984Y-106365000D01*
X118939710Y-106504691D01*
X118278182Y-106778705D01*
X117682823Y-107176511D01*
X117176511Y-107682823D01*
X116778705Y-108278182D01*
X116504691Y-108939710D01*
X116365000Y-109641984D01*
X110695000Y-109641984D01*
X110695000Y-104140000D01*
X125371525Y-104140000D01*
X125395370Y-104382102D01*
X125465989Y-104614901D01*
X125580667Y-104829449D01*
X125734998Y-105017502D01*
X125923051Y-105171833D01*
X126137599Y-105286511D01*
X126370398Y-105357130D01*
X126551835Y-105375000D01*
X127473165Y-105375000D01*
X127654602Y-105357130D01*
X127887401Y-105286511D01*
X128101949Y-105171833D01*
X128290002Y-105017502D01*
X128444333Y-104829449D01*
X128559011Y-104614901D01*
X128629630Y-104382102D01*
X128653475Y-104140000D01*
X140586525Y-104140000D01*
X140610370Y-104382102D01*
X140680989Y-104614901D01*
X140795667Y-104829449D01*
X140949998Y-105017502D01*
X141138051Y-105171833D01*
X141352599Y-105286511D01*
X141585398Y-105357130D01*
X141766835Y-105375000D01*
X142688165Y-105375000D01*
X142869602Y-105357130D01*
X143102401Y-105286511D01*
X143316949Y-105171833D01*
X143505002Y-105017502D01*
X143659333Y-104829449D01*
X143774011Y-104614901D01*
X143844630Y-104382102D01*
X143868475Y-104140000D01*
X143844630Y-103897898D01*
X143774011Y-103665099D01*
X143659333Y-103450551D01*
X143505002Y-103262498D01*
X143316949Y-103108167D01*
X143102401Y-102993489D01*
X142869602Y-102922870D01*
X142688165Y-102905000D01*
X141766835Y-102905000D01*
X141585398Y-102922870D01*
X141352599Y-102993489D01*
X141138051Y-103108167D01*
X140949998Y-103262498D01*
X140795667Y-103450551D01*
X140680989Y-103665099D01*
X140610370Y-103897898D01*
X140586525Y-104140000D01*
X128653475Y-104140000D01*
X128629630Y-103897898D01*
X128559011Y-103665099D01*
X128444333Y-103450551D01*
X128290002Y-103262498D01*
X128101949Y-103108167D01*
X127887401Y-102993489D01*
X127654602Y-102922870D01*
X127473165Y-102905000D01*
X126551835Y-102905000D01*
X126370398Y-102922870D01*
X126137599Y-102993489D01*
X125923051Y-103108167D01*
X125734998Y-103262498D01*
X125580667Y-103450551D01*
X125465989Y-103665099D01*
X125395370Y-103897898D01*
X125371525Y-104140000D01*
X110695000Y-104140000D01*
X110695000Y-101600000D01*
X125371525Y-101600000D01*
X125395370Y-101842102D01*
X125465989Y-102074901D01*
X125580667Y-102289449D01*
X125734998Y-102477502D01*
X125923051Y-102631833D01*
X126137599Y-102746511D01*
X126370398Y-102817130D01*
X126551835Y-102835000D01*
X127473165Y-102835000D01*
X127654602Y-102817130D01*
X127887401Y-102746511D01*
X128101949Y-102631833D01*
X128290002Y-102477502D01*
X128444333Y-102289449D01*
X128559011Y-102074901D01*
X128629630Y-101842102D01*
X128653475Y-101600000D01*
X140586525Y-101600000D01*
X140610370Y-101842102D01*
X140680989Y-102074901D01*
X140795667Y-102289449D01*
X140949998Y-102477502D01*
X141138051Y-102631833D01*
X141352599Y-102746511D01*
X141585398Y-102817130D01*
X141766835Y-102835000D01*
X142688165Y-102835000D01*
X142869602Y-102817130D01*
X143102401Y-102746511D01*
X143316949Y-102631833D01*
X143505002Y-102477502D01*
X143659333Y-102289449D01*
X143774011Y-102074901D01*
X143844630Y-101842102D01*
X143868475Y-101600000D01*
X143844630Y-101357898D01*
X143774011Y-101125099D01*
X143659333Y-100910551D01*
X143505002Y-100722498D01*
X143316949Y-100568167D01*
X143102401Y-100453489D01*
X142869602Y-100382870D01*
X142688165Y-100365000D01*
X141766835Y-100365000D01*
X141585398Y-100382870D01*
X141352599Y-100453489D01*
X141138051Y-100568167D01*
X140949998Y-100722498D01*
X140795667Y-100910551D01*
X140680989Y-101125099D01*
X140610370Y-101357898D01*
X140586525Y-101600000D01*
X128653475Y-101600000D01*
X128629630Y-101357898D01*
X128559011Y-101125099D01*
X128444333Y-100910551D01*
X128290002Y-100722498D01*
X128101949Y-100568167D01*
X127887401Y-100453489D01*
X127654602Y-100382870D01*
X127473165Y-100365000D01*
X126551835Y-100365000D01*
X126370398Y-100382870D01*
X126137599Y-100453489D01*
X125923051Y-100568167D01*
X125734998Y-100722498D01*
X125580667Y-100910551D01*
X125465989Y-101125099D01*
X125395370Y-101357898D01*
X125371525Y-101600000D01*
X110695000Y-101600000D01*
X110695000Y-99910000D01*
X112113428Y-99910000D01*
X112125688Y-100034482D01*
X112161998Y-100154180D01*
X112220963Y-100264494D01*
X112300315Y-100361185D01*
X112397006Y-100440537D01*
X112507320Y-100499502D01*
X112627018Y-100535812D01*
X112751500Y-100548072D01*
X113315750Y-100545000D01*
X113474500Y-100386250D01*
X113474500Y-99187000D01*
X112275250Y-99187000D01*
X112116500Y-99345750D01*
X112113428Y-99910000D01*
X110695000Y-99910000D01*
X110695000Y-97370000D01*
X112113428Y-97370000D01*
X112125688Y-97494482D01*
X112161998Y-97614180D01*
X112220963Y-97724494D01*
X112274722Y-97790000D01*
X112220963Y-97855506D01*
X112161998Y-97965820D01*
X112125688Y-98085518D01*
X112113428Y-98210000D01*
X112116500Y-98774250D01*
X112275250Y-98933000D01*
X113474500Y-98933000D01*
X113474500Y-96647000D01*
X112275250Y-96647000D01*
X112116500Y-96805750D01*
X112113428Y-97370000D01*
X110695000Y-97370000D01*
X110695000Y-94830000D01*
X112113428Y-94830000D01*
X112125688Y-94954482D01*
X112161998Y-95074180D01*
X112220963Y-95184494D01*
X112274722Y-95250000D01*
X112220963Y-95315506D01*
X112161998Y-95425820D01*
X112125688Y-95545518D01*
X112113428Y-95670000D01*
X112116500Y-96234250D01*
X112275250Y-96393000D01*
X113474500Y-96393000D01*
X113474500Y-94107000D01*
X112275250Y-94107000D01*
X112116500Y-94265750D01*
X112113428Y-94830000D01*
X110695000Y-94830000D01*
X110695000Y-92290000D01*
X112113428Y-92290000D01*
X112125688Y-92414482D01*
X112161998Y-92534180D01*
X112220963Y-92644494D01*
X112274722Y-92710000D01*
X112220963Y-92775506D01*
X112161998Y-92885820D01*
X112125688Y-93005518D01*
X112113428Y-93130000D01*
X112116500Y-93694250D01*
X112275250Y-93853000D01*
X113474500Y-93853000D01*
X113474500Y-91567000D01*
X112275250Y-91567000D01*
X112116500Y-91725750D01*
X112113428Y-92290000D01*
X110695000Y-92290000D01*
X110695000Y-89750000D01*
X112113428Y-89750000D01*
X112125688Y-89874482D01*
X112161998Y-89994180D01*
X112220963Y-90104494D01*
X112274722Y-90170000D01*
X112220963Y-90235506D01*
X112161998Y-90345820D01*
X112125688Y-90465518D01*
X112113428Y-90590000D01*
X112116500Y-91154250D01*
X112275250Y-91313000D01*
X113474500Y-91313000D01*
X113474500Y-89027000D01*
X112275250Y-89027000D01*
X112116500Y-89185750D01*
X112113428Y-89750000D01*
X110695000Y-89750000D01*
X110695000Y-87210000D01*
X112113428Y-87210000D01*
X112125688Y-87334482D01*
X112161998Y-87454180D01*
X112220963Y-87564494D01*
X112274722Y-87630000D01*
X112220963Y-87695506D01*
X112161998Y-87805820D01*
X112125688Y-87925518D01*
X112113428Y-88050000D01*
X112116500Y-88614250D01*
X112275250Y-88773000D01*
X113474500Y-88773000D01*
X113474500Y-86487000D01*
X112275250Y-86487000D01*
X112116500Y-86645750D01*
X112113428Y-87210000D01*
X110695000Y-87210000D01*
X110695000Y-84670000D01*
X112113428Y-84670000D01*
X112125688Y-84794482D01*
X112161998Y-84914180D01*
X112220963Y-85024494D01*
X112274722Y-85090000D01*
X112220963Y-85155506D01*
X112161998Y-85265820D01*
X112125688Y-85385518D01*
X112113428Y-85510000D01*
X112116500Y-86074250D01*
X112275250Y-86233000D01*
X113474500Y-86233000D01*
X113474500Y-83947000D01*
X112275250Y-83947000D01*
X112116500Y-84105750D01*
X112113428Y-84670000D01*
X110695000Y-84670000D01*
X110695000Y-82130000D01*
X112113428Y-82130000D01*
X112125688Y-82254482D01*
X112161998Y-82374180D01*
X112220963Y-82484494D01*
X112274722Y-82550000D01*
X112220963Y-82615506D01*
X112161998Y-82725820D01*
X112125688Y-82845518D01*
X112113428Y-82970000D01*
X112116500Y-83534250D01*
X112275250Y-83693000D01*
X113474500Y-83693000D01*
X113474500Y-81407000D01*
X112275250Y-81407000D01*
X112116500Y-81565750D01*
X112113428Y-82130000D01*
X110695000Y-82130000D01*
X110695000Y-80430000D01*
X112113428Y-80430000D01*
X112116500Y-80994250D01*
X112275250Y-81153000D01*
X113474500Y-81153000D01*
X113474500Y-79953750D01*
X113728500Y-79953750D01*
X113728500Y-81153000D01*
X113748500Y-81153000D01*
X113748500Y-81407000D01*
X113728500Y-81407000D01*
X113728500Y-83693000D01*
X113748500Y-83693000D01*
X113748500Y-83947000D01*
X113728500Y-83947000D01*
X113728500Y-86233000D01*
X113748500Y-86233000D01*
X113748500Y-86487000D01*
X113728500Y-86487000D01*
X113728500Y-88773000D01*
X113748500Y-88773000D01*
X113748500Y-89027000D01*
X113728500Y-89027000D01*
X113728500Y-91313000D01*
X113748500Y-91313000D01*
X113748500Y-91567000D01*
X113728500Y-91567000D01*
X113728500Y-93853000D01*
X113748500Y-93853000D01*
X113748500Y-94107000D01*
X113728500Y-94107000D01*
X113728500Y-96393000D01*
X113748500Y-96393000D01*
X113748500Y-96647000D01*
X113728500Y-96647000D01*
X113728500Y-98933000D01*
X113748500Y-98933000D01*
X113748500Y-99187000D01*
X113728500Y-99187000D01*
X113728500Y-100386250D01*
X113887250Y-100545000D01*
X114451500Y-100548072D01*
X114575982Y-100535812D01*
X114695680Y-100499502D01*
X114805994Y-100440537D01*
X114902685Y-100361185D01*
X114982037Y-100264494D01*
X115041002Y-100154180D01*
X115063013Y-100081620D01*
X115194868Y-100213475D01*
X115438089Y-100375990D01*
X115708342Y-100487932D01*
X115995240Y-100545000D01*
X116287760Y-100545000D01*
X116574658Y-100487932D01*
X116844911Y-100375990D01*
X117088132Y-100213475D01*
X117294975Y-100006632D01*
X117411500Y-99832240D01*
X117528025Y-100006632D01*
X117734868Y-100213475D01*
X117978089Y-100375990D01*
X118248342Y-100487932D01*
X118535240Y-100545000D01*
X118827760Y-100545000D01*
X119114658Y-100487932D01*
X119384911Y-100375990D01*
X119628132Y-100213475D01*
X119834975Y-100006632D01*
X119997490Y-99763411D01*
X120109432Y-99493158D01*
X120166500Y-99206260D01*
X120166500Y-99060000D01*
X125371525Y-99060000D01*
X125395370Y-99302102D01*
X125465989Y-99534901D01*
X125580667Y-99749449D01*
X125734998Y-99937502D01*
X125923051Y-100091833D01*
X126137599Y-100206511D01*
X126370398Y-100277130D01*
X126551835Y-100295000D01*
X127473165Y-100295000D01*
X127654602Y-100277130D01*
X127887401Y-100206511D01*
X128101949Y-100091833D01*
X128290002Y-99937502D01*
X128444333Y-99749449D01*
X128559011Y-99534901D01*
X128629630Y-99302102D01*
X128653475Y-99060000D01*
X140586525Y-99060000D01*
X140610370Y-99302102D01*
X140680989Y-99534901D01*
X140795667Y-99749449D01*
X140949998Y-99937502D01*
X141138051Y-100091833D01*
X141352599Y-100206511D01*
X141585398Y-100277130D01*
X141766835Y-100295000D01*
X142688165Y-100295000D01*
X142869602Y-100277130D01*
X143102401Y-100206511D01*
X143316949Y-100091833D01*
X143505002Y-99937502D01*
X143659333Y-99749449D01*
X143774011Y-99534901D01*
X143844630Y-99302102D01*
X143868475Y-99060000D01*
X143844630Y-98817898D01*
X143774011Y-98585099D01*
X143659333Y-98370551D01*
X143505002Y-98182498D01*
X143316949Y-98028167D01*
X143102401Y-97913489D01*
X142869602Y-97842870D01*
X142688165Y-97825000D01*
X141766835Y-97825000D01*
X141585398Y-97842870D01*
X141352599Y-97913489D01*
X141138051Y-98028167D01*
X140949998Y-98182498D01*
X140795667Y-98370551D01*
X140680989Y-98585099D01*
X140610370Y-98817898D01*
X140586525Y-99060000D01*
X128653475Y-99060000D01*
X128629630Y-98817898D01*
X128559011Y-98585099D01*
X128444333Y-98370551D01*
X128290002Y-98182498D01*
X128101949Y-98028167D01*
X127887401Y-97913489D01*
X127654602Y-97842870D01*
X127473165Y-97825000D01*
X126551835Y-97825000D01*
X126370398Y-97842870D01*
X126137599Y-97913489D01*
X125923051Y-98028167D01*
X125734998Y-98182498D01*
X125580667Y-98370551D01*
X125465989Y-98585099D01*
X125395370Y-98817898D01*
X125371525Y-99060000D01*
X120166500Y-99060000D01*
X120166500Y-98913740D01*
X120109432Y-98626842D01*
X119997490Y-98356589D01*
X119834975Y-98113368D01*
X119628132Y-97906525D01*
X119453740Y-97790000D01*
X119628132Y-97673475D01*
X119834975Y-97466632D01*
X119997490Y-97223411D01*
X120109432Y-96953158D01*
X120166500Y-96666260D01*
X120166500Y-96520000D01*
X125371525Y-96520000D01*
X125395370Y-96762102D01*
X125465989Y-96994901D01*
X125580667Y-97209449D01*
X125734998Y-97397502D01*
X125923051Y-97551833D01*
X126137599Y-97666511D01*
X126370398Y-97737130D01*
X126551835Y-97755000D01*
X127473165Y-97755000D01*
X127654602Y-97737130D01*
X127887401Y-97666511D01*
X128101949Y-97551833D01*
X128290002Y-97397502D01*
X128444333Y-97209449D01*
X128559011Y-96994901D01*
X128629630Y-96762102D01*
X128653475Y-96520000D01*
X128629630Y-96277898D01*
X128559011Y-96045099D01*
X128444333Y-95830551D01*
X128290002Y-95642498D01*
X128101949Y-95488167D01*
X127887401Y-95373489D01*
X127654602Y-95302870D01*
X127473165Y-95285000D01*
X126551835Y-95285000D01*
X126370398Y-95302870D01*
X126137599Y-95373489D01*
X125923051Y-95488167D01*
X125734998Y-95642498D01*
X125580667Y-95830551D01*
X125465989Y-96045099D01*
X125395370Y-96277898D01*
X125371525Y-96520000D01*
X120166500Y-96520000D01*
X120166500Y-96373740D01*
X120109432Y-96086842D01*
X119997490Y-95816589D01*
X119834975Y-95573368D01*
X119628132Y-95366525D01*
X119453740Y-95250000D01*
X119628132Y-95133475D01*
X119834975Y-94926632D01*
X119997490Y-94683411D01*
X120109432Y-94413158D01*
X120166500Y-94126260D01*
X120166500Y-93980000D01*
X125371525Y-93980000D01*
X125395370Y-94222102D01*
X125465989Y-94454901D01*
X125580667Y-94669449D01*
X125734998Y-94857502D01*
X125923051Y-95011833D01*
X126137599Y-95126511D01*
X126370398Y-95197130D01*
X126551835Y-95215000D01*
X127473165Y-95215000D01*
X127654602Y-95197130D01*
X127887401Y-95126511D01*
X128101949Y-95011833D01*
X128290002Y-94857502D01*
X128444333Y-94669449D01*
X128559011Y-94454901D01*
X128629630Y-94222102D01*
X128653475Y-93980000D01*
X128629630Y-93737898D01*
X128559011Y-93505099D01*
X128444333Y-93290551D01*
X128290002Y-93102498D01*
X128101949Y-92948167D01*
X127887401Y-92833489D01*
X127654602Y-92762870D01*
X127473165Y-92745000D01*
X126551835Y-92745000D01*
X126370398Y-92762870D01*
X126137599Y-92833489D01*
X125923051Y-92948167D01*
X125734998Y-93102498D01*
X125580667Y-93290551D01*
X125465989Y-93505099D01*
X125395370Y-93737898D01*
X125371525Y-93980000D01*
X120166500Y-93980000D01*
X120166500Y-93833740D01*
X120109432Y-93546842D01*
X119997490Y-93276589D01*
X119834975Y-93033368D01*
X119628132Y-92826525D01*
X119453740Y-92710000D01*
X119628132Y-92593475D01*
X119834975Y-92386632D01*
X119997490Y-92143411D01*
X120109432Y-91873158D01*
X120166500Y-91586260D01*
X120166500Y-91440000D01*
X125371525Y-91440000D01*
X125395370Y-91682102D01*
X125465989Y-91914901D01*
X125580667Y-92129449D01*
X125734998Y-92317502D01*
X125923051Y-92471833D01*
X126137599Y-92586511D01*
X126370398Y-92657130D01*
X126551835Y-92675000D01*
X127473165Y-92675000D01*
X127654602Y-92657130D01*
X127887401Y-92586511D01*
X128101949Y-92471833D01*
X128290002Y-92317502D01*
X128444333Y-92129449D01*
X128559011Y-91914901D01*
X128629630Y-91682102D01*
X128653475Y-91440000D01*
X140586525Y-91440000D01*
X140610370Y-91682102D01*
X140680989Y-91914901D01*
X140795667Y-92129449D01*
X140949998Y-92317502D01*
X141138051Y-92471833D01*
X141352599Y-92586511D01*
X141585398Y-92657130D01*
X141766835Y-92675000D01*
X142364133Y-92675000D01*
X142294133Y-92745000D01*
X141766835Y-92745000D01*
X141585398Y-92762870D01*
X141352599Y-92833489D01*
X141138051Y-92948167D01*
X140949998Y-93102498D01*
X140795667Y-93290551D01*
X140680989Y-93505099D01*
X140610370Y-93737898D01*
X140586525Y-93980000D01*
X140610370Y-94222102D01*
X140680989Y-94454901D01*
X140795667Y-94669449D01*
X140949998Y-94857502D01*
X141138051Y-95011833D01*
X141352599Y-95126511D01*
X141585398Y-95197130D01*
X141766835Y-95215000D01*
X142364133Y-95215000D01*
X142294133Y-95285000D01*
X141766835Y-95285000D01*
X141585398Y-95302870D01*
X141352599Y-95373489D01*
X141138051Y-95488167D01*
X140949998Y-95642498D01*
X140795667Y-95830551D01*
X140680989Y-96045099D01*
X140610370Y-96277898D01*
X140586525Y-96520000D01*
X140610370Y-96762102D01*
X140680989Y-96994901D01*
X140795667Y-97209449D01*
X140949998Y-97397502D01*
X141138051Y-97551833D01*
X141352599Y-97666511D01*
X141585398Y-97737130D01*
X141766835Y-97755000D01*
X142688165Y-97755000D01*
X142869602Y-97737130D01*
X143102401Y-97666511D01*
X143316949Y-97551833D01*
X143505002Y-97397502D01*
X143659333Y-97209449D01*
X143766613Y-97008740D01*
X160550000Y-97008740D01*
X160550000Y-97301260D01*
X160607068Y-97588158D01*
X160719010Y-97858411D01*
X160881525Y-98101632D01*
X161088368Y-98308475D01*
X161262760Y-98425000D01*
X161088368Y-98541525D01*
X160881525Y-98748368D01*
X160719010Y-98991589D01*
X160607068Y-99261842D01*
X160550000Y-99548740D01*
X160550000Y-99841260D01*
X160607068Y-100128158D01*
X160719010Y-100398411D01*
X160881525Y-100641632D01*
X161088368Y-100848475D01*
X161262760Y-100965000D01*
X161088368Y-101081525D01*
X160881525Y-101288368D01*
X160719010Y-101531589D01*
X160607068Y-101801842D01*
X160550000Y-102088740D01*
X160550000Y-102381260D01*
X160607068Y-102668158D01*
X160719010Y-102938411D01*
X160881525Y-103181632D01*
X161088368Y-103388475D01*
X161262760Y-103505000D01*
X161088368Y-103621525D01*
X160881525Y-103828368D01*
X160719010Y-104071589D01*
X160607068Y-104341842D01*
X160550000Y-104628740D01*
X160550000Y-104921260D01*
X160607068Y-105208158D01*
X160719010Y-105478411D01*
X160881525Y-105721632D01*
X161088368Y-105928475D01*
X161262760Y-106045000D01*
X161088368Y-106161525D01*
X160881525Y-106368368D01*
X160719010Y-106611589D01*
X160607068Y-106881842D01*
X160550000Y-107168740D01*
X160550000Y-107461260D01*
X160607068Y-107748158D01*
X160719010Y-108018411D01*
X160881525Y-108261632D01*
X161088368Y-108468475D01*
X161262760Y-108585000D01*
X161088368Y-108701525D01*
X160881525Y-108908368D01*
X160719010Y-109151589D01*
X160607068Y-109421842D01*
X160550000Y-109708740D01*
X160550000Y-110001260D01*
X160607068Y-110288158D01*
X160719010Y-110558411D01*
X160881525Y-110801632D01*
X161088368Y-111008475D01*
X161262760Y-111125000D01*
X161088368Y-111241525D01*
X160881525Y-111448368D01*
X160719010Y-111691589D01*
X160607068Y-111961842D01*
X160550000Y-112248740D01*
X160550000Y-112541260D01*
X160607068Y-112828158D01*
X160719010Y-113098411D01*
X160881525Y-113341632D01*
X161088368Y-113548475D01*
X161262760Y-113665000D01*
X161088368Y-113781525D01*
X160881525Y-113988368D01*
X160719010Y-114231589D01*
X160607068Y-114501842D01*
X160550000Y-114788740D01*
X160550000Y-115081260D01*
X160607068Y-115368158D01*
X160719010Y-115638411D01*
X160881525Y-115881632D01*
X161088368Y-116088475D01*
X161331589Y-116250990D01*
X161601842Y-116362932D01*
X161888740Y-116420000D01*
X162181260Y-116420000D01*
X162468158Y-116362932D01*
X162738411Y-116250990D01*
X162981632Y-116088475D01*
X163188475Y-115881632D01*
X163305000Y-115707240D01*
X163421525Y-115881632D01*
X163628368Y-116088475D01*
X163871589Y-116250990D01*
X164141842Y-116362932D01*
X164428740Y-116420000D01*
X164721260Y-116420000D01*
X165008158Y-116362932D01*
X165278411Y-116250990D01*
X165521632Y-116088475D01*
X165653487Y-115956620D01*
X165675498Y-116029180D01*
X165734463Y-116139494D01*
X165813815Y-116236185D01*
X165910506Y-116315537D01*
X166020820Y-116374502D01*
X166140518Y-116410812D01*
X166265000Y-116423072D01*
X166829250Y-116420000D01*
X166988000Y-116261250D01*
X166988000Y-115062000D01*
X167242000Y-115062000D01*
X167242000Y-116261250D01*
X167400750Y-116420000D01*
X167965000Y-116423072D01*
X168089482Y-116410812D01*
X168209180Y-116374502D01*
X168319494Y-116315537D01*
X168416185Y-116236185D01*
X168495537Y-116139494D01*
X168554502Y-116029180D01*
X168590812Y-115909482D01*
X168603072Y-115785000D01*
X168600000Y-115220750D01*
X168441250Y-115062000D01*
X167242000Y-115062000D01*
X166988000Y-115062000D01*
X166968000Y-115062000D01*
X166968000Y-114808000D01*
X166988000Y-114808000D01*
X166988000Y-112522000D01*
X167242000Y-112522000D01*
X167242000Y-114808000D01*
X168441250Y-114808000D01*
X168600000Y-114649250D01*
X168603072Y-114085000D01*
X168590812Y-113960518D01*
X168554502Y-113840820D01*
X168495537Y-113730506D01*
X168441778Y-113665000D01*
X168495537Y-113599494D01*
X168554502Y-113489180D01*
X168590812Y-113369482D01*
X168603072Y-113245000D01*
X168600000Y-112680750D01*
X168441250Y-112522000D01*
X167242000Y-112522000D01*
X166988000Y-112522000D01*
X166968000Y-112522000D01*
X166968000Y-112268000D01*
X166988000Y-112268000D01*
X166988000Y-109982000D01*
X167242000Y-109982000D01*
X167242000Y-112268000D01*
X168441250Y-112268000D01*
X168600000Y-112109250D01*
X168603072Y-111545000D01*
X168590812Y-111420518D01*
X168554502Y-111300820D01*
X168495537Y-111190506D01*
X168441778Y-111125000D01*
X168495537Y-111059494D01*
X168554502Y-110949180D01*
X168590812Y-110829482D01*
X168603072Y-110705000D01*
X168600000Y-110140750D01*
X168441250Y-109982000D01*
X167242000Y-109982000D01*
X166988000Y-109982000D01*
X166968000Y-109982000D01*
X166968000Y-109728000D01*
X166988000Y-109728000D01*
X166988000Y-107442000D01*
X167242000Y-107442000D01*
X167242000Y-109728000D01*
X168441250Y-109728000D01*
X168600000Y-109569250D01*
X168603072Y-109005000D01*
X168590812Y-108880518D01*
X168554502Y-108760820D01*
X168495537Y-108650506D01*
X168441778Y-108585000D01*
X168495537Y-108519494D01*
X168554502Y-108409180D01*
X168590812Y-108289482D01*
X168603072Y-108165000D01*
X168600000Y-107600750D01*
X168441250Y-107442000D01*
X167242000Y-107442000D01*
X166988000Y-107442000D01*
X166968000Y-107442000D01*
X166968000Y-107188000D01*
X166988000Y-107188000D01*
X166988000Y-104902000D01*
X167242000Y-104902000D01*
X167242000Y-107188000D01*
X168441250Y-107188000D01*
X168600000Y-107029250D01*
X168603072Y-106465000D01*
X168590812Y-106340518D01*
X168554502Y-106220820D01*
X168495537Y-106110506D01*
X168441778Y-106045000D01*
X168495537Y-105979494D01*
X168554502Y-105869180D01*
X168590812Y-105749482D01*
X168603072Y-105625000D01*
X168600000Y-105060750D01*
X168441250Y-104902000D01*
X167242000Y-104902000D01*
X166988000Y-104902000D01*
X166968000Y-104902000D01*
X166968000Y-104648000D01*
X166988000Y-104648000D01*
X166988000Y-102362000D01*
X167242000Y-102362000D01*
X167242000Y-104648000D01*
X168441250Y-104648000D01*
X168600000Y-104489250D01*
X168603072Y-103925000D01*
X168590812Y-103800518D01*
X168554502Y-103680820D01*
X168495537Y-103570506D01*
X168441778Y-103505000D01*
X168495537Y-103439494D01*
X168554502Y-103329180D01*
X168590812Y-103209482D01*
X168603072Y-103085000D01*
X168600000Y-102520750D01*
X168441250Y-102362000D01*
X167242000Y-102362000D01*
X166988000Y-102362000D01*
X166968000Y-102362000D01*
X166968000Y-102108000D01*
X166988000Y-102108000D01*
X166988000Y-99822000D01*
X167242000Y-99822000D01*
X167242000Y-102108000D01*
X168441250Y-102108000D01*
X168600000Y-101949250D01*
X168603072Y-101385000D01*
X168590812Y-101260518D01*
X168554502Y-101140820D01*
X168495537Y-101030506D01*
X168441778Y-100965000D01*
X168495537Y-100899494D01*
X168554502Y-100789180D01*
X168590812Y-100669482D01*
X168603072Y-100545000D01*
X168600000Y-99980750D01*
X168441250Y-99822000D01*
X167242000Y-99822000D01*
X166988000Y-99822000D01*
X166968000Y-99822000D01*
X166968000Y-99568000D01*
X166988000Y-99568000D01*
X166988000Y-97282000D01*
X167242000Y-97282000D01*
X167242000Y-99568000D01*
X168441250Y-99568000D01*
X168600000Y-99409250D01*
X168603072Y-98845000D01*
X168590812Y-98720518D01*
X168554502Y-98600820D01*
X168495537Y-98490506D01*
X168441778Y-98425000D01*
X168495537Y-98359494D01*
X168554502Y-98249180D01*
X168590812Y-98129482D01*
X168603072Y-98005000D01*
X168600000Y-97440750D01*
X168441250Y-97282000D01*
X167242000Y-97282000D01*
X166988000Y-97282000D01*
X166968000Y-97282000D01*
X166968000Y-97028000D01*
X166988000Y-97028000D01*
X166988000Y-95828750D01*
X167242000Y-95828750D01*
X167242000Y-97028000D01*
X168441250Y-97028000D01*
X168600000Y-96869250D01*
X168603072Y-96305000D01*
X168590812Y-96180518D01*
X168554502Y-96060820D01*
X168495537Y-95950506D01*
X168416185Y-95853815D01*
X168319494Y-95774463D01*
X168209180Y-95715498D01*
X168089482Y-95679188D01*
X167965000Y-95666928D01*
X167400750Y-95670000D01*
X167242000Y-95828750D01*
X166988000Y-95828750D01*
X166829250Y-95670000D01*
X166265000Y-95666928D01*
X166140518Y-95679188D01*
X166020820Y-95715498D01*
X165910506Y-95774463D01*
X165813815Y-95853815D01*
X165734463Y-95950506D01*
X165675498Y-96060820D01*
X165653487Y-96133380D01*
X165521632Y-96001525D01*
X165278411Y-95839010D01*
X165008158Y-95727068D01*
X164721260Y-95670000D01*
X164428740Y-95670000D01*
X164141842Y-95727068D01*
X163871589Y-95839010D01*
X163628368Y-96001525D01*
X163421525Y-96208368D01*
X163305000Y-96382760D01*
X163188475Y-96208368D01*
X162981632Y-96001525D01*
X162738411Y-95839010D01*
X162468158Y-95727068D01*
X162181260Y-95670000D01*
X161888740Y-95670000D01*
X161601842Y-95727068D01*
X161331589Y-95839010D01*
X161088368Y-96001525D01*
X160881525Y-96208368D01*
X160719010Y-96451589D01*
X160607068Y-96721842D01*
X160550000Y-97008740D01*
X143766613Y-97008740D01*
X143774011Y-96994901D01*
X143844630Y-96762102D01*
X143868475Y-96520000D01*
X143844630Y-96277898D01*
X143802349Y-96138518D01*
X153380868Y-86560000D01*
X156348077Y-86560000D01*
X156244995Y-86714273D01*
X156139686Y-86968510D01*
X156086000Y-87238408D01*
X156086000Y-87513592D01*
X156139686Y-87783490D01*
X156244995Y-88037727D01*
X156397880Y-88266535D01*
X156592465Y-88461120D01*
X156821273Y-88614005D01*
X157075510Y-88719314D01*
X157345408Y-88773000D01*
X157620592Y-88773000D01*
X157890490Y-88719314D01*
X158144727Y-88614005D01*
X158373535Y-88461120D01*
X158568120Y-88266535D01*
X158626920Y-88178535D01*
X158635188Y-88262482D01*
X158671498Y-88382180D01*
X158730463Y-88492494D01*
X158809815Y-88589185D01*
X158906506Y-88668537D01*
X159016820Y-88727502D01*
X159136518Y-88763812D01*
X159261000Y-88776072D01*
X159737250Y-88773000D01*
X159896000Y-88614250D01*
X159896000Y-87503000D01*
X159876000Y-87503000D01*
X159876000Y-87249000D01*
X159896000Y-87249000D01*
X159896000Y-87229000D01*
X160150000Y-87229000D01*
X160150000Y-87249000D01*
X160170000Y-87249000D01*
X160170000Y-87503000D01*
X160150000Y-87503000D01*
X160150000Y-88614250D01*
X160308750Y-88773000D01*
X160785000Y-88776072D01*
X160909482Y-88763812D01*
X161029180Y-88727502D01*
X161139494Y-88668537D01*
X161236185Y-88589185D01*
X161315537Y-88492494D01*
X161374502Y-88382180D01*
X161410812Y-88262482D01*
X161419080Y-88178535D01*
X161477880Y-88266535D01*
X161672465Y-88461120D01*
X161901273Y-88614005D01*
X162155510Y-88719314D01*
X162425408Y-88773000D01*
X162700592Y-88773000D01*
X162970490Y-88719314D01*
X163224727Y-88614005D01*
X163453535Y-88461120D01*
X163648120Y-88266535D01*
X163801005Y-88037727D01*
X163833000Y-87960485D01*
X163864995Y-88037727D01*
X164017880Y-88266535D01*
X164212465Y-88461120D01*
X164441273Y-88614005D01*
X164695510Y-88719314D01*
X164965408Y-88773000D01*
X165240592Y-88773000D01*
X165510490Y-88719314D01*
X165764727Y-88614005D01*
X165993535Y-88461120D01*
X166188120Y-88266535D01*
X166341005Y-88037727D01*
X166373000Y-87960485D01*
X166404995Y-88037727D01*
X166557880Y-88266535D01*
X166752465Y-88461120D01*
X166981273Y-88614005D01*
X167235510Y-88719314D01*
X167505408Y-88773000D01*
X167780592Y-88773000D01*
X168050490Y-88719314D01*
X168304727Y-88614005D01*
X168533535Y-88461120D01*
X168728120Y-88266535D01*
X168881005Y-88037727D01*
X168986314Y-87783490D01*
X169040000Y-87513592D01*
X169040000Y-87238408D01*
X168986314Y-86968510D01*
X168881005Y-86714273D01*
X168728120Y-86485465D01*
X168533535Y-86290880D01*
X168304727Y-86137995D01*
X168050490Y-86032686D01*
X167780592Y-85979000D01*
X167505408Y-85979000D01*
X167235510Y-86032686D01*
X166981273Y-86137995D01*
X166752465Y-86290880D01*
X166557880Y-86485465D01*
X166404995Y-86714273D01*
X166373000Y-86791515D01*
X166341005Y-86714273D01*
X166188120Y-86485465D01*
X165993535Y-86290880D01*
X165764727Y-86137995D01*
X165510490Y-86032686D01*
X165240592Y-85979000D01*
X164965408Y-85979000D01*
X164899898Y-85992031D01*
X162166446Y-83258579D01*
X162140291Y-83226709D01*
X162013146Y-83122364D01*
X161868087Y-83044828D01*
X161710689Y-82997082D01*
X161588019Y-82985000D01*
X161588018Y-82985000D01*
X161547000Y-82980960D01*
X161505982Y-82985000D01*
X152441018Y-82985000D01*
X152400000Y-82980960D01*
X152358981Y-82985000D01*
X152236311Y-82997082D01*
X152078913Y-83044828D01*
X151933854Y-83122364D01*
X151806709Y-83226709D01*
X151780563Y-83258568D01*
X143843840Y-91195293D01*
X143774011Y-90965099D01*
X143659333Y-90750551D01*
X143505002Y-90562498D01*
X143316949Y-90408167D01*
X143102401Y-90293489D01*
X142869602Y-90222870D01*
X142688165Y-90205000D01*
X141766835Y-90205000D01*
X141585398Y-90222870D01*
X141352599Y-90293489D01*
X141138051Y-90408167D01*
X140949998Y-90562498D01*
X140795667Y-90750551D01*
X140680989Y-90965099D01*
X140610370Y-91197898D01*
X140586525Y-91440000D01*
X128653475Y-91440000D01*
X128629630Y-91197898D01*
X128559011Y-90965099D01*
X128444333Y-90750551D01*
X128290002Y-90562498D01*
X128101949Y-90408167D01*
X127887401Y-90293489D01*
X127654602Y-90222870D01*
X127473165Y-90205000D01*
X126551835Y-90205000D01*
X126370398Y-90222870D01*
X126137599Y-90293489D01*
X125923051Y-90408167D01*
X125734998Y-90562498D01*
X125580667Y-90750551D01*
X125465989Y-90965099D01*
X125395370Y-91197898D01*
X125371525Y-91440000D01*
X120166500Y-91440000D01*
X120166500Y-91293740D01*
X120109432Y-91006842D01*
X119997490Y-90736589D01*
X119834975Y-90493368D01*
X119628132Y-90286525D01*
X119453740Y-90170000D01*
X119628132Y-90053475D01*
X119834975Y-89846632D01*
X119997490Y-89603411D01*
X120109432Y-89333158D01*
X120166500Y-89046260D01*
X120166500Y-88900000D01*
X125371525Y-88900000D01*
X125395370Y-89142102D01*
X125465989Y-89374901D01*
X125580667Y-89589449D01*
X125734998Y-89777502D01*
X125923051Y-89931833D01*
X126137599Y-90046511D01*
X126370398Y-90117130D01*
X126551835Y-90135000D01*
X127473165Y-90135000D01*
X127654602Y-90117130D01*
X127887401Y-90046511D01*
X128101949Y-89931833D01*
X128290002Y-89777502D01*
X128444333Y-89589449D01*
X128559011Y-89374901D01*
X128629630Y-89142102D01*
X128653475Y-88900000D01*
X140586525Y-88900000D01*
X140610370Y-89142102D01*
X140680989Y-89374901D01*
X140795667Y-89589449D01*
X140949998Y-89777502D01*
X141138051Y-89931833D01*
X141352599Y-90046511D01*
X141585398Y-90117130D01*
X141766835Y-90135000D01*
X142688165Y-90135000D01*
X142869602Y-90117130D01*
X143102401Y-90046511D01*
X143316949Y-89931833D01*
X143505002Y-89777502D01*
X143659333Y-89589449D01*
X143774011Y-89374901D01*
X143844630Y-89142102D01*
X143868475Y-88900000D01*
X143844630Y-88657898D01*
X143774011Y-88425099D01*
X143659333Y-88210551D01*
X143505002Y-88022498D01*
X143316949Y-87868167D01*
X143102401Y-87753489D01*
X142869602Y-87682870D01*
X142688165Y-87665000D01*
X141766835Y-87665000D01*
X141585398Y-87682870D01*
X141352599Y-87753489D01*
X141138051Y-87868167D01*
X140949998Y-88022498D01*
X140795667Y-88210551D01*
X140680989Y-88425099D01*
X140610370Y-88657898D01*
X140586525Y-88900000D01*
X128653475Y-88900000D01*
X128629630Y-88657898D01*
X128559011Y-88425099D01*
X128444333Y-88210551D01*
X128290002Y-88022498D01*
X128101949Y-87868167D01*
X127887401Y-87753489D01*
X127654602Y-87682870D01*
X127473165Y-87665000D01*
X126551835Y-87665000D01*
X126370398Y-87682870D01*
X126137599Y-87753489D01*
X125923051Y-87868167D01*
X125734998Y-88022498D01*
X125580667Y-88210551D01*
X125465989Y-88425099D01*
X125395370Y-88657898D01*
X125371525Y-88900000D01*
X120166500Y-88900000D01*
X120166500Y-88753740D01*
X120109432Y-88466842D01*
X119997490Y-88196589D01*
X119834975Y-87953368D01*
X119628132Y-87746525D01*
X119453740Y-87630000D01*
X119628132Y-87513475D01*
X119834975Y-87306632D01*
X119997490Y-87063411D01*
X120109432Y-86793158D01*
X120166500Y-86506260D01*
X120166500Y-86360000D01*
X125371525Y-86360000D01*
X125395370Y-86602102D01*
X125465989Y-86834901D01*
X125580667Y-87049449D01*
X125734998Y-87237502D01*
X125923051Y-87391833D01*
X126137599Y-87506511D01*
X126370398Y-87577130D01*
X126551835Y-87595000D01*
X127473165Y-87595000D01*
X127654602Y-87577130D01*
X127887401Y-87506511D01*
X128101949Y-87391833D01*
X128290002Y-87237502D01*
X128444333Y-87049449D01*
X128559011Y-86834901D01*
X128629630Y-86602102D01*
X128653475Y-86360000D01*
X140586525Y-86360000D01*
X140610370Y-86602102D01*
X140680989Y-86834901D01*
X140795667Y-87049449D01*
X140949998Y-87237502D01*
X141138051Y-87391833D01*
X141352599Y-87506511D01*
X141585398Y-87577130D01*
X141766835Y-87595000D01*
X142688165Y-87595000D01*
X142869602Y-87577130D01*
X143102401Y-87506511D01*
X143316949Y-87391833D01*
X143505002Y-87237502D01*
X143659333Y-87049449D01*
X143774011Y-86834901D01*
X143844630Y-86602102D01*
X143868475Y-86360000D01*
X143844630Y-86117898D01*
X143774011Y-85885099D01*
X143659333Y-85670551D01*
X143505002Y-85482498D01*
X143316949Y-85328167D01*
X143102401Y-85213489D01*
X142869602Y-85142870D01*
X142688165Y-85125000D01*
X141766835Y-85125000D01*
X141585398Y-85142870D01*
X141352599Y-85213489D01*
X141138051Y-85328167D01*
X140949998Y-85482498D01*
X140795667Y-85670551D01*
X140680989Y-85885099D01*
X140610370Y-86117898D01*
X140586525Y-86360000D01*
X128653475Y-86360000D01*
X128629630Y-86117898D01*
X128559011Y-85885099D01*
X128444333Y-85670551D01*
X128290002Y-85482498D01*
X128101949Y-85328167D01*
X127887401Y-85213489D01*
X127654602Y-85142870D01*
X127473165Y-85125000D01*
X126551835Y-85125000D01*
X126370398Y-85142870D01*
X126137599Y-85213489D01*
X125923051Y-85328167D01*
X125734998Y-85482498D01*
X125580667Y-85670551D01*
X125465989Y-85885099D01*
X125395370Y-86117898D01*
X125371525Y-86360000D01*
X120166500Y-86360000D01*
X120166500Y-86213740D01*
X120109432Y-85926842D01*
X119997490Y-85656589D01*
X119834975Y-85413368D01*
X119628132Y-85206525D01*
X119453740Y-85090000D01*
X119628132Y-84973475D01*
X119834975Y-84766632D01*
X119997490Y-84523411D01*
X120109432Y-84253158D01*
X120166500Y-83966260D01*
X120166500Y-83820000D01*
X125371525Y-83820000D01*
X125395370Y-84062102D01*
X125465989Y-84294901D01*
X125580667Y-84509449D01*
X125734998Y-84697502D01*
X125923051Y-84851833D01*
X126137599Y-84966511D01*
X126370398Y-85037130D01*
X126551835Y-85055000D01*
X127473165Y-85055000D01*
X127654602Y-85037130D01*
X127887401Y-84966511D01*
X128101949Y-84851833D01*
X128290002Y-84697502D01*
X128444333Y-84509449D01*
X128559011Y-84294901D01*
X128629630Y-84062102D01*
X128653475Y-83820000D01*
X140586525Y-83820000D01*
X140610370Y-84062102D01*
X140680989Y-84294901D01*
X140795667Y-84509449D01*
X140949998Y-84697502D01*
X141138051Y-84851833D01*
X141352599Y-84966511D01*
X141585398Y-85037130D01*
X141766835Y-85055000D01*
X142688165Y-85055000D01*
X142869602Y-85037130D01*
X143102401Y-84966511D01*
X143316949Y-84851833D01*
X143505002Y-84697502D01*
X143659333Y-84509449D01*
X143774011Y-84294901D01*
X143844630Y-84062102D01*
X143868475Y-83820000D01*
X143844630Y-83577898D01*
X143774011Y-83345099D01*
X143659333Y-83130551D01*
X143505002Y-82942498D01*
X143316949Y-82788167D01*
X143102401Y-82673489D01*
X142869602Y-82602870D01*
X142688165Y-82585000D01*
X141766835Y-82585000D01*
X141585398Y-82602870D01*
X141352599Y-82673489D01*
X141138051Y-82788167D01*
X140949998Y-82942498D01*
X140795667Y-83130551D01*
X140680989Y-83345099D01*
X140610370Y-83577898D01*
X140586525Y-83820000D01*
X128653475Y-83820000D01*
X128629630Y-83577898D01*
X128559011Y-83345099D01*
X128444333Y-83130551D01*
X128290002Y-82942498D01*
X128101949Y-82788167D01*
X127887401Y-82673489D01*
X127654602Y-82602870D01*
X127473165Y-82585000D01*
X126551835Y-82585000D01*
X126370398Y-82602870D01*
X126137599Y-82673489D01*
X125923051Y-82788167D01*
X125734998Y-82942498D01*
X125580667Y-83130551D01*
X125465989Y-83345099D01*
X125395370Y-83577898D01*
X125371525Y-83820000D01*
X120166500Y-83820000D01*
X120166500Y-83673740D01*
X120109432Y-83386842D01*
X119997490Y-83116589D01*
X119834975Y-82873368D01*
X119628132Y-82666525D01*
X119453740Y-82550000D01*
X119628132Y-82433475D01*
X119834975Y-82226632D01*
X119997490Y-81983411D01*
X120109432Y-81713158D01*
X120166500Y-81426260D01*
X120166500Y-81133740D01*
X120109432Y-80846842D01*
X119997490Y-80576589D01*
X119834975Y-80333368D01*
X119628132Y-80126525D01*
X119384911Y-79964010D01*
X119114658Y-79852068D01*
X118827760Y-79795000D01*
X118535240Y-79795000D01*
X118248342Y-79852068D01*
X117978089Y-79964010D01*
X117734868Y-80126525D01*
X117528025Y-80333368D01*
X117411500Y-80507760D01*
X117294975Y-80333368D01*
X117088132Y-80126525D01*
X116844911Y-79964010D01*
X116574658Y-79852068D01*
X116287760Y-79795000D01*
X115995240Y-79795000D01*
X115708342Y-79852068D01*
X115438089Y-79964010D01*
X115194868Y-80126525D01*
X115063013Y-80258380D01*
X115041002Y-80185820D01*
X114982037Y-80075506D01*
X114902685Y-79978815D01*
X114805994Y-79899463D01*
X114695680Y-79840498D01*
X114575982Y-79804188D01*
X114451500Y-79791928D01*
X113887250Y-79795000D01*
X113728500Y-79953750D01*
X113474500Y-79953750D01*
X113315750Y-79795000D01*
X112751500Y-79791928D01*
X112627018Y-79804188D01*
X112507320Y-79840498D01*
X112397006Y-79899463D01*
X112300315Y-79978815D01*
X112220963Y-80075506D01*
X112161998Y-80185820D01*
X112125688Y-80305518D01*
X112113428Y-80430000D01*
X110695000Y-80430000D01*
X110695000Y-77050000D01*
X121638428Y-77050000D01*
X121650688Y-77174482D01*
X121686998Y-77294180D01*
X121745963Y-77404494D01*
X121825315Y-77501185D01*
X121922006Y-77580537D01*
X122032320Y-77639502D01*
X122104880Y-77661513D01*
X121973025Y-77793368D01*
X121810510Y-78036589D01*
X121698568Y-78306842D01*
X121641500Y-78593740D01*
X121641500Y-78886260D01*
X121698568Y-79173158D01*
X121810510Y-79443411D01*
X121973025Y-79686632D01*
X122179868Y-79893475D01*
X122354260Y-80010000D01*
X122179868Y-80126525D01*
X121973025Y-80333368D01*
X121810510Y-80576589D01*
X121698568Y-80846842D01*
X121641500Y-81133740D01*
X121641500Y-81426260D01*
X121698568Y-81713158D01*
X121810510Y-81983411D01*
X121973025Y-82226632D01*
X122179868Y-82433475D01*
X122423089Y-82595990D01*
X122693342Y-82707932D01*
X122980240Y-82765000D01*
X123272760Y-82765000D01*
X123559658Y-82707932D01*
X123829911Y-82595990D01*
X124073132Y-82433475D01*
X124279975Y-82226632D01*
X124442490Y-81983411D01*
X124554432Y-81713158D01*
X124611500Y-81426260D01*
X124611500Y-81280000D01*
X125371525Y-81280000D01*
X125395370Y-81522102D01*
X125465989Y-81754901D01*
X125580667Y-81969449D01*
X125734998Y-82157502D01*
X125923051Y-82311833D01*
X126137599Y-82426511D01*
X126370398Y-82497130D01*
X126551835Y-82515000D01*
X127473165Y-82515000D01*
X127654602Y-82497130D01*
X127887401Y-82426511D01*
X128101949Y-82311833D01*
X128290002Y-82157502D01*
X128444333Y-81969449D01*
X128559011Y-81754901D01*
X128629630Y-81522102D01*
X128653475Y-81280000D01*
X140586525Y-81280000D01*
X140610370Y-81522102D01*
X140680989Y-81754901D01*
X140795667Y-81969449D01*
X140949998Y-82157502D01*
X141138051Y-82311833D01*
X141352599Y-82426511D01*
X141585398Y-82497130D01*
X141766835Y-82515000D01*
X142688165Y-82515000D01*
X142869602Y-82497130D01*
X143102401Y-82426511D01*
X143316949Y-82311833D01*
X143505002Y-82157502D01*
X143659333Y-81969449D01*
X143774011Y-81754901D01*
X143844630Y-81522102D01*
X143868475Y-81280000D01*
X143844630Y-81037898D01*
X143774011Y-80805099D01*
X143659333Y-80590551D01*
X143505002Y-80402498D01*
X143316949Y-80248167D01*
X143102401Y-80133489D01*
X142869602Y-80062870D01*
X142688165Y-80045000D01*
X141766835Y-80045000D01*
X141585398Y-80062870D01*
X141352599Y-80133489D01*
X141138051Y-80248167D01*
X140949998Y-80402498D01*
X140795667Y-80590551D01*
X140680989Y-80805099D01*
X140610370Y-81037898D01*
X140586525Y-81280000D01*
X128653475Y-81280000D01*
X128629630Y-81037898D01*
X128559011Y-80805099D01*
X128444333Y-80590551D01*
X128290002Y-80402498D01*
X128101949Y-80248167D01*
X127887401Y-80133489D01*
X127654602Y-80062870D01*
X127473165Y-80045000D01*
X126551835Y-80045000D01*
X126370398Y-80062870D01*
X126137599Y-80133489D01*
X125923051Y-80248167D01*
X125734998Y-80402498D01*
X125580667Y-80590551D01*
X125465989Y-80805099D01*
X125395370Y-81037898D01*
X125371525Y-81280000D01*
X124611500Y-81280000D01*
X124611500Y-81133740D01*
X124554432Y-80846842D01*
X124442490Y-80576589D01*
X124279975Y-80333368D01*
X124073132Y-80126525D01*
X123898740Y-80010000D01*
X124073132Y-79893475D01*
X124279975Y-79686632D01*
X124442490Y-79443411D01*
X124554432Y-79173158D01*
X124611500Y-78886260D01*
X124611500Y-78740000D01*
X125371525Y-78740000D01*
X125395370Y-78982102D01*
X125465989Y-79214901D01*
X125580667Y-79429449D01*
X125734998Y-79617502D01*
X125923051Y-79771833D01*
X126137599Y-79886511D01*
X126370398Y-79957130D01*
X126551835Y-79975000D01*
X127473165Y-79975000D01*
X127654602Y-79957130D01*
X127887401Y-79886511D01*
X128101949Y-79771833D01*
X128290002Y-79617502D01*
X128444333Y-79429449D01*
X128559011Y-79214901D01*
X128629630Y-78982102D01*
X128653475Y-78740000D01*
X140586525Y-78740000D01*
X140610370Y-78982102D01*
X140680989Y-79214901D01*
X140795667Y-79429449D01*
X140949998Y-79617502D01*
X141138051Y-79771833D01*
X141352599Y-79886511D01*
X141585398Y-79957130D01*
X141766835Y-79975000D01*
X142688165Y-79975000D01*
X142869602Y-79957130D01*
X143102401Y-79886511D01*
X143316949Y-79771833D01*
X143505002Y-79617502D01*
X143659333Y-79429449D01*
X143774011Y-79214901D01*
X143844630Y-78982102D01*
X143868475Y-78740000D01*
X143844630Y-78497898D01*
X143774011Y-78265099D01*
X143659333Y-78050551D01*
X143505002Y-77862498D01*
X143316949Y-77708167D01*
X143102401Y-77593489D01*
X142869602Y-77522870D01*
X142688165Y-77505000D01*
X141766835Y-77505000D01*
X141585398Y-77522870D01*
X141352599Y-77593489D01*
X141138051Y-77708167D01*
X140949998Y-77862498D01*
X140795667Y-78050551D01*
X140680989Y-78265099D01*
X140610370Y-78497898D01*
X140586525Y-78740000D01*
X128653475Y-78740000D01*
X128629630Y-78497898D01*
X128559011Y-78265099D01*
X128444333Y-78050551D01*
X128290002Y-77862498D01*
X128101949Y-77708167D01*
X127887401Y-77593489D01*
X127654602Y-77522870D01*
X127473165Y-77505000D01*
X126551835Y-77505000D01*
X126370398Y-77522870D01*
X126137599Y-77593489D01*
X125923051Y-77708167D01*
X125734998Y-77862498D01*
X125580667Y-78050551D01*
X125465989Y-78265099D01*
X125395370Y-78497898D01*
X125371525Y-78740000D01*
X124611500Y-78740000D01*
X124611500Y-78593740D01*
X124554432Y-78306842D01*
X124442490Y-78036589D01*
X124279975Y-77793368D01*
X124148120Y-77661513D01*
X124220680Y-77639502D01*
X124330994Y-77580537D01*
X124427685Y-77501185D01*
X124507037Y-77404494D01*
X124566002Y-77294180D01*
X124602312Y-77174482D01*
X124614572Y-77050000D01*
X124611500Y-76485750D01*
X124452750Y-76327000D01*
X123253500Y-76327000D01*
X123253500Y-76347000D01*
X122999500Y-76347000D01*
X122999500Y-76327000D01*
X121800250Y-76327000D01*
X121641500Y-76485750D01*
X121638428Y-77050000D01*
X110695000Y-77050000D01*
X110695000Y-76200000D01*
X125371525Y-76200000D01*
X125395370Y-76442102D01*
X125465989Y-76674901D01*
X125580667Y-76889449D01*
X125734998Y-77077502D01*
X125923051Y-77231833D01*
X126137599Y-77346511D01*
X126370398Y-77417130D01*
X126551835Y-77435000D01*
X127473165Y-77435000D01*
X127654602Y-77417130D01*
X127887401Y-77346511D01*
X128101949Y-77231833D01*
X128290002Y-77077502D01*
X128444333Y-76889449D01*
X128559011Y-76674901D01*
X128629630Y-76442102D01*
X128653475Y-76200000D01*
X140586525Y-76200000D01*
X140610370Y-76442102D01*
X140680989Y-76674901D01*
X140795667Y-76889449D01*
X140949998Y-77077502D01*
X141138051Y-77231833D01*
X141352599Y-77346511D01*
X141585398Y-77417130D01*
X141766835Y-77435000D01*
X142688165Y-77435000D01*
X142869602Y-77417130D01*
X143102401Y-77346511D01*
X143316949Y-77231833D01*
X143505002Y-77077502D01*
X143659333Y-76889449D01*
X143774011Y-76674901D01*
X143844630Y-76442102D01*
X143868475Y-76200000D01*
X143844630Y-75957898D01*
X143774011Y-75725099D01*
X143659333Y-75510551D01*
X143505002Y-75322498D01*
X143316949Y-75168167D01*
X143102401Y-75053489D01*
X142869602Y-74982870D01*
X142688165Y-74965000D01*
X141766835Y-74965000D01*
X141585398Y-74982870D01*
X141352599Y-75053489D01*
X141138051Y-75168167D01*
X140949998Y-75322498D01*
X140795667Y-75510551D01*
X140680989Y-75725099D01*
X140610370Y-75957898D01*
X140586525Y-76200000D01*
X128653475Y-76200000D01*
X128629630Y-75957898D01*
X128559011Y-75725099D01*
X128444333Y-75510551D01*
X128290002Y-75322498D01*
X128101949Y-75168167D01*
X127887401Y-75053489D01*
X127654602Y-74982870D01*
X127473165Y-74965000D01*
X126551835Y-74965000D01*
X126370398Y-74982870D01*
X126137599Y-75053489D01*
X125923051Y-75168167D01*
X125734998Y-75322498D01*
X125580667Y-75510551D01*
X125465989Y-75725099D01*
X125395370Y-75957898D01*
X125371525Y-76200000D01*
X110695000Y-76200000D01*
X110695000Y-75350000D01*
X121638428Y-75350000D01*
X121641500Y-75914250D01*
X121800250Y-76073000D01*
X122999500Y-76073000D01*
X122999500Y-74873750D01*
X123253500Y-74873750D01*
X123253500Y-76073000D01*
X124452750Y-76073000D01*
X124611500Y-75914250D01*
X124614572Y-75350000D01*
X124602312Y-75225518D01*
X124566002Y-75105820D01*
X124507037Y-74995506D01*
X124427685Y-74898815D01*
X124330994Y-74819463D01*
X124220680Y-74760498D01*
X124100982Y-74724188D01*
X123976500Y-74711928D01*
X123412250Y-74715000D01*
X123253500Y-74873750D01*
X122999500Y-74873750D01*
X122840750Y-74715000D01*
X122276500Y-74711928D01*
X122152018Y-74724188D01*
X122032320Y-74760498D01*
X121922006Y-74819463D01*
X121825315Y-74898815D01*
X121745963Y-74995506D01*
X121686998Y-75105820D01*
X121650688Y-75225518D01*
X121638428Y-75350000D01*
X110695000Y-75350000D01*
X110695000Y-73660000D01*
X125371525Y-73660000D01*
X125395370Y-73902102D01*
X125465989Y-74134901D01*
X125580667Y-74349449D01*
X125734998Y-74537502D01*
X125923051Y-74691833D01*
X126137599Y-74806511D01*
X126370398Y-74877130D01*
X126551835Y-74895000D01*
X127473165Y-74895000D01*
X127654602Y-74877130D01*
X127887401Y-74806511D01*
X128101949Y-74691833D01*
X128290002Y-74537502D01*
X128444333Y-74349449D01*
X128559011Y-74134901D01*
X128629630Y-73902102D01*
X128653475Y-73660000D01*
X140586525Y-73660000D01*
X140610370Y-73902102D01*
X140680989Y-74134901D01*
X140795667Y-74349449D01*
X140949998Y-74537502D01*
X141138051Y-74691833D01*
X141352599Y-74806511D01*
X141585398Y-74877130D01*
X141766835Y-74895000D01*
X142688165Y-74895000D01*
X142869602Y-74877130D01*
X143102401Y-74806511D01*
X143316949Y-74691833D01*
X143505002Y-74537502D01*
X143659333Y-74349449D01*
X143774011Y-74134901D01*
X143844630Y-73902102D01*
X143868475Y-73660000D01*
X143844630Y-73417898D01*
X143774011Y-73185099D01*
X143659333Y-72970551D01*
X143505002Y-72782498D01*
X143316949Y-72628167D01*
X143102401Y-72513489D01*
X142869602Y-72442870D01*
X142688165Y-72425000D01*
X141766835Y-72425000D01*
X141585398Y-72442870D01*
X141352599Y-72513489D01*
X141138051Y-72628167D01*
X140949998Y-72782498D01*
X140795667Y-72970551D01*
X140680989Y-73185099D01*
X140610370Y-73417898D01*
X140586525Y-73660000D01*
X128653475Y-73660000D01*
X128629630Y-73417898D01*
X128559011Y-73185099D01*
X128444333Y-72970551D01*
X128290002Y-72782498D01*
X128101949Y-72628167D01*
X127887401Y-72513489D01*
X127654602Y-72442870D01*
X127473165Y-72425000D01*
X126551835Y-72425000D01*
X126370398Y-72442870D01*
X126137599Y-72513489D01*
X125923051Y-72628167D01*
X125734998Y-72782498D01*
X125580667Y-72970551D01*
X125465989Y-73185099D01*
X125395370Y-73417898D01*
X125371525Y-73660000D01*
X110695000Y-73660000D01*
X110695000Y-70021848D01*
X110718898Y-69641984D01*
X116365000Y-69641984D01*
X116365000Y-70358016D01*
X116504691Y-71060290D01*
X116778705Y-71721818D01*
X117176511Y-72317177D01*
X117682823Y-72823489D01*
X118278182Y-73221295D01*
X118939710Y-73495309D01*
X119641984Y-73635000D01*
X120358016Y-73635000D01*
X121060290Y-73495309D01*
X121721818Y-73221295D01*
X122317177Y-72823489D01*
X122823489Y-72317177D01*
X123221295Y-71721818D01*
X123470576Y-71120000D01*
X125371525Y-71120000D01*
X125395370Y-71362102D01*
X125465989Y-71594901D01*
X125580667Y-71809449D01*
X125734998Y-71997502D01*
X125923051Y-72151833D01*
X126137599Y-72266511D01*
X126370398Y-72337130D01*
X126551835Y-72355000D01*
X127473165Y-72355000D01*
X127654602Y-72337130D01*
X127887401Y-72266511D01*
X128101949Y-72151833D01*
X128290002Y-71997502D01*
X128444333Y-71809449D01*
X128559011Y-71594901D01*
X128629630Y-71362102D01*
X128653475Y-71120000D01*
X140586525Y-71120000D01*
X140610370Y-71362102D01*
X140680989Y-71594901D01*
X140795667Y-71809449D01*
X140949998Y-71997502D01*
X141138051Y-72151833D01*
X141352599Y-72266511D01*
X141585398Y-72337130D01*
X141766835Y-72355000D01*
X142688165Y-72355000D01*
X142869602Y-72337130D01*
X143102401Y-72266511D01*
X143316949Y-72151833D01*
X143505002Y-71997502D01*
X143659333Y-71809449D01*
X143774011Y-71594901D01*
X143844630Y-71362102D01*
X143868475Y-71120000D01*
X143844630Y-70877898D01*
X143774011Y-70645099D01*
X143659333Y-70430551D01*
X143505002Y-70242498D01*
X143316949Y-70088167D01*
X143102401Y-69973489D01*
X142869602Y-69902870D01*
X142688165Y-69885000D01*
X141766835Y-69885000D01*
X141585398Y-69902870D01*
X141352599Y-69973489D01*
X141138051Y-70088167D01*
X140949998Y-70242498D01*
X140795667Y-70430551D01*
X140680989Y-70645099D01*
X140610370Y-70877898D01*
X140586525Y-71120000D01*
X128653475Y-71120000D01*
X128629630Y-70877898D01*
X128559011Y-70645099D01*
X128444333Y-70430551D01*
X128290002Y-70242498D01*
X128101949Y-70088167D01*
X127887401Y-69973489D01*
X127654602Y-69902870D01*
X127473165Y-69885000D01*
X126551835Y-69885000D01*
X126370398Y-69902870D01*
X126137599Y-69973489D01*
X125923051Y-70088167D01*
X125734998Y-70242498D01*
X125580667Y-70430551D01*
X125465989Y-70645099D01*
X125395370Y-70877898D01*
X125371525Y-71120000D01*
X123470576Y-71120000D01*
X123495309Y-71060290D01*
X123635000Y-70358016D01*
X123635000Y-69641984D01*
X123495309Y-68939710D01*
X123346313Y-68580000D01*
X125371525Y-68580000D01*
X125395370Y-68822102D01*
X125465989Y-69054901D01*
X125580667Y-69269449D01*
X125734998Y-69457502D01*
X125923051Y-69611833D01*
X126137599Y-69726511D01*
X126370398Y-69797130D01*
X126551835Y-69815000D01*
X127473165Y-69815000D01*
X127654602Y-69797130D01*
X127887401Y-69726511D01*
X128101949Y-69611833D01*
X128290002Y-69457502D01*
X128444333Y-69269449D01*
X128559011Y-69054901D01*
X128606725Y-68897609D01*
X140634038Y-68897609D01*
X140637909Y-68935282D01*
X140730079Y-69160533D01*
X140864422Y-69363474D01*
X141035775Y-69536307D01*
X141237554Y-69672390D01*
X141462004Y-69766493D01*
X141700500Y-69815000D01*
X142100500Y-69815000D01*
X142100500Y-68707000D01*
X142354500Y-68707000D01*
X142354500Y-69815000D01*
X142754500Y-69815000D01*
X142992996Y-69766493D01*
X143217446Y-69672390D01*
X143262530Y-69641984D01*
X148365000Y-69641984D01*
X148365000Y-70358016D01*
X148504691Y-71060290D01*
X148778705Y-71721818D01*
X149176511Y-72317177D01*
X149682823Y-72823489D01*
X150278182Y-73221295D01*
X150939710Y-73495309D01*
X151641984Y-73635000D01*
X152358016Y-73635000D01*
X153060290Y-73495309D01*
X153721818Y-73221295D01*
X154317177Y-72823489D01*
X154823489Y-72317177D01*
X155221295Y-71721818D01*
X155495309Y-71060290D01*
X155635000Y-70358016D01*
X155635000Y-69641984D01*
X155569333Y-69311852D01*
X159678000Y-69311852D01*
X159678000Y-69880148D01*
X159788869Y-70437523D01*
X160006346Y-70962560D01*
X160322074Y-71435080D01*
X160723920Y-71836926D01*
X161196440Y-72152654D01*
X161721477Y-72370131D01*
X162278852Y-72481000D01*
X162847148Y-72481000D01*
X163404523Y-72370131D01*
X163929560Y-72152654D01*
X164402080Y-71836926D01*
X164803926Y-71435080D01*
X165119654Y-70962560D01*
X165337131Y-70437523D01*
X165448000Y-69880148D01*
X165448000Y-69311852D01*
X165337131Y-68754477D01*
X165119654Y-68229440D01*
X164803926Y-67756920D01*
X164402080Y-67355074D01*
X163929560Y-67039346D01*
X163404523Y-66821869D01*
X162847148Y-66711000D01*
X162278852Y-66711000D01*
X161721477Y-66821869D01*
X161196440Y-67039346D01*
X160723920Y-67355074D01*
X160322074Y-67756920D01*
X160006346Y-68229440D01*
X159788869Y-68754477D01*
X159678000Y-69311852D01*
X155569333Y-69311852D01*
X155495309Y-68939710D01*
X155221295Y-68278182D01*
X154823489Y-67682823D01*
X154317177Y-67176511D01*
X153721818Y-66778705D01*
X153060290Y-66504691D01*
X152358016Y-66365000D01*
X151641984Y-66365000D01*
X150939710Y-66504691D01*
X150278182Y-66778705D01*
X149682823Y-67176511D01*
X149176511Y-67682823D01*
X148778705Y-68278182D01*
X148504691Y-68939710D01*
X148365000Y-69641984D01*
X143262530Y-69641984D01*
X143419225Y-69536307D01*
X143590578Y-69363474D01*
X143724921Y-69160533D01*
X143817091Y-68935282D01*
X143820962Y-68897609D01*
X143696231Y-68707000D01*
X142354500Y-68707000D01*
X142100500Y-68707000D01*
X140758769Y-68707000D01*
X140634038Y-68897609D01*
X128606725Y-68897609D01*
X128629630Y-68822102D01*
X128653475Y-68580000D01*
X128629630Y-68337898D01*
X128606726Y-68262391D01*
X140634038Y-68262391D01*
X140758769Y-68453000D01*
X142100500Y-68453000D01*
X142100500Y-67345000D01*
X142354500Y-67345000D01*
X142354500Y-68453000D01*
X143696231Y-68453000D01*
X143820962Y-68262391D01*
X143817091Y-68224718D01*
X143724921Y-67999467D01*
X143590578Y-67796526D01*
X143419225Y-67623693D01*
X143217446Y-67487610D01*
X142992996Y-67393507D01*
X142754500Y-67345000D01*
X142354500Y-67345000D01*
X142100500Y-67345000D01*
X141700500Y-67345000D01*
X141462004Y-67393507D01*
X141237554Y-67487610D01*
X141035775Y-67623693D01*
X140864422Y-67796526D01*
X140730079Y-67999467D01*
X140637909Y-68224718D01*
X140634038Y-68262391D01*
X128606726Y-68262391D01*
X128559011Y-68105099D01*
X128444333Y-67890551D01*
X128290002Y-67702498D01*
X128101949Y-67548167D01*
X127887401Y-67433489D01*
X127654602Y-67362870D01*
X127473165Y-67345000D01*
X126551835Y-67345000D01*
X126370398Y-67362870D01*
X126137599Y-67433489D01*
X125923051Y-67548167D01*
X125734998Y-67702498D01*
X125580667Y-67890551D01*
X125465989Y-68105099D01*
X125395370Y-68337898D01*
X125371525Y-68580000D01*
X123346313Y-68580000D01*
X123221295Y-68278182D01*
X122823489Y-67682823D01*
X122317177Y-67176511D01*
X121721818Y-66778705D01*
X121060290Y-66504691D01*
X120358016Y-66365000D01*
X119641984Y-66365000D01*
X118939710Y-66504691D01*
X118278182Y-66778705D01*
X117682823Y-67176511D01*
X117176511Y-67682823D01*
X116778705Y-68278182D01*
X116504691Y-68939710D01*
X116365000Y-69641984D01*
X110718898Y-69641984D01*
X110769736Y-68833946D01*
X110988665Y-67686278D01*
X111349706Y-66575111D01*
X111601509Y-66040000D01*
X125371525Y-66040000D01*
X125395370Y-66282102D01*
X125465989Y-66514901D01*
X125580667Y-66729449D01*
X125734998Y-66917502D01*
X125923051Y-67071833D01*
X126137599Y-67186511D01*
X126370398Y-67257130D01*
X126551835Y-67275000D01*
X127473165Y-67275000D01*
X127654602Y-67257130D01*
X127887401Y-67186511D01*
X128101949Y-67071833D01*
X128290002Y-66917502D01*
X128444333Y-66729449D01*
X128559011Y-66514901D01*
X128629630Y-66282102D01*
X128653475Y-66040000D01*
X140586525Y-66040000D01*
X140610370Y-66282102D01*
X140680989Y-66514901D01*
X140795667Y-66729449D01*
X140949998Y-66917502D01*
X141138051Y-67071833D01*
X141352599Y-67186511D01*
X141585398Y-67257130D01*
X141766835Y-67275000D01*
X142688165Y-67275000D01*
X142869602Y-67257130D01*
X143102401Y-67186511D01*
X143316949Y-67071833D01*
X143505002Y-66917502D01*
X143659333Y-66729449D01*
X143774011Y-66514901D01*
X143844630Y-66282102D01*
X143868475Y-66040000D01*
X143844630Y-65797898D01*
X143774011Y-65565099D01*
X143659333Y-65350551D01*
X143505002Y-65162498D01*
X143316949Y-65008167D01*
X143102401Y-64893489D01*
X142869602Y-64822870D01*
X142688165Y-64805000D01*
X141766835Y-64805000D01*
X141585398Y-64822870D01*
X141352599Y-64893489D01*
X141138051Y-65008167D01*
X140949998Y-65162498D01*
X140795667Y-65350551D01*
X140680989Y-65565099D01*
X140610370Y-65797898D01*
X140586525Y-66040000D01*
X128653475Y-66040000D01*
X128629630Y-65797898D01*
X128559011Y-65565099D01*
X128444333Y-65350551D01*
X128290002Y-65162498D01*
X128101949Y-65008167D01*
X127887401Y-64893489D01*
X127654602Y-64822870D01*
X127473165Y-64805000D01*
X126551835Y-64805000D01*
X126370398Y-64822870D01*
X126137599Y-64893489D01*
X125923051Y-65008167D01*
X125734998Y-65162498D01*
X125580667Y-65350551D01*
X125465989Y-65565099D01*
X125395370Y-65797898D01*
X125371525Y-66040000D01*
X111601509Y-66040000D01*
X111847171Y-65517943D01*
X112473209Y-64531465D01*
X113217948Y-63631230D01*
X114069642Y-62831437D01*
X115014870Y-62144688D01*
X116038708Y-61581828D01*
X117125023Y-61151725D01*
X118256672Y-60861167D01*
X119426687Y-60713360D01*
X120010917Y-60695000D01*
X139388893Y-60695000D01*
X139308525Y-60775368D01*
G37*
X139308525Y-60775368D02*
X139146010Y-61018589D01*
X139034068Y-61288842D01*
X138977000Y-61575740D01*
X138977000Y-61868260D01*
X139034068Y-62155158D01*
X139146010Y-62425411D01*
X139308525Y-62668632D01*
X139515368Y-62875475D01*
X139758589Y-63037990D01*
X140028842Y-63149932D01*
X140315740Y-63207000D01*
X140608260Y-63207000D01*
X140895158Y-63149932D01*
X141165411Y-63037990D01*
X141408632Y-62875475D01*
X141615475Y-62668632D01*
X141777990Y-62425411D01*
X141889932Y-62155158D01*
X141947000Y-61868260D01*
X141947000Y-61575740D01*
X141889932Y-61288842D01*
X141777990Y-61018589D01*
X141615475Y-60775368D01*
X141535107Y-60695000D01*
X146246893Y-60695000D01*
X146166525Y-60775368D01*
X146004010Y-61018589D01*
X145892068Y-61288842D01*
X145835000Y-61575740D01*
X145835000Y-61868260D01*
X145892068Y-62155158D01*
X146004010Y-62425411D01*
X146166525Y-62668632D01*
X146373368Y-62875475D01*
X146616589Y-63037990D01*
X146886842Y-63149932D01*
X147173740Y-63207000D01*
X147466260Y-63207000D01*
X147753158Y-63149932D01*
X148023411Y-63037990D01*
X148266632Y-62875475D01*
X148358699Y-62783408D01*
X159186000Y-62783408D01*
X159186000Y-63058592D01*
X159239686Y-63328490D01*
X159344995Y-63582727D01*
X159497880Y-63811535D01*
X159692465Y-64006120D01*
X159921273Y-64159005D01*
X160175510Y-64264314D01*
X160445408Y-64318000D01*
X160720592Y-64318000D01*
X160990490Y-64264314D01*
X161244727Y-64159005D01*
X161473535Y-64006120D01*
X161668120Y-63811535D01*
X161821005Y-63582727D01*
X161926314Y-63328490D01*
X161980000Y-63058592D01*
X161980000Y-62783408D01*
X161926314Y-62513510D01*
X161821005Y-62259273D01*
X161668120Y-62030465D01*
X161473535Y-61835880D01*
X161244727Y-61682995D01*
X160990490Y-61577686D01*
X160720592Y-61524000D01*
X160445408Y-61524000D01*
X160175510Y-61577686D01*
X159921273Y-61682995D01*
X159692465Y-61835880D01*
X159497880Y-62030465D01*
X159344995Y-62259273D01*
X159239686Y-62513510D01*
X159186000Y-62783408D01*
X148358699Y-62783408D01*
X148473475Y-62668632D01*
X148635990Y-62425411D01*
X148747932Y-62155158D01*
X148805000Y-61868260D01*
X148805000Y-61575740D01*
X148747932Y-61288842D01*
X148635990Y-61018589D01*
X148473475Y-60775368D01*
X148393107Y-60695000D01*
X169305000Y-60695000D01*
X169305001Y-119305000D01*
X120021848Y-119305000D01*
X118833946Y-119230264D01*
X117686278Y-119011335D01*
X116575107Y-118650293D01*
X115517944Y-118152829D01*
X114531467Y-117526792D01*
X113631230Y-116782051D01*
X112831433Y-115930355D01*
X112144688Y-114985130D01*
X111768035Y-114300000D01*
X125371525Y-114300000D01*
X125395370Y-114542102D01*
X125465989Y-114774901D01*
X125580667Y-114989449D01*
X125734998Y-115177502D01*
X125923051Y-115331833D01*
X126137599Y-115446511D01*
X126370398Y-115517130D01*
X126551835Y-115535000D01*
X127473165Y-115535000D01*
X127654602Y-115517130D01*
X127887401Y-115446511D01*
X128101949Y-115331833D01*
X128290002Y-115177502D01*
X128444333Y-114989449D01*
X128559011Y-114774901D01*
X128629630Y-114542102D01*
X128653475Y-114300000D01*
X140586525Y-114300000D01*
X140610370Y-114542102D01*
X140680989Y-114774901D01*
X140795667Y-114989449D01*
X140949998Y-115177502D01*
X141138051Y-115331833D01*
X141352599Y-115446511D01*
X141585398Y-115517130D01*
X141766835Y-115535000D01*
X142688165Y-115535000D01*
X142869602Y-115517130D01*
X143102401Y-115446511D01*
X143316949Y-115331833D01*
X143505002Y-115177502D01*
X143659333Y-114989449D01*
X143774011Y-114774901D01*
X143844630Y-114542102D01*
X143868475Y-114300000D01*
X143844630Y-114057898D01*
X143774011Y-113825099D01*
X143659333Y-113610551D01*
X143505002Y-113422498D01*
X143316949Y-113268167D01*
X143102401Y-113153489D01*
X142869602Y-113082870D01*
X142688165Y-113065000D01*
X141766835Y-113065000D01*
X141585398Y-113082870D01*
X141352599Y-113153489D01*
X141138051Y-113268167D01*
X140949998Y-113422498D01*
X140795667Y-113610551D01*
X140680989Y-113825099D01*
X140610370Y-114057898D01*
X140586525Y-114300000D01*
X128653475Y-114300000D01*
X128629630Y-114057898D01*
X128559011Y-113825099D01*
X128444333Y-113610551D01*
X128290002Y-113422498D01*
X128101949Y-113268167D01*
X127887401Y-113153489D01*
X127654602Y-113082870D01*
X127473165Y-113065000D01*
X126551835Y-113065000D01*
X126370398Y-113082870D01*
X126137599Y-113153489D01*
X125923051Y-113268167D01*
X125734998Y-113422498D01*
X125580667Y-113610551D01*
X125465989Y-113825099D01*
X125395370Y-114057898D01*
X125371525Y-114300000D01*
X111768035Y-114300000D01*
X111581828Y-113961292D01*
X111151725Y-112874977D01*
X110861167Y-111743329D01*
X110713360Y-110573313D01*
X110695000Y-109989083D01*
X110695000Y-109641984D01*
X116365000Y-109641984D01*
X116365000Y-110358016D01*
X116504691Y-111060290D01*
X116778705Y-111721818D01*
X117176511Y-112317177D01*
X117682823Y-112823489D01*
X118278182Y-113221295D01*
X118939710Y-113495309D01*
X119641984Y-113635000D01*
X120358016Y-113635000D01*
X121060290Y-113495309D01*
X121721818Y-113221295D01*
X122317177Y-112823489D01*
X122823489Y-112317177D01*
X122983563Y-112077609D01*
X125419038Y-112077609D01*
X125422909Y-112115282D01*
X125515079Y-112340533D01*
X125649422Y-112543474D01*
X125820775Y-112716307D01*
X126022554Y-112852390D01*
X126247004Y-112946493D01*
X126485500Y-112995000D01*
X126885500Y-112995000D01*
X126885500Y-111887000D01*
X127139500Y-111887000D01*
X127139500Y-112995000D01*
X127539500Y-112995000D01*
X127777996Y-112946493D01*
X128002446Y-112852390D01*
X128204225Y-112716307D01*
X128375578Y-112543474D01*
X128509921Y-112340533D01*
X128602091Y-112115282D01*
X128605962Y-112077609D01*
X128481231Y-111887000D01*
X127139500Y-111887000D01*
X126885500Y-111887000D01*
X125543769Y-111887000D01*
X125419038Y-112077609D01*
X122983563Y-112077609D01*
X123221295Y-111721818D01*
X123337037Y-111442391D01*
X125419038Y-111442391D01*
X125543769Y-111633000D01*
X126885500Y-111633000D01*
X126885500Y-110525000D01*
X127139500Y-110525000D01*
X127139500Y-111633000D01*
X128481231Y-111633000D01*
X128605962Y-111442391D01*
X128602091Y-111404718D01*
X128509921Y-111179467D01*
X128375578Y-110976526D01*
X128204225Y-110803693D01*
X128002446Y-110667610D01*
X127777996Y-110573507D01*
X127539500Y-110525000D01*
X127139500Y-110525000D01*
X126885500Y-110525000D01*
X126485500Y-110525000D01*
X126247004Y-110573507D01*
X126022554Y-110667610D01*
X125820775Y-110803693D01*
X125649422Y-110976526D01*
X125515079Y-111179467D01*
X125422909Y-111404718D01*
X125419038Y-111442391D01*
X123337037Y-111442391D01*
X123495309Y-111060290D01*
X123635000Y-110358016D01*
X123635000Y-109641984D01*
X123551063Y-109220000D01*
X125371525Y-109220000D01*
X125395370Y-109462102D01*
X125465989Y-109694901D01*
X125580667Y-109909449D01*
X125734998Y-110097502D01*
X125923051Y-110251833D01*
X126137599Y-110366511D01*
X126370398Y-110437130D01*
X126551835Y-110455000D01*
X127473165Y-110455000D01*
X127654602Y-110437130D01*
X127887401Y-110366511D01*
X127913785Y-110352408D01*
X129413000Y-110352408D01*
X129413000Y-110627592D01*
X129466686Y-110897490D01*
X129571995Y-111151727D01*
X129724880Y-111380535D01*
X129919465Y-111575120D01*
X130148273Y-111728005D01*
X130402510Y-111833314D01*
X130672408Y-111887000D01*
X130947592Y-111887000D01*
X131217490Y-111833314D01*
X131471727Y-111728005D01*
X131700535Y-111575120D01*
X131895120Y-111380535D01*
X132048005Y-111151727D01*
X132080000Y-111074485D01*
X132111995Y-111151727D01*
X132264880Y-111380535D01*
X132459465Y-111575120D01*
X132688273Y-111728005D01*
X132942510Y-111833314D01*
X133212408Y-111887000D01*
X133487592Y-111887000D01*
X133757490Y-111833314D01*
X134011727Y-111728005D01*
X134240535Y-111575120D01*
X134435120Y-111380535D01*
X134588005Y-111151727D01*
X134620000Y-111074485D01*
X134651995Y-111151727D01*
X134804880Y-111380535D01*
X134999465Y-111575120D01*
X135228273Y-111728005D01*
X135482510Y-111833314D01*
X135752408Y-111887000D01*
X136027592Y-111887000D01*
X136297490Y-111833314D01*
X136551727Y-111728005D01*
X136780535Y-111575120D01*
X136900090Y-111455565D01*
X137644040Y-111455565D01*
X137711020Y-111695656D01*
X137960048Y-111812756D01*
X138227135Y-111879023D01*
X138502017Y-111891910D01*
X138774133Y-111850922D01*
X139026462Y-111760000D01*
X140586525Y-111760000D01*
X140610370Y-112002102D01*
X140680989Y-112234901D01*
X140795667Y-112449449D01*
X140949998Y-112637502D01*
X141138051Y-112791833D01*
X141352599Y-112906511D01*
X141585398Y-112977130D01*
X141766835Y-112995000D01*
X142688165Y-112995000D01*
X142869602Y-112977130D01*
X143102401Y-112906511D01*
X143316949Y-112791833D01*
X143505002Y-112637502D01*
X143659333Y-112449449D01*
X143774011Y-112234901D01*
X143844630Y-112002102D01*
X143868475Y-111760000D01*
X143844630Y-111517898D01*
X143774011Y-111285099D01*
X143659333Y-111070551D01*
X143505002Y-110882498D01*
X143316949Y-110728167D01*
X143102401Y-110613489D01*
X142869602Y-110542870D01*
X142688165Y-110525000D01*
X141766835Y-110525000D01*
X141585398Y-110542870D01*
X141352599Y-110613489D01*
X141138051Y-110728167D01*
X140949998Y-110882498D01*
X140795667Y-111070551D01*
X140680989Y-111285099D01*
X140610370Y-111517898D01*
X140586525Y-111760000D01*
X139026462Y-111760000D01*
X139033023Y-111757636D01*
X139148980Y-111695656D01*
X139215960Y-111455565D01*
X138430000Y-110669605D01*
X137644040Y-111455565D01*
X136900090Y-111455565D01*
X136975120Y-111380535D01*
X137128005Y-111151727D01*
X137157692Y-111080057D01*
X137162364Y-111093023D01*
X137224344Y-111208980D01*
X137464435Y-111275960D01*
X138250395Y-110490000D01*
X138609605Y-110490000D01*
X139395565Y-111275960D01*
X139635656Y-111208980D01*
X139752756Y-110959952D01*
X139819023Y-110692865D01*
X139831910Y-110417983D01*
X139790922Y-110145867D01*
X139697636Y-109886977D01*
X139635656Y-109771020D01*
X139395565Y-109704040D01*
X138609605Y-110490000D01*
X138250395Y-110490000D01*
X137464435Y-109704040D01*
X137224344Y-109771020D01*
X137160515Y-109906760D01*
X137128005Y-109828273D01*
X136975120Y-109599465D01*
X136900090Y-109524435D01*
X137644040Y-109524435D01*
X138430000Y-110310395D01*
X139215960Y-109524435D01*
X139148980Y-109284344D01*
X139012145Y-109220000D01*
X140586525Y-109220000D01*
X140610370Y-109462102D01*
X140680989Y-109694901D01*
X140795667Y-109909449D01*
X140949998Y-110097502D01*
X141138051Y-110251833D01*
X141352599Y-110366511D01*
X141585398Y-110437130D01*
X141766835Y-110455000D01*
X142688165Y-110455000D01*
X142869602Y-110437130D01*
X143102401Y-110366511D01*
X143316949Y-110251833D01*
X143505002Y-110097502D01*
X143659333Y-109909449D01*
X143774011Y-109694901D01*
X143790063Y-109641984D01*
X148365000Y-109641984D01*
X148365000Y-110358016D01*
X148504691Y-111060290D01*
X148778705Y-111721818D01*
X149176511Y-112317177D01*
X149682823Y-112823489D01*
X150278182Y-113221295D01*
X150939710Y-113495309D01*
X151641984Y-113635000D01*
X152358016Y-113635000D01*
X153060290Y-113495309D01*
X153721818Y-113221295D01*
X154317177Y-112823489D01*
X154823489Y-112317177D01*
X155221295Y-111721818D01*
X155495309Y-111060290D01*
X155635000Y-110358016D01*
X155635000Y-109641984D01*
X155495309Y-108939710D01*
X155221295Y-108278182D01*
X154823489Y-107682823D01*
X154317177Y-107176511D01*
X153721818Y-106778705D01*
X153060290Y-106504691D01*
X152358016Y-106365000D01*
X151641984Y-106365000D01*
X150939710Y-106504691D01*
X150278182Y-106778705D01*
X149682823Y-107176511D01*
X149176511Y-107682823D01*
X148778705Y-108278182D01*
X148504691Y-108939710D01*
X148365000Y-109641984D01*
X143790063Y-109641984D01*
X143844630Y-109462102D01*
X143868475Y-109220000D01*
X143844630Y-108977898D01*
X143774011Y-108745099D01*
X143659333Y-108530551D01*
X143505002Y-108342498D01*
X143316949Y-108188167D01*
X143102401Y-108073489D01*
X142869602Y-108002870D01*
X142688165Y-107985000D01*
X141766835Y-107985000D01*
X141585398Y-108002870D01*
X141352599Y-108073489D01*
X141138051Y-108188167D01*
X140949998Y-108342498D01*
X140795667Y-108530551D01*
X140680989Y-108745099D01*
X140610370Y-108977898D01*
X140586525Y-109220000D01*
X139012145Y-109220000D01*
X138899952Y-109167244D01*
X138632865Y-109100977D01*
X138357983Y-109088090D01*
X138085867Y-109129078D01*
X137826977Y-109222364D01*
X137711020Y-109284344D01*
X137644040Y-109524435D01*
X136900090Y-109524435D01*
X136780535Y-109404880D01*
X136551727Y-109251995D01*
X136297490Y-109146686D01*
X136027592Y-109093000D01*
X135752408Y-109093000D01*
X135482510Y-109146686D01*
X135228273Y-109251995D01*
X134999465Y-109404880D01*
X134804880Y-109599465D01*
X134651995Y-109828273D01*
X134620000Y-109905515D01*
X134588005Y-109828273D01*
X134435120Y-109599465D01*
X134240535Y-109404880D01*
X134011727Y-109251995D01*
X133757490Y-109146686D01*
X133487592Y-109093000D01*
X133212408Y-109093000D01*
X132942510Y-109146686D01*
X132688273Y-109251995D01*
X132459465Y-109404880D01*
X132264880Y-109599465D01*
X132111995Y-109828273D01*
X132080000Y-109905515D01*
X132048005Y-109828273D01*
X131895120Y-109599465D01*
X131700535Y-109404880D01*
X131471727Y-109251995D01*
X131217490Y-109146686D01*
X130947592Y-109093000D01*
X130672408Y-109093000D01*
X130402510Y-109146686D01*
X130148273Y-109251995D01*
X129919465Y-109404880D01*
X129724880Y-109599465D01*
X129571995Y-109828273D01*
X129466686Y-110082510D01*
X129413000Y-110352408D01*
X127913785Y-110352408D01*
X128101949Y-110251833D01*
X128290002Y-110097502D01*
X128444333Y-109909449D01*
X128559011Y-109694901D01*
X128629630Y-109462102D01*
X128653475Y-109220000D01*
X128629630Y-108977898D01*
X128559011Y-108745099D01*
X128444333Y-108530551D01*
X128290002Y-108342498D01*
X128101949Y-108188167D01*
X127887401Y-108073489D01*
X127654602Y-108002870D01*
X127473165Y-107985000D01*
X126551835Y-107985000D01*
X126370398Y-108002870D01*
X126137599Y-108073489D01*
X125923051Y-108188167D01*
X125734998Y-108342498D01*
X125580667Y-108530551D01*
X125465989Y-108745099D01*
X125395370Y-108977898D01*
X125371525Y-109220000D01*
X123551063Y-109220000D01*
X123495309Y-108939710D01*
X123221295Y-108278182D01*
X122823489Y-107682823D01*
X122317177Y-107176511D01*
X121721818Y-106778705D01*
X121483524Y-106680000D01*
X125371525Y-106680000D01*
X125395370Y-106922102D01*
X125465989Y-107154901D01*
X125580667Y-107369449D01*
X125734998Y-107557502D01*
X125923051Y-107711833D01*
X126137599Y-107826511D01*
X126370398Y-107897130D01*
X126551835Y-107915000D01*
X127473165Y-107915000D01*
X127654602Y-107897130D01*
X127887401Y-107826511D01*
X128101949Y-107711833D01*
X128290002Y-107557502D01*
X128444333Y-107369449D01*
X128559011Y-107154901D01*
X128629630Y-106922102D01*
X128653475Y-106680000D01*
X140586525Y-106680000D01*
X140610370Y-106922102D01*
X140680989Y-107154901D01*
X140795667Y-107369449D01*
X140949998Y-107557502D01*
X141138051Y-107711833D01*
X141352599Y-107826511D01*
X141585398Y-107897130D01*
X141766835Y-107915000D01*
X142688165Y-107915000D01*
X142869602Y-107897130D01*
X143102401Y-107826511D01*
X143316949Y-107711833D01*
X143505002Y-107557502D01*
X143659333Y-107369449D01*
X143774011Y-107154901D01*
X143844630Y-106922102D01*
X143868475Y-106680000D01*
X143844630Y-106437898D01*
X143774011Y-106205099D01*
X143659333Y-105990551D01*
X143505002Y-105802498D01*
X143316949Y-105648167D01*
X143102401Y-105533489D01*
X142869602Y-105462870D01*
X142688165Y-105445000D01*
X141766835Y-105445000D01*
X141585398Y-105462870D01*
X141352599Y-105533489D01*
X141138051Y-105648167D01*
X140949998Y-105802498D01*
X140795667Y-105990551D01*
X140680989Y-106205099D01*
X140610370Y-106437898D01*
X140586525Y-106680000D01*
X128653475Y-106680000D01*
X128629630Y-106437898D01*
X128559011Y-106205099D01*
X128444333Y-105990551D01*
X128290002Y-105802498D01*
X128101949Y-105648167D01*
X127887401Y-105533489D01*
X127654602Y-105462870D01*
X127473165Y-105445000D01*
X126551835Y-105445000D01*
X126370398Y-105462870D01*
X126137599Y-105533489D01*
X125923051Y-105648167D01*
X125734998Y-105802498D01*
X125580667Y-105990551D01*
X125465989Y-106205099D01*
X125395370Y-106437898D01*
X125371525Y-106680000D01*
X121483524Y-106680000D01*
X121060290Y-106504691D01*
X120358016Y-106365000D01*
X119641984Y-106365000D01*
X118939710Y-106504691D01*
X118278182Y-106778705D01*
X117682823Y-107176511D01*
X117176511Y-107682823D01*
X116778705Y-108278182D01*
X116504691Y-108939710D01*
X116365000Y-109641984D01*
X110695000Y-109641984D01*
X110695000Y-104140000D01*
X125371525Y-104140000D01*
X125395370Y-104382102D01*
X125465989Y-104614901D01*
X125580667Y-104829449D01*
X125734998Y-105017502D01*
X125923051Y-105171833D01*
X126137599Y-105286511D01*
X126370398Y-105357130D01*
X126551835Y-105375000D01*
X127473165Y-105375000D01*
X127654602Y-105357130D01*
X127887401Y-105286511D01*
X128101949Y-105171833D01*
X128290002Y-105017502D01*
X128444333Y-104829449D01*
X128559011Y-104614901D01*
X128629630Y-104382102D01*
X128653475Y-104140000D01*
X140586525Y-104140000D01*
X140610370Y-104382102D01*
X140680989Y-104614901D01*
X140795667Y-104829449D01*
X140949998Y-105017502D01*
X141138051Y-105171833D01*
X141352599Y-105286511D01*
X141585398Y-105357130D01*
X141766835Y-105375000D01*
X142688165Y-105375000D01*
X142869602Y-105357130D01*
X143102401Y-105286511D01*
X143316949Y-105171833D01*
X143505002Y-105017502D01*
X143659333Y-104829449D01*
X143774011Y-104614901D01*
X143844630Y-104382102D01*
X143868475Y-104140000D01*
X143844630Y-103897898D01*
X143774011Y-103665099D01*
X143659333Y-103450551D01*
X143505002Y-103262498D01*
X143316949Y-103108167D01*
X143102401Y-102993489D01*
X142869602Y-102922870D01*
X142688165Y-102905000D01*
X141766835Y-102905000D01*
X141585398Y-102922870D01*
X141352599Y-102993489D01*
X141138051Y-103108167D01*
X140949998Y-103262498D01*
X140795667Y-103450551D01*
X140680989Y-103665099D01*
X140610370Y-103897898D01*
X140586525Y-104140000D01*
X128653475Y-104140000D01*
X128629630Y-103897898D01*
X128559011Y-103665099D01*
X128444333Y-103450551D01*
X128290002Y-103262498D01*
X128101949Y-103108167D01*
X127887401Y-102993489D01*
X127654602Y-102922870D01*
X127473165Y-102905000D01*
X126551835Y-102905000D01*
X126370398Y-102922870D01*
X126137599Y-102993489D01*
X125923051Y-103108167D01*
X125734998Y-103262498D01*
X125580667Y-103450551D01*
X125465989Y-103665099D01*
X125395370Y-103897898D01*
X125371525Y-104140000D01*
X110695000Y-104140000D01*
X110695000Y-101600000D01*
X125371525Y-101600000D01*
X125395370Y-101842102D01*
X125465989Y-102074901D01*
X125580667Y-102289449D01*
X125734998Y-102477502D01*
X125923051Y-102631833D01*
X126137599Y-102746511D01*
X126370398Y-102817130D01*
X126551835Y-102835000D01*
X127473165Y-102835000D01*
X127654602Y-102817130D01*
X127887401Y-102746511D01*
X128101949Y-102631833D01*
X128290002Y-102477502D01*
X128444333Y-102289449D01*
X128559011Y-102074901D01*
X128629630Y-101842102D01*
X128653475Y-101600000D01*
X140586525Y-101600000D01*
X140610370Y-101842102D01*
X140680989Y-102074901D01*
X140795667Y-102289449D01*
X140949998Y-102477502D01*
X141138051Y-102631833D01*
X141352599Y-102746511D01*
X141585398Y-102817130D01*
X141766835Y-102835000D01*
X142688165Y-102835000D01*
X142869602Y-102817130D01*
X143102401Y-102746511D01*
X143316949Y-102631833D01*
X143505002Y-102477502D01*
X143659333Y-102289449D01*
X143774011Y-102074901D01*
X143844630Y-101842102D01*
X143868475Y-101600000D01*
X143844630Y-101357898D01*
X143774011Y-101125099D01*
X143659333Y-100910551D01*
X143505002Y-100722498D01*
X143316949Y-100568167D01*
X143102401Y-100453489D01*
X142869602Y-100382870D01*
X142688165Y-100365000D01*
X141766835Y-100365000D01*
X141585398Y-100382870D01*
X141352599Y-100453489D01*
X141138051Y-100568167D01*
X140949998Y-100722498D01*
X140795667Y-100910551D01*
X140680989Y-101125099D01*
X140610370Y-101357898D01*
X140586525Y-101600000D01*
X128653475Y-101600000D01*
X128629630Y-101357898D01*
X128559011Y-101125099D01*
X128444333Y-100910551D01*
X128290002Y-100722498D01*
X128101949Y-100568167D01*
X127887401Y-100453489D01*
X127654602Y-100382870D01*
X127473165Y-100365000D01*
X126551835Y-100365000D01*
X126370398Y-100382870D01*
X126137599Y-100453489D01*
X125923051Y-100568167D01*
X125734998Y-100722498D01*
X125580667Y-100910551D01*
X125465989Y-101125099D01*
X125395370Y-101357898D01*
X125371525Y-101600000D01*
X110695000Y-101600000D01*
X110695000Y-99910000D01*
X112113428Y-99910000D01*
X112125688Y-100034482D01*
X112161998Y-100154180D01*
X112220963Y-100264494D01*
X112300315Y-100361185D01*
X112397006Y-100440537D01*
X112507320Y-100499502D01*
X112627018Y-100535812D01*
X112751500Y-100548072D01*
X113315750Y-100545000D01*
X113474500Y-100386250D01*
X113474500Y-99187000D01*
X112275250Y-99187000D01*
X112116500Y-99345750D01*
X112113428Y-99910000D01*
X110695000Y-99910000D01*
X110695000Y-97370000D01*
X112113428Y-97370000D01*
X112125688Y-97494482D01*
X112161998Y-97614180D01*
X112220963Y-97724494D01*
X112274722Y-97790000D01*
X112220963Y-97855506D01*
X112161998Y-97965820D01*
X112125688Y-98085518D01*
X112113428Y-98210000D01*
X112116500Y-98774250D01*
X112275250Y-98933000D01*
X113474500Y-98933000D01*
X113474500Y-96647000D01*
X112275250Y-96647000D01*
X112116500Y-96805750D01*
X112113428Y-97370000D01*
X110695000Y-97370000D01*
X110695000Y-94830000D01*
X112113428Y-94830000D01*
X112125688Y-94954482D01*
X112161998Y-95074180D01*
X112220963Y-95184494D01*
X112274722Y-95250000D01*
X112220963Y-95315506D01*
X112161998Y-95425820D01*
X112125688Y-95545518D01*
X112113428Y-95670000D01*
X112116500Y-96234250D01*
X112275250Y-96393000D01*
X113474500Y-96393000D01*
X113474500Y-94107000D01*
X112275250Y-94107000D01*
X112116500Y-94265750D01*
X112113428Y-94830000D01*
X110695000Y-94830000D01*
X110695000Y-92290000D01*
X112113428Y-92290000D01*
X112125688Y-92414482D01*
X112161998Y-92534180D01*
X112220963Y-92644494D01*
X112274722Y-92710000D01*
X112220963Y-92775506D01*
X112161998Y-92885820D01*
X112125688Y-93005518D01*
X112113428Y-93130000D01*
X112116500Y-93694250D01*
X112275250Y-93853000D01*
X113474500Y-93853000D01*
X113474500Y-91567000D01*
X112275250Y-91567000D01*
X112116500Y-91725750D01*
X112113428Y-92290000D01*
X110695000Y-92290000D01*
X110695000Y-89750000D01*
X112113428Y-89750000D01*
X112125688Y-89874482D01*
X112161998Y-89994180D01*
X112220963Y-90104494D01*
X112274722Y-90170000D01*
X112220963Y-90235506D01*
X112161998Y-90345820D01*
X112125688Y-90465518D01*
X112113428Y-90590000D01*
X112116500Y-91154250D01*
X112275250Y-91313000D01*
X113474500Y-91313000D01*
X113474500Y-89027000D01*
X112275250Y-89027000D01*
X112116500Y-89185750D01*
X112113428Y-89750000D01*
X110695000Y-89750000D01*
X110695000Y-87210000D01*
X112113428Y-87210000D01*
X112125688Y-87334482D01*
X112161998Y-87454180D01*
X112220963Y-87564494D01*
X112274722Y-87630000D01*
X112220963Y-87695506D01*
X112161998Y-87805820D01*
X112125688Y-87925518D01*
X112113428Y-88050000D01*
X112116500Y-88614250D01*
X112275250Y-88773000D01*
X113474500Y-88773000D01*
X113474500Y-86487000D01*
X112275250Y-86487000D01*
X112116500Y-86645750D01*
X112113428Y-87210000D01*
X110695000Y-87210000D01*
X110695000Y-84670000D01*
X112113428Y-84670000D01*
X112125688Y-84794482D01*
X112161998Y-84914180D01*
X112220963Y-85024494D01*
X112274722Y-85090000D01*
X112220963Y-85155506D01*
X112161998Y-85265820D01*
X112125688Y-85385518D01*
X112113428Y-85510000D01*
X112116500Y-86074250D01*
X112275250Y-86233000D01*
X113474500Y-86233000D01*
X113474500Y-83947000D01*
X112275250Y-83947000D01*
X112116500Y-84105750D01*
X112113428Y-84670000D01*
X110695000Y-84670000D01*
X110695000Y-82130000D01*
X112113428Y-82130000D01*
X112125688Y-82254482D01*
X112161998Y-82374180D01*
X112220963Y-82484494D01*
X112274722Y-82550000D01*
X112220963Y-82615506D01*
X112161998Y-82725820D01*
X112125688Y-82845518D01*
X112113428Y-82970000D01*
X112116500Y-83534250D01*
X112275250Y-83693000D01*
X113474500Y-83693000D01*
X113474500Y-81407000D01*
X112275250Y-81407000D01*
X112116500Y-81565750D01*
X112113428Y-82130000D01*
X110695000Y-82130000D01*
X110695000Y-80430000D01*
X112113428Y-80430000D01*
X112116500Y-80994250D01*
X112275250Y-81153000D01*
X113474500Y-81153000D01*
X113474500Y-79953750D01*
X113728500Y-79953750D01*
X113728500Y-81153000D01*
X113748500Y-81153000D01*
X113748500Y-81407000D01*
X113728500Y-81407000D01*
X113728500Y-83693000D01*
X113748500Y-83693000D01*
X113748500Y-83947000D01*
X113728500Y-83947000D01*
X113728500Y-86233000D01*
X113748500Y-86233000D01*
X113748500Y-86487000D01*
X113728500Y-86487000D01*
X113728500Y-88773000D01*
X113748500Y-88773000D01*
X113748500Y-89027000D01*
X113728500Y-89027000D01*
X113728500Y-91313000D01*
X113748500Y-91313000D01*
X113748500Y-91567000D01*
X113728500Y-91567000D01*
X113728500Y-93853000D01*
X113748500Y-93853000D01*
X113748500Y-94107000D01*
X113728500Y-94107000D01*
X113728500Y-96393000D01*
X113748500Y-96393000D01*
X113748500Y-96647000D01*
X113728500Y-96647000D01*
X113728500Y-98933000D01*
X113748500Y-98933000D01*
X113748500Y-99187000D01*
X113728500Y-99187000D01*
X113728500Y-100386250D01*
X113887250Y-100545000D01*
X114451500Y-100548072D01*
X114575982Y-100535812D01*
X114695680Y-100499502D01*
X114805994Y-100440537D01*
X114902685Y-100361185D01*
X114982037Y-100264494D01*
X115041002Y-100154180D01*
X115063013Y-100081620D01*
X115194868Y-100213475D01*
X115438089Y-100375990D01*
X115708342Y-100487932D01*
X115995240Y-100545000D01*
X116287760Y-100545000D01*
X116574658Y-100487932D01*
X116844911Y-100375990D01*
X117088132Y-100213475D01*
X117294975Y-100006632D01*
X117411500Y-99832240D01*
X117528025Y-100006632D01*
X117734868Y-100213475D01*
X117978089Y-100375990D01*
X118248342Y-100487932D01*
X118535240Y-100545000D01*
X118827760Y-100545000D01*
X119114658Y-100487932D01*
X119384911Y-100375990D01*
X119628132Y-100213475D01*
X119834975Y-100006632D01*
X119997490Y-99763411D01*
X120109432Y-99493158D01*
X120166500Y-99206260D01*
X120166500Y-99060000D01*
X125371525Y-99060000D01*
X125395370Y-99302102D01*
X125465989Y-99534901D01*
X125580667Y-99749449D01*
X125734998Y-99937502D01*
X125923051Y-100091833D01*
X126137599Y-100206511D01*
X126370398Y-100277130D01*
X126551835Y-100295000D01*
X127473165Y-100295000D01*
X127654602Y-100277130D01*
X127887401Y-100206511D01*
X128101949Y-100091833D01*
X128290002Y-99937502D01*
X128444333Y-99749449D01*
X128559011Y-99534901D01*
X128629630Y-99302102D01*
X128653475Y-99060000D01*
X140586525Y-99060000D01*
X140610370Y-99302102D01*
X140680989Y-99534901D01*
X140795667Y-99749449D01*
X140949998Y-99937502D01*
X141138051Y-100091833D01*
X141352599Y-100206511D01*
X141585398Y-100277130D01*
X141766835Y-100295000D01*
X142688165Y-100295000D01*
X142869602Y-100277130D01*
X143102401Y-100206511D01*
X143316949Y-100091833D01*
X143505002Y-99937502D01*
X143659333Y-99749449D01*
X143774011Y-99534901D01*
X143844630Y-99302102D01*
X143868475Y-99060000D01*
X143844630Y-98817898D01*
X143774011Y-98585099D01*
X143659333Y-98370551D01*
X143505002Y-98182498D01*
X143316949Y-98028167D01*
X143102401Y-97913489D01*
X142869602Y-97842870D01*
X142688165Y-97825000D01*
X141766835Y-97825000D01*
X141585398Y-97842870D01*
X141352599Y-97913489D01*
X141138051Y-98028167D01*
X140949998Y-98182498D01*
X140795667Y-98370551D01*
X140680989Y-98585099D01*
X140610370Y-98817898D01*
X140586525Y-99060000D01*
X128653475Y-99060000D01*
X128629630Y-98817898D01*
X128559011Y-98585099D01*
X128444333Y-98370551D01*
X128290002Y-98182498D01*
X128101949Y-98028167D01*
X127887401Y-97913489D01*
X127654602Y-97842870D01*
X127473165Y-97825000D01*
X126551835Y-97825000D01*
X126370398Y-97842870D01*
X126137599Y-97913489D01*
X125923051Y-98028167D01*
X125734998Y-98182498D01*
X125580667Y-98370551D01*
X125465989Y-98585099D01*
X125395370Y-98817898D01*
X125371525Y-99060000D01*
X120166500Y-99060000D01*
X120166500Y-98913740D01*
X120109432Y-98626842D01*
X119997490Y-98356589D01*
X119834975Y-98113368D01*
X119628132Y-97906525D01*
X119453740Y-97790000D01*
X119628132Y-97673475D01*
X119834975Y-97466632D01*
X119997490Y-97223411D01*
X120109432Y-96953158D01*
X120166500Y-96666260D01*
X120166500Y-96520000D01*
X125371525Y-96520000D01*
X125395370Y-96762102D01*
X125465989Y-96994901D01*
X125580667Y-97209449D01*
X125734998Y-97397502D01*
X125923051Y-97551833D01*
X126137599Y-97666511D01*
X126370398Y-97737130D01*
X126551835Y-97755000D01*
X127473165Y-97755000D01*
X127654602Y-97737130D01*
X127887401Y-97666511D01*
X128101949Y-97551833D01*
X128290002Y-97397502D01*
X128444333Y-97209449D01*
X128559011Y-96994901D01*
X128629630Y-96762102D01*
X128653475Y-96520000D01*
X128629630Y-96277898D01*
X128559011Y-96045099D01*
X128444333Y-95830551D01*
X128290002Y-95642498D01*
X128101949Y-95488167D01*
X127887401Y-95373489D01*
X127654602Y-95302870D01*
X127473165Y-95285000D01*
X126551835Y-95285000D01*
X126370398Y-95302870D01*
X126137599Y-95373489D01*
X125923051Y-95488167D01*
X125734998Y-95642498D01*
X125580667Y-95830551D01*
X125465989Y-96045099D01*
X125395370Y-96277898D01*
X125371525Y-96520000D01*
X120166500Y-96520000D01*
X120166500Y-96373740D01*
X120109432Y-96086842D01*
X119997490Y-95816589D01*
X119834975Y-95573368D01*
X119628132Y-95366525D01*
X119453740Y-95250000D01*
X119628132Y-95133475D01*
X119834975Y-94926632D01*
X119997490Y-94683411D01*
X120109432Y-94413158D01*
X120166500Y-94126260D01*
X120166500Y-93980000D01*
X125371525Y-93980000D01*
X125395370Y-94222102D01*
X125465989Y-94454901D01*
X125580667Y-94669449D01*
X125734998Y-94857502D01*
X125923051Y-95011833D01*
X126137599Y-95126511D01*
X126370398Y-95197130D01*
X126551835Y-95215000D01*
X127473165Y-95215000D01*
X127654602Y-95197130D01*
X127887401Y-95126511D01*
X128101949Y-95011833D01*
X128290002Y-94857502D01*
X128444333Y-94669449D01*
X128559011Y-94454901D01*
X128629630Y-94222102D01*
X128653475Y-93980000D01*
X128629630Y-93737898D01*
X128559011Y-93505099D01*
X128444333Y-93290551D01*
X128290002Y-93102498D01*
X128101949Y-92948167D01*
X127887401Y-92833489D01*
X127654602Y-92762870D01*
X127473165Y-92745000D01*
X126551835Y-92745000D01*
X126370398Y-92762870D01*
X126137599Y-92833489D01*
X125923051Y-92948167D01*
X125734998Y-93102498D01*
X125580667Y-93290551D01*
X125465989Y-93505099D01*
X125395370Y-93737898D01*
X125371525Y-93980000D01*
X120166500Y-93980000D01*
X120166500Y-93833740D01*
X120109432Y-93546842D01*
X119997490Y-93276589D01*
X119834975Y-93033368D01*
X119628132Y-92826525D01*
X119453740Y-92710000D01*
X119628132Y-92593475D01*
X119834975Y-92386632D01*
X119997490Y-92143411D01*
X120109432Y-91873158D01*
X120166500Y-91586260D01*
X120166500Y-91440000D01*
X125371525Y-91440000D01*
X125395370Y-91682102D01*
X125465989Y-91914901D01*
X125580667Y-92129449D01*
X125734998Y-92317502D01*
X125923051Y-92471833D01*
X126137599Y-92586511D01*
X126370398Y-92657130D01*
X126551835Y-92675000D01*
X127473165Y-92675000D01*
X127654602Y-92657130D01*
X127887401Y-92586511D01*
X128101949Y-92471833D01*
X128290002Y-92317502D01*
X128444333Y-92129449D01*
X128559011Y-91914901D01*
X128629630Y-91682102D01*
X128653475Y-91440000D01*
X140586525Y-91440000D01*
X140610370Y-91682102D01*
X140680989Y-91914901D01*
X140795667Y-92129449D01*
X140949998Y-92317502D01*
X141138051Y-92471833D01*
X141352599Y-92586511D01*
X141585398Y-92657130D01*
X141766835Y-92675000D01*
X142364133Y-92675000D01*
X142294133Y-92745000D01*
X141766835Y-92745000D01*
X141585398Y-92762870D01*
X141352599Y-92833489D01*
X141138051Y-92948167D01*
X140949998Y-93102498D01*
X140795667Y-93290551D01*
X140680989Y-93505099D01*
X140610370Y-93737898D01*
X140586525Y-93980000D01*
X140610370Y-94222102D01*
X140680989Y-94454901D01*
X140795667Y-94669449D01*
X140949998Y-94857502D01*
X141138051Y-95011833D01*
X141352599Y-95126511D01*
X141585398Y-95197130D01*
X141766835Y-95215000D01*
X142364133Y-95215000D01*
X142294133Y-95285000D01*
X141766835Y-95285000D01*
X141585398Y-95302870D01*
X141352599Y-95373489D01*
X141138051Y-95488167D01*
X140949998Y-95642498D01*
X140795667Y-95830551D01*
X140680989Y-96045099D01*
X140610370Y-96277898D01*
X140586525Y-96520000D01*
X140610370Y-96762102D01*
X140680989Y-96994901D01*
X140795667Y-97209449D01*
X140949998Y-97397502D01*
X141138051Y-97551833D01*
X141352599Y-97666511D01*
X141585398Y-97737130D01*
X141766835Y-97755000D01*
X142688165Y-97755000D01*
X142869602Y-97737130D01*
X143102401Y-97666511D01*
X143316949Y-97551833D01*
X143505002Y-97397502D01*
X143659333Y-97209449D01*
X143766613Y-97008740D01*
X160550000Y-97008740D01*
X160550000Y-97301260D01*
X160607068Y-97588158D01*
X160719010Y-97858411D01*
X160881525Y-98101632D01*
X161088368Y-98308475D01*
X161262760Y-98425000D01*
X161088368Y-98541525D01*
X160881525Y-98748368D01*
X160719010Y-98991589D01*
X160607068Y-99261842D01*
X160550000Y-99548740D01*
X160550000Y-99841260D01*
X160607068Y-100128158D01*
X160719010Y-100398411D01*
X160881525Y-100641632D01*
X161088368Y-100848475D01*
X161262760Y-100965000D01*
X161088368Y-101081525D01*
X160881525Y-101288368D01*
X160719010Y-101531589D01*
X160607068Y-101801842D01*
X160550000Y-102088740D01*
X160550000Y-102381260D01*
X160607068Y-102668158D01*
X160719010Y-102938411D01*
X160881525Y-103181632D01*
X161088368Y-103388475D01*
X161262760Y-103505000D01*
X161088368Y-103621525D01*
X160881525Y-103828368D01*
X160719010Y-104071589D01*
X160607068Y-104341842D01*
X160550000Y-104628740D01*
X160550000Y-104921260D01*
X160607068Y-105208158D01*
X160719010Y-105478411D01*
X160881525Y-105721632D01*
X161088368Y-105928475D01*
X161262760Y-106045000D01*
X161088368Y-106161525D01*
X160881525Y-106368368D01*
X160719010Y-106611589D01*
X160607068Y-106881842D01*
X160550000Y-107168740D01*
X160550000Y-107461260D01*
X160607068Y-107748158D01*
X160719010Y-108018411D01*
X160881525Y-108261632D01*
X161088368Y-108468475D01*
X161262760Y-108585000D01*
X161088368Y-108701525D01*
X160881525Y-108908368D01*
X160719010Y-109151589D01*
X160607068Y-109421842D01*
X160550000Y-109708740D01*
X160550000Y-110001260D01*
X160607068Y-110288158D01*
X160719010Y-110558411D01*
X160881525Y-110801632D01*
X161088368Y-111008475D01*
X161262760Y-111125000D01*
X161088368Y-111241525D01*
X160881525Y-111448368D01*
X160719010Y-111691589D01*
X160607068Y-111961842D01*
X160550000Y-112248740D01*
X160550000Y-112541260D01*
X160607068Y-112828158D01*
X160719010Y-113098411D01*
X160881525Y-113341632D01*
X161088368Y-113548475D01*
X161262760Y-113665000D01*
X161088368Y-113781525D01*
X160881525Y-113988368D01*
X160719010Y-114231589D01*
X160607068Y-114501842D01*
X160550000Y-114788740D01*
X160550000Y-115081260D01*
X160607068Y-115368158D01*
X160719010Y-115638411D01*
X160881525Y-115881632D01*
X161088368Y-116088475D01*
X161331589Y-116250990D01*
X161601842Y-116362932D01*
X161888740Y-116420000D01*
X162181260Y-116420000D01*
X162468158Y-116362932D01*
X162738411Y-116250990D01*
X162981632Y-116088475D01*
X163188475Y-115881632D01*
X163305000Y-115707240D01*
X163421525Y-115881632D01*
X163628368Y-116088475D01*
X163871589Y-116250990D01*
X164141842Y-116362932D01*
X164428740Y-116420000D01*
X164721260Y-116420000D01*
X165008158Y-116362932D01*
X165278411Y-116250990D01*
X165521632Y-116088475D01*
X165653487Y-115956620D01*
X165675498Y-116029180D01*
X165734463Y-116139494D01*
X165813815Y-116236185D01*
X165910506Y-116315537D01*
X166020820Y-116374502D01*
X166140518Y-116410812D01*
X166265000Y-116423072D01*
X166829250Y-116420000D01*
X166988000Y-116261250D01*
X166988000Y-115062000D01*
X167242000Y-115062000D01*
X167242000Y-116261250D01*
X167400750Y-116420000D01*
X167965000Y-116423072D01*
X168089482Y-116410812D01*
X168209180Y-116374502D01*
X168319494Y-116315537D01*
X168416185Y-116236185D01*
X168495537Y-116139494D01*
X168554502Y-116029180D01*
X168590812Y-115909482D01*
X168603072Y-115785000D01*
X168600000Y-115220750D01*
X168441250Y-115062000D01*
X167242000Y-115062000D01*
X166988000Y-115062000D01*
X166968000Y-115062000D01*
X166968000Y-114808000D01*
X166988000Y-114808000D01*
X166988000Y-112522000D01*
X167242000Y-112522000D01*
X167242000Y-114808000D01*
X168441250Y-114808000D01*
X168600000Y-114649250D01*
X168603072Y-114085000D01*
X168590812Y-113960518D01*
X168554502Y-113840820D01*
X168495537Y-113730506D01*
X168441778Y-113665000D01*
X168495537Y-113599494D01*
X168554502Y-113489180D01*
X168590812Y-113369482D01*
X168603072Y-113245000D01*
X168600000Y-112680750D01*
X168441250Y-112522000D01*
X167242000Y-112522000D01*
X166988000Y-112522000D01*
X166968000Y-112522000D01*
X166968000Y-112268000D01*
X166988000Y-112268000D01*
X166988000Y-109982000D01*
X167242000Y-109982000D01*
X167242000Y-112268000D01*
X168441250Y-112268000D01*
X168600000Y-112109250D01*
X168603072Y-111545000D01*
X168590812Y-111420518D01*
X168554502Y-111300820D01*
X168495537Y-111190506D01*
X168441778Y-111125000D01*
X168495537Y-111059494D01*
X168554502Y-110949180D01*
X168590812Y-110829482D01*
X168603072Y-110705000D01*
X168600000Y-110140750D01*
X168441250Y-109982000D01*
X167242000Y-109982000D01*
X166988000Y-109982000D01*
X166968000Y-109982000D01*
X166968000Y-109728000D01*
X166988000Y-109728000D01*
X166988000Y-107442000D01*
X167242000Y-107442000D01*
X167242000Y-109728000D01*
X168441250Y-109728000D01*
X168600000Y-109569250D01*
X168603072Y-109005000D01*
X168590812Y-108880518D01*
X168554502Y-108760820D01*
X168495537Y-108650506D01*
X168441778Y-108585000D01*
X168495537Y-108519494D01*
X168554502Y-108409180D01*
X168590812Y-108289482D01*
X168603072Y-108165000D01*
X168600000Y-107600750D01*
X168441250Y-107442000D01*
X167242000Y-107442000D01*
X166988000Y-107442000D01*
X166968000Y-107442000D01*
X166968000Y-107188000D01*
X166988000Y-107188000D01*
X166988000Y-104902000D01*
X167242000Y-104902000D01*
X167242000Y-107188000D01*
X168441250Y-107188000D01*
X168600000Y-107029250D01*
X168603072Y-106465000D01*
X168590812Y-106340518D01*
X168554502Y-106220820D01*
X168495537Y-106110506D01*
X168441778Y-106045000D01*
X168495537Y-105979494D01*
X168554502Y-105869180D01*
X168590812Y-105749482D01*
X168603072Y-105625000D01*
X168600000Y-105060750D01*
X168441250Y-104902000D01*
X167242000Y-104902000D01*
X166988000Y-104902000D01*
X166968000Y-104902000D01*
X166968000Y-104648000D01*
X166988000Y-104648000D01*
X166988000Y-102362000D01*
X167242000Y-102362000D01*
X167242000Y-104648000D01*
X168441250Y-104648000D01*
X168600000Y-104489250D01*
X168603072Y-103925000D01*
X168590812Y-103800518D01*
X168554502Y-103680820D01*
X168495537Y-103570506D01*
X168441778Y-103505000D01*
X168495537Y-103439494D01*
X168554502Y-103329180D01*
X168590812Y-103209482D01*
X168603072Y-103085000D01*
X168600000Y-102520750D01*
X168441250Y-102362000D01*
X167242000Y-102362000D01*
X166988000Y-102362000D01*
X166968000Y-102362000D01*
X166968000Y-102108000D01*
X166988000Y-102108000D01*
X166988000Y-99822000D01*
X167242000Y-99822000D01*
X167242000Y-102108000D01*
X168441250Y-102108000D01*
X168600000Y-101949250D01*
X168603072Y-101385000D01*
X168590812Y-101260518D01*
X168554502Y-101140820D01*
X168495537Y-101030506D01*
X168441778Y-100965000D01*
X168495537Y-100899494D01*
X168554502Y-100789180D01*
X168590812Y-100669482D01*
X168603072Y-100545000D01*
X168600000Y-99980750D01*
X168441250Y-99822000D01*
X167242000Y-99822000D01*
X166988000Y-99822000D01*
X166968000Y-99822000D01*
X166968000Y-99568000D01*
X166988000Y-99568000D01*
X166988000Y-97282000D01*
X167242000Y-97282000D01*
X167242000Y-99568000D01*
X168441250Y-99568000D01*
X168600000Y-99409250D01*
X168603072Y-98845000D01*
X168590812Y-98720518D01*
X168554502Y-98600820D01*
X168495537Y-98490506D01*
X168441778Y-98425000D01*
X168495537Y-98359494D01*
X168554502Y-98249180D01*
X168590812Y-98129482D01*
X168603072Y-98005000D01*
X168600000Y-97440750D01*
X168441250Y-97282000D01*
X167242000Y-97282000D01*
X166988000Y-97282000D01*
X166968000Y-97282000D01*
X166968000Y-97028000D01*
X166988000Y-97028000D01*
X166988000Y-95828750D01*
X167242000Y-95828750D01*
X167242000Y-97028000D01*
X168441250Y-97028000D01*
X168600000Y-96869250D01*
X168603072Y-96305000D01*
X168590812Y-96180518D01*
X168554502Y-96060820D01*
X168495537Y-95950506D01*
X168416185Y-95853815D01*
X168319494Y-95774463D01*
X168209180Y-95715498D01*
X168089482Y-95679188D01*
X167965000Y-95666928D01*
X167400750Y-95670000D01*
X167242000Y-95828750D01*
X166988000Y-95828750D01*
X166829250Y-95670000D01*
X166265000Y-95666928D01*
X166140518Y-95679188D01*
X166020820Y-95715498D01*
X165910506Y-95774463D01*
X165813815Y-95853815D01*
X165734463Y-95950506D01*
X165675498Y-96060820D01*
X165653487Y-96133380D01*
X165521632Y-96001525D01*
X165278411Y-95839010D01*
X165008158Y-95727068D01*
X164721260Y-95670000D01*
X164428740Y-95670000D01*
X164141842Y-95727068D01*
X163871589Y-95839010D01*
X163628368Y-96001525D01*
X163421525Y-96208368D01*
X163305000Y-96382760D01*
X163188475Y-96208368D01*
X162981632Y-96001525D01*
X162738411Y-95839010D01*
X162468158Y-95727068D01*
X162181260Y-95670000D01*
X161888740Y-95670000D01*
X161601842Y-95727068D01*
X161331589Y-95839010D01*
X161088368Y-96001525D01*
X160881525Y-96208368D01*
X160719010Y-96451589D01*
X160607068Y-96721842D01*
X160550000Y-97008740D01*
X143766613Y-97008740D01*
X143774011Y-96994901D01*
X143844630Y-96762102D01*
X143868475Y-96520000D01*
X143844630Y-96277898D01*
X143802349Y-96138518D01*
X153380868Y-86560000D01*
X156348077Y-86560000D01*
X156244995Y-86714273D01*
X156139686Y-86968510D01*
X156086000Y-87238408D01*
X156086000Y-87513592D01*
X156139686Y-87783490D01*
X156244995Y-88037727D01*
X156397880Y-88266535D01*
X156592465Y-88461120D01*
X156821273Y-88614005D01*
X157075510Y-88719314D01*
X157345408Y-88773000D01*
X157620592Y-88773000D01*
X157890490Y-88719314D01*
X158144727Y-88614005D01*
X158373535Y-88461120D01*
X158568120Y-88266535D01*
X158626920Y-88178535D01*
X158635188Y-88262482D01*
X158671498Y-88382180D01*
X158730463Y-88492494D01*
X158809815Y-88589185D01*
X158906506Y-88668537D01*
X159016820Y-88727502D01*
X159136518Y-88763812D01*
X159261000Y-88776072D01*
X159737250Y-88773000D01*
X159896000Y-88614250D01*
X159896000Y-87503000D01*
X159876000Y-87503000D01*
X159876000Y-87249000D01*
X159896000Y-87249000D01*
X159896000Y-87229000D01*
X160150000Y-87229000D01*
X160150000Y-87249000D01*
X160170000Y-87249000D01*
X160170000Y-87503000D01*
X160150000Y-87503000D01*
X160150000Y-88614250D01*
X160308750Y-88773000D01*
X160785000Y-88776072D01*
X160909482Y-88763812D01*
X161029180Y-88727502D01*
X161139494Y-88668537D01*
X161236185Y-88589185D01*
X161315537Y-88492494D01*
X161374502Y-88382180D01*
X161410812Y-88262482D01*
X161419080Y-88178535D01*
X161477880Y-88266535D01*
X161672465Y-88461120D01*
X161901273Y-88614005D01*
X162155510Y-88719314D01*
X162425408Y-88773000D01*
X162700592Y-88773000D01*
X162970490Y-88719314D01*
X163224727Y-88614005D01*
X163453535Y-88461120D01*
X163648120Y-88266535D01*
X163801005Y-88037727D01*
X163833000Y-87960485D01*
X163864995Y-88037727D01*
X164017880Y-88266535D01*
X164212465Y-88461120D01*
X164441273Y-88614005D01*
X164695510Y-88719314D01*
X164965408Y-88773000D01*
X165240592Y-88773000D01*
X165510490Y-88719314D01*
X165764727Y-88614005D01*
X165993535Y-88461120D01*
X166188120Y-88266535D01*
X166341005Y-88037727D01*
X166373000Y-87960485D01*
X166404995Y-88037727D01*
X166557880Y-88266535D01*
X166752465Y-88461120D01*
X166981273Y-88614005D01*
X167235510Y-88719314D01*
X167505408Y-88773000D01*
X167780592Y-88773000D01*
X168050490Y-88719314D01*
X168304727Y-88614005D01*
X168533535Y-88461120D01*
X168728120Y-88266535D01*
X168881005Y-88037727D01*
X168986314Y-87783490D01*
X169040000Y-87513592D01*
X169040000Y-87238408D01*
X168986314Y-86968510D01*
X168881005Y-86714273D01*
X168728120Y-86485465D01*
X168533535Y-86290880D01*
X168304727Y-86137995D01*
X168050490Y-86032686D01*
X167780592Y-85979000D01*
X167505408Y-85979000D01*
X167235510Y-86032686D01*
X166981273Y-86137995D01*
X166752465Y-86290880D01*
X166557880Y-86485465D01*
X166404995Y-86714273D01*
X166373000Y-86791515D01*
X166341005Y-86714273D01*
X166188120Y-86485465D01*
X165993535Y-86290880D01*
X165764727Y-86137995D01*
X165510490Y-86032686D01*
X165240592Y-85979000D01*
X164965408Y-85979000D01*
X164899898Y-85992031D01*
X162166446Y-83258579D01*
X162140291Y-83226709D01*
X162013146Y-83122364D01*
X161868087Y-83044828D01*
X161710689Y-82997082D01*
X161588019Y-82985000D01*
X161588018Y-82985000D01*
X161547000Y-82980960D01*
X161505982Y-82985000D01*
X152441018Y-82985000D01*
X152400000Y-82980960D01*
X152358981Y-82985000D01*
X152236311Y-82997082D01*
X152078913Y-83044828D01*
X151933854Y-83122364D01*
X151806709Y-83226709D01*
X151780563Y-83258568D01*
X143843840Y-91195293D01*
X143774011Y-90965099D01*
X143659333Y-90750551D01*
X143505002Y-90562498D01*
X143316949Y-90408167D01*
X143102401Y-90293489D01*
X142869602Y-90222870D01*
X142688165Y-90205000D01*
X141766835Y-90205000D01*
X141585398Y-90222870D01*
X141352599Y-90293489D01*
X141138051Y-90408167D01*
X140949998Y-90562498D01*
X140795667Y-90750551D01*
X140680989Y-90965099D01*
X140610370Y-91197898D01*
X140586525Y-91440000D01*
X128653475Y-91440000D01*
X128629630Y-91197898D01*
X128559011Y-90965099D01*
X128444333Y-90750551D01*
X128290002Y-90562498D01*
X128101949Y-90408167D01*
X127887401Y-90293489D01*
X127654602Y-90222870D01*
X127473165Y-90205000D01*
X126551835Y-90205000D01*
X126370398Y-90222870D01*
X126137599Y-90293489D01*
X125923051Y-90408167D01*
X125734998Y-90562498D01*
X125580667Y-90750551D01*
X125465989Y-90965099D01*
X125395370Y-91197898D01*
X125371525Y-91440000D01*
X120166500Y-91440000D01*
X120166500Y-91293740D01*
X120109432Y-91006842D01*
X119997490Y-90736589D01*
X119834975Y-90493368D01*
X119628132Y-90286525D01*
X119453740Y-90170000D01*
X119628132Y-90053475D01*
X119834975Y-89846632D01*
X119997490Y-89603411D01*
X120109432Y-89333158D01*
X120166500Y-89046260D01*
X120166500Y-88900000D01*
X125371525Y-88900000D01*
X125395370Y-89142102D01*
X125465989Y-89374901D01*
X125580667Y-89589449D01*
X125734998Y-89777502D01*
X125923051Y-89931833D01*
X126137599Y-90046511D01*
X126370398Y-90117130D01*
X126551835Y-90135000D01*
X127473165Y-90135000D01*
X127654602Y-90117130D01*
X127887401Y-90046511D01*
X128101949Y-89931833D01*
X128290002Y-89777502D01*
X128444333Y-89589449D01*
X128559011Y-89374901D01*
X128629630Y-89142102D01*
X128653475Y-88900000D01*
X140586525Y-88900000D01*
X140610370Y-89142102D01*
X140680989Y-89374901D01*
X140795667Y-89589449D01*
X140949998Y-89777502D01*
X141138051Y-89931833D01*
X141352599Y-90046511D01*
X141585398Y-90117130D01*
X141766835Y-90135000D01*
X142688165Y-90135000D01*
X142869602Y-90117130D01*
X143102401Y-90046511D01*
X143316949Y-89931833D01*
X143505002Y-89777502D01*
X143659333Y-89589449D01*
X143774011Y-89374901D01*
X143844630Y-89142102D01*
X143868475Y-88900000D01*
X143844630Y-88657898D01*
X143774011Y-88425099D01*
X143659333Y-88210551D01*
X143505002Y-88022498D01*
X143316949Y-87868167D01*
X143102401Y-87753489D01*
X142869602Y-87682870D01*
X142688165Y-87665000D01*
X141766835Y-87665000D01*
X141585398Y-87682870D01*
X141352599Y-87753489D01*
X141138051Y-87868167D01*
X140949998Y-88022498D01*
X140795667Y-88210551D01*
X140680989Y-88425099D01*
X140610370Y-88657898D01*
X140586525Y-88900000D01*
X128653475Y-88900000D01*
X128629630Y-88657898D01*
X128559011Y-88425099D01*
X128444333Y-88210551D01*
X128290002Y-88022498D01*
X128101949Y-87868167D01*
X127887401Y-87753489D01*
X127654602Y-87682870D01*
X127473165Y-87665000D01*
X126551835Y-87665000D01*
X126370398Y-87682870D01*
X126137599Y-87753489D01*
X125923051Y-87868167D01*
X125734998Y-88022498D01*
X125580667Y-88210551D01*
X125465989Y-88425099D01*
X125395370Y-88657898D01*
X125371525Y-88900000D01*
X120166500Y-88900000D01*
X120166500Y-88753740D01*
X120109432Y-88466842D01*
X119997490Y-88196589D01*
X119834975Y-87953368D01*
X119628132Y-87746525D01*
X119453740Y-87630000D01*
X119628132Y-87513475D01*
X119834975Y-87306632D01*
X119997490Y-87063411D01*
X120109432Y-86793158D01*
X120166500Y-86506260D01*
X120166500Y-86360000D01*
X125371525Y-86360000D01*
X125395370Y-86602102D01*
X125465989Y-86834901D01*
X125580667Y-87049449D01*
X125734998Y-87237502D01*
X125923051Y-87391833D01*
X126137599Y-87506511D01*
X126370398Y-87577130D01*
X126551835Y-87595000D01*
X127473165Y-87595000D01*
X127654602Y-87577130D01*
X127887401Y-87506511D01*
X128101949Y-87391833D01*
X128290002Y-87237502D01*
X128444333Y-87049449D01*
X128559011Y-86834901D01*
X128629630Y-86602102D01*
X128653475Y-86360000D01*
X140586525Y-86360000D01*
X140610370Y-86602102D01*
X140680989Y-86834901D01*
X140795667Y-87049449D01*
X140949998Y-87237502D01*
X141138051Y-87391833D01*
X141352599Y-87506511D01*
X141585398Y-87577130D01*
X141766835Y-87595000D01*
X142688165Y-87595000D01*
X142869602Y-87577130D01*
X143102401Y-87506511D01*
X143316949Y-87391833D01*
X143505002Y-87237502D01*
X143659333Y-87049449D01*
X143774011Y-86834901D01*
X143844630Y-86602102D01*
X143868475Y-86360000D01*
X143844630Y-86117898D01*
X143774011Y-85885099D01*
X143659333Y-85670551D01*
X143505002Y-85482498D01*
X143316949Y-85328167D01*
X143102401Y-85213489D01*
X142869602Y-85142870D01*
X142688165Y-85125000D01*
X141766835Y-85125000D01*
X141585398Y-85142870D01*
X141352599Y-85213489D01*
X141138051Y-85328167D01*
X140949998Y-85482498D01*
X140795667Y-85670551D01*
X140680989Y-85885099D01*
X140610370Y-86117898D01*
X140586525Y-86360000D01*
X128653475Y-86360000D01*
X128629630Y-86117898D01*
X128559011Y-85885099D01*
X128444333Y-85670551D01*
X128290002Y-85482498D01*
X128101949Y-85328167D01*
X127887401Y-85213489D01*
X127654602Y-85142870D01*
X127473165Y-85125000D01*
X126551835Y-85125000D01*
X126370398Y-85142870D01*
X126137599Y-85213489D01*
X125923051Y-85328167D01*
X125734998Y-85482498D01*
X125580667Y-85670551D01*
X125465989Y-85885099D01*
X125395370Y-86117898D01*
X125371525Y-86360000D01*
X120166500Y-86360000D01*
X120166500Y-86213740D01*
X120109432Y-85926842D01*
X119997490Y-85656589D01*
X119834975Y-85413368D01*
X119628132Y-85206525D01*
X119453740Y-85090000D01*
X119628132Y-84973475D01*
X119834975Y-84766632D01*
X119997490Y-84523411D01*
X120109432Y-84253158D01*
X120166500Y-83966260D01*
X120166500Y-83820000D01*
X125371525Y-83820000D01*
X125395370Y-84062102D01*
X125465989Y-84294901D01*
X125580667Y-84509449D01*
X125734998Y-84697502D01*
X125923051Y-84851833D01*
X126137599Y-84966511D01*
X126370398Y-85037130D01*
X126551835Y-85055000D01*
X127473165Y-85055000D01*
X127654602Y-85037130D01*
X127887401Y-84966511D01*
X128101949Y-84851833D01*
X128290002Y-84697502D01*
X128444333Y-84509449D01*
X128559011Y-84294901D01*
X128629630Y-84062102D01*
X128653475Y-83820000D01*
X140586525Y-83820000D01*
X140610370Y-84062102D01*
X140680989Y-84294901D01*
X140795667Y-84509449D01*
X140949998Y-84697502D01*
X141138051Y-84851833D01*
X141352599Y-84966511D01*
X141585398Y-85037130D01*
X141766835Y-85055000D01*
X142688165Y-85055000D01*
X142869602Y-85037130D01*
X143102401Y-84966511D01*
X143316949Y-84851833D01*
X143505002Y-84697502D01*
X143659333Y-84509449D01*
X143774011Y-84294901D01*
X143844630Y-84062102D01*
X143868475Y-83820000D01*
X143844630Y-83577898D01*
X143774011Y-83345099D01*
X143659333Y-83130551D01*
X143505002Y-82942498D01*
X143316949Y-82788167D01*
X143102401Y-82673489D01*
X142869602Y-82602870D01*
X142688165Y-82585000D01*
X141766835Y-82585000D01*
X141585398Y-82602870D01*
X141352599Y-82673489D01*
X141138051Y-82788167D01*
X140949998Y-82942498D01*
X140795667Y-83130551D01*
X140680989Y-83345099D01*
X140610370Y-83577898D01*
X140586525Y-83820000D01*
X128653475Y-83820000D01*
X128629630Y-83577898D01*
X128559011Y-83345099D01*
X128444333Y-83130551D01*
X128290002Y-82942498D01*
X128101949Y-82788167D01*
X127887401Y-82673489D01*
X127654602Y-82602870D01*
X127473165Y-82585000D01*
X126551835Y-82585000D01*
X126370398Y-82602870D01*
X126137599Y-82673489D01*
X125923051Y-82788167D01*
X125734998Y-82942498D01*
X125580667Y-83130551D01*
X125465989Y-83345099D01*
X125395370Y-83577898D01*
X125371525Y-83820000D01*
X120166500Y-83820000D01*
X120166500Y-83673740D01*
X120109432Y-83386842D01*
X119997490Y-83116589D01*
X119834975Y-82873368D01*
X119628132Y-82666525D01*
X119453740Y-82550000D01*
X119628132Y-82433475D01*
X119834975Y-82226632D01*
X119997490Y-81983411D01*
X120109432Y-81713158D01*
X120166500Y-81426260D01*
X120166500Y-81133740D01*
X120109432Y-80846842D01*
X119997490Y-80576589D01*
X119834975Y-80333368D01*
X119628132Y-80126525D01*
X119384911Y-79964010D01*
X119114658Y-79852068D01*
X118827760Y-79795000D01*
X118535240Y-79795000D01*
X118248342Y-79852068D01*
X117978089Y-79964010D01*
X117734868Y-80126525D01*
X117528025Y-80333368D01*
X117411500Y-80507760D01*
X117294975Y-80333368D01*
X117088132Y-80126525D01*
X116844911Y-79964010D01*
X116574658Y-79852068D01*
X116287760Y-79795000D01*
X115995240Y-79795000D01*
X115708342Y-79852068D01*
X115438089Y-79964010D01*
X115194868Y-80126525D01*
X115063013Y-80258380D01*
X115041002Y-80185820D01*
X114982037Y-80075506D01*
X114902685Y-79978815D01*
X114805994Y-79899463D01*
X114695680Y-79840498D01*
X114575982Y-79804188D01*
X114451500Y-79791928D01*
X113887250Y-79795000D01*
X113728500Y-79953750D01*
X113474500Y-79953750D01*
X113315750Y-79795000D01*
X112751500Y-79791928D01*
X112627018Y-79804188D01*
X112507320Y-79840498D01*
X112397006Y-79899463D01*
X112300315Y-79978815D01*
X112220963Y-80075506D01*
X112161998Y-80185820D01*
X112125688Y-80305518D01*
X112113428Y-80430000D01*
X110695000Y-80430000D01*
X110695000Y-77050000D01*
X121638428Y-77050000D01*
X121650688Y-77174482D01*
X121686998Y-77294180D01*
X121745963Y-77404494D01*
X121825315Y-77501185D01*
X121922006Y-77580537D01*
X122032320Y-77639502D01*
X122104880Y-77661513D01*
X121973025Y-77793368D01*
X121810510Y-78036589D01*
X121698568Y-78306842D01*
X121641500Y-78593740D01*
X121641500Y-78886260D01*
X121698568Y-79173158D01*
X121810510Y-79443411D01*
X121973025Y-79686632D01*
X122179868Y-79893475D01*
X122354260Y-80010000D01*
X122179868Y-80126525D01*
X121973025Y-80333368D01*
X121810510Y-80576589D01*
X121698568Y-80846842D01*
X121641500Y-81133740D01*
X121641500Y-81426260D01*
X121698568Y-81713158D01*
X121810510Y-81983411D01*
X121973025Y-82226632D01*
X122179868Y-82433475D01*
X122423089Y-82595990D01*
X122693342Y-82707932D01*
X122980240Y-82765000D01*
X123272760Y-82765000D01*
X123559658Y-82707932D01*
X123829911Y-82595990D01*
X124073132Y-82433475D01*
X124279975Y-82226632D01*
X124442490Y-81983411D01*
X124554432Y-81713158D01*
X124611500Y-81426260D01*
X124611500Y-81280000D01*
X125371525Y-81280000D01*
X125395370Y-81522102D01*
X125465989Y-81754901D01*
X125580667Y-81969449D01*
X125734998Y-82157502D01*
X125923051Y-82311833D01*
X126137599Y-82426511D01*
X126370398Y-82497130D01*
X126551835Y-82515000D01*
X127473165Y-82515000D01*
X127654602Y-82497130D01*
X127887401Y-82426511D01*
X128101949Y-82311833D01*
X128290002Y-82157502D01*
X128444333Y-81969449D01*
X128559011Y-81754901D01*
X128629630Y-81522102D01*
X128653475Y-81280000D01*
X140586525Y-81280000D01*
X140610370Y-81522102D01*
X140680989Y-81754901D01*
X140795667Y-81969449D01*
X140949998Y-82157502D01*
X141138051Y-82311833D01*
X141352599Y-82426511D01*
X141585398Y-82497130D01*
X141766835Y-82515000D01*
X142688165Y-82515000D01*
X142869602Y-82497130D01*
X143102401Y-82426511D01*
X143316949Y-82311833D01*
X143505002Y-82157502D01*
X143659333Y-81969449D01*
X143774011Y-81754901D01*
X143844630Y-81522102D01*
X143868475Y-81280000D01*
X143844630Y-81037898D01*
X143774011Y-80805099D01*
X143659333Y-80590551D01*
X143505002Y-80402498D01*
X143316949Y-80248167D01*
X143102401Y-80133489D01*
X142869602Y-80062870D01*
X142688165Y-80045000D01*
X141766835Y-80045000D01*
X141585398Y-80062870D01*
X141352599Y-80133489D01*
X141138051Y-80248167D01*
X140949998Y-80402498D01*
X140795667Y-80590551D01*
X140680989Y-80805099D01*
X140610370Y-81037898D01*
X140586525Y-81280000D01*
X128653475Y-81280000D01*
X128629630Y-81037898D01*
X128559011Y-80805099D01*
X128444333Y-80590551D01*
X128290002Y-80402498D01*
X128101949Y-80248167D01*
X127887401Y-80133489D01*
X127654602Y-80062870D01*
X127473165Y-80045000D01*
X126551835Y-80045000D01*
X126370398Y-80062870D01*
X126137599Y-80133489D01*
X125923051Y-80248167D01*
X125734998Y-80402498D01*
X125580667Y-80590551D01*
X125465989Y-80805099D01*
X125395370Y-81037898D01*
X125371525Y-81280000D01*
X124611500Y-81280000D01*
X124611500Y-81133740D01*
X124554432Y-80846842D01*
X124442490Y-80576589D01*
X124279975Y-80333368D01*
X124073132Y-80126525D01*
X123898740Y-80010000D01*
X124073132Y-79893475D01*
X124279975Y-79686632D01*
X124442490Y-79443411D01*
X124554432Y-79173158D01*
X124611500Y-78886260D01*
X124611500Y-78740000D01*
X125371525Y-78740000D01*
X125395370Y-78982102D01*
X125465989Y-79214901D01*
X125580667Y-79429449D01*
X125734998Y-79617502D01*
X125923051Y-79771833D01*
X126137599Y-79886511D01*
X126370398Y-79957130D01*
X126551835Y-79975000D01*
X127473165Y-79975000D01*
X127654602Y-79957130D01*
X127887401Y-79886511D01*
X128101949Y-79771833D01*
X128290002Y-79617502D01*
X128444333Y-79429449D01*
X128559011Y-79214901D01*
X128629630Y-78982102D01*
X128653475Y-78740000D01*
X140586525Y-78740000D01*
X140610370Y-78982102D01*
X140680989Y-79214901D01*
X140795667Y-79429449D01*
X140949998Y-79617502D01*
X141138051Y-79771833D01*
X141352599Y-79886511D01*
X141585398Y-79957130D01*
X141766835Y-79975000D01*
X142688165Y-79975000D01*
X142869602Y-79957130D01*
X143102401Y-79886511D01*
X143316949Y-79771833D01*
X143505002Y-79617502D01*
X143659333Y-79429449D01*
X143774011Y-79214901D01*
X143844630Y-78982102D01*
X143868475Y-78740000D01*
X143844630Y-78497898D01*
X143774011Y-78265099D01*
X143659333Y-78050551D01*
X143505002Y-77862498D01*
X143316949Y-77708167D01*
X143102401Y-77593489D01*
X142869602Y-77522870D01*
X142688165Y-77505000D01*
X141766835Y-77505000D01*
X141585398Y-77522870D01*
X141352599Y-77593489D01*
X141138051Y-77708167D01*
X140949998Y-77862498D01*
X140795667Y-78050551D01*
X140680989Y-78265099D01*
X140610370Y-78497898D01*
X140586525Y-78740000D01*
X128653475Y-78740000D01*
X128629630Y-78497898D01*
X128559011Y-78265099D01*
X128444333Y-78050551D01*
X128290002Y-77862498D01*
X128101949Y-77708167D01*
X127887401Y-77593489D01*
X127654602Y-77522870D01*
X127473165Y-77505000D01*
X126551835Y-77505000D01*
X126370398Y-77522870D01*
X126137599Y-77593489D01*
X125923051Y-77708167D01*
X125734998Y-77862498D01*
X125580667Y-78050551D01*
X125465989Y-78265099D01*
X125395370Y-78497898D01*
X125371525Y-78740000D01*
X124611500Y-78740000D01*
X124611500Y-78593740D01*
X124554432Y-78306842D01*
X124442490Y-78036589D01*
X124279975Y-77793368D01*
X124148120Y-77661513D01*
X124220680Y-77639502D01*
X124330994Y-77580537D01*
X124427685Y-77501185D01*
X124507037Y-77404494D01*
X124566002Y-77294180D01*
X124602312Y-77174482D01*
X124614572Y-77050000D01*
X124611500Y-76485750D01*
X124452750Y-76327000D01*
X123253500Y-76327000D01*
X123253500Y-76347000D01*
X122999500Y-76347000D01*
X122999500Y-76327000D01*
X121800250Y-76327000D01*
X121641500Y-76485750D01*
X121638428Y-77050000D01*
X110695000Y-77050000D01*
X110695000Y-76200000D01*
X125371525Y-76200000D01*
X125395370Y-76442102D01*
X125465989Y-76674901D01*
X125580667Y-76889449D01*
X125734998Y-77077502D01*
X125923051Y-77231833D01*
X126137599Y-77346511D01*
X126370398Y-77417130D01*
X126551835Y-77435000D01*
X127473165Y-77435000D01*
X127654602Y-77417130D01*
X127887401Y-77346511D01*
X128101949Y-77231833D01*
X128290002Y-77077502D01*
X128444333Y-76889449D01*
X128559011Y-76674901D01*
X128629630Y-76442102D01*
X128653475Y-76200000D01*
X140586525Y-76200000D01*
X140610370Y-76442102D01*
X140680989Y-76674901D01*
X140795667Y-76889449D01*
X140949998Y-77077502D01*
X141138051Y-77231833D01*
X141352599Y-77346511D01*
X141585398Y-77417130D01*
X141766835Y-77435000D01*
X142688165Y-77435000D01*
X142869602Y-77417130D01*
X143102401Y-77346511D01*
X143316949Y-77231833D01*
X143505002Y-77077502D01*
X143659333Y-76889449D01*
X143774011Y-76674901D01*
X143844630Y-76442102D01*
X143868475Y-76200000D01*
X143844630Y-75957898D01*
X143774011Y-75725099D01*
X143659333Y-75510551D01*
X143505002Y-75322498D01*
X143316949Y-75168167D01*
X143102401Y-75053489D01*
X142869602Y-74982870D01*
X142688165Y-74965000D01*
X141766835Y-74965000D01*
X141585398Y-74982870D01*
X141352599Y-75053489D01*
X141138051Y-75168167D01*
X140949998Y-75322498D01*
X140795667Y-75510551D01*
X140680989Y-75725099D01*
X140610370Y-75957898D01*
X140586525Y-76200000D01*
X128653475Y-76200000D01*
X128629630Y-75957898D01*
X128559011Y-75725099D01*
X128444333Y-75510551D01*
X128290002Y-75322498D01*
X128101949Y-75168167D01*
X127887401Y-75053489D01*
X127654602Y-74982870D01*
X127473165Y-74965000D01*
X126551835Y-74965000D01*
X126370398Y-74982870D01*
X126137599Y-75053489D01*
X125923051Y-75168167D01*
X125734998Y-75322498D01*
X125580667Y-75510551D01*
X125465989Y-75725099D01*
X125395370Y-75957898D01*
X125371525Y-76200000D01*
X110695000Y-76200000D01*
X110695000Y-75350000D01*
X121638428Y-75350000D01*
X121641500Y-75914250D01*
X121800250Y-76073000D01*
X122999500Y-76073000D01*
X122999500Y-74873750D01*
X123253500Y-74873750D01*
X123253500Y-76073000D01*
X124452750Y-76073000D01*
X124611500Y-75914250D01*
X124614572Y-75350000D01*
X124602312Y-75225518D01*
X124566002Y-75105820D01*
X124507037Y-74995506D01*
X124427685Y-74898815D01*
X124330994Y-74819463D01*
X124220680Y-74760498D01*
X124100982Y-74724188D01*
X123976500Y-74711928D01*
X123412250Y-74715000D01*
X123253500Y-74873750D01*
X122999500Y-74873750D01*
X122840750Y-74715000D01*
X122276500Y-74711928D01*
X122152018Y-74724188D01*
X122032320Y-74760498D01*
X121922006Y-74819463D01*
X121825315Y-74898815D01*
X121745963Y-74995506D01*
X121686998Y-75105820D01*
X121650688Y-75225518D01*
X121638428Y-75350000D01*
X110695000Y-75350000D01*
X110695000Y-73660000D01*
X125371525Y-73660000D01*
X125395370Y-73902102D01*
X125465989Y-74134901D01*
X125580667Y-74349449D01*
X125734998Y-74537502D01*
X125923051Y-74691833D01*
X126137599Y-74806511D01*
X126370398Y-74877130D01*
X126551835Y-74895000D01*
X127473165Y-74895000D01*
X127654602Y-74877130D01*
X127887401Y-74806511D01*
X128101949Y-74691833D01*
X128290002Y-74537502D01*
X128444333Y-74349449D01*
X128559011Y-74134901D01*
X128629630Y-73902102D01*
X128653475Y-73660000D01*
X140586525Y-73660000D01*
X140610370Y-73902102D01*
X140680989Y-74134901D01*
X140795667Y-74349449D01*
X140949998Y-74537502D01*
X141138051Y-74691833D01*
X141352599Y-74806511D01*
X141585398Y-74877130D01*
X141766835Y-74895000D01*
X142688165Y-74895000D01*
X142869602Y-74877130D01*
X143102401Y-74806511D01*
X143316949Y-74691833D01*
X143505002Y-74537502D01*
X143659333Y-74349449D01*
X143774011Y-74134901D01*
X143844630Y-73902102D01*
X143868475Y-73660000D01*
X143844630Y-73417898D01*
X143774011Y-73185099D01*
X143659333Y-72970551D01*
X143505002Y-72782498D01*
X143316949Y-72628167D01*
X143102401Y-72513489D01*
X142869602Y-72442870D01*
X142688165Y-72425000D01*
X141766835Y-72425000D01*
X141585398Y-72442870D01*
X141352599Y-72513489D01*
X141138051Y-72628167D01*
X140949998Y-72782498D01*
X140795667Y-72970551D01*
X140680989Y-73185099D01*
X140610370Y-73417898D01*
X140586525Y-73660000D01*
X128653475Y-73660000D01*
X128629630Y-73417898D01*
X128559011Y-73185099D01*
X128444333Y-72970551D01*
X128290002Y-72782498D01*
X128101949Y-72628167D01*
X127887401Y-72513489D01*
X127654602Y-72442870D01*
X127473165Y-72425000D01*
X126551835Y-72425000D01*
X126370398Y-72442870D01*
X126137599Y-72513489D01*
X125923051Y-72628167D01*
X125734998Y-72782498D01*
X125580667Y-72970551D01*
X125465989Y-73185099D01*
X125395370Y-73417898D01*
X125371525Y-73660000D01*
X110695000Y-73660000D01*
X110695000Y-70021848D01*
X110718898Y-69641984D01*
X116365000Y-69641984D01*
X116365000Y-70358016D01*
X116504691Y-71060290D01*
X116778705Y-71721818D01*
X117176511Y-72317177D01*
X117682823Y-72823489D01*
X118278182Y-73221295D01*
X118939710Y-73495309D01*
X119641984Y-73635000D01*
X120358016Y-73635000D01*
X121060290Y-73495309D01*
X121721818Y-73221295D01*
X122317177Y-72823489D01*
X122823489Y-72317177D01*
X123221295Y-71721818D01*
X123470576Y-71120000D01*
X125371525Y-71120000D01*
X125395370Y-71362102D01*
X125465989Y-71594901D01*
X125580667Y-71809449D01*
X125734998Y-71997502D01*
X125923051Y-72151833D01*
X126137599Y-72266511D01*
X126370398Y-72337130D01*
X126551835Y-72355000D01*
X127473165Y-72355000D01*
X127654602Y-72337130D01*
X127887401Y-72266511D01*
X128101949Y-72151833D01*
X128290002Y-71997502D01*
X128444333Y-71809449D01*
X128559011Y-71594901D01*
X128629630Y-71362102D01*
X128653475Y-71120000D01*
X140586525Y-71120000D01*
X140610370Y-71362102D01*
X140680989Y-71594901D01*
X140795667Y-71809449D01*
X140949998Y-71997502D01*
X141138051Y-72151833D01*
X141352599Y-72266511D01*
X141585398Y-72337130D01*
X141766835Y-72355000D01*
X142688165Y-72355000D01*
X142869602Y-72337130D01*
X143102401Y-72266511D01*
X143316949Y-72151833D01*
X143505002Y-71997502D01*
X143659333Y-71809449D01*
X143774011Y-71594901D01*
X143844630Y-71362102D01*
X143868475Y-71120000D01*
X143844630Y-70877898D01*
X143774011Y-70645099D01*
X143659333Y-70430551D01*
X143505002Y-70242498D01*
X143316949Y-70088167D01*
X143102401Y-69973489D01*
X142869602Y-69902870D01*
X142688165Y-69885000D01*
X141766835Y-69885000D01*
X141585398Y-69902870D01*
X141352599Y-69973489D01*
X141138051Y-70088167D01*
X140949998Y-70242498D01*
X140795667Y-70430551D01*
X140680989Y-70645099D01*
X140610370Y-70877898D01*
X140586525Y-71120000D01*
X128653475Y-71120000D01*
X128629630Y-70877898D01*
X128559011Y-70645099D01*
X128444333Y-70430551D01*
X128290002Y-70242498D01*
X128101949Y-70088167D01*
X127887401Y-69973489D01*
X127654602Y-69902870D01*
X127473165Y-69885000D01*
X126551835Y-69885000D01*
X126370398Y-69902870D01*
X126137599Y-69973489D01*
X125923051Y-70088167D01*
X125734998Y-70242498D01*
X125580667Y-70430551D01*
X125465989Y-70645099D01*
X125395370Y-70877898D01*
X125371525Y-71120000D01*
X123470576Y-71120000D01*
X123495309Y-71060290D01*
X123635000Y-70358016D01*
X123635000Y-69641984D01*
X123495309Y-68939710D01*
X123346313Y-68580000D01*
X125371525Y-68580000D01*
X125395370Y-68822102D01*
X125465989Y-69054901D01*
X125580667Y-69269449D01*
X125734998Y-69457502D01*
X125923051Y-69611833D01*
X126137599Y-69726511D01*
X126370398Y-69797130D01*
X126551835Y-69815000D01*
X127473165Y-69815000D01*
X127654602Y-69797130D01*
X127887401Y-69726511D01*
X128101949Y-69611833D01*
X128290002Y-69457502D01*
X128444333Y-69269449D01*
X128559011Y-69054901D01*
X128606725Y-68897609D01*
X140634038Y-68897609D01*
X140637909Y-68935282D01*
X140730079Y-69160533D01*
X140864422Y-69363474D01*
X141035775Y-69536307D01*
X141237554Y-69672390D01*
X141462004Y-69766493D01*
X141700500Y-69815000D01*
X142100500Y-69815000D01*
X142100500Y-68707000D01*
X142354500Y-68707000D01*
X142354500Y-69815000D01*
X142754500Y-69815000D01*
X142992996Y-69766493D01*
X143217446Y-69672390D01*
X143262530Y-69641984D01*
X148365000Y-69641984D01*
X148365000Y-70358016D01*
X148504691Y-71060290D01*
X148778705Y-71721818D01*
X149176511Y-72317177D01*
X149682823Y-72823489D01*
X150278182Y-73221295D01*
X150939710Y-73495309D01*
X151641984Y-73635000D01*
X152358016Y-73635000D01*
X153060290Y-73495309D01*
X153721818Y-73221295D01*
X154317177Y-72823489D01*
X154823489Y-72317177D01*
X155221295Y-71721818D01*
X155495309Y-71060290D01*
X155635000Y-70358016D01*
X155635000Y-69641984D01*
X155569333Y-69311852D01*
X159678000Y-69311852D01*
X159678000Y-69880148D01*
X159788869Y-70437523D01*
X160006346Y-70962560D01*
X160322074Y-71435080D01*
X160723920Y-71836926D01*
X161196440Y-72152654D01*
X161721477Y-72370131D01*
X162278852Y-72481000D01*
X162847148Y-72481000D01*
X163404523Y-72370131D01*
X163929560Y-72152654D01*
X164402080Y-71836926D01*
X164803926Y-71435080D01*
X165119654Y-70962560D01*
X165337131Y-70437523D01*
X165448000Y-69880148D01*
X165448000Y-69311852D01*
X165337131Y-68754477D01*
X165119654Y-68229440D01*
X164803926Y-67756920D01*
X164402080Y-67355074D01*
X163929560Y-67039346D01*
X163404523Y-66821869D01*
X162847148Y-66711000D01*
X162278852Y-66711000D01*
X161721477Y-66821869D01*
X161196440Y-67039346D01*
X160723920Y-67355074D01*
X160322074Y-67756920D01*
X160006346Y-68229440D01*
X159788869Y-68754477D01*
X159678000Y-69311852D01*
X155569333Y-69311852D01*
X155495309Y-68939710D01*
X155221295Y-68278182D01*
X154823489Y-67682823D01*
X154317177Y-67176511D01*
X153721818Y-66778705D01*
X153060290Y-66504691D01*
X152358016Y-66365000D01*
X151641984Y-66365000D01*
X150939710Y-66504691D01*
X150278182Y-66778705D01*
X149682823Y-67176511D01*
X149176511Y-67682823D01*
X148778705Y-68278182D01*
X148504691Y-68939710D01*
X148365000Y-69641984D01*
X143262530Y-69641984D01*
X143419225Y-69536307D01*
X143590578Y-69363474D01*
X143724921Y-69160533D01*
X143817091Y-68935282D01*
X143820962Y-68897609D01*
X143696231Y-68707000D01*
X142354500Y-68707000D01*
X142100500Y-68707000D01*
X140758769Y-68707000D01*
X140634038Y-68897609D01*
X128606725Y-68897609D01*
X128629630Y-68822102D01*
X128653475Y-68580000D01*
X128629630Y-68337898D01*
X128606726Y-68262391D01*
X140634038Y-68262391D01*
X140758769Y-68453000D01*
X142100500Y-68453000D01*
X142100500Y-67345000D01*
X142354500Y-67345000D01*
X142354500Y-68453000D01*
X143696231Y-68453000D01*
X143820962Y-68262391D01*
X143817091Y-68224718D01*
X143724921Y-67999467D01*
X143590578Y-67796526D01*
X143419225Y-67623693D01*
X143217446Y-67487610D01*
X142992996Y-67393507D01*
X142754500Y-67345000D01*
X142354500Y-67345000D01*
X142100500Y-67345000D01*
X141700500Y-67345000D01*
X141462004Y-67393507D01*
X141237554Y-67487610D01*
X141035775Y-67623693D01*
X140864422Y-67796526D01*
X140730079Y-67999467D01*
X140637909Y-68224718D01*
X140634038Y-68262391D01*
X128606726Y-68262391D01*
X128559011Y-68105099D01*
X128444333Y-67890551D01*
X128290002Y-67702498D01*
X128101949Y-67548167D01*
X127887401Y-67433489D01*
X127654602Y-67362870D01*
X127473165Y-67345000D01*
X126551835Y-67345000D01*
X126370398Y-67362870D01*
X126137599Y-67433489D01*
X125923051Y-67548167D01*
X125734998Y-67702498D01*
X125580667Y-67890551D01*
X125465989Y-68105099D01*
X125395370Y-68337898D01*
X125371525Y-68580000D01*
X123346313Y-68580000D01*
X123221295Y-68278182D01*
X122823489Y-67682823D01*
X122317177Y-67176511D01*
X121721818Y-66778705D01*
X121060290Y-66504691D01*
X120358016Y-66365000D01*
X119641984Y-66365000D01*
X118939710Y-66504691D01*
X118278182Y-66778705D01*
X117682823Y-67176511D01*
X117176511Y-67682823D01*
X116778705Y-68278182D01*
X116504691Y-68939710D01*
X116365000Y-69641984D01*
X110718898Y-69641984D01*
X110769736Y-68833946D01*
X110988665Y-67686278D01*
X111349706Y-66575111D01*
X111601509Y-66040000D01*
X125371525Y-66040000D01*
X125395370Y-66282102D01*
X125465989Y-66514901D01*
X125580667Y-66729449D01*
X125734998Y-66917502D01*
X125923051Y-67071833D01*
X126137599Y-67186511D01*
X126370398Y-67257130D01*
X126551835Y-67275000D01*
X127473165Y-67275000D01*
X127654602Y-67257130D01*
X127887401Y-67186511D01*
X128101949Y-67071833D01*
X128290002Y-66917502D01*
X128444333Y-66729449D01*
X128559011Y-66514901D01*
X128629630Y-66282102D01*
X128653475Y-66040000D01*
X140586525Y-66040000D01*
X140610370Y-66282102D01*
X140680989Y-66514901D01*
X140795667Y-66729449D01*
X140949998Y-66917502D01*
X141138051Y-67071833D01*
X141352599Y-67186511D01*
X141585398Y-67257130D01*
X141766835Y-67275000D01*
X142688165Y-67275000D01*
X142869602Y-67257130D01*
X143102401Y-67186511D01*
X143316949Y-67071833D01*
X143505002Y-66917502D01*
X143659333Y-66729449D01*
X143774011Y-66514901D01*
X143844630Y-66282102D01*
X143868475Y-66040000D01*
X143844630Y-65797898D01*
X143774011Y-65565099D01*
X143659333Y-65350551D01*
X143505002Y-65162498D01*
X143316949Y-65008167D01*
X143102401Y-64893489D01*
X142869602Y-64822870D01*
X142688165Y-64805000D01*
X141766835Y-64805000D01*
X141585398Y-64822870D01*
X141352599Y-64893489D01*
X141138051Y-65008167D01*
X140949998Y-65162498D01*
X140795667Y-65350551D01*
X140680989Y-65565099D01*
X140610370Y-65797898D01*
X140586525Y-66040000D01*
X128653475Y-66040000D01*
X128629630Y-65797898D01*
X128559011Y-65565099D01*
X128444333Y-65350551D01*
X128290002Y-65162498D01*
X128101949Y-65008167D01*
X127887401Y-64893489D01*
X127654602Y-64822870D01*
X127473165Y-64805000D01*
X126551835Y-64805000D01*
X126370398Y-64822870D01*
X126137599Y-64893489D01*
X125923051Y-65008167D01*
X125734998Y-65162498D01*
X125580667Y-65350551D01*
X125465989Y-65565099D01*
X125395370Y-65797898D01*
X125371525Y-66040000D01*
X111601509Y-66040000D01*
X111847171Y-65517943D01*
X112473209Y-64531465D01*
X113217948Y-63631230D01*
X114069642Y-62831437D01*
X115014870Y-62144688D01*
X116038708Y-61581828D01*
X117125023Y-61151725D01*
X118256672Y-60861167D01*
X119426687Y-60713360D01*
X120010917Y-60695000D01*
X139388893Y-60695000D01*
X139308525Y-60775368D01*
M02*
