G04 #@! TF.GenerationSoftware,KiCad,Pcbnew,5.1.5+dfsg1-2build2*
G04 #@! TF.CreationDate,2021-11-01T16:22:50+01:00*
G04 #@! TF.ProjectId,brainboard,62726169-6e62-46f6-9172-642e6b696361,rev?*
G04 #@! TF.SameCoordinates,Original*
G04 #@! TF.FileFunction,Soldermask,Bot*
G04 #@! TF.FilePolarity,Negative*
%FSLAX46Y46*%
G04 Gerber Fmt 4.6, Leading zero omitted, Abs format (unit mm)*
G04 Created by KiCad (PCBNEW 5.1.5+dfsg1-2build2) date 2021-11-01 16:22:50*
%MOMM*%
%LPD*%
G04 APERTURE LIST*
%ADD10C,0.100000*%
G04 APERTURE END LIST*
D10*
G36*
X162148512Y-114038927D02*
G01*
X162297812Y-114068624D01*
X162461784Y-114136544D01*
X162609354Y-114235147D01*
X162734853Y-114360646D01*
X162833456Y-114508216D01*
X162901376Y-114672188D01*
X162936000Y-114846259D01*
X162936000Y-115023741D01*
X162901376Y-115197812D01*
X162833456Y-115361784D01*
X162734853Y-115509354D01*
X162609354Y-115634853D01*
X162461784Y-115733456D01*
X162297812Y-115801376D01*
X162148512Y-115831073D01*
X162123742Y-115836000D01*
X161946258Y-115836000D01*
X161921488Y-115831073D01*
X161772188Y-115801376D01*
X161608216Y-115733456D01*
X161460646Y-115634853D01*
X161335147Y-115509354D01*
X161236544Y-115361784D01*
X161168624Y-115197812D01*
X161134000Y-115023741D01*
X161134000Y-114846259D01*
X161168624Y-114672188D01*
X161236544Y-114508216D01*
X161335147Y-114360646D01*
X161460646Y-114235147D01*
X161608216Y-114136544D01*
X161772188Y-114068624D01*
X161921488Y-114038927D01*
X161946258Y-114034000D01*
X162123742Y-114034000D01*
X162148512Y-114038927D01*
G37*
G36*
X164688512Y-114038927D02*
G01*
X164837812Y-114068624D01*
X165001784Y-114136544D01*
X165149354Y-114235147D01*
X165274853Y-114360646D01*
X165373456Y-114508216D01*
X165441376Y-114672188D01*
X165476000Y-114846259D01*
X165476000Y-115023741D01*
X165441376Y-115197812D01*
X165373456Y-115361784D01*
X165274853Y-115509354D01*
X165149354Y-115634853D01*
X165001784Y-115733456D01*
X164837812Y-115801376D01*
X164688512Y-115831073D01*
X164663742Y-115836000D01*
X164486258Y-115836000D01*
X164461488Y-115831073D01*
X164312188Y-115801376D01*
X164148216Y-115733456D01*
X164000646Y-115634853D01*
X163875147Y-115509354D01*
X163776544Y-115361784D01*
X163708624Y-115197812D01*
X163674000Y-115023741D01*
X163674000Y-114846259D01*
X163708624Y-114672188D01*
X163776544Y-114508216D01*
X163875147Y-114360646D01*
X164000646Y-114235147D01*
X164148216Y-114136544D01*
X164312188Y-114068624D01*
X164461488Y-114038927D01*
X164486258Y-114034000D01*
X164663742Y-114034000D01*
X164688512Y-114038927D01*
G37*
G36*
X168016000Y-115836000D02*
G01*
X166214000Y-115836000D01*
X166214000Y-114034000D01*
X168016000Y-114034000D01*
X168016000Y-115836000D01*
G37*
G36*
X142477142Y-113518242D02*
G01*
X142625101Y-113579529D01*
X142758255Y-113668499D01*
X142871501Y-113781745D01*
X142960471Y-113914899D01*
X143021758Y-114062858D01*
X143053000Y-114219925D01*
X143053000Y-114380075D01*
X143021758Y-114537142D01*
X142960471Y-114685101D01*
X142871501Y-114818255D01*
X142758255Y-114931501D01*
X142625101Y-115020471D01*
X142477142Y-115081758D01*
X142320075Y-115113000D01*
X142159925Y-115113000D01*
X142002858Y-115081758D01*
X141854899Y-115020471D01*
X141721745Y-114931501D01*
X141608499Y-114818255D01*
X141519529Y-114685101D01*
X141458242Y-114537142D01*
X141427000Y-114380075D01*
X141427000Y-114219925D01*
X141458242Y-114062858D01*
X141519529Y-113914899D01*
X141608499Y-113781745D01*
X141721745Y-113668499D01*
X141854899Y-113579529D01*
X142002858Y-113518242D01*
X142159925Y-113487000D01*
X142320075Y-113487000D01*
X142477142Y-113518242D01*
G37*
G36*
X127237142Y-113518242D02*
G01*
X127385101Y-113579529D01*
X127518255Y-113668499D01*
X127631501Y-113781745D01*
X127720471Y-113914899D01*
X127781758Y-114062858D01*
X127813000Y-114219925D01*
X127813000Y-114380075D01*
X127781758Y-114537142D01*
X127720471Y-114685101D01*
X127631501Y-114818255D01*
X127518255Y-114931501D01*
X127385101Y-115020471D01*
X127237142Y-115081758D01*
X127080075Y-115113000D01*
X126919925Y-115113000D01*
X126762858Y-115081758D01*
X126614899Y-115020471D01*
X126481745Y-114931501D01*
X126368499Y-114818255D01*
X126279529Y-114685101D01*
X126218242Y-114537142D01*
X126187000Y-114380075D01*
X126187000Y-114219925D01*
X126218242Y-114062858D01*
X126279529Y-113914899D01*
X126368499Y-113781745D01*
X126481745Y-113668499D01*
X126614899Y-113579529D01*
X126762858Y-113518242D01*
X126919925Y-113487000D01*
X127080075Y-113487000D01*
X127237142Y-113518242D01*
G37*
G36*
X162148512Y-111498927D02*
G01*
X162297812Y-111528624D01*
X162461784Y-111596544D01*
X162609354Y-111695147D01*
X162734853Y-111820646D01*
X162833456Y-111968216D01*
X162901376Y-112132188D01*
X162919411Y-112222860D01*
X162936000Y-112306258D01*
X162936000Y-112483742D01*
X162931073Y-112508512D01*
X162901376Y-112657812D01*
X162833456Y-112821784D01*
X162734853Y-112969354D01*
X162609354Y-113094853D01*
X162461784Y-113193456D01*
X162297812Y-113261376D01*
X162148512Y-113291073D01*
X162123742Y-113296000D01*
X161946258Y-113296000D01*
X161921488Y-113291073D01*
X161772188Y-113261376D01*
X161608216Y-113193456D01*
X161460646Y-113094853D01*
X161335147Y-112969354D01*
X161236544Y-112821784D01*
X161168624Y-112657812D01*
X161138927Y-112508512D01*
X161134000Y-112483742D01*
X161134000Y-112306258D01*
X161150589Y-112222860D01*
X161168624Y-112132188D01*
X161236544Y-111968216D01*
X161335147Y-111820646D01*
X161460646Y-111695147D01*
X161608216Y-111596544D01*
X161772188Y-111528624D01*
X161921488Y-111498927D01*
X161946258Y-111494000D01*
X162123742Y-111494000D01*
X162148512Y-111498927D01*
G37*
G36*
X164688512Y-111498927D02*
G01*
X164837812Y-111528624D01*
X165001784Y-111596544D01*
X165149354Y-111695147D01*
X165274853Y-111820646D01*
X165373456Y-111968216D01*
X165441376Y-112132188D01*
X165459411Y-112222860D01*
X165476000Y-112306258D01*
X165476000Y-112483742D01*
X165471073Y-112508512D01*
X165441376Y-112657812D01*
X165373456Y-112821784D01*
X165274853Y-112969354D01*
X165149354Y-113094853D01*
X165001784Y-113193456D01*
X164837812Y-113261376D01*
X164688512Y-113291073D01*
X164663742Y-113296000D01*
X164486258Y-113296000D01*
X164461488Y-113291073D01*
X164312188Y-113261376D01*
X164148216Y-113193456D01*
X164000646Y-113094853D01*
X163875147Y-112969354D01*
X163776544Y-112821784D01*
X163708624Y-112657812D01*
X163678927Y-112508512D01*
X163674000Y-112483742D01*
X163674000Y-112306258D01*
X163690589Y-112222860D01*
X163708624Y-112132188D01*
X163776544Y-111968216D01*
X163875147Y-111820646D01*
X164000646Y-111695147D01*
X164148216Y-111596544D01*
X164312188Y-111528624D01*
X164461488Y-111498927D01*
X164486258Y-111494000D01*
X164663742Y-111494000D01*
X164688512Y-111498927D01*
G37*
G36*
X168016000Y-113296000D02*
G01*
X166214000Y-113296000D01*
X166214000Y-111494000D01*
X168016000Y-111494000D01*
X168016000Y-113296000D01*
G37*
G36*
X120889943Y-107066248D02*
G01*
X121445189Y-107296238D01*
X121601184Y-107400471D01*
X121944899Y-107630134D01*
X122369866Y-108055101D01*
X122454240Y-108181376D01*
X122703762Y-108554811D01*
X122933752Y-109110057D01*
X123051000Y-109699501D01*
X123051000Y-110300499D01*
X122933752Y-110889943D01*
X122703762Y-111445189D01*
X122546916Y-111679925D01*
X122369866Y-111944899D01*
X121944899Y-112369866D01*
X121743417Y-112504492D01*
X121445189Y-112703762D01*
X120889943Y-112933752D01*
X120300499Y-113051000D01*
X119699501Y-113051000D01*
X119110057Y-112933752D01*
X118554811Y-112703762D01*
X118256583Y-112504492D01*
X118055101Y-112369866D01*
X117630134Y-111944899D01*
X117453084Y-111679925D01*
X117296238Y-111445189D01*
X117066248Y-110889943D01*
X116949000Y-110300499D01*
X116949000Y-109699501D01*
X117066248Y-109110057D01*
X117296238Y-108554811D01*
X117545760Y-108181376D01*
X117630134Y-108055101D01*
X118055101Y-107630134D01*
X118398816Y-107400471D01*
X118554811Y-107296238D01*
X119110057Y-107066248D01*
X119699501Y-106949000D01*
X120300499Y-106949000D01*
X120889943Y-107066248D01*
G37*
G36*
X150889943Y-107066248D02*
G01*
X151445189Y-107296238D01*
X151601184Y-107400471D01*
X151944899Y-107630134D01*
X152369866Y-108055101D01*
X152454240Y-108181376D01*
X152703762Y-108554811D01*
X152933752Y-109110057D01*
X153051000Y-109699501D01*
X153051000Y-110300499D01*
X152933752Y-110889943D01*
X152703762Y-111445189D01*
X152546916Y-111679925D01*
X152369866Y-111944899D01*
X151944899Y-112369866D01*
X151743417Y-112504492D01*
X151445189Y-112703762D01*
X150889943Y-112933752D01*
X150300499Y-113051000D01*
X149699501Y-113051000D01*
X149110057Y-112933752D01*
X148554811Y-112703762D01*
X148256583Y-112504492D01*
X148055101Y-112369866D01*
X147630134Y-111944899D01*
X147453084Y-111679925D01*
X147296238Y-111445189D01*
X147066248Y-110889943D01*
X146949000Y-110300499D01*
X146949000Y-109699501D01*
X147066248Y-109110057D01*
X147296238Y-108554811D01*
X147545760Y-108181376D01*
X147630134Y-108055101D01*
X148055101Y-107630134D01*
X148398816Y-107400471D01*
X148554811Y-107296238D01*
X149110057Y-107066248D01*
X149699501Y-106949000D01*
X150300499Y-106949000D01*
X150889943Y-107066248D01*
G37*
G36*
X142477142Y-110978242D02*
G01*
X142625101Y-111039529D01*
X142758255Y-111128499D01*
X142871501Y-111241745D01*
X142960471Y-111374899D01*
X143021758Y-111522858D01*
X143053000Y-111679925D01*
X143053000Y-111840075D01*
X143021758Y-111997142D01*
X142960471Y-112145101D01*
X142871501Y-112278255D01*
X142758255Y-112391501D01*
X142625101Y-112480471D01*
X142477142Y-112541758D01*
X142320075Y-112573000D01*
X142159925Y-112573000D01*
X142002858Y-112541758D01*
X141854899Y-112480471D01*
X141721745Y-112391501D01*
X141608499Y-112278255D01*
X141519529Y-112145101D01*
X141458242Y-111997142D01*
X141427000Y-111840075D01*
X141427000Y-111679925D01*
X141458242Y-111522858D01*
X141519529Y-111374899D01*
X141608499Y-111241745D01*
X141721745Y-111128499D01*
X141854899Y-111039529D01*
X142002858Y-110978242D01*
X142159925Y-110947000D01*
X142320075Y-110947000D01*
X142477142Y-110978242D01*
G37*
G36*
X127535993Y-110954203D02*
G01*
X127600411Y-110973744D01*
X127659781Y-111005478D01*
X127711817Y-111048183D01*
X127754522Y-111100219D01*
X127786256Y-111159589D01*
X127805797Y-111224007D01*
X127813000Y-111297140D01*
X127813000Y-112222860D01*
X127805797Y-112295993D01*
X127786256Y-112360411D01*
X127754522Y-112419781D01*
X127711817Y-112471817D01*
X127659781Y-112514522D01*
X127600411Y-112546256D01*
X127535993Y-112565797D01*
X127462860Y-112573000D01*
X126537140Y-112573000D01*
X126464007Y-112565797D01*
X126399589Y-112546256D01*
X126340219Y-112514522D01*
X126288183Y-112471817D01*
X126245478Y-112419781D01*
X126213744Y-112360411D01*
X126194203Y-112295993D01*
X126187000Y-112222860D01*
X126187000Y-111297140D01*
X126194203Y-111224007D01*
X126213744Y-111159589D01*
X126245478Y-111100219D01*
X126288183Y-111048183D01*
X126340219Y-111005478D01*
X126399589Y-110973744D01*
X126464007Y-110954203D01*
X126537140Y-110947000D01*
X127462860Y-110947000D01*
X127535993Y-110954203D01*
G37*
G36*
X162148512Y-108958927D02*
G01*
X162297812Y-108988624D01*
X162461784Y-109056544D01*
X162609354Y-109155147D01*
X162734853Y-109280646D01*
X162833456Y-109428216D01*
X162901376Y-109592188D01*
X162936000Y-109766259D01*
X162936000Y-109943741D01*
X162901376Y-110117812D01*
X162833456Y-110281784D01*
X162734853Y-110429354D01*
X162609354Y-110554853D01*
X162461784Y-110653456D01*
X162297812Y-110721376D01*
X162148512Y-110751073D01*
X162123742Y-110756000D01*
X161946258Y-110756000D01*
X161921488Y-110751073D01*
X161772188Y-110721376D01*
X161608216Y-110653456D01*
X161460646Y-110554853D01*
X161335147Y-110429354D01*
X161236544Y-110281784D01*
X161168624Y-110117812D01*
X161134000Y-109943741D01*
X161134000Y-109766259D01*
X161168624Y-109592188D01*
X161236544Y-109428216D01*
X161335147Y-109280646D01*
X161460646Y-109155147D01*
X161608216Y-109056544D01*
X161772188Y-108988624D01*
X161921488Y-108958927D01*
X161946258Y-108954000D01*
X162123742Y-108954000D01*
X162148512Y-108958927D01*
G37*
G36*
X164688512Y-108958927D02*
G01*
X164837812Y-108988624D01*
X165001784Y-109056544D01*
X165149354Y-109155147D01*
X165274853Y-109280646D01*
X165373456Y-109428216D01*
X165441376Y-109592188D01*
X165476000Y-109766259D01*
X165476000Y-109943741D01*
X165441376Y-110117812D01*
X165373456Y-110281784D01*
X165274853Y-110429354D01*
X165149354Y-110554853D01*
X165001784Y-110653456D01*
X164837812Y-110721376D01*
X164688512Y-110751073D01*
X164663742Y-110756000D01*
X164486258Y-110756000D01*
X164461488Y-110751073D01*
X164312188Y-110721376D01*
X164148216Y-110653456D01*
X164000646Y-110554853D01*
X163875147Y-110429354D01*
X163776544Y-110281784D01*
X163708624Y-110117812D01*
X163674000Y-109943741D01*
X163674000Y-109766259D01*
X163708624Y-109592188D01*
X163776544Y-109428216D01*
X163875147Y-109280646D01*
X164000646Y-109155147D01*
X164148216Y-109056544D01*
X164312188Y-108988624D01*
X164461488Y-108958927D01*
X164486258Y-108954000D01*
X164663742Y-108954000D01*
X164688512Y-108958927D01*
G37*
G36*
X168016000Y-110756000D02*
G01*
X166214000Y-110756000D01*
X166214000Y-108954000D01*
X168016000Y-108954000D01*
X168016000Y-110756000D01*
G37*
G36*
X142477142Y-108438242D02*
G01*
X142625101Y-108499529D01*
X142758255Y-108588499D01*
X142871501Y-108701745D01*
X142960471Y-108834899D01*
X143021758Y-108982858D01*
X143053000Y-109139925D01*
X143053000Y-109300075D01*
X143021758Y-109457142D01*
X142960471Y-109605101D01*
X142871501Y-109738255D01*
X142758255Y-109851501D01*
X142625101Y-109940471D01*
X142477142Y-110001758D01*
X142320075Y-110033000D01*
X142159925Y-110033000D01*
X142002858Y-110001758D01*
X141854899Y-109940471D01*
X141721745Y-109851501D01*
X141608499Y-109738255D01*
X141519529Y-109605101D01*
X141458242Y-109457142D01*
X141427000Y-109300075D01*
X141427000Y-109139925D01*
X141458242Y-108982858D01*
X141519529Y-108834899D01*
X141608499Y-108701745D01*
X141721745Y-108588499D01*
X141854899Y-108499529D01*
X142002858Y-108438242D01*
X142159925Y-108407000D01*
X142320075Y-108407000D01*
X142477142Y-108438242D01*
G37*
G36*
X127237142Y-108438242D02*
G01*
X127385101Y-108499529D01*
X127518255Y-108588499D01*
X127631501Y-108701745D01*
X127720471Y-108834899D01*
X127781758Y-108982858D01*
X127813000Y-109139925D01*
X127813000Y-109300075D01*
X127781758Y-109457142D01*
X127720471Y-109605101D01*
X127631501Y-109738255D01*
X127518255Y-109851501D01*
X127385101Y-109940471D01*
X127237142Y-110001758D01*
X127080075Y-110033000D01*
X126919925Y-110033000D01*
X126762858Y-110001758D01*
X126614899Y-109940471D01*
X126481745Y-109851501D01*
X126368499Y-109738255D01*
X126279529Y-109605101D01*
X126218242Y-109457142D01*
X126187000Y-109300075D01*
X126187000Y-109139925D01*
X126218242Y-108982858D01*
X126279529Y-108834899D01*
X126368499Y-108701745D01*
X126481745Y-108588499D01*
X126614899Y-108499529D01*
X126762858Y-108438242D01*
X126919925Y-108407000D01*
X127080075Y-108407000D01*
X127237142Y-108438242D01*
G37*
G36*
X168016000Y-108216000D02*
G01*
X166214000Y-108216000D01*
X166214000Y-106414000D01*
X168016000Y-106414000D01*
X168016000Y-108216000D01*
G37*
G36*
X162148512Y-106418927D02*
G01*
X162297812Y-106448624D01*
X162461784Y-106516544D01*
X162609354Y-106615147D01*
X162734853Y-106740646D01*
X162833456Y-106888216D01*
X162901376Y-107052188D01*
X162936000Y-107226259D01*
X162936000Y-107403741D01*
X162901376Y-107577812D01*
X162833456Y-107741784D01*
X162734853Y-107889354D01*
X162609354Y-108014853D01*
X162461784Y-108113456D01*
X162297812Y-108181376D01*
X162148512Y-108211073D01*
X162123742Y-108216000D01*
X161946258Y-108216000D01*
X161921488Y-108211073D01*
X161772188Y-108181376D01*
X161608216Y-108113456D01*
X161460646Y-108014853D01*
X161335147Y-107889354D01*
X161236544Y-107741784D01*
X161168624Y-107577812D01*
X161134000Y-107403741D01*
X161134000Y-107226259D01*
X161168624Y-107052188D01*
X161236544Y-106888216D01*
X161335147Y-106740646D01*
X161460646Y-106615147D01*
X161608216Y-106516544D01*
X161772188Y-106448624D01*
X161921488Y-106418927D01*
X161946258Y-106414000D01*
X162123742Y-106414000D01*
X162148512Y-106418927D01*
G37*
G36*
X164688512Y-106418927D02*
G01*
X164837812Y-106448624D01*
X165001784Y-106516544D01*
X165149354Y-106615147D01*
X165274853Y-106740646D01*
X165373456Y-106888216D01*
X165441376Y-107052188D01*
X165476000Y-107226259D01*
X165476000Y-107403741D01*
X165441376Y-107577812D01*
X165373456Y-107741784D01*
X165274853Y-107889354D01*
X165149354Y-108014853D01*
X165001784Y-108113456D01*
X164837812Y-108181376D01*
X164688512Y-108211073D01*
X164663742Y-108216000D01*
X164486258Y-108216000D01*
X164461488Y-108211073D01*
X164312188Y-108181376D01*
X164148216Y-108113456D01*
X164000646Y-108014853D01*
X163875147Y-107889354D01*
X163776544Y-107741784D01*
X163708624Y-107577812D01*
X163674000Y-107403741D01*
X163674000Y-107226259D01*
X163708624Y-107052188D01*
X163776544Y-106888216D01*
X163875147Y-106740646D01*
X164000646Y-106615147D01*
X164148216Y-106516544D01*
X164312188Y-106448624D01*
X164461488Y-106418927D01*
X164486258Y-106414000D01*
X164663742Y-106414000D01*
X164688512Y-106418927D01*
G37*
G36*
X127237142Y-105898242D02*
G01*
X127385101Y-105959529D01*
X127518255Y-106048499D01*
X127631501Y-106161745D01*
X127720471Y-106294899D01*
X127781758Y-106442858D01*
X127813000Y-106599925D01*
X127813000Y-106760075D01*
X127781758Y-106917142D01*
X127720471Y-107065101D01*
X127631501Y-107198255D01*
X127518255Y-107311501D01*
X127385101Y-107400471D01*
X127237142Y-107461758D01*
X127080075Y-107493000D01*
X126919925Y-107493000D01*
X126762858Y-107461758D01*
X126614899Y-107400471D01*
X126481745Y-107311501D01*
X126368499Y-107198255D01*
X126279529Y-107065101D01*
X126218242Y-106917142D01*
X126187000Y-106760075D01*
X126187000Y-106599925D01*
X126218242Y-106442858D01*
X126279529Y-106294899D01*
X126368499Y-106161745D01*
X126481745Y-106048499D01*
X126614899Y-105959529D01*
X126762858Y-105898242D01*
X126919925Y-105867000D01*
X127080075Y-105867000D01*
X127237142Y-105898242D01*
G37*
G36*
X142477142Y-105898242D02*
G01*
X142625101Y-105959529D01*
X142758255Y-106048499D01*
X142871501Y-106161745D01*
X142960471Y-106294899D01*
X143021758Y-106442858D01*
X143053000Y-106599925D01*
X143053000Y-106760075D01*
X143021758Y-106917142D01*
X142960471Y-107065101D01*
X142871501Y-107198255D01*
X142758255Y-107311501D01*
X142625101Y-107400471D01*
X142477142Y-107461758D01*
X142320075Y-107493000D01*
X142159925Y-107493000D01*
X142002858Y-107461758D01*
X141854899Y-107400471D01*
X141721745Y-107311501D01*
X141608499Y-107198255D01*
X141519529Y-107065101D01*
X141458242Y-106917142D01*
X141427000Y-106760075D01*
X141427000Y-106599925D01*
X141458242Y-106442858D01*
X141519529Y-106294899D01*
X141608499Y-106161745D01*
X141721745Y-106048499D01*
X141854899Y-105959529D01*
X142002858Y-105898242D01*
X142159925Y-105867000D01*
X142320075Y-105867000D01*
X142477142Y-105898242D01*
G37*
G36*
X168016000Y-105676000D02*
G01*
X166214000Y-105676000D01*
X166214000Y-103874000D01*
X168016000Y-103874000D01*
X168016000Y-105676000D01*
G37*
G36*
X164688512Y-103878927D02*
G01*
X164837812Y-103908624D01*
X165001784Y-103976544D01*
X165149354Y-104075147D01*
X165274853Y-104200646D01*
X165373456Y-104348216D01*
X165441376Y-104512188D01*
X165476000Y-104686259D01*
X165476000Y-104863741D01*
X165441376Y-105037812D01*
X165373456Y-105201784D01*
X165274853Y-105349354D01*
X165149354Y-105474853D01*
X165001784Y-105573456D01*
X164837812Y-105641376D01*
X164688512Y-105671073D01*
X164663742Y-105676000D01*
X164486258Y-105676000D01*
X164461488Y-105671073D01*
X164312188Y-105641376D01*
X164148216Y-105573456D01*
X164000646Y-105474853D01*
X163875147Y-105349354D01*
X163776544Y-105201784D01*
X163708624Y-105037812D01*
X163674000Y-104863741D01*
X163674000Y-104686259D01*
X163708624Y-104512188D01*
X163776544Y-104348216D01*
X163875147Y-104200646D01*
X164000646Y-104075147D01*
X164148216Y-103976544D01*
X164312188Y-103908624D01*
X164461488Y-103878927D01*
X164486258Y-103874000D01*
X164663742Y-103874000D01*
X164688512Y-103878927D01*
G37*
G36*
X162148512Y-103878927D02*
G01*
X162297812Y-103908624D01*
X162461784Y-103976544D01*
X162609354Y-104075147D01*
X162734853Y-104200646D01*
X162833456Y-104348216D01*
X162901376Y-104512188D01*
X162936000Y-104686259D01*
X162936000Y-104863741D01*
X162901376Y-105037812D01*
X162833456Y-105201784D01*
X162734853Y-105349354D01*
X162609354Y-105474853D01*
X162461784Y-105573456D01*
X162297812Y-105641376D01*
X162148512Y-105671073D01*
X162123742Y-105676000D01*
X161946258Y-105676000D01*
X161921488Y-105671073D01*
X161772188Y-105641376D01*
X161608216Y-105573456D01*
X161460646Y-105474853D01*
X161335147Y-105349354D01*
X161236544Y-105201784D01*
X161168624Y-105037812D01*
X161134000Y-104863741D01*
X161134000Y-104686259D01*
X161168624Y-104512188D01*
X161236544Y-104348216D01*
X161335147Y-104200646D01*
X161460646Y-104075147D01*
X161608216Y-103976544D01*
X161772188Y-103908624D01*
X161921488Y-103878927D01*
X161946258Y-103874000D01*
X162123742Y-103874000D01*
X162148512Y-103878927D01*
G37*
G36*
X142477142Y-103358242D02*
G01*
X142625101Y-103419529D01*
X142758255Y-103508499D01*
X142871501Y-103621745D01*
X142960471Y-103754899D01*
X143021758Y-103902858D01*
X143053000Y-104059925D01*
X143053000Y-104220075D01*
X143021758Y-104377142D01*
X142960471Y-104525101D01*
X142871501Y-104658255D01*
X142758255Y-104771501D01*
X142625101Y-104860471D01*
X142477142Y-104921758D01*
X142320075Y-104953000D01*
X142159925Y-104953000D01*
X142002858Y-104921758D01*
X141854899Y-104860471D01*
X141721745Y-104771501D01*
X141608499Y-104658255D01*
X141519529Y-104525101D01*
X141458242Y-104377142D01*
X141427000Y-104220075D01*
X141427000Y-104059925D01*
X141458242Y-103902858D01*
X141519529Y-103754899D01*
X141608499Y-103621745D01*
X141721745Y-103508499D01*
X141854899Y-103419529D01*
X142002858Y-103358242D01*
X142159925Y-103327000D01*
X142320075Y-103327000D01*
X142477142Y-103358242D01*
G37*
G36*
X127237142Y-103358242D02*
G01*
X127385101Y-103419529D01*
X127518255Y-103508499D01*
X127631501Y-103621745D01*
X127720471Y-103754899D01*
X127781758Y-103902858D01*
X127813000Y-104059925D01*
X127813000Y-104220075D01*
X127781758Y-104377142D01*
X127720471Y-104525101D01*
X127631501Y-104658255D01*
X127518255Y-104771501D01*
X127385101Y-104860471D01*
X127237142Y-104921758D01*
X127080075Y-104953000D01*
X126919925Y-104953000D01*
X126762858Y-104921758D01*
X126614899Y-104860471D01*
X126481745Y-104771501D01*
X126368499Y-104658255D01*
X126279529Y-104525101D01*
X126218242Y-104377142D01*
X126187000Y-104220075D01*
X126187000Y-104059925D01*
X126218242Y-103902858D01*
X126279529Y-103754899D01*
X126368499Y-103621745D01*
X126481745Y-103508499D01*
X126614899Y-103419529D01*
X126762858Y-103358242D01*
X126919925Y-103327000D01*
X127080075Y-103327000D01*
X127237142Y-103358242D01*
G37*
G36*
X168016000Y-103136000D02*
G01*
X166214000Y-103136000D01*
X166214000Y-101334000D01*
X168016000Y-101334000D01*
X168016000Y-103136000D01*
G37*
G36*
X164688512Y-101338927D02*
G01*
X164837812Y-101368624D01*
X165001784Y-101436544D01*
X165149354Y-101535147D01*
X165274853Y-101660646D01*
X165373456Y-101808216D01*
X165441376Y-101972188D01*
X165476000Y-102146259D01*
X165476000Y-102323741D01*
X165441376Y-102497812D01*
X165373456Y-102661784D01*
X165274853Y-102809354D01*
X165149354Y-102934853D01*
X165001784Y-103033456D01*
X164837812Y-103101376D01*
X164688512Y-103131073D01*
X164663742Y-103136000D01*
X164486258Y-103136000D01*
X164461488Y-103131073D01*
X164312188Y-103101376D01*
X164148216Y-103033456D01*
X164000646Y-102934853D01*
X163875147Y-102809354D01*
X163776544Y-102661784D01*
X163708624Y-102497812D01*
X163674000Y-102323741D01*
X163674000Y-102146259D01*
X163708624Y-101972188D01*
X163776544Y-101808216D01*
X163875147Y-101660646D01*
X164000646Y-101535147D01*
X164148216Y-101436544D01*
X164312188Y-101368624D01*
X164461488Y-101338927D01*
X164486258Y-101334000D01*
X164663742Y-101334000D01*
X164688512Y-101338927D01*
G37*
G36*
X162148512Y-101338927D02*
G01*
X162297812Y-101368624D01*
X162461784Y-101436544D01*
X162609354Y-101535147D01*
X162734853Y-101660646D01*
X162833456Y-101808216D01*
X162901376Y-101972188D01*
X162936000Y-102146259D01*
X162936000Y-102323741D01*
X162901376Y-102497812D01*
X162833456Y-102661784D01*
X162734853Y-102809354D01*
X162609354Y-102934853D01*
X162461784Y-103033456D01*
X162297812Y-103101376D01*
X162148512Y-103131073D01*
X162123742Y-103136000D01*
X161946258Y-103136000D01*
X161921488Y-103131073D01*
X161772188Y-103101376D01*
X161608216Y-103033456D01*
X161460646Y-102934853D01*
X161335147Y-102809354D01*
X161236544Y-102661784D01*
X161168624Y-102497812D01*
X161134000Y-102323741D01*
X161134000Y-102146259D01*
X161168624Y-101972188D01*
X161236544Y-101808216D01*
X161335147Y-101660646D01*
X161460646Y-101535147D01*
X161608216Y-101436544D01*
X161772188Y-101368624D01*
X161921488Y-101338927D01*
X161946258Y-101334000D01*
X162123742Y-101334000D01*
X162148512Y-101338927D01*
G37*
G36*
X142477142Y-100818242D02*
G01*
X142625101Y-100879529D01*
X142758255Y-100968499D01*
X142871501Y-101081745D01*
X142960471Y-101214899D01*
X143021758Y-101362858D01*
X143053000Y-101519925D01*
X143053000Y-101680075D01*
X143021758Y-101837142D01*
X142960471Y-101985101D01*
X142871501Y-102118255D01*
X142758255Y-102231501D01*
X142625101Y-102320471D01*
X142477142Y-102381758D01*
X142320075Y-102413000D01*
X142159925Y-102413000D01*
X142002858Y-102381758D01*
X141854899Y-102320471D01*
X141721745Y-102231501D01*
X141608499Y-102118255D01*
X141519529Y-101985101D01*
X141458242Y-101837142D01*
X141427000Y-101680075D01*
X141427000Y-101519925D01*
X141458242Y-101362858D01*
X141519529Y-101214899D01*
X141608499Y-101081745D01*
X141721745Y-100968499D01*
X141854899Y-100879529D01*
X142002858Y-100818242D01*
X142159925Y-100787000D01*
X142320075Y-100787000D01*
X142477142Y-100818242D01*
G37*
G36*
X127237142Y-100818242D02*
G01*
X127385101Y-100879529D01*
X127518255Y-100968499D01*
X127631501Y-101081745D01*
X127720471Y-101214899D01*
X127781758Y-101362858D01*
X127813000Y-101519925D01*
X127813000Y-101680075D01*
X127781758Y-101837142D01*
X127720471Y-101985101D01*
X127631501Y-102118255D01*
X127518255Y-102231501D01*
X127385101Y-102320471D01*
X127237142Y-102381758D01*
X127080075Y-102413000D01*
X126919925Y-102413000D01*
X126762858Y-102381758D01*
X126614899Y-102320471D01*
X126481745Y-102231501D01*
X126368499Y-102118255D01*
X126279529Y-101985101D01*
X126218242Y-101837142D01*
X126187000Y-101680075D01*
X126187000Y-101519925D01*
X126218242Y-101362858D01*
X126279529Y-101214899D01*
X126368499Y-101081745D01*
X126481745Y-100968499D01*
X126614899Y-100879529D01*
X126762858Y-100818242D01*
X126919925Y-100787000D01*
X127080075Y-100787000D01*
X127237142Y-100818242D01*
G37*
G36*
X168016000Y-100596000D02*
G01*
X166214000Y-100596000D01*
X166214000Y-98794000D01*
X168016000Y-98794000D01*
X168016000Y-100596000D01*
G37*
G36*
X164679769Y-98797188D02*
G01*
X164837812Y-98828624D01*
X165001784Y-98896544D01*
X165149354Y-98995147D01*
X165274853Y-99120646D01*
X165373456Y-99268216D01*
X165441376Y-99432188D01*
X165476000Y-99606259D01*
X165476000Y-99783741D01*
X165441376Y-99957812D01*
X165373456Y-100121784D01*
X165274853Y-100269354D01*
X165149354Y-100394853D01*
X165001784Y-100493456D01*
X164837812Y-100561376D01*
X164688512Y-100591073D01*
X164663742Y-100596000D01*
X164486258Y-100596000D01*
X164461488Y-100591073D01*
X164312188Y-100561376D01*
X164148216Y-100493456D01*
X164000646Y-100394853D01*
X163875147Y-100269354D01*
X163776544Y-100121784D01*
X163708624Y-99957812D01*
X163674000Y-99783741D01*
X163674000Y-99606259D01*
X163708624Y-99432188D01*
X163776544Y-99268216D01*
X163875147Y-99120646D01*
X164000646Y-98995147D01*
X164148216Y-98896544D01*
X164312188Y-98828624D01*
X164470231Y-98797188D01*
X164486258Y-98794000D01*
X164663742Y-98794000D01*
X164679769Y-98797188D01*
G37*
G36*
X162139769Y-98797188D02*
G01*
X162297812Y-98828624D01*
X162461784Y-98896544D01*
X162609354Y-98995147D01*
X162734853Y-99120646D01*
X162833456Y-99268216D01*
X162901376Y-99432188D01*
X162936000Y-99606259D01*
X162936000Y-99783741D01*
X162901376Y-99957812D01*
X162833456Y-100121784D01*
X162734853Y-100269354D01*
X162609354Y-100394853D01*
X162461784Y-100493456D01*
X162297812Y-100561376D01*
X162148512Y-100591073D01*
X162123742Y-100596000D01*
X161946258Y-100596000D01*
X161921488Y-100591073D01*
X161772188Y-100561376D01*
X161608216Y-100493456D01*
X161460646Y-100394853D01*
X161335147Y-100269354D01*
X161236544Y-100121784D01*
X161168624Y-99957812D01*
X161134000Y-99783741D01*
X161134000Y-99606259D01*
X161168624Y-99432188D01*
X161236544Y-99268216D01*
X161335147Y-99120646D01*
X161460646Y-98995147D01*
X161608216Y-98896544D01*
X161772188Y-98828624D01*
X161930231Y-98797188D01*
X161946258Y-98794000D01*
X162123742Y-98794000D01*
X162139769Y-98797188D01*
G37*
G36*
X115683512Y-98163927D02*
G01*
X115832812Y-98193624D01*
X115996784Y-98261544D01*
X116144354Y-98360147D01*
X116269853Y-98485646D01*
X116368456Y-98633216D01*
X116436376Y-98797188D01*
X116471000Y-98971259D01*
X116471000Y-99148741D01*
X116436376Y-99322812D01*
X116368456Y-99486784D01*
X116269853Y-99634354D01*
X116144354Y-99759853D01*
X115996784Y-99858456D01*
X115832812Y-99926376D01*
X115683512Y-99956073D01*
X115658742Y-99961000D01*
X115481258Y-99961000D01*
X115456488Y-99956073D01*
X115307188Y-99926376D01*
X115143216Y-99858456D01*
X114995646Y-99759853D01*
X114870147Y-99634354D01*
X114771544Y-99486784D01*
X114703624Y-99322812D01*
X114669000Y-99148741D01*
X114669000Y-98971259D01*
X114703624Y-98797188D01*
X114771544Y-98633216D01*
X114870147Y-98485646D01*
X114995646Y-98360147D01*
X115143216Y-98261544D01*
X115307188Y-98193624D01*
X115456488Y-98163927D01*
X115481258Y-98159000D01*
X115658742Y-98159000D01*
X115683512Y-98163927D01*
G37*
G36*
X113931000Y-99961000D02*
G01*
X112129000Y-99961000D01*
X112129000Y-98159000D01*
X113931000Y-98159000D01*
X113931000Y-99961000D01*
G37*
G36*
X118223512Y-98163927D02*
G01*
X118372812Y-98193624D01*
X118536784Y-98261544D01*
X118684354Y-98360147D01*
X118809853Y-98485646D01*
X118908456Y-98633216D01*
X118976376Y-98797188D01*
X119011000Y-98971259D01*
X119011000Y-99148741D01*
X118976376Y-99322812D01*
X118908456Y-99486784D01*
X118809853Y-99634354D01*
X118684354Y-99759853D01*
X118536784Y-99858456D01*
X118372812Y-99926376D01*
X118223512Y-99956073D01*
X118198742Y-99961000D01*
X118021258Y-99961000D01*
X117996488Y-99956073D01*
X117847188Y-99926376D01*
X117683216Y-99858456D01*
X117535646Y-99759853D01*
X117410147Y-99634354D01*
X117311544Y-99486784D01*
X117243624Y-99322812D01*
X117209000Y-99148741D01*
X117209000Y-98971259D01*
X117243624Y-98797188D01*
X117311544Y-98633216D01*
X117410147Y-98485646D01*
X117535646Y-98360147D01*
X117683216Y-98261544D01*
X117847188Y-98193624D01*
X117996488Y-98163927D01*
X118021258Y-98159000D01*
X118198742Y-98159000D01*
X118223512Y-98163927D01*
G37*
G36*
X127237142Y-98278242D02*
G01*
X127385101Y-98339529D01*
X127518255Y-98428499D01*
X127631501Y-98541745D01*
X127720471Y-98674899D01*
X127781758Y-98822858D01*
X127813000Y-98979925D01*
X127813000Y-99140075D01*
X127781758Y-99297142D01*
X127720471Y-99445101D01*
X127631501Y-99578255D01*
X127518255Y-99691501D01*
X127385101Y-99780471D01*
X127237142Y-99841758D01*
X127080075Y-99873000D01*
X126919925Y-99873000D01*
X126762858Y-99841758D01*
X126614899Y-99780471D01*
X126481745Y-99691501D01*
X126368499Y-99578255D01*
X126279529Y-99445101D01*
X126218242Y-99297142D01*
X126187000Y-99140075D01*
X126187000Y-98979925D01*
X126218242Y-98822858D01*
X126279529Y-98674899D01*
X126368499Y-98541745D01*
X126481745Y-98428499D01*
X126614899Y-98339529D01*
X126762858Y-98278242D01*
X126919925Y-98247000D01*
X127080075Y-98247000D01*
X127237142Y-98278242D01*
G37*
G36*
X142477142Y-98278242D02*
G01*
X142625101Y-98339529D01*
X142758255Y-98428499D01*
X142871501Y-98541745D01*
X142960471Y-98674899D01*
X143021758Y-98822858D01*
X143053000Y-98979925D01*
X143053000Y-99140075D01*
X143021758Y-99297142D01*
X142960471Y-99445101D01*
X142871501Y-99578255D01*
X142758255Y-99691501D01*
X142625101Y-99780471D01*
X142477142Y-99841758D01*
X142320075Y-99873000D01*
X142159925Y-99873000D01*
X142002858Y-99841758D01*
X141854899Y-99780471D01*
X141721745Y-99691501D01*
X141608499Y-99578255D01*
X141519529Y-99445101D01*
X141458242Y-99297142D01*
X141427000Y-99140075D01*
X141427000Y-98979925D01*
X141458242Y-98822858D01*
X141519529Y-98674899D01*
X141608499Y-98541745D01*
X141721745Y-98428499D01*
X141854899Y-98339529D01*
X142002858Y-98278242D01*
X142159925Y-98247000D01*
X142320075Y-98247000D01*
X142477142Y-98278242D01*
G37*
G36*
X168016000Y-98056000D02*
G01*
X166214000Y-98056000D01*
X166214000Y-96254000D01*
X168016000Y-96254000D01*
X168016000Y-98056000D01*
G37*
G36*
X162139769Y-96257188D02*
G01*
X162297812Y-96288624D01*
X162461784Y-96356544D01*
X162609354Y-96455147D01*
X162734853Y-96580646D01*
X162833456Y-96728216D01*
X162901376Y-96892188D01*
X162936000Y-97066259D01*
X162936000Y-97243741D01*
X162901376Y-97417812D01*
X162833456Y-97581784D01*
X162734853Y-97729354D01*
X162609354Y-97854853D01*
X162461784Y-97953456D01*
X162297812Y-98021376D01*
X162148512Y-98051073D01*
X162123742Y-98056000D01*
X161946258Y-98056000D01*
X161921488Y-98051073D01*
X161772188Y-98021376D01*
X161608216Y-97953456D01*
X161460646Y-97854853D01*
X161335147Y-97729354D01*
X161236544Y-97581784D01*
X161168624Y-97417812D01*
X161134000Y-97243741D01*
X161134000Y-97066259D01*
X161168624Y-96892188D01*
X161236544Y-96728216D01*
X161335147Y-96580646D01*
X161460646Y-96455147D01*
X161608216Y-96356544D01*
X161772188Y-96288624D01*
X161930231Y-96257188D01*
X161946258Y-96254000D01*
X162123742Y-96254000D01*
X162139769Y-96257188D01*
G37*
G36*
X164679769Y-96257188D02*
G01*
X164837812Y-96288624D01*
X165001784Y-96356544D01*
X165149354Y-96455147D01*
X165274853Y-96580646D01*
X165373456Y-96728216D01*
X165441376Y-96892188D01*
X165476000Y-97066259D01*
X165476000Y-97243741D01*
X165441376Y-97417812D01*
X165373456Y-97581784D01*
X165274853Y-97729354D01*
X165149354Y-97854853D01*
X165001784Y-97953456D01*
X164837812Y-98021376D01*
X164688512Y-98051073D01*
X164663742Y-98056000D01*
X164486258Y-98056000D01*
X164461488Y-98051073D01*
X164312188Y-98021376D01*
X164148216Y-97953456D01*
X164000646Y-97854853D01*
X163875147Y-97729354D01*
X163776544Y-97581784D01*
X163708624Y-97417812D01*
X163674000Y-97243741D01*
X163674000Y-97066259D01*
X163708624Y-96892188D01*
X163776544Y-96728216D01*
X163875147Y-96580646D01*
X164000646Y-96455147D01*
X164148216Y-96356544D01*
X164312188Y-96288624D01*
X164470231Y-96257188D01*
X164486258Y-96254000D01*
X164663742Y-96254000D01*
X164679769Y-96257188D01*
G37*
G36*
X113931000Y-97421000D02*
G01*
X112129000Y-97421000D01*
X112129000Y-95619000D01*
X113931000Y-95619000D01*
X113931000Y-97421000D01*
G37*
G36*
X115683512Y-95623927D02*
G01*
X115832812Y-95653624D01*
X115996784Y-95721544D01*
X116144354Y-95820147D01*
X116269853Y-95945646D01*
X116368456Y-96093216D01*
X116436376Y-96257188D01*
X116471000Y-96431259D01*
X116471000Y-96608741D01*
X116436376Y-96782812D01*
X116368456Y-96946784D01*
X116269853Y-97094354D01*
X116144354Y-97219853D01*
X115996784Y-97318456D01*
X115832812Y-97386376D01*
X115683512Y-97416073D01*
X115658742Y-97421000D01*
X115481258Y-97421000D01*
X115456488Y-97416073D01*
X115307188Y-97386376D01*
X115143216Y-97318456D01*
X114995646Y-97219853D01*
X114870147Y-97094354D01*
X114771544Y-96946784D01*
X114703624Y-96782812D01*
X114669000Y-96608741D01*
X114669000Y-96431259D01*
X114703624Y-96257188D01*
X114771544Y-96093216D01*
X114870147Y-95945646D01*
X114995646Y-95820147D01*
X115143216Y-95721544D01*
X115307188Y-95653624D01*
X115456488Y-95623927D01*
X115481258Y-95619000D01*
X115658742Y-95619000D01*
X115683512Y-95623927D01*
G37*
G36*
X118223512Y-95623927D02*
G01*
X118372812Y-95653624D01*
X118536784Y-95721544D01*
X118684354Y-95820147D01*
X118809853Y-95945646D01*
X118908456Y-96093216D01*
X118976376Y-96257188D01*
X119011000Y-96431259D01*
X119011000Y-96608741D01*
X118976376Y-96782812D01*
X118908456Y-96946784D01*
X118809853Y-97094354D01*
X118684354Y-97219853D01*
X118536784Y-97318456D01*
X118372812Y-97386376D01*
X118223512Y-97416073D01*
X118198742Y-97421000D01*
X118021258Y-97421000D01*
X117996488Y-97416073D01*
X117847188Y-97386376D01*
X117683216Y-97318456D01*
X117535646Y-97219853D01*
X117410147Y-97094354D01*
X117311544Y-96946784D01*
X117243624Y-96782812D01*
X117209000Y-96608741D01*
X117209000Y-96431259D01*
X117243624Y-96257188D01*
X117311544Y-96093216D01*
X117410147Y-95945646D01*
X117535646Y-95820147D01*
X117683216Y-95721544D01*
X117847188Y-95653624D01*
X117996488Y-95623927D01*
X118021258Y-95619000D01*
X118198742Y-95619000D01*
X118223512Y-95623927D01*
G37*
G36*
X127237142Y-95738242D02*
G01*
X127385101Y-95799529D01*
X127518255Y-95888499D01*
X127631501Y-96001745D01*
X127720471Y-96134899D01*
X127781758Y-96282858D01*
X127813000Y-96439925D01*
X127813000Y-96600075D01*
X127781758Y-96757142D01*
X127720471Y-96905101D01*
X127631501Y-97038255D01*
X127518255Y-97151501D01*
X127385101Y-97240471D01*
X127237142Y-97301758D01*
X127080075Y-97333000D01*
X126919925Y-97333000D01*
X126762858Y-97301758D01*
X126614899Y-97240471D01*
X126481745Y-97151501D01*
X126368499Y-97038255D01*
X126279529Y-96905101D01*
X126218242Y-96757142D01*
X126187000Y-96600075D01*
X126187000Y-96439925D01*
X126218242Y-96282858D01*
X126279529Y-96134899D01*
X126368499Y-96001745D01*
X126481745Y-95888499D01*
X126614899Y-95799529D01*
X126762858Y-95738242D01*
X126919925Y-95707000D01*
X127080075Y-95707000D01*
X127237142Y-95738242D01*
G37*
G36*
X142477142Y-95738242D02*
G01*
X142625101Y-95799529D01*
X142758255Y-95888499D01*
X142871501Y-96001745D01*
X142960471Y-96134899D01*
X143021758Y-96282858D01*
X143053000Y-96439925D01*
X143053000Y-96600075D01*
X143021758Y-96757142D01*
X142960471Y-96905101D01*
X142871501Y-97038255D01*
X142758255Y-97151501D01*
X142625101Y-97240471D01*
X142477142Y-97301758D01*
X142320075Y-97333000D01*
X142159925Y-97333000D01*
X142002858Y-97301758D01*
X141854899Y-97240471D01*
X141721745Y-97151501D01*
X141608499Y-97038255D01*
X141519529Y-96905101D01*
X141458242Y-96757142D01*
X141427000Y-96600075D01*
X141427000Y-96439925D01*
X141458242Y-96282858D01*
X141519529Y-96134899D01*
X141608499Y-96001745D01*
X141721745Y-95888499D01*
X141854899Y-95799529D01*
X142002858Y-95738242D01*
X142159925Y-95707000D01*
X142320075Y-95707000D01*
X142477142Y-95738242D01*
G37*
G36*
X118223512Y-93083927D02*
G01*
X118372812Y-93113624D01*
X118536784Y-93181544D01*
X118684354Y-93280147D01*
X118809853Y-93405646D01*
X118908456Y-93553216D01*
X118976376Y-93717188D01*
X119011000Y-93891259D01*
X119011000Y-94068741D01*
X118976376Y-94242812D01*
X118908456Y-94406784D01*
X118809853Y-94554354D01*
X118684354Y-94679853D01*
X118536784Y-94778456D01*
X118372812Y-94846376D01*
X118223512Y-94876073D01*
X118198742Y-94881000D01*
X118021258Y-94881000D01*
X117996488Y-94876073D01*
X117847188Y-94846376D01*
X117683216Y-94778456D01*
X117535646Y-94679853D01*
X117410147Y-94554354D01*
X117311544Y-94406784D01*
X117243624Y-94242812D01*
X117209000Y-94068741D01*
X117209000Y-93891259D01*
X117243624Y-93717188D01*
X117311544Y-93553216D01*
X117410147Y-93405646D01*
X117535646Y-93280147D01*
X117683216Y-93181544D01*
X117847188Y-93113624D01*
X117996488Y-93083927D01*
X118021258Y-93079000D01*
X118198742Y-93079000D01*
X118223512Y-93083927D01*
G37*
G36*
X113931000Y-94881000D02*
G01*
X112129000Y-94881000D01*
X112129000Y-93079000D01*
X113931000Y-93079000D01*
X113931000Y-94881000D01*
G37*
G36*
X115683512Y-93083927D02*
G01*
X115832812Y-93113624D01*
X115996784Y-93181544D01*
X116144354Y-93280147D01*
X116269853Y-93405646D01*
X116368456Y-93553216D01*
X116436376Y-93717188D01*
X116471000Y-93891259D01*
X116471000Y-94068741D01*
X116436376Y-94242812D01*
X116368456Y-94406784D01*
X116269853Y-94554354D01*
X116144354Y-94679853D01*
X115996784Y-94778456D01*
X115832812Y-94846376D01*
X115683512Y-94876073D01*
X115658742Y-94881000D01*
X115481258Y-94881000D01*
X115456488Y-94876073D01*
X115307188Y-94846376D01*
X115143216Y-94778456D01*
X114995646Y-94679853D01*
X114870147Y-94554354D01*
X114771544Y-94406784D01*
X114703624Y-94242812D01*
X114669000Y-94068741D01*
X114669000Y-93891259D01*
X114703624Y-93717188D01*
X114771544Y-93553216D01*
X114870147Y-93405646D01*
X114995646Y-93280147D01*
X115143216Y-93181544D01*
X115307188Y-93113624D01*
X115456488Y-93083927D01*
X115481258Y-93079000D01*
X115658742Y-93079000D01*
X115683512Y-93083927D01*
G37*
G36*
X142477142Y-93198242D02*
G01*
X142625101Y-93259529D01*
X142758255Y-93348499D01*
X142871501Y-93461745D01*
X142960471Y-93594899D01*
X143021758Y-93742858D01*
X143053000Y-93899925D01*
X143053000Y-94060075D01*
X143021758Y-94217142D01*
X142960471Y-94365101D01*
X142871501Y-94498255D01*
X142758255Y-94611501D01*
X142625101Y-94700471D01*
X142477142Y-94761758D01*
X142320075Y-94793000D01*
X142159925Y-94793000D01*
X142002858Y-94761758D01*
X141854899Y-94700471D01*
X141721745Y-94611501D01*
X141608499Y-94498255D01*
X141519529Y-94365101D01*
X141458242Y-94217142D01*
X141427000Y-94060075D01*
X141427000Y-93899925D01*
X141458242Y-93742858D01*
X141519529Y-93594899D01*
X141608499Y-93461745D01*
X141721745Y-93348499D01*
X141854899Y-93259529D01*
X142002858Y-93198242D01*
X142159925Y-93167000D01*
X142320075Y-93167000D01*
X142477142Y-93198242D01*
G37*
G36*
X127237142Y-93198242D02*
G01*
X127385101Y-93259529D01*
X127518255Y-93348499D01*
X127631501Y-93461745D01*
X127720471Y-93594899D01*
X127781758Y-93742858D01*
X127813000Y-93899925D01*
X127813000Y-94060075D01*
X127781758Y-94217142D01*
X127720471Y-94365101D01*
X127631501Y-94498255D01*
X127518255Y-94611501D01*
X127385101Y-94700471D01*
X127237142Y-94761758D01*
X127080075Y-94793000D01*
X126919925Y-94793000D01*
X126762858Y-94761758D01*
X126614899Y-94700471D01*
X126481745Y-94611501D01*
X126368499Y-94498255D01*
X126279529Y-94365101D01*
X126218242Y-94217142D01*
X126187000Y-94060075D01*
X126187000Y-93899925D01*
X126218242Y-93742858D01*
X126279529Y-93594899D01*
X126368499Y-93461745D01*
X126481745Y-93348499D01*
X126614899Y-93259529D01*
X126762858Y-93198242D01*
X126919925Y-93167000D01*
X127080075Y-93167000D01*
X127237142Y-93198242D01*
G37*
G36*
X113931000Y-92341000D02*
G01*
X112129000Y-92341000D01*
X112129000Y-90539000D01*
X113931000Y-90539000D01*
X113931000Y-92341000D01*
G37*
G36*
X115683512Y-90543927D02*
G01*
X115832812Y-90573624D01*
X115996784Y-90641544D01*
X116144354Y-90740147D01*
X116269853Y-90865646D01*
X116368456Y-91013216D01*
X116436376Y-91177188D01*
X116471000Y-91351259D01*
X116471000Y-91528741D01*
X116436376Y-91702812D01*
X116368456Y-91866784D01*
X116269853Y-92014354D01*
X116144354Y-92139853D01*
X115996784Y-92238456D01*
X115832812Y-92306376D01*
X115683512Y-92336073D01*
X115658742Y-92341000D01*
X115481258Y-92341000D01*
X115456488Y-92336073D01*
X115307188Y-92306376D01*
X115143216Y-92238456D01*
X114995646Y-92139853D01*
X114870147Y-92014354D01*
X114771544Y-91866784D01*
X114703624Y-91702812D01*
X114669000Y-91528741D01*
X114669000Y-91351259D01*
X114703624Y-91177188D01*
X114771544Y-91013216D01*
X114870147Y-90865646D01*
X114995646Y-90740147D01*
X115143216Y-90641544D01*
X115307188Y-90573624D01*
X115456488Y-90543927D01*
X115481258Y-90539000D01*
X115658742Y-90539000D01*
X115683512Y-90543927D01*
G37*
G36*
X118223512Y-90543927D02*
G01*
X118372812Y-90573624D01*
X118536784Y-90641544D01*
X118684354Y-90740147D01*
X118809853Y-90865646D01*
X118908456Y-91013216D01*
X118976376Y-91177188D01*
X119011000Y-91351259D01*
X119011000Y-91528741D01*
X118976376Y-91702812D01*
X118908456Y-91866784D01*
X118809853Y-92014354D01*
X118684354Y-92139853D01*
X118536784Y-92238456D01*
X118372812Y-92306376D01*
X118223512Y-92336073D01*
X118198742Y-92341000D01*
X118021258Y-92341000D01*
X117996488Y-92336073D01*
X117847188Y-92306376D01*
X117683216Y-92238456D01*
X117535646Y-92139853D01*
X117410147Y-92014354D01*
X117311544Y-91866784D01*
X117243624Y-91702812D01*
X117209000Y-91528741D01*
X117209000Y-91351259D01*
X117243624Y-91177188D01*
X117311544Y-91013216D01*
X117410147Y-90865646D01*
X117535646Y-90740147D01*
X117683216Y-90641544D01*
X117847188Y-90573624D01*
X117996488Y-90543927D01*
X118021258Y-90539000D01*
X118198742Y-90539000D01*
X118223512Y-90543927D01*
G37*
G36*
X142477142Y-90658242D02*
G01*
X142625101Y-90719529D01*
X142758255Y-90808499D01*
X142871501Y-90921745D01*
X142960471Y-91054899D01*
X143021758Y-91202858D01*
X143053000Y-91359925D01*
X143053000Y-91520075D01*
X143021758Y-91677142D01*
X142960471Y-91825101D01*
X142871501Y-91958255D01*
X142758255Y-92071501D01*
X142625101Y-92160471D01*
X142477142Y-92221758D01*
X142320075Y-92253000D01*
X142159925Y-92253000D01*
X142002858Y-92221758D01*
X141854899Y-92160471D01*
X141721745Y-92071501D01*
X141608499Y-91958255D01*
X141519529Y-91825101D01*
X141458242Y-91677142D01*
X141427000Y-91520075D01*
X141427000Y-91359925D01*
X141458242Y-91202858D01*
X141519529Y-91054899D01*
X141608499Y-90921745D01*
X141721745Y-90808499D01*
X141854899Y-90719529D01*
X142002858Y-90658242D01*
X142159925Y-90627000D01*
X142320075Y-90627000D01*
X142477142Y-90658242D01*
G37*
G36*
X127237142Y-90658242D02*
G01*
X127385101Y-90719529D01*
X127518255Y-90808499D01*
X127631501Y-90921745D01*
X127720471Y-91054899D01*
X127781758Y-91202858D01*
X127813000Y-91359925D01*
X127813000Y-91520075D01*
X127781758Y-91677142D01*
X127720471Y-91825101D01*
X127631501Y-91958255D01*
X127518255Y-92071501D01*
X127385101Y-92160471D01*
X127237142Y-92221758D01*
X127080075Y-92253000D01*
X126919925Y-92253000D01*
X126762858Y-92221758D01*
X126614899Y-92160471D01*
X126481745Y-92071501D01*
X126368499Y-91958255D01*
X126279529Y-91825101D01*
X126218242Y-91677142D01*
X126187000Y-91520075D01*
X126187000Y-91359925D01*
X126218242Y-91202858D01*
X126279529Y-91054899D01*
X126368499Y-90921745D01*
X126481745Y-90808499D01*
X126614899Y-90719529D01*
X126762858Y-90658242D01*
X126919925Y-90627000D01*
X127080075Y-90627000D01*
X127237142Y-90658242D01*
G37*
G36*
X118223512Y-88003927D02*
G01*
X118372812Y-88033624D01*
X118536784Y-88101544D01*
X118684354Y-88200147D01*
X118809853Y-88325646D01*
X118908456Y-88473216D01*
X118976376Y-88637188D01*
X119011000Y-88811259D01*
X119011000Y-88988741D01*
X118976376Y-89162812D01*
X118908456Y-89326784D01*
X118809853Y-89474354D01*
X118684354Y-89599853D01*
X118536784Y-89698456D01*
X118372812Y-89766376D01*
X118223512Y-89796073D01*
X118198742Y-89801000D01*
X118021258Y-89801000D01*
X117996488Y-89796073D01*
X117847188Y-89766376D01*
X117683216Y-89698456D01*
X117535646Y-89599853D01*
X117410147Y-89474354D01*
X117311544Y-89326784D01*
X117243624Y-89162812D01*
X117209000Y-88988741D01*
X117209000Y-88811259D01*
X117243624Y-88637188D01*
X117311544Y-88473216D01*
X117410147Y-88325646D01*
X117535646Y-88200147D01*
X117683216Y-88101544D01*
X117847188Y-88033624D01*
X117996488Y-88003927D01*
X118021258Y-87999000D01*
X118198742Y-87999000D01*
X118223512Y-88003927D01*
G37*
G36*
X115683512Y-88003927D02*
G01*
X115832812Y-88033624D01*
X115996784Y-88101544D01*
X116144354Y-88200147D01*
X116269853Y-88325646D01*
X116368456Y-88473216D01*
X116436376Y-88637188D01*
X116471000Y-88811259D01*
X116471000Y-88988741D01*
X116436376Y-89162812D01*
X116368456Y-89326784D01*
X116269853Y-89474354D01*
X116144354Y-89599853D01*
X115996784Y-89698456D01*
X115832812Y-89766376D01*
X115683512Y-89796073D01*
X115658742Y-89801000D01*
X115481258Y-89801000D01*
X115456488Y-89796073D01*
X115307188Y-89766376D01*
X115143216Y-89698456D01*
X114995646Y-89599853D01*
X114870147Y-89474354D01*
X114771544Y-89326784D01*
X114703624Y-89162812D01*
X114669000Y-88988741D01*
X114669000Y-88811259D01*
X114703624Y-88637188D01*
X114771544Y-88473216D01*
X114870147Y-88325646D01*
X114995646Y-88200147D01*
X115143216Y-88101544D01*
X115307188Y-88033624D01*
X115456488Y-88003927D01*
X115481258Y-87999000D01*
X115658742Y-87999000D01*
X115683512Y-88003927D01*
G37*
G36*
X113931000Y-89801000D02*
G01*
X112129000Y-89801000D01*
X112129000Y-87999000D01*
X113931000Y-87999000D01*
X113931000Y-89801000D01*
G37*
G36*
X142477142Y-88118242D02*
G01*
X142625101Y-88179529D01*
X142758255Y-88268499D01*
X142871501Y-88381745D01*
X142960471Y-88514899D01*
X143021758Y-88662858D01*
X143053000Y-88819925D01*
X143053000Y-88980075D01*
X143021758Y-89137142D01*
X142960471Y-89285101D01*
X142871501Y-89418255D01*
X142758255Y-89531501D01*
X142625101Y-89620471D01*
X142477142Y-89681758D01*
X142320075Y-89713000D01*
X142159925Y-89713000D01*
X142002858Y-89681758D01*
X141854899Y-89620471D01*
X141721745Y-89531501D01*
X141608499Y-89418255D01*
X141519529Y-89285101D01*
X141458242Y-89137142D01*
X141427000Y-88980075D01*
X141427000Y-88819925D01*
X141458242Y-88662858D01*
X141519529Y-88514899D01*
X141608499Y-88381745D01*
X141721745Y-88268499D01*
X141854899Y-88179529D01*
X142002858Y-88118242D01*
X142159925Y-88087000D01*
X142320075Y-88087000D01*
X142477142Y-88118242D01*
G37*
G36*
X127237142Y-88118242D02*
G01*
X127385101Y-88179529D01*
X127518255Y-88268499D01*
X127631501Y-88381745D01*
X127720471Y-88514899D01*
X127781758Y-88662858D01*
X127813000Y-88819925D01*
X127813000Y-88980075D01*
X127781758Y-89137142D01*
X127720471Y-89285101D01*
X127631501Y-89418255D01*
X127518255Y-89531501D01*
X127385101Y-89620471D01*
X127237142Y-89681758D01*
X127080075Y-89713000D01*
X126919925Y-89713000D01*
X126762858Y-89681758D01*
X126614899Y-89620471D01*
X126481745Y-89531501D01*
X126368499Y-89418255D01*
X126279529Y-89285101D01*
X126218242Y-89137142D01*
X126187000Y-88980075D01*
X126187000Y-88819925D01*
X126218242Y-88662858D01*
X126279529Y-88514899D01*
X126368499Y-88381745D01*
X126481745Y-88268499D01*
X126614899Y-88179529D01*
X126762858Y-88118242D01*
X126919925Y-88087000D01*
X127080075Y-88087000D01*
X127237142Y-88118242D01*
G37*
G36*
X160555993Y-86824203D02*
G01*
X160620411Y-86843744D01*
X160679781Y-86875478D01*
X160731817Y-86918183D01*
X160774522Y-86970219D01*
X160806256Y-87029589D01*
X160825797Y-87094007D01*
X160833000Y-87167140D01*
X160833000Y-88092860D01*
X160825797Y-88165993D01*
X160806256Y-88230411D01*
X160774522Y-88289781D01*
X160731817Y-88341817D01*
X160679781Y-88384522D01*
X160620411Y-88416256D01*
X160555993Y-88435797D01*
X160482860Y-88443000D01*
X159557140Y-88443000D01*
X159484007Y-88435797D01*
X159419589Y-88416256D01*
X159360219Y-88384522D01*
X159308183Y-88341817D01*
X159265478Y-88289781D01*
X159233744Y-88230411D01*
X159214203Y-88165993D01*
X159207000Y-88092860D01*
X159207000Y-87167140D01*
X159214203Y-87094007D01*
X159233744Y-87029589D01*
X159265478Y-86970219D01*
X159308183Y-86918183D01*
X159360219Y-86875478D01*
X159419589Y-86843744D01*
X159484007Y-86824203D01*
X159557140Y-86817000D01*
X160482860Y-86817000D01*
X160555993Y-86824203D01*
G37*
G36*
X157717142Y-86848242D02*
G01*
X157865101Y-86909529D01*
X157998255Y-86998499D01*
X158111501Y-87111745D01*
X158200471Y-87244899D01*
X158261758Y-87392858D01*
X158293000Y-87549925D01*
X158293000Y-87710075D01*
X158261758Y-87867142D01*
X158200471Y-88015101D01*
X158111501Y-88148255D01*
X157998255Y-88261501D01*
X157865101Y-88350471D01*
X157717142Y-88411758D01*
X157560075Y-88443000D01*
X157399925Y-88443000D01*
X157242858Y-88411758D01*
X157094899Y-88350471D01*
X156961745Y-88261501D01*
X156848499Y-88148255D01*
X156759529Y-88015101D01*
X156698242Y-87867142D01*
X156667000Y-87710075D01*
X156667000Y-87549925D01*
X156698242Y-87392858D01*
X156759529Y-87244899D01*
X156848499Y-87111745D01*
X156961745Y-86998499D01*
X157094899Y-86909529D01*
X157242858Y-86848242D01*
X157399925Y-86817000D01*
X157560075Y-86817000D01*
X157717142Y-86848242D01*
G37*
G36*
X167877142Y-86848242D02*
G01*
X168025101Y-86909529D01*
X168158255Y-86998499D01*
X168271501Y-87111745D01*
X168360471Y-87244899D01*
X168421758Y-87392858D01*
X168453000Y-87549925D01*
X168453000Y-87710075D01*
X168421758Y-87867142D01*
X168360471Y-88015101D01*
X168271501Y-88148255D01*
X168158255Y-88261501D01*
X168025101Y-88350471D01*
X167877142Y-88411758D01*
X167720075Y-88443000D01*
X167559925Y-88443000D01*
X167402858Y-88411758D01*
X167254899Y-88350471D01*
X167121745Y-88261501D01*
X167008499Y-88148255D01*
X166919529Y-88015101D01*
X166858242Y-87867142D01*
X166827000Y-87710075D01*
X166827000Y-87549925D01*
X166858242Y-87392858D01*
X166919529Y-87244899D01*
X167008499Y-87111745D01*
X167121745Y-86998499D01*
X167254899Y-86909529D01*
X167402858Y-86848242D01*
X167559925Y-86817000D01*
X167720075Y-86817000D01*
X167877142Y-86848242D01*
G37*
G36*
X162797142Y-86848242D02*
G01*
X162945101Y-86909529D01*
X163078255Y-86998499D01*
X163191501Y-87111745D01*
X163280471Y-87244899D01*
X163341758Y-87392858D01*
X163373000Y-87549925D01*
X163373000Y-87710075D01*
X163341758Y-87867142D01*
X163280471Y-88015101D01*
X163191501Y-88148255D01*
X163078255Y-88261501D01*
X162945101Y-88350471D01*
X162797142Y-88411758D01*
X162640075Y-88443000D01*
X162479925Y-88443000D01*
X162322858Y-88411758D01*
X162174899Y-88350471D01*
X162041745Y-88261501D01*
X161928499Y-88148255D01*
X161839529Y-88015101D01*
X161778242Y-87867142D01*
X161747000Y-87710075D01*
X161747000Y-87549925D01*
X161778242Y-87392858D01*
X161839529Y-87244899D01*
X161928499Y-87111745D01*
X162041745Y-86998499D01*
X162174899Y-86909529D01*
X162322858Y-86848242D01*
X162479925Y-86817000D01*
X162640075Y-86817000D01*
X162797142Y-86848242D01*
G37*
G36*
X165337142Y-86848242D02*
G01*
X165485101Y-86909529D01*
X165618255Y-86998499D01*
X165731501Y-87111745D01*
X165820471Y-87244899D01*
X165881758Y-87392858D01*
X165913000Y-87549925D01*
X165913000Y-87710075D01*
X165881758Y-87867142D01*
X165820471Y-88015101D01*
X165731501Y-88148255D01*
X165618255Y-88261501D01*
X165485101Y-88350471D01*
X165337142Y-88411758D01*
X165180075Y-88443000D01*
X165019925Y-88443000D01*
X164862858Y-88411758D01*
X164714899Y-88350471D01*
X164581745Y-88261501D01*
X164468499Y-88148255D01*
X164379529Y-88015101D01*
X164318242Y-87867142D01*
X164287000Y-87710075D01*
X164287000Y-87549925D01*
X164318242Y-87392858D01*
X164379529Y-87244899D01*
X164468499Y-87111745D01*
X164581745Y-86998499D01*
X164714899Y-86909529D01*
X164862858Y-86848242D01*
X165019925Y-86817000D01*
X165180075Y-86817000D01*
X165337142Y-86848242D01*
G37*
G36*
X113931000Y-87261000D02*
G01*
X112129000Y-87261000D01*
X112129000Y-85459000D01*
X113931000Y-85459000D01*
X113931000Y-87261000D01*
G37*
G36*
X118223512Y-85463927D02*
G01*
X118372812Y-85493624D01*
X118536784Y-85561544D01*
X118684354Y-85660147D01*
X118809853Y-85785646D01*
X118908456Y-85933216D01*
X118976376Y-86097188D01*
X119011000Y-86271259D01*
X119011000Y-86448741D01*
X118976376Y-86622812D01*
X118908456Y-86786784D01*
X118809853Y-86934354D01*
X118684354Y-87059853D01*
X118536784Y-87158456D01*
X118372812Y-87226376D01*
X118223512Y-87256073D01*
X118198742Y-87261000D01*
X118021258Y-87261000D01*
X117996488Y-87256073D01*
X117847188Y-87226376D01*
X117683216Y-87158456D01*
X117535646Y-87059853D01*
X117410147Y-86934354D01*
X117311544Y-86786784D01*
X117243624Y-86622812D01*
X117209000Y-86448741D01*
X117209000Y-86271259D01*
X117243624Y-86097188D01*
X117311544Y-85933216D01*
X117410147Y-85785646D01*
X117535646Y-85660147D01*
X117683216Y-85561544D01*
X117847188Y-85493624D01*
X117996488Y-85463927D01*
X118021258Y-85459000D01*
X118198742Y-85459000D01*
X118223512Y-85463927D01*
G37*
G36*
X115683512Y-85463927D02*
G01*
X115832812Y-85493624D01*
X115996784Y-85561544D01*
X116144354Y-85660147D01*
X116269853Y-85785646D01*
X116368456Y-85933216D01*
X116436376Y-86097188D01*
X116471000Y-86271259D01*
X116471000Y-86448741D01*
X116436376Y-86622812D01*
X116368456Y-86786784D01*
X116269853Y-86934354D01*
X116144354Y-87059853D01*
X115996784Y-87158456D01*
X115832812Y-87226376D01*
X115683512Y-87256073D01*
X115658742Y-87261000D01*
X115481258Y-87261000D01*
X115456488Y-87256073D01*
X115307188Y-87226376D01*
X115143216Y-87158456D01*
X114995646Y-87059853D01*
X114870147Y-86934354D01*
X114771544Y-86786784D01*
X114703624Y-86622812D01*
X114669000Y-86448741D01*
X114669000Y-86271259D01*
X114703624Y-86097188D01*
X114771544Y-85933216D01*
X114870147Y-85785646D01*
X114995646Y-85660147D01*
X115143216Y-85561544D01*
X115307188Y-85493624D01*
X115456488Y-85463927D01*
X115481258Y-85459000D01*
X115658742Y-85459000D01*
X115683512Y-85463927D01*
G37*
G36*
X142477142Y-85578242D02*
G01*
X142625101Y-85639529D01*
X142758255Y-85728499D01*
X142871501Y-85841745D01*
X142960471Y-85974899D01*
X143021758Y-86122858D01*
X143053000Y-86279925D01*
X143053000Y-86440075D01*
X143021758Y-86597142D01*
X142960471Y-86745101D01*
X142871501Y-86878255D01*
X142758255Y-86991501D01*
X142625101Y-87080471D01*
X142477142Y-87141758D01*
X142320075Y-87173000D01*
X142159925Y-87173000D01*
X142002858Y-87141758D01*
X141854899Y-87080471D01*
X141721745Y-86991501D01*
X141608499Y-86878255D01*
X141519529Y-86745101D01*
X141458242Y-86597142D01*
X141427000Y-86440075D01*
X141427000Y-86279925D01*
X141458242Y-86122858D01*
X141519529Y-85974899D01*
X141608499Y-85841745D01*
X141721745Y-85728499D01*
X141854899Y-85639529D01*
X142002858Y-85578242D01*
X142159925Y-85547000D01*
X142320075Y-85547000D01*
X142477142Y-85578242D01*
G37*
G36*
X127237142Y-85578242D02*
G01*
X127385101Y-85639529D01*
X127518255Y-85728499D01*
X127631501Y-85841745D01*
X127720471Y-85974899D01*
X127781758Y-86122858D01*
X127813000Y-86279925D01*
X127813000Y-86440075D01*
X127781758Y-86597142D01*
X127720471Y-86745101D01*
X127631501Y-86878255D01*
X127518255Y-86991501D01*
X127385101Y-87080471D01*
X127237142Y-87141758D01*
X127080075Y-87173000D01*
X126919925Y-87173000D01*
X126762858Y-87141758D01*
X126614899Y-87080471D01*
X126481745Y-86991501D01*
X126368499Y-86878255D01*
X126279529Y-86745101D01*
X126218242Y-86597142D01*
X126187000Y-86440075D01*
X126187000Y-86279925D01*
X126218242Y-86122858D01*
X126279529Y-85974899D01*
X126368499Y-85841745D01*
X126481745Y-85728499D01*
X126614899Y-85639529D01*
X126762858Y-85578242D01*
X126919925Y-85547000D01*
X127080075Y-85547000D01*
X127237142Y-85578242D01*
G37*
G36*
X113931000Y-84721000D02*
G01*
X112129000Y-84721000D01*
X112129000Y-82919000D01*
X113931000Y-82919000D01*
X113931000Y-84721000D01*
G37*
G36*
X118223512Y-82923927D02*
G01*
X118372812Y-82953624D01*
X118536784Y-83021544D01*
X118684354Y-83120147D01*
X118809853Y-83245646D01*
X118908456Y-83393216D01*
X118976376Y-83557188D01*
X119011000Y-83731259D01*
X119011000Y-83908741D01*
X118976376Y-84082812D01*
X118908456Y-84246784D01*
X118809853Y-84394354D01*
X118684354Y-84519853D01*
X118536784Y-84618456D01*
X118372812Y-84686376D01*
X118223512Y-84716073D01*
X118198742Y-84721000D01*
X118021258Y-84721000D01*
X117996488Y-84716073D01*
X117847188Y-84686376D01*
X117683216Y-84618456D01*
X117535646Y-84519853D01*
X117410147Y-84394354D01*
X117311544Y-84246784D01*
X117243624Y-84082812D01*
X117209000Y-83908741D01*
X117209000Y-83731259D01*
X117243624Y-83557188D01*
X117311544Y-83393216D01*
X117410147Y-83245646D01*
X117535646Y-83120147D01*
X117683216Y-83021544D01*
X117847188Y-82953624D01*
X117996488Y-82923927D01*
X118021258Y-82919000D01*
X118198742Y-82919000D01*
X118223512Y-82923927D01*
G37*
G36*
X115683512Y-82923927D02*
G01*
X115832812Y-82953624D01*
X115996784Y-83021544D01*
X116144354Y-83120147D01*
X116269853Y-83245646D01*
X116368456Y-83393216D01*
X116436376Y-83557188D01*
X116471000Y-83731259D01*
X116471000Y-83908741D01*
X116436376Y-84082812D01*
X116368456Y-84246784D01*
X116269853Y-84394354D01*
X116144354Y-84519853D01*
X115996784Y-84618456D01*
X115832812Y-84686376D01*
X115683512Y-84716073D01*
X115658742Y-84721000D01*
X115481258Y-84721000D01*
X115456488Y-84716073D01*
X115307188Y-84686376D01*
X115143216Y-84618456D01*
X114995646Y-84519853D01*
X114870147Y-84394354D01*
X114771544Y-84246784D01*
X114703624Y-84082812D01*
X114669000Y-83908741D01*
X114669000Y-83731259D01*
X114703624Y-83557188D01*
X114771544Y-83393216D01*
X114870147Y-83245646D01*
X114995646Y-83120147D01*
X115143216Y-83021544D01*
X115307188Y-82953624D01*
X115456488Y-82923927D01*
X115481258Y-82919000D01*
X115658742Y-82919000D01*
X115683512Y-82923927D01*
G37*
G36*
X127237142Y-83038242D02*
G01*
X127385101Y-83099529D01*
X127518255Y-83188499D01*
X127631501Y-83301745D01*
X127720471Y-83434899D01*
X127781758Y-83582858D01*
X127813000Y-83739925D01*
X127813000Y-83900075D01*
X127781758Y-84057142D01*
X127720471Y-84205101D01*
X127631501Y-84338255D01*
X127518255Y-84451501D01*
X127385101Y-84540471D01*
X127237142Y-84601758D01*
X127080075Y-84633000D01*
X126919925Y-84633000D01*
X126762858Y-84601758D01*
X126614899Y-84540471D01*
X126481745Y-84451501D01*
X126368499Y-84338255D01*
X126279529Y-84205101D01*
X126218242Y-84057142D01*
X126187000Y-83900075D01*
X126187000Y-83739925D01*
X126218242Y-83582858D01*
X126279529Y-83434899D01*
X126368499Y-83301745D01*
X126481745Y-83188499D01*
X126614899Y-83099529D01*
X126762858Y-83038242D01*
X126919925Y-83007000D01*
X127080075Y-83007000D01*
X127237142Y-83038242D01*
G37*
G36*
X142477142Y-83038242D02*
G01*
X142625101Y-83099529D01*
X142758255Y-83188499D01*
X142871501Y-83301745D01*
X142960471Y-83434899D01*
X143021758Y-83582858D01*
X143053000Y-83739925D01*
X143053000Y-83900075D01*
X143021758Y-84057142D01*
X142960471Y-84205101D01*
X142871501Y-84338255D01*
X142758255Y-84451501D01*
X142625101Y-84540471D01*
X142477142Y-84601758D01*
X142320075Y-84633000D01*
X142159925Y-84633000D01*
X142002858Y-84601758D01*
X141854899Y-84540471D01*
X141721745Y-84451501D01*
X141608499Y-84338255D01*
X141519529Y-84205101D01*
X141458242Y-84057142D01*
X141427000Y-83900075D01*
X141427000Y-83739925D01*
X141458242Y-83582858D01*
X141519529Y-83434899D01*
X141608499Y-83301745D01*
X141721745Y-83188499D01*
X141854899Y-83099529D01*
X142002858Y-83038242D01*
X142159925Y-83007000D01*
X142320075Y-83007000D01*
X142477142Y-83038242D01*
G37*
G36*
X118223512Y-80383927D02*
G01*
X118372812Y-80413624D01*
X118536784Y-80481544D01*
X118684354Y-80580147D01*
X118809853Y-80705646D01*
X118908456Y-80853216D01*
X118976376Y-81017188D01*
X119011000Y-81191259D01*
X119011000Y-81368741D01*
X118976376Y-81542812D01*
X118908456Y-81706784D01*
X118809853Y-81854354D01*
X118684354Y-81979853D01*
X118536784Y-82078456D01*
X118372812Y-82146376D01*
X118223512Y-82176073D01*
X118198742Y-82181000D01*
X118021258Y-82181000D01*
X117996488Y-82176073D01*
X117847188Y-82146376D01*
X117683216Y-82078456D01*
X117535646Y-81979853D01*
X117410147Y-81854354D01*
X117311544Y-81706784D01*
X117243624Y-81542812D01*
X117209000Y-81368741D01*
X117209000Y-81191259D01*
X117243624Y-81017188D01*
X117311544Y-80853216D01*
X117410147Y-80705646D01*
X117535646Y-80580147D01*
X117683216Y-80481544D01*
X117847188Y-80413624D01*
X117996488Y-80383927D01*
X118021258Y-80379000D01*
X118198742Y-80379000D01*
X118223512Y-80383927D01*
G37*
G36*
X113931000Y-82181000D02*
G01*
X112129000Y-82181000D01*
X112129000Y-80379000D01*
X113931000Y-80379000D01*
X113931000Y-82181000D01*
G37*
G36*
X115683512Y-80383927D02*
G01*
X115832812Y-80413624D01*
X115996784Y-80481544D01*
X116144354Y-80580147D01*
X116269853Y-80705646D01*
X116368456Y-80853216D01*
X116436376Y-81017188D01*
X116471000Y-81191259D01*
X116471000Y-81368741D01*
X116436376Y-81542812D01*
X116368456Y-81706784D01*
X116269853Y-81854354D01*
X116144354Y-81979853D01*
X115996784Y-82078456D01*
X115832812Y-82146376D01*
X115683512Y-82176073D01*
X115658742Y-82181000D01*
X115481258Y-82181000D01*
X115456488Y-82176073D01*
X115307188Y-82146376D01*
X115143216Y-82078456D01*
X114995646Y-81979853D01*
X114870147Y-81854354D01*
X114771544Y-81706784D01*
X114703624Y-81542812D01*
X114669000Y-81368741D01*
X114669000Y-81191259D01*
X114703624Y-81017188D01*
X114771544Y-80853216D01*
X114870147Y-80705646D01*
X114995646Y-80580147D01*
X115143216Y-80481544D01*
X115307188Y-80413624D01*
X115456488Y-80383927D01*
X115481258Y-80379000D01*
X115658742Y-80379000D01*
X115683512Y-80383927D01*
G37*
G36*
X142477142Y-80498242D02*
G01*
X142625101Y-80559529D01*
X142758255Y-80648499D01*
X142871501Y-80761745D01*
X142960471Y-80894899D01*
X143021758Y-81042858D01*
X143053000Y-81199925D01*
X143053000Y-81360075D01*
X143021758Y-81517142D01*
X142960471Y-81665101D01*
X142871501Y-81798255D01*
X142758255Y-81911501D01*
X142625101Y-82000471D01*
X142477142Y-82061758D01*
X142320075Y-82093000D01*
X142159925Y-82093000D01*
X142002858Y-82061758D01*
X141854899Y-82000471D01*
X141721745Y-81911501D01*
X141608499Y-81798255D01*
X141519529Y-81665101D01*
X141458242Y-81517142D01*
X141427000Y-81360075D01*
X141427000Y-81199925D01*
X141458242Y-81042858D01*
X141519529Y-80894899D01*
X141608499Y-80761745D01*
X141721745Y-80648499D01*
X141854899Y-80559529D01*
X142002858Y-80498242D01*
X142159925Y-80467000D01*
X142320075Y-80467000D01*
X142477142Y-80498242D01*
G37*
G36*
X127237142Y-80498242D02*
G01*
X127385101Y-80559529D01*
X127518255Y-80648499D01*
X127631501Y-80761745D01*
X127720471Y-80894899D01*
X127781758Y-81042858D01*
X127813000Y-81199925D01*
X127813000Y-81360075D01*
X127781758Y-81517142D01*
X127720471Y-81665101D01*
X127631501Y-81798255D01*
X127518255Y-81911501D01*
X127385101Y-82000471D01*
X127237142Y-82061758D01*
X127080075Y-82093000D01*
X126919925Y-82093000D01*
X126762858Y-82061758D01*
X126614899Y-82000471D01*
X126481745Y-81911501D01*
X126368499Y-81798255D01*
X126279529Y-81665101D01*
X126218242Y-81517142D01*
X126187000Y-81360075D01*
X126187000Y-81199925D01*
X126218242Y-81042858D01*
X126279529Y-80894899D01*
X126368499Y-80761745D01*
X126481745Y-80648499D01*
X126614899Y-80559529D01*
X126762858Y-80498242D01*
X126919925Y-80467000D01*
X127080075Y-80467000D01*
X127237142Y-80498242D01*
G37*
G36*
X142477142Y-77958242D02*
G01*
X142625101Y-78019529D01*
X142758255Y-78108499D01*
X142871501Y-78221745D01*
X142960471Y-78354899D01*
X143021758Y-78502858D01*
X143053000Y-78659925D01*
X143053000Y-78820075D01*
X143021758Y-78977142D01*
X142960471Y-79125101D01*
X142871501Y-79258255D01*
X142758255Y-79371501D01*
X142625101Y-79460471D01*
X142477142Y-79521758D01*
X142320075Y-79553000D01*
X142159925Y-79553000D01*
X142002858Y-79521758D01*
X141854899Y-79460471D01*
X141721745Y-79371501D01*
X141608499Y-79258255D01*
X141519529Y-79125101D01*
X141458242Y-78977142D01*
X141427000Y-78820075D01*
X141427000Y-78659925D01*
X141458242Y-78502858D01*
X141519529Y-78354899D01*
X141608499Y-78221745D01*
X141721745Y-78108499D01*
X141854899Y-78019529D01*
X142002858Y-77958242D01*
X142159925Y-77927000D01*
X142320075Y-77927000D01*
X142477142Y-77958242D01*
G37*
G36*
X127237142Y-77958242D02*
G01*
X127385101Y-78019529D01*
X127518255Y-78108499D01*
X127631501Y-78221745D01*
X127720471Y-78354899D01*
X127781758Y-78502858D01*
X127813000Y-78659925D01*
X127813000Y-78820075D01*
X127781758Y-78977142D01*
X127720471Y-79125101D01*
X127631501Y-79258255D01*
X127518255Y-79371501D01*
X127385101Y-79460471D01*
X127237142Y-79521758D01*
X127080075Y-79553000D01*
X126919925Y-79553000D01*
X126762858Y-79521758D01*
X126614899Y-79460471D01*
X126481745Y-79371501D01*
X126368499Y-79258255D01*
X126279529Y-79125101D01*
X126218242Y-78977142D01*
X126187000Y-78820075D01*
X126187000Y-78659925D01*
X126218242Y-78502858D01*
X126279529Y-78354899D01*
X126368499Y-78221745D01*
X126481745Y-78108499D01*
X126614899Y-78019529D01*
X126762858Y-77958242D01*
X126919925Y-77927000D01*
X127080075Y-77927000D01*
X127237142Y-77958242D01*
G37*
G36*
X127237142Y-75418242D02*
G01*
X127385101Y-75479529D01*
X127518255Y-75568499D01*
X127631501Y-75681745D01*
X127720471Y-75814899D01*
X127781758Y-75962858D01*
X127813000Y-76119925D01*
X127813000Y-76280075D01*
X127781758Y-76437142D01*
X127720471Y-76585101D01*
X127631501Y-76718255D01*
X127518255Y-76831501D01*
X127385101Y-76920471D01*
X127237142Y-76981758D01*
X127080075Y-77013000D01*
X126919925Y-77013000D01*
X126762858Y-76981758D01*
X126614899Y-76920471D01*
X126481745Y-76831501D01*
X126368499Y-76718255D01*
X126279529Y-76585101D01*
X126218242Y-76437142D01*
X126187000Y-76280075D01*
X126187000Y-76119925D01*
X126218242Y-75962858D01*
X126279529Y-75814899D01*
X126368499Y-75681745D01*
X126481745Y-75568499D01*
X126614899Y-75479529D01*
X126762858Y-75418242D01*
X126919925Y-75387000D01*
X127080075Y-75387000D01*
X127237142Y-75418242D01*
G37*
G36*
X142477142Y-75418242D02*
G01*
X142625101Y-75479529D01*
X142758255Y-75568499D01*
X142871501Y-75681745D01*
X142960471Y-75814899D01*
X143021758Y-75962858D01*
X143053000Y-76119925D01*
X143053000Y-76280075D01*
X143021758Y-76437142D01*
X142960471Y-76585101D01*
X142871501Y-76718255D01*
X142758255Y-76831501D01*
X142625101Y-76920471D01*
X142477142Y-76981758D01*
X142320075Y-77013000D01*
X142159925Y-77013000D01*
X142002858Y-76981758D01*
X141854899Y-76920471D01*
X141721745Y-76831501D01*
X141608499Y-76718255D01*
X141519529Y-76585101D01*
X141458242Y-76437142D01*
X141427000Y-76280075D01*
X141427000Y-76119925D01*
X141458242Y-75962858D01*
X141519529Y-75814899D01*
X141608499Y-75681745D01*
X141721745Y-75568499D01*
X141854899Y-75479529D01*
X142002858Y-75418242D01*
X142159925Y-75387000D01*
X142320075Y-75387000D01*
X142477142Y-75418242D01*
G37*
G36*
X127237142Y-72878242D02*
G01*
X127385101Y-72939529D01*
X127518255Y-73028499D01*
X127631501Y-73141745D01*
X127720471Y-73274899D01*
X127781758Y-73422858D01*
X127813000Y-73579925D01*
X127813000Y-73740075D01*
X127781758Y-73897142D01*
X127720471Y-74045101D01*
X127631501Y-74178255D01*
X127518255Y-74291501D01*
X127385101Y-74380471D01*
X127237142Y-74441758D01*
X127080075Y-74473000D01*
X126919925Y-74473000D01*
X126762858Y-74441758D01*
X126614899Y-74380471D01*
X126481745Y-74291501D01*
X126368499Y-74178255D01*
X126279529Y-74045101D01*
X126218242Y-73897142D01*
X126187000Y-73740075D01*
X126187000Y-73579925D01*
X126218242Y-73422858D01*
X126279529Y-73274899D01*
X126368499Y-73141745D01*
X126481745Y-73028499D01*
X126614899Y-72939529D01*
X126762858Y-72878242D01*
X126919925Y-72847000D01*
X127080075Y-72847000D01*
X127237142Y-72878242D01*
G37*
G36*
X142477142Y-72878242D02*
G01*
X142625101Y-72939529D01*
X142758255Y-73028499D01*
X142871501Y-73141745D01*
X142960471Y-73274899D01*
X143021758Y-73422858D01*
X143053000Y-73579925D01*
X143053000Y-73740075D01*
X143021758Y-73897142D01*
X142960471Y-74045101D01*
X142871501Y-74178255D01*
X142758255Y-74291501D01*
X142625101Y-74380471D01*
X142477142Y-74441758D01*
X142320075Y-74473000D01*
X142159925Y-74473000D01*
X142002858Y-74441758D01*
X141854899Y-74380471D01*
X141721745Y-74291501D01*
X141608499Y-74178255D01*
X141519529Y-74045101D01*
X141458242Y-73897142D01*
X141427000Y-73740075D01*
X141427000Y-73579925D01*
X141458242Y-73422858D01*
X141519529Y-73274899D01*
X141608499Y-73141745D01*
X141721745Y-73028499D01*
X141854899Y-72939529D01*
X142002858Y-72878242D01*
X142159925Y-72847000D01*
X142320075Y-72847000D01*
X142477142Y-72878242D01*
G37*
G36*
X150889943Y-67066248D02*
G01*
X151445189Y-67296238D01*
X151445190Y-67296239D01*
X151944899Y-67630134D01*
X152369866Y-68055101D01*
X152369867Y-68055103D01*
X152703762Y-68554811D01*
X152933752Y-69110057D01*
X153051000Y-69699501D01*
X153051000Y-70300499D01*
X152933752Y-70889943D01*
X152703762Y-71445189D01*
X152663730Y-71505101D01*
X152369866Y-71944899D01*
X151944899Y-72369866D01*
X151693347Y-72537948D01*
X151445189Y-72703762D01*
X150889943Y-72933752D01*
X150300499Y-73051000D01*
X149699501Y-73051000D01*
X149110057Y-72933752D01*
X148554811Y-72703762D01*
X148306653Y-72537948D01*
X148055101Y-72369866D01*
X147630134Y-71944899D01*
X147336270Y-71505101D01*
X147296238Y-71445189D01*
X147066248Y-70889943D01*
X146949000Y-70300499D01*
X146949000Y-69699501D01*
X147066248Y-69110057D01*
X147296238Y-68554811D01*
X147630133Y-68055103D01*
X147630134Y-68055101D01*
X148055101Y-67630134D01*
X148554810Y-67296239D01*
X148554811Y-67296238D01*
X149110057Y-67066248D01*
X149699501Y-66949000D01*
X150300499Y-66949000D01*
X150889943Y-67066248D01*
G37*
G36*
X120889943Y-67066248D02*
G01*
X121445189Y-67296238D01*
X121445190Y-67296239D01*
X121944899Y-67630134D01*
X122369866Y-68055101D01*
X122369867Y-68055103D01*
X122703762Y-68554811D01*
X122933752Y-69110057D01*
X123051000Y-69699501D01*
X123051000Y-70300499D01*
X122933752Y-70889943D01*
X122703762Y-71445189D01*
X122663730Y-71505101D01*
X122369866Y-71944899D01*
X121944899Y-72369866D01*
X121693347Y-72537948D01*
X121445189Y-72703762D01*
X120889943Y-72933752D01*
X120300499Y-73051000D01*
X119699501Y-73051000D01*
X119110057Y-72933752D01*
X118554811Y-72703762D01*
X118306653Y-72537948D01*
X118055101Y-72369866D01*
X117630134Y-71944899D01*
X117336270Y-71505101D01*
X117296238Y-71445189D01*
X117066248Y-70889943D01*
X116949000Y-70300499D01*
X116949000Y-69699501D01*
X117066248Y-69110057D01*
X117296238Y-68554811D01*
X117630133Y-68055103D01*
X117630134Y-68055101D01*
X118055101Y-67630134D01*
X118554810Y-67296239D01*
X118554811Y-67296238D01*
X119110057Y-67066248D01*
X119699501Y-66949000D01*
X120300499Y-66949000D01*
X120889943Y-67066248D01*
G37*
G36*
X142477142Y-70338242D02*
G01*
X142625101Y-70399529D01*
X142758255Y-70488499D01*
X142871501Y-70601745D01*
X142960471Y-70734899D01*
X143021758Y-70882858D01*
X143053000Y-71039925D01*
X143053000Y-71200075D01*
X143021758Y-71357142D01*
X142960471Y-71505101D01*
X142871501Y-71638255D01*
X142758255Y-71751501D01*
X142625101Y-71840471D01*
X142477142Y-71901758D01*
X142320075Y-71933000D01*
X142159925Y-71933000D01*
X142002858Y-71901758D01*
X141854899Y-71840471D01*
X141721745Y-71751501D01*
X141608499Y-71638255D01*
X141519529Y-71505101D01*
X141458242Y-71357142D01*
X141427000Y-71200075D01*
X141427000Y-71039925D01*
X141458242Y-70882858D01*
X141519529Y-70734899D01*
X141608499Y-70601745D01*
X141721745Y-70488499D01*
X141854899Y-70399529D01*
X142002858Y-70338242D01*
X142159925Y-70307000D01*
X142320075Y-70307000D01*
X142477142Y-70338242D01*
G37*
G36*
X127237142Y-70338242D02*
G01*
X127385101Y-70399529D01*
X127518255Y-70488499D01*
X127631501Y-70601745D01*
X127720471Y-70734899D01*
X127781758Y-70882858D01*
X127813000Y-71039925D01*
X127813000Y-71200075D01*
X127781758Y-71357142D01*
X127720471Y-71505101D01*
X127631501Y-71638255D01*
X127518255Y-71751501D01*
X127385101Y-71840471D01*
X127237142Y-71901758D01*
X127080075Y-71933000D01*
X126919925Y-71933000D01*
X126762858Y-71901758D01*
X126614899Y-71840471D01*
X126481745Y-71751501D01*
X126368499Y-71638255D01*
X126279529Y-71505101D01*
X126218242Y-71357142D01*
X126187000Y-71200075D01*
X126187000Y-71039925D01*
X126218242Y-70882858D01*
X126279529Y-70734899D01*
X126368499Y-70601745D01*
X126481745Y-70488499D01*
X126614899Y-70399529D01*
X126762858Y-70338242D01*
X126919925Y-70307000D01*
X127080075Y-70307000D01*
X127237142Y-70338242D01*
G37*
G36*
X142775993Y-67774203D02*
G01*
X142840411Y-67793744D01*
X142899781Y-67825478D01*
X142951817Y-67868183D01*
X142994522Y-67920219D01*
X143026256Y-67979589D01*
X143045797Y-68044007D01*
X143053000Y-68117140D01*
X143053000Y-69042860D01*
X143045797Y-69115993D01*
X143026256Y-69180411D01*
X142994522Y-69239781D01*
X142951817Y-69291817D01*
X142899781Y-69334522D01*
X142840411Y-69366256D01*
X142775993Y-69385797D01*
X142702860Y-69393000D01*
X141777140Y-69393000D01*
X141704007Y-69385797D01*
X141639589Y-69366256D01*
X141580219Y-69334522D01*
X141528183Y-69291817D01*
X141485478Y-69239781D01*
X141453744Y-69180411D01*
X141434203Y-69115993D01*
X141427000Y-69042860D01*
X141427000Y-68117140D01*
X141434203Y-68044007D01*
X141453744Y-67979589D01*
X141485478Y-67920219D01*
X141528183Y-67868183D01*
X141580219Y-67825478D01*
X141639589Y-67793744D01*
X141704007Y-67774203D01*
X141777140Y-67767000D01*
X142702860Y-67767000D01*
X142775993Y-67774203D01*
G37*
G36*
X127237142Y-67798242D02*
G01*
X127385101Y-67859529D01*
X127518255Y-67948499D01*
X127631501Y-68061745D01*
X127720471Y-68194899D01*
X127781758Y-68342858D01*
X127813000Y-68499925D01*
X127813000Y-68660075D01*
X127781758Y-68817142D01*
X127720471Y-68965101D01*
X127631501Y-69098255D01*
X127518255Y-69211501D01*
X127385101Y-69300471D01*
X127237142Y-69361758D01*
X127080075Y-69393000D01*
X126919925Y-69393000D01*
X126762858Y-69361758D01*
X126614899Y-69300471D01*
X126481745Y-69211501D01*
X126368499Y-69098255D01*
X126279529Y-68965101D01*
X126218242Y-68817142D01*
X126187000Y-68660075D01*
X126187000Y-68499925D01*
X126218242Y-68342858D01*
X126279529Y-68194899D01*
X126368499Y-68061745D01*
X126481745Y-67948499D01*
X126614899Y-67859529D01*
X126762858Y-67798242D01*
X126919925Y-67767000D01*
X127080075Y-67767000D01*
X127237142Y-67798242D01*
G37*
G36*
X142477142Y-65258242D02*
G01*
X142625101Y-65319529D01*
X142758255Y-65408499D01*
X142871501Y-65521745D01*
X142960471Y-65654899D01*
X143021758Y-65802858D01*
X143053000Y-65959925D01*
X143053000Y-66120075D01*
X143021758Y-66277142D01*
X142960471Y-66425101D01*
X142871501Y-66558255D01*
X142758255Y-66671501D01*
X142625101Y-66760471D01*
X142477142Y-66821758D01*
X142320075Y-66853000D01*
X142159925Y-66853000D01*
X142002858Y-66821758D01*
X141854899Y-66760471D01*
X141721745Y-66671501D01*
X141608499Y-66558255D01*
X141519529Y-66425101D01*
X141458242Y-66277142D01*
X141427000Y-66120075D01*
X141427000Y-65959925D01*
X141458242Y-65802858D01*
X141519529Y-65654899D01*
X141608499Y-65521745D01*
X141721745Y-65408499D01*
X141854899Y-65319529D01*
X142002858Y-65258242D01*
X142159925Y-65227000D01*
X142320075Y-65227000D01*
X142477142Y-65258242D01*
G37*
G36*
X127237142Y-65258242D02*
G01*
X127385101Y-65319529D01*
X127518255Y-65408499D01*
X127631501Y-65521745D01*
X127720471Y-65654899D01*
X127781758Y-65802858D01*
X127813000Y-65959925D01*
X127813000Y-66120075D01*
X127781758Y-66277142D01*
X127720471Y-66425101D01*
X127631501Y-66558255D01*
X127518255Y-66671501D01*
X127385101Y-66760471D01*
X127237142Y-66821758D01*
X127080075Y-66853000D01*
X126919925Y-66853000D01*
X126762858Y-66821758D01*
X126614899Y-66760471D01*
X126481745Y-66671501D01*
X126368499Y-66558255D01*
X126279529Y-66425101D01*
X126218242Y-66277142D01*
X126187000Y-66120075D01*
X126187000Y-65959925D01*
X126218242Y-65802858D01*
X126279529Y-65654899D01*
X126368499Y-65521745D01*
X126481745Y-65408499D01*
X126614899Y-65319529D01*
X126762858Y-65258242D01*
X126919925Y-65227000D01*
X127080075Y-65227000D01*
X127237142Y-65258242D01*
G37*
G36*
X143903000Y-62623000D02*
G01*
X142101000Y-62623000D01*
X142101000Y-60821000D01*
X143903000Y-60821000D01*
X143903000Y-62623000D01*
G37*
G36*
X150761000Y-62623000D02*
G01*
X148959000Y-62623000D01*
X148959000Y-60821000D01*
X150761000Y-60821000D01*
X150761000Y-62623000D01*
G37*
G36*
X147433512Y-60825927D02*
G01*
X147582812Y-60855624D01*
X147746784Y-60923544D01*
X147894354Y-61022147D01*
X148019853Y-61147646D01*
X148118456Y-61295216D01*
X148186376Y-61459188D01*
X148221000Y-61633259D01*
X148221000Y-61810741D01*
X148186376Y-61984812D01*
X148118456Y-62148784D01*
X148019853Y-62296354D01*
X147894354Y-62421853D01*
X147746784Y-62520456D01*
X147582812Y-62588376D01*
X147433512Y-62618073D01*
X147408742Y-62623000D01*
X147231258Y-62623000D01*
X147206488Y-62618073D01*
X147057188Y-62588376D01*
X146893216Y-62520456D01*
X146745646Y-62421853D01*
X146620147Y-62296354D01*
X146521544Y-62148784D01*
X146453624Y-61984812D01*
X146419000Y-61810741D01*
X146419000Y-61633259D01*
X146453624Y-61459188D01*
X146521544Y-61295216D01*
X146620147Y-61147646D01*
X146745646Y-61022147D01*
X146893216Y-60923544D01*
X147057188Y-60855624D01*
X147206488Y-60825927D01*
X147231258Y-60821000D01*
X147408742Y-60821000D01*
X147433512Y-60825927D01*
G37*
G36*
X140575512Y-60825927D02*
G01*
X140724812Y-60855624D01*
X140888784Y-60923544D01*
X141036354Y-61022147D01*
X141161853Y-61147646D01*
X141260456Y-61295216D01*
X141328376Y-61459188D01*
X141363000Y-61633259D01*
X141363000Y-61810741D01*
X141328376Y-61984812D01*
X141260456Y-62148784D01*
X141161853Y-62296354D01*
X141036354Y-62421853D01*
X140888784Y-62520456D01*
X140724812Y-62588376D01*
X140575512Y-62618073D01*
X140550742Y-62623000D01*
X140373258Y-62623000D01*
X140348488Y-62618073D01*
X140199188Y-62588376D01*
X140035216Y-62520456D01*
X139887646Y-62421853D01*
X139762147Y-62296354D01*
X139663544Y-62148784D01*
X139595624Y-61984812D01*
X139561000Y-61810741D01*
X139561000Y-61633259D01*
X139595624Y-61459188D01*
X139663544Y-61295216D01*
X139762147Y-61147646D01*
X139887646Y-61022147D01*
X140035216Y-60923544D01*
X140199188Y-60855624D01*
X140348488Y-60825927D01*
X140373258Y-60821000D01*
X140550742Y-60821000D01*
X140575512Y-60825927D01*
G37*
M02*
