M48
; DRILL file {KiCad 5.1.5+dfsg1-2build2} date Di 16 Nov 2021 19:17:24 CET
; FORMAT={-:-/ absolute / inch / decimal}
; #@! TF.CreationDate,2021-11-16T19:17:24+01:00
; #@! TF.GenerationSoftware,Kicad,Pcbnew,5.1.5+dfsg1-2build2
; #@! TF.FileFunction,NonPlated,1,2,NPTH
FMAT,2
INCH
T1C0.1181
T2C0.1929
T3C0.2362
%
G90
G05
T1
X3.59Y-2.9197
X4.425Y-2.9197
X5.69Y-2.9197
X6.525Y-2.9197
T2
X2.6772Y-3.6614
X5.5118Y-4.6063
X4.5669Y-4.6063
X7.4016Y-3.3465
X5.1969Y-4.6063
X3.415Y-4.0811
X4.0Y-4.3961
X4.5906Y-4.0811
X7.4016Y-3.6614
X5.515Y-4.0811
X6.1Y-4.3961
X6.6906Y-4.0811
X2.6772Y-3.0315
X2.6772Y-3.9764
X7.4016Y-3.0315
X7.4016Y-3.9764
X4.8819Y-4.6063
X2.6772Y-3.3465
T3
X3.4094Y-3.2268
X4.5945Y-3.2268
X5.5094Y-3.2268
X6.6945Y-3.2268
T0
M30
