G04 #@! TF.GenerationSoftware,KiCad,Pcbnew,5.1.5+dfsg1-2build2*
G04 #@! TF.CreationDate,2021-11-16T19:17:29+01:00*
G04 #@! TF.ProjectId,joystick-board,6a6f7973-7469-4636-9b2d-626f6172642e,rev?*
G04 #@! TF.SameCoordinates,Original*
G04 #@! TF.FileFunction,Copper,L1,Top*
G04 #@! TF.FilePolarity,Positive*
%FSLAX46Y46*%
G04 Gerber Fmt 4.6, Leading zero omitted, Abs format (unit mm)*
G04 Created by KiCad (PCBNEW 5.1.5+dfsg1-2build2) date 2021-11-16 19:17:29*
%MOMM*%
%LPD*%
G04 APERTURE LIST*
%ADD10C,0.200000*%
%ADD11C,0.300000*%
%ADD12C,8.000000*%
%ADD13C,1.524000*%
%ADD14C,4.000000*%
%ADD15O,1.700000X1.700000*%
%ADD16R,1.700000X1.700000*%
%ADD17C,6.000000*%
%ADD18C,0.100000*%
%ADD19C,0.400000*%
%ADD20C,0.254000*%
G04 APERTURE END LIST*
D10*
X181073357Y-90941285D02*
X180501928Y-91341285D01*
X181073357Y-91627000D02*
X179873357Y-91627000D01*
X179873357Y-91169857D01*
X179930500Y-91055571D01*
X179987642Y-90998428D01*
X180101928Y-90941285D01*
X180273357Y-90941285D01*
X180387642Y-90998428D01*
X180444785Y-91055571D01*
X180501928Y-91169857D01*
X180501928Y-91627000D01*
X181016214Y-89969857D02*
X181073357Y-90084142D01*
X181073357Y-90312714D01*
X181016214Y-90427000D01*
X180901928Y-90484142D01*
X180444785Y-90484142D01*
X180330500Y-90427000D01*
X180273357Y-90312714D01*
X180273357Y-90084142D01*
X180330500Y-89969857D01*
X180444785Y-89912714D01*
X180559071Y-89912714D01*
X180673357Y-90484142D01*
X180273357Y-89512714D02*
X181073357Y-89227000D01*
X180273357Y-88941285D01*
X180959071Y-88484142D02*
X181016214Y-88427000D01*
X181073357Y-88484142D01*
X181016214Y-88541285D01*
X180959071Y-88484142D01*
X181073357Y-88484142D01*
X179987642Y-87055571D02*
X179930500Y-86998428D01*
X179873357Y-86884142D01*
X179873357Y-86598428D01*
X179930500Y-86484142D01*
X179987642Y-86427000D01*
X180101928Y-86369857D01*
X180216214Y-86369857D01*
X180387642Y-86427000D01*
X181073357Y-87112714D01*
X181073357Y-86369857D01*
X177288857Y-108912714D02*
X178260285Y-108912714D01*
X178374571Y-108969857D01*
X178431714Y-109027000D01*
X178488857Y-109141285D01*
X178488857Y-109312714D01*
X178431714Y-109427000D01*
X178031714Y-108912714D02*
X178088857Y-109027000D01*
X178088857Y-109255571D01*
X178031714Y-109369857D01*
X177974571Y-109427000D01*
X177860285Y-109484142D01*
X177517428Y-109484142D01*
X177403142Y-109427000D01*
X177346000Y-109369857D01*
X177288857Y-109255571D01*
X177288857Y-109027000D01*
X177346000Y-108912714D01*
X178088857Y-108341285D02*
X177288857Y-108341285D01*
X176888857Y-108341285D02*
X176946000Y-108398428D01*
X177003142Y-108341285D01*
X176946000Y-108284142D01*
X176888857Y-108341285D01*
X177003142Y-108341285D01*
X177288857Y-107941285D02*
X177288857Y-107484142D01*
X176888857Y-107769857D02*
X177917428Y-107769857D01*
X178031714Y-107712714D01*
X178088857Y-107598428D01*
X178088857Y-107484142D01*
X178088857Y-107084142D02*
X176888857Y-107084142D01*
X178088857Y-106569857D02*
X177460285Y-106569857D01*
X177346000Y-106627000D01*
X177288857Y-106741285D01*
X177288857Y-106912714D01*
X177346000Y-107027000D01*
X177403142Y-107084142D01*
X177288857Y-105484142D02*
X178088857Y-105484142D01*
X177288857Y-105998428D02*
X177917428Y-105998428D01*
X178031714Y-105941285D01*
X178088857Y-105827000D01*
X178088857Y-105655571D01*
X178031714Y-105541285D01*
X177974571Y-105484142D01*
X178088857Y-104912714D02*
X176888857Y-104912714D01*
X177346000Y-104912714D02*
X177288857Y-104798428D01*
X177288857Y-104569857D01*
X177346000Y-104455571D01*
X177403142Y-104398428D01*
X177517428Y-104341285D01*
X177860285Y-104341285D01*
X177974571Y-104398428D01*
X178031714Y-104455571D01*
X178088857Y-104569857D01*
X178088857Y-104798428D01*
X178031714Y-104912714D01*
X177974571Y-103827000D02*
X178031714Y-103769857D01*
X178088857Y-103827000D01*
X178031714Y-103884142D01*
X177974571Y-103827000D01*
X178088857Y-103827000D01*
X178031714Y-102741285D02*
X178088857Y-102855571D01*
X178088857Y-103084142D01*
X178031714Y-103198428D01*
X177974571Y-103255571D01*
X177860285Y-103312714D01*
X177517428Y-103312714D01*
X177403142Y-103255571D01*
X177346000Y-103198428D01*
X177288857Y-103084142D01*
X177288857Y-102855571D01*
X177346000Y-102741285D01*
X178088857Y-102055571D02*
X178031714Y-102169857D01*
X177974571Y-102227000D01*
X177860285Y-102284142D01*
X177517428Y-102284142D01*
X177403142Y-102227000D01*
X177346000Y-102169857D01*
X177288857Y-102055571D01*
X177288857Y-101884142D01*
X177346000Y-101769857D01*
X177403142Y-101712714D01*
X177517428Y-101655571D01*
X177860285Y-101655571D01*
X177974571Y-101712714D01*
X178031714Y-101769857D01*
X178088857Y-101884142D01*
X178088857Y-102055571D01*
X178088857Y-101141285D02*
X177288857Y-101141285D01*
X177403142Y-101141285D02*
X177346000Y-101084142D01*
X177288857Y-100969857D01*
X177288857Y-100798428D01*
X177346000Y-100684142D01*
X177460285Y-100627000D01*
X178088857Y-100627000D01*
X177460285Y-100627000D02*
X177346000Y-100569857D01*
X177288857Y-100455571D01*
X177288857Y-100284142D01*
X177346000Y-100169857D01*
X177460285Y-100112714D01*
X178088857Y-100112714D01*
X176831714Y-98684142D02*
X178374571Y-99712714D01*
X178088857Y-98284142D02*
X176888857Y-98284142D01*
X177346000Y-98284142D02*
X177288857Y-98169857D01*
X177288857Y-97941285D01*
X177346000Y-97827000D01*
X177403142Y-97769857D01*
X177517428Y-97712714D01*
X177860285Y-97712714D01*
X177974571Y-97769857D01*
X178031714Y-97827000D01*
X178088857Y-97941285D01*
X178088857Y-98169857D01*
X178031714Y-98284142D01*
X178088857Y-96684142D02*
X177460285Y-96684142D01*
X177346000Y-96741285D01*
X177288857Y-96855571D01*
X177288857Y-97084142D01*
X177346000Y-97198428D01*
X178031714Y-96684142D02*
X178088857Y-96798428D01*
X178088857Y-97084142D01*
X178031714Y-97198428D01*
X177917428Y-97255571D01*
X177803142Y-97255571D01*
X177688857Y-97198428D01*
X177631714Y-97084142D01*
X177631714Y-96798428D01*
X177574571Y-96684142D01*
X178088857Y-96112714D02*
X177288857Y-96112714D01*
X177517428Y-96112714D02*
X177403142Y-96055571D01*
X177346000Y-95998428D01*
X177288857Y-95884142D01*
X177288857Y-95769857D01*
X178088857Y-94855571D02*
X177460285Y-94855571D01*
X177346000Y-94912714D01*
X177288857Y-95027000D01*
X177288857Y-95255571D01*
X177346000Y-95369857D01*
X178031714Y-94855571D02*
X178088857Y-94969857D01*
X178088857Y-95255571D01*
X178031714Y-95369857D01*
X177917428Y-95427000D01*
X177803142Y-95427000D01*
X177688857Y-95369857D01*
X177631714Y-95255571D01*
X177631714Y-94969857D01*
X177574571Y-94855571D01*
X177288857Y-94455571D02*
X177288857Y-93998428D01*
X178088857Y-94284142D02*
X177060285Y-94284142D01*
X176946000Y-94227000D01*
X176888857Y-94112714D01*
X176888857Y-93998428D01*
X178088857Y-93084142D02*
X177460285Y-93084142D01*
X177346000Y-93141285D01*
X177288857Y-93255571D01*
X177288857Y-93484142D01*
X177346000Y-93598428D01*
X178031714Y-93084142D02*
X178088857Y-93198428D01*
X178088857Y-93484142D01*
X178031714Y-93598428D01*
X177917428Y-93655571D01*
X177803142Y-93655571D01*
X177688857Y-93598428D01*
X177631714Y-93484142D01*
X177631714Y-93198428D01*
X177574571Y-93084142D01*
X178031714Y-92055571D02*
X178088857Y-92169857D01*
X178088857Y-92398428D01*
X178031714Y-92512714D01*
X177917428Y-92569857D01*
X177460285Y-92569857D01*
X177346000Y-92512714D01*
X177288857Y-92398428D01*
X177288857Y-92169857D01*
X177346000Y-92055571D01*
X177460285Y-91998428D01*
X177574571Y-91998428D01*
X177688857Y-92569857D01*
X178088857Y-91312714D02*
X178031714Y-91427000D01*
X177917428Y-91484142D01*
X176888857Y-91484142D01*
X176831714Y-89998428D02*
X178374571Y-91027000D01*
X178088857Y-89598428D02*
X176888857Y-89598428D01*
X177346000Y-89598428D02*
X177288857Y-89484142D01*
X177288857Y-89255571D01*
X177346000Y-89141285D01*
X177403142Y-89084142D01*
X177517428Y-89027000D01*
X177860285Y-89027000D01*
X177974571Y-89084142D01*
X178031714Y-89141285D01*
X178088857Y-89255571D01*
X178088857Y-89484142D01*
X178031714Y-89598428D01*
X178088857Y-88512714D02*
X177288857Y-88512714D01*
X177517428Y-88512714D02*
X177403142Y-88455571D01*
X177346000Y-88398428D01*
X177288857Y-88284142D01*
X177288857Y-88169857D01*
X178088857Y-87769857D02*
X177288857Y-87769857D01*
X176888857Y-87769857D02*
X176946000Y-87827000D01*
X177003142Y-87769857D01*
X176946000Y-87712714D01*
X176888857Y-87769857D01*
X177003142Y-87769857D01*
X178031714Y-86684142D02*
X178088857Y-86798428D01*
X178088857Y-87027000D01*
X178031714Y-87141285D01*
X177974571Y-87198428D01*
X177860285Y-87255571D01*
X177517428Y-87255571D01*
X177403142Y-87198428D01*
X177346000Y-87141285D01*
X177288857Y-87027000D01*
X177288857Y-86798428D01*
X177346000Y-86684142D01*
X178088857Y-86169857D02*
X176888857Y-86169857D01*
X177631714Y-86055571D02*
X178088857Y-85712714D01*
X177288857Y-85712714D02*
X177746000Y-86169857D01*
X177631714Y-85198428D02*
X177631714Y-84284142D01*
X178088857Y-83712714D02*
X177288857Y-83712714D01*
X177517428Y-83712714D02*
X177403142Y-83655571D01*
X177346000Y-83598428D01*
X177288857Y-83484142D01*
X177288857Y-83369857D01*
X178088857Y-82798428D02*
X178031714Y-82912714D01*
X177974571Y-82969857D01*
X177860285Y-83027000D01*
X177517428Y-83027000D01*
X177403142Y-82969857D01*
X177346000Y-82912714D01*
X177288857Y-82798428D01*
X177288857Y-82627000D01*
X177346000Y-82512714D01*
X177403142Y-82455571D01*
X177517428Y-82398428D01*
X177860285Y-82398428D01*
X177974571Y-82455571D01*
X178031714Y-82512714D01*
X178088857Y-82627000D01*
X178088857Y-82798428D01*
X177288857Y-81998428D02*
X178088857Y-81712714D01*
X177288857Y-81427000D01*
X178031714Y-80512714D02*
X178088857Y-80627000D01*
X178088857Y-80855571D01*
X178031714Y-80969857D01*
X177917428Y-81027000D01*
X177460285Y-81027000D01*
X177346000Y-80969857D01*
X177288857Y-80855571D01*
X177288857Y-80627000D01*
X177346000Y-80512714D01*
X177460285Y-80455571D01*
X177574571Y-80455571D01*
X177688857Y-81027000D01*
X178088857Y-79941285D02*
X177288857Y-79941285D01*
X177517428Y-79941285D02*
X177403142Y-79884142D01*
X177346000Y-79827000D01*
X177288857Y-79712714D01*
X177288857Y-79598428D01*
X177631714Y-79198428D02*
X177631714Y-78284142D01*
X178088857Y-77712714D02*
X176888857Y-77712714D01*
X177346000Y-77712714D02*
X177288857Y-77598428D01*
X177288857Y-77369857D01*
X177346000Y-77255571D01*
X177403142Y-77198428D01*
X177517428Y-77141285D01*
X177860285Y-77141285D01*
X177974571Y-77198428D01*
X178031714Y-77255571D01*
X178088857Y-77369857D01*
X178088857Y-77598428D01*
X178031714Y-77712714D01*
X178088857Y-76627000D02*
X177288857Y-76627000D01*
X177517428Y-76627000D02*
X177403142Y-76569857D01*
X177346000Y-76512714D01*
X177288857Y-76398428D01*
X177288857Y-76284142D01*
X178088857Y-75369857D02*
X177460285Y-75369857D01*
X177346000Y-75427000D01*
X177288857Y-75541285D01*
X177288857Y-75769857D01*
X177346000Y-75884142D01*
X178031714Y-75369857D02*
X178088857Y-75484142D01*
X178088857Y-75769857D01*
X178031714Y-75884142D01*
X177917428Y-75941285D01*
X177803142Y-75941285D01*
X177688857Y-75884142D01*
X177631714Y-75769857D01*
X177631714Y-75484142D01*
X177574571Y-75369857D01*
X178088857Y-74798428D02*
X177288857Y-74798428D01*
X176888857Y-74798428D02*
X176946000Y-74855571D01*
X177003142Y-74798428D01*
X176946000Y-74741285D01*
X176888857Y-74798428D01*
X177003142Y-74798428D01*
X177288857Y-74227000D02*
X178088857Y-74227000D01*
X177403142Y-74227000D02*
X177346000Y-74169857D01*
X177288857Y-74055571D01*
X177288857Y-73884142D01*
X177346000Y-73769857D01*
X177460285Y-73712714D01*
X178088857Y-73712714D01*
X178088857Y-73141285D02*
X176888857Y-73141285D01*
X177346000Y-73141285D02*
X177288857Y-73027000D01*
X177288857Y-72798428D01*
X177346000Y-72684142D01*
X177403142Y-72627000D01*
X177517428Y-72569857D01*
X177860285Y-72569857D01*
X177974571Y-72627000D01*
X178031714Y-72684142D01*
X178088857Y-72798428D01*
X178088857Y-73027000D01*
X178031714Y-73141285D01*
X178088857Y-71884142D02*
X178031714Y-71998428D01*
X177974571Y-72055571D01*
X177860285Y-72112714D01*
X177517428Y-72112714D01*
X177403142Y-72055571D01*
X177346000Y-71998428D01*
X177288857Y-71884142D01*
X177288857Y-71712714D01*
X177346000Y-71598428D01*
X177403142Y-71541285D01*
X177517428Y-71484142D01*
X177860285Y-71484142D01*
X177974571Y-71541285D01*
X178031714Y-71598428D01*
X178088857Y-71712714D01*
X178088857Y-71884142D01*
X178088857Y-70455571D02*
X177460285Y-70455571D01*
X177346000Y-70512714D01*
X177288857Y-70627000D01*
X177288857Y-70855571D01*
X177346000Y-70969857D01*
X178031714Y-70455571D02*
X178088857Y-70569857D01*
X178088857Y-70855571D01*
X178031714Y-70969857D01*
X177917428Y-71027000D01*
X177803142Y-71027000D01*
X177688857Y-70969857D01*
X177631714Y-70855571D01*
X177631714Y-70569857D01*
X177574571Y-70455571D01*
X178088857Y-69884142D02*
X177288857Y-69884142D01*
X177517428Y-69884142D02*
X177403142Y-69827000D01*
X177346000Y-69769857D01*
X177288857Y-69655571D01*
X177288857Y-69541285D01*
X178088857Y-68627000D02*
X176888857Y-68627000D01*
X178031714Y-68627000D02*
X178088857Y-68741285D01*
X178088857Y-68969857D01*
X178031714Y-69084142D01*
X177974571Y-69141285D01*
X177860285Y-69198428D01*
X177517428Y-69198428D01*
X177403142Y-69141285D01*
X177346000Y-69084142D01*
X177288857Y-68969857D01*
X177288857Y-68741285D01*
X177346000Y-68627000D01*
D11*
X153162728Y-120591948D02*
X152525146Y-119997227D01*
X152324316Y-120770158D02*
X152012449Y-119302937D01*
X152571390Y-119184130D01*
X152725976Y-119224296D01*
X152810695Y-119279313D01*
X152910264Y-119404198D01*
X152954817Y-119613801D01*
X152914651Y-119768387D01*
X152859634Y-119853105D01*
X152734749Y-119952675D01*
X152175808Y-120071481D01*
X154420347Y-120324633D02*
X154256988Y-119556089D01*
X154157418Y-119431204D01*
X154002832Y-119391038D01*
X153723361Y-119450442D01*
X153598477Y-119550011D01*
X154405496Y-120254766D02*
X154280611Y-120354335D01*
X153931273Y-120428589D01*
X153776687Y-120388423D01*
X153677117Y-120263539D01*
X153647416Y-120123803D01*
X153687582Y-119969217D01*
X153812466Y-119869648D01*
X154161805Y-119795393D01*
X154286689Y-119695824D01*
X154701509Y-119242530D02*
X155260450Y-119123723D01*
X155119024Y-120176125D02*
X154851709Y-118918507D01*
X154891875Y-118763920D01*
X155016759Y-118664351D01*
X155156495Y-118634649D01*
X156586245Y-119864257D02*
X156422886Y-119095713D01*
X156323317Y-118970828D01*
X156168730Y-118930662D01*
X155889260Y-118990066D01*
X155764375Y-119089635D01*
X156571394Y-119794390D02*
X156446510Y-119893959D01*
X156097171Y-119968213D01*
X155942585Y-119928047D01*
X155843016Y-119803163D01*
X155813314Y-119663427D01*
X155853480Y-119508841D01*
X155978365Y-119409272D01*
X156327703Y-119335018D01*
X156452588Y-119235448D01*
X157829013Y-119527075D02*
X157704128Y-119626644D01*
X157424657Y-119686047D01*
X157270071Y-119645881D01*
X157170502Y-119520997D01*
X157051695Y-118962055D01*
X157091861Y-118807469D01*
X157216746Y-118707900D01*
X157496216Y-118648496D01*
X157650803Y-118688662D01*
X157750372Y-118813547D01*
X157780074Y-118953282D01*
X157111098Y-119241526D01*
X158752143Y-119403882D02*
X158597557Y-119363715D01*
X158497988Y-119238831D01*
X158230673Y-117981213D01*
X160754682Y-118174961D02*
X160979136Y-118200276D01*
X161063855Y-118255293D01*
X161163424Y-118380178D01*
X161207977Y-118589781D01*
X161167811Y-118744367D01*
X161112794Y-118829085D01*
X160987909Y-118928655D01*
X160428968Y-119047461D01*
X160117100Y-117580240D01*
X160606174Y-117476284D01*
X160760760Y-117516450D01*
X160845479Y-117571467D01*
X160945048Y-117696352D01*
X160974750Y-117836087D01*
X160934584Y-117990673D01*
X160879567Y-118075392D01*
X160754682Y-118174961D01*
X160265609Y-118278917D01*
X162524998Y-118601936D02*
X162361639Y-117833392D01*
X162262070Y-117708507D01*
X162107484Y-117668341D01*
X161828013Y-117727745D01*
X161703128Y-117827314D01*
X162510148Y-118532069D02*
X162385263Y-118631638D01*
X162035925Y-118705892D01*
X161881338Y-118665726D01*
X161781769Y-118540842D01*
X161752067Y-118401106D01*
X161792233Y-118246520D01*
X161917118Y-118146951D01*
X162266456Y-118072697D01*
X162391341Y-117973127D01*
X163837634Y-118249903D02*
X163712749Y-118349472D01*
X163433278Y-118408876D01*
X163278692Y-118368710D01*
X163193974Y-118313693D01*
X163094404Y-118188808D01*
X163005299Y-117769602D01*
X163045465Y-117615016D01*
X163100482Y-117530297D01*
X163225367Y-117430728D01*
X163504837Y-117371325D01*
X163659424Y-117411491D01*
X164481294Y-118186113D02*
X164169426Y-116718892D01*
X165110103Y-118052456D02*
X164946744Y-117283911D01*
X164847174Y-117159026D01*
X164692588Y-117118860D01*
X164482985Y-117163413D01*
X164358100Y-117262982D01*
X164303084Y-117347701D01*
X165808780Y-117903947D02*
X165600868Y-116925800D01*
X165630570Y-117065535D02*
X165685586Y-116980816D01*
X165810471Y-116881247D01*
X166020074Y-116836695D01*
X166174660Y-116876861D01*
X166274230Y-117001745D01*
X166437589Y-117770290D01*
X166274230Y-117001745D02*
X166314396Y-116847159D01*
X166439280Y-116747590D01*
X166648883Y-116703037D01*
X166803469Y-116743203D01*
X166903039Y-116868088D01*
X167066398Y-117636632D01*
X168393884Y-117354466D02*
X168230525Y-116585922D01*
X168130955Y-116461037D01*
X167976369Y-116420871D01*
X167696898Y-116480275D01*
X167572014Y-116579844D01*
X168379033Y-117284599D02*
X168254149Y-117384168D01*
X167904810Y-117458422D01*
X167750224Y-117418256D01*
X167650655Y-117293372D01*
X167620953Y-117153636D01*
X167661119Y-116999050D01*
X167786003Y-116899481D01*
X168135342Y-116825226D01*
X168260226Y-116725657D01*
X168884649Y-116227810D02*
X169092561Y-117205958D01*
X168914351Y-116367546D02*
X168969368Y-116282827D01*
X169094252Y-116183258D01*
X169303855Y-116138705D01*
X169458441Y-116178871D01*
X169558011Y-116303756D01*
X169721370Y-117072300D01*
X170212135Y-115945644D02*
X170420047Y-116923792D01*
X170241837Y-116085380D02*
X170296854Y-116000661D01*
X170421738Y-115901092D01*
X170631341Y-115856539D01*
X170785927Y-115896705D01*
X170885497Y-116021590D01*
X171048856Y-116790135D01*
X171802550Y-116556908D02*
X171817401Y-116626775D01*
X171777235Y-116781362D01*
X171722218Y-116866080D01*
X173564093Y-116255504D02*
X173252225Y-114788283D01*
X174402505Y-116077294D01*
X174090637Y-114610073D01*
X175310785Y-115884234D02*
X175156199Y-115844068D01*
X175071480Y-115789051D01*
X174971911Y-115664166D01*
X174882806Y-115244960D01*
X174922972Y-115090374D01*
X174977989Y-115005655D01*
X175102873Y-114906086D01*
X175312476Y-114861533D01*
X175467062Y-114901700D01*
X175551781Y-114956716D01*
X175651350Y-115081601D01*
X175740455Y-115500807D01*
X175700289Y-115655393D01*
X175645272Y-115740112D01*
X175520388Y-115839681D01*
X175310785Y-115884234D01*
X176081021Y-114698174D02*
X176638271Y-115602068D01*
X176779698Y-114549666D01*
X177516849Y-115269271D02*
X177601568Y-115324288D01*
X177546551Y-115409007D01*
X177461832Y-115353990D01*
X177516849Y-115269271D01*
X177546551Y-115409007D01*
X179011077Y-113710250D02*
X179066094Y-113625531D01*
X179190978Y-113525962D01*
X179540317Y-113451708D01*
X179694903Y-113491874D01*
X179779622Y-113546891D01*
X179879191Y-113671775D01*
X179908893Y-113811511D01*
X179883577Y-114035965D01*
X179223375Y-115052587D01*
X180131655Y-114859526D01*
X180728068Y-113199244D02*
X180867803Y-113169542D01*
X181022389Y-113209708D01*
X181107108Y-113264725D01*
X181206677Y-113389609D01*
X181335948Y-113654229D01*
X181410202Y-114003568D01*
X181399738Y-114297889D01*
X181359572Y-114452476D01*
X181304555Y-114537194D01*
X181179670Y-114636763D01*
X181039935Y-114666465D01*
X180885349Y-114626299D01*
X180800630Y-114571282D01*
X180701061Y-114446398D01*
X180571790Y-114181778D01*
X180497536Y-113832439D01*
X180508000Y-113538118D01*
X180548166Y-113383532D01*
X180603183Y-113298813D01*
X180728068Y-113199244D01*
X181805785Y-113116217D02*
X181860801Y-113031498D01*
X181985686Y-112931929D01*
X182335024Y-112857675D01*
X182489611Y-112897841D01*
X182574329Y-112952857D01*
X182673898Y-113077742D01*
X182703600Y-113217477D01*
X182678285Y-113441931D01*
X182018083Y-114458553D01*
X182926363Y-114265493D01*
X184323716Y-113968476D02*
X183485304Y-114146686D01*
X183904510Y-114057581D02*
X183592643Y-112590359D01*
X183497460Y-112829664D01*
X183387426Y-112999101D01*
X183262542Y-113098671D01*
X72792480Y-113274186D02*
X72987233Y-113388606D01*
X73042249Y-113473324D01*
X73082415Y-113627910D01*
X73037863Y-113837513D01*
X72938294Y-113962398D01*
X72853575Y-114017415D01*
X72698989Y-114057581D01*
X72140047Y-113938774D01*
X72451915Y-112471553D01*
X72940989Y-112575509D01*
X73065873Y-112675078D01*
X73120890Y-112759797D01*
X73161056Y-112914383D01*
X73131354Y-113054118D01*
X73031785Y-113179003D01*
X72947067Y-113234019D01*
X72792480Y-113274186D01*
X72303406Y-113170230D01*
X73607269Y-114250642D02*
X73815180Y-113272494D01*
X73755777Y-113551965D02*
X73855346Y-113427080D01*
X73940065Y-113372063D01*
X74094651Y-113331897D01*
X74234387Y-113361599D01*
X74515549Y-114443703D02*
X74723460Y-113465555D01*
X74827416Y-112976481D02*
X74742698Y-113031498D01*
X74797714Y-113116217D01*
X74882433Y-113061200D01*
X74827416Y-112976481D01*
X74797714Y-113116217D01*
X75857885Y-114656001D02*
X75703299Y-114696167D01*
X75423829Y-114636763D01*
X75298944Y-114537194D01*
X75243927Y-114452476D01*
X75203761Y-114297889D01*
X75292866Y-113878683D01*
X75392436Y-113753799D01*
X75477154Y-113698782D01*
X75631740Y-113658616D01*
X75911211Y-113718019D01*
X76036096Y-113817589D01*
X76471844Y-114859526D02*
X76783711Y-113392305D01*
X76730386Y-114330286D02*
X77030785Y-114978333D01*
X77238697Y-114000185D02*
X76560949Y-114440320D01*
X78777477Y-115349604D02*
X79089345Y-113882382D01*
X79355656Y-115034353D01*
X80067493Y-114090294D01*
X79755625Y-115557515D01*
X80663905Y-115750576D02*
X80539020Y-115651007D01*
X80484004Y-115566288D01*
X80443838Y-115411702D01*
X80532943Y-114992496D01*
X80632512Y-114867611D01*
X80717230Y-114812594D01*
X80871817Y-114772428D01*
X81081420Y-114816981D01*
X81206304Y-114916550D01*
X81261321Y-115001269D01*
X81301487Y-115155855D01*
X81212382Y-115575061D01*
X81112813Y-115699946D01*
X81028094Y-115754963D01*
X80873508Y-115795129D01*
X80663905Y-115750576D01*
X82618509Y-115143699D02*
X82410597Y-116121847D01*
X81989700Y-115010042D02*
X81826340Y-115778586D01*
X81866506Y-115933173D01*
X81991391Y-116032742D01*
X82200994Y-116077294D01*
X82355580Y-116037128D01*
X82440299Y-115982112D01*
X83317186Y-115292208D02*
X83109274Y-116270355D01*
X83287484Y-115431943D02*
X83372203Y-115376926D01*
X83526789Y-115336760D01*
X83736392Y-115381313D01*
X83861276Y-115480882D01*
X83901442Y-115635468D01*
X83738083Y-116404013D01*
X84435069Y-115529821D02*
X84994010Y-115648628D01*
X84748628Y-115085300D02*
X84481313Y-116342918D01*
X84521479Y-116497504D01*
X84646363Y-116597074D01*
X84786098Y-116626775D01*
X85848965Y-116779670D02*
X85694378Y-116819836D01*
X85414908Y-116760433D01*
X85290023Y-116660864D01*
X85249857Y-116506277D01*
X85368664Y-115947336D01*
X85468233Y-115822451D01*
X85622819Y-115782285D01*
X85902290Y-115841689D01*
X86027175Y-115941258D01*
X86067341Y-116095844D01*
X86037639Y-116235580D01*
X85309260Y-116226807D01*
X87161600Y-117131704D02*
X87473467Y-115664482D01*
X87176451Y-117061836D02*
X87021864Y-117102002D01*
X86742394Y-117042599D01*
X86617509Y-116943029D01*
X86562492Y-116858311D01*
X86522326Y-116703725D01*
X86611431Y-116284519D01*
X86711001Y-116159634D01*
X86795719Y-116104617D01*
X86950305Y-116064451D01*
X87229776Y-116123854D01*
X87354661Y-116223424D01*
X89709233Y-116139709D02*
X89486471Y-117187724D01*
X89372051Y-117382477D01*
X89202613Y-117492510D01*
X88978160Y-117517825D01*
X88838424Y-117488124D01*
X90305646Y-117799991D02*
X90180761Y-117700422D01*
X90125744Y-117615703D01*
X90085578Y-117461117D01*
X90174683Y-117041911D01*
X90274253Y-116917027D01*
X90358971Y-116862010D01*
X90513557Y-116821844D01*
X90723160Y-116866396D01*
X90848045Y-116965966D01*
X90903062Y-117050684D01*
X90943228Y-117205270D01*
X90854123Y-117624476D01*
X90754553Y-117749361D01*
X90669835Y-117804378D01*
X90515249Y-117844544D01*
X90305646Y-117799991D01*
X91491705Y-117029755D02*
X91633132Y-118082157D01*
X92190382Y-117178264D02*
X91633132Y-118082157D01*
X91419142Y-118401794D01*
X91334424Y-118456811D01*
X91179837Y-118496977D01*
X92486395Y-118190500D02*
X92611279Y-118290069D01*
X92890750Y-118349472D01*
X93045336Y-118309306D01*
X93144906Y-118184422D01*
X93159756Y-118114554D01*
X93119590Y-117959968D01*
X92994706Y-117860398D01*
X92785103Y-117815846D01*
X92660218Y-117716277D01*
X92620052Y-117561690D01*
X92634903Y-117491823D01*
X92734472Y-117366938D01*
X92889059Y-117326772D01*
X93098662Y-117371325D01*
X93223546Y-117470894D01*
X93727471Y-117504982D02*
X94286412Y-117623789D01*
X94041030Y-117060461D02*
X93773715Y-118318079D01*
X93813881Y-118472665D01*
X93938765Y-118572235D01*
X94078501Y-118601936D01*
X94567574Y-118705892D02*
X94775486Y-117727745D01*
X94879442Y-117238671D02*
X94794723Y-117293688D01*
X94849740Y-117378406D01*
X94934459Y-117323389D01*
X94879442Y-117238671D01*
X94849740Y-117378406D01*
X95909911Y-118918190D02*
X95755325Y-118958356D01*
X95475854Y-118898953D01*
X95350970Y-118799384D01*
X95295953Y-118714665D01*
X95255787Y-118560079D01*
X95344892Y-118140873D01*
X95444461Y-118015988D01*
X95529180Y-117960972D01*
X95683766Y-117920806D01*
X95963237Y-117980209D01*
X96088121Y-118079778D01*
X96523870Y-119121716D02*
X96835737Y-117654494D01*
X96782412Y-118592476D02*
X97082811Y-119240522D01*
X97290723Y-118262375D02*
X96612975Y-118702510D01*
X99481936Y-118947204D02*
X99676688Y-119061625D01*
X99731705Y-119146343D01*
X99771871Y-119300929D01*
X99727319Y-119510532D01*
X99627749Y-119635417D01*
X99543031Y-119690434D01*
X99388445Y-119730600D01*
X98829503Y-119611793D01*
X99141371Y-118144572D01*
X99630445Y-118248528D01*
X99755329Y-118348097D01*
X99810346Y-118432816D01*
X99850512Y-118587402D01*
X99820810Y-118727137D01*
X99721241Y-118852022D01*
X99636522Y-118907038D01*
X99481936Y-118947204D01*
X98992862Y-118843249D01*
X100506328Y-119968213D02*
X100381443Y-119868644D01*
X100326426Y-119783925D01*
X100286260Y-119629339D01*
X100375365Y-119210133D01*
X100474935Y-119085248D01*
X100559653Y-119030232D01*
X100714239Y-118990066D01*
X100923842Y-119034618D01*
X101048727Y-119134187D01*
X101103744Y-119218906D01*
X101143910Y-119373492D01*
X101054805Y-119792698D01*
X100955236Y-119917583D01*
X100870517Y-119972600D01*
X100715931Y-120012766D01*
X100506328Y-119968213D01*
X102253020Y-120339484D02*
X102416379Y-119570940D01*
X102376213Y-119416353D01*
X102251329Y-119316784D01*
X101971858Y-119257381D01*
X101817272Y-119297547D01*
X102267871Y-120269616D02*
X102113285Y-120309782D01*
X101763946Y-120235528D01*
X101639062Y-120135959D01*
X101598896Y-119981373D01*
X101628597Y-119841637D01*
X101728167Y-119716753D01*
X101882753Y-119676587D01*
X102232091Y-119750841D01*
X102386677Y-119710675D01*
X102951697Y-120487992D02*
X103159608Y-119509845D01*
X103100205Y-119789316D02*
X103199774Y-119664431D01*
X103284493Y-119609414D01*
X103439079Y-119569248D01*
X103578815Y-119598950D01*
X104488786Y-120814711D02*
X104800653Y-119347489D01*
X104503637Y-120744843D02*
X104349050Y-120785009D01*
X104069580Y-120725606D01*
X103944695Y-120626036D01*
X103889678Y-120541318D01*
X103849512Y-120386732D01*
X103938617Y-119967526D01*
X104038187Y-119842641D01*
X104122905Y-119787624D01*
X104277491Y-119747458D01*
X104556962Y-119806862D01*
X104681847Y-119906431D01*
D12*
X140081000Y-103660000D03*
X169940000Y-103660000D03*
X154940000Y-111660000D03*
D13*
X160020000Y-73660000D03*
X154940000Y-73660000D03*
X157480000Y-73660000D03*
X152400000Y-73660000D03*
X149860000Y-73660000D03*
D14*
X165735000Y-74160000D03*
X144526000Y-74160000D03*
D12*
X170040000Y-81960000D03*
X139940000Y-81960000D03*
X86741000Y-103660000D03*
X116600000Y-103660000D03*
X101600000Y-111660000D03*
D13*
X106680000Y-73660000D03*
X101600000Y-73660000D03*
X104140000Y-73660000D03*
X99060000Y-73660000D03*
X96520000Y-73660000D03*
D14*
X112395000Y-74160000D03*
X91186000Y-74160000D03*
D12*
X116700000Y-81960000D03*
X86600000Y-81960000D03*
D15*
X157540000Y-66000000D03*
D16*
X155000000Y-66000000D03*
D17*
X140000000Y-117000000D03*
X132000000Y-117000000D03*
X124000000Y-117000000D03*
X116000000Y-117000000D03*
X188000000Y-101000000D03*
X188000000Y-93000000D03*
X188000000Y-85000000D03*
X188000000Y-77000000D03*
X68000000Y-101000000D03*
X68000000Y-93000000D03*
X68000000Y-85000000D03*
X68000000Y-77000000D03*
D15*
X131820000Y-66000000D03*
X129280000Y-66000000D03*
X126740000Y-66000000D03*
G04 #@! TA.AperFunction,ComponentPad*
D18*
G36*
X123359200Y-65875279D02*
G01*
X123375473Y-65793467D01*
X123399688Y-65713644D01*
X123431609Y-65636578D01*
X123470931Y-65563013D01*
X123517274Y-65493656D01*
X123570192Y-65429175D01*
X123629175Y-65370192D01*
X123693656Y-65317274D01*
X123763013Y-65270931D01*
X123836578Y-65231609D01*
X123913644Y-65199688D01*
X123993467Y-65175473D01*
X124075279Y-65159200D01*
X124158292Y-65151024D01*
X124241708Y-65151024D01*
X124324721Y-65159200D01*
X124406533Y-65175473D01*
X124486356Y-65199688D01*
X124563422Y-65231609D01*
X124636987Y-65270931D01*
X124706344Y-65317274D01*
X124770825Y-65370192D01*
X124829808Y-65429175D01*
X124882726Y-65493656D01*
X124929069Y-65563013D01*
X124968391Y-65636578D01*
X125000312Y-65713644D01*
X125024527Y-65793467D01*
X125040800Y-65875279D01*
X125048976Y-65958292D01*
X125048976Y-66041708D01*
X125040800Y-66124721D01*
X125024527Y-66206533D01*
X125000312Y-66286356D01*
X124968391Y-66363422D01*
X124929069Y-66436987D01*
X124882726Y-66506344D01*
X124829808Y-66570825D01*
X124770825Y-66629808D01*
X124706344Y-66682726D01*
X124636987Y-66729069D01*
X124563422Y-66768391D01*
X124486356Y-66800312D01*
X124406533Y-66824527D01*
X124324721Y-66840800D01*
X124241708Y-66848976D01*
X124158292Y-66848976D01*
X124075279Y-66840800D01*
X123993467Y-66824527D01*
X123913644Y-66800312D01*
X123836578Y-66768391D01*
X123763013Y-66729069D01*
X123693656Y-66682726D01*
X123629175Y-66629808D01*
X123570192Y-66570825D01*
X123517274Y-66506344D01*
X123470931Y-66436987D01*
X123431609Y-66363422D01*
X123399688Y-66286356D01*
X123375473Y-66206533D01*
X123359200Y-66124721D01*
X123351024Y-66041708D01*
X123351024Y-65958292D01*
X123359200Y-65875279D01*
G37*
G04 #@! TD.AperFunction*
D16*
X106680000Y-66040000D03*
D15*
X104140000Y-66040000D03*
D19*
X120200000Y-62000000D02*
X124200000Y-66000000D01*
X100076000Y-61976000D02*
X120200000Y-62000000D01*
X96520000Y-65532000D02*
X100076000Y-61976000D01*
X96520000Y-73660000D02*
X96520000Y-65532000D01*
X99060000Y-65532000D02*
X99060000Y-73660000D01*
X101600000Y-63000000D02*
X99060000Y-65532000D01*
X118000000Y-63000000D02*
X101600000Y-63000000D01*
X123000000Y-68000000D02*
X118000000Y-63000000D01*
X124740000Y-68000000D02*
X123000000Y-68000000D01*
X126740000Y-66000000D02*
X124740000Y-68000000D01*
X104140000Y-66040000D02*
X104140000Y-73660000D01*
X104140000Y-73660000D02*
X107442000Y-76962000D01*
X154178000Y-76962000D02*
X157480000Y-73660000D01*
X107442000Y-76962000D02*
X154178000Y-76962000D01*
X101600000Y-73660000D02*
X101600000Y-78994000D01*
X101600000Y-78994000D02*
X112014000Y-89408000D01*
X112014000Y-89408000D02*
X149860000Y-89408000D01*
X149860000Y-89408000D02*
X162560000Y-76708000D01*
X162560000Y-76708000D02*
X162560000Y-65786000D01*
X162560000Y-65786000D02*
X160020000Y-63246000D01*
X155000000Y-64750000D02*
X155000000Y-66000000D01*
X156504000Y-63246000D02*
X155000000Y-64750000D01*
X160020000Y-63246000D02*
X156504000Y-63246000D01*
X129280000Y-66000000D02*
X131280000Y-68000000D01*
X144200000Y-68000000D02*
X149860000Y-73660000D01*
X131280000Y-68000000D02*
X144200000Y-68000000D01*
X144740000Y-66000000D02*
X152400000Y-73660000D01*
X131820000Y-66000000D02*
X144740000Y-66000000D01*
X157540000Y-66000000D02*
X158000000Y-66000000D01*
X154940000Y-68600000D02*
X157540000Y-66000000D01*
X154940000Y-73660000D02*
X154940000Y-68600000D01*
D20*
G36*
X122380563Y-68561432D02*
G01*
X122406709Y-68593291D01*
X122438568Y-68619437D01*
X122438570Y-68619439D01*
X122533854Y-68697636D01*
X122678913Y-68775172D01*
X122836311Y-68822918D01*
X123000000Y-68839040D01*
X123041018Y-68835000D01*
X124698982Y-68835000D01*
X124740000Y-68839040D01*
X124781018Y-68835000D01*
X124781019Y-68835000D01*
X124903689Y-68822918D01*
X125061087Y-68775172D01*
X125206146Y-68697636D01*
X125333291Y-68593291D01*
X125359446Y-68561421D01*
X126462060Y-67458807D01*
X126593740Y-67485000D01*
X126886260Y-67485000D01*
X127173158Y-67427932D01*
X127443411Y-67315990D01*
X127686632Y-67153475D01*
X127893475Y-66946632D01*
X128010000Y-66772240D01*
X128126525Y-66946632D01*
X128333368Y-67153475D01*
X128576589Y-67315990D01*
X128846842Y-67427932D01*
X129133740Y-67485000D01*
X129426260Y-67485000D01*
X129557940Y-67458807D01*
X130660559Y-68561427D01*
X130686709Y-68593291D01*
X130789720Y-68677830D01*
X130813854Y-68697636D01*
X130958913Y-68775172D01*
X131116311Y-68822918D01*
X131279999Y-68839040D01*
X131321018Y-68835000D01*
X143854133Y-68835000D01*
X148476030Y-73456899D01*
X148463000Y-73522408D01*
X148463000Y-73797592D01*
X148516686Y-74067490D01*
X148621995Y-74321727D01*
X148774880Y-74550535D01*
X148969465Y-74745120D01*
X149198273Y-74898005D01*
X149452510Y-75003314D01*
X149722408Y-75057000D01*
X149997592Y-75057000D01*
X150267490Y-75003314D01*
X150521727Y-74898005D01*
X150750535Y-74745120D01*
X150945120Y-74550535D01*
X151098005Y-74321727D01*
X151130000Y-74244485D01*
X151161995Y-74321727D01*
X151314880Y-74550535D01*
X151509465Y-74745120D01*
X151738273Y-74898005D01*
X151992510Y-75003314D01*
X152262408Y-75057000D01*
X152537592Y-75057000D01*
X152807490Y-75003314D01*
X153061727Y-74898005D01*
X153290535Y-74745120D01*
X153485120Y-74550535D01*
X153638005Y-74321727D01*
X153670000Y-74244485D01*
X153701995Y-74321727D01*
X153854880Y-74550535D01*
X154049465Y-74745120D01*
X154278273Y-74898005D01*
X154532510Y-75003314D01*
X154802408Y-75057000D01*
X155077592Y-75057000D01*
X155347490Y-75003314D01*
X155601727Y-74898005D01*
X155830535Y-74745120D01*
X155950090Y-74625565D01*
X156694040Y-74625565D01*
X156761020Y-74865656D01*
X157010048Y-74982756D01*
X157277135Y-75049023D01*
X157552017Y-75061910D01*
X157824133Y-75020922D01*
X158083023Y-74927636D01*
X158198980Y-74865656D01*
X158265960Y-74625565D01*
X157480000Y-73839605D01*
X156694040Y-74625565D01*
X155950090Y-74625565D01*
X156025120Y-74550535D01*
X156178005Y-74321727D01*
X156207692Y-74250057D01*
X156212364Y-74263023D01*
X156274344Y-74378980D01*
X156514435Y-74445960D01*
X157300395Y-73660000D01*
X157659605Y-73660000D01*
X158445565Y-74445960D01*
X158685656Y-74378980D01*
X158749485Y-74243240D01*
X158781995Y-74321727D01*
X158934880Y-74550535D01*
X159129465Y-74745120D01*
X159358273Y-74898005D01*
X159612510Y-75003314D01*
X159882408Y-75057000D01*
X160157592Y-75057000D01*
X160427490Y-75003314D01*
X160681727Y-74898005D01*
X160910535Y-74745120D01*
X161105120Y-74550535D01*
X161258005Y-74321727D01*
X161363314Y-74067490D01*
X161417000Y-73797592D01*
X161417000Y-73522408D01*
X161363314Y-73252510D01*
X161258005Y-72998273D01*
X161105120Y-72769465D01*
X160910535Y-72574880D01*
X160681727Y-72421995D01*
X160427490Y-72316686D01*
X160157592Y-72263000D01*
X159882408Y-72263000D01*
X159612510Y-72316686D01*
X159358273Y-72421995D01*
X159129465Y-72574880D01*
X158934880Y-72769465D01*
X158781995Y-72998273D01*
X158752308Y-73069943D01*
X158747636Y-73056977D01*
X158685656Y-72941020D01*
X158445565Y-72874040D01*
X157659605Y-73660000D01*
X157300395Y-73660000D01*
X156514435Y-72874040D01*
X156274344Y-72941020D01*
X156210515Y-73076760D01*
X156178005Y-72998273D01*
X156025120Y-72769465D01*
X155950090Y-72694435D01*
X156694040Y-72694435D01*
X157480000Y-73480395D01*
X158265960Y-72694435D01*
X158198980Y-72454344D01*
X157949952Y-72337244D01*
X157682865Y-72270977D01*
X157407983Y-72258090D01*
X157135867Y-72299078D01*
X156876977Y-72392364D01*
X156761020Y-72454344D01*
X156694040Y-72694435D01*
X155950090Y-72694435D01*
X155830535Y-72574880D01*
X155775000Y-72537773D01*
X155775000Y-68945867D01*
X157262061Y-67458807D01*
X157393740Y-67485000D01*
X157686260Y-67485000D01*
X157973158Y-67427932D01*
X158243411Y-67315990D01*
X158486632Y-67153475D01*
X158693475Y-66946632D01*
X158855990Y-66703411D01*
X158967932Y-66433158D01*
X159025000Y-66146260D01*
X159025000Y-65853740D01*
X158967932Y-65566842D01*
X158855990Y-65296589D01*
X158693475Y-65053368D01*
X158486632Y-64846525D01*
X158243411Y-64684010D01*
X157973158Y-64572068D01*
X157686260Y-64515000D01*
X157393740Y-64515000D01*
X157106842Y-64572068D01*
X156836589Y-64684010D01*
X156593368Y-64846525D01*
X156461513Y-64978380D01*
X156439502Y-64905820D01*
X156380537Y-64795506D01*
X156301185Y-64698815D01*
X156263214Y-64667653D01*
X156849868Y-64081000D01*
X159674133Y-64081000D01*
X161725001Y-66131869D01*
X161725000Y-76362132D01*
X149514133Y-88573000D01*
X112359868Y-88573000D01*
X105290360Y-81503492D01*
X112065000Y-81503492D01*
X112065000Y-82416508D01*
X112243120Y-83311980D01*
X112592516Y-84155496D01*
X113099760Y-84914640D01*
X113745360Y-85560240D01*
X114504504Y-86067484D01*
X115348020Y-86416880D01*
X116243492Y-86595000D01*
X117156508Y-86595000D01*
X118051980Y-86416880D01*
X118895496Y-86067484D01*
X119654640Y-85560240D01*
X120300240Y-84914640D01*
X120807484Y-84155496D01*
X121156880Y-83311980D01*
X121335000Y-82416508D01*
X121335000Y-81503492D01*
X135305000Y-81503492D01*
X135305000Y-82416508D01*
X135483120Y-83311980D01*
X135832516Y-84155496D01*
X136339760Y-84914640D01*
X136985360Y-85560240D01*
X137744504Y-86067484D01*
X138588020Y-86416880D01*
X139483492Y-86595000D01*
X140396508Y-86595000D01*
X141291980Y-86416880D01*
X142135496Y-86067484D01*
X142894640Y-85560240D01*
X143540240Y-84914640D01*
X144047484Y-84155496D01*
X144396880Y-83311980D01*
X144575000Y-82416508D01*
X144575000Y-81503492D01*
X144396880Y-80608020D01*
X144047484Y-79764504D01*
X143540240Y-79005360D01*
X142894640Y-78359760D01*
X142135496Y-77852516D01*
X141291980Y-77503120D01*
X140396508Y-77325000D01*
X139483492Y-77325000D01*
X138588020Y-77503120D01*
X137744504Y-77852516D01*
X136985360Y-78359760D01*
X136339760Y-79005360D01*
X135832516Y-79764504D01*
X135483120Y-80608020D01*
X135305000Y-81503492D01*
X121335000Y-81503492D01*
X121156880Y-80608020D01*
X120807484Y-79764504D01*
X120300240Y-79005360D01*
X119654640Y-78359760D01*
X118895496Y-77852516D01*
X118051980Y-77503120D01*
X117156508Y-77325000D01*
X116243492Y-77325000D01*
X115348020Y-77503120D01*
X114504504Y-77852516D01*
X113745360Y-78359760D01*
X113099760Y-79005360D01*
X112592516Y-79764504D01*
X112243120Y-80608020D01*
X112065000Y-81503492D01*
X105290360Y-81503492D01*
X102435000Y-78648133D01*
X102435000Y-74782227D01*
X102490535Y-74745120D01*
X102610090Y-74625565D01*
X103354040Y-74625565D01*
X103421020Y-74865656D01*
X103670048Y-74982756D01*
X103937135Y-75049023D01*
X104212017Y-75061910D01*
X104484133Y-75020922D01*
X104743023Y-74927636D01*
X104858980Y-74865656D01*
X104925960Y-74625565D01*
X104140000Y-73839605D01*
X103354040Y-74625565D01*
X102610090Y-74625565D01*
X102685120Y-74550535D01*
X102838005Y-74321727D01*
X102867692Y-74250057D01*
X102872364Y-74263023D01*
X102934344Y-74378980D01*
X103174435Y-74445960D01*
X103960395Y-73660000D01*
X104319605Y-73660000D01*
X105105565Y-74445960D01*
X105345656Y-74378980D01*
X105409485Y-74243240D01*
X105441995Y-74321727D01*
X105594880Y-74550535D01*
X105789465Y-74745120D01*
X106018273Y-74898005D01*
X106272510Y-75003314D01*
X106542408Y-75057000D01*
X106817592Y-75057000D01*
X107087490Y-75003314D01*
X107341727Y-74898005D01*
X107570535Y-74745120D01*
X107765120Y-74550535D01*
X107918005Y-74321727D01*
X108023314Y-74067490D01*
X108056535Y-73900475D01*
X109760000Y-73900475D01*
X109760000Y-74419525D01*
X109861261Y-74928601D01*
X110059893Y-75408141D01*
X110348262Y-75839715D01*
X110715285Y-76206738D01*
X111146859Y-76495107D01*
X111626399Y-76693739D01*
X112135475Y-76795000D01*
X112654525Y-76795000D01*
X113163601Y-76693739D01*
X113643141Y-76495107D01*
X114074715Y-76206738D01*
X114441738Y-75839715D01*
X114730107Y-75408141D01*
X114928739Y-74928601D01*
X115030000Y-74419525D01*
X115030000Y-73900475D01*
X141891000Y-73900475D01*
X141891000Y-74419525D01*
X141992261Y-74928601D01*
X142190893Y-75408141D01*
X142479262Y-75839715D01*
X142846285Y-76206738D01*
X143277859Y-76495107D01*
X143757399Y-76693739D01*
X144266475Y-76795000D01*
X144785525Y-76795000D01*
X145294601Y-76693739D01*
X145774141Y-76495107D01*
X146205715Y-76206738D01*
X146572738Y-75839715D01*
X146861107Y-75408141D01*
X147059739Y-74928601D01*
X147161000Y-74419525D01*
X147161000Y-73900475D01*
X147059739Y-73391399D01*
X146861107Y-72911859D01*
X146572738Y-72480285D01*
X146205715Y-72113262D01*
X145774141Y-71824893D01*
X145294601Y-71626261D01*
X144785525Y-71525000D01*
X144266475Y-71525000D01*
X143757399Y-71626261D01*
X143277859Y-71824893D01*
X142846285Y-72113262D01*
X142479262Y-72480285D01*
X142190893Y-72911859D01*
X141992261Y-73391399D01*
X141891000Y-73900475D01*
X115030000Y-73900475D01*
X114928739Y-73391399D01*
X114730107Y-72911859D01*
X114441738Y-72480285D01*
X114074715Y-72113262D01*
X113643141Y-71824893D01*
X113163601Y-71626261D01*
X112654525Y-71525000D01*
X112135475Y-71525000D01*
X111626399Y-71626261D01*
X111146859Y-71824893D01*
X110715285Y-72113262D01*
X110348262Y-72480285D01*
X110059893Y-72911859D01*
X109861261Y-73391399D01*
X109760000Y-73900475D01*
X108056535Y-73900475D01*
X108077000Y-73797592D01*
X108077000Y-73522408D01*
X108023314Y-73252510D01*
X107918005Y-72998273D01*
X107765120Y-72769465D01*
X107570535Y-72574880D01*
X107341727Y-72421995D01*
X107087490Y-72316686D01*
X106817592Y-72263000D01*
X106542408Y-72263000D01*
X106272510Y-72316686D01*
X106018273Y-72421995D01*
X105789465Y-72574880D01*
X105594880Y-72769465D01*
X105441995Y-72998273D01*
X105412308Y-73069943D01*
X105407636Y-73056977D01*
X105345656Y-72941020D01*
X105105565Y-72874040D01*
X104319605Y-73660000D01*
X103960395Y-73660000D01*
X103174435Y-72874040D01*
X102934344Y-72941020D01*
X102870515Y-73076760D01*
X102838005Y-72998273D01*
X102685120Y-72769465D01*
X102610090Y-72694435D01*
X103354040Y-72694435D01*
X104140000Y-73480395D01*
X104925960Y-72694435D01*
X104858980Y-72454344D01*
X104609952Y-72337244D01*
X104342865Y-72270977D01*
X104067983Y-72258090D01*
X103795867Y-72299078D01*
X103536977Y-72392364D01*
X103421020Y-72454344D01*
X103354040Y-72694435D01*
X102610090Y-72694435D01*
X102490535Y-72574880D01*
X102261727Y-72421995D01*
X102007490Y-72316686D01*
X101737592Y-72263000D01*
X101462408Y-72263000D01*
X101192510Y-72316686D01*
X100938273Y-72421995D01*
X100709465Y-72574880D01*
X100514880Y-72769465D01*
X100361995Y-72998273D01*
X100330000Y-73075515D01*
X100298005Y-72998273D01*
X100145120Y-72769465D01*
X99950535Y-72574880D01*
X99895000Y-72537773D01*
X99895000Y-66396891D01*
X102698519Y-66396891D01*
X102795843Y-66671252D01*
X102944822Y-66921355D01*
X103139731Y-67137588D01*
X103373080Y-67311641D01*
X103635901Y-67436825D01*
X103783110Y-67481476D01*
X104013000Y-67360155D01*
X104013000Y-66167000D01*
X102819186Y-66167000D01*
X102698519Y-66396891D01*
X99895000Y-66396891D01*
X99895000Y-65878639D01*
X100091147Y-65683109D01*
X102698519Y-65683109D01*
X102819186Y-65913000D01*
X104013000Y-65913000D01*
X104013000Y-64719845D01*
X104267000Y-64719845D01*
X104267000Y-65913000D01*
X104287000Y-65913000D01*
X104287000Y-66167000D01*
X104267000Y-66167000D01*
X104267000Y-67360155D01*
X104496890Y-67481476D01*
X104644099Y-67436825D01*
X104906920Y-67311641D01*
X105140269Y-67137588D01*
X105216034Y-67053534D01*
X105240498Y-67134180D01*
X105299463Y-67244494D01*
X105378815Y-67341185D01*
X105475506Y-67420537D01*
X105585820Y-67479502D01*
X105705518Y-67515812D01*
X105830000Y-67528072D01*
X107530000Y-67528072D01*
X107654482Y-67515812D01*
X107774180Y-67479502D01*
X107884494Y-67420537D01*
X107981185Y-67341185D01*
X108060537Y-67244494D01*
X108119502Y-67134180D01*
X108155812Y-67014482D01*
X108168072Y-66890000D01*
X108168072Y-65190000D01*
X108155812Y-65065518D01*
X108119502Y-64945820D01*
X108060537Y-64835506D01*
X107981185Y-64738815D01*
X107884494Y-64659463D01*
X107774180Y-64600498D01*
X107654482Y-64564188D01*
X107530000Y-64551928D01*
X105830000Y-64551928D01*
X105705518Y-64564188D01*
X105585820Y-64600498D01*
X105475506Y-64659463D01*
X105378815Y-64738815D01*
X105299463Y-64835506D01*
X105240498Y-64945820D01*
X105216034Y-65026466D01*
X105140269Y-64942412D01*
X104906920Y-64768359D01*
X104644099Y-64643175D01*
X104496890Y-64598524D01*
X104267000Y-64719845D01*
X104013000Y-64719845D01*
X103783110Y-64598524D01*
X103635901Y-64643175D01*
X103373080Y-64768359D01*
X103139731Y-64942412D01*
X102944822Y-65158645D01*
X102795843Y-65408748D01*
X102698519Y-65683109D01*
X100091147Y-65683109D01*
X101945097Y-63835000D01*
X117654133Y-63835000D01*
X122380563Y-68561432D01*
G37*
X122380563Y-68561432D02*
X122406709Y-68593291D01*
X122438568Y-68619437D01*
X122438570Y-68619439D01*
X122533854Y-68697636D01*
X122678913Y-68775172D01*
X122836311Y-68822918D01*
X123000000Y-68839040D01*
X123041018Y-68835000D01*
X124698982Y-68835000D01*
X124740000Y-68839040D01*
X124781018Y-68835000D01*
X124781019Y-68835000D01*
X124903689Y-68822918D01*
X125061087Y-68775172D01*
X125206146Y-68697636D01*
X125333291Y-68593291D01*
X125359446Y-68561421D01*
X126462060Y-67458807D01*
X126593740Y-67485000D01*
X126886260Y-67485000D01*
X127173158Y-67427932D01*
X127443411Y-67315990D01*
X127686632Y-67153475D01*
X127893475Y-66946632D01*
X128010000Y-66772240D01*
X128126525Y-66946632D01*
X128333368Y-67153475D01*
X128576589Y-67315990D01*
X128846842Y-67427932D01*
X129133740Y-67485000D01*
X129426260Y-67485000D01*
X129557940Y-67458807D01*
X130660559Y-68561427D01*
X130686709Y-68593291D01*
X130789720Y-68677830D01*
X130813854Y-68697636D01*
X130958913Y-68775172D01*
X131116311Y-68822918D01*
X131279999Y-68839040D01*
X131321018Y-68835000D01*
X143854133Y-68835000D01*
X148476030Y-73456899D01*
X148463000Y-73522408D01*
X148463000Y-73797592D01*
X148516686Y-74067490D01*
X148621995Y-74321727D01*
X148774880Y-74550535D01*
X148969465Y-74745120D01*
X149198273Y-74898005D01*
X149452510Y-75003314D01*
X149722408Y-75057000D01*
X149997592Y-75057000D01*
X150267490Y-75003314D01*
X150521727Y-74898005D01*
X150750535Y-74745120D01*
X150945120Y-74550535D01*
X151098005Y-74321727D01*
X151130000Y-74244485D01*
X151161995Y-74321727D01*
X151314880Y-74550535D01*
X151509465Y-74745120D01*
X151738273Y-74898005D01*
X151992510Y-75003314D01*
X152262408Y-75057000D01*
X152537592Y-75057000D01*
X152807490Y-75003314D01*
X153061727Y-74898005D01*
X153290535Y-74745120D01*
X153485120Y-74550535D01*
X153638005Y-74321727D01*
X153670000Y-74244485D01*
X153701995Y-74321727D01*
X153854880Y-74550535D01*
X154049465Y-74745120D01*
X154278273Y-74898005D01*
X154532510Y-75003314D01*
X154802408Y-75057000D01*
X155077592Y-75057000D01*
X155347490Y-75003314D01*
X155601727Y-74898005D01*
X155830535Y-74745120D01*
X155950090Y-74625565D01*
X156694040Y-74625565D01*
X156761020Y-74865656D01*
X157010048Y-74982756D01*
X157277135Y-75049023D01*
X157552017Y-75061910D01*
X157824133Y-75020922D01*
X158083023Y-74927636D01*
X158198980Y-74865656D01*
X158265960Y-74625565D01*
X157480000Y-73839605D01*
X156694040Y-74625565D01*
X155950090Y-74625565D01*
X156025120Y-74550535D01*
X156178005Y-74321727D01*
X156207692Y-74250057D01*
X156212364Y-74263023D01*
X156274344Y-74378980D01*
X156514435Y-74445960D01*
X157300395Y-73660000D01*
X157659605Y-73660000D01*
X158445565Y-74445960D01*
X158685656Y-74378980D01*
X158749485Y-74243240D01*
X158781995Y-74321727D01*
X158934880Y-74550535D01*
X159129465Y-74745120D01*
X159358273Y-74898005D01*
X159612510Y-75003314D01*
X159882408Y-75057000D01*
X160157592Y-75057000D01*
X160427490Y-75003314D01*
X160681727Y-74898005D01*
X160910535Y-74745120D01*
X161105120Y-74550535D01*
X161258005Y-74321727D01*
X161363314Y-74067490D01*
X161417000Y-73797592D01*
X161417000Y-73522408D01*
X161363314Y-73252510D01*
X161258005Y-72998273D01*
X161105120Y-72769465D01*
X160910535Y-72574880D01*
X160681727Y-72421995D01*
X160427490Y-72316686D01*
X160157592Y-72263000D01*
X159882408Y-72263000D01*
X159612510Y-72316686D01*
X159358273Y-72421995D01*
X159129465Y-72574880D01*
X158934880Y-72769465D01*
X158781995Y-72998273D01*
X158752308Y-73069943D01*
X158747636Y-73056977D01*
X158685656Y-72941020D01*
X158445565Y-72874040D01*
X157659605Y-73660000D01*
X157300395Y-73660000D01*
X156514435Y-72874040D01*
X156274344Y-72941020D01*
X156210515Y-73076760D01*
X156178005Y-72998273D01*
X156025120Y-72769465D01*
X155950090Y-72694435D01*
X156694040Y-72694435D01*
X157480000Y-73480395D01*
X158265960Y-72694435D01*
X158198980Y-72454344D01*
X157949952Y-72337244D01*
X157682865Y-72270977D01*
X157407983Y-72258090D01*
X157135867Y-72299078D01*
X156876977Y-72392364D01*
X156761020Y-72454344D01*
X156694040Y-72694435D01*
X155950090Y-72694435D01*
X155830535Y-72574880D01*
X155775000Y-72537773D01*
X155775000Y-68945867D01*
X157262061Y-67458807D01*
X157393740Y-67485000D01*
X157686260Y-67485000D01*
X157973158Y-67427932D01*
X158243411Y-67315990D01*
X158486632Y-67153475D01*
X158693475Y-66946632D01*
X158855990Y-66703411D01*
X158967932Y-66433158D01*
X159025000Y-66146260D01*
X159025000Y-65853740D01*
X158967932Y-65566842D01*
X158855990Y-65296589D01*
X158693475Y-65053368D01*
X158486632Y-64846525D01*
X158243411Y-64684010D01*
X157973158Y-64572068D01*
X157686260Y-64515000D01*
X157393740Y-64515000D01*
X157106842Y-64572068D01*
X156836589Y-64684010D01*
X156593368Y-64846525D01*
X156461513Y-64978380D01*
X156439502Y-64905820D01*
X156380537Y-64795506D01*
X156301185Y-64698815D01*
X156263214Y-64667653D01*
X156849868Y-64081000D01*
X159674133Y-64081000D01*
X161725001Y-66131869D01*
X161725000Y-76362132D01*
X149514133Y-88573000D01*
X112359868Y-88573000D01*
X105290360Y-81503492D01*
X112065000Y-81503492D01*
X112065000Y-82416508D01*
X112243120Y-83311980D01*
X112592516Y-84155496D01*
X113099760Y-84914640D01*
X113745360Y-85560240D01*
X114504504Y-86067484D01*
X115348020Y-86416880D01*
X116243492Y-86595000D01*
X117156508Y-86595000D01*
X118051980Y-86416880D01*
X118895496Y-86067484D01*
X119654640Y-85560240D01*
X120300240Y-84914640D01*
X120807484Y-84155496D01*
X121156880Y-83311980D01*
X121335000Y-82416508D01*
X121335000Y-81503492D01*
X135305000Y-81503492D01*
X135305000Y-82416508D01*
X135483120Y-83311980D01*
X135832516Y-84155496D01*
X136339760Y-84914640D01*
X136985360Y-85560240D01*
X137744504Y-86067484D01*
X138588020Y-86416880D01*
X139483492Y-86595000D01*
X140396508Y-86595000D01*
X141291980Y-86416880D01*
X142135496Y-86067484D01*
X142894640Y-85560240D01*
X143540240Y-84914640D01*
X144047484Y-84155496D01*
X144396880Y-83311980D01*
X144575000Y-82416508D01*
X144575000Y-81503492D01*
X144396880Y-80608020D01*
X144047484Y-79764504D01*
X143540240Y-79005360D01*
X142894640Y-78359760D01*
X142135496Y-77852516D01*
X141291980Y-77503120D01*
X140396508Y-77325000D01*
X139483492Y-77325000D01*
X138588020Y-77503120D01*
X137744504Y-77852516D01*
X136985360Y-78359760D01*
X136339760Y-79005360D01*
X135832516Y-79764504D01*
X135483120Y-80608020D01*
X135305000Y-81503492D01*
X121335000Y-81503492D01*
X121156880Y-80608020D01*
X120807484Y-79764504D01*
X120300240Y-79005360D01*
X119654640Y-78359760D01*
X118895496Y-77852516D01*
X118051980Y-77503120D01*
X117156508Y-77325000D01*
X116243492Y-77325000D01*
X115348020Y-77503120D01*
X114504504Y-77852516D01*
X113745360Y-78359760D01*
X113099760Y-79005360D01*
X112592516Y-79764504D01*
X112243120Y-80608020D01*
X112065000Y-81503492D01*
X105290360Y-81503492D01*
X102435000Y-78648133D01*
X102435000Y-74782227D01*
X102490535Y-74745120D01*
X102610090Y-74625565D01*
X103354040Y-74625565D01*
X103421020Y-74865656D01*
X103670048Y-74982756D01*
X103937135Y-75049023D01*
X104212017Y-75061910D01*
X104484133Y-75020922D01*
X104743023Y-74927636D01*
X104858980Y-74865656D01*
X104925960Y-74625565D01*
X104140000Y-73839605D01*
X103354040Y-74625565D01*
X102610090Y-74625565D01*
X102685120Y-74550535D01*
X102838005Y-74321727D01*
X102867692Y-74250057D01*
X102872364Y-74263023D01*
X102934344Y-74378980D01*
X103174435Y-74445960D01*
X103960395Y-73660000D01*
X104319605Y-73660000D01*
X105105565Y-74445960D01*
X105345656Y-74378980D01*
X105409485Y-74243240D01*
X105441995Y-74321727D01*
X105594880Y-74550535D01*
X105789465Y-74745120D01*
X106018273Y-74898005D01*
X106272510Y-75003314D01*
X106542408Y-75057000D01*
X106817592Y-75057000D01*
X107087490Y-75003314D01*
X107341727Y-74898005D01*
X107570535Y-74745120D01*
X107765120Y-74550535D01*
X107918005Y-74321727D01*
X108023314Y-74067490D01*
X108056535Y-73900475D01*
X109760000Y-73900475D01*
X109760000Y-74419525D01*
X109861261Y-74928601D01*
X110059893Y-75408141D01*
X110348262Y-75839715D01*
X110715285Y-76206738D01*
X111146859Y-76495107D01*
X111626399Y-76693739D01*
X112135475Y-76795000D01*
X112654525Y-76795000D01*
X113163601Y-76693739D01*
X113643141Y-76495107D01*
X114074715Y-76206738D01*
X114441738Y-75839715D01*
X114730107Y-75408141D01*
X114928739Y-74928601D01*
X115030000Y-74419525D01*
X115030000Y-73900475D01*
X141891000Y-73900475D01*
X141891000Y-74419525D01*
X141992261Y-74928601D01*
X142190893Y-75408141D01*
X142479262Y-75839715D01*
X142846285Y-76206738D01*
X143277859Y-76495107D01*
X143757399Y-76693739D01*
X144266475Y-76795000D01*
X144785525Y-76795000D01*
X145294601Y-76693739D01*
X145774141Y-76495107D01*
X146205715Y-76206738D01*
X146572738Y-75839715D01*
X146861107Y-75408141D01*
X147059739Y-74928601D01*
X147161000Y-74419525D01*
X147161000Y-73900475D01*
X147059739Y-73391399D01*
X146861107Y-72911859D01*
X146572738Y-72480285D01*
X146205715Y-72113262D01*
X145774141Y-71824893D01*
X145294601Y-71626261D01*
X144785525Y-71525000D01*
X144266475Y-71525000D01*
X143757399Y-71626261D01*
X143277859Y-71824893D01*
X142846285Y-72113262D01*
X142479262Y-72480285D01*
X142190893Y-72911859D01*
X141992261Y-73391399D01*
X141891000Y-73900475D01*
X115030000Y-73900475D01*
X114928739Y-73391399D01*
X114730107Y-72911859D01*
X114441738Y-72480285D01*
X114074715Y-72113262D01*
X113643141Y-71824893D01*
X113163601Y-71626261D01*
X112654525Y-71525000D01*
X112135475Y-71525000D01*
X111626399Y-71626261D01*
X111146859Y-71824893D01*
X110715285Y-72113262D01*
X110348262Y-72480285D01*
X110059893Y-72911859D01*
X109861261Y-73391399D01*
X109760000Y-73900475D01*
X108056535Y-73900475D01*
X108077000Y-73797592D01*
X108077000Y-73522408D01*
X108023314Y-73252510D01*
X107918005Y-72998273D01*
X107765120Y-72769465D01*
X107570535Y-72574880D01*
X107341727Y-72421995D01*
X107087490Y-72316686D01*
X106817592Y-72263000D01*
X106542408Y-72263000D01*
X106272510Y-72316686D01*
X106018273Y-72421995D01*
X105789465Y-72574880D01*
X105594880Y-72769465D01*
X105441995Y-72998273D01*
X105412308Y-73069943D01*
X105407636Y-73056977D01*
X105345656Y-72941020D01*
X105105565Y-72874040D01*
X104319605Y-73660000D01*
X103960395Y-73660000D01*
X103174435Y-72874040D01*
X102934344Y-72941020D01*
X102870515Y-73076760D01*
X102838005Y-72998273D01*
X102685120Y-72769465D01*
X102610090Y-72694435D01*
X103354040Y-72694435D01*
X104140000Y-73480395D01*
X104925960Y-72694435D01*
X104858980Y-72454344D01*
X104609952Y-72337244D01*
X104342865Y-72270977D01*
X104067983Y-72258090D01*
X103795867Y-72299078D01*
X103536977Y-72392364D01*
X103421020Y-72454344D01*
X103354040Y-72694435D01*
X102610090Y-72694435D01*
X102490535Y-72574880D01*
X102261727Y-72421995D01*
X102007490Y-72316686D01*
X101737592Y-72263000D01*
X101462408Y-72263000D01*
X101192510Y-72316686D01*
X100938273Y-72421995D01*
X100709465Y-72574880D01*
X100514880Y-72769465D01*
X100361995Y-72998273D01*
X100330000Y-73075515D01*
X100298005Y-72998273D01*
X100145120Y-72769465D01*
X99950535Y-72574880D01*
X99895000Y-72537773D01*
X99895000Y-66396891D01*
X102698519Y-66396891D01*
X102795843Y-66671252D01*
X102944822Y-66921355D01*
X103139731Y-67137588D01*
X103373080Y-67311641D01*
X103635901Y-67436825D01*
X103783110Y-67481476D01*
X104013000Y-67360155D01*
X104013000Y-66167000D01*
X102819186Y-66167000D01*
X102698519Y-66396891D01*
X99895000Y-66396891D01*
X99895000Y-65878639D01*
X100091147Y-65683109D01*
X102698519Y-65683109D01*
X102819186Y-65913000D01*
X104013000Y-65913000D01*
X104013000Y-64719845D01*
X104267000Y-64719845D01*
X104267000Y-65913000D01*
X104287000Y-65913000D01*
X104287000Y-66167000D01*
X104267000Y-66167000D01*
X104267000Y-67360155D01*
X104496890Y-67481476D01*
X104644099Y-67436825D01*
X104906920Y-67311641D01*
X105140269Y-67137588D01*
X105216034Y-67053534D01*
X105240498Y-67134180D01*
X105299463Y-67244494D01*
X105378815Y-67341185D01*
X105475506Y-67420537D01*
X105585820Y-67479502D01*
X105705518Y-67515812D01*
X105830000Y-67528072D01*
X107530000Y-67528072D01*
X107654482Y-67515812D01*
X107774180Y-67479502D01*
X107884494Y-67420537D01*
X107981185Y-67341185D01*
X108060537Y-67244494D01*
X108119502Y-67134180D01*
X108155812Y-67014482D01*
X108168072Y-66890000D01*
X108168072Y-65190000D01*
X108155812Y-65065518D01*
X108119502Y-64945820D01*
X108060537Y-64835506D01*
X107981185Y-64738815D01*
X107884494Y-64659463D01*
X107774180Y-64600498D01*
X107654482Y-64564188D01*
X107530000Y-64551928D01*
X105830000Y-64551928D01*
X105705518Y-64564188D01*
X105585820Y-64600498D01*
X105475506Y-64659463D01*
X105378815Y-64738815D01*
X105299463Y-64835506D01*
X105240498Y-64945820D01*
X105216034Y-65026466D01*
X105140269Y-64942412D01*
X104906920Y-64768359D01*
X104644099Y-64643175D01*
X104496890Y-64598524D01*
X104267000Y-64719845D01*
X104013000Y-64719845D01*
X103783110Y-64598524D01*
X103635901Y-64643175D01*
X103373080Y-64768359D01*
X103139731Y-64942412D01*
X102944822Y-65158645D01*
X102795843Y-65408748D01*
X102698519Y-65683109D01*
X100091147Y-65683109D01*
X101945097Y-63835000D01*
X117654133Y-63835000D01*
X122380563Y-68561432D01*
M02*
