G04 #@! TF.GenerationSoftware,KiCad,Pcbnew,5.1.5+dfsg1-2build2*
G04 #@! TF.CreationDate,2021-11-16T19:17:29+01:00*
G04 #@! TF.ProjectId,joystick-board,6a6f7973-7469-4636-9b2d-626f6172642e,rev?*
G04 #@! TF.SameCoordinates,Original*
G04 #@! TF.FileFunction,Soldermask,Top*
G04 #@! TF.FilePolarity,Negative*
%FSLAX46Y46*%
G04 Gerber Fmt 4.6, Leading zero omitted, Abs format (unit mm)*
G04 Created by KiCad (PCBNEW 5.1.5+dfsg1-2build2) date 2021-11-16 19:17:29*
%MOMM*%
%LPD*%
G04 APERTURE LIST*
%ADD10C,0.300000*%
%ADD11C,0.200000*%
%ADD12C,0.100000*%
G04 APERTURE END LIST*
D10*
X153162728Y-120591948D02*
X152525146Y-119997227D01*
X152324316Y-120770158D02*
X152012449Y-119302937D01*
X152571390Y-119184130D01*
X152725976Y-119224296D01*
X152810695Y-119279313D01*
X152910264Y-119404198D01*
X152954817Y-119613801D01*
X152914651Y-119768387D01*
X152859634Y-119853105D01*
X152734749Y-119952675D01*
X152175808Y-120071481D01*
X154420347Y-120324633D02*
X154256988Y-119556089D01*
X154157418Y-119431204D01*
X154002832Y-119391038D01*
X153723361Y-119450442D01*
X153598477Y-119550011D01*
X154405496Y-120254766D02*
X154280611Y-120354335D01*
X153931273Y-120428589D01*
X153776687Y-120388423D01*
X153677117Y-120263539D01*
X153647416Y-120123803D01*
X153687582Y-119969217D01*
X153812466Y-119869648D01*
X154161805Y-119795393D01*
X154286689Y-119695824D01*
X154701509Y-119242530D02*
X155260450Y-119123723D01*
X155119024Y-120176125D02*
X154851709Y-118918507D01*
X154891875Y-118763920D01*
X155016759Y-118664351D01*
X155156495Y-118634649D01*
X156586245Y-119864257D02*
X156422886Y-119095713D01*
X156323317Y-118970828D01*
X156168730Y-118930662D01*
X155889260Y-118990066D01*
X155764375Y-119089635D01*
X156571394Y-119794390D02*
X156446510Y-119893959D01*
X156097171Y-119968213D01*
X155942585Y-119928047D01*
X155843016Y-119803163D01*
X155813314Y-119663427D01*
X155853480Y-119508841D01*
X155978365Y-119409272D01*
X156327703Y-119335018D01*
X156452588Y-119235448D01*
X157829013Y-119527075D02*
X157704128Y-119626644D01*
X157424657Y-119686047D01*
X157270071Y-119645881D01*
X157170502Y-119520997D01*
X157051695Y-118962055D01*
X157091861Y-118807469D01*
X157216746Y-118707900D01*
X157496216Y-118648496D01*
X157650803Y-118688662D01*
X157750372Y-118813547D01*
X157780074Y-118953282D01*
X157111098Y-119241526D01*
X158752143Y-119403882D02*
X158597557Y-119363715D01*
X158497988Y-119238831D01*
X158230673Y-117981213D01*
X160754682Y-118174961D02*
X160979136Y-118200276D01*
X161063855Y-118255293D01*
X161163424Y-118380178D01*
X161207977Y-118589781D01*
X161167811Y-118744367D01*
X161112794Y-118829085D01*
X160987909Y-118928655D01*
X160428968Y-119047461D01*
X160117100Y-117580240D01*
X160606174Y-117476284D01*
X160760760Y-117516450D01*
X160845479Y-117571467D01*
X160945048Y-117696352D01*
X160974750Y-117836087D01*
X160934584Y-117990673D01*
X160879567Y-118075392D01*
X160754682Y-118174961D01*
X160265609Y-118278917D01*
X162524998Y-118601936D02*
X162361639Y-117833392D01*
X162262070Y-117708507D01*
X162107484Y-117668341D01*
X161828013Y-117727745D01*
X161703128Y-117827314D01*
X162510148Y-118532069D02*
X162385263Y-118631638D01*
X162035925Y-118705892D01*
X161881338Y-118665726D01*
X161781769Y-118540842D01*
X161752067Y-118401106D01*
X161792233Y-118246520D01*
X161917118Y-118146951D01*
X162266456Y-118072697D01*
X162391341Y-117973127D01*
X163837634Y-118249903D02*
X163712749Y-118349472D01*
X163433278Y-118408876D01*
X163278692Y-118368710D01*
X163193974Y-118313693D01*
X163094404Y-118188808D01*
X163005299Y-117769602D01*
X163045465Y-117615016D01*
X163100482Y-117530297D01*
X163225367Y-117430728D01*
X163504837Y-117371325D01*
X163659424Y-117411491D01*
X164481294Y-118186113D02*
X164169426Y-116718892D01*
X165110103Y-118052456D02*
X164946744Y-117283911D01*
X164847174Y-117159026D01*
X164692588Y-117118860D01*
X164482985Y-117163413D01*
X164358100Y-117262982D01*
X164303084Y-117347701D01*
X165808780Y-117903947D02*
X165600868Y-116925800D01*
X165630570Y-117065535D02*
X165685586Y-116980816D01*
X165810471Y-116881247D01*
X166020074Y-116836695D01*
X166174660Y-116876861D01*
X166274230Y-117001745D01*
X166437589Y-117770290D01*
X166274230Y-117001745D02*
X166314396Y-116847159D01*
X166439280Y-116747590D01*
X166648883Y-116703037D01*
X166803469Y-116743203D01*
X166903039Y-116868088D01*
X167066398Y-117636632D01*
X168393884Y-117354466D02*
X168230525Y-116585922D01*
X168130955Y-116461037D01*
X167976369Y-116420871D01*
X167696898Y-116480275D01*
X167572014Y-116579844D01*
X168379033Y-117284599D02*
X168254149Y-117384168D01*
X167904810Y-117458422D01*
X167750224Y-117418256D01*
X167650655Y-117293372D01*
X167620953Y-117153636D01*
X167661119Y-116999050D01*
X167786003Y-116899481D01*
X168135342Y-116825226D01*
X168260226Y-116725657D01*
X168884649Y-116227810D02*
X169092561Y-117205958D01*
X168914351Y-116367546D02*
X168969368Y-116282827D01*
X169094252Y-116183258D01*
X169303855Y-116138705D01*
X169458441Y-116178871D01*
X169558011Y-116303756D01*
X169721370Y-117072300D01*
X170212135Y-115945644D02*
X170420047Y-116923792D01*
X170241837Y-116085380D02*
X170296854Y-116000661D01*
X170421738Y-115901092D01*
X170631341Y-115856539D01*
X170785927Y-115896705D01*
X170885497Y-116021590D01*
X171048856Y-116790135D01*
X171802550Y-116556908D02*
X171817401Y-116626775D01*
X171777235Y-116781362D01*
X171722218Y-116866080D01*
X173564093Y-116255504D02*
X173252225Y-114788283D01*
X174402505Y-116077294D01*
X174090637Y-114610073D01*
X175310785Y-115884234D02*
X175156199Y-115844068D01*
X175071480Y-115789051D01*
X174971911Y-115664166D01*
X174882806Y-115244960D01*
X174922972Y-115090374D01*
X174977989Y-115005655D01*
X175102873Y-114906086D01*
X175312476Y-114861533D01*
X175467062Y-114901700D01*
X175551781Y-114956716D01*
X175651350Y-115081601D01*
X175740455Y-115500807D01*
X175700289Y-115655393D01*
X175645272Y-115740112D01*
X175520388Y-115839681D01*
X175310785Y-115884234D01*
X176081021Y-114698174D02*
X176638271Y-115602068D01*
X176779698Y-114549666D01*
X177516849Y-115269271D02*
X177601568Y-115324288D01*
X177546551Y-115409007D01*
X177461832Y-115353990D01*
X177516849Y-115269271D01*
X177546551Y-115409007D01*
X179011077Y-113710250D02*
X179066094Y-113625531D01*
X179190978Y-113525962D01*
X179540317Y-113451708D01*
X179694903Y-113491874D01*
X179779622Y-113546891D01*
X179879191Y-113671775D01*
X179908893Y-113811511D01*
X179883577Y-114035965D01*
X179223375Y-115052587D01*
X180131655Y-114859526D01*
X180728068Y-113199244D02*
X180867803Y-113169542D01*
X181022389Y-113209708D01*
X181107108Y-113264725D01*
X181206677Y-113389609D01*
X181335948Y-113654229D01*
X181410202Y-114003568D01*
X181399738Y-114297889D01*
X181359572Y-114452476D01*
X181304555Y-114537194D01*
X181179670Y-114636763D01*
X181039935Y-114666465D01*
X180885349Y-114626299D01*
X180800630Y-114571282D01*
X180701061Y-114446398D01*
X180571790Y-114181778D01*
X180497536Y-113832439D01*
X180508000Y-113538118D01*
X180548166Y-113383532D01*
X180603183Y-113298813D01*
X180728068Y-113199244D01*
X181805785Y-113116217D02*
X181860801Y-113031498D01*
X181985686Y-112931929D01*
X182335024Y-112857675D01*
X182489611Y-112897841D01*
X182574329Y-112952857D01*
X182673898Y-113077742D01*
X182703600Y-113217477D01*
X182678285Y-113441931D01*
X182018083Y-114458553D01*
X182926363Y-114265493D01*
X184323716Y-113968476D02*
X183485304Y-114146686D01*
X183904510Y-114057581D02*
X183592643Y-112590359D01*
X183497460Y-112829664D01*
X183387426Y-112999101D01*
X183262542Y-113098671D01*
D11*
X181073357Y-90941285D02*
X180501928Y-91341285D01*
X181073357Y-91627000D02*
X179873357Y-91627000D01*
X179873357Y-91169857D01*
X179930500Y-91055571D01*
X179987642Y-90998428D01*
X180101928Y-90941285D01*
X180273357Y-90941285D01*
X180387642Y-90998428D01*
X180444785Y-91055571D01*
X180501928Y-91169857D01*
X180501928Y-91627000D01*
X181016214Y-89969857D02*
X181073357Y-90084142D01*
X181073357Y-90312714D01*
X181016214Y-90427000D01*
X180901928Y-90484142D01*
X180444785Y-90484142D01*
X180330500Y-90427000D01*
X180273357Y-90312714D01*
X180273357Y-90084142D01*
X180330500Y-89969857D01*
X180444785Y-89912714D01*
X180559071Y-89912714D01*
X180673357Y-90484142D01*
X180273357Y-89512714D02*
X181073357Y-89227000D01*
X180273357Y-88941285D01*
X180959071Y-88484142D02*
X181016214Y-88427000D01*
X181073357Y-88484142D01*
X181016214Y-88541285D01*
X180959071Y-88484142D01*
X181073357Y-88484142D01*
X179987642Y-87055571D02*
X179930500Y-86998428D01*
X179873357Y-86884142D01*
X179873357Y-86598428D01*
X179930500Y-86484142D01*
X179987642Y-86427000D01*
X180101928Y-86369857D01*
X180216214Y-86369857D01*
X180387642Y-86427000D01*
X181073357Y-87112714D01*
X181073357Y-86369857D01*
X177288857Y-108912714D02*
X178260285Y-108912714D01*
X178374571Y-108969857D01*
X178431714Y-109027000D01*
X178488857Y-109141285D01*
X178488857Y-109312714D01*
X178431714Y-109427000D01*
X178031714Y-108912714D02*
X178088857Y-109027000D01*
X178088857Y-109255571D01*
X178031714Y-109369857D01*
X177974571Y-109427000D01*
X177860285Y-109484142D01*
X177517428Y-109484142D01*
X177403142Y-109427000D01*
X177346000Y-109369857D01*
X177288857Y-109255571D01*
X177288857Y-109027000D01*
X177346000Y-108912714D01*
X178088857Y-108341285D02*
X177288857Y-108341285D01*
X176888857Y-108341285D02*
X176946000Y-108398428D01*
X177003142Y-108341285D01*
X176946000Y-108284142D01*
X176888857Y-108341285D01*
X177003142Y-108341285D01*
X177288857Y-107941285D02*
X177288857Y-107484142D01*
X176888857Y-107769857D02*
X177917428Y-107769857D01*
X178031714Y-107712714D01*
X178088857Y-107598428D01*
X178088857Y-107484142D01*
X178088857Y-107084142D02*
X176888857Y-107084142D01*
X178088857Y-106569857D02*
X177460285Y-106569857D01*
X177346000Y-106627000D01*
X177288857Y-106741285D01*
X177288857Y-106912714D01*
X177346000Y-107027000D01*
X177403142Y-107084142D01*
X177288857Y-105484142D02*
X178088857Y-105484142D01*
X177288857Y-105998428D02*
X177917428Y-105998428D01*
X178031714Y-105941285D01*
X178088857Y-105827000D01*
X178088857Y-105655571D01*
X178031714Y-105541285D01*
X177974571Y-105484142D01*
X178088857Y-104912714D02*
X176888857Y-104912714D01*
X177346000Y-104912714D02*
X177288857Y-104798428D01*
X177288857Y-104569857D01*
X177346000Y-104455571D01*
X177403142Y-104398428D01*
X177517428Y-104341285D01*
X177860285Y-104341285D01*
X177974571Y-104398428D01*
X178031714Y-104455571D01*
X178088857Y-104569857D01*
X178088857Y-104798428D01*
X178031714Y-104912714D01*
X177974571Y-103827000D02*
X178031714Y-103769857D01*
X178088857Y-103827000D01*
X178031714Y-103884142D01*
X177974571Y-103827000D01*
X178088857Y-103827000D01*
X178031714Y-102741285D02*
X178088857Y-102855571D01*
X178088857Y-103084142D01*
X178031714Y-103198428D01*
X177974571Y-103255571D01*
X177860285Y-103312714D01*
X177517428Y-103312714D01*
X177403142Y-103255571D01*
X177346000Y-103198428D01*
X177288857Y-103084142D01*
X177288857Y-102855571D01*
X177346000Y-102741285D01*
X178088857Y-102055571D02*
X178031714Y-102169857D01*
X177974571Y-102227000D01*
X177860285Y-102284142D01*
X177517428Y-102284142D01*
X177403142Y-102227000D01*
X177346000Y-102169857D01*
X177288857Y-102055571D01*
X177288857Y-101884142D01*
X177346000Y-101769857D01*
X177403142Y-101712714D01*
X177517428Y-101655571D01*
X177860285Y-101655571D01*
X177974571Y-101712714D01*
X178031714Y-101769857D01*
X178088857Y-101884142D01*
X178088857Y-102055571D01*
X178088857Y-101141285D02*
X177288857Y-101141285D01*
X177403142Y-101141285D02*
X177346000Y-101084142D01*
X177288857Y-100969857D01*
X177288857Y-100798428D01*
X177346000Y-100684142D01*
X177460285Y-100627000D01*
X178088857Y-100627000D01*
X177460285Y-100627000D02*
X177346000Y-100569857D01*
X177288857Y-100455571D01*
X177288857Y-100284142D01*
X177346000Y-100169857D01*
X177460285Y-100112714D01*
X178088857Y-100112714D01*
X176831714Y-98684142D02*
X178374571Y-99712714D01*
X178088857Y-98284142D02*
X176888857Y-98284142D01*
X177346000Y-98284142D02*
X177288857Y-98169857D01*
X177288857Y-97941285D01*
X177346000Y-97827000D01*
X177403142Y-97769857D01*
X177517428Y-97712714D01*
X177860285Y-97712714D01*
X177974571Y-97769857D01*
X178031714Y-97827000D01*
X178088857Y-97941285D01*
X178088857Y-98169857D01*
X178031714Y-98284142D01*
X178088857Y-96684142D02*
X177460285Y-96684142D01*
X177346000Y-96741285D01*
X177288857Y-96855571D01*
X177288857Y-97084142D01*
X177346000Y-97198428D01*
X178031714Y-96684142D02*
X178088857Y-96798428D01*
X178088857Y-97084142D01*
X178031714Y-97198428D01*
X177917428Y-97255571D01*
X177803142Y-97255571D01*
X177688857Y-97198428D01*
X177631714Y-97084142D01*
X177631714Y-96798428D01*
X177574571Y-96684142D01*
X178088857Y-96112714D02*
X177288857Y-96112714D01*
X177517428Y-96112714D02*
X177403142Y-96055571D01*
X177346000Y-95998428D01*
X177288857Y-95884142D01*
X177288857Y-95769857D01*
X178088857Y-94855571D02*
X177460285Y-94855571D01*
X177346000Y-94912714D01*
X177288857Y-95027000D01*
X177288857Y-95255571D01*
X177346000Y-95369857D01*
X178031714Y-94855571D02*
X178088857Y-94969857D01*
X178088857Y-95255571D01*
X178031714Y-95369857D01*
X177917428Y-95427000D01*
X177803142Y-95427000D01*
X177688857Y-95369857D01*
X177631714Y-95255571D01*
X177631714Y-94969857D01*
X177574571Y-94855571D01*
X177288857Y-94455571D02*
X177288857Y-93998428D01*
X178088857Y-94284142D02*
X177060285Y-94284142D01*
X176946000Y-94227000D01*
X176888857Y-94112714D01*
X176888857Y-93998428D01*
X178088857Y-93084142D02*
X177460285Y-93084142D01*
X177346000Y-93141285D01*
X177288857Y-93255571D01*
X177288857Y-93484142D01*
X177346000Y-93598428D01*
X178031714Y-93084142D02*
X178088857Y-93198428D01*
X178088857Y-93484142D01*
X178031714Y-93598428D01*
X177917428Y-93655571D01*
X177803142Y-93655571D01*
X177688857Y-93598428D01*
X177631714Y-93484142D01*
X177631714Y-93198428D01*
X177574571Y-93084142D01*
X178031714Y-92055571D02*
X178088857Y-92169857D01*
X178088857Y-92398428D01*
X178031714Y-92512714D01*
X177917428Y-92569857D01*
X177460285Y-92569857D01*
X177346000Y-92512714D01*
X177288857Y-92398428D01*
X177288857Y-92169857D01*
X177346000Y-92055571D01*
X177460285Y-91998428D01*
X177574571Y-91998428D01*
X177688857Y-92569857D01*
X178088857Y-91312714D02*
X178031714Y-91427000D01*
X177917428Y-91484142D01*
X176888857Y-91484142D01*
X176831714Y-89998428D02*
X178374571Y-91027000D01*
X178088857Y-89598428D02*
X176888857Y-89598428D01*
X177346000Y-89598428D02*
X177288857Y-89484142D01*
X177288857Y-89255571D01*
X177346000Y-89141285D01*
X177403142Y-89084142D01*
X177517428Y-89027000D01*
X177860285Y-89027000D01*
X177974571Y-89084142D01*
X178031714Y-89141285D01*
X178088857Y-89255571D01*
X178088857Y-89484142D01*
X178031714Y-89598428D01*
X178088857Y-88512714D02*
X177288857Y-88512714D01*
X177517428Y-88512714D02*
X177403142Y-88455571D01*
X177346000Y-88398428D01*
X177288857Y-88284142D01*
X177288857Y-88169857D01*
X178088857Y-87769857D02*
X177288857Y-87769857D01*
X176888857Y-87769857D02*
X176946000Y-87827000D01*
X177003142Y-87769857D01*
X176946000Y-87712714D01*
X176888857Y-87769857D01*
X177003142Y-87769857D01*
X178031714Y-86684142D02*
X178088857Y-86798428D01*
X178088857Y-87027000D01*
X178031714Y-87141285D01*
X177974571Y-87198428D01*
X177860285Y-87255571D01*
X177517428Y-87255571D01*
X177403142Y-87198428D01*
X177346000Y-87141285D01*
X177288857Y-87027000D01*
X177288857Y-86798428D01*
X177346000Y-86684142D01*
X178088857Y-86169857D02*
X176888857Y-86169857D01*
X177631714Y-86055571D02*
X178088857Y-85712714D01*
X177288857Y-85712714D02*
X177746000Y-86169857D01*
X177631714Y-85198428D02*
X177631714Y-84284142D01*
X178088857Y-83712714D02*
X177288857Y-83712714D01*
X177517428Y-83712714D02*
X177403142Y-83655571D01*
X177346000Y-83598428D01*
X177288857Y-83484142D01*
X177288857Y-83369857D01*
X178088857Y-82798428D02*
X178031714Y-82912714D01*
X177974571Y-82969857D01*
X177860285Y-83027000D01*
X177517428Y-83027000D01*
X177403142Y-82969857D01*
X177346000Y-82912714D01*
X177288857Y-82798428D01*
X177288857Y-82627000D01*
X177346000Y-82512714D01*
X177403142Y-82455571D01*
X177517428Y-82398428D01*
X177860285Y-82398428D01*
X177974571Y-82455571D01*
X178031714Y-82512714D01*
X178088857Y-82627000D01*
X178088857Y-82798428D01*
X177288857Y-81998428D02*
X178088857Y-81712714D01*
X177288857Y-81427000D01*
X178031714Y-80512714D02*
X178088857Y-80627000D01*
X178088857Y-80855571D01*
X178031714Y-80969857D01*
X177917428Y-81027000D01*
X177460285Y-81027000D01*
X177346000Y-80969857D01*
X177288857Y-80855571D01*
X177288857Y-80627000D01*
X177346000Y-80512714D01*
X177460285Y-80455571D01*
X177574571Y-80455571D01*
X177688857Y-81027000D01*
X178088857Y-79941285D02*
X177288857Y-79941285D01*
X177517428Y-79941285D02*
X177403142Y-79884142D01*
X177346000Y-79827000D01*
X177288857Y-79712714D01*
X177288857Y-79598428D01*
X177631714Y-79198428D02*
X177631714Y-78284142D01*
X178088857Y-77712714D02*
X176888857Y-77712714D01*
X177346000Y-77712714D02*
X177288857Y-77598428D01*
X177288857Y-77369857D01*
X177346000Y-77255571D01*
X177403142Y-77198428D01*
X177517428Y-77141285D01*
X177860285Y-77141285D01*
X177974571Y-77198428D01*
X178031714Y-77255571D01*
X178088857Y-77369857D01*
X178088857Y-77598428D01*
X178031714Y-77712714D01*
X178088857Y-76627000D02*
X177288857Y-76627000D01*
X177517428Y-76627000D02*
X177403142Y-76569857D01*
X177346000Y-76512714D01*
X177288857Y-76398428D01*
X177288857Y-76284142D01*
X178088857Y-75369857D02*
X177460285Y-75369857D01*
X177346000Y-75427000D01*
X177288857Y-75541285D01*
X177288857Y-75769857D01*
X177346000Y-75884142D01*
X178031714Y-75369857D02*
X178088857Y-75484142D01*
X178088857Y-75769857D01*
X178031714Y-75884142D01*
X177917428Y-75941285D01*
X177803142Y-75941285D01*
X177688857Y-75884142D01*
X177631714Y-75769857D01*
X177631714Y-75484142D01*
X177574571Y-75369857D01*
X178088857Y-74798428D02*
X177288857Y-74798428D01*
X176888857Y-74798428D02*
X176946000Y-74855571D01*
X177003142Y-74798428D01*
X176946000Y-74741285D01*
X176888857Y-74798428D01*
X177003142Y-74798428D01*
X177288857Y-74227000D02*
X178088857Y-74227000D01*
X177403142Y-74227000D02*
X177346000Y-74169857D01*
X177288857Y-74055571D01*
X177288857Y-73884142D01*
X177346000Y-73769857D01*
X177460285Y-73712714D01*
X178088857Y-73712714D01*
X178088857Y-73141285D02*
X176888857Y-73141285D01*
X177346000Y-73141285D02*
X177288857Y-73027000D01*
X177288857Y-72798428D01*
X177346000Y-72684142D01*
X177403142Y-72627000D01*
X177517428Y-72569857D01*
X177860285Y-72569857D01*
X177974571Y-72627000D01*
X178031714Y-72684142D01*
X178088857Y-72798428D01*
X178088857Y-73027000D01*
X178031714Y-73141285D01*
X178088857Y-71884142D02*
X178031714Y-71998428D01*
X177974571Y-72055571D01*
X177860285Y-72112714D01*
X177517428Y-72112714D01*
X177403142Y-72055571D01*
X177346000Y-71998428D01*
X177288857Y-71884142D01*
X177288857Y-71712714D01*
X177346000Y-71598428D01*
X177403142Y-71541285D01*
X177517428Y-71484142D01*
X177860285Y-71484142D01*
X177974571Y-71541285D01*
X178031714Y-71598428D01*
X178088857Y-71712714D01*
X178088857Y-71884142D01*
X178088857Y-70455571D02*
X177460285Y-70455571D01*
X177346000Y-70512714D01*
X177288857Y-70627000D01*
X177288857Y-70855571D01*
X177346000Y-70969857D01*
X178031714Y-70455571D02*
X178088857Y-70569857D01*
X178088857Y-70855571D01*
X178031714Y-70969857D01*
X177917428Y-71027000D01*
X177803142Y-71027000D01*
X177688857Y-70969857D01*
X177631714Y-70855571D01*
X177631714Y-70569857D01*
X177574571Y-70455571D01*
X178088857Y-69884142D02*
X177288857Y-69884142D01*
X177517428Y-69884142D02*
X177403142Y-69827000D01*
X177346000Y-69769857D01*
X177288857Y-69655571D01*
X177288857Y-69541285D01*
X178088857Y-68627000D02*
X176888857Y-68627000D01*
X178031714Y-68627000D02*
X178088857Y-68741285D01*
X178088857Y-68969857D01*
X178031714Y-69084142D01*
X177974571Y-69141285D01*
X177860285Y-69198428D01*
X177517428Y-69198428D01*
X177403142Y-69141285D01*
X177346000Y-69084142D01*
X177288857Y-68969857D01*
X177288857Y-68741285D01*
X177346000Y-68627000D01*
D10*
X72792480Y-113274186D02*
X72987233Y-113388606D01*
X73042249Y-113473324D01*
X73082415Y-113627910D01*
X73037863Y-113837513D01*
X72938294Y-113962398D01*
X72853575Y-114017415D01*
X72698989Y-114057581D01*
X72140047Y-113938774D01*
X72451915Y-112471553D01*
X72940989Y-112575509D01*
X73065873Y-112675078D01*
X73120890Y-112759797D01*
X73161056Y-112914383D01*
X73131354Y-113054118D01*
X73031785Y-113179003D01*
X72947067Y-113234019D01*
X72792480Y-113274186D01*
X72303406Y-113170230D01*
X73607269Y-114250642D02*
X73815180Y-113272494D01*
X73755777Y-113551965D02*
X73855346Y-113427080D01*
X73940065Y-113372063D01*
X74094651Y-113331897D01*
X74234387Y-113361599D01*
X74515549Y-114443703D02*
X74723460Y-113465555D01*
X74827416Y-112976481D02*
X74742698Y-113031498D01*
X74797714Y-113116217D01*
X74882433Y-113061200D01*
X74827416Y-112976481D01*
X74797714Y-113116217D01*
X75857885Y-114656001D02*
X75703299Y-114696167D01*
X75423829Y-114636763D01*
X75298944Y-114537194D01*
X75243927Y-114452476D01*
X75203761Y-114297889D01*
X75292866Y-113878683D01*
X75392436Y-113753799D01*
X75477154Y-113698782D01*
X75631740Y-113658616D01*
X75911211Y-113718019D01*
X76036096Y-113817589D01*
X76471844Y-114859526D02*
X76783711Y-113392305D01*
X76730386Y-114330286D02*
X77030785Y-114978333D01*
X77238697Y-114000185D02*
X76560949Y-114440320D01*
X78777477Y-115349604D02*
X79089345Y-113882382D01*
X79355656Y-115034353D01*
X80067493Y-114090294D01*
X79755625Y-115557515D01*
X80663905Y-115750576D02*
X80539020Y-115651007D01*
X80484004Y-115566288D01*
X80443838Y-115411702D01*
X80532943Y-114992496D01*
X80632512Y-114867611D01*
X80717230Y-114812594D01*
X80871817Y-114772428D01*
X81081420Y-114816981D01*
X81206304Y-114916550D01*
X81261321Y-115001269D01*
X81301487Y-115155855D01*
X81212382Y-115575061D01*
X81112813Y-115699946D01*
X81028094Y-115754963D01*
X80873508Y-115795129D01*
X80663905Y-115750576D01*
X82618509Y-115143699D02*
X82410597Y-116121847D01*
X81989700Y-115010042D02*
X81826340Y-115778586D01*
X81866506Y-115933173D01*
X81991391Y-116032742D01*
X82200994Y-116077294D01*
X82355580Y-116037128D01*
X82440299Y-115982112D01*
X83317186Y-115292208D02*
X83109274Y-116270355D01*
X83287484Y-115431943D02*
X83372203Y-115376926D01*
X83526789Y-115336760D01*
X83736392Y-115381313D01*
X83861276Y-115480882D01*
X83901442Y-115635468D01*
X83738083Y-116404013D01*
X84435069Y-115529821D02*
X84994010Y-115648628D01*
X84748628Y-115085300D02*
X84481313Y-116342918D01*
X84521479Y-116497504D01*
X84646363Y-116597074D01*
X84786098Y-116626775D01*
X85848965Y-116779670D02*
X85694378Y-116819836D01*
X85414908Y-116760433D01*
X85290023Y-116660864D01*
X85249857Y-116506277D01*
X85368664Y-115947336D01*
X85468233Y-115822451D01*
X85622819Y-115782285D01*
X85902290Y-115841689D01*
X86027175Y-115941258D01*
X86067341Y-116095844D01*
X86037639Y-116235580D01*
X85309260Y-116226807D01*
X87161600Y-117131704D02*
X87473467Y-115664482D01*
X87176451Y-117061836D02*
X87021864Y-117102002D01*
X86742394Y-117042599D01*
X86617509Y-116943029D01*
X86562492Y-116858311D01*
X86522326Y-116703725D01*
X86611431Y-116284519D01*
X86711001Y-116159634D01*
X86795719Y-116104617D01*
X86950305Y-116064451D01*
X87229776Y-116123854D01*
X87354661Y-116223424D01*
X89709233Y-116139709D02*
X89486471Y-117187724D01*
X89372051Y-117382477D01*
X89202613Y-117492510D01*
X88978160Y-117517825D01*
X88838424Y-117488124D01*
X90305646Y-117799991D02*
X90180761Y-117700422D01*
X90125744Y-117615703D01*
X90085578Y-117461117D01*
X90174683Y-117041911D01*
X90274253Y-116917027D01*
X90358971Y-116862010D01*
X90513557Y-116821844D01*
X90723160Y-116866396D01*
X90848045Y-116965966D01*
X90903062Y-117050684D01*
X90943228Y-117205270D01*
X90854123Y-117624476D01*
X90754553Y-117749361D01*
X90669835Y-117804378D01*
X90515249Y-117844544D01*
X90305646Y-117799991D01*
X91491705Y-117029755D02*
X91633132Y-118082157D01*
X92190382Y-117178264D02*
X91633132Y-118082157D01*
X91419142Y-118401794D01*
X91334424Y-118456811D01*
X91179837Y-118496977D01*
X92486395Y-118190500D02*
X92611279Y-118290069D01*
X92890750Y-118349472D01*
X93045336Y-118309306D01*
X93144906Y-118184422D01*
X93159756Y-118114554D01*
X93119590Y-117959968D01*
X92994706Y-117860398D01*
X92785103Y-117815846D01*
X92660218Y-117716277D01*
X92620052Y-117561690D01*
X92634903Y-117491823D01*
X92734472Y-117366938D01*
X92889059Y-117326772D01*
X93098662Y-117371325D01*
X93223546Y-117470894D01*
X93727471Y-117504982D02*
X94286412Y-117623789D01*
X94041030Y-117060461D02*
X93773715Y-118318079D01*
X93813881Y-118472665D01*
X93938765Y-118572235D01*
X94078501Y-118601936D01*
X94567574Y-118705892D02*
X94775486Y-117727745D01*
X94879442Y-117238671D02*
X94794723Y-117293688D01*
X94849740Y-117378406D01*
X94934459Y-117323389D01*
X94879442Y-117238671D01*
X94849740Y-117378406D01*
X95909911Y-118918190D02*
X95755325Y-118958356D01*
X95475854Y-118898953D01*
X95350970Y-118799384D01*
X95295953Y-118714665D01*
X95255787Y-118560079D01*
X95344892Y-118140873D01*
X95444461Y-118015988D01*
X95529180Y-117960972D01*
X95683766Y-117920806D01*
X95963237Y-117980209D01*
X96088121Y-118079778D01*
X96523870Y-119121716D02*
X96835737Y-117654494D01*
X96782412Y-118592476D02*
X97082811Y-119240522D01*
X97290723Y-118262375D02*
X96612975Y-118702510D01*
X99481936Y-118947204D02*
X99676688Y-119061625D01*
X99731705Y-119146343D01*
X99771871Y-119300929D01*
X99727319Y-119510532D01*
X99627749Y-119635417D01*
X99543031Y-119690434D01*
X99388445Y-119730600D01*
X98829503Y-119611793D01*
X99141371Y-118144572D01*
X99630445Y-118248528D01*
X99755329Y-118348097D01*
X99810346Y-118432816D01*
X99850512Y-118587402D01*
X99820810Y-118727137D01*
X99721241Y-118852022D01*
X99636522Y-118907038D01*
X99481936Y-118947204D01*
X98992862Y-118843249D01*
X100506328Y-119968213D02*
X100381443Y-119868644D01*
X100326426Y-119783925D01*
X100286260Y-119629339D01*
X100375365Y-119210133D01*
X100474935Y-119085248D01*
X100559653Y-119030232D01*
X100714239Y-118990066D01*
X100923842Y-119034618D01*
X101048727Y-119134187D01*
X101103744Y-119218906D01*
X101143910Y-119373492D01*
X101054805Y-119792698D01*
X100955236Y-119917583D01*
X100870517Y-119972600D01*
X100715931Y-120012766D01*
X100506328Y-119968213D01*
X102253020Y-120339484D02*
X102416379Y-119570940D01*
X102376213Y-119416353D01*
X102251329Y-119316784D01*
X101971858Y-119257381D01*
X101817272Y-119297547D01*
X102267871Y-120269616D02*
X102113285Y-120309782D01*
X101763946Y-120235528D01*
X101639062Y-120135959D01*
X101598896Y-119981373D01*
X101628597Y-119841637D01*
X101728167Y-119716753D01*
X101882753Y-119676587D01*
X102232091Y-119750841D01*
X102386677Y-119710675D01*
X102951697Y-120487992D02*
X103159608Y-119509845D01*
X103100205Y-119789316D02*
X103199774Y-119664431D01*
X103284493Y-119609414D01*
X103439079Y-119569248D01*
X103578815Y-119598950D01*
X104488786Y-120814711D02*
X104800653Y-119347489D01*
X104503637Y-120744843D02*
X104349050Y-120785009D01*
X104069580Y-120725606D01*
X103944695Y-120626036D01*
X103889678Y-120541318D01*
X103849512Y-120386732D01*
X103938617Y-119967526D01*
X104038187Y-119842641D01*
X104122905Y-119787624D01*
X104277491Y-119747458D01*
X104556962Y-119806862D01*
X104681847Y-119906431D01*
D12*
G36*
X124889943Y-114066248D02*
G01*
X125445189Y-114296238D01*
X125445190Y-114296239D01*
X125944899Y-114630134D01*
X126369866Y-115055101D01*
X126369867Y-115055103D01*
X126703762Y-115554811D01*
X126933752Y-116110057D01*
X127051000Y-116699501D01*
X127051000Y-117300499D01*
X126933752Y-117889943D01*
X126703762Y-118445189D01*
X126703761Y-118445190D01*
X126369866Y-118944899D01*
X125944899Y-119369866D01*
X125693347Y-119537948D01*
X125445189Y-119703762D01*
X124889943Y-119933752D01*
X124300499Y-120051000D01*
X123699501Y-120051000D01*
X123110057Y-119933752D01*
X122554811Y-119703762D01*
X122306653Y-119537948D01*
X122055101Y-119369866D01*
X121630134Y-118944899D01*
X121296239Y-118445190D01*
X121296238Y-118445189D01*
X121066248Y-117889943D01*
X120949000Y-117300499D01*
X120949000Y-116699501D01*
X121066248Y-116110057D01*
X121296238Y-115554811D01*
X121630133Y-115055103D01*
X121630134Y-115055101D01*
X122055101Y-114630134D01*
X122554810Y-114296239D01*
X122554811Y-114296238D01*
X123110057Y-114066248D01*
X123699501Y-113949000D01*
X124300499Y-113949000D01*
X124889943Y-114066248D01*
G37*
G36*
X116889943Y-114066248D02*
G01*
X117445189Y-114296238D01*
X117445190Y-114296239D01*
X117944899Y-114630134D01*
X118369866Y-115055101D01*
X118369867Y-115055103D01*
X118703762Y-115554811D01*
X118933752Y-116110057D01*
X119051000Y-116699501D01*
X119051000Y-117300499D01*
X118933752Y-117889943D01*
X118703762Y-118445189D01*
X118703761Y-118445190D01*
X118369866Y-118944899D01*
X117944899Y-119369866D01*
X117693347Y-119537948D01*
X117445189Y-119703762D01*
X116889943Y-119933752D01*
X116300499Y-120051000D01*
X115699501Y-120051000D01*
X115110057Y-119933752D01*
X114554811Y-119703762D01*
X114306653Y-119537948D01*
X114055101Y-119369866D01*
X113630134Y-118944899D01*
X113296239Y-118445190D01*
X113296238Y-118445189D01*
X113066248Y-117889943D01*
X112949000Y-117300499D01*
X112949000Y-116699501D01*
X113066248Y-116110057D01*
X113296238Y-115554811D01*
X113630133Y-115055103D01*
X113630134Y-115055101D01*
X114055101Y-114630134D01*
X114554810Y-114296239D01*
X114554811Y-114296238D01*
X115110057Y-114066248D01*
X115699501Y-113949000D01*
X116300499Y-113949000D01*
X116889943Y-114066248D01*
G37*
G36*
X140889943Y-114066248D02*
G01*
X141445189Y-114296238D01*
X141445190Y-114296239D01*
X141944899Y-114630134D01*
X142369866Y-115055101D01*
X142369867Y-115055103D01*
X142703762Y-115554811D01*
X142933752Y-116110057D01*
X143051000Y-116699501D01*
X143051000Y-117300499D01*
X142933752Y-117889943D01*
X142703762Y-118445189D01*
X142703761Y-118445190D01*
X142369866Y-118944899D01*
X141944899Y-119369866D01*
X141693347Y-119537948D01*
X141445189Y-119703762D01*
X140889943Y-119933752D01*
X140300499Y-120051000D01*
X139699501Y-120051000D01*
X139110057Y-119933752D01*
X138554811Y-119703762D01*
X138306653Y-119537948D01*
X138055101Y-119369866D01*
X137630134Y-118944899D01*
X137296239Y-118445190D01*
X137296238Y-118445189D01*
X137066248Y-117889943D01*
X136949000Y-117300499D01*
X136949000Y-116699501D01*
X137066248Y-116110057D01*
X137296238Y-115554811D01*
X137630133Y-115055103D01*
X137630134Y-115055101D01*
X138055101Y-114630134D01*
X138554810Y-114296239D01*
X138554811Y-114296238D01*
X139110057Y-114066248D01*
X139699501Y-113949000D01*
X140300499Y-113949000D01*
X140889943Y-114066248D01*
G37*
G36*
X132889943Y-114066248D02*
G01*
X133445189Y-114296238D01*
X133445190Y-114296239D01*
X133944899Y-114630134D01*
X134369866Y-115055101D01*
X134369867Y-115055103D01*
X134703762Y-115554811D01*
X134933752Y-116110057D01*
X135051000Y-116699501D01*
X135051000Y-117300499D01*
X134933752Y-117889943D01*
X134703762Y-118445189D01*
X134703761Y-118445190D01*
X134369866Y-118944899D01*
X133944899Y-119369866D01*
X133693347Y-119537948D01*
X133445189Y-119703762D01*
X132889943Y-119933752D01*
X132300499Y-120051000D01*
X131699501Y-120051000D01*
X131110057Y-119933752D01*
X130554811Y-119703762D01*
X130306653Y-119537948D01*
X130055101Y-119369866D01*
X129630134Y-118944899D01*
X129296239Y-118445190D01*
X129296238Y-118445189D01*
X129066248Y-117889943D01*
X128949000Y-117300499D01*
X128949000Y-116699501D01*
X129066248Y-116110057D01*
X129296238Y-115554811D01*
X129630133Y-115055103D01*
X129630134Y-115055101D01*
X130055101Y-114630134D01*
X130554810Y-114296239D01*
X130554811Y-114296238D01*
X131110057Y-114066248D01*
X131699501Y-113949000D01*
X132300499Y-113949000D01*
X132889943Y-114066248D01*
G37*
G36*
X156121632Y-107764677D02*
G01*
X156427005Y-107891167D01*
X156858868Y-108070050D01*
X157522362Y-108513383D01*
X158086617Y-109077638D01*
X158529950Y-109741132D01*
X158708833Y-110172995D01*
X158835323Y-110478368D01*
X158991000Y-111261010D01*
X158991000Y-112058990D01*
X158835323Y-112841632D01*
X158708833Y-113147005D01*
X158529950Y-113578868D01*
X158086617Y-114242362D01*
X157522362Y-114806617D01*
X156858868Y-115249950D01*
X156427005Y-115428833D01*
X156121632Y-115555323D01*
X155338990Y-115711000D01*
X154541010Y-115711000D01*
X153758368Y-115555323D01*
X153452995Y-115428833D01*
X153021132Y-115249950D01*
X152357638Y-114806617D01*
X151793383Y-114242362D01*
X151350050Y-113578868D01*
X151171167Y-113147005D01*
X151044677Y-112841632D01*
X150889000Y-112058990D01*
X150889000Y-111261010D01*
X151044677Y-110478368D01*
X151171167Y-110172995D01*
X151350050Y-109741132D01*
X151793383Y-109077638D01*
X152357638Y-108513383D01*
X153021132Y-108070050D01*
X153452995Y-107891167D01*
X153758368Y-107764677D01*
X154541010Y-107609000D01*
X155338990Y-107609000D01*
X156121632Y-107764677D01*
G37*
G36*
X102781632Y-107764677D02*
G01*
X103087005Y-107891167D01*
X103518868Y-108070050D01*
X104182362Y-108513383D01*
X104746617Y-109077638D01*
X105189950Y-109741132D01*
X105368833Y-110172995D01*
X105495323Y-110478368D01*
X105651000Y-111261010D01*
X105651000Y-112058990D01*
X105495323Y-112841632D01*
X105368833Y-113147005D01*
X105189950Y-113578868D01*
X104746617Y-114242362D01*
X104182362Y-114806617D01*
X103518868Y-115249950D01*
X103087005Y-115428833D01*
X102781632Y-115555323D01*
X101998990Y-115711000D01*
X101201010Y-115711000D01*
X100418368Y-115555323D01*
X100112995Y-115428833D01*
X99681132Y-115249950D01*
X99017638Y-114806617D01*
X98453383Y-114242362D01*
X98010050Y-113578868D01*
X97831167Y-113147005D01*
X97704677Y-112841632D01*
X97549000Y-112058990D01*
X97549000Y-111261010D01*
X97704677Y-110478368D01*
X97831167Y-110172995D01*
X98010050Y-109741132D01*
X98453383Y-109077638D01*
X99017638Y-108513383D01*
X99681132Y-108070050D01*
X100112995Y-107891167D01*
X100418368Y-107764677D01*
X101201010Y-107609000D01*
X101998990Y-107609000D01*
X102781632Y-107764677D01*
G37*
G36*
X141262632Y-99764677D02*
G01*
X141568005Y-99891167D01*
X141999868Y-100070050D01*
X142663362Y-100513383D01*
X143227617Y-101077638D01*
X143670950Y-101741132D01*
X143849833Y-102172995D01*
X143976323Y-102478368D01*
X144132000Y-103261010D01*
X144132000Y-104058990D01*
X143976323Y-104841632D01*
X143849833Y-105147005D01*
X143670950Y-105578868D01*
X143227617Y-106242362D01*
X142663362Y-106806617D01*
X141999868Y-107249950D01*
X141568005Y-107428833D01*
X141262632Y-107555323D01*
X140479990Y-107711000D01*
X139682010Y-107711000D01*
X138899368Y-107555323D01*
X138593995Y-107428833D01*
X138162132Y-107249950D01*
X137498638Y-106806617D01*
X136934383Y-106242362D01*
X136491050Y-105578868D01*
X136312167Y-105147005D01*
X136185677Y-104841632D01*
X136030000Y-104058990D01*
X136030000Y-103261010D01*
X136185677Y-102478368D01*
X136312167Y-102172995D01*
X136491050Y-101741132D01*
X136934383Y-101077638D01*
X137498638Y-100513383D01*
X138162132Y-100070050D01*
X138593995Y-99891167D01*
X138899368Y-99764677D01*
X139682010Y-99609000D01*
X140479990Y-99609000D01*
X141262632Y-99764677D01*
G37*
G36*
X117781632Y-99764677D02*
G01*
X118087005Y-99891167D01*
X118518868Y-100070050D01*
X119182362Y-100513383D01*
X119746617Y-101077638D01*
X120189950Y-101741132D01*
X120368833Y-102172995D01*
X120495323Y-102478368D01*
X120651000Y-103261010D01*
X120651000Y-104058990D01*
X120495323Y-104841632D01*
X120368833Y-105147005D01*
X120189950Y-105578868D01*
X119746617Y-106242362D01*
X119182362Y-106806617D01*
X118518868Y-107249950D01*
X118087005Y-107428833D01*
X117781632Y-107555323D01*
X116998990Y-107711000D01*
X116201010Y-107711000D01*
X115418368Y-107555323D01*
X115112995Y-107428833D01*
X114681132Y-107249950D01*
X114017638Y-106806617D01*
X113453383Y-106242362D01*
X113010050Y-105578868D01*
X112831167Y-105147005D01*
X112704677Y-104841632D01*
X112549000Y-104058990D01*
X112549000Y-103261010D01*
X112704677Y-102478368D01*
X112831167Y-102172995D01*
X113010050Y-101741132D01*
X113453383Y-101077638D01*
X114017638Y-100513383D01*
X114681132Y-100070050D01*
X115112995Y-99891167D01*
X115418368Y-99764677D01*
X116201010Y-99609000D01*
X116998990Y-99609000D01*
X117781632Y-99764677D01*
G37*
G36*
X87922632Y-99764677D02*
G01*
X88228005Y-99891167D01*
X88659868Y-100070050D01*
X89323362Y-100513383D01*
X89887617Y-101077638D01*
X90330950Y-101741132D01*
X90509833Y-102172995D01*
X90636323Y-102478368D01*
X90792000Y-103261010D01*
X90792000Y-104058990D01*
X90636323Y-104841632D01*
X90509833Y-105147005D01*
X90330950Y-105578868D01*
X89887617Y-106242362D01*
X89323362Y-106806617D01*
X88659868Y-107249950D01*
X88228005Y-107428833D01*
X87922632Y-107555323D01*
X87139990Y-107711000D01*
X86342010Y-107711000D01*
X85559368Y-107555323D01*
X85253995Y-107428833D01*
X84822132Y-107249950D01*
X84158638Y-106806617D01*
X83594383Y-106242362D01*
X83151050Y-105578868D01*
X82972167Y-105147005D01*
X82845677Y-104841632D01*
X82690000Y-104058990D01*
X82690000Y-103261010D01*
X82845677Y-102478368D01*
X82972167Y-102172995D01*
X83151050Y-101741132D01*
X83594383Y-101077638D01*
X84158638Y-100513383D01*
X84822132Y-100070050D01*
X85253995Y-99891167D01*
X85559368Y-99764677D01*
X86342010Y-99609000D01*
X87139990Y-99609000D01*
X87922632Y-99764677D01*
G37*
G36*
X171121632Y-99764677D02*
G01*
X171427005Y-99891167D01*
X171858868Y-100070050D01*
X172522362Y-100513383D01*
X173086617Y-101077638D01*
X173529950Y-101741132D01*
X173708833Y-102172995D01*
X173835323Y-102478368D01*
X173991000Y-103261010D01*
X173991000Y-104058990D01*
X173835323Y-104841632D01*
X173708833Y-105147005D01*
X173529950Y-105578868D01*
X173086617Y-106242362D01*
X172522362Y-106806617D01*
X171858868Y-107249950D01*
X171427005Y-107428833D01*
X171121632Y-107555323D01*
X170338990Y-107711000D01*
X169541010Y-107711000D01*
X168758368Y-107555323D01*
X168452995Y-107428833D01*
X168021132Y-107249950D01*
X167357638Y-106806617D01*
X166793383Y-106242362D01*
X166350050Y-105578868D01*
X166171167Y-105147005D01*
X166044677Y-104841632D01*
X165889000Y-104058990D01*
X165889000Y-103261010D01*
X166044677Y-102478368D01*
X166171167Y-102172995D01*
X166350050Y-101741132D01*
X166793383Y-101077638D01*
X167357638Y-100513383D01*
X168021132Y-100070050D01*
X168452995Y-99891167D01*
X168758368Y-99764677D01*
X169541010Y-99609000D01*
X170338990Y-99609000D01*
X171121632Y-99764677D01*
G37*
G36*
X68889943Y-98066248D02*
G01*
X69445189Y-98296238D01*
X69445190Y-98296239D01*
X69944899Y-98630134D01*
X70369866Y-99055101D01*
X70369867Y-99055103D01*
X70703762Y-99554811D01*
X70933752Y-100110057D01*
X71051000Y-100699501D01*
X71051000Y-101300499D01*
X70933752Y-101889943D01*
X70703762Y-102445189D01*
X70703761Y-102445190D01*
X70369866Y-102944899D01*
X69944899Y-103369866D01*
X69693347Y-103537948D01*
X69445189Y-103703762D01*
X68889943Y-103933752D01*
X68300499Y-104051000D01*
X67699501Y-104051000D01*
X67110057Y-103933752D01*
X66554811Y-103703762D01*
X66306653Y-103537948D01*
X66055101Y-103369866D01*
X65630134Y-102944899D01*
X65296239Y-102445190D01*
X65296238Y-102445189D01*
X65066248Y-101889943D01*
X64949000Y-101300499D01*
X64949000Y-100699501D01*
X65066248Y-100110057D01*
X65296238Y-99554811D01*
X65630133Y-99055103D01*
X65630134Y-99055101D01*
X66055101Y-98630134D01*
X66554810Y-98296239D01*
X66554811Y-98296238D01*
X67110057Y-98066248D01*
X67699501Y-97949000D01*
X68300499Y-97949000D01*
X68889943Y-98066248D01*
G37*
G36*
X188889943Y-98066248D02*
G01*
X189445189Y-98296238D01*
X189445190Y-98296239D01*
X189944899Y-98630134D01*
X190369866Y-99055101D01*
X190369867Y-99055103D01*
X190703762Y-99554811D01*
X190933752Y-100110057D01*
X191051000Y-100699501D01*
X191051000Y-101300499D01*
X190933752Y-101889943D01*
X190703762Y-102445189D01*
X190703761Y-102445190D01*
X190369866Y-102944899D01*
X189944899Y-103369866D01*
X189693347Y-103537948D01*
X189445189Y-103703762D01*
X188889943Y-103933752D01*
X188300499Y-104051000D01*
X187699501Y-104051000D01*
X187110057Y-103933752D01*
X186554811Y-103703762D01*
X186306653Y-103537948D01*
X186055101Y-103369866D01*
X185630134Y-102944899D01*
X185296239Y-102445190D01*
X185296238Y-102445189D01*
X185066248Y-101889943D01*
X184949000Y-101300499D01*
X184949000Y-100699501D01*
X185066248Y-100110057D01*
X185296238Y-99554811D01*
X185630133Y-99055103D01*
X185630134Y-99055101D01*
X186055101Y-98630134D01*
X186554810Y-98296239D01*
X186554811Y-98296238D01*
X187110057Y-98066248D01*
X187699501Y-97949000D01*
X188300499Y-97949000D01*
X188889943Y-98066248D01*
G37*
G36*
X68889943Y-90066248D02*
G01*
X69445189Y-90296238D01*
X69445190Y-90296239D01*
X69944899Y-90630134D01*
X70369866Y-91055101D01*
X70369867Y-91055103D01*
X70703762Y-91554811D01*
X70933752Y-92110057D01*
X71051000Y-92699501D01*
X71051000Y-93300499D01*
X70933752Y-93889943D01*
X70703762Y-94445189D01*
X70703761Y-94445190D01*
X70369866Y-94944899D01*
X69944899Y-95369866D01*
X69693347Y-95537948D01*
X69445189Y-95703762D01*
X68889943Y-95933752D01*
X68300499Y-96051000D01*
X67699501Y-96051000D01*
X67110057Y-95933752D01*
X66554811Y-95703762D01*
X66306653Y-95537948D01*
X66055101Y-95369866D01*
X65630134Y-94944899D01*
X65296239Y-94445190D01*
X65296238Y-94445189D01*
X65066248Y-93889943D01*
X64949000Y-93300499D01*
X64949000Y-92699501D01*
X65066248Y-92110057D01*
X65296238Y-91554811D01*
X65630133Y-91055103D01*
X65630134Y-91055101D01*
X66055101Y-90630134D01*
X66554810Y-90296239D01*
X66554811Y-90296238D01*
X67110057Y-90066248D01*
X67699501Y-89949000D01*
X68300499Y-89949000D01*
X68889943Y-90066248D01*
G37*
G36*
X188889943Y-90066248D02*
G01*
X189445189Y-90296238D01*
X189445190Y-90296239D01*
X189944899Y-90630134D01*
X190369866Y-91055101D01*
X190369867Y-91055103D01*
X190703762Y-91554811D01*
X190933752Y-92110057D01*
X191051000Y-92699501D01*
X191051000Y-93300499D01*
X190933752Y-93889943D01*
X190703762Y-94445189D01*
X190703761Y-94445190D01*
X190369866Y-94944899D01*
X189944899Y-95369866D01*
X189693347Y-95537948D01*
X189445189Y-95703762D01*
X188889943Y-95933752D01*
X188300499Y-96051000D01*
X187699501Y-96051000D01*
X187110057Y-95933752D01*
X186554811Y-95703762D01*
X186306653Y-95537948D01*
X186055101Y-95369866D01*
X185630134Y-94944899D01*
X185296239Y-94445190D01*
X185296238Y-94445189D01*
X185066248Y-93889943D01*
X184949000Y-93300499D01*
X184949000Y-92699501D01*
X185066248Y-92110057D01*
X185296238Y-91554811D01*
X185630133Y-91055103D01*
X185630134Y-91055101D01*
X186055101Y-90630134D01*
X186554810Y-90296239D01*
X186554811Y-90296238D01*
X187110057Y-90066248D01*
X187699501Y-89949000D01*
X188300499Y-89949000D01*
X188889943Y-90066248D01*
G37*
G36*
X68889943Y-82066248D02*
G01*
X69445189Y-82296238D01*
X69693347Y-82462052D01*
X69944899Y-82630134D01*
X70369866Y-83055101D01*
X70369867Y-83055103D01*
X70703762Y-83554811D01*
X70933752Y-84110057D01*
X71051000Y-84699501D01*
X71051000Y-85300499D01*
X70933752Y-85889943D01*
X70703762Y-86445189D01*
X70703761Y-86445190D01*
X70369866Y-86944899D01*
X69944899Y-87369866D01*
X69693347Y-87537948D01*
X69445189Y-87703762D01*
X68889943Y-87933752D01*
X68300499Y-88051000D01*
X67699501Y-88051000D01*
X67110057Y-87933752D01*
X66554811Y-87703762D01*
X66306653Y-87537948D01*
X66055101Y-87369866D01*
X65630134Y-86944899D01*
X65296239Y-86445190D01*
X65296238Y-86445189D01*
X65066248Y-85889943D01*
X64949000Y-85300499D01*
X64949000Y-84699501D01*
X65066248Y-84110057D01*
X65296238Y-83554811D01*
X65630133Y-83055103D01*
X65630134Y-83055101D01*
X66055101Y-82630134D01*
X66306653Y-82462052D01*
X66554811Y-82296238D01*
X67110057Y-82066248D01*
X67699501Y-81949000D01*
X68300499Y-81949000D01*
X68889943Y-82066248D01*
G37*
G36*
X188889943Y-82066248D02*
G01*
X189445189Y-82296238D01*
X189693347Y-82462052D01*
X189944899Y-82630134D01*
X190369866Y-83055101D01*
X190369867Y-83055103D01*
X190703762Y-83554811D01*
X190933752Y-84110057D01*
X191051000Y-84699501D01*
X191051000Y-85300499D01*
X190933752Y-85889943D01*
X190703762Y-86445189D01*
X190703761Y-86445190D01*
X190369866Y-86944899D01*
X189944899Y-87369866D01*
X189693347Y-87537948D01*
X189445189Y-87703762D01*
X188889943Y-87933752D01*
X188300499Y-88051000D01*
X187699501Y-88051000D01*
X187110057Y-87933752D01*
X186554811Y-87703762D01*
X186306653Y-87537948D01*
X186055101Y-87369866D01*
X185630134Y-86944899D01*
X185296239Y-86445190D01*
X185296238Y-86445189D01*
X185066248Y-85889943D01*
X184949000Y-85300499D01*
X184949000Y-84699501D01*
X185066248Y-84110057D01*
X185296238Y-83554811D01*
X185630133Y-83055103D01*
X185630134Y-83055101D01*
X186055101Y-82630134D01*
X186306653Y-82462052D01*
X186554811Y-82296238D01*
X187110057Y-82066248D01*
X187699501Y-81949000D01*
X188300499Y-81949000D01*
X188889943Y-82066248D01*
G37*
G36*
X171221632Y-78064677D02*
G01*
X171527005Y-78191167D01*
X171958868Y-78370050D01*
X172622362Y-78813383D01*
X173186617Y-79377638D01*
X173629950Y-80041132D01*
X173634037Y-80051000D01*
X173935323Y-80778368D01*
X174091000Y-81561010D01*
X174091000Y-82358990D01*
X173935323Y-83141632D01*
X173808833Y-83447005D01*
X173629950Y-83878868D01*
X173186617Y-84542362D01*
X172622362Y-85106617D01*
X171958868Y-85549950D01*
X171527005Y-85728833D01*
X171221632Y-85855323D01*
X170438990Y-86011000D01*
X169641010Y-86011000D01*
X168858368Y-85855323D01*
X168552995Y-85728833D01*
X168121132Y-85549950D01*
X167457638Y-85106617D01*
X166893383Y-84542362D01*
X166450050Y-83878868D01*
X166271167Y-83447005D01*
X166144677Y-83141632D01*
X165989000Y-82358990D01*
X165989000Y-81561010D01*
X166144677Y-80778368D01*
X166445963Y-80051000D01*
X166450050Y-80041132D01*
X166893383Y-79377638D01*
X167457638Y-78813383D01*
X168121132Y-78370050D01*
X168552995Y-78191167D01*
X168858368Y-78064677D01*
X169641010Y-77909000D01*
X170438990Y-77909000D01*
X171221632Y-78064677D01*
G37*
G36*
X141121632Y-78064677D02*
G01*
X141427005Y-78191167D01*
X141858868Y-78370050D01*
X142522362Y-78813383D01*
X143086617Y-79377638D01*
X143529950Y-80041132D01*
X143534037Y-80051000D01*
X143835323Y-80778368D01*
X143991000Y-81561010D01*
X143991000Y-82358990D01*
X143835323Y-83141632D01*
X143708833Y-83447005D01*
X143529950Y-83878868D01*
X143086617Y-84542362D01*
X142522362Y-85106617D01*
X141858868Y-85549950D01*
X141427005Y-85728833D01*
X141121632Y-85855323D01*
X140338990Y-86011000D01*
X139541010Y-86011000D01*
X138758368Y-85855323D01*
X138452995Y-85728833D01*
X138021132Y-85549950D01*
X137357638Y-85106617D01*
X136793383Y-84542362D01*
X136350050Y-83878868D01*
X136171167Y-83447005D01*
X136044677Y-83141632D01*
X135889000Y-82358990D01*
X135889000Y-81561010D01*
X136044677Y-80778368D01*
X136345963Y-80051000D01*
X136350050Y-80041132D01*
X136793383Y-79377638D01*
X137357638Y-78813383D01*
X138021132Y-78370050D01*
X138452995Y-78191167D01*
X138758368Y-78064677D01*
X139541010Y-77909000D01*
X140338990Y-77909000D01*
X141121632Y-78064677D01*
G37*
G36*
X117881632Y-78064677D02*
G01*
X118187005Y-78191167D01*
X118618868Y-78370050D01*
X119282362Y-78813383D01*
X119846617Y-79377638D01*
X120289950Y-80041132D01*
X120294037Y-80051000D01*
X120595323Y-80778368D01*
X120751000Y-81561010D01*
X120751000Y-82358990D01*
X120595323Y-83141632D01*
X120468833Y-83447005D01*
X120289950Y-83878868D01*
X119846617Y-84542362D01*
X119282362Y-85106617D01*
X118618868Y-85549950D01*
X118187005Y-85728833D01*
X117881632Y-85855323D01*
X117098990Y-86011000D01*
X116301010Y-86011000D01*
X115518368Y-85855323D01*
X115212995Y-85728833D01*
X114781132Y-85549950D01*
X114117638Y-85106617D01*
X113553383Y-84542362D01*
X113110050Y-83878868D01*
X112931167Y-83447005D01*
X112804677Y-83141632D01*
X112649000Y-82358990D01*
X112649000Y-81561010D01*
X112804677Y-80778368D01*
X113105963Y-80051000D01*
X113110050Y-80041132D01*
X113553383Y-79377638D01*
X114117638Y-78813383D01*
X114781132Y-78370050D01*
X115212995Y-78191167D01*
X115518368Y-78064677D01*
X116301010Y-77909000D01*
X117098990Y-77909000D01*
X117881632Y-78064677D01*
G37*
G36*
X87781632Y-78064677D02*
G01*
X88087005Y-78191167D01*
X88518868Y-78370050D01*
X89182362Y-78813383D01*
X89746617Y-79377638D01*
X90189950Y-80041132D01*
X90194037Y-80051000D01*
X90495323Y-80778368D01*
X90651000Y-81561010D01*
X90651000Y-82358990D01*
X90495323Y-83141632D01*
X90368833Y-83447005D01*
X90189950Y-83878868D01*
X89746617Y-84542362D01*
X89182362Y-85106617D01*
X88518868Y-85549950D01*
X88087005Y-85728833D01*
X87781632Y-85855323D01*
X86998990Y-86011000D01*
X86201010Y-86011000D01*
X85418368Y-85855323D01*
X85112995Y-85728833D01*
X84681132Y-85549950D01*
X84017638Y-85106617D01*
X83453383Y-84542362D01*
X83010050Y-83878868D01*
X82831167Y-83447005D01*
X82704677Y-83141632D01*
X82549000Y-82358990D01*
X82549000Y-81561010D01*
X82704677Y-80778368D01*
X83005963Y-80051000D01*
X83010050Y-80041132D01*
X83453383Y-79377638D01*
X84017638Y-78813383D01*
X84681132Y-78370050D01*
X85112995Y-78191167D01*
X85418368Y-78064677D01*
X86201010Y-77909000D01*
X86998990Y-77909000D01*
X87781632Y-78064677D01*
G37*
G36*
X188889943Y-74066248D02*
G01*
X189445189Y-74296238D01*
X189693347Y-74462052D01*
X189944899Y-74630134D01*
X190369866Y-75055101D01*
X190420923Y-75131513D01*
X190703762Y-75554811D01*
X190933752Y-76110057D01*
X191051000Y-76699501D01*
X191051000Y-77300499D01*
X190933752Y-77889943D01*
X190703762Y-78445189D01*
X190703761Y-78445190D01*
X190369866Y-78944899D01*
X189944899Y-79369866D01*
X189693347Y-79537948D01*
X189445189Y-79703762D01*
X188889943Y-79933752D01*
X188300499Y-80051000D01*
X187699501Y-80051000D01*
X187110057Y-79933752D01*
X186554811Y-79703762D01*
X186306653Y-79537948D01*
X186055101Y-79369866D01*
X185630134Y-78944899D01*
X185296239Y-78445190D01*
X185296238Y-78445189D01*
X185066248Y-77889943D01*
X184949000Y-77300499D01*
X184949000Y-76699501D01*
X185066248Y-76110057D01*
X185296238Y-75554811D01*
X185579077Y-75131513D01*
X185630134Y-75055101D01*
X186055101Y-74630134D01*
X186306653Y-74462052D01*
X186554811Y-74296238D01*
X187110057Y-74066248D01*
X187699501Y-73949000D01*
X188300499Y-73949000D01*
X188889943Y-74066248D01*
G37*
G36*
X68889943Y-74066248D02*
G01*
X69445189Y-74296238D01*
X69693347Y-74462052D01*
X69944899Y-74630134D01*
X70369866Y-75055101D01*
X70420923Y-75131513D01*
X70703762Y-75554811D01*
X70933752Y-76110057D01*
X71051000Y-76699501D01*
X71051000Y-77300499D01*
X70933752Y-77889943D01*
X70703762Y-78445189D01*
X70703761Y-78445190D01*
X70369866Y-78944899D01*
X69944899Y-79369866D01*
X69693347Y-79537948D01*
X69445189Y-79703762D01*
X68889943Y-79933752D01*
X68300499Y-80051000D01*
X67699501Y-80051000D01*
X67110057Y-79933752D01*
X66554811Y-79703762D01*
X66306653Y-79537948D01*
X66055101Y-79369866D01*
X65630134Y-78944899D01*
X65296239Y-78445190D01*
X65296238Y-78445189D01*
X65066248Y-77889943D01*
X64949000Y-77300499D01*
X64949000Y-76699501D01*
X65066248Y-76110057D01*
X65296238Y-75554811D01*
X65579077Y-75131513D01*
X65630134Y-75055101D01*
X66055101Y-74630134D01*
X66306653Y-74462052D01*
X66554811Y-74296238D01*
X67110057Y-74066248D01*
X67699501Y-73949000D01*
X68300499Y-73949000D01*
X68889943Y-74066248D01*
G37*
G36*
X91784254Y-72187818D02*
G01*
X92157511Y-72342426D01*
X92157513Y-72342427D01*
X92493436Y-72566884D01*
X92779116Y-72852564D01*
X92972340Y-73141743D01*
X93003574Y-73188489D01*
X93158182Y-73561746D01*
X93237000Y-73957993D01*
X93237000Y-74362007D01*
X93158182Y-74758254D01*
X93035224Y-75055101D01*
X93003573Y-75131513D01*
X92779116Y-75467436D01*
X92493436Y-75753116D01*
X92157513Y-75977573D01*
X92157512Y-75977574D01*
X92157511Y-75977574D01*
X91784254Y-76132182D01*
X91388007Y-76211000D01*
X90983993Y-76211000D01*
X90587746Y-76132182D01*
X90214489Y-75977574D01*
X90214488Y-75977574D01*
X90214487Y-75977573D01*
X89878564Y-75753116D01*
X89592884Y-75467436D01*
X89368427Y-75131513D01*
X89336776Y-75055101D01*
X89213818Y-74758254D01*
X89135000Y-74362007D01*
X89135000Y-73957993D01*
X89213818Y-73561746D01*
X89368426Y-73188489D01*
X89399661Y-73141743D01*
X89592884Y-72852564D01*
X89878564Y-72566884D01*
X90214487Y-72342427D01*
X90214489Y-72342426D01*
X90587746Y-72187818D01*
X90983993Y-72109000D01*
X91388007Y-72109000D01*
X91784254Y-72187818D01*
G37*
G36*
X166333254Y-72187818D02*
G01*
X166706511Y-72342426D01*
X166706513Y-72342427D01*
X167042436Y-72566884D01*
X167328116Y-72852564D01*
X167521340Y-73141743D01*
X167552574Y-73188489D01*
X167707182Y-73561746D01*
X167786000Y-73957993D01*
X167786000Y-74362007D01*
X167707182Y-74758254D01*
X167584224Y-75055101D01*
X167552573Y-75131513D01*
X167328116Y-75467436D01*
X167042436Y-75753116D01*
X166706513Y-75977573D01*
X166706512Y-75977574D01*
X166706511Y-75977574D01*
X166333254Y-76132182D01*
X165937007Y-76211000D01*
X165532993Y-76211000D01*
X165136746Y-76132182D01*
X164763489Y-75977574D01*
X164763488Y-75977574D01*
X164763487Y-75977573D01*
X164427564Y-75753116D01*
X164141884Y-75467436D01*
X163917427Y-75131513D01*
X163885776Y-75055101D01*
X163762818Y-74758254D01*
X163684000Y-74362007D01*
X163684000Y-73957993D01*
X163762818Y-73561746D01*
X163917426Y-73188489D01*
X163948661Y-73141743D01*
X164141884Y-72852564D01*
X164427564Y-72566884D01*
X164763487Y-72342427D01*
X164763489Y-72342426D01*
X165136746Y-72187818D01*
X165532993Y-72109000D01*
X165937007Y-72109000D01*
X166333254Y-72187818D01*
G37*
G36*
X112993254Y-72187818D02*
G01*
X113366511Y-72342426D01*
X113366513Y-72342427D01*
X113702436Y-72566884D01*
X113988116Y-72852564D01*
X114181340Y-73141743D01*
X114212574Y-73188489D01*
X114367182Y-73561746D01*
X114446000Y-73957993D01*
X114446000Y-74362007D01*
X114367182Y-74758254D01*
X114244224Y-75055101D01*
X114212573Y-75131513D01*
X113988116Y-75467436D01*
X113702436Y-75753116D01*
X113366513Y-75977573D01*
X113366512Y-75977574D01*
X113366511Y-75977574D01*
X112993254Y-76132182D01*
X112597007Y-76211000D01*
X112192993Y-76211000D01*
X111796746Y-76132182D01*
X111423489Y-75977574D01*
X111423488Y-75977574D01*
X111423487Y-75977573D01*
X111087564Y-75753116D01*
X110801884Y-75467436D01*
X110577427Y-75131513D01*
X110545776Y-75055101D01*
X110422818Y-74758254D01*
X110344000Y-74362007D01*
X110344000Y-73957993D01*
X110422818Y-73561746D01*
X110577426Y-73188489D01*
X110608661Y-73141743D01*
X110801884Y-72852564D01*
X111087564Y-72566884D01*
X111423487Y-72342427D01*
X111423489Y-72342426D01*
X111796746Y-72187818D01*
X112192993Y-72109000D01*
X112597007Y-72109000D01*
X112993254Y-72187818D01*
G37*
G36*
X145124254Y-72187818D02*
G01*
X145497511Y-72342426D01*
X145497513Y-72342427D01*
X145833436Y-72566884D01*
X146119116Y-72852564D01*
X146312340Y-73141743D01*
X146343574Y-73188489D01*
X146498182Y-73561746D01*
X146577000Y-73957993D01*
X146577000Y-74362007D01*
X146498182Y-74758254D01*
X146375224Y-75055101D01*
X146343573Y-75131513D01*
X146119116Y-75467436D01*
X145833436Y-75753116D01*
X145497513Y-75977573D01*
X145497512Y-75977574D01*
X145497511Y-75977574D01*
X145124254Y-76132182D01*
X144728007Y-76211000D01*
X144323993Y-76211000D01*
X143927746Y-76132182D01*
X143554489Y-75977574D01*
X143554488Y-75977574D01*
X143554487Y-75977573D01*
X143218564Y-75753116D01*
X142932884Y-75467436D01*
X142708427Y-75131513D01*
X142676776Y-75055101D01*
X142553818Y-74758254D01*
X142475000Y-74362007D01*
X142475000Y-73957993D01*
X142553818Y-73561746D01*
X142708426Y-73188489D01*
X142739661Y-73141743D01*
X142932884Y-72852564D01*
X143218564Y-72566884D01*
X143554487Y-72342427D01*
X143554489Y-72342426D01*
X143927746Y-72187818D01*
X144323993Y-72109000D01*
X144728007Y-72109000D01*
X145124254Y-72187818D01*
G37*
G36*
X157717142Y-72878242D02*
G01*
X157865101Y-72939529D01*
X157998255Y-73028499D01*
X158111501Y-73141745D01*
X158200471Y-73274899D01*
X158261758Y-73422858D01*
X158293000Y-73579925D01*
X158293000Y-73740075D01*
X158261758Y-73897142D01*
X158200471Y-74045101D01*
X158111501Y-74178255D01*
X157998255Y-74291501D01*
X157865101Y-74380471D01*
X157717142Y-74441758D01*
X157560075Y-74473000D01*
X157399925Y-74473000D01*
X157242858Y-74441758D01*
X157094899Y-74380471D01*
X156961745Y-74291501D01*
X156848499Y-74178255D01*
X156759529Y-74045101D01*
X156698242Y-73897142D01*
X156667000Y-73740075D01*
X156667000Y-73579925D01*
X156698242Y-73422858D01*
X156759529Y-73274899D01*
X156848499Y-73141745D01*
X156961745Y-73028499D01*
X157094899Y-72939529D01*
X157242858Y-72878242D01*
X157399925Y-72847000D01*
X157560075Y-72847000D01*
X157717142Y-72878242D01*
G37*
G36*
X160257142Y-72878242D02*
G01*
X160405101Y-72939529D01*
X160538255Y-73028499D01*
X160651501Y-73141745D01*
X160740471Y-73274899D01*
X160801758Y-73422858D01*
X160833000Y-73579925D01*
X160833000Y-73740075D01*
X160801758Y-73897142D01*
X160740471Y-74045101D01*
X160651501Y-74178255D01*
X160538255Y-74291501D01*
X160405101Y-74380471D01*
X160257142Y-74441758D01*
X160100075Y-74473000D01*
X159939925Y-74473000D01*
X159782858Y-74441758D01*
X159634899Y-74380471D01*
X159501745Y-74291501D01*
X159388499Y-74178255D01*
X159299529Y-74045101D01*
X159238242Y-73897142D01*
X159207000Y-73740075D01*
X159207000Y-73579925D01*
X159238242Y-73422858D01*
X159299529Y-73274899D01*
X159388499Y-73141745D01*
X159501745Y-73028499D01*
X159634899Y-72939529D01*
X159782858Y-72878242D01*
X159939925Y-72847000D01*
X160100075Y-72847000D01*
X160257142Y-72878242D01*
G37*
G36*
X96757142Y-72878242D02*
G01*
X96905101Y-72939529D01*
X97038255Y-73028499D01*
X97151501Y-73141745D01*
X97240471Y-73274899D01*
X97301758Y-73422858D01*
X97333000Y-73579925D01*
X97333000Y-73740075D01*
X97301758Y-73897142D01*
X97240471Y-74045101D01*
X97151501Y-74178255D01*
X97038255Y-74291501D01*
X96905101Y-74380471D01*
X96757142Y-74441758D01*
X96600075Y-74473000D01*
X96439925Y-74473000D01*
X96282858Y-74441758D01*
X96134899Y-74380471D01*
X96001745Y-74291501D01*
X95888499Y-74178255D01*
X95799529Y-74045101D01*
X95738242Y-73897142D01*
X95707000Y-73740075D01*
X95707000Y-73579925D01*
X95738242Y-73422858D01*
X95799529Y-73274899D01*
X95888499Y-73141745D01*
X96001745Y-73028499D01*
X96134899Y-72939529D01*
X96282858Y-72878242D01*
X96439925Y-72847000D01*
X96600075Y-72847000D01*
X96757142Y-72878242D01*
G37*
G36*
X99297142Y-72878242D02*
G01*
X99445101Y-72939529D01*
X99578255Y-73028499D01*
X99691501Y-73141745D01*
X99780471Y-73274899D01*
X99841758Y-73422858D01*
X99873000Y-73579925D01*
X99873000Y-73740075D01*
X99841758Y-73897142D01*
X99780471Y-74045101D01*
X99691501Y-74178255D01*
X99578255Y-74291501D01*
X99445101Y-74380471D01*
X99297142Y-74441758D01*
X99140075Y-74473000D01*
X98979925Y-74473000D01*
X98822858Y-74441758D01*
X98674899Y-74380471D01*
X98541745Y-74291501D01*
X98428499Y-74178255D01*
X98339529Y-74045101D01*
X98278242Y-73897142D01*
X98247000Y-73740075D01*
X98247000Y-73579925D01*
X98278242Y-73422858D01*
X98339529Y-73274899D01*
X98428499Y-73141745D01*
X98541745Y-73028499D01*
X98674899Y-72939529D01*
X98822858Y-72878242D01*
X98979925Y-72847000D01*
X99140075Y-72847000D01*
X99297142Y-72878242D01*
G37*
G36*
X155177142Y-72878242D02*
G01*
X155325101Y-72939529D01*
X155458255Y-73028499D01*
X155571501Y-73141745D01*
X155660471Y-73274899D01*
X155721758Y-73422858D01*
X155753000Y-73579925D01*
X155753000Y-73740075D01*
X155721758Y-73897142D01*
X155660471Y-74045101D01*
X155571501Y-74178255D01*
X155458255Y-74291501D01*
X155325101Y-74380471D01*
X155177142Y-74441758D01*
X155020075Y-74473000D01*
X154859925Y-74473000D01*
X154702858Y-74441758D01*
X154554899Y-74380471D01*
X154421745Y-74291501D01*
X154308499Y-74178255D01*
X154219529Y-74045101D01*
X154158242Y-73897142D01*
X154127000Y-73740075D01*
X154127000Y-73579925D01*
X154158242Y-73422858D01*
X154219529Y-73274899D01*
X154308499Y-73141745D01*
X154421745Y-73028499D01*
X154554899Y-72939529D01*
X154702858Y-72878242D01*
X154859925Y-72847000D01*
X155020075Y-72847000D01*
X155177142Y-72878242D01*
G37*
G36*
X152637142Y-72878242D02*
G01*
X152785101Y-72939529D01*
X152918255Y-73028499D01*
X153031501Y-73141745D01*
X153120471Y-73274899D01*
X153181758Y-73422858D01*
X153213000Y-73579925D01*
X153213000Y-73740075D01*
X153181758Y-73897142D01*
X153120471Y-74045101D01*
X153031501Y-74178255D01*
X152918255Y-74291501D01*
X152785101Y-74380471D01*
X152637142Y-74441758D01*
X152480075Y-74473000D01*
X152319925Y-74473000D01*
X152162858Y-74441758D01*
X152014899Y-74380471D01*
X151881745Y-74291501D01*
X151768499Y-74178255D01*
X151679529Y-74045101D01*
X151618242Y-73897142D01*
X151587000Y-73740075D01*
X151587000Y-73579925D01*
X151618242Y-73422858D01*
X151679529Y-73274899D01*
X151768499Y-73141745D01*
X151881745Y-73028499D01*
X152014899Y-72939529D01*
X152162858Y-72878242D01*
X152319925Y-72847000D01*
X152480075Y-72847000D01*
X152637142Y-72878242D01*
G37*
G36*
X101837142Y-72878242D02*
G01*
X101985101Y-72939529D01*
X102118255Y-73028499D01*
X102231501Y-73141745D01*
X102320471Y-73274899D01*
X102381758Y-73422858D01*
X102413000Y-73579925D01*
X102413000Y-73740075D01*
X102381758Y-73897142D01*
X102320471Y-74045101D01*
X102231501Y-74178255D01*
X102118255Y-74291501D01*
X101985101Y-74380471D01*
X101837142Y-74441758D01*
X101680075Y-74473000D01*
X101519925Y-74473000D01*
X101362858Y-74441758D01*
X101214899Y-74380471D01*
X101081745Y-74291501D01*
X100968499Y-74178255D01*
X100879529Y-74045101D01*
X100818242Y-73897142D01*
X100787000Y-73740075D01*
X100787000Y-73579925D01*
X100818242Y-73422858D01*
X100879529Y-73274899D01*
X100968499Y-73141745D01*
X101081745Y-73028499D01*
X101214899Y-72939529D01*
X101362858Y-72878242D01*
X101519925Y-72847000D01*
X101680075Y-72847000D01*
X101837142Y-72878242D01*
G37*
G36*
X106917142Y-72878242D02*
G01*
X107065101Y-72939529D01*
X107198255Y-73028499D01*
X107311501Y-73141745D01*
X107400471Y-73274899D01*
X107461758Y-73422858D01*
X107493000Y-73579925D01*
X107493000Y-73740075D01*
X107461758Y-73897142D01*
X107400471Y-74045101D01*
X107311501Y-74178255D01*
X107198255Y-74291501D01*
X107065101Y-74380471D01*
X106917142Y-74441758D01*
X106760075Y-74473000D01*
X106599925Y-74473000D01*
X106442858Y-74441758D01*
X106294899Y-74380471D01*
X106161745Y-74291501D01*
X106048499Y-74178255D01*
X105959529Y-74045101D01*
X105898242Y-73897142D01*
X105867000Y-73740075D01*
X105867000Y-73579925D01*
X105898242Y-73422858D01*
X105959529Y-73274899D01*
X106048499Y-73141745D01*
X106161745Y-73028499D01*
X106294899Y-72939529D01*
X106442858Y-72878242D01*
X106599925Y-72847000D01*
X106760075Y-72847000D01*
X106917142Y-72878242D01*
G37*
G36*
X150097142Y-72878242D02*
G01*
X150245101Y-72939529D01*
X150378255Y-73028499D01*
X150491501Y-73141745D01*
X150580471Y-73274899D01*
X150641758Y-73422858D01*
X150673000Y-73579925D01*
X150673000Y-73740075D01*
X150641758Y-73897142D01*
X150580471Y-74045101D01*
X150491501Y-74178255D01*
X150378255Y-74291501D01*
X150245101Y-74380471D01*
X150097142Y-74441758D01*
X149940075Y-74473000D01*
X149779925Y-74473000D01*
X149622858Y-74441758D01*
X149474899Y-74380471D01*
X149341745Y-74291501D01*
X149228499Y-74178255D01*
X149139529Y-74045101D01*
X149078242Y-73897142D01*
X149047000Y-73740075D01*
X149047000Y-73579925D01*
X149078242Y-73422858D01*
X149139529Y-73274899D01*
X149228499Y-73141745D01*
X149341745Y-73028499D01*
X149474899Y-72939529D01*
X149622858Y-72878242D01*
X149779925Y-72847000D01*
X149940075Y-72847000D01*
X150097142Y-72878242D01*
G37*
G36*
X104377142Y-72878242D02*
G01*
X104525101Y-72939529D01*
X104658255Y-73028499D01*
X104771501Y-73141745D01*
X104860471Y-73274899D01*
X104921758Y-73422858D01*
X104953000Y-73579925D01*
X104953000Y-73740075D01*
X104921758Y-73897142D01*
X104860471Y-74045101D01*
X104771501Y-74178255D01*
X104658255Y-74291501D01*
X104525101Y-74380471D01*
X104377142Y-74441758D01*
X104220075Y-74473000D01*
X104059925Y-74473000D01*
X103902858Y-74441758D01*
X103754899Y-74380471D01*
X103621745Y-74291501D01*
X103508499Y-74178255D01*
X103419529Y-74045101D01*
X103358242Y-73897142D01*
X103327000Y-73740075D01*
X103327000Y-73579925D01*
X103358242Y-73422858D01*
X103419529Y-73274899D01*
X103508499Y-73141745D01*
X103621745Y-73028499D01*
X103754899Y-72939529D01*
X103902858Y-72878242D01*
X104059925Y-72847000D01*
X104220075Y-72847000D01*
X104377142Y-72878242D01*
G37*
G36*
X104253512Y-65143927D02*
G01*
X104402812Y-65173624D01*
X104566784Y-65241544D01*
X104714354Y-65340147D01*
X104839853Y-65465646D01*
X104938456Y-65613216D01*
X105006376Y-65777188D01*
X105041000Y-65951259D01*
X105041000Y-66128741D01*
X105006376Y-66302812D01*
X104938456Y-66466784D01*
X104839853Y-66614354D01*
X104714354Y-66739853D01*
X104566784Y-66838456D01*
X104402812Y-66906376D01*
X104253512Y-66936073D01*
X104228742Y-66941000D01*
X104051258Y-66941000D01*
X104026488Y-66936073D01*
X103877188Y-66906376D01*
X103713216Y-66838456D01*
X103565646Y-66739853D01*
X103440147Y-66614354D01*
X103341544Y-66466784D01*
X103273624Y-66302812D01*
X103239000Y-66128741D01*
X103239000Y-65951259D01*
X103273624Y-65777188D01*
X103341544Y-65613216D01*
X103440147Y-65465646D01*
X103565646Y-65340147D01*
X103713216Y-65241544D01*
X103877188Y-65173624D01*
X104026488Y-65143927D01*
X104051258Y-65139000D01*
X104228742Y-65139000D01*
X104253512Y-65143927D01*
G37*
G36*
X107581000Y-66941000D02*
G01*
X105779000Y-66941000D01*
X105779000Y-65139000D01*
X107581000Y-65139000D01*
X107581000Y-66941000D01*
G37*
G36*
X155901000Y-66901000D02*
G01*
X154099000Y-66901000D01*
X154099000Y-65099000D01*
X155901000Y-65099000D01*
X155901000Y-66901000D01*
G37*
G36*
X157645035Y-65102241D02*
G01*
X157802812Y-65133624D01*
X157966784Y-65201544D01*
X158114354Y-65300147D01*
X158239853Y-65425646D01*
X158338456Y-65573216D01*
X158406376Y-65737188D01*
X158441000Y-65911259D01*
X158441000Y-66088741D01*
X158406376Y-66262812D01*
X158338456Y-66426784D01*
X158239853Y-66574354D01*
X158114354Y-66699853D01*
X157966784Y-66798456D01*
X157802812Y-66866376D01*
X157656065Y-66895565D01*
X157628742Y-66901000D01*
X157451258Y-66901000D01*
X157423935Y-66895565D01*
X157277188Y-66866376D01*
X157113216Y-66798456D01*
X156965646Y-66699853D01*
X156840147Y-66574354D01*
X156741544Y-66426784D01*
X156673624Y-66262812D01*
X156639000Y-66088741D01*
X156639000Y-65911259D01*
X156673624Y-65737188D01*
X156741544Y-65573216D01*
X156840147Y-65425646D01*
X156965646Y-65300147D01*
X157113216Y-65201544D01*
X157277188Y-65133624D01*
X157434965Y-65102241D01*
X157451258Y-65099000D01*
X157628742Y-65099000D01*
X157645035Y-65102241D01*
G37*
G36*
X131925035Y-65102241D02*
G01*
X132082812Y-65133624D01*
X132246784Y-65201544D01*
X132394354Y-65300147D01*
X132519853Y-65425646D01*
X132618456Y-65573216D01*
X132686376Y-65737188D01*
X132721000Y-65911259D01*
X132721000Y-66088741D01*
X132686376Y-66262812D01*
X132618456Y-66426784D01*
X132519853Y-66574354D01*
X132394354Y-66699853D01*
X132246784Y-66798456D01*
X132082812Y-66866376D01*
X131936065Y-66895565D01*
X131908742Y-66901000D01*
X131731258Y-66901000D01*
X131703935Y-66895565D01*
X131557188Y-66866376D01*
X131393216Y-66798456D01*
X131245646Y-66699853D01*
X131120147Y-66574354D01*
X131021544Y-66426784D01*
X130953624Y-66262812D01*
X130919000Y-66088741D01*
X130919000Y-65911259D01*
X130953624Y-65737188D01*
X131021544Y-65573216D01*
X131120147Y-65425646D01*
X131245646Y-65300147D01*
X131393216Y-65201544D01*
X131557188Y-65133624D01*
X131714965Y-65102241D01*
X131731258Y-65099000D01*
X131908742Y-65099000D01*
X131925035Y-65102241D01*
G37*
G36*
X129385035Y-65102241D02*
G01*
X129542812Y-65133624D01*
X129706784Y-65201544D01*
X129854354Y-65300147D01*
X129979853Y-65425646D01*
X130078456Y-65573216D01*
X130146376Y-65737188D01*
X130181000Y-65911259D01*
X130181000Y-66088741D01*
X130146376Y-66262812D01*
X130078456Y-66426784D01*
X129979853Y-66574354D01*
X129854354Y-66699853D01*
X129706784Y-66798456D01*
X129542812Y-66866376D01*
X129396065Y-66895565D01*
X129368742Y-66901000D01*
X129191258Y-66901000D01*
X129163935Y-66895565D01*
X129017188Y-66866376D01*
X128853216Y-66798456D01*
X128705646Y-66699853D01*
X128580147Y-66574354D01*
X128481544Y-66426784D01*
X128413624Y-66262812D01*
X128379000Y-66088741D01*
X128379000Y-65911259D01*
X128413624Y-65737188D01*
X128481544Y-65573216D01*
X128580147Y-65425646D01*
X128705646Y-65300147D01*
X128853216Y-65201544D01*
X129017188Y-65133624D01*
X129174965Y-65102241D01*
X129191258Y-65099000D01*
X129368742Y-65099000D01*
X129385035Y-65102241D01*
G37*
G36*
X126845035Y-65102241D02*
G01*
X127002812Y-65133624D01*
X127166784Y-65201544D01*
X127314354Y-65300147D01*
X127439853Y-65425646D01*
X127538456Y-65573216D01*
X127606376Y-65737188D01*
X127641000Y-65911259D01*
X127641000Y-66088741D01*
X127606376Y-66262812D01*
X127538456Y-66426784D01*
X127439853Y-66574354D01*
X127314354Y-66699853D01*
X127166784Y-66798456D01*
X127002812Y-66866376D01*
X126856065Y-66895565D01*
X126828742Y-66901000D01*
X126651258Y-66901000D01*
X126623935Y-66895565D01*
X126477188Y-66866376D01*
X126313216Y-66798456D01*
X126165646Y-66699853D01*
X126040147Y-66574354D01*
X125941544Y-66426784D01*
X125873624Y-66262812D01*
X125839000Y-66088741D01*
X125839000Y-65911259D01*
X125873624Y-65737188D01*
X125941544Y-65573216D01*
X126040147Y-65425646D01*
X126165646Y-65300147D01*
X126313216Y-65201544D01*
X126477188Y-65133624D01*
X126634965Y-65102241D01*
X126651258Y-65099000D01*
X126828742Y-65099000D01*
X126845035Y-65102241D01*
G37*
G36*
X124299455Y-65104435D02*
G01*
X124450836Y-65134547D01*
X124472255Y-65141045D01*
X124614854Y-65200111D01*
X124634599Y-65210665D01*
X124762936Y-65296417D01*
X124780241Y-65310618D01*
X124889382Y-65419759D01*
X124903583Y-65437064D01*
X124989335Y-65565401D01*
X124999889Y-65585146D01*
X125058955Y-65727745D01*
X125065453Y-65749164D01*
X125095565Y-65900545D01*
X125097759Y-65922825D01*
X125097759Y-66077175D01*
X125095565Y-66099455D01*
X125065453Y-66250836D01*
X125058955Y-66272255D01*
X124999889Y-66414854D01*
X124989335Y-66434599D01*
X124903583Y-66562936D01*
X124889382Y-66580241D01*
X124780241Y-66689382D01*
X124762936Y-66703583D01*
X124634599Y-66789335D01*
X124614854Y-66799889D01*
X124472255Y-66858955D01*
X124450836Y-66865453D01*
X124299455Y-66895565D01*
X124277175Y-66897759D01*
X124122825Y-66897759D01*
X124100545Y-66895565D01*
X123949164Y-66865453D01*
X123927745Y-66858955D01*
X123785146Y-66799889D01*
X123765401Y-66789335D01*
X123637064Y-66703583D01*
X123619759Y-66689382D01*
X123510618Y-66580241D01*
X123496417Y-66562936D01*
X123410665Y-66434599D01*
X123400111Y-66414854D01*
X123341045Y-66272255D01*
X123334547Y-66250836D01*
X123304435Y-66099455D01*
X123302241Y-66077175D01*
X123302241Y-65922825D01*
X123304435Y-65900545D01*
X123334547Y-65749164D01*
X123341045Y-65727745D01*
X123400111Y-65585146D01*
X123410665Y-65565401D01*
X123496417Y-65437064D01*
X123510618Y-65419759D01*
X123619759Y-65310618D01*
X123637064Y-65296417D01*
X123765401Y-65210665D01*
X123785146Y-65200111D01*
X123927745Y-65141045D01*
X123949164Y-65134547D01*
X124100545Y-65104435D01*
X124122825Y-65102241D01*
X124277175Y-65102241D01*
X124299455Y-65104435D01*
G37*
M02*
