G04 #@! TF.GenerationSoftware,KiCad,Pcbnew,5.1.5+dfsg1-2build2*
G04 #@! TF.CreationDate,2021-11-16T19:17:29+01:00*
G04 #@! TF.ProjectId,joystick-board,6a6f7973-7469-4636-9b2d-626f6172642e,rev?*
G04 #@! TF.SameCoordinates,Original*
G04 #@! TF.FileFunction,Soldermask,Bot*
G04 #@! TF.FilePolarity,Negative*
%FSLAX46Y46*%
G04 Gerber Fmt 4.6, Leading zero omitted, Abs format (unit mm)*
G04 Created by KiCad (PCBNEW 5.1.5+dfsg1-2build2) date 2021-11-16 19:17:29*
%MOMM*%
%LPD*%
G04 APERTURE LIST*
%ADD10C,0.100000*%
G04 APERTURE END LIST*
D10*
G36*
X124889943Y-114066248D02*
G01*
X125445189Y-114296238D01*
X125445190Y-114296239D01*
X125944899Y-114630134D01*
X126369866Y-115055101D01*
X126369867Y-115055103D01*
X126703762Y-115554811D01*
X126933752Y-116110057D01*
X127051000Y-116699501D01*
X127051000Y-117300499D01*
X126933752Y-117889943D01*
X126703762Y-118445189D01*
X126703761Y-118445190D01*
X126369866Y-118944899D01*
X125944899Y-119369866D01*
X125693347Y-119537948D01*
X125445189Y-119703762D01*
X124889943Y-119933752D01*
X124300499Y-120051000D01*
X123699501Y-120051000D01*
X123110057Y-119933752D01*
X122554811Y-119703762D01*
X122306653Y-119537948D01*
X122055101Y-119369866D01*
X121630134Y-118944899D01*
X121296239Y-118445190D01*
X121296238Y-118445189D01*
X121066248Y-117889943D01*
X120949000Y-117300499D01*
X120949000Y-116699501D01*
X121066248Y-116110057D01*
X121296238Y-115554811D01*
X121630133Y-115055103D01*
X121630134Y-115055101D01*
X122055101Y-114630134D01*
X122554810Y-114296239D01*
X122554811Y-114296238D01*
X123110057Y-114066248D01*
X123699501Y-113949000D01*
X124300499Y-113949000D01*
X124889943Y-114066248D01*
G37*
G36*
X116889943Y-114066248D02*
G01*
X117445189Y-114296238D01*
X117445190Y-114296239D01*
X117944899Y-114630134D01*
X118369866Y-115055101D01*
X118369867Y-115055103D01*
X118703762Y-115554811D01*
X118933752Y-116110057D01*
X119051000Y-116699501D01*
X119051000Y-117300499D01*
X118933752Y-117889943D01*
X118703762Y-118445189D01*
X118703761Y-118445190D01*
X118369866Y-118944899D01*
X117944899Y-119369866D01*
X117693347Y-119537948D01*
X117445189Y-119703762D01*
X116889943Y-119933752D01*
X116300499Y-120051000D01*
X115699501Y-120051000D01*
X115110057Y-119933752D01*
X114554811Y-119703762D01*
X114306653Y-119537948D01*
X114055101Y-119369866D01*
X113630134Y-118944899D01*
X113296239Y-118445190D01*
X113296238Y-118445189D01*
X113066248Y-117889943D01*
X112949000Y-117300499D01*
X112949000Y-116699501D01*
X113066248Y-116110057D01*
X113296238Y-115554811D01*
X113630133Y-115055103D01*
X113630134Y-115055101D01*
X114055101Y-114630134D01*
X114554810Y-114296239D01*
X114554811Y-114296238D01*
X115110057Y-114066248D01*
X115699501Y-113949000D01*
X116300499Y-113949000D01*
X116889943Y-114066248D01*
G37*
G36*
X140889943Y-114066248D02*
G01*
X141445189Y-114296238D01*
X141445190Y-114296239D01*
X141944899Y-114630134D01*
X142369866Y-115055101D01*
X142369867Y-115055103D01*
X142703762Y-115554811D01*
X142933752Y-116110057D01*
X143051000Y-116699501D01*
X143051000Y-117300499D01*
X142933752Y-117889943D01*
X142703762Y-118445189D01*
X142703761Y-118445190D01*
X142369866Y-118944899D01*
X141944899Y-119369866D01*
X141693347Y-119537948D01*
X141445189Y-119703762D01*
X140889943Y-119933752D01*
X140300499Y-120051000D01*
X139699501Y-120051000D01*
X139110057Y-119933752D01*
X138554811Y-119703762D01*
X138306653Y-119537948D01*
X138055101Y-119369866D01*
X137630134Y-118944899D01*
X137296239Y-118445190D01*
X137296238Y-118445189D01*
X137066248Y-117889943D01*
X136949000Y-117300499D01*
X136949000Y-116699501D01*
X137066248Y-116110057D01*
X137296238Y-115554811D01*
X137630133Y-115055103D01*
X137630134Y-115055101D01*
X138055101Y-114630134D01*
X138554810Y-114296239D01*
X138554811Y-114296238D01*
X139110057Y-114066248D01*
X139699501Y-113949000D01*
X140300499Y-113949000D01*
X140889943Y-114066248D01*
G37*
G36*
X132889943Y-114066248D02*
G01*
X133445189Y-114296238D01*
X133445190Y-114296239D01*
X133944899Y-114630134D01*
X134369866Y-115055101D01*
X134369867Y-115055103D01*
X134703762Y-115554811D01*
X134933752Y-116110057D01*
X135051000Y-116699501D01*
X135051000Y-117300499D01*
X134933752Y-117889943D01*
X134703762Y-118445189D01*
X134703761Y-118445190D01*
X134369866Y-118944899D01*
X133944899Y-119369866D01*
X133693347Y-119537948D01*
X133445189Y-119703762D01*
X132889943Y-119933752D01*
X132300499Y-120051000D01*
X131699501Y-120051000D01*
X131110057Y-119933752D01*
X130554811Y-119703762D01*
X130306653Y-119537948D01*
X130055101Y-119369866D01*
X129630134Y-118944899D01*
X129296239Y-118445190D01*
X129296238Y-118445189D01*
X129066248Y-117889943D01*
X128949000Y-117300499D01*
X128949000Y-116699501D01*
X129066248Y-116110057D01*
X129296238Y-115554811D01*
X129630133Y-115055103D01*
X129630134Y-115055101D01*
X130055101Y-114630134D01*
X130554810Y-114296239D01*
X130554811Y-114296238D01*
X131110057Y-114066248D01*
X131699501Y-113949000D01*
X132300499Y-113949000D01*
X132889943Y-114066248D01*
G37*
G36*
X156121632Y-107764677D02*
G01*
X156427005Y-107891167D01*
X156858868Y-108070050D01*
X157522362Y-108513383D01*
X158086617Y-109077638D01*
X158529950Y-109741132D01*
X158708833Y-110172995D01*
X158835323Y-110478368D01*
X158991000Y-111261010D01*
X158991000Y-112058990D01*
X158835323Y-112841632D01*
X158708833Y-113147005D01*
X158529950Y-113578868D01*
X158086617Y-114242362D01*
X157522362Y-114806617D01*
X156858868Y-115249950D01*
X156427005Y-115428833D01*
X156121632Y-115555323D01*
X155338990Y-115711000D01*
X154541010Y-115711000D01*
X153758368Y-115555323D01*
X153452995Y-115428833D01*
X153021132Y-115249950D01*
X152357638Y-114806617D01*
X151793383Y-114242362D01*
X151350050Y-113578868D01*
X151171167Y-113147005D01*
X151044677Y-112841632D01*
X150889000Y-112058990D01*
X150889000Y-111261010D01*
X151044677Y-110478368D01*
X151171167Y-110172995D01*
X151350050Y-109741132D01*
X151793383Y-109077638D01*
X152357638Y-108513383D01*
X153021132Y-108070050D01*
X153452995Y-107891167D01*
X153758368Y-107764677D01*
X154541010Y-107609000D01*
X155338990Y-107609000D01*
X156121632Y-107764677D01*
G37*
G36*
X102781632Y-107764677D02*
G01*
X103087005Y-107891167D01*
X103518868Y-108070050D01*
X104182362Y-108513383D01*
X104746617Y-109077638D01*
X105189950Y-109741132D01*
X105368833Y-110172995D01*
X105495323Y-110478368D01*
X105651000Y-111261010D01*
X105651000Y-112058990D01*
X105495323Y-112841632D01*
X105368833Y-113147005D01*
X105189950Y-113578868D01*
X104746617Y-114242362D01*
X104182362Y-114806617D01*
X103518868Y-115249950D01*
X103087005Y-115428833D01*
X102781632Y-115555323D01*
X101998990Y-115711000D01*
X101201010Y-115711000D01*
X100418368Y-115555323D01*
X100112995Y-115428833D01*
X99681132Y-115249950D01*
X99017638Y-114806617D01*
X98453383Y-114242362D01*
X98010050Y-113578868D01*
X97831167Y-113147005D01*
X97704677Y-112841632D01*
X97549000Y-112058990D01*
X97549000Y-111261010D01*
X97704677Y-110478368D01*
X97831167Y-110172995D01*
X98010050Y-109741132D01*
X98453383Y-109077638D01*
X99017638Y-108513383D01*
X99681132Y-108070050D01*
X100112995Y-107891167D01*
X100418368Y-107764677D01*
X101201010Y-107609000D01*
X101998990Y-107609000D01*
X102781632Y-107764677D01*
G37*
G36*
X141262632Y-99764677D02*
G01*
X141568005Y-99891167D01*
X141999868Y-100070050D01*
X142663362Y-100513383D01*
X143227617Y-101077638D01*
X143670950Y-101741132D01*
X143849833Y-102172995D01*
X143976323Y-102478368D01*
X144132000Y-103261010D01*
X144132000Y-104058990D01*
X143976323Y-104841632D01*
X143849833Y-105147005D01*
X143670950Y-105578868D01*
X143227617Y-106242362D01*
X142663362Y-106806617D01*
X141999868Y-107249950D01*
X141568005Y-107428833D01*
X141262632Y-107555323D01*
X140479990Y-107711000D01*
X139682010Y-107711000D01*
X138899368Y-107555323D01*
X138593995Y-107428833D01*
X138162132Y-107249950D01*
X137498638Y-106806617D01*
X136934383Y-106242362D01*
X136491050Y-105578868D01*
X136312167Y-105147005D01*
X136185677Y-104841632D01*
X136030000Y-104058990D01*
X136030000Y-103261010D01*
X136185677Y-102478368D01*
X136312167Y-102172995D01*
X136491050Y-101741132D01*
X136934383Y-101077638D01*
X137498638Y-100513383D01*
X138162132Y-100070050D01*
X138593995Y-99891167D01*
X138899368Y-99764677D01*
X139682010Y-99609000D01*
X140479990Y-99609000D01*
X141262632Y-99764677D01*
G37*
G36*
X117781632Y-99764677D02*
G01*
X118087005Y-99891167D01*
X118518868Y-100070050D01*
X119182362Y-100513383D01*
X119746617Y-101077638D01*
X120189950Y-101741132D01*
X120368833Y-102172995D01*
X120495323Y-102478368D01*
X120651000Y-103261010D01*
X120651000Y-104058990D01*
X120495323Y-104841632D01*
X120368833Y-105147005D01*
X120189950Y-105578868D01*
X119746617Y-106242362D01*
X119182362Y-106806617D01*
X118518868Y-107249950D01*
X118087005Y-107428833D01*
X117781632Y-107555323D01*
X116998990Y-107711000D01*
X116201010Y-107711000D01*
X115418368Y-107555323D01*
X115112995Y-107428833D01*
X114681132Y-107249950D01*
X114017638Y-106806617D01*
X113453383Y-106242362D01*
X113010050Y-105578868D01*
X112831167Y-105147005D01*
X112704677Y-104841632D01*
X112549000Y-104058990D01*
X112549000Y-103261010D01*
X112704677Y-102478368D01*
X112831167Y-102172995D01*
X113010050Y-101741132D01*
X113453383Y-101077638D01*
X114017638Y-100513383D01*
X114681132Y-100070050D01*
X115112995Y-99891167D01*
X115418368Y-99764677D01*
X116201010Y-99609000D01*
X116998990Y-99609000D01*
X117781632Y-99764677D01*
G37*
G36*
X87922632Y-99764677D02*
G01*
X88228005Y-99891167D01*
X88659868Y-100070050D01*
X89323362Y-100513383D01*
X89887617Y-101077638D01*
X90330950Y-101741132D01*
X90509833Y-102172995D01*
X90636323Y-102478368D01*
X90792000Y-103261010D01*
X90792000Y-104058990D01*
X90636323Y-104841632D01*
X90509833Y-105147005D01*
X90330950Y-105578868D01*
X89887617Y-106242362D01*
X89323362Y-106806617D01*
X88659868Y-107249950D01*
X88228005Y-107428833D01*
X87922632Y-107555323D01*
X87139990Y-107711000D01*
X86342010Y-107711000D01*
X85559368Y-107555323D01*
X85253995Y-107428833D01*
X84822132Y-107249950D01*
X84158638Y-106806617D01*
X83594383Y-106242362D01*
X83151050Y-105578868D01*
X82972167Y-105147005D01*
X82845677Y-104841632D01*
X82690000Y-104058990D01*
X82690000Y-103261010D01*
X82845677Y-102478368D01*
X82972167Y-102172995D01*
X83151050Y-101741132D01*
X83594383Y-101077638D01*
X84158638Y-100513383D01*
X84822132Y-100070050D01*
X85253995Y-99891167D01*
X85559368Y-99764677D01*
X86342010Y-99609000D01*
X87139990Y-99609000D01*
X87922632Y-99764677D01*
G37*
G36*
X171121632Y-99764677D02*
G01*
X171427005Y-99891167D01*
X171858868Y-100070050D01*
X172522362Y-100513383D01*
X173086617Y-101077638D01*
X173529950Y-101741132D01*
X173708833Y-102172995D01*
X173835323Y-102478368D01*
X173991000Y-103261010D01*
X173991000Y-104058990D01*
X173835323Y-104841632D01*
X173708833Y-105147005D01*
X173529950Y-105578868D01*
X173086617Y-106242362D01*
X172522362Y-106806617D01*
X171858868Y-107249950D01*
X171427005Y-107428833D01*
X171121632Y-107555323D01*
X170338990Y-107711000D01*
X169541010Y-107711000D01*
X168758368Y-107555323D01*
X168452995Y-107428833D01*
X168021132Y-107249950D01*
X167357638Y-106806617D01*
X166793383Y-106242362D01*
X166350050Y-105578868D01*
X166171167Y-105147005D01*
X166044677Y-104841632D01*
X165889000Y-104058990D01*
X165889000Y-103261010D01*
X166044677Y-102478368D01*
X166171167Y-102172995D01*
X166350050Y-101741132D01*
X166793383Y-101077638D01*
X167357638Y-100513383D01*
X168021132Y-100070050D01*
X168452995Y-99891167D01*
X168758368Y-99764677D01*
X169541010Y-99609000D01*
X170338990Y-99609000D01*
X171121632Y-99764677D01*
G37*
G36*
X68889943Y-98066248D02*
G01*
X69445189Y-98296238D01*
X69445190Y-98296239D01*
X69944899Y-98630134D01*
X70369866Y-99055101D01*
X70369867Y-99055103D01*
X70703762Y-99554811D01*
X70933752Y-100110057D01*
X71051000Y-100699501D01*
X71051000Y-101300499D01*
X70933752Y-101889943D01*
X70703762Y-102445189D01*
X70703761Y-102445190D01*
X70369866Y-102944899D01*
X69944899Y-103369866D01*
X69693347Y-103537948D01*
X69445189Y-103703762D01*
X68889943Y-103933752D01*
X68300499Y-104051000D01*
X67699501Y-104051000D01*
X67110057Y-103933752D01*
X66554811Y-103703762D01*
X66306653Y-103537948D01*
X66055101Y-103369866D01*
X65630134Y-102944899D01*
X65296239Y-102445190D01*
X65296238Y-102445189D01*
X65066248Y-101889943D01*
X64949000Y-101300499D01*
X64949000Y-100699501D01*
X65066248Y-100110057D01*
X65296238Y-99554811D01*
X65630133Y-99055103D01*
X65630134Y-99055101D01*
X66055101Y-98630134D01*
X66554810Y-98296239D01*
X66554811Y-98296238D01*
X67110057Y-98066248D01*
X67699501Y-97949000D01*
X68300499Y-97949000D01*
X68889943Y-98066248D01*
G37*
G36*
X188889943Y-98066248D02*
G01*
X189445189Y-98296238D01*
X189445190Y-98296239D01*
X189944899Y-98630134D01*
X190369866Y-99055101D01*
X190369867Y-99055103D01*
X190703762Y-99554811D01*
X190933752Y-100110057D01*
X191051000Y-100699501D01*
X191051000Y-101300499D01*
X190933752Y-101889943D01*
X190703762Y-102445189D01*
X190703761Y-102445190D01*
X190369866Y-102944899D01*
X189944899Y-103369866D01*
X189693347Y-103537948D01*
X189445189Y-103703762D01*
X188889943Y-103933752D01*
X188300499Y-104051000D01*
X187699501Y-104051000D01*
X187110057Y-103933752D01*
X186554811Y-103703762D01*
X186306653Y-103537948D01*
X186055101Y-103369866D01*
X185630134Y-102944899D01*
X185296239Y-102445190D01*
X185296238Y-102445189D01*
X185066248Y-101889943D01*
X184949000Y-101300499D01*
X184949000Y-100699501D01*
X185066248Y-100110057D01*
X185296238Y-99554811D01*
X185630133Y-99055103D01*
X185630134Y-99055101D01*
X186055101Y-98630134D01*
X186554810Y-98296239D01*
X186554811Y-98296238D01*
X187110057Y-98066248D01*
X187699501Y-97949000D01*
X188300499Y-97949000D01*
X188889943Y-98066248D01*
G37*
G36*
X68889943Y-90066248D02*
G01*
X69445189Y-90296238D01*
X69445190Y-90296239D01*
X69944899Y-90630134D01*
X70369866Y-91055101D01*
X70369867Y-91055103D01*
X70703762Y-91554811D01*
X70933752Y-92110057D01*
X71051000Y-92699501D01*
X71051000Y-93300499D01*
X70933752Y-93889943D01*
X70703762Y-94445189D01*
X70703761Y-94445190D01*
X70369866Y-94944899D01*
X69944899Y-95369866D01*
X69693347Y-95537948D01*
X69445189Y-95703762D01*
X68889943Y-95933752D01*
X68300499Y-96051000D01*
X67699501Y-96051000D01*
X67110057Y-95933752D01*
X66554811Y-95703762D01*
X66306653Y-95537948D01*
X66055101Y-95369866D01*
X65630134Y-94944899D01*
X65296239Y-94445190D01*
X65296238Y-94445189D01*
X65066248Y-93889943D01*
X64949000Y-93300499D01*
X64949000Y-92699501D01*
X65066248Y-92110057D01*
X65296238Y-91554811D01*
X65630133Y-91055103D01*
X65630134Y-91055101D01*
X66055101Y-90630134D01*
X66554810Y-90296239D01*
X66554811Y-90296238D01*
X67110057Y-90066248D01*
X67699501Y-89949000D01*
X68300499Y-89949000D01*
X68889943Y-90066248D01*
G37*
G36*
X188889943Y-90066248D02*
G01*
X189445189Y-90296238D01*
X189445190Y-90296239D01*
X189944899Y-90630134D01*
X190369866Y-91055101D01*
X190369867Y-91055103D01*
X190703762Y-91554811D01*
X190933752Y-92110057D01*
X191051000Y-92699501D01*
X191051000Y-93300499D01*
X190933752Y-93889943D01*
X190703762Y-94445189D01*
X190703761Y-94445190D01*
X190369866Y-94944899D01*
X189944899Y-95369866D01*
X189693347Y-95537948D01*
X189445189Y-95703762D01*
X188889943Y-95933752D01*
X188300499Y-96051000D01*
X187699501Y-96051000D01*
X187110057Y-95933752D01*
X186554811Y-95703762D01*
X186306653Y-95537948D01*
X186055101Y-95369866D01*
X185630134Y-94944899D01*
X185296239Y-94445190D01*
X185296238Y-94445189D01*
X185066248Y-93889943D01*
X184949000Y-93300499D01*
X184949000Y-92699501D01*
X185066248Y-92110057D01*
X185296238Y-91554811D01*
X185630133Y-91055103D01*
X185630134Y-91055101D01*
X186055101Y-90630134D01*
X186554810Y-90296239D01*
X186554811Y-90296238D01*
X187110057Y-90066248D01*
X187699501Y-89949000D01*
X188300499Y-89949000D01*
X188889943Y-90066248D01*
G37*
G36*
X68889943Y-82066248D02*
G01*
X69445189Y-82296238D01*
X69693347Y-82462052D01*
X69944899Y-82630134D01*
X70369866Y-83055101D01*
X70369867Y-83055103D01*
X70703762Y-83554811D01*
X70933752Y-84110057D01*
X71051000Y-84699501D01*
X71051000Y-85300499D01*
X70933752Y-85889943D01*
X70703762Y-86445189D01*
X70703761Y-86445190D01*
X70369866Y-86944899D01*
X69944899Y-87369866D01*
X69693347Y-87537948D01*
X69445189Y-87703762D01*
X68889943Y-87933752D01*
X68300499Y-88051000D01*
X67699501Y-88051000D01*
X67110057Y-87933752D01*
X66554811Y-87703762D01*
X66306653Y-87537948D01*
X66055101Y-87369866D01*
X65630134Y-86944899D01*
X65296239Y-86445190D01*
X65296238Y-86445189D01*
X65066248Y-85889943D01*
X64949000Y-85300499D01*
X64949000Y-84699501D01*
X65066248Y-84110057D01*
X65296238Y-83554811D01*
X65630133Y-83055103D01*
X65630134Y-83055101D01*
X66055101Y-82630134D01*
X66306653Y-82462052D01*
X66554811Y-82296238D01*
X67110057Y-82066248D01*
X67699501Y-81949000D01*
X68300499Y-81949000D01*
X68889943Y-82066248D01*
G37*
G36*
X188889943Y-82066248D02*
G01*
X189445189Y-82296238D01*
X189693347Y-82462052D01*
X189944899Y-82630134D01*
X190369866Y-83055101D01*
X190369867Y-83055103D01*
X190703762Y-83554811D01*
X190933752Y-84110057D01*
X191051000Y-84699501D01*
X191051000Y-85300499D01*
X190933752Y-85889943D01*
X190703762Y-86445189D01*
X190703761Y-86445190D01*
X190369866Y-86944899D01*
X189944899Y-87369866D01*
X189693347Y-87537948D01*
X189445189Y-87703762D01*
X188889943Y-87933752D01*
X188300499Y-88051000D01*
X187699501Y-88051000D01*
X187110057Y-87933752D01*
X186554811Y-87703762D01*
X186306653Y-87537948D01*
X186055101Y-87369866D01*
X185630134Y-86944899D01*
X185296239Y-86445190D01*
X185296238Y-86445189D01*
X185066248Y-85889943D01*
X184949000Y-85300499D01*
X184949000Y-84699501D01*
X185066248Y-84110057D01*
X185296238Y-83554811D01*
X185630133Y-83055103D01*
X185630134Y-83055101D01*
X186055101Y-82630134D01*
X186306653Y-82462052D01*
X186554811Y-82296238D01*
X187110057Y-82066248D01*
X187699501Y-81949000D01*
X188300499Y-81949000D01*
X188889943Y-82066248D01*
G37*
G36*
X171221632Y-78064677D02*
G01*
X171527005Y-78191167D01*
X171958868Y-78370050D01*
X172622362Y-78813383D01*
X173186617Y-79377638D01*
X173629950Y-80041132D01*
X173634037Y-80051000D01*
X173935323Y-80778368D01*
X174091000Y-81561010D01*
X174091000Y-82358990D01*
X173935323Y-83141632D01*
X173808833Y-83447005D01*
X173629950Y-83878868D01*
X173186617Y-84542362D01*
X172622362Y-85106617D01*
X171958868Y-85549950D01*
X171527005Y-85728833D01*
X171221632Y-85855323D01*
X170438990Y-86011000D01*
X169641010Y-86011000D01*
X168858368Y-85855323D01*
X168552995Y-85728833D01*
X168121132Y-85549950D01*
X167457638Y-85106617D01*
X166893383Y-84542362D01*
X166450050Y-83878868D01*
X166271167Y-83447005D01*
X166144677Y-83141632D01*
X165989000Y-82358990D01*
X165989000Y-81561010D01*
X166144677Y-80778368D01*
X166445963Y-80051000D01*
X166450050Y-80041132D01*
X166893383Y-79377638D01*
X167457638Y-78813383D01*
X168121132Y-78370050D01*
X168552995Y-78191167D01*
X168858368Y-78064677D01*
X169641010Y-77909000D01*
X170438990Y-77909000D01*
X171221632Y-78064677D01*
G37*
G36*
X141121632Y-78064677D02*
G01*
X141427005Y-78191167D01*
X141858868Y-78370050D01*
X142522362Y-78813383D01*
X143086617Y-79377638D01*
X143529950Y-80041132D01*
X143534037Y-80051000D01*
X143835323Y-80778368D01*
X143991000Y-81561010D01*
X143991000Y-82358990D01*
X143835323Y-83141632D01*
X143708833Y-83447005D01*
X143529950Y-83878868D01*
X143086617Y-84542362D01*
X142522362Y-85106617D01*
X141858868Y-85549950D01*
X141427005Y-85728833D01*
X141121632Y-85855323D01*
X140338990Y-86011000D01*
X139541010Y-86011000D01*
X138758368Y-85855323D01*
X138452995Y-85728833D01*
X138021132Y-85549950D01*
X137357638Y-85106617D01*
X136793383Y-84542362D01*
X136350050Y-83878868D01*
X136171167Y-83447005D01*
X136044677Y-83141632D01*
X135889000Y-82358990D01*
X135889000Y-81561010D01*
X136044677Y-80778368D01*
X136345963Y-80051000D01*
X136350050Y-80041132D01*
X136793383Y-79377638D01*
X137357638Y-78813383D01*
X138021132Y-78370050D01*
X138452995Y-78191167D01*
X138758368Y-78064677D01*
X139541010Y-77909000D01*
X140338990Y-77909000D01*
X141121632Y-78064677D01*
G37*
G36*
X117881632Y-78064677D02*
G01*
X118187005Y-78191167D01*
X118618868Y-78370050D01*
X119282362Y-78813383D01*
X119846617Y-79377638D01*
X120289950Y-80041132D01*
X120294037Y-80051000D01*
X120595323Y-80778368D01*
X120751000Y-81561010D01*
X120751000Y-82358990D01*
X120595323Y-83141632D01*
X120468833Y-83447005D01*
X120289950Y-83878868D01*
X119846617Y-84542362D01*
X119282362Y-85106617D01*
X118618868Y-85549950D01*
X118187005Y-85728833D01*
X117881632Y-85855323D01*
X117098990Y-86011000D01*
X116301010Y-86011000D01*
X115518368Y-85855323D01*
X115212995Y-85728833D01*
X114781132Y-85549950D01*
X114117638Y-85106617D01*
X113553383Y-84542362D01*
X113110050Y-83878868D01*
X112931167Y-83447005D01*
X112804677Y-83141632D01*
X112649000Y-82358990D01*
X112649000Y-81561010D01*
X112804677Y-80778368D01*
X113105963Y-80051000D01*
X113110050Y-80041132D01*
X113553383Y-79377638D01*
X114117638Y-78813383D01*
X114781132Y-78370050D01*
X115212995Y-78191167D01*
X115518368Y-78064677D01*
X116301010Y-77909000D01*
X117098990Y-77909000D01*
X117881632Y-78064677D01*
G37*
G36*
X87781632Y-78064677D02*
G01*
X88087005Y-78191167D01*
X88518868Y-78370050D01*
X89182362Y-78813383D01*
X89746617Y-79377638D01*
X90189950Y-80041132D01*
X90194037Y-80051000D01*
X90495323Y-80778368D01*
X90651000Y-81561010D01*
X90651000Y-82358990D01*
X90495323Y-83141632D01*
X90368833Y-83447005D01*
X90189950Y-83878868D01*
X89746617Y-84542362D01*
X89182362Y-85106617D01*
X88518868Y-85549950D01*
X88087005Y-85728833D01*
X87781632Y-85855323D01*
X86998990Y-86011000D01*
X86201010Y-86011000D01*
X85418368Y-85855323D01*
X85112995Y-85728833D01*
X84681132Y-85549950D01*
X84017638Y-85106617D01*
X83453383Y-84542362D01*
X83010050Y-83878868D01*
X82831167Y-83447005D01*
X82704677Y-83141632D01*
X82549000Y-82358990D01*
X82549000Y-81561010D01*
X82704677Y-80778368D01*
X83005963Y-80051000D01*
X83010050Y-80041132D01*
X83453383Y-79377638D01*
X84017638Y-78813383D01*
X84681132Y-78370050D01*
X85112995Y-78191167D01*
X85418368Y-78064677D01*
X86201010Y-77909000D01*
X86998990Y-77909000D01*
X87781632Y-78064677D01*
G37*
G36*
X188889943Y-74066248D02*
G01*
X189445189Y-74296238D01*
X189693347Y-74462052D01*
X189944899Y-74630134D01*
X190369866Y-75055101D01*
X190420923Y-75131513D01*
X190703762Y-75554811D01*
X190933752Y-76110057D01*
X191051000Y-76699501D01*
X191051000Y-77300499D01*
X190933752Y-77889943D01*
X190703762Y-78445189D01*
X190703761Y-78445190D01*
X190369866Y-78944899D01*
X189944899Y-79369866D01*
X189693347Y-79537948D01*
X189445189Y-79703762D01*
X188889943Y-79933752D01*
X188300499Y-80051000D01*
X187699501Y-80051000D01*
X187110057Y-79933752D01*
X186554811Y-79703762D01*
X186306653Y-79537948D01*
X186055101Y-79369866D01*
X185630134Y-78944899D01*
X185296239Y-78445190D01*
X185296238Y-78445189D01*
X185066248Y-77889943D01*
X184949000Y-77300499D01*
X184949000Y-76699501D01*
X185066248Y-76110057D01*
X185296238Y-75554811D01*
X185579077Y-75131513D01*
X185630134Y-75055101D01*
X186055101Y-74630134D01*
X186306653Y-74462052D01*
X186554811Y-74296238D01*
X187110057Y-74066248D01*
X187699501Y-73949000D01*
X188300499Y-73949000D01*
X188889943Y-74066248D01*
G37*
G36*
X68889943Y-74066248D02*
G01*
X69445189Y-74296238D01*
X69693347Y-74462052D01*
X69944899Y-74630134D01*
X70369866Y-75055101D01*
X70420923Y-75131513D01*
X70703762Y-75554811D01*
X70933752Y-76110057D01*
X71051000Y-76699501D01*
X71051000Y-77300499D01*
X70933752Y-77889943D01*
X70703762Y-78445189D01*
X70703761Y-78445190D01*
X70369866Y-78944899D01*
X69944899Y-79369866D01*
X69693347Y-79537948D01*
X69445189Y-79703762D01*
X68889943Y-79933752D01*
X68300499Y-80051000D01*
X67699501Y-80051000D01*
X67110057Y-79933752D01*
X66554811Y-79703762D01*
X66306653Y-79537948D01*
X66055101Y-79369866D01*
X65630134Y-78944899D01*
X65296239Y-78445190D01*
X65296238Y-78445189D01*
X65066248Y-77889943D01*
X64949000Y-77300499D01*
X64949000Y-76699501D01*
X65066248Y-76110057D01*
X65296238Y-75554811D01*
X65579077Y-75131513D01*
X65630134Y-75055101D01*
X66055101Y-74630134D01*
X66306653Y-74462052D01*
X66554811Y-74296238D01*
X67110057Y-74066248D01*
X67699501Y-73949000D01*
X68300499Y-73949000D01*
X68889943Y-74066248D01*
G37*
G36*
X91784254Y-72187818D02*
G01*
X92157511Y-72342426D01*
X92157513Y-72342427D01*
X92493436Y-72566884D01*
X92779116Y-72852564D01*
X92972340Y-73141743D01*
X93003574Y-73188489D01*
X93158182Y-73561746D01*
X93237000Y-73957993D01*
X93237000Y-74362007D01*
X93158182Y-74758254D01*
X93035224Y-75055101D01*
X93003573Y-75131513D01*
X92779116Y-75467436D01*
X92493436Y-75753116D01*
X92157513Y-75977573D01*
X92157512Y-75977574D01*
X92157511Y-75977574D01*
X91784254Y-76132182D01*
X91388007Y-76211000D01*
X90983993Y-76211000D01*
X90587746Y-76132182D01*
X90214489Y-75977574D01*
X90214488Y-75977574D01*
X90214487Y-75977573D01*
X89878564Y-75753116D01*
X89592884Y-75467436D01*
X89368427Y-75131513D01*
X89336776Y-75055101D01*
X89213818Y-74758254D01*
X89135000Y-74362007D01*
X89135000Y-73957993D01*
X89213818Y-73561746D01*
X89368426Y-73188489D01*
X89399661Y-73141743D01*
X89592884Y-72852564D01*
X89878564Y-72566884D01*
X90214487Y-72342427D01*
X90214489Y-72342426D01*
X90587746Y-72187818D01*
X90983993Y-72109000D01*
X91388007Y-72109000D01*
X91784254Y-72187818D01*
G37*
G36*
X166333254Y-72187818D02*
G01*
X166706511Y-72342426D01*
X166706513Y-72342427D01*
X167042436Y-72566884D01*
X167328116Y-72852564D01*
X167521340Y-73141743D01*
X167552574Y-73188489D01*
X167707182Y-73561746D01*
X167786000Y-73957993D01*
X167786000Y-74362007D01*
X167707182Y-74758254D01*
X167584224Y-75055101D01*
X167552573Y-75131513D01*
X167328116Y-75467436D01*
X167042436Y-75753116D01*
X166706513Y-75977573D01*
X166706512Y-75977574D01*
X166706511Y-75977574D01*
X166333254Y-76132182D01*
X165937007Y-76211000D01*
X165532993Y-76211000D01*
X165136746Y-76132182D01*
X164763489Y-75977574D01*
X164763488Y-75977574D01*
X164763487Y-75977573D01*
X164427564Y-75753116D01*
X164141884Y-75467436D01*
X163917427Y-75131513D01*
X163885776Y-75055101D01*
X163762818Y-74758254D01*
X163684000Y-74362007D01*
X163684000Y-73957993D01*
X163762818Y-73561746D01*
X163917426Y-73188489D01*
X163948661Y-73141743D01*
X164141884Y-72852564D01*
X164427564Y-72566884D01*
X164763487Y-72342427D01*
X164763489Y-72342426D01*
X165136746Y-72187818D01*
X165532993Y-72109000D01*
X165937007Y-72109000D01*
X166333254Y-72187818D01*
G37*
G36*
X112993254Y-72187818D02*
G01*
X113366511Y-72342426D01*
X113366513Y-72342427D01*
X113702436Y-72566884D01*
X113988116Y-72852564D01*
X114181340Y-73141743D01*
X114212574Y-73188489D01*
X114367182Y-73561746D01*
X114446000Y-73957993D01*
X114446000Y-74362007D01*
X114367182Y-74758254D01*
X114244224Y-75055101D01*
X114212573Y-75131513D01*
X113988116Y-75467436D01*
X113702436Y-75753116D01*
X113366513Y-75977573D01*
X113366512Y-75977574D01*
X113366511Y-75977574D01*
X112993254Y-76132182D01*
X112597007Y-76211000D01*
X112192993Y-76211000D01*
X111796746Y-76132182D01*
X111423489Y-75977574D01*
X111423488Y-75977574D01*
X111423487Y-75977573D01*
X111087564Y-75753116D01*
X110801884Y-75467436D01*
X110577427Y-75131513D01*
X110545776Y-75055101D01*
X110422818Y-74758254D01*
X110344000Y-74362007D01*
X110344000Y-73957993D01*
X110422818Y-73561746D01*
X110577426Y-73188489D01*
X110608661Y-73141743D01*
X110801884Y-72852564D01*
X111087564Y-72566884D01*
X111423487Y-72342427D01*
X111423489Y-72342426D01*
X111796746Y-72187818D01*
X112192993Y-72109000D01*
X112597007Y-72109000D01*
X112993254Y-72187818D01*
G37*
G36*
X145124254Y-72187818D02*
G01*
X145497511Y-72342426D01*
X145497513Y-72342427D01*
X145833436Y-72566884D01*
X146119116Y-72852564D01*
X146312340Y-73141743D01*
X146343574Y-73188489D01*
X146498182Y-73561746D01*
X146577000Y-73957993D01*
X146577000Y-74362007D01*
X146498182Y-74758254D01*
X146375224Y-75055101D01*
X146343573Y-75131513D01*
X146119116Y-75467436D01*
X145833436Y-75753116D01*
X145497513Y-75977573D01*
X145497512Y-75977574D01*
X145497511Y-75977574D01*
X145124254Y-76132182D01*
X144728007Y-76211000D01*
X144323993Y-76211000D01*
X143927746Y-76132182D01*
X143554489Y-75977574D01*
X143554488Y-75977574D01*
X143554487Y-75977573D01*
X143218564Y-75753116D01*
X142932884Y-75467436D01*
X142708427Y-75131513D01*
X142676776Y-75055101D01*
X142553818Y-74758254D01*
X142475000Y-74362007D01*
X142475000Y-73957993D01*
X142553818Y-73561746D01*
X142708426Y-73188489D01*
X142739661Y-73141743D01*
X142932884Y-72852564D01*
X143218564Y-72566884D01*
X143554487Y-72342427D01*
X143554489Y-72342426D01*
X143927746Y-72187818D01*
X144323993Y-72109000D01*
X144728007Y-72109000D01*
X145124254Y-72187818D01*
G37*
G36*
X157717142Y-72878242D02*
G01*
X157865101Y-72939529D01*
X157998255Y-73028499D01*
X158111501Y-73141745D01*
X158200471Y-73274899D01*
X158261758Y-73422858D01*
X158293000Y-73579925D01*
X158293000Y-73740075D01*
X158261758Y-73897142D01*
X158200471Y-74045101D01*
X158111501Y-74178255D01*
X157998255Y-74291501D01*
X157865101Y-74380471D01*
X157717142Y-74441758D01*
X157560075Y-74473000D01*
X157399925Y-74473000D01*
X157242858Y-74441758D01*
X157094899Y-74380471D01*
X156961745Y-74291501D01*
X156848499Y-74178255D01*
X156759529Y-74045101D01*
X156698242Y-73897142D01*
X156667000Y-73740075D01*
X156667000Y-73579925D01*
X156698242Y-73422858D01*
X156759529Y-73274899D01*
X156848499Y-73141745D01*
X156961745Y-73028499D01*
X157094899Y-72939529D01*
X157242858Y-72878242D01*
X157399925Y-72847000D01*
X157560075Y-72847000D01*
X157717142Y-72878242D01*
G37*
G36*
X160257142Y-72878242D02*
G01*
X160405101Y-72939529D01*
X160538255Y-73028499D01*
X160651501Y-73141745D01*
X160740471Y-73274899D01*
X160801758Y-73422858D01*
X160833000Y-73579925D01*
X160833000Y-73740075D01*
X160801758Y-73897142D01*
X160740471Y-74045101D01*
X160651501Y-74178255D01*
X160538255Y-74291501D01*
X160405101Y-74380471D01*
X160257142Y-74441758D01*
X160100075Y-74473000D01*
X159939925Y-74473000D01*
X159782858Y-74441758D01*
X159634899Y-74380471D01*
X159501745Y-74291501D01*
X159388499Y-74178255D01*
X159299529Y-74045101D01*
X159238242Y-73897142D01*
X159207000Y-73740075D01*
X159207000Y-73579925D01*
X159238242Y-73422858D01*
X159299529Y-73274899D01*
X159388499Y-73141745D01*
X159501745Y-73028499D01*
X159634899Y-72939529D01*
X159782858Y-72878242D01*
X159939925Y-72847000D01*
X160100075Y-72847000D01*
X160257142Y-72878242D01*
G37*
G36*
X96757142Y-72878242D02*
G01*
X96905101Y-72939529D01*
X97038255Y-73028499D01*
X97151501Y-73141745D01*
X97240471Y-73274899D01*
X97301758Y-73422858D01*
X97333000Y-73579925D01*
X97333000Y-73740075D01*
X97301758Y-73897142D01*
X97240471Y-74045101D01*
X97151501Y-74178255D01*
X97038255Y-74291501D01*
X96905101Y-74380471D01*
X96757142Y-74441758D01*
X96600075Y-74473000D01*
X96439925Y-74473000D01*
X96282858Y-74441758D01*
X96134899Y-74380471D01*
X96001745Y-74291501D01*
X95888499Y-74178255D01*
X95799529Y-74045101D01*
X95738242Y-73897142D01*
X95707000Y-73740075D01*
X95707000Y-73579925D01*
X95738242Y-73422858D01*
X95799529Y-73274899D01*
X95888499Y-73141745D01*
X96001745Y-73028499D01*
X96134899Y-72939529D01*
X96282858Y-72878242D01*
X96439925Y-72847000D01*
X96600075Y-72847000D01*
X96757142Y-72878242D01*
G37*
G36*
X99297142Y-72878242D02*
G01*
X99445101Y-72939529D01*
X99578255Y-73028499D01*
X99691501Y-73141745D01*
X99780471Y-73274899D01*
X99841758Y-73422858D01*
X99873000Y-73579925D01*
X99873000Y-73740075D01*
X99841758Y-73897142D01*
X99780471Y-74045101D01*
X99691501Y-74178255D01*
X99578255Y-74291501D01*
X99445101Y-74380471D01*
X99297142Y-74441758D01*
X99140075Y-74473000D01*
X98979925Y-74473000D01*
X98822858Y-74441758D01*
X98674899Y-74380471D01*
X98541745Y-74291501D01*
X98428499Y-74178255D01*
X98339529Y-74045101D01*
X98278242Y-73897142D01*
X98247000Y-73740075D01*
X98247000Y-73579925D01*
X98278242Y-73422858D01*
X98339529Y-73274899D01*
X98428499Y-73141745D01*
X98541745Y-73028499D01*
X98674899Y-72939529D01*
X98822858Y-72878242D01*
X98979925Y-72847000D01*
X99140075Y-72847000D01*
X99297142Y-72878242D01*
G37*
G36*
X155177142Y-72878242D02*
G01*
X155325101Y-72939529D01*
X155458255Y-73028499D01*
X155571501Y-73141745D01*
X155660471Y-73274899D01*
X155721758Y-73422858D01*
X155753000Y-73579925D01*
X155753000Y-73740075D01*
X155721758Y-73897142D01*
X155660471Y-74045101D01*
X155571501Y-74178255D01*
X155458255Y-74291501D01*
X155325101Y-74380471D01*
X155177142Y-74441758D01*
X155020075Y-74473000D01*
X154859925Y-74473000D01*
X154702858Y-74441758D01*
X154554899Y-74380471D01*
X154421745Y-74291501D01*
X154308499Y-74178255D01*
X154219529Y-74045101D01*
X154158242Y-73897142D01*
X154127000Y-73740075D01*
X154127000Y-73579925D01*
X154158242Y-73422858D01*
X154219529Y-73274899D01*
X154308499Y-73141745D01*
X154421745Y-73028499D01*
X154554899Y-72939529D01*
X154702858Y-72878242D01*
X154859925Y-72847000D01*
X155020075Y-72847000D01*
X155177142Y-72878242D01*
G37*
G36*
X152637142Y-72878242D02*
G01*
X152785101Y-72939529D01*
X152918255Y-73028499D01*
X153031501Y-73141745D01*
X153120471Y-73274899D01*
X153181758Y-73422858D01*
X153213000Y-73579925D01*
X153213000Y-73740075D01*
X153181758Y-73897142D01*
X153120471Y-74045101D01*
X153031501Y-74178255D01*
X152918255Y-74291501D01*
X152785101Y-74380471D01*
X152637142Y-74441758D01*
X152480075Y-74473000D01*
X152319925Y-74473000D01*
X152162858Y-74441758D01*
X152014899Y-74380471D01*
X151881745Y-74291501D01*
X151768499Y-74178255D01*
X151679529Y-74045101D01*
X151618242Y-73897142D01*
X151587000Y-73740075D01*
X151587000Y-73579925D01*
X151618242Y-73422858D01*
X151679529Y-73274899D01*
X151768499Y-73141745D01*
X151881745Y-73028499D01*
X152014899Y-72939529D01*
X152162858Y-72878242D01*
X152319925Y-72847000D01*
X152480075Y-72847000D01*
X152637142Y-72878242D01*
G37*
G36*
X101837142Y-72878242D02*
G01*
X101985101Y-72939529D01*
X102118255Y-73028499D01*
X102231501Y-73141745D01*
X102320471Y-73274899D01*
X102381758Y-73422858D01*
X102413000Y-73579925D01*
X102413000Y-73740075D01*
X102381758Y-73897142D01*
X102320471Y-74045101D01*
X102231501Y-74178255D01*
X102118255Y-74291501D01*
X101985101Y-74380471D01*
X101837142Y-74441758D01*
X101680075Y-74473000D01*
X101519925Y-74473000D01*
X101362858Y-74441758D01*
X101214899Y-74380471D01*
X101081745Y-74291501D01*
X100968499Y-74178255D01*
X100879529Y-74045101D01*
X100818242Y-73897142D01*
X100787000Y-73740075D01*
X100787000Y-73579925D01*
X100818242Y-73422858D01*
X100879529Y-73274899D01*
X100968499Y-73141745D01*
X101081745Y-73028499D01*
X101214899Y-72939529D01*
X101362858Y-72878242D01*
X101519925Y-72847000D01*
X101680075Y-72847000D01*
X101837142Y-72878242D01*
G37*
G36*
X106917142Y-72878242D02*
G01*
X107065101Y-72939529D01*
X107198255Y-73028499D01*
X107311501Y-73141745D01*
X107400471Y-73274899D01*
X107461758Y-73422858D01*
X107493000Y-73579925D01*
X107493000Y-73740075D01*
X107461758Y-73897142D01*
X107400471Y-74045101D01*
X107311501Y-74178255D01*
X107198255Y-74291501D01*
X107065101Y-74380471D01*
X106917142Y-74441758D01*
X106760075Y-74473000D01*
X106599925Y-74473000D01*
X106442858Y-74441758D01*
X106294899Y-74380471D01*
X106161745Y-74291501D01*
X106048499Y-74178255D01*
X105959529Y-74045101D01*
X105898242Y-73897142D01*
X105867000Y-73740075D01*
X105867000Y-73579925D01*
X105898242Y-73422858D01*
X105959529Y-73274899D01*
X106048499Y-73141745D01*
X106161745Y-73028499D01*
X106294899Y-72939529D01*
X106442858Y-72878242D01*
X106599925Y-72847000D01*
X106760075Y-72847000D01*
X106917142Y-72878242D01*
G37*
G36*
X150097142Y-72878242D02*
G01*
X150245101Y-72939529D01*
X150378255Y-73028499D01*
X150491501Y-73141745D01*
X150580471Y-73274899D01*
X150641758Y-73422858D01*
X150673000Y-73579925D01*
X150673000Y-73740075D01*
X150641758Y-73897142D01*
X150580471Y-74045101D01*
X150491501Y-74178255D01*
X150378255Y-74291501D01*
X150245101Y-74380471D01*
X150097142Y-74441758D01*
X149940075Y-74473000D01*
X149779925Y-74473000D01*
X149622858Y-74441758D01*
X149474899Y-74380471D01*
X149341745Y-74291501D01*
X149228499Y-74178255D01*
X149139529Y-74045101D01*
X149078242Y-73897142D01*
X149047000Y-73740075D01*
X149047000Y-73579925D01*
X149078242Y-73422858D01*
X149139529Y-73274899D01*
X149228499Y-73141745D01*
X149341745Y-73028499D01*
X149474899Y-72939529D01*
X149622858Y-72878242D01*
X149779925Y-72847000D01*
X149940075Y-72847000D01*
X150097142Y-72878242D01*
G37*
G36*
X104377142Y-72878242D02*
G01*
X104525101Y-72939529D01*
X104658255Y-73028499D01*
X104771501Y-73141745D01*
X104860471Y-73274899D01*
X104921758Y-73422858D01*
X104953000Y-73579925D01*
X104953000Y-73740075D01*
X104921758Y-73897142D01*
X104860471Y-74045101D01*
X104771501Y-74178255D01*
X104658255Y-74291501D01*
X104525101Y-74380471D01*
X104377142Y-74441758D01*
X104220075Y-74473000D01*
X104059925Y-74473000D01*
X103902858Y-74441758D01*
X103754899Y-74380471D01*
X103621745Y-74291501D01*
X103508499Y-74178255D01*
X103419529Y-74045101D01*
X103358242Y-73897142D01*
X103327000Y-73740075D01*
X103327000Y-73579925D01*
X103358242Y-73422858D01*
X103419529Y-73274899D01*
X103508499Y-73141745D01*
X103621745Y-73028499D01*
X103754899Y-72939529D01*
X103902858Y-72878242D01*
X104059925Y-72847000D01*
X104220075Y-72847000D01*
X104377142Y-72878242D01*
G37*
G36*
X104253512Y-65143927D02*
G01*
X104402812Y-65173624D01*
X104566784Y-65241544D01*
X104714354Y-65340147D01*
X104839853Y-65465646D01*
X104938456Y-65613216D01*
X105006376Y-65777188D01*
X105041000Y-65951259D01*
X105041000Y-66128741D01*
X105006376Y-66302812D01*
X104938456Y-66466784D01*
X104839853Y-66614354D01*
X104714354Y-66739853D01*
X104566784Y-66838456D01*
X104402812Y-66906376D01*
X104253512Y-66936073D01*
X104228742Y-66941000D01*
X104051258Y-66941000D01*
X104026488Y-66936073D01*
X103877188Y-66906376D01*
X103713216Y-66838456D01*
X103565646Y-66739853D01*
X103440147Y-66614354D01*
X103341544Y-66466784D01*
X103273624Y-66302812D01*
X103239000Y-66128741D01*
X103239000Y-65951259D01*
X103273624Y-65777188D01*
X103341544Y-65613216D01*
X103440147Y-65465646D01*
X103565646Y-65340147D01*
X103713216Y-65241544D01*
X103877188Y-65173624D01*
X104026488Y-65143927D01*
X104051258Y-65139000D01*
X104228742Y-65139000D01*
X104253512Y-65143927D01*
G37*
G36*
X107581000Y-66941000D02*
G01*
X105779000Y-66941000D01*
X105779000Y-65139000D01*
X107581000Y-65139000D01*
X107581000Y-66941000D01*
G37*
G36*
X155901000Y-66901000D02*
G01*
X154099000Y-66901000D01*
X154099000Y-65099000D01*
X155901000Y-65099000D01*
X155901000Y-66901000D01*
G37*
G36*
X157645035Y-65102241D02*
G01*
X157802812Y-65133624D01*
X157966784Y-65201544D01*
X158114354Y-65300147D01*
X158239853Y-65425646D01*
X158338456Y-65573216D01*
X158406376Y-65737188D01*
X158441000Y-65911259D01*
X158441000Y-66088741D01*
X158406376Y-66262812D01*
X158338456Y-66426784D01*
X158239853Y-66574354D01*
X158114354Y-66699853D01*
X157966784Y-66798456D01*
X157802812Y-66866376D01*
X157656065Y-66895565D01*
X157628742Y-66901000D01*
X157451258Y-66901000D01*
X157423935Y-66895565D01*
X157277188Y-66866376D01*
X157113216Y-66798456D01*
X156965646Y-66699853D01*
X156840147Y-66574354D01*
X156741544Y-66426784D01*
X156673624Y-66262812D01*
X156639000Y-66088741D01*
X156639000Y-65911259D01*
X156673624Y-65737188D01*
X156741544Y-65573216D01*
X156840147Y-65425646D01*
X156965646Y-65300147D01*
X157113216Y-65201544D01*
X157277188Y-65133624D01*
X157434965Y-65102241D01*
X157451258Y-65099000D01*
X157628742Y-65099000D01*
X157645035Y-65102241D01*
G37*
G36*
X131925035Y-65102241D02*
G01*
X132082812Y-65133624D01*
X132246784Y-65201544D01*
X132394354Y-65300147D01*
X132519853Y-65425646D01*
X132618456Y-65573216D01*
X132686376Y-65737188D01*
X132721000Y-65911259D01*
X132721000Y-66088741D01*
X132686376Y-66262812D01*
X132618456Y-66426784D01*
X132519853Y-66574354D01*
X132394354Y-66699853D01*
X132246784Y-66798456D01*
X132082812Y-66866376D01*
X131936065Y-66895565D01*
X131908742Y-66901000D01*
X131731258Y-66901000D01*
X131703935Y-66895565D01*
X131557188Y-66866376D01*
X131393216Y-66798456D01*
X131245646Y-66699853D01*
X131120147Y-66574354D01*
X131021544Y-66426784D01*
X130953624Y-66262812D01*
X130919000Y-66088741D01*
X130919000Y-65911259D01*
X130953624Y-65737188D01*
X131021544Y-65573216D01*
X131120147Y-65425646D01*
X131245646Y-65300147D01*
X131393216Y-65201544D01*
X131557188Y-65133624D01*
X131714965Y-65102241D01*
X131731258Y-65099000D01*
X131908742Y-65099000D01*
X131925035Y-65102241D01*
G37*
G36*
X129385035Y-65102241D02*
G01*
X129542812Y-65133624D01*
X129706784Y-65201544D01*
X129854354Y-65300147D01*
X129979853Y-65425646D01*
X130078456Y-65573216D01*
X130146376Y-65737188D01*
X130181000Y-65911259D01*
X130181000Y-66088741D01*
X130146376Y-66262812D01*
X130078456Y-66426784D01*
X129979853Y-66574354D01*
X129854354Y-66699853D01*
X129706784Y-66798456D01*
X129542812Y-66866376D01*
X129396065Y-66895565D01*
X129368742Y-66901000D01*
X129191258Y-66901000D01*
X129163935Y-66895565D01*
X129017188Y-66866376D01*
X128853216Y-66798456D01*
X128705646Y-66699853D01*
X128580147Y-66574354D01*
X128481544Y-66426784D01*
X128413624Y-66262812D01*
X128379000Y-66088741D01*
X128379000Y-65911259D01*
X128413624Y-65737188D01*
X128481544Y-65573216D01*
X128580147Y-65425646D01*
X128705646Y-65300147D01*
X128853216Y-65201544D01*
X129017188Y-65133624D01*
X129174965Y-65102241D01*
X129191258Y-65099000D01*
X129368742Y-65099000D01*
X129385035Y-65102241D01*
G37*
G36*
X126845035Y-65102241D02*
G01*
X127002812Y-65133624D01*
X127166784Y-65201544D01*
X127314354Y-65300147D01*
X127439853Y-65425646D01*
X127538456Y-65573216D01*
X127606376Y-65737188D01*
X127641000Y-65911259D01*
X127641000Y-66088741D01*
X127606376Y-66262812D01*
X127538456Y-66426784D01*
X127439853Y-66574354D01*
X127314354Y-66699853D01*
X127166784Y-66798456D01*
X127002812Y-66866376D01*
X126856065Y-66895565D01*
X126828742Y-66901000D01*
X126651258Y-66901000D01*
X126623935Y-66895565D01*
X126477188Y-66866376D01*
X126313216Y-66798456D01*
X126165646Y-66699853D01*
X126040147Y-66574354D01*
X125941544Y-66426784D01*
X125873624Y-66262812D01*
X125839000Y-66088741D01*
X125839000Y-65911259D01*
X125873624Y-65737188D01*
X125941544Y-65573216D01*
X126040147Y-65425646D01*
X126165646Y-65300147D01*
X126313216Y-65201544D01*
X126477188Y-65133624D01*
X126634965Y-65102241D01*
X126651258Y-65099000D01*
X126828742Y-65099000D01*
X126845035Y-65102241D01*
G37*
G36*
X124299455Y-65104435D02*
G01*
X124450836Y-65134547D01*
X124472255Y-65141045D01*
X124614854Y-65200111D01*
X124634599Y-65210665D01*
X124762936Y-65296417D01*
X124780241Y-65310618D01*
X124889382Y-65419759D01*
X124903583Y-65437064D01*
X124989335Y-65565401D01*
X124999889Y-65585146D01*
X125058955Y-65727745D01*
X125065453Y-65749164D01*
X125095565Y-65900545D01*
X125097759Y-65922825D01*
X125097759Y-66077175D01*
X125095565Y-66099455D01*
X125065453Y-66250836D01*
X125058955Y-66272255D01*
X124999889Y-66414854D01*
X124989335Y-66434599D01*
X124903583Y-66562936D01*
X124889382Y-66580241D01*
X124780241Y-66689382D01*
X124762936Y-66703583D01*
X124634599Y-66789335D01*
X124614854Y-66799889D01*
X124472255Y-66858955D01*
X124450836Y-66865453D01*
X124299455Y-66895565D01*
X124277175Y-66897759D01*
X124122825Y-66897759D01*
X124100545Y-66895565D01*
X123949164Y-66865453D01*
X123927745Y-66858955D01*
X123785146Y-66799889D01*
X123765401Y-66789335D01*
X123637064Y-66703583D01*
X123619759Y-66689382D01*
X123510618Y-66580241D01*
X123496417Y-66562936D01*
X123410665Y-66434599D01*
X123400111Y-66414854D01*
X123341045Y-66272255D01*
X123334547Y-66250836D01*
X123304435Y-66099455D01*
X123302241Y-66077175D01*
X123302241Y-65922825D01*
X123304435Y-65900545D01*
X123334547Y-65749164D01*
X123341045Y-65727745D01*
X123400111Y-65585146D01*
X123410665Y-65565401D01*
X123496417Y-65437064D01*
X123510618Y-65419759D01*
X123619759Y-65310618D01*
X123637064Y-65296417D01*
X123765401Y-65210665D01*
X123785146Y-65200111D01*
X123927745Y-65141045D01*
X123949164Y-65134547D01*
X124100545Y-65104435D01*
X124122825Y-65102241D01*
X124277175Y-65102241D01*
X124299455Y-65104435D01*
G37*
M02*
