G04 #@! TF.GenerationSoftware,KiCad,Pcbnew,5.1.5+dfsg1-2build2*
G04 #@! TF.CreationDate,2021-11-16T19:17:29+01:00*
G04 #@! TF.ProjectId,joystick-board,6a6f7973-7469-4636-9b2d-626f6172642e,rev?*
G04 #@! TF.SameCoordinates,Original*
G04 #@! TF.FileFunction,Legend,Top*
G04 #@! TF.FilePolarity,Positive*
%FSLAX46Y46*%
G04 Gerber Fmt 4.6, Leading zero omitted, Abs format (unit mm)*
G04 Created by KiCad (PCBNEW 5.1.5+dfsg1-2build2) date 2021-11-16 19:17:29*
%MOMM*%
%LPD*%
G04 APERTURE LIST*
%ADD10C,0.150000*%
%ADD11C,0.120000*%
G04 APERTURE END LIST*
D10*
X157075238Y-62920571D02*
X157218095Y-62968190D01*
X157265714Y-63015809D01*
X157313333Y-63111047D01*
X157313333Y-63253904D01*
X157265714Y-63349142D01*
X157218095Y-63396761D01*
X157122857Y-63444380D01*
X156741904Y-63444380D01*
X156741904Y-62444380D01*
X157075238Y-62444380D01*
X157170476Y-62492000D01*
X157218095Y-62539619D01*
X157265714Y-62634857D01*
X157265714Y-62730095D01*
X157218095Y-62825333D01*
X157170476Y-62872952D01*
X157075238Y-62920571D01*
X156741904Y-62920571D01*
X157932380Y-62444380D02*
X158027619Y-62444380D01*
X158122857Y-62492000D01*
X158170476Y-62539619D01*
X158218095Y-62634857D01*
X158265714Y-62825333D01*
X158265714Y-63063428D01*
X158218095Y-63253904D01*
X158170476Y-63349142D01*
X158122857Y-63396761D01*
X158027619Y-63444380D01*
X157932380Y-63444380D01*
X157837142Y-63396761D01*
X157789523Y-63349142D01*
X157741904Y-63253904D01*
X157694285Y-63063428D01*
X157694285Y-62825333D01*
X157741904Y-62634857D01*
X157789523Y-62539619D01*
X157837142Y-62492000D01*
X157932380Y-62444380D01*
X154535238Y-62920571D02*
X154678095Y-62968190D01*
X154725714Y-63015809D01*
X154773333Y-63111047D01*
X154773333Y-63253904D01*
X154725714Y-63349142D01*
X154678095Y-63396761D01*
X154582857Y-63444380D01*
X154201904Y-63444380D01*
X154201904Y-62444380D01*
X154535238Y-62444380D01*
X154630476Y-62492000D01*
X154678095Y-62539619D01*
X154725714Y-62634857D01*
X154725714Y-62730095D01*
X154678095Y-62825333D01*
X154630476Y-62872952D01*
X154535238Y-62920571D01*
X154201904Y-62920571D01*
X155725714Y-63444380D02*
X155154285Y-63444380D01*
X155440000Y-63444380D02*
X155440000Y-62444380D01*
X155344761Y-62587238D01*
X155249523Y-62682476D01*
X155154285Y-62730095D01*
X131270476Y-62444380D02*
X131937142Y-63444380D01*
X131937142Y-62444380D02*
X131270476Y-63444380D01*
X132841904Y-63444380D02*
X132270476Y-63444380D01*
X132556190Y-63444380D02*
X132556190Y-62444380D01*
X132460952Y-62587238D01*
X132365714Y-62682476D01*
X132270476Y-62730095D01*
X128979141Y-62968190D02*
X128979141Y-63444380D01*
X128645808Y-62444380D02*
X128979141Y-62968190D01*
X129312474Y-62444380D01*
X130169617Y-63444380D02*
X129598189Y-63444380D01*
X129883903Y-63444380D02*
X129883903Y-62444380D01*
X129788665Y-62587238D01*
X129693427Y-62682476D01*
X129598189Y-62730095D01*
X126021142Y-62444380D02*
X126687808Y-63444380D01*
X126687808Y-62444380D02*
X126021142Y-63444380D01*
X127259237Y-62444380D02*
X127354475Y-62444380D01*
X127449713Y-62492000D01*
X127497332Y-62539619D01*
X127544951Y-62634857D01*
X127592570Y-62825333D01*
X127592570Y-63063428D01*
X127544951Y-63253904D01*
X127497332Y-63349142D01*
X127449713Y-63396761D01*
X127354475Y-63444380D01*
X127259237Y-63444380D01*
X127163999Y-63396761D01*
X127116380Y-63349142D01*
X127068761Y-63253904D01*
X127021142Y-63063428D01*
X127021142Y-62825333D01*
X127068761Y-62634857D01*
X127116380Y-62539619D01*
X127163999Y-62492000D01*
X127259237Y-62444380D01*
X123729809Y-62968190D02*
X123729809Y-63444380D01*
X123396476Y-62444380D02*
X123729809Y-62968190D01*
X124063142Y-62444380D01*
X124586952Y-62444380D02*
X124682190Y-62444380D01*
X124777428Y-62492000D01*
X124825047Y-62539619D01*
X124872666Y-62634857D01*
X124920285Y-62825333D01*
X124920285Y-63063428D01*
X124872666Y-63253904D01*
X124825047Y-63349142D01*
X124777428Y-63396761D01*
X124682190Y-63444380D01*
X124586952Y-63444380D01*
X124491714Y-63396761D01*
X124444095Y-63349142D01*
X124396476Y-63253904D01*
X124348857Y-63063428D01*
X124348857Y-62825333D01*
X124396476Y-62634857D01*
X124444095Y-62539619D01*
X124491714Y-62492000D01*
X124586952Y-62444380D01*
X102695523Y-62317380D02*
X103314571Y-62317380D01*
X102981238Y-62698333D01*
X103124095Y-62698333D01*
X103219333Y-62745952D01*
X103266952Y-62793571D01*
X103314571Y-62888809D01*
X103314571Y-63126904D01*
X103266952Y-63222142D01*
X103219333Y-63269761D01*
X103124095Y-63317380D01*
X102838380Y-63317380D01*
X102743142Y-63269761D01*
X102695523Y-63222142D01*
X103647904Y-62650714D02*
X103886000Y-63317380D01*
X104124095Y-62650714D01*
X104409809Y-62317380D02*
X105028857Y-62317380D01*
X104695523Y-62698333D01*
X104838380Y-62698333D01*
X104933619Y-62745952D01*
X104981238Y-62793571D01*
X105028857Y-62888809D01*
X105028857Y-63126904D01*
X104981238Y-63222142D01*
X104933619Y-63269761D01*
X104838380Y-63317380D01*
X104552666Y-63317380D01*
X104457428Y-63269761D01*
X104409809Y-63222142D01*
X106426095Y-62365000D02*
X106330857Y-62317380D01*
X106188000Y-62317380D01*
X106045142Y-62365000D01*
X105949904Y-62460238D01*
X105902285Y-62555476D01*
X105854666Y-62745952D01*
X105854666Y-62888809D01*
X105902285Y-63079285D01*
X105949904Y-63174523D01*
X106045142Y-63269761D01*
X106188000Y-63317380D01*
X106283238Y-63317380D01*
X106426095Y-63269761D01*
X106473714Y-63222142D01*
X106473714Y-62888809D01*
X106283238Y-62888809D01*
X106902285Y-63317380D02*
X106902285Y-62317380D01*
X107473714Y-63317380D01*
X107473714Y-62317380D01*
X107949904Y-63317380D02*
X107949904Y-62317380D01*
X108188000Y-62317380D01*
X108330857Y-62365000D01*
X108426095Y-62460238D01*
X108473714Y-62555476D01*
X108521333Y-62745952D01*
X108521333Y-62888809D01*
X108473714Y-63079285D01*
X108426095Y-63174523D01*
X108330857Y-63269761D01*
X108188000Y-63317380D01*
X107949904Y-63317380D01*
D11*
X140940000Y-70660000D02*
X168940000Y-70660000D01*
X168940000Y-70660000D02*
X168940000Y-110660000D01*
X168940000Y-110660000D02*
X140940000Y-110660000D01*
X140940000Y-110660000D02*
X140940000Y-70660000D01*
X167940000Y-96660000D02*
G75*
G03X167940000Y-96660000I-13000000J0D01*
G01*
X168340000Y-106660000D02*
G75*
G03X168340000Y-106660000I-400000J0D01*
G01*
X167940000Y-107060000D02*
X167940000Y-109660000D01*
X167440000Y-109160000D02*
X167940000Y-109660000D01*
X167940000Y-109660000D02*
X168440000Y-109160000D01*
X164940000Y-106660000D02*
X165440000Y-106160000D01*
X164940000Y-106660000D02*
X165440000Y-107160000D01*
X164440000Y-107160000D02*
X164940000Y-108160000D01*
X164940000Y-107160000D02*
X164440000Y-108160000D01*
X167190000Y-109910000D02*
X166940000Y-109410000D01*
X166940000Y-109410000D02*
X166690000Y-109910000D01*
X166940000Y-109410000D02*
X166940000Y-108910000D01*
X164940000Y-106660000D02*
X167440000Y-106660000D01*
X87600000Y-70660000D02*
X115600000Y-70660000D01*
X115600000Y-70660000D02*
X115600000Y-110660000D01*
X115600000Y-110660000D02*
X87600000Y-110660000D01*
X87600000Y-110660000D02*
X87600000Y-70660000D01*
X114600000Y-96660000D02*
G75*
G03X114600000Y-96660000I-13000000J0D01*
G01*
X115000000Y-106660000D02*
G75*
G03X115000000Y-106660000I-400000J0D01*
G01*
X114600000Y-107060000D02*
X114600000Y-109660000D01*
X114100000Y-109160000D02*
X114600000Y-109660000D01*
X114600000Y-109660000D02*
X115100000Y-109160000D01*
X111600000Y-106660000D02*
X112100000Y-106160000D01*
X111600000Y-106660000D02*
X112100000Y-107160000D01*
X111100000Y-107160000D02*
X111600000Y-108160000D01*
X111600000Y-107160000D02*
X111100000Y-108160000D01*
X113850000Y-109910000D02*
X113600000Y-109410000D01*
X113600000Y-109410000D02*
X113350000Y-109910000D01*
X113600000Y-109410000D02*
X113600000Y-108910000D01*
X111600000Y-106660000D02*
X114100000Y-106660000D01*
X153670000Y-67330000D02*
X153670000Y-66000000D01*
X155000000Y-67330000D02*
X153670000Y-67330000D01*
X156270000Y-67330000D02*
X156270000Y-64670000D01*
X156270000Y-64670000D02*
X158870000Y-64670000D01*
X156270000Y-67330000D02*
X158870000Y-67330000D01*
X158870000Y-67330000D02*
X158870000Y-64670000D01*
X122870000Y-67330000D02*
X122870000Y-66000000D01*
X124200000Y-67330000D02*
X122870000Y-67330000D01*
X125470000Y-67330000D02*
X125470000Y-64670000D01*
X125470000Y-64670000D02*
X133150000Y-64670000D01*
X125470000Y-67330000D02*
X133150000Y-67330000D01*
X133150000Y-67330000D02*
X133150000Y-64670000D01*
X102810000Y-64710000D02*
X102810000Y-67370000D01*
X105410000Y-64710000D02*
X102810000Y-64710000D01*
X105410000Y-67370000D02*
X102810000Y-67370000D01*
X105410000Y-64710000D02*
X105410000Y-67370000D01*
X106680000Y-64710000D02*
X108010000Y-64710000D01*
X108010000Y-64710000D02*
X108010000Y-66040000D01*
D10*
X142378095Y-69412380D02*
X142378095Y-70221904D01*
X142425714Y-70317142D01*
X142473333Y-70364761D01*
X142568571Y-70412380D01*
X142759047Y-70412380D01*
X142854285Y-70364761D01*
X142901904Y-70317142D01*
X142949523Y-70221904D01*
X142949523Y-69412380D01*
X143378095Y-69507619D02*
X143425714Y-69460000D01*
X143520952Y-69412380D01*
X143759047Y-69412380D01*
X143854285Y-69460000D01*
X143901904Y-69507619D01*
X143949523Y-69602857D01*
X143949523Y-69698095D01*
X143901904Y-69840952D01*
X143330476Y-70412380D01*
X143949523Y-70412380D01*
X89038095Y-69412380D02*
X89038095Y-70221904D01*
X89085714Y-70317142D01*
X89133333Y-70364761D01*
X89228571Y-70412380D01*
X89419047Y-70412380D01*
X89514285Y-70364761D01*
X89561904Y-70317142D01*
X89609523Y-70221904D01*
X89609523Y-69412380D01*
X90609523Y-70412380D02*
X90038095Y-70412380D01*
X90323809Y-70412380D02*
X90323809Y-69412380D01*
X90228571Y-69555238D01*
X90133333Y-69650476D01*
X90038095Y-69698095D01*
X152122380Y-66333333D02*
X152836666Y-66333333D01*
X152979523Y-66380952D01*
X153074761Y-66476190D01*
X153122380Y-66619047D01*
X153122380Y-66714285D01*
X152217619Y-65904761D02*
X152170000Y-65857142D01*
X152122380Y-65761904D01*
X152122380Y-65523809D01*
X152170000Y-65428571D01*
X152217619Y-65380952D01*
X152312857Y-65333333D01*
X152408095Y-65333333D01*
X152550952Y-65380952D01*
X153122380Y-65952380D01*
X153122380Y-65333333D01*
X138761904Y-113452380D02*
X138761904Y-112452380D01*
X138761904Y-112928571D02*
X139333333Y-112928571D01*
X139333333Y-113452380D02*
X139333333Y-112452380D01*
X140333333Y-113452380D02*
X139761904Y-113452380D01*
X140047619Y-113452380D02*
X140047619Y-112452380D01*
X139952380Y-112595238D01*
X139857142Y-112690476D01*
X139761904Y-112738095D01*
X140714285Y-112547619D02*
X140761904Y-112500000D01*
X140857142Y-112452380D01*
X141095238Y-112452380D01*
X141190476Y-112500000D01*
X141238095Y-112547619D01*
X141285714Y-112642857D01*
X141285714Y-112738095D01*
X141238095Y-112880952D01*
X140666666Y-113452380D01*
X141285714Y-113452380D01*
X130761904Y-113452380D02*
X130761904Y-112452380D01*
X130761904Y-112928571D02*
X131333333Y-112928571D01*
X131333333Y-113452380D02*
X131333333Y-112452380D01*
X132333333Y-113452380D02*
X131761904Y-113452380D01*
X132047619Y-113452380D02*
X132047619Y-112452380D01*
X131952380Y-112595238D01*
X131857142Y-112690476D01*
X131761904Y-112738095D01*
X133285714Y-113452380D02*
X132714285Y-113452380D01*
X133000000Y-113452380D02*
X133000000Y-112452380D01*
X132904761Y-112595238D01*
X132809523Y-112690476D01*
X132714285Y-112738095D01*
X122761904Y-113452380D02*
X122761904Y-112452380D01*
X122761904Y-112928571D02*
X123333333Y-112928571D01*
X123333333Y-113452380D02*
X123333333Y-112452380D01*
X124333333Y-113452380D02*
X123761904Y-113452380D01*
X124047619Y-113452380D02*
X124047619Y-112452380D01*
X123952380Y-112595238D01*
X123857142Y-112690476D01*
X123761904Y-112738095D01*
X124952380Y-112452380D02*
X125047619Y-112452380D01*
X125142857Y-112500000D01*
X125190476Y-112547619D01*
X125238095Y-112642857D01*
X125285714Y-112833333D01*
X125285714Y-113071428D01*
X125238095Y-113261904D01*
X125190476Y-113357142D01*
X125142857Y-113404761D01*
X125047619Y-113452380D01*
X124952380Y-113452380D01*
X124857142Y-113404761D01*
X124809523Y-113357142D01*
X124761904Y-113261904D01*
X124714285Y-113071428D01*
X124714285Y-112833333D01*
X124761904Y-112642857D01*
X124809523Y-112547619D01*
X124857142Y-112500000D01*
X124952380Y-112452380D01*
X115238095Y-113452380D02*
X115238095Y-112452380D01*
X115238095Y-112928571D02*
X115809523Y-112928571D01*
X115809523Y-113452380D02*
X115809523Y-112452380D01*
X116333333Y-113452380D02*
X116523809Y-113452380D01*
X116619047Y-113404761D01*
X116666666Y-113357142D01*
X116761904Y-113214285D01*
X116809523Y-113023809D01*
X116809523Y-112642857D01*
X116761904Y-112547619D01*
X116714285Y-112500000D01*
X116619047Y-112452380D01*
X116428571Y-112452380D01*
X116333333Y-112500000D01*
X116285714Y-112547619D01*
X116238095Y-112642857D01*
X116238095Y-112880952D01*
X116285714Y-112976190D01*
X116333333Y-113023809D01*
X116428571Y-113071428D01*
X116619047Y-113071428D01*
X116714285Y-113023809D01*
X116761904Y-112976190D01*
X116809523Y-112880952D01*
X187238095Y-97452380D02*
X187238095Y-96452380D01*
X187238095Y-96928571D02*
X187809523Y-96928571D01*
X187809523Y-97452380D02*
X187809523Y-96452380D01*
X188428571Y-96880952D02*
X188333333Y-96833333D01*
X188285714Y-96785714D01*
X188238095Y-96690476D01*
X188238095Y-96642857D01*
X188285714Y-96547619D01*
X188333333Y-96500000D01*
X188428571Y-96452380D01*
X188619047Y-96452380D01*
X188714285Y-96500000D01*
X188761904Y-96547619D01*
X188809523Y-96642857D01*
X188809523Y-96690476D01*
X188761904Y-96785714D01*
X188714285Y-96833333D01*
X188619047Y-96880952D01*
X188428571Y-96880952D01*
X188333333Y-96928571D01*
X188285714Y-96976190D01*
X188238095Y-97071428D01*
X188238095Y-97261904D01*
X188285714Y-97357142D01*
X188333333Y-97404761D01*
X188428571Y-97452380D01*
X188619047Y-97452380D01*
X188714285Y-97404761D01*
X188761904Y-97357142D01*
X188809523Y-97261904D01*
X188809523Y-97071428D01*
X188761904Y-96976190D01*
X188714285Y-96928571D01*
X188619047Y-96880952D01*
X187238095Y-89452380D02*
X187238095Y-88452380D01*
X187238095Y-88928571D02*
X187809523Y-88928571D01*
X187809523Y-89452380D02*
X187809523Y-88452380D01*
X188190476Y-88452380D02*
X188857142Y-88452380D01*
X188428571Y-89452380D01*
X187238095Y-81452380D02*
X187238095Y-80452380D01*
X187238095Y-80928571D02*
X187809523Y-80928571D01*
X187809523Y-81452380D02*
X187809523Y-80452380D01*
X188714285Y-80452380D02*
X188523809Y-80452380D01*
X188428571Y-80500000D01*
X188380952Y-80547619D01*
X188285714Y-80690476D01*
X188238095Y-80880952D01*
X188238095Y-81261904D01*
X188285714Y-81357142D01*
X188333333Y-81404761D01*
X188428571Y-81452380D01*
X188619047Y-81452380D01*
X188714285Y-81404761D01*
X188761904Y-81357142D01*
X188809523Y-81261904D01*
X188809523Y-81023809D01*
X188761904Y-80928571D01*
X188714285Y-80880952D01*
X188619047Y-80833333D01*
X188428571Y-80833333D01*
X188333333Y-80880952D01*
X188285714Y-80928571D01*
X188238095Y-81023809D01*
X187238095Y-73452380D02*
X187238095Y-72452380D01*
X187238095Y-72928571D02*
X187809523Y-72928571D01*
X187809523Y-73452380D02*
X187809523Y-72452380D01*
X188761904Y-72452380D02*
X188285714Y-72452380D01*
X188238095Y-72928571D01*
X188285714Y-72880952D01*
X188380952Y-72833333D01*
X188619047Y-72833333D01*
X188714285Y-72880952D01*
X188761904Y-72928571D01*
X188809523Y-73023809D01*
X188809523Y-73261904D01*
X188761904Y-73357142D01*
X188714285Y-73404761D01*
X188619047Y-73452380D01*
X188380952Y-73452380D01*
X188285714Y-73404761D01*
X188238095Y-73357142D01*
X67238095Y-97452380D02*
X67238095Y-96452380D01*
X67238095Y-96928571D02*
X67809523Y-96928571D01*
X67809523Y-97452380D02*
X67809523Y-96452380D01*
X68714285Y-96785714D02*
X68714285Y-97452380D01*
X68476190Y-96404761D02*
X68238095Y-97119047D01*
X68857142Y-97119047D01*
X67238095Y-89452380D02*
X67238095Y-88452380D01*
X67238095Y-88928571D02*
X67809523Y-88928571D01*
X67809523Y-89452380D02*
X67809523Y-88452380D01*
X68190476Y-88452380D02*
X68809523Y-88452380D01*
X68476190Y-88833333D01*
X68619047Y-88833333D01*
X68714285Y-88880952D01*
X68761904Y-88928571D01*
X68809523Y-89023809D01*
X68809523Y-89261904D01*
X68761904Y-89357142D01*
X68714285Y-89404761D01*
X68619047Y-89452380D01*
X68333333Y-89452380D01*
X68238095Y-89404761D01*
X68190476Y-89357142D01*
X67238095Y-81452380D02*
X67238095Y-80452380D01*
X67238095Y-80928571D02*
X67809523Y-80928571D01*
X67809523Y-81452380D02*
X67809523Y-80452380D01*
X68238095Y-80547619D02*
X68285714Y-80500000D01*
X68380952Y-80452380D01*
X68619047Y-80452380D01*
X68714285Y-80500000D01*
X68761904Y-80547619D01*
X68809523Y-80642857D01*
X68809523Y-80738095D01*
X68761904Y-80880952D01*
X68190476Y-81452380D01*
X68809523Y-81452380D01*
X67238095Y-73452380D02*
X67238095Y-72452380D01*
X67238095Y-72928571D02*
X67809523Y-72928571D01*
X67809523Y-73452380D02*
X67809523Y-72452380D01*
X68809523Y-73452380D02*
X68238095Y-73452380D01*
X68523809Y-73452380D02*
X68523809Y-72452380D01*
X68428571Y-72595238D01*
X68333333Y-72690476D01*
X68238095Y-72738095D01*
X121322380Y-66333333D02*
X122036666Y-66333333D01*
X122179523Y-66380952D01*
X122274761Y-66476190D01*
X122322380Y-66619047D01*
X122322380Y-66714285D01*
X121322380Y-65952380D02*
X121322380Y-65333333D01*
X121703333Y-65666666D01*
X121703333Y-65523809D01*
X121750952Y-65428571D01*
X121798571Y-65380952D01*
X121893809Y-65333333D01*
X122131904Y-65333333D01*
X122227142Y-65380952D01*
X122274761Y-65428571D01*
X122322380Y-65523809D01*
X122322380Y-65809523D01*
X122274761Y-65904761D01*
X122227142Y-65952380D01*
X108462380Y-66373333D02*
X109176666Y-66373333D01*
X109319523Y-66420952D01*
X109414761Y-66516190D01*
X109462380Y-66659047D01*
X109462380Y-66754285D01*
X109462380Y-65373333D02*
X109462380Y-65944761D01*
X109462380Y-65659047D02*
X108462380Y-65659047D01*
X108605238Y-65754285D01*
X108700476Y-65849523D01*
X108748095Y-65944761D01*
M02*
