G04 #@! TF.GenerationSoftware,KiCad,Pcbnew,5.1.5+dfsg1-2build2*
G04 #@! TF.CreationDate,2021-11-01T16:20:09+01:00*
G04 #@! TF.ProjectId,joystick-board,6a6f7973-7469-4636-9b2d-626f6172642e,rev?*
G04 #@! TF.SameCoordinates,Original*
G04 #@! TF.FileFunction,Soldermask,Top*
G04 #@! TF.FilePolarity,Negative*
%FSLAX46Y46*%
G04 Gerber Fmt 4.6, Leading zero omitted, Abs format (unit mm)*
G04 Created by KiCad (PCBNEW 5.1.5+dfsg1-2build2) date 2021-11-01 16:20:09*
%MOMM*%
%LPD*%
G04 APERTURE LIST*
%ADD10C,0.100000*%
G04 APERTURE END LIST*
D10*
G36*
X116817021Y-114306640D02*
G01*
X117326769Y-114517785D01*
X117326771Y-114517786D01*
X117785534Y-114824321D01*
X118175679Y-115214466D01*
X118422171Y-115583368D01*
X118482215Y-115673231D01*
X118693360Y-116182979D01*
X118801000Y-116724124D01*
X118801000Y-117275876D01*
X118693360Y-117817021D01*
X118482215Y-118326769D01*
X118482214Y-118326771D01*
X118175679Y-118785534D01*
X117785534Y-119175679D01*
X117326771Y-119482214D01*
X117326770Y-119482215D01*
X117326769Y-119482215D01*
X116817021Y-119693360D01*
X116275876Y-119801000D01*
X115724124Y-119801000D01*
X115182979Y-119693360D01*
X114673231Y-119482215D01*
X114673230Y-119482215D01*
X114673229Y-119482214D01*
X114214466Y-119175679D01*
X113824321Y-118785534D01*
X113517786Y-118326771D01*
X113517785Y-118326769D01*
X113306640Y-117817021D01*
X113199000Y-117275876D01*
X113199000Y-116724124D01*
X113306640Y-116182979D01*
X113517785Y-115673231D01*
X113577829Y-115583368D01*
X113824321Y-115214466D01*
X114214466Y-114824321D01*
X114673229Y-114517786D01*
X114673231Y-114517785D01*
X115182979Y-114306640D01*
X115724124Y-114199000D01*
X116275876Y-114199000D01*
X116817021Y-114306640D01*
G37*
G36*
X124817021Y-114306640D02*
G01*
X125326769Y-114517785D01*
X125326771Y-114517786D01*
X125785534Y-114824321D01*
X126175679Y-115214466D01*
X126422171Y-115583368D01*
X126482215Y-115673231D01*
X126693360Y-116182979D01*
X126801000Y-116724124D01*
X126801000Y-117275876D01*
X126693360Y-117817021D01*
X126482215Y-118326769D01*
X126482214Y-118326771D01*
X126175679Y-118785534D01*
X125785534Y-119175679D01*
X125326771Y-119482214D01*
X125326770Y-119482215D01*
X125326769Y-119482215D01*
X124817021Y-119693360D01*
X124275876Y-119801000D01*
X123724124Y-119801000D01*
X123182979Y-119693360D01*
X122673231Y-119482215D01*
X122673230Y-119482215D01*
X122673229Y-119482214D01*
X122214466Y-119175679D01*
X121824321Y-118785534D01*
X121517786Y-118326771D01*
X121517785Y-118326769D01*
X121306640Y-117817021D01*
X121199000Y-117275876D01*
X121199000Y-116724124D01*
X121306640Y-116182979D01*
X121517785Y-115673231D01*
X121577829Y-115583368D01*
X121824321Y-115214466D01*
X122214466Y-114824321D01*
X122673229Y-114517786D01*
X122673231Y-114517785D01*
X123182979Y-114306640D01*
X123724124Y-114199000D01*
X124275876Y-114199000D01*
X124817021Y-114306640D01*
G37*
G36*
X140817021Y-114306640D02*
G01*
X141326769Y-114517785D01*
X141326771Y-114517786D01*
X141785534Y-114824321D01*
X142175679Y-115214466D01*
X142422171Y-115583368D01*
X142482215Y-115673231D01*
X142693360Y-116182979D01*
X142801000Y-116724124D01*
X142801000Y-117275876D01*
X142693360Y-117817021D01*
X142482215Y-118326769D01*
X142482214Y-118326771D01*
X142175679Y-118785534D01*
X141785534Y-119175679D01*
X141326771Y-119482214D01*
X141326770Y-119482215D01*
X141326769Y-119482215D01*
X140817021Y-119693360D01*
X140275876Y-119801000D01*
X139724124Y-119801000D01*
X139182979Y-119693360D01*
X138673231Y-119482215D01*
X138673230Y-119482215D01*
X138673229Y-119482214D01*
X138214466Y-119175679D01*
X137824321Y-118785534D01*
X137517786Y-118326771D01*
X137517785Y-118326769D01*
X137306640Y-117817021D01*
X137199000Y-117275876D01*
X137199000Y-116724124D01*
X137306640Y-116182979D01*
X137517785Y-115673231D01*
X137577829Y-115583368D01*
X137824321Y-115214466D01*
X138214466Y-114824321D01*
X138673229Y-114517786D01*
X138673231Y-114517785D01*
X139182979Y-114306640D01*
X139724124Y-114199000D01*
X140275876Y-114199000D01*
X140817021Y-114306640D01*
G37*
G36*
X132817021Y-114306640D02*
G01*
X133326769Y-114517785D01*
X133326771Y-114517786D01*
X133785534Y-114824321D01*
X134175679Y-115214466D01*
X134422171Y-115583368D01*
X134482215Y-115673231D01*
X134693360Y-116182979D01*
X134801000Y-116724124D01*
X134801000Y-117275876D01*
X134693360Y-117817021D01*
X134482215Y-118326769D01*
X134482214Y-118326771D01*
X134175679Y-118785534D01*
X133785534Y-119175679D01*
X133326771Y-119482214D01*
X133326770Y-119482215D01*
X133326769Y-119482215D01*
X132817021Y-119693360D01*
X132275876Y-119801000D01*
X131724124Y-119801000D01*
X131182979Y-119693360D01*
X130673231Y-119482215D01*
X130673230Y-119482215D01*
X130673229Y-119482214D01*
X130214466Y-119175679D01*
X129824321Y-118785534D01*
X129517786Y-118326771D01*
X129517785Y-118326769D01*
X129306640Y-117817021D01*
X129199000Y-117275876D01*
X129199000Y-116724124D01*
X129306640Y-116182979D01*
X129517785Y-115673231D01*
X129577829Y-115583368D01*
X129824321Y-115214466D01*
X130214466Y-114824321D01*
X130673229Y-114517786D01*
X130673231Y-114517785D01*
X131182979Y-114306640D01*
X131724124Y-114199000D01*
X132275876Y-114199000D01*
X132817021Y-114306640D01*
G37*
G36*
X102585401Y-106706054D02*
G01*
X103073322Y-106803107D01*
X103992546Y-107183862D01*
X104819825Y-107736632D01*
X105523368Y-108440175D01*
X106076138Y-109267454D01*
X106456893Y-110186678D01*
X106651000Y-111162520D01*
X106651000Y-112157480D01*
X106456893Y-113133322D01*
X106076138Y-114052546D01*
X105523368Y-114879825D01*
X104819825Y-115583368D01*
X103992546Y-116136138D01*
X103073322Y-116516893D01*
X102585401Y-116613947D01*
X102097481Y-116711000D01*
X101102519Y-116711000D01*
X100614599Y-116613947D01*
X100126678Y-116516893D01*
X99207454Y-116136138D01*
X98380175Y-115583368D01*
X97676632Y-114879825D01*
X97123862Y-114052546D01*
X96743107Y-113133322D01*
X96549000Y-112157480D01*
X96549000Y-111162520D01*
X96743107Y-110186678D01*
X97123862Y-109267454D01*
X97676632Y-108440175D01*
X98380175Y-107736632D01*
X99207454Y-107183862D01*
X100126678Y-106803107D01*
X100614599Y-106706054D01*
X101102519Y-106609000D01*
X102097481Y-106609000D01*
X102585401Y-106706054D01*
G37*
G36*
X155925401Y-106706054D02*
G01*
X156413322Y-106803107D01*
X157332546Y-107183862D01*
X158159825Y-107736632D01*
X158863368Y-108440175D01*
X159416138Y-109267454D01*
X159796893Y-110186678D01*
X159991000Y-111162520D01*
X159991000Y-112157480D01*
X159796893Y-113133322D01*
X159416138Y-114052546D01*
X158863368Y-114879825D01*
X158159825Y-115583368D01*
X157332546Y-116136138D01*
X156413322Y-116516893D01*
X155925401Y-116613947D01*
X155437481Y-116711000D01*
X154442519Y-116711000D01*
X153954599Y-116613947D01*
X153466678Y-116516893D01*
X152547454Y-116136138D01*
X151720175Y-115583368D01*
X151016632Y-114879825D01*
X150463862Y-114052546D01*
X150083107Y-113133322D01*
X149889000Y-112157480D01*
X149889000Y-111162520D01*
X150083107Y-110186678D01*
X150463862Y-109267454D01*
X151016632Y-108440175D01*
X151720175Y-107736632D01*
X152547454Y-107183862D01*
X153466678Y-106803107D01*
X153954599Y-106706054D01*
X154442519Y-106609000D01*
X155437481Y-106609000D01*
X155925401Y-106706054D01*
G37*
G36*
X117198254Y-101687818D02*
G01*
X117510180Y-101817022D01*
X117571513Y-101842427D01*
X117907436Y-102066884D01*
X118193116Y-102352564D01*
X118417574Y-102688489D01*
X118572182Y-103061746D01*
X118651000Y-103457993D01*
X118651000Y-103862007D01*
X118572182Y-104258254D01*
X118417574Y-104631511D01*
X118417573Y-104631513D01*
X118193116Y-104967436D01*
X117907436Y-105253116D01*
X117571513Y-105477573D01*
X117571512Y-105477574D01*
X117571511Y-105477574D01*
X117198254Y-105632182D01*
X116802007Y-105711000D01*
X116397993Y-105711000D01*
X116001746Y-105632182D01*
X115628489Y-105477574D01*
X115628488Y-105477574D01*
X115628487Y-105477573D01*
X115292564Y-105253116D01*
X115006884Y-104967436D01*
X114782427Y-104631513D01*
X114782426Y-104631511D01*
X114627818Y-104258254D01*
X114549000Y-103862007D01*
X114549000Y-103457993D01*
X114627818Y-103061746D01*
X114782426Y-102688489D01*
X115006884Y-102352564D01*
X115292564Y-102066884D01*
X115628487Y-101842427D01*
X115689820Y-101817022D01*
X116001746Y-101687818D01*
X116397993Y-101609000D01*
X116802007Y-101609000D01*
X117198254Y-101687818D01*
G37*
G36*
X170538254Y-101687818D02*
G01*
X170850180Y-101817022D01*
X170911513Y-101842427D01*
X171247436Y-102066884D01*
X171533116Y-102352564D01*
X171757574Y-102688489D01*
X171912182Y-103061746D01*
X171991000Y-103457993D01*
X171991000Y-103862007D01*
X171912182Y-104258254D01*
X171757574Y-104631511D01*
X171757573Y-104631513D01*
X171533116Y-104967436D01*
X171247436Y-105253116D01*
X170911513Y-105477573D01*
X170911512Y-105477574D01*
X170911511Y-105477574D01*
X170538254Y-105632182D01*
X170142007Y-105711000D01*
X169737993Y-105711000D01*
X169341746Y-105632182D01*
X168968489Y-105477574D01*
X168968488Y-105477574D01*
X168968487Y-105477573D01*
X168632564Y-105253116D01*
X168346884Y-104967436D01*
X168122427Y-104631513D01*
X168122426Y-104631511D01*
X167967818Y-104258254D01*
X167889000Y-103862007D01*
X167889000Y-103457993D01*
X167967818Y-103061746D01*
X168122426Y-102688489D01*
X168346884Y-102352564D01*
X168632564Y-102066884D01*
X168968487Y-101842427D01*
X169029820Y-101817022D01*
X169341746Y-101687818D01*
X169737993Y-101609000D01*
X170142007Y-101609000D01*
X170538254Y-101687818D01*
G37*
G36*
X140538254Y-101687818D02*
G01*
X140850180Y-101817022D01*
X140911513Y-101842427D01*
X141247436Y-102066884D01*
X141533116Y-102352564D01*
X141757574Y-102688489D01*
X141912182Y-103061746D01*
X141991000Y-103457993D01*
X141991000Y-103862007D01*
X141912182Y-104258254D01*
X141757574Y-104631511D01*
X141757573Y-104631513D01*
X141533116Y-104967436D01*
X141247436Y-105253116D01*
X140911513Y-105477573D01*
X140911512Y-105477574D01*
X140911511Y-105477574D01*
X140538254Y-105632182D01*
X140142007Y-105711000D01*
X139737993Y-105711000D01*
X139341746Y-105632182D01*
X138968489Y-105477574D01*
X138968488Y-105477574D01*
X138968487Y-105477573D01*
X138632564Y-105253116D01*
X138346884Y-104967436D01*
X138122427Y-104631513D01*
X138122426Y-104631511D01*
X137967818Y-104258254D01*
X137889000Y-103862007D01*
X137889000Y-103457993D01*
X137967818Y-103061746D01*
X138122426Y-102688489D01*
X138346884Y-102352564D01*
X138632564Y-102066884D01*
X138968487Y-101842427D01*
X139029820Y-101817022D01*
X139341746Y-101687818D01*
X139737993Y-101609000D01*
X140142007Y-101609000D01*
X140538254Y-101687818D01*
G37*
G36*
X87198254Y-101687818D02*
G01*
X87510180Y-101817022D01*
X87571513Y-101842427D01*
X87907436Y-102066884D01*
X88193116Y-102352564D01*
X88417574Y-102688489D01*
X88572182Y-103061746D01*
X88651000Y-103457993D01*
X88651000Y-103862007D01*
X88572182Y-104258254D01*
X88417574Y-104631511D01*
X88417573Y-104631513D01*
X88193116Y-104967436D01*
X87907436Y-105253116D01*
X87571513Y-105477573D01*
X87571512Y-105477574D01*
X87571511Y-105477574D01*
X87198254Y-105632182D01*
X86802007Y-105711000D01*
X86397993Y-105711000D01*
X86001746Y-105632182D01*
X85628489Y-105477574D01*
X85628488Y-105477574D01*
X85628487Y-105477573D01*
X85292564Y-105253116D01*
X85006884Y-104967436D01*
X84782427Y-104631513D01*
X84782426Y-104631511D01*
X84627818Y-104258254D01*
X84549000Y-103862007D01*
X84549000Y-103457993D01*
X84627818Y-103061746D01*
X84782426Y-102688489D01*
X85006884Y-102352564D01*
X85292564Y-102066884D01*
X85628487Y-101842427D01*
X85689820Y-101817022D01*
X86001746Y-101687818D01*
X86397993Y-101609000D01*
X86802007Y-101609000D01*
X87198254Y-101687818D01*
G37*
G36*
X68817021Y-98306640D02*
G01*
X69326769Y-98517785D01*
X69326771Y-98517786D01*
X69785534Y-98824321D01*
X70175679Y-99214466D01*
X70482214Y-99673229D01*
X70482215Y-99673231D01*
X70693360Y-100182979D01*
X70801000Y-100724124D01*
X70801000Y-101275876D01*
X70693360Y-101817021D01*
X70682836Y-101842427D01*
X70482214Y-102326771D01*
X70175679Y-102785534D01*
X69785534Y-103175679D01*
X69326771Y-103482214D01*
X69326770Y-103482215D01*
X69326769Y-103482215D01*
X68817021Y-103693360D01*
X68275876Y-103801000D01*
X67724124Y-103801000D01*
X67182979Y-103693360D01*
X66673231Y-103482215D01*
X66673230Y-103482215D01*
X66673229Y-103482214D01*
X66214466Y-103175679D01*
X65824321Y-102785534D01*
X65517786Y-102326771D01*
X65317164Y-101842427D01*
X65306640Y-101817021D01*
X65199000Y-101275876D01*
X65199000Y-100724124D01*
X65306640Y-100182979D01*
X65517785Y-99673231D01*
X65517786Y-99673229D01*
X65824321Y-99214466D01*
X66214466Y-98824321D01*
X66673229Y-98517786D01*
X66673231Y-98517785D01*
X67182979Y-98306640D01*
X67724124Y-98199000D01*
X68275876Y-98199000D01*
X68817021Y-98306640D01*
G37*
G36*
X188817021Y-98306640D02*
G01*
X189326769Y-98517785D01*
X189326771Y-98517786D01*
X189785534Y-98824321D01*
X190175679Y-99214466D01*
X190482214Y-99673229D01*
X190482215Y-99673231D01*
X190693360Y-100182979D01*
X190801000Y-100724124D01*
X190801000Y-101275876D01*
X190693360Y-101817021D01*
X190682836Y-101842427D01*
X190482214Y-102326771D01*
X190175679Y-102785534D01*
X189785534Y-103175679D01*
X189326771Y-103482214D01*
X189326770Y-103482215D01*
X189326769Y-103482215D01*
X188817021Y-103693360D01*
X188275876Y-103801000D01*
X187724124Y-103801000D01*
X187182979Y-103693360D01*
X186673231Y-103482215D01*
X186673230Y-103482215D01*
X186673229Y-103482214D01*
X186214466Y-103175679D01*
X185824321Y-102785534D01*
X185517786Y-102326771D01*
X185317164Y-101842427D01*
X185306640Y-101817021D01*
X185199000Y-101275876D01*
X185199000Y-100724124D01*
X185306640Y-100182979D01*
X185517785Y-99673231D01*
X185517786Y-99673229D01*
X185824321Y-99214466D01*
X186214466Y-98824321D01*
X186673229Y-98517786D01*
X186673231Y-98517785D01*
X187182979Y-98306640D01*
X187724124Y-98199000D01*
X188275876Y-98199000D01*
X188817021Y-98306640D01*
G37*
G36*
X68817021Y-90306640D02*
G01*
X69326769Y-90517785D01*
X69326771Y-90517786D01*
X69785534Y-90824321D01*
X70175679Y-91214466D01*
X70482214Y-91673229D01*
X70482215Y-91673231D01*
X70693360Y-92182979D01*
X70801000Y-92724124D01*
X70801000Y-93275876D01*
X70693360Y-93817021D01*
X70482215Y-94326769D01*
X70482214Y-94326771D01*
X70175679Y-94785534D01*
X69785534Y-95175679D01*
X69326771Y-95482214D01*
X69326770Y-95482215D01*
X69326769Y-95482215D01*
X68817021Y-95693360D01*
X68275876Y-95801000D01*
X67724124Y-95801000D01*
X67182979Y-95693360D01*
X66673231Y-95482215D01*
X66673230Y-95482215D01*
X66673229Y-95482214D01*
X66214466Y-95175679D01*
X65824321Y-94785534D01*
X65517786Y-94326771D01*
X65517785Y-94326769D01*
X65306640Y-93817021D01*
X65199000Y-93275876D01*
X65199000Y-92724124D01*
X65306640Y-92182979D01*
X65517785Y-91673231D01*
X65517786Y-91673229D01*
X65824321Y-91214466D01*
X66214466Y-90824321D01*
X66673229Y-90517786D01*
X66673231Y-90517785D01*
X67182979Y-90306640D01*
X67724124Y-90199000D01*
X68275876Y-90199000D01*
X68817021Y-90306640D01*
G37*
G36*
X188817021Y-90306640D02*
G01*
X189326769Y-90517785D01*
X189326771Y-90517786D01*
X189785534Y-90824321D01*
X190175679Y-91214466D01*
X190482214Y-91673229D01*
X190482215Y-91673231D01*
X190693360Y-92182979D01*
X190801000Y-92724124D01*
X190801000Y-93275876D01*
X190693360Y-93817021D01*
X190482215Y-94326769D01*
X190482214Y-94326771D01*
X190175679Y-94785534D01*
X189785534Y-95175679D01*
X189326771Y-95482214D01*
X189326770Y-95482215D01*
X189326769Y-95482215D01*
X188817021Y-95693360D01*
X188275876Y-95801000D01*
X187724124Y-95801000D01*
X187182979Y-95693360D01*
X186673231Y-95482215D01*
X186673230Y-95482215D01*
X186673229Y-95482214D01*
X186214466Y-95175679D01*
X185824321Y-94785534D01*
X185517786Y-94326771D01*
X185517785Y-94326769D01*
X185306640Y-93817021D01*
X185199000Y-93275876D01*
X185199000Y-92724124D01*
X185306640Y-92182979D01*
X185517785Y-91673231D01*
X185517786Y-91673229D01*
X185824321Y-91214466D01*
X186214466Y-90824321D01*
X186673229Y-90517786D01*
X186673231Y-90517785D01*
X187182979Y-90306640D01*
X187724124Y-90199000D01*
X188275876Y-90199000D01*
X188817021Y-90306640D01*
G37*
G36*
X188817021Y-82306640D02*
G01*
X189326769Y-82517785D01*
X189326771Y-82517786D01*
X189785534Y-82824321D01*
X190175679Y-83214466D01*
X190482214Y-83673229D01*
X190482215Y-83673231D01*
X190693360Y-84182979D01*
X190801000Y-84724124D01*
X190801000Y-85275876D01*
X190693360Y-85817021D01*
X190482215Y-86326769D01*
X190482214Y-86326771D01*
X190175679Y-86785534D01*
X189785534Y-87175679D01*
X189326771Y-87482214D01*
X189326770Y-87482215D01*
X189326769Y-87482215D01*
X188817021Y-87693360D01*
X188275876Y-87801000D01*
X187724124Y-87801000D01*
X187182979Y-87693360D01*
X186673231Y-87482215D01*
X186673230Y-87482215D01*
X186673229Y-87482214D01*
X186214466Y-87175679D01*
X185824321Y-86785534D01*
X185517786Y-86326771D01*
X185517785Y-86326769D01*
X185306640Y-85817021D01*
X185199000Y-85275876D01*
X185199000Y-84724124D01*
X185306640Y-84182979D01*
X185517785Y-83673231D01*
X185517786Y-83673229D01*
X185824321Y-83214466D01*
X186214466Y-82824321D01*
X186673229Y-82517786D01*
X186673231Y-82517785D01*
X187182979Y-82306640D01*
X187724124Y-82199000D01*
X188275876Y-82199000D01*
X188817021Y-82306640D01*
G37*
G36*
X68817021Y-82306640D02*
G01*
X69326769Y-82517785D01*
X69326771Y-82517786D01*
X69785534Y-82824321D01*
X70175679Y-83214466D01*
X70482214Y-83673229D01*
X70482215Y-83673231D01*
X70693360Y-84182979D01*
X70801000Y-84724124D01*
X70801000Y-85275876D01*
X70693360Y-85817021D01*
X70482215Y-86326769D01*
X70482214Y-86326771D01*
X70175679Y-86785534D01*
X69785534Y-87175679D01*
X69326771Y-87482214D01*
X69326770Y-87482215D01*
X69326769Y-87482215D01*
X68817021Y-87693360D01*
X68275876Y-87801000D01*
X67724124Y-87801000D01*
X67182979Y-87693360D01*
X66673231Y-87482215D01*
X66673230Y-87482215D01*
X66673229Y-87482214D01*
X66214466Y-87175679D01*
X65824321Y-86785534D01*
X65517786Y-86326771D01*
X65517785Y-86326769D01*
X65306640Y-85817021D01*
X65199000Y-85275876D01*
X65199000Y-84724124D01*
X65306640Y-84182979D01*
X65517785Y-83673231D01*
X65517786Y-83673229D01*
X65824321Y-83214466D01*
X66214466Y-82824321D01*
X66673229Y-82517786D01*
X66673231Y-82517785D01*
X67182979Y-82306640D01*
X67724124Y-82199000D01*
X68275876Y-82199000D01*
X68817021Y-82306640D01*
G37*
G36*
X140925401Y-77706054D02*
G01*
X141413322Y-77803107D01*
X142332546Y-78183862D01*
X143159825Y-78736632D01*
X143863368Y-79440175D01*
X144416138Y-80267454D01*
X144796893Y-81186678D01*
X144991000Y-82162520D01*
X144991000Y-83157480D01*
X144796893Y-84133322D01*
X144416138Y-85052546D01*
X143863368Y-85879825D01*
X143159825Y-86583368D01*
X142332546Y-87136138D01*
X141413322Y-87516893D01*
X140925401Y-87613947D01*
X140437481Y-87711000D01*
X139442519Y-87711000D01*
X138954599Y-87613947D01*
X138466678Y-87516893D01*
X137547454Y-87136138D01*
X136720175Y-86583368D01*
X136016632Y-85879825D01*
X135463862Y-85052546D01*
X135083107Y-84133322D01*
X134889000Y-83157480D01*
X134889000Y-82162520D01*
X135083107Y-81186678D01*
X135463862Y-80267454D01*
X136016632Y-79440175D01*
X136720175Y-78736632D01*
X137547454Y-78183862D01*
X138466678Y-77803107D01*
X138954599Y-77706054D01*
X139442519Y-77609000D01*
X140437481Y-77609000D01*
X140925401Y-77706054D01*
G37*
G36*
X170925401Y-77706054D02*
G01*
X171413322Y-77803107D01*
X172332546Y-78183862D01*
X173159825Y-78736632D01*
X173863368Y-79440175D01*
X174416138Y-80267454D01*
X174796893Y-81186678D01*
X174991000Y-82162520D01*
X174991000Y-83157480D01*
X174796893Y-84133322D01*
X174416138Y-85052546D01*
X173863368Y-85879825D01*
X173159825Y-86583368D01*
X172332546Y-87136138D01*
X171413322Y-87516893D01*
X170925401Y-87613947D01*
X170437481Y-87711000D01*
X169442519Y-87711000D01*
X168954599Y-87613947D01*
X168466678Y-87516893D01*
X167547454Y-87136138D01*
X166720175Y-86583368D01*
X166016632Y-85879825D01*
X165463862Y-85052546D01*
X165083107Y-84133322D01*
X164889000Y-83157480D01*
X164889000Y-82162520D01*
X165083107Y-81186678D01*
X165463862Y-80267454D01*
X166016632Y-79440175D01*
X166720175Y-78736632D01*
X167547454Y-78183862D01*
X168466678Y-77803107D01*
X168954599Y-77706054D01*
X169442519Y-77609000D01*
X170437481Y-77609000D01*
X170925401Y-77706054D01*
G37*
G36*
X87585401Y-77706054D02*
G01*
X88073322Y-77803107D01*
X88992546Y-78183862D01*
X89819825Y-78736632D01*
X90523368Y-79440175D01*
X91076138Y-80267454D01*
X91456893Y-81186678D01*
X91651000Y-82162520D01*
X91651000Y-83157480D01*
X91456893Y-84133322D01*
X91076138Y-85052546D01*
X90523368Y-85879825D01*
X89819825Y-86583368D01*
X88992546Y-87136138D01*
X88073322Y-87516893D01*
X87585401Y-87613947D01*
X87097481Y-87711000D01*
X86102519Y-87711000D01*
X85614599Y-87613947D01*
X85126678Y-87516893D01*
X84207454Y-87136138D01*
X83380175Y-86583368D01*
X82676632Y-85879825D01*
X82123862Y-85052546D01*
X81743107Y-84133322D01*
X81549000Y-83157480D01*
X81549000Y-82162520D01*
X81743107Y-81186678D01*
X82123862Y-80267454D01*
X82676632Y-79440175D01*
X83380175Y-78736632D01*
X84207454Y-78183862D01*
X85126678Y-77803107D01*
X85614599Y-77706054D01*
X86102519Y-77609000D01*
X87097481Y-77609000D01*
X87585401Y-77706054D01*
G37*
G36*
X117585401Y-77706054D02*
G01*
X118073322Y-77803107D01*
X118992546Y-78183862D01*
X119819825Y-78736632D01*
X120523368Y-79440175D01*
X121076138Y-80267454D01*
X121456893Y-81186678D01*
X121651000Y-82162520D01*
X121651000Y-83157480D01*
X121456893Y-84133322D01*
X121076138Y-85052546D01*
X120523368Y-85879825D01*
X119819825Y-86583368D01*
X118992546Y-87136138D01*
X118073322Y-87516893D01*
X117585401Y-87613947D01*
X117097481Y-87711000D01*
X116102519Y-87711000D01*
X115614599Y-87613947D01*
X115126678Y-87516893D01*
X114207454Y-87136138D01*
X113380175Y-86583368D01*
X112676632Y-85879825D01*
X112123862Y-85052546D01*
X111743107Y-84133322D01*
X111549000Y-83157480D01*
X111549000Y-82162520D01*
X111743107Y-81186678D01*
X112123862Y-80267454D01*
X112676632Y-79440175D01*
X113380175Y-78736632D01*
X114207454Y-78183862D01*
X115126678Y-77803107D01*
X115614599Y-77706054D01*
X116102519Y-77609000D01*
X117097481Y-77609000D01*
X117585401Y-77706054D01*
G37*
G36*
X188817021Y-74306640D02*
G01*
X189326769Y-74517785D01*
X189326771Y-74517786D01*
X189785534Y-74824321D01*
X190175679Y-75214466D01*
X190482214Y-75673229D01*
X190482215Y-75673231D01*
X190693360Y-76182979D01*
X190801000Y-76724124D01*
X190801000Y-77275876D01*
X190693360Y-77817021D01*
X190541409Y-78183862D01*
X190482214Y-78326771D01*
X190175679Y-78785534D01*
X189785534Y-79175679D01*
X189326771Y-79482214D01*
X189326770Y-79482215D01*
X189326769Y-79482215D01*
X188817021Y-79693360D01*
X188275876Y-79801000D01*
X187724124Y-79801000D01*
X187182979Y-79693360D01*
X186673231Y-79482215D01*
X186673230Y-79482215D01*
X186673229Y-79482214D01*
X186214466Y-79175679D01*
X185824321Y-78785534D01*
X185517786Y-78326771D01*
X185458591Y-78183862D01*
X185306640Y-77817021D01*
X185199000Y-77275876D01*
X185199000Y-76724124D01*
X185306640Y-76182979D01*
X185517785Y-75673231D01*
X185517786Y-75673229D01*
X185824321Y-75214466D01*
X186214466Y-74824321D01*
X186673229Y-74517786D01*
X186673231Y-74517785D01*
X187182979Y-74306640D01*
X187724124Y-74199000D01*
X188275876Y-74199000D01*
X188817021Y-74306640D01*
G37*
G36*
X68817021Y-74306640D02*
G01*
X69326769Y-74517785D01*
X69326771Y-74517786D01*
X69785534Y-74824321D01*
X70175679Y-75214466D01*
X70482214Y-75673229D01*
X70482215Y-75673231D01*
X70693360Y-76182979D01*
X70801000Y-76724124D01*
X70801000Y-77275876D01*
X70693360Y-77817021D01*
X70541409Y-78183862D01*
X70482214Y-78326771D01*
X70175679Y-78785534D01*
X69785534Y-79175679D01*
X69326771Y-79482214D01*
X69326770Y-79482215D01*
X69326769Y-79482215D01*
X68817021Y-79693360D01*
X68275876Y-79801000D01*
X67724124Y-79801000D01*
X67182979Y-79693360D01*
X66673231Y-79482215D01*
X66673230Y-79482215D01*
X66673229Y-79482214D01*
X66214466Y-79175679D01*
X65824321Y-78785534D01*
X65517786Y-78326771D01*
X65458591Y-78183862D01*
X65306640Y-77817021D01*
X65199000Y-77275876D01*
X65199000Y-76724124D01*
X65306640Y-76182979D01*
X65517785Y-75673231D01*
X65517786Y-75673229D01*
X65824321Y-75214466D01*
X66214466Y-74824321D01*
X66673229Y-74517786D01*
X66673231Y-74517785D01*
X67182979Y-74306640D01*
X67724124Y-74199000D01*
X68275876Y-74199000D01*
X68817021Y-74306640D01*
G37*
G36*
X113198254Y-72187818D02*
G01*
X113571511Y-72342426D01*
X113571513Y-72342427D01*
X113907436Y-72566884D01*
X114193116Y-72852564D01*
X114386340Y-73141743D01*
X114417574Y-73188489D01*
X114572182Y-73561746D01*
X114651000Y-73957993D01*
X114651000Y-74362007D01*
X114572182Y-74758254D01*
X114544816Y-74824321D01*
X114417573Y-75131513D01*
X114193116Y-75467436D01*
X113907436Y-75753116D01*
X113571513Y-75977573D01*
X113571512Y-75977574D01*
X113571511Y-75977574D01*
X113198254Y-76132182D01*
X112802007Y-76211000D01*
X112397993Y-76211000D01*
X112001746Y-76132182D01*
X111628489Y-75977574D01*
X111628488Y-75977574D01*
X111628487Y-75977573D01*
X111292564Y-75753116D01*
X111006884Y-75467436D01*
X110782427Y-75131513D01*
X110655184Y-74824321D01*
X110627818Y-74758254D01*
X110549000Y-74362007D01*
X110549000Y-73957993D01*
X110627818Y-73561746D01*
X110782426Y-73188489D01*
X110813661Y-73141743D01*
X111006884Y-72852564D01*
X111292564Y-72566884D01*
X111628487Y-72342427D01*
X111628489Y-72342426D01*
X112001746Y-72187818D01*
X112397993Y-72109000D01*
X112802007Y-72109000D01*
X113198254Y-72187818D01*
G37*
G36*
X166538254Y-72187818D02*
G01*
X166911511Y-72342426D01*
X166911513Y-72342427D01*
X167247436Y-72566884D01*
X167533116Y-72852564D01*
X167726340Y-73141743D01*
X167757574Y-73188489D01*
X167912182Y-73561746D01*
X167991000Y-73957993D01*
X167991000Y-74362007D01*
X167912182Y-74758254D01*
X167884816Y-74824321D01*
X167757573Y-75131513D01*
X167533116Y-75467436D01*
X167247436Y-75753116D01*
X166911513Y-75977573D01*
X166911512Y-75977574D01*
X166911511Y-75977574D01*
X166538254Y-76132182D01*
X166142007Y-76211000D01*
X165737993Y-76211000D01*
X165341746Y-76132182D01*
X164968489Y-75977574D01*
X164968488Y-75977574D01*
X164968487Y-75977573D01*
X164632564Y-75753116D01*
X164346884Y-75467436D01*
X164122427Y-75131513D01*
X163995184Y-74824321D01*
X163967818Y-74758254D01*
X163889000Y-74362007D01*
X163889000Y-73957993D01*
X163967818Y-73561746D01*
X164122426Y-73188489D01*
X164153661Y-73141743D01*
X164346884Y-72852564D01*
X164632564Y-72566884D01*
X164968487Y-72342427D01*
X164968489Y-72342426D01*
X165341746Y-72187818D01*
X165737993Y-72109000D01*
X166142007Y-72109000D01*
X166538254Y-72187818D01*
G37*
G36*
X144538254Y-72187818D02*
G01*
X144911511Y-72342426D01*
X144911513Y-72342427D01*
X145247436Y-72566884D01*
X145533116Y-72852564D01*
X145726340Y-73141743D01*
X145757574Y-73188489D01*
X145912182Y-73561746D01*
X145991000Y-73957993D01*
X145991000Y-74362007D01*
X145912182Y-74758254D01*
X145884816Y-74824321D01*
X145757573Y-75131513D01*
X145533116Y-75467436D01*
X145247436Y-75753116D01*
X144911513Y-75977573D01*
X144911512Y-75977574D01*
X144911511Y-75977574D01*
X144538254Y-76132182D01*
X144142007Y-76211000D01*
X143737993Y-76211000D01*
X143341746Y-76132182D01*
X142968489Y-75977574D01*
X142968488Y-75977574D01*
X142968487Y-75977573D01*
X142632564Y-75753116D01*
X142346884Y-75467436D01*
X142122427Y-75131513D01*
X141995184Y-74824321D01*
X141967818Y-74758254D01*
X141889000Y-74362007D01*
X141889000Y-73957993D01*
X141967818Y-73561746D01*
X142122426Y-73188489D01*
X142153661Y-73141743D01*
X142346884Y-72852564D01*
X142632564Y-72566884D01*
X142968487Y-72342427D01*
X142968489Y-72342426D01*
X143341746Y-72187818D01*
X143737993Y-72109000D01*
X144142007Y-72109000D01*
X144538254Y-72187818D01*
G37*
G36*
X91198254Y-72187818D02*
G01*
X91571511Y-72342426D01*
X91571513Y-72342427D01*
X91907436Y-72566884D01*
X92193116Y-72852564D01*
X92386340Y-73141743D01*
X92417574Y-73188489D01*
X92572182Y-73561746D01*
X92651000Y-73957993D01*
X92651000Y-74362007D01*
X92572182Y-74758254D01*
X92544816Y-74824321D01*
X92417573Y-75131513D01*
X92193116Y-75467436D01*
X91907436Y-75753116D01*
X91571513Y-75977573D01*
X91571512Y-75977574D01*
X91571511Y-75977574D01*
X91198254Y-76132182D01*
X90802007Y-76211000D01*
X90397993Y-76211000D01*
X90001746Y-76132182D01*
X89628489Y-75977574D01*
X89628488Y-75977574D01*
X89628487Y-75977573D01*
X89292564Y-75753116D01*
X89006884Y-75467436D01*
X88782427Y-75131513D01*
X88655184Y-74824321D01*
X88627818Y-74758254D01*
X88549000Y-74362007D01*
X88549000Y-73957993D01*
X88627818Y-73561746D01*
X88782426Y-73188489D01*
X88813661Y-73141743D01*
X89006884Y-72852564D01*
X89292564Y-72566884D01*
X89628487Y-72342427D01*
X89628489Y-72342426D01*
X90001746Y-72187818D01*
X90397993Y-72109000D01*
X90802007Y-72109000D01*
X91198254Y-72187818D01*
G37*
G36*
X155177142Y-72878242D02*
G01*
X155325101Y-72939529D01*
X155458255Y-73028499D01*
X155571501Y-73141745D01*
X155660471Y-73274899D01*
X155721758Y-73422858D01*
X155753000Y-73579925D01*
X155753000Y-73740075D01*
X155721758Y-73897142D01*
X155660471Y-74045101D01*
X155571501Y-74178255D01*
X155458255Y-74291501D01*
X155325101Y-74380471D01*
X155177142Y-74441758D01*
X155020075Y-74473000D01*
X154859925Y-74473000D01*
X154702858Y-74441758D01*
X154554899Y-74380471D01*
X154421745Y-74291501D01*
X154308499Y-74178255D01*
X154219529Y-74045101D01*
X154158242Y-73897142D01*
X154127000Y-73740075D01*
X154127000Y-73579925D01*
X154158242Y-73422858D01*
X154219529Y-73274899D01*
X154308499Y-73141745D01*
X154421745Y-73028499D01*
X154554899Y-72939529D01*
X154702858Y-72878242D01*
X154859925Y-72847000D01*
X155020075Y-72847000D01*
X155177142Y-72878242D01*
G37*
G36*
X160257142Y-72878242D02*
G01*
X160405101Y-72939529D01*
X160538255Y-73028499D01*
X160651501Y-73141745D01*
X160740471Y-73274899D01*
X160801758Y-73422858D01*
X160833000Y-73579925D01*
X160833000Y-73740075D01*
X160801758Y-73897142D01*
X160740471Y-74045101D01*
X160651501Y-74178255D01*
X160538255Y-74291501D01*
X160405101Y-74380471D01*
X160257142Y-74441758D01*
X160100075Y-74473000D01*
X159939925Y-74473000D01*
X159782858Y-74441758D01*
X159634899Y-74380471D01*
X159501745Y-74291501D01*
X159388499Y-74178255D01*
X159299529Y-74045101D01*
X159238242Y-73897142D01*
X159207000Y-73740075D01*
X159207000Y-73579925D01*
X159238242Y-73422858D01*
X159299529Y-73274899D01*
X159388499Y-73141745D01*
X159501745Y-73028499D01*
X159634899Y-72939529D01*
X159782858Y-72878242D01*
X159939925Y-72847000D01*
X160100075Y-72847000D01*
X160257142Y-72878242D01*
G37*
G36*
X152637142Y-72878242D02*
G01*
X152785101Y-72939529D01*
X152918255Y-73028499D01*
X153031501Y-73141745D01*
X153120471Y-73274899D01*
X153181758Y-73422858D01*
X153213000Y-73579925D01*
X153213000Y-73740075D01*
X153181758Y-73897142D01*
X153120471Y-74045101D01*
X153031501Y-74178255D01*
X152918255Y-74291501D01*
X152785101Y-74380471D01*
X152637142Y-74441758D01*
X152480075Y-74473000D01*
X152319925Y-74473000D01*
X152162858Y-74441758D01*
X152014899Y-74380471D01*
X151881745Y-74291501D01*
X151768499Y-74178255D01*
X151679529Y-74045101D01*
X151618242Y-73897142D01*
X151587000Y-73740075D01*
X151587000Y-73579925D01*
X151618242Y-73422858D01*
X151679529Y-73274899D01*
X151768499Y-73141745D01*
X151881745Y-73028499D01*
X152014899Y-72939529D01*
X152162858Y-72878242D01*
X152319925Y-72847000D01*
X152480075Y-72847000D01*
X152637142Y-72878242D01*
G37*
G36*
X150097142Y-72878242D02*
G01*
X150245101Y-72939529D01*
X150378255Y-73028499D01*
X150491501Y-73141745D01*
X150580471Y-73274899D01*
X150641758Y-73422858D01*
X150673000Y-73579925D01*
X150673000Y-73740075D01*
X150641758Y-73897142D01*
X150580471Y-74045101D01*
X150491501Y-74178255D01*
X150378255Y-74291501D01*
X150245101Y-74380471D01*
X150097142Y-74441758D01*
X149940075Y-74473000D01*
X149779925Y-74473000D01*
X149622858Y-74441758D01*
X149474899Y-74380471D01*
X149341745Y-74291501D01*
X149228499Y-74178255D01*
X149139529Y-74045101D01*
X149078242Y-73897142D01*
X149047000Y-73740075D01*
X149047000Y-73579925D01*
X149078242Y-73422858D01*
X149139529Y-73274899D01*
X149228499Y-73141745D01*
X149341745Y-73028499D01*
X149474899Y-72939529D01*
X149622858Y-72878242D01*
X149779925Y-72847000D01*
X149940075Y-72847000D01*
X150097142Y-72878242D01*
G37*
G36*
X99297142Y-72878242D02*
G01*
X99445101Y-72939529D01*
X99578255Y-73028499D01*
X99691501Y-73141745D01*
X99780471Y-73274899D01*
X99841758Y-73422858D01*
X99873000Y-73579925D01*
X99873000Y-73740075D01*
X99841758Y-73897142D01*
X99780471Y-74045101D01*
X99691501Y-74178255D01*
X99578255Y-74291501D01*
X99445101Y-74380471D01*
X99297142Y-74441758D01*
X99140075Y-74473000D01*
X98979925Y-74473000D01*
X98822858Y-74441758D01*
X98674899Y-74380471D01*
X98541745Y-74291501D01*
X98428499Y-74178255D01*
X98339529Y-74045101D01*
X98278242Y-73897142D01*
X98247000Y-73740075D01*
X98247000Y-73579925D01*
X98278242Y-73422858D01*
X98339529Y-73274899D01*
X98428499Y-73141745D01*
X98541745Y-73028499D01*
X98674899Y-72939529D01*
X98822858Y-72878242D01*
X98979925Y-72847000D01*
X99140075Y-72847000D01*
X99297142Y-72878242D01*
G37*
G36*
X104377142Y-72878242D02*
G01*
X104525101Y-72939529D01*
X104658255Y-73028499D01*
X104771501Y-73141745D01*
X104860471Y-73274899D01*
X104921758Y-73422858D01*
X104953000Y-73579925D01*
X104953000Y-73740075D01*
X104921758Y-73897142D01*
X104860471Y-74045101D01*
X104771501Y-74178255D01*
X104658255Y-74291501D01*
X104525101Y-74380471D01*
X104377142Y-74441758D01*
X104220075Y-74473000D01*
X104059925Y-74473000D01*
X103902858Y-74441758D01*
X103754899Y-74380471D01*
X103621745Y-74291501D01*
X103508499Y-74178255D01*
X103419529Y-74045101D01*
X103358242Y-73897142D01*
X103327000Y-73740075D01*
X103327000Y-73579925D01*
X103358242Y-73422858D01*
X103419529Y-73274899D01*
X103508499Y-73141745D01*
X103621745Y-73028499D01*
X103754899Y-72939529D01*
X103902858Y-72878242D01*
X104059925Y-72847000D01*
X104220075Y-72847000D01*
X104377142Y-72878242D01*
G37*
G36*
X96757142Y-72878242D02*
G01*
X96905101Y-72939529D01*
X97038255Y-73028499D01*
X97151501Y-73141745D01*
X97240471Y-73274899D01*
X97301758Y-73422858D01*
X97333000Y-73579925D01*
X97333000Y-73740075D01*
X97301758Y-73897142D01*
X97240471Y-74045101D01*
X97151501Y-74178255D01*
X97038255Y-74291501D01*
X96905101Y-74380471D01*
X96757142Y-74441758D01*
X96600075Y-74473000D01*
X96439925Y-74473000D01*
X96282858Y-74441758D01*
X96134899Y-74380471D01*
X96001745Y-74291501D01*
X95888499Y-74178255D01*
X95799529Y-74045101D01*
X95738242Y-73897142D01*
X95707000Y-73740075D01*
X95707000Y-73579925D01*
X95738242Y-73422858D01*
X95799529Y-73274899D01*
X95888499Y-73141745D01*
X96001745Y-73028499D01*
X96134899Y-72939529D01*
X96282858Y-72878242D01*
X96439925Y-72847000D01*
X96600075Y-72847000D01*
X96757142Y-72878242D01*
G37*
G36*
X106917142Y-72878242D02*
G01*
X107065101Y-72939529D01*
X107198255Y-73028499D01*
X107311501Y-73141745D01*
X107400471Y-73274899D01*
X107461758Y-73422858D01*
X107493000Y-73579925D01*
X107493000Y-73740075D01*
X107461758Y-73897142D01*
X107400471Y-74045101D01*
X107311501Y-74178255D01*
X107198255Y-74291501D01*
X107065101Y-74380471D01*
X106917142Y-74441758D01*
X106760075Y-74473000D01*
X106599925Y-74473000D01*
X106442858Y-74441758D01*
X106294899Y-74380471D01*
X106161745Y-74291501D01*
X106048499Y-74178255D01*
X105959529Y-74045101D01*
X105898242Y-73897142D01*
X105867000Y-73740075D01*
X105867000Y-73579925D01*
X105898242Y-73422858D01*
X105959529Y-73274899D01*
X106048499Y-73141745D01*
X106161745Y-73028499D01*
X106294899Y-72939529D01*
X106442858Y-72878242D01*
X106599925Y-72847000D01*
X106760075Y-72847000D01*
X106917142Y-72878242D01*
G37*
G36*
X157717142Y-72878242D02*
G01*
X157865101Y-72939529D01*
X157998255Y-73028499D01*
X158111501Y-73141745D01*
X158200471Y-73274899D01*
X158261758Y-73422858D01*
X158293000Y-73579925D01*
X158293000Y-73740075D01*
X158261758Y-73897142D01*
X158200471Y-74045101D01*
X158111501Y-74178255D01*
X157998255Y-74291501D01*
X157865101Y-74380471D01*
X157717142Y-74441758D01*
X157560075Y-74473000D01*
X157399925Y-74473000D01*
X157242858Y-74441758D01*
X157094899Y-74380471D01*
X156961745Y-74291501D01*
X156848499Y-74178255D01*
X156759529Y-74045101D01*
X156698242Y-73897142D01*
X156667000Y-73740075D01*
X156667000Y-73579925D01*
X156698242Y-73422858D01*
X156759529Y-73274899D01*
X156848499Y-73141745D01*
X156961745Y-73028499D01*
X157094899Y-72939529D01*
X157242858Y-72878242D01*
X157399925Y-72847000D01*
X157560075Y-72847000D01*
X157717142Y-72878242D01*
G37*
G36*
X101837142Y-72878242D02*
G01*
X101985101Y-72939529D01*
X102118255Y-73028499D01*
X102231501Y-73141745D01*
X102320471Y-73274899D01*
X102381758Y-73422858D01*
X102413000Y-73579925D01*
X102413000Y-73740075D01*
X102381758Y-73897142D01*
X102320471Y-74045101D01*
X102231501Y-74178255D01*
X102118255Y-74291501D01*
X101985101Y-74380471D01*
X101837142Y-74441758D01*
X101680075Y-74473000D01*
X101519925Y-74473000D01*
X101362858Y-74441758D01*
X101214899Y-74380471D01*
X101081745Y-74291501D01*
X100968499Y-74178255D01*
X100879529Y-74045101D01*
X100818242Y-73897142D01*
X100787000Y-73740075D01*
X100787000Y-73579925D01*
X100818242Y-73422858D01*
X100879529Y-73274899D01*
X100968499Y-73141745D01*
X101081745Y-73028499D01*
X101214899Y-72939529D01*
X101362858Y-72878242D01*
X101519925Y-72847000D01*
X101680075Y-72847000D01*
X101837142Y-72878242D01*
G37*
G36*
X107581000Y-66941000D02*
G01*
X105779000Y-66941000D01*
X105779000Y-65139000D01*
X107581000Y-65139000D01*
X107581000Y-66941000D01*
G37*
G36*
X104253512Y-65143927D02*
G01*
X104402812Y-65173624D01*
X104566784Y-65241544D01*
X104714354Y-65340147D01*
X104839853Y-65465646D01*
X104938456Y-65613216D01*
X105006376Y-65777188D01*
X105041000Y-65951259D01*
X105041000Y-66128741D01*
X105006376Y-66302812D01*
X104938456Y-66466784D01*
X104839853Y-66614354D01*
X104714354Y-66739853D01*
X104566784Y-66838456D01*
X104402812Y-66906376D01*
X104253512Y-66936073D01*
X104228742Y-66941000D01*
X104051258Y-66941000D01*
X104026488Y-66936073D01*
X103877188Y-66906376D01*
X103713216Y-66838456D01*
X103565646Y-66739853D01*
X103440147Y-66614354D01*
X103341544Y-66466784D01*
X103273624Y-66302812D01*
X103239000Y-66128741D01*
X103239000Y-65951259D01*
X103273624Y-65777188D01*
X103341544Y-65613216D01*
X103440147Y-65465646D01*
X103565646Y-65340147D01*
X103713216Y-65241544D01*
X103877188Y-65173624D01*
X104026488Y-65143927D01*
X104051258Y-65139000D01*
X104228742Y-65139000D01*
X104253512Y-65143927D01*
G37*
G36*
X155901000Y-66901000D02*
G01*
X154099000Y-66901000D01*
X154099000Y-65099000D01*
X155901000Y-65099000D01*
X155901000Y-66901000D01*
G37*
G36*
X157645035Y-65102241D02*
G01*
X157802812Y-65133624D01*
X157966784Y-65201544D01*
X158114354Y-65300147D01*
X158239853Y-65425646D01*
X158338456Y-65573216D01*
X158406376Y-65737188D01*
X158441000Y-65911259D01*
X158441000Y-66088741D01*
X158406376Y-66262812D01*
X158338456Y-66426784D01*
X158239853Y-66574354D01*
X158114354Y-66699853D01*
X157966784Y-66798456D01*
X157802812Y-66866376D01*
X157656065Y-66895565D01*
X157628742Y-66901000D01*
X157451258Y-66901000D01*
X157423935Y-66895565D01*
X157277188Y-66866376D01*
X157113216Y-66798456D01*
X156965646Y-66699853D01*
X156840147Y-66574354D01*
X156741544Y-66426784D01*
X156673624Y-66262812D01*
X156639000Y-66088741D01*
X156639000Y-65911259D01*
X156673624Y-65737188D01*
X156741544Y-65573216D01*
X156840147Y-65425646D01*
X156965646Y-65300147D01*
X157113216Y-65201544D01*
X157277188Y-65133624D01*
X157434965Y-65102241D01*
X157451258Y-65099000D01*
X157628742Y-65099000D01*
X157645035Y-65102241D01*
G37*
G36*
X126845035Y-65102241D02*
G01*
X127002812Y-65133624D01*
X127166784Y-65201544D01*
X127314354Y-65300147D01*
X127439853Y-65425646D01*
X127538456Y-65573216D01*
X127606376Y-65737188D01*
X127641000Y-65911259D01*
X127641000Y-66088741D01*
X127606376Y-66262812D01*
X127538456Y-66426784D01*
X127439853Y-66574354D01*
X127314354Y-66699853D01*
X127166784Y-66798456D01*
X127002812Y-66866376D01*
X126856065Y-66895565D01*
X126828742Y-66901000D01*
X126651258Y-66901000D01*
X126623935Y-66895565D01*
X126477188Y-66866376D01*
X126313216Y-66798456D01*
X126165646Y-66699853D01*
X126040147Y-66574354D01*
X125941544Y-66426784D01*
X125873624Y-66262812D01*
X125839000Y-66088741D01*
X125839000Y-65911259D01*
X125873624Y-65737188D01*
X125941544Y-65573216D01*
X126040147Y-65425646D01*
X126165646Y-65300147D01*
X126313216Y-65201544D01*
X126477188Y-65133624D01*
X126634965Y-65102241D01*
X126651258Y-65099000D01*
X126828742Y-65099000D01*
X126845035Y-65102241D01*
G37*
G36*
X129385035Y-65102241D02*
G01*
X129542812Y-65133624D01*
X129706784Y-65201544D01*
X129854354Y-65300147D01*
X129979853Y-65425646D01*
X130078456Y-65573216D01*
X130146376Y-65737188D01*
X130181000Y-65911259D01*
X130181000Y-66088741D01*
X130146376Y-66262812D01*
X130078456Y-66426784D01*
X129979853Y-66574354D01*
X129854354Y-66699853D01*
X129706784Y-66798456D01*
X129542812Y-66866376D01*
X129396065Y-66895565D01*
X129368742Y-66901000D01*
X129191258Y-66901000D01*
X129163935Y-66895565D01*
X129017188Y-66866376D01*
X128853216Y-66798456D01*
X128705646Y-66699853D01*
X128580147Y-66574354D01*
X128481544Y-66426784D01*
X128413624Y-66262812D01*
X128379000Y-66088741D01*
X128379000Y-65911259D01*
X128413624Y-65737188D01*
X128481544Y-65573216D01*
X128580147Y-65425646D01*
X128705646Y-65300147D01*
X128853216Y-65201544D01*
X129017188Y-65133624D01*
X129174965Y-65102241D01*
X129191258Y-65099000D01*
X129368742Y-65099000D01*
X129385035Y-65102241D01*
G37*
G36*
X131925035Y-65102241D02*
G01*
X132082812Y-65133624D01*
X132246784Y-65201544D01*
X132394354Y-65300147D01*
X132519853Y-65425646D01*
X132618456Y-65573216D01*
X132686376Y-65737188D01*
X132721000Y-65911259D01*
X132721000Y-66088741D01*
X132686376Y-66262812D01*
X132618456Y-66426784D01*
X132519853Y-66574354D01*
X132394354Y-66699853D01*
X132246784Y-66798456D01*
X132082812Y-66866376D01*
X131936065Y-66895565D01*
X131908742Y-66901000D01*
X131731258Y-66901000D01*
X131703935Y-66895565D01*
X131557188Y-66866376D01*
X131393216Y-66798456D01*
X131245646Y-66699853D01*
X131120147Y-66574354D01*
X131021544Y-66426784D01*
X130953624Y-66262812D01*
X130919000Y-66088741D01*
X130919000Y-65911259D01*
X130953624Y-65737188D01*
X131021544Y-65573216D01*
X131120147Y-65425646D01*
X131245646Y-65300147D01*
X131393216Y-65201544D01*
X131557188Y-65133624D01*
X131714965Y-65102241D01*
X131731258Y-65099000D01*
X131908742Y-65099000D01*
X131925035Y-65102241D01*
G37*
G36*
X124299455Y-65104435D02*
G01*
X124450836Y-65134547D01*
X124472255Y-65141045D01*
X124614854Y-65200111D01*
X124634599Y-65210665D01*
X124762936Y-65296417D01*
X124780241Y-65310618D01*
X124889382Y-65419759D01*
X124903583Y-65437064D01*
X124989335Y-65565401D01*
X124999889Y-65585146D01*
X125058955Y-65727745D01*
X125065453Y-65749164D01*
X125095565Y-65900545D01*
X125097759Y-65922825D01*
X125097759Y-66077175D01*
X125095565Y-66099455D01*
X125065453Y-66250836D01*
X125058955Y-66272255D01*
X124999889Y-66414854D01*
X124989335Y-66434599D01*
X124903583Y-66562936D01*
X124889382Y-66580241D01*
X124780241Y-66689382D01*
X124762936Y-66703583D01*
X124634599Y-66789335D01*
X124614854Y-66799889D01*
X124472255Y-66858955D01*
X124450836Y-66865453D01*
X124299455Y-66895565D01*
X124277175Y-66897759D01*
X124122825Y-66897759D01*
X124100545Y-66895565D01*
X123949164Y-66865453D01*
X123927745Y-66858955D01*
X123785146Y-66799889D01*
X123765401Y-66789335D01*
X123637064Y-66703583D01*
X123619759Y-66689382D01*
X123510618Y-66580241D01*
X123496417Y-66562936D01*
X123410665Y-66434599D01*
X123400111Y-66414854D01*
X123341045Y-66272255D01*
X123334547Y-66250836D01*
X123304435Y-66099455D01*
X123302241Y-66077175D01*
X123302241Y-65922825D01*
X123304435Y-65900545D01*
X123334547Y-65749164D01*
X123341045Y-65727745D01*
X123400111Y-65585146D01*
X123410665Y-65565401D01*
X123496417Y-65437064D01*
X123510618Y-65419759D01*
X123619759Y-65310618D01*
X123637064Y-65296417D01*
X123765401Y-65210665D01*
X123785146Y-65200111D01*
X123927745Y-65141045D01*
X123949164Y-65134547D01*
X124100545Y-65104435D01*
X124122825Y-65102241D01*
X124277175Y-65102241D01*
X124299455Y-65104435D01*
G37*
M02*
