M48
; DRILL file {KiCad 5.1.5+dfsg1-2build2} date Mo 01 Nov 2021 16:20:13 CET
; FORMAT={-:-/ absolute / inch / decimal}
; #@! TF.CreationDate,2021-11-01T16:20:13+01:00
; #@! TF.GenerationSoftware,Kicad,Pcbnew,5.1.5+dfsg1-2build2
; #@! TF.FileFunction,NonPlated,1,2,NPTH
FMAT,2
INCH
T1C0.1181
T2C0.1890
T3C0.3150
%
G90
G05
T1
X3.4094Y-4.0811
X3.5669Y-2.9197
X4.4331Y-2.9197
X4.5906Y-4.0811
X5.5094Y-4.0811
X5.6669Y-2.9197
X6.5331Y-2.9197
X6.6906Y-4.0811
T2
X4.8819Y-4.6063
X7.4016Y-3.0315
X7.4016Y-3.6614
X4.5669Y-4.6063
X2.6772Y-3.9764
X2.6772Y-3.6614
X7.4016Y-3.9764
X7.4016Y-3.3465
X5.5118Y-4.6063
X2.6772Y-3.0315
X2.6772Y-3.3465
X5.1969Y-4.6063
T3
X3.4094Y-3.2543
X4.0Y-4.3961
X4.5906Y-3.2543
X5.5094Y-3.2543
X6.1Y-4.3961
X6.6906Y-3.2543
T0
M30
